<svg height="100%" viewbox="0 0 200 200" width="100%" xmlns="http://www.w3.org/2000/svg">
<path d="M99.3232 62.3461C83.2279 74.8647 83.675 105.714 71.6035 117.786C54.8391 134.55 38.5667 127.532 26.0001 110.632C35.5686 143.277 71.4197 158.734 102.9 143.27C128.384 130.751 116.231 100.032 126.067 96.4548C135.903 92.878 157.188 87.7593 163 81.5C168.812 75.2407 179.353 57.8752 167.281 57.8752C155.21 57.8752 115.419 49.8275 99.3232 62.3461Z" fill="black"></path>
<path d="M129.5 78.5C123.5 78.5 112.313 63.9851 112.313 63.9851L128.212 67.226L131.5 74.5L140 70.4669L144.112 70.4669C144.112 70.4669 135.5 78.5 129.5 78.5Z" fill="white"></path>
</svg>