<svg height="100%" viewBox="0 0 200 200" width="100%" xmlns="http://www.w3.org/2000/svg">
<path d="M102.336 57.4607C86.7777 69.5619 83.7523 103.705 72.0832 115.374C55.8776 131.58 40.1476 124.796 28 108.459C37.2495 140.016 71.9055 154.958 102.336 140.009C126.971 127.908 120.056 101.112 129.564 97.6547C139.072 94.1972 156.382 88.5507 162 82.5C167.618 76.4493 177.643 49.4223 164.572 57.4611C151.5 65.4999 117.895 45.3594 102.336 57.4607Z" fill="black"></path>
<path clip-rule="evenodd" d="M123.645 66.3442C125.07 64.6166 125.964 62.7125 125 61.4276C124.049 60.1602 123.099 61.9046 121.894 64.1161C121.197 65.3944 120.416 66.8287 119.5 67.9276C117 70.9276 111 75.4276 111 75.4276C111 75.4276 114.575 73.2828 117.611 71.2965C116.957 72.5949 116.589 74.0617 116.589 75.6145C116.589 76.837 116.817 78.0062 117.233 79.0818C118.819 74.5192 124.24 69.3764 124.24 69.3764L125.577 72.0494L123.795 74.2767L126.022 77.3951L125.131 80.5136C125.131 80.5136 123.76 82.9483 121.966 84.247C123.244 84.8758 124.683 85.229 126.204 85.229C128.53 85.229 130.664 84.4026 132.327 83.0274C130.076 82.0408 127.937 79.5792 127.937 79.5792L128.52 76.9496L126.79 73.8312L128.52 71.6037L126.79 69C126.79 69 133.11 72.8487 135.728 76.9322C135.787 76.5014 135.818 76.0615 135.818 75.6145C135.818 70.3046 131.513 66 126.204 66C125.317 66 124.459 66.1199 123.645 66.3442Z" fill="white" fill-rule="evenodd"></path>
</svg>