<svg height="100%" viewBox="0 0 200 200" width="100%" xmlns="http://www.w3.org/2000/svg">
<path d="M72.5 101.5C63 113 40 112 40 112C40 112 56 143.5 68 147.5C80 151.5 109.5 152.25 117 144C124.5 135.75 128.5 103 135.5 97.5C142.5 92 150 89.5 155 85C160 80.5 155 76.4999 149 72.5C143 68.5001 125.5 47.9999 103 61.0003C80.5 74.0006 82 90 72.5 101.5Z" fill="black"></path>
<path d="M131.96 81.4984C135.941 81.8863 140.032 86.3038 140.032 86.3038L132.92 87.1179L136.051 85.9159C136.051 85.9159 134.158 84.7267 132.167 84.5327C130.176 84.3388 123.513 85.699 122.069 85.0559C120.624 84.4128 116.63 79 116.63 79C116.63 79 118.876 81.7307 121.862 82.0216C124.848 82.3125 127.979 81.1105 131.96 81.4984Z" fill="white"></path>
</svg>