<svg height="100%" viewbox="0 0 200 200" width="100%" xmlns="http://www.w3.org/2000/svg">
<path d="M87.5 37.4999C93 36.4999 101.5 41.9999 104.5 42.4998C107.5 42.9997 110 42.9999 113.5 43.9998C117 44.9997 118.5 45.4999 118.5 45.4999L116 46.4998C116 46.4998 114 45.4999 111 44.4998C108 43.4997 105.5 44 102.5 44.4998C94.1472 45.8914 88.4568 54.4997 78.5 54.4999C74.5 54.5 60 42.9999 60 42.9999C60 42.9999 69 46.4999 73.5 45.4999C78 44.4999 82 38.4999 87.5 37.4999Z" fill="black"></path>
<path d="M79.5 91C61.981 113.061 52.4011 124.948 49 162C71.7521 167.55 127.334 177.868 144.5 156C154.96 142.675 153.039 99.2746 153.957 78.8709C154.874 58.4673 141.214 34.3298 115.15 44.3359C89.0856 54.3421 97.019 68.9388 79.5 91Z" fill="black"></path>
<path d="M86.6712 42.1475C90.3574 40.7831 95.8688 42.9344 95.8688 42.9344L89.9295 46.7044L92.1825 44.2988C92.1825 44.2988 89.9983 44.0594 88.1552 44.7416C86.3121 45.4238 81.0042 49.4841 79.4513 49.5349C77.8985 49.5858 72.046 46.5129 72.046 46.5129C72.046 46.5129 75.2026 47.9641 77.9673 46.9408C80.7319 45.9175 82.985 43.5119 86.6712 42.1475Z" fill="white"></path>
<path d="M107.439 129.021C111.438 125.246 119.711 124.998 119.711 124.998L114.129 133.104L115.712 128.773C115.712 128.773 112.769 129.661 110.77 131.548C108.771 133.436 104.16 141.569 102.189 142.485C100.217 143.401 91 142.649 91 142.649C91 142.649 95.8585 142.789 98.8576 139.958C101.857 137.127 103.44 132.796 107.439 129.021Z" fill="white"></path>
<path d="M103.5 55.0002C110.5 45.0008 128 48.5003 128 48.5003C128 48.5003 128.5 42.5004 136.5 45.5004C144.5 48.5004 148.5 56.9995 148.5 56.9995C148.5 56.9995 152.227 63.5002 153 72.0002C153.773 80.5002 151.5 98.0002 151.5 98.0002C136.639 98.929 115.657 94.1574 105 83.5002C99 77.5 96.4999 64.9997 103.5 55.0002Z" fill="#3E3E60"></path>
<path d="M141 70V66L145.5 66.5L146.2 74L141 70Z" fill="black"></path>
<path d="M120.246 71.4417C123.855 70.4688 128.957 73.2364 128.957 73.2364L123.031 76.3873L125.347 74.2093C125.347 74.2093 123.283 73.7302 121.478 74.2167C119.673 74.7031 114.329 78.2151 112.845 78.0972C111.362 77.9793 106 74.2461 106 74.2461C106 74.2461 108.906 76.0519 111.613 75.3222C114.32 74.5925 116.637 72.4146 120.246 71.4417Z" fill="white"></path>
</svg>