<svg height="100%" viewbox="0 0 200 200" width="100%" xmlns="http://www.w3.org/2000/svg">
<path d="M132.644 116.582L123.591 153.446L123.043 161.721L125.237 163.978L127.706 162.097L130.45 145.17L134.839 141.409L147.458 160.217L151.024 158.712L155.824 162.097L159.802 173.006L156.51 160.969L152.395 156.455L159.802 149.684L150.475 154.95L142.52 149.684L137.856 135.39L154.59 133.133L167.483 93.26L159.116 111.316L154.59 126.362L155.687 109.811L153.767 122.601L152.121 128.619L148.829 129.371L143.891 127.115L139.777 128.619L145.812 116.582L133.741 133.133L135.662 118.839L143.068 103.793L154.59 97.0216H148.555L157.059 77.4613L166.386 9L159.802 47.3684L159.116 31.1935L158.431 15.0186L158.156 29.3127L155.139 22.5418L158.431 33.4505V51.8823L155.139 74.452L132.644 116.582Z" fill="#3E3E60"></path>
<path d="M180.731 48.4857C182.291 54.1911 177.277 63.6573 177.026 66.8656C176.775 70.0739 177.005 72.7091 176.273 76.4905C175.542 80.2719 175.152 81.8991 175.152 81.8991L173.868 79.3559C173.868 79.3559 174.738 77.1557 175.516 73.9013C176.294 70.647 175.537 68.0578 174.733 64.9416C172.498 56.2651 162.9 51.0595 161.983 40.5642C161.614 36.3478 172.401 20.0046 172.401 20.0046C172.401 20.0046 169.541 29.8137 171.009 34.465C172.478 39.1164 179.17 42.7803 180.731 48.4857Z" fill="black"></path>
<path d="M175.756 48.0407C177.533 51.8007 175.773 57.8082 175.773 57.8082L171.252 51.8949L173.996 54.0483C173.996 54.0483 174.047 51.7239 173.158 49.8439C172.269 47.9639 167.501 42.7427 167.304 41.1105C167.107 39.4783 169.808 33.0264 169.808 33.0264C169.808 33.0264 168.569 36.4873 169.902 39.3073C171.235 42.1273 173.978 44.2807 175.756 48.0407Z" fill="white"></path>
<path d="M156.923 33.0673C159.525 36.465 158.746 44.176 159.453 46.3943C160.16 48.6126 161.033 50.3158 161.574 53.0493C162.115 55.7828 162.298 56.9794 162.298 56.9794L160.743 55.6254C160.743 55.6254 160.726 53.9137 160.36 51.5208C159.994 49.1278 158.78 47.5994 157.392 45.7301C153.528 40.5257 145.676 39.6548 142.2 32.8718C140.803 30.1468 143.575 16.2533 143.575 16.2533C143.575 16.2533 144.333 23.6066 146.585 26.3231C148.838 29.0395 154.322 29.6695 156.923 33.0673Z" fill="black"></path>
<path d="M153.469 34.125C155.686 36.1598 156.144 40.6656 156.144 40.6656L151.502 37.9358L153.928 38.6308C153.928 38.6308 153.328 37.0592 152.22 36.0418C151.112 35.0243 146.492 32.826 145.916 31.7859C145.339 30.7457 145.389 25.6858 145.389 25.6858C145.389 25.6858 145.502 28.3429 147.165 29.8691C148.827 31.3952 151.253 32.0901 153.469 34.125Z" fill="white"></path>
<path d="M133.353 28.0935C136.661 29.7709 138.948 36.0869 140.333 37.5543C141.718 39.0218 143.039 40.0245 144.488 41.9568C145.937 43.889 146.529 44.755 146.529 44.755L144.807 44.2808C144.807 44.2808 144.151 42.9502 142.966 41.2184C141.782 39.4866 140.26 38.7483 138.474 37.8093C133.501 35.1947 127.041 37.4623 121.778 33.469C119.664 31.8648 116.612 19.971 116.612 19.971C116.612 19.971 119.965 25.4305 122.745 26.7068C125.524 27.9831 130.045 26.4162 133.353 28.0935Z" fill="black"></path>
<path d="M131.052 30.2167C133.547 30.974 135.597 34.3215 135.597 34.3215L130.946 33.932L133.102 33.5641C133.102 33.5641 132.043 32.5616 130.796 32.183C129.548 31.8043 125.114 31.8214 124.273 31.2255C123.432 30.6296 121.571 26.6582 121.571 26.6582C121.571 26.6582 122.657 28.6912 124.529 29.2592C126.401 29.8272 128.556 29.4593 131.052 30.2167Z" fill="white"></path>
<path d="M161.135 52.3826C161.135 52.3826 180.181 64.0217 182.297 76.719C184.413 89.4162 186 106.346 186 106.346C186 106.346 183.355 101.584 175.948 96.8229C168.541 92.0615 158.489 87.3 151.083 85.1838C137.041 81.1718 129.92 85.1838 125.688 101.055C121.456 116.926 137.856 138.617 143.676 147.612C149.495 156.606 155.315 174.594 145.263 183.058C135.211 191.523 112.991 190.994 86.5382 190.994C60.0856 190.994 43.685 187.291 41.0398 186.233C38.3947 185.175 31.5168 169.303 26.7554 156.606C21.9939 143.909 47.3885 114.282 47.3885 114.282C47.3885 114.282 45.2722 124.333 48.9755 125.391C52.6789 126.45 57.9392 124.565 64.318 125.391C70.6969 126.218 72.2538 130.153 72.2538 130.153C72.2538 130.153 69.6086 124.334 68.0215 116.927C62.5346 91.3213 75.2915 51.416 99.7645 41.8016C129.391 30.1624 142.867 41.2912 161.135 52.3826Z" fill="black"></path>
<path d="M183.884 89.416L185.471 105.288L181.767 100.526L171.186 93.1193C171.186 93.1193 162.193 87.2998 160.076 82.5383C157.96 77.7768 158.489 64.5505 158.489 64.5505C158.489 64.5505 168.012 67.7248 173.303 73.5444C178.593 79.364 183.884 89.416 183.884 89.416Z" fill="#3E3E60"></path>
<path d="M173.013 86.4686C175.435 88.2824 176.345 92.7446 176.345 92.7446L171.427 90.4787L173.924 90.9308C173.924 90.9308 173.166 89.4185 171.955 88.5117C170.745 87.6048 165.902 85.8684 165.221 84.8855C164.539 83.9026 164.082 78.835 164.082 78.835C164.082 78.835 164.462 81.4821 166.278 82.8425C168.095 84.2028 170.591 84.6549 173.013 86.4686Z" fill="white"></path>
<path d="M85.9961 118.698L104.964 155.562L106.113 163.838L101.515 166.094L96.342 164.214L91 148L81.5 143.5L54.9584 162.333L47.4864 160.828L37.4278 164.214L29.0936 175.122L35.9909 163.085L44.6125 158.571L29.0936 151.8L48.6359 157.067L65.3043 151.8L75.0754 137.506L40.0143 135.249L13 95.3762L30.5306 113.432L40.0143 128.478L37.7152 111.927L41.7386 124.717L45.1873 130.735L52.0845 131.488L62.4304 129.231L71.052 130.735L59.5 117L72.5 127L83 129.231L79.6736 120.955L64.1548 105.909L40.0143 99.1378H52.6593L34.8414 79.5775L15.2991 11.1162L29.0936 49.4846L30.5306 33.3097L31.9675 17.1348L32.5423 31.4289L38.8648 24.658L31.9675 35.5667V53.9985L38.8648 76.5682L85.9961 118.698Z" fill="#3E3E60"></path>
<path d="M88.4317 137.038C91.2429 138.157 93.2867 142.227 93.2867 142.227L87.9476 141.323L90.4755 141.108C90.4755 141.108 89.3496 139.846 87.944 139.286C86.5384 138.727 81.4108 138.315 80.4964 137.544C79.582 136.773 77.8179 132 77.8179 132C77.8179 132 78.8757 134.456 80.9841 135.295C83.0925 136.134 85.6204 135.919 88.4317 137.038Z" fill="white"></path>
</svg>