<svg height="100%" viewBox="0 0 200 200" width="100%" xmlns="http://www.w3.org/2000/svg">
<path d="M103.5 49.4995C79.5 64.9997 87.5715 86.2805 75.5 98.352C58.7356 115.116 46.0665 122.4 33.5 105.5C43.0684 138.145 78.5197 160.964 110 145.5C135.484 132.981 123 107.204 132.5 98.352C142 89.5 155.688 87.7589 161.5 81.4995C167.312 75.2402 179.353 56.7724 167.281 56.7724C155.21 56.7724 127.5 33.9993 103.5 49.4995Z" fill="black"></path>
<path d="M141.766 72.7907C146.198 77.0779 138.433 67.6644 132.5 71.4995C126.567 75.3346 126.5 79.9995 126.5 79.9995C126.5 79.9995 125.177 72.9997 129 70.4996C132.823 67.9995 137.335 68.5034 141.766 72.7907Z" fill="white"></path>
<path d="M125.176 79.6269C125.176 79.6269 123.143 80.2045 122.064 80.5107C120.986 80.817 117.787 79.6155 117.787 79.6155C117.787 79.6155 121.59 78.5351 122.669 78.2288C123.747 77.9226 125.176 79.6269 125.176 79.6269Z" fill="white"></path>
<path d="M125.211 77.6434C125.211 77.6434 123.13 77.2743 122.026 77.0786C120.922 76.8829 118.57 74.4045 118.57 74.4045C118.57 74.4045 122.463 75.0945 123.567 75.2903C124.67 75.486 125.211 77.6434 125.211 77.6434Z" fill="white"></path>
<path d="M137.573 71.6795L139.737 71.0101L140.413 68.8479L141.718 70.6992L143.983 70.6734L142.626 72.4869L143.35 74.6332L141.206 73.9027L139.389 75.255L139.421 72.99L137.573 71.6795Z" fill="white"></path>
</svg>