<svg height="100%" viewBox="0 0 200 200" width="100%" xmlns="http://www.w3.org/2000/svg">
<path d="M131.573 60.2675C134.582 62.725 141.337 74.9291 141.337 74.9291C141.337 74.9291 136.672 73.7756 132.526 70.7832C128.38 67.7907 125.12 54.8008 125.12 54.8008C125.12 54.8008 128.564 57.81 131.573 60.2675Z" fill="black"></path>
<path d="M132.748 62.5563C135.354 64.6752 141.222 75.173 141.222 75.173C141.222 75.173 137.191 74.1688 133.602 71.5873C130.013 69.0059 127.159 57.8438 127.159 57.8438C127.159 57.8438 130.142 60.4375 132.748 62.5563Z" fill="#3E3E60"></path>
<path d="M67.1742 29C67.1742 29 129.603 66.0429 137.672 68.8067C145.741 71.5705 156.5 85.3893 156.5 85.3893C156.5 85.3893 153.81 93.6805 143.051 96.4443C132.292 99.2081 124.223 118.554 124.223 118.554L126.913 124.082C126.913 124.082 138.705 124.41 133.326 127.174C127.946 129.938 121.533 129.609 121.533 129.609L102.705 140.664L108.085 148.956C108.085 148.956 124.223 146.192 118.844 151.719C113.464 157.247 89.2563 151.719 89.2563 151.719C89.2563 151.719 77.8507 162.539 61.7122 154.248C31.3509 138.649 50.4678 93.4449 75.1609 93.4449C88.6097 93.4449 102.705 90.9168 102.705 90.9168L117.315 77.4551C117.315 77.4551 94.7869 82.0899 84.0281 82.0899C73.2693 82.0899 44 63.2792 44 63.2792L121.533 71.5562C121.533 71.5562 113.464 67.8856 100.015 63.2792C86.5662 58.6728 67.1742 29 67.1742 29Z" fill="black"></path>
<path d="M144.607 85.5518C148.341 89.1647 141.798 81.232 136.798 84.4638C131.799 87.6956 131.742 91.6267 131.742 91.6267C131.742 91.6267 130.627 85.728 133.849 83.6212C137.07 81.5143 140.872 81.939 144.607 85.5518Z" fill="white"></path>
<path d="M130.626 91.3146C130.626 91.3146 128.913 91.8012 128.004 92.0593C127.095 92.3174 124.4 91.3049 124.4 91.3049C124.4 91.3049 127.605 90.3945 128.514 90.1364C129.422 89.8783 130.626 91.3146 130.626 91.3146Z" fill="white"></path>
<path d="M130.656 89.6417C130.656 89.6417 128.902 89.3307 127.972 89.1657C127.041 89.0008 125.059 86.9123 125.059 86.9123C125.059 86.9123 128.34 87.4938 129.27 87.6587C130.2 87.8237 130.656 89.6417 130.656 89.6417Z" fill="white"></path>
<path d="M141.073 84.6166L142.897 84.0525L143.466 82.2304L144.566 83.7905L146.475 83.7687L145.331 85.297L145.942 87.1056L144.135 86.4901L142.603 87.6296L142.63 85.7209L141.073 84.6166Z" fill="white"></path>
<path d="M88.9887 125.159C92.7231 128.772 86.1798 120.839 81.1802 124.071C76.1805 127.303 76.124 131.234 76.124 131.234C76.124 131.234 75.0094 125.335 78.2307 123.229C81.4521 121.122 85.2543 121.546 88.9887 125.159Z" fill="white"></path>
<path d="M75.0084 130.922C75.0084 130.922 73.2948 131.409 72.386 131.667C71.4772 131.925 68.7818 130.912 68.7818 130.912C68.7818 130.912 71.9867 130.002 72.8955 129.744C73.8043 129.486 75.0084 130.922 75.0084 130.922Z" fill="white"></path>
<path d="M75.0378 129.249C75.0378 129.249 73.2838 128.938 72.3536 128.773C71.4233 128.608 69.4413 126.52 69.4413 126.52C69.4413 126.52 72.7219 127.101 73.6521 127.266C74.5824 127.431 75.0378 129.249 75.0378 129.249Z" fill="white"></path>
<path d="M85.4553 124.224L87.2789 123.66L87.8481 121.838L88.9481 123.398L90.8569 123.376L89.7131 124.904L90.3236 126.713L88.5167 126.097L86.9853 127.237L87.0123 125.328L85.4553 124.224Z" fill="white"></path>
<path d="M116.722 67.549C120.412 67.7178 132.488 73.2006 132.488 73.2006C132.488 73.2006 128.274 74.9657 123.413 75.0335C118.552 75.1013 108.696 67.0371 108.696 67.0371C108.696 67.0371 113.031 67.3803 116.722 67.549Z" fill="black"></path>
<path d="M118.916 68.6281C122.106 68.7672 132.539 73.4504 132.539 73.4504C132.539 73.4504 128.893 74.9702 124.69 75.0356C120.487 75.101 111.979 68.2012 111.979 68.2012C111.979 68.2012 115.726 68.489 118.916 68.6281Z" fill="#3E3E60"></path>
</svg>