<svg height="100%" viewbox="0 0 200 200" width="100%" xmlns="http://www.w3.org/2000/svg">
<path d="M128.154 54.2459C130.158 56.7008 133.564 67.5557 133.564 67.5557C133.564 67.5557 130.025 65.8728 127.2 62.8048C124.375 59.7369 123.889 48.8242 123.889 48.8242C123.889 48.8242 126.15 51.791 128.154 54.2459Z" fill="black"></path>
<path d="M128.72 56.2658C130.456 58.3842 133.433 67.731 133.433 67.731C133.433 67.731 130.375 66.2708 127.929 63.6222C125.482 60.9736 125.023 51.5879 125.023 51.5879C125.023 51.5879 126.983 54.1474 128.72 56.2658Z" fill="#3E3E60"></path>
<path d="M96.2307 56.2743C83.7941 52.0146 63.3743 29 63.3743 29C89.5439 44.5282 133.54 50.0402 145.976 81.1448C145.976 81.1448 143.489 88.812 133.54 91.3677C123.591 93.9234 114.57 111.034 114.57 111.034C114.57 111.034 115.585 113.161 116.754 113.161C117.923 113.161 121.04 105.758 124.157 105.758C127.274 105.758 130.391 112.381 127.274 113.55C124.157 114.719 124.157 112.771 123.378 113.94C122.598 115.109 121.43 123.291 116.754 123.681C112.078 124.07 109.351 122.122 109.351 122.122L98.8309 130.305L104.675 139.266C104.675 139.266 116.129 137.371 111.154 142.482C106.18 147.594 83.7943 142.482 83.7943 142.482C83.7943 142.482 72.7255 147.448 85.5833 156.41C98.4412 165.372 120.261 141.412 135.846 142.482C151.431 143.552 161.562 166.93 161.562 166.93C161.562 166.93 143.249 158.358 126.495 158.358C109.741 158.358 109.351 164.592 90.2589 169.657C71.1669 174.723 54.8023 171.995 43.8926 156.41C32.9829 140.825 37.2688 92.9262 56.3609 91.3677C75.4529 89.8092 85.4482 97.6282 96.2307 91.3677C107.013 85.1071 113.642 74.9767 113.642 74.9767C113.642 74.9767 89.2491 83.5486 83.7943 85.8864C78.3394 88.2242 56.3609 81.1448 56.3609 81.1448L112.468 70.6907C112.468 70.6907 91.8175 69.1322 83.7943 69.1322C75.771 69.1322 43.8926 53.5469 43.8926 53.5469L121.43 66.7944C121.43 66.7944 108.667 60.534 96.2307 56.2743Z" fill="black"></path>
<path d="M113.76 61.6428C117.4 61.2237 130.092 64.6803 130.092 64.6803C130.092 64.6803 126.246 67.0757 121.496 67.9117C116.747 68.7477 105.821 62.4121 105.821 62.4121C105.821 62.4121 110.12 62.0619 113.76 61.6428Z" fill="black"></path>
<path d="M116.08 62.3529C119.225 61.984 130.181 64.9178 130.181 64.9178C130.181 64.9178 126.852 66.9831 122.747 67.7125C118.642 68.442 109.219 63.0332 109.219 63.0332C109.219 63.0332 112.934 62.7217 116.08 62.3529Z" fill="#3E3E60"></path>
<path d="M112.105 73.8085C113.988 72.3271 122.241 69.8999 122.241 69.8999C122.241 69.8999 120.92 72.5526 118.563 74.6465C116.205 76.7404 107.948 76.959 107.948 76.959C107.948 76.959 110.222 75.29 112.105 73.8085Z" fill="black"></path>
<path d="M113.64 73.4075C115.265 72.1236 122.372 70.0005 122.372 70.0005C122.372 70.0005 121.227 72.292 119.191 74.1057C117.155 75.9194 110.054 76.1387 110.054 76.1387C110.054 76.1387 112.015 74.6915 113.64 73.4075Z" fill="#3E3E60"></path>
<path d="M146.357 156.177C147.438 160.859 146.35 151.412 140.845 151.405C135.34 151.398 133.319 154.42 133.319 154.42C133.319 154.42 135.421 149.282 138.98 149.268C142.54 149.253 145.276 151.495 146.357 156.177Z" fill="white"></path>
<path d="M132.611 153.616C132.611 153.616 131.036 153.132 130.201 152.875C129.366 152.618 127.784 150.477 127.784 150.477C127.784 150.477 130.729 151.382 131.564 151.639C132.399 151.896 132.611 153.616 132.611 153.616Z" fill="white"></path>
<path d="M133.475 152.333C133.475 152.333 132.27 151.21 131.631 150.614C130.992 150.018 130.505 147.401 130.505 147.401C130.505 147.401 132.758 149.502 133.397 150.098C134.036 150.694 133.475 152.333 133.475 152.333Z" fill="white"></path>
<path d="M144.086 153.674L145.785 154.154L147.143 153.026L147.212 154.79L148.704 155.733L147.048 156.344L146.612 158.054L145.519 156.668L143.758 156.782L144.739 155.314L144.086 153.674Z" fill="white"></path>
<path d="M138.095 81.2957C141.549 84.6367 135.498 77.301 130.875 80.2896C126.251 83.2782 126.199 86.9134 126.199 86.9134C126.199 86.9134 125.168 81.4586 128.147 79.5104C131.126 77.5621 134.642 77.9548 138.095 81.2957Z" fill="white"></path>
<path d="M125.167 86.6224C125.167 86.6224 123.583 87.0724 122.742 87.3111C121.902 87.5498 119.409 86.6135 119.409 86.6135C119.409 86.6135 122.373 85.7716 123.214 85.5329C124.054 85.2942 125.167 86.6224 125.167 86.6224Z" fill="white"></path>
<path d="M125.195 85.0768C125.195 85.0768 123.573 84.7893 122.712 84.6367C121.852 84.4842 120.019 82.5529 120.019 82.5529C120.019 82.5529 123.053 83.0906 123.913 83.2431C124.773 83.3957 125.195 85.0768 125.195 85.0768Z" fill="white"></path>
<path d="M134.828 80.4298L136.514 79.9082L137.041 78.2233L138.058 79.6659L139.823 79.6458L138.765 81.059L139.33 82.7315L137.659 82.1623L136.243 83.2161L136.268 81.451L134.828 80.4298Z" fill="white"></path>
<path d="M65.6237 102.337C69.077 105.678 63.0262 98.342 58.4029 101.331C53.7796 104.319 53.7273 107.954 53.7273 107.954C53.7273 107.954 52.6966 102.5 55.6755 100.551C58.6543 98.6032 62.1704 98.9958 65.6237 102.337Z" fill="white"></path>
<path d="M52.6956 107.663C52.6956 107.663 51.111 108.113 50.2706 108.352C49.4302 108.591 46.9378 107.654 46.9378 107.654C46.9378 107.654 49.9014 106.813 50.7418 106.574C51.5822 106.335 52.6956 107.663 52.6956 107.663Z" fill="white"></path>
<path d="M52.7229 106.118C52.7229 106.118 51.1009 105.83 50.2407 105.678C49.3805 105.525 47.5476 103.594 47.5476 103.594C47.5476 103.594 50.5813 104.132 51.4415 104.284C52.3017 104.437 52.7229 106.118 52.7229 106.118Z" fill="white"></path>
<path d="M62.3562 101.471L64.0426 100.949L64.5689 99.2643L65.5861 100.707L67.3512 100.687L66.2935 102.1L66.8581 103.773L65.1872 103.203L63.771 104.257L63.796 102.492L62.3562 101.471Z" fill="white"></path>
</svg>