<svg height="100%" viewbox="0 0 200 200" width="100%" xmlns="http://www.w3.org/2000/svg">
<path d="M91.8898 39.0988C78.1991 34.4096 58.3687 13 58.3687 13C87.1772 30.094 147.444 39.6942 161.134 73.9353C161.134 73.9353 161.134 78.503 156.056 78.5516C150.979 78.6002 150.055 75.3202 150.055 75.3202C150.055 75.3202 149.594 78.4252 151.44 79.0132C153.287 79.6012 154.672 79.4748 154.672 80.3981C154.672 81.3214 153.748 81.3214 150.055 81.783C146.362 82.2446 144.516 80.7334 136.206 83.5032C127.897 86.273 128.576 96.8435 128.576 96.8435C128.576 96.8435 129.693 99.1844 130.98 99.1844C132.267 99.1844 135.698 91.0349 139.13 91.0349C142.561 91.0349 145.992 98.3266 142.561 99.6133C139.13 100.9 139.13 98.7555 138.272 100.042C137.414 101.329 136.127 110.336 130.98 110.765C125.833 111.194 122.83 109.05 122.83 109.05C122.83 109.05 118.676 124.715 113.125 130.716C107.574 136.717 97.4293 138.564 97.4293 138.564L101.122 141.333C101.122 141.333 113.673 138.761 108.197 144.388C102.721 150.015 78.078 144.388 78.078 144.388C78.078 144.388 66.5001 159.799 91.8898 163.03C117.279 166.261 124.666 119.175 156.056 128.869C187.447 138.564 175.445 187.496 175.445 187.496C175.445 187.496 161.005 163.03 142.561 163.03C124.117 163.03 108.752 176.381 87.7351 181.957C66.7179 187.533 40.1871 177.341 26.3381 151.951C12.4892 126.561 34.4037 83.4987 55.4209 81.783C76.4381 80.0673 89.2526 87.29 101.122 80.3981C112.992 73.5063 114.048 70.7039 114.048 70.7039C114.048 70.7039 106.662 70.7039 102.969 72.0888C99.2758 73.4736 89.5816 72.0888 89.5816 72.0888L114.971 64.241C114.971 64.241 91.8897 65.6259 88.1967 66.5492C84.5036 67.4724 66.0384 63.6128 66.0384 63.6128L117.279 57.7782C117.279 57.7782 93.2746 56.6824 84.042 53.1619C74.8094 49.6414 49.8483 39.0988 49.8483 39.0988L125.127 51.777C125.127 51.777 105.58 43.7881 91.8898 39.0988Z" fill="black"></path>
<path d="M131.675 36.6959C134.246 39.0531 139.675 50.3391 139.675 50.3391C139.675 50.3391 135.553 49.066 131.99 46.1711C128.427 43.2761 126.17 31.4648 126.17 31.4648C126.17 31.4648 129.103 34.3388 131.675 36.6959Z" fill="black"></path>
<path d="M132.61 38.8077C134.838 40.8405 139.56 50.5516 139.56 50.5516C139.56 50.5516 135.998 49.4449 132.913 46.9469C129.829 44.4489 127.842 34.2969 127.842 34.2969C127.842 34.2969 130.383 36.7748 132.61 38.8077Z" fill="#3E3E60"></path>
<path d="M122.365 38.3139C126.278 39.2922 138.018 47.7705 138.018 47.7705C138.018 47.7705 133.126 48.7488 127.909 47.7705C122.691 46.7923 113.887 36.0312 113.887 36.0312C113.887 36.0312 118.452 37.3356 122.365 38.3139Z" fill="black"></path>
<path d="M124.481 39.9448C127.865 40.7833 138.018 48.0505 138.018 48.0505C138.018 48.0505 133.787 48.889 129.275 48.0505C124.763 47.212 117.148 37.9883 117.148 37.9883C117.148 37.9883 121.096 39.1063 124.481 39.9448Z" fill="#3E3E60"></path>
<path d="M119.454 49.775C123.183 48.2368 137.663 48.0812 137.663 48.0812C137.663 48.0812 134.31 51.7744 129.532 54.0876C124.754 56.4007 111.278 52.9766 111.278 52.9766C111.278 52.9766 115.725 51.3132 119.454 49.775Z" fill="black"></path>
<path d="M122.124 49.8302C125.344 48.4938 137.829 48.3065 137.829 48.3065C137.829 48.3065 134.924 51.4946 130.797 53.5012C126.669 55.5079 115.064 52.6133 115.064 52.6133C115.064 52.6133 118.904 51.1666 122.124 49.8302Z" fill="#3E3E60"></path>
<path d="M122.708 58.4151C125.205 55.2477 137.753 48.0195 137.753 48.0195C137.753 48.0195 136.638 52.8817 133.606 57.2387C130.573 61.5956 117.148 65.2109 117.148 65.2109C117.148 65.2109 120.21 61.5825 122.708 58.4151Z" fill="black"></path>
<path d="M125.062 57.1544C127.215 54.4119 138.008 48.1336 138.008 48.1336C138.008 48.1336 137.037 52.3356 134.421 56.1069C131.805 59.8782 120.27 63.0391 120.27 63.0391C120.27 63.0391 122.909 59.8968 125.062 57.1544Z" fill="#3E3E60"></path>
<path d="M166.262 154.021C166.234 161.211 167.881 147.079 159.865 145.186C151.848 143.293 147.871 147.003 147.871 147.003C147.871 147.003 152.69 140.239 157.879 141.435C163.069 142.631 166.289 146.832 166.262 154.021Z" fill="white"></path>
<path d="M147.115 145.591C147.115 145.591 144.987 144.347 143.858 143.687C142.73 143.028 141.158 139.367 141.158 139.367C141.158 139.367 145.137 141.694 146.266 142.353C147.394 143.013 147.115 145.591 147.115 145.591Z" fill="white"></path>
<path d="M148.811 144.018C148.811 144.018 147.441 141.969 146.714 140.882C145.987 139.796 146.172 135.817 146.172 135.817C146.172 135.817 148.736 139.648 149.463 140.734C150.189 141.821 148.811 144.018 148.811 144.018Z" fill="white"></path>
<path d="M163.81 149.598L166.12 150.877L168.484 149.699L167.981 152.292L169.832 154.176L167.211 154.499L165.991 156.842L164.874 154.449L162.269 154.012L164.2 152.21L163.81 149.598Z" fill="white"></path>
<path d="M98.1634 127.944C93.056 126.18 102.709 130.781 106.001 125.538C109.294 120.295 107.619 116.565 107.619 116.565C107.619 116.565 111.262 121.635 109.152 125.036C107.041 128.438 103.271 129.708 98.1634 127.944Z" fill="white"></path>
<path d="M108.809 116.369C108.809 116.369 110.21 115.158 110.953 114.515C111.696 113.872 114.682 113.642 114.682 113.642C114.682 113.642 112.061 115.909 111.318 116.551C110.575 117.194 108.809 116.369 108.809 116.369Z" fill="white"></path>
<path d="M109.516 117.959C109.516 117.959 111.306 117.481 112.255 117.228C113.204 116.975 115.99 118.072 115.99 118.072C115.99 118.072 112.642 118.966 111.693 119.219C110.744 119.472 109.516 117.959 109.516 117.959Z" fill="white"></path>
<path d="M101.905 127.273L100.434 128.606L100.698 130.574L98.976 129.587L97.1864 130.446L97.593 128.503L96.2228 127.066L98.1963 126.853L99.139 125.106L99.9523 126.916L101.905 127.273Z" fill="white"></path>
<path d="M151.402 69.1016C154.41 72.0118 149.14 65.6218 145.112 68.2251C141.085 70.8285 141.039 73.9951 141.039 73.9951C141.039 73.9951 140.142 69.2435 142.736 67.5464C145.331 65.8493 148.394 66.1913 151.402 69.1016Z" fill="white"></path>
<path d="M140.141 73.7423C140.141 73.7423 138.76 74.1343 138.028 74.3423C137.296 74.5502 135.125 73.7345 135.125 73.7345C135.125 73.7345 137.707 73.0012 138.439 72.7933C139.171 72.5854 140.141 73.7423 140.141 73.7423Z" fill="white"></path>
<path d="M140.164 72.396C140.164 72.396 138.751 72.1455 138.002 72.0126C137.253 71.8798 135.656 70.1974 135.656 70.1974C135.656 70.1974 138.299 70.6658 139.048 70.7987C139.797 70.9315 140.164 72.396 140.164 72.396Z" fill="white"></path>
<path d="M148.556 68.3483L150.025 67.8939L150.483 66.4262L151.369 67.6828L152.907 67.6653L151.986 68.8964L152.477 70.3533L151.022 69.8574L149.788 70.7753L149.81 69.2378L148.556 68.3483Z" fill="white"></path>
<path d="M62.6915 95.5785C66.493 99.2563 59.8321 91.181 54.7426 94.4709C49.6531 97.7608 49.5955 101.763 49.5955 101.763C49.5955 101.763 48.4609 95.7578 51.7401 93.6131C55.0194 91.4684 58.89 91.9007 62.6915 95.5785Z" fill="white"></path>
<path d="M48.4598 101.444C48.4598 101.444 46.7154 101.939 45.7903 102.202C44.8652 102.465 42.1213 101.434 42.1213 101.434C42.1213 101.434 45.3839 100.507 46.309 100.244C47.2341 99.9815 48.4598 101.444 48.4598 101.444Z" fill="white"></path>
<path d="M48.4898 99.7415C48.4898 99.7415 46.7043 99.4249 45.7573 99.257C44.8104 99.0891 42.7927 96.9631 42.7927 96.9631C42.7927 96.9631 46.1323 97.555 47.0792 97.7229C48.0262 97.8908 48.4898 99.7415 48.4898 99.7415Z" fill="white"></path>
<path d="M59.0946 94.6241L60.951 94.0499L61.5304 92.1951L62.6502 93.7832L64.5932 93.7611L63.4289 95.3168L64.0504 97.1579L62.211 96.5313L60.652 97.6913L60.6795 95.7483L59.0946 94.6241Z" fill="white"></path>
</svg>