<svg height="100%" viewbox="0 0 200 200" width="100%" xmlns="http://www.w3.org/2000/svg">
<path d="M136.274 15.0209C140.217 18.6352 148.542 35.9401 148.542 35.9401C148.542 35.9401 142.221 33.9882 136.758 29.5493C131.294 25.1104 127.834 7 127.834 7C127.834 7 132.331 11.4067 136.274 15.0209Z" fill="black"></path>
<path d="M137.709 18.2583C141.124 21.3753 148.365 36.2654 148.365 36.2654C148.365 36.2654 142.904 34.5684 138.174 30.7382C133.444 26.908 130.398 11.3418 130.398 11.3418C130.398 11.3418 134.294 15.1412 137.709 18.2583Z" fill="#3E3E60"></path>
<path d="M81 34C66.1715 28.921 27.5 5 27.5 5C58.703 23.5148 167.172 17.9129 182 55C182 55 182 59.9474 176.5 60C171 60.0526 170 56.5 170 56.5C170 56.5 169.5 59.5 172.5 61C175.5 62.5 178 60.5 178 61.5C178 62.5 174 64 170 64.5C166 65 162.5 64.5 154 69C145.5 73.5 137.736 87.8123 137.736 87.8123C137.736 87.8123 138.946 90.3477 140.339 90.3477C141.733 90.3477 145.45 81.5209 149.166 81.5209C152.883 81.5209 156.599 89.4186 152.883 90.8123C149.166 92.206 149.166 89.8832 148.237 91.2769C147.308 92.6706 145.914 102.427 140.339 102.891C134.764 103.356 131.512 101.033 131.512 101.033C131.512 101.033 120.012 126 114 132.5C107.988 139 97 141 97 141L103.5 148C103.5 148 113.431 143.405 107.5 149.5C101.569 155.595 76.0403 147.309 76.0403 147.309C76.0403 147.309 63.5001 164 91 167.5C118.5 171 136 118 170 128.5C186.486 133.591 194.902 171.265 187.5 184C179.637 197.529 143.5 186 143.5 186C143.5 186 173.617 176.5 150.5 167.5C127.383 158.5 109.264 181.961 86.5 188C63.736 194.039 35 183 20 155.5C5.00005 128 17 88.0417 42 81.5209C67 75 86.5 85.5417 95 81.5209C103.5 77.5 106.5 72 106.5 72C106.5 72 98 76.5 95 77.5C92 78.5 84 75 84 75L111.5 66C111.5 66 85 72 82.5 72C80 72 70.5 69 70.5 69L115.5 59C115.5 59 91 62 87 63C83 64 63 59.8196 63 59.8196L118.5 53.5C118.5 53.5 92.5 52.3131 82.5 48.5C72.5 44.6869 45.4642 33.2681 45.4642 33.2681L127 47C127 47 95.8286 39.079 81 34Z" fill="black"></path>
<path d="M174.596 156.087C172.829 163.671 177.985 149.148 169.979 145.212C161.973 141.275 156.876 144.231 156.876 144.231C156.876 144.231 163.6 138.254 168.789 140.771C173.979 143.289 176.363 148.503 174.596 156.087Z" fill="white"></path>
<path d="M156.419 142.556C156.419 142.556 154.474 140.728 153.442 139.759C152.41 138.79 151.635 134.545 151.635 134.545C151.635 134.545 155.274 137.963 156.306 138.933C157.338 139.902 156.419 142.556 156.419 142.556Z" fill="white"></path>
<path d="M158.591 141.306C158.591 141.306 157.64 138.812 157.135 137.489C156.63 136.167 157.788 132.01 157.788 132.01C157.788 132.01 159.568 136.675 160.073 137.998C160.577 139.32 158.591 141.306 158.591 141.306Z" fill="white"></path>
<path d="M173.077 150.824L175.207 152.734L177.987 152.061L176.829 154.677L178.328 157.114L175.482 156.821L173.628 158.999L173.027 156.202L170.382 155.112L172.857 153.676L173.077 150.824Z" fill="white"></path>
<path d="M96.7952 130.497C91.2632 128.586 101.719 133.57 105.285 127.891C108.85 122.213 107.037 118.172 107.037 118.172C107.037 118.172 110.982 123.664 108.697 127.348C106.411 131.032 102.327 132.408 96.7952 130.497Z" fill="white"></path>
<path d="M108.325 117.961C108.325 117.961 109.843 116.649 110.648 115.953C111.453 115.257 114.686 115.008 114.686 115.008C114.686 115.008 111.848 117.462 111.043 118.158C110.238 118.854 108.325 117.961 108.325 117.961Z" fill="white"></path>
<path d="M109.091 119.682C109.091 119.682 111.03 119.164 112.058 118.89C113.086 118.616 116.103 119.804 116.103 119.804C116.103 119.804 112.478 120.772 111.449 121.047C110.421 121.321 109.091 119.682 109.091 119.682Z" fill="white"></path>
<path d="M100.848 129.77L99.2546 131.214L99.5407 133.345L97.6753 132.276L95.737 133.206L96.1773 131.102L94.6932 129.546L96.8308 129.314L97.8519 127.422L98.7327 129.384L100.848 129.77Z" fill="white"></path>
<path d="M167.303 52.1076C169.763 55.0986 165.587 48.6712 161.612 50.6426C157.636 52.6139 157.262 55.5205 157.262 55.5205C157.262 55.5205 156.935 51.0578 159.499 49.7695C162.062 48.4812 164.842 49.1167 167.303 52.1076Z" fill="white"></path>
<path d="M156.463 55.1932C156.463 55.1932 155.153 55.4089 154.458 55.5233C153.763 55.6377 151.852 54.6603 151.852 54.6603C151.852 54.6603 154.303 54.2566 154.997 54.1422C155.692 54.0278 156.463 55.1932 156.463 55.1932Z" fill="white"></path>
<path d="M156.626 53.9588C156.626 53.9588 155.353 53.5804 154.678 53.3797C154.003 53.179 152.711 51.465 152.711 51.465C152.711 51.465 155.092 52.1726 155.767 52.3733C156.442 52.574 156.626 53.9588 156.626 53.9588Z" fill="white"></path>
<path d="M164.765 51.1158L166.163 50.852L166.739 49.5507L167.421 50.7989L168.837 50.944L167.861 51.9792L168.16 53.3702L166.874 52.7618L165.644 53.4764L165.825 52.0651L164.765 51.1158Z" fill="white"></path>
<path d="M156.286 47.2977C158.082 48.8683 154.897 45.3815 152.679 46.9795C150.461 48.5775 150.526 50.3817 150.526 50.3817C150.526 50.3817 149.878 47.7022 151.307 46.6613C152.735 45.6205 154.489 45.7272 156.286 47.2977Z" fill="white"></path>
<path d="M150.007 50.2627C150.007 50.2627 149.232 50.5256 148.822 50.665C148.411 50.8044 147.151 50.4024 147.151 50.4024C147.151 50.4024 148.6 49.9107 149.011 49.7713C149.422 49.6319 150.007 50.2627 150.007 50.2627Z" fill="white"></path>
<path d="M149.982 49.4954C149.982 49.4954 149.17 49.3933 148.74 49.3392C148.309 49.2851 147.352 48.3731 147.352 48.3731C147.352 48.3731 148.87 48.5639 149.3 48.618C149.731 48.6721 149.982 49.4954 149.982 49.4954Z" fill="white"></path>
<path d="M154.643 46.9494L155.467 46.6484L155.685 45.7996L156.226 46.4896L157.101 46.4355L156.612 47.1629L156.934 47.9782L156.091 47.7378L155.415 48.2958L155.383 47.4198L154.643 46.9494Z" fill="white"></path>
<path d="M58.3749 95.4415C62.4924 99.4251 55.2779 90.6785 49.7654 94.2419C44.2528 97.8053 44.1905 102.14 44.1905 102.14C44.1905 102.14 42.9616 95.6358 46.5133 93.3128C50.0651 90.9899 54.2574 91.458 58.3749 95.4415Z" fill="white"></path>
<path d="M42.9604 101.794C42.9604 101.794 41.071 102.331 40.069 102.615C39.0669 102.9 36.0951 101.783 36.0951 101.783C36.0951 101.783 39.6288 100.78 40.6308 100.495C41.6328 100.21 42.9604 101.794 42.9604 101.794Z" fill="white"></path>
<path d="M42.9929 99.949C42.9929 99.949 41.0589 99.6061 40.0332 99.4243C39.0076 99.2424 36.8222 96.9397 36.8222 96.9397C36.8222 96.9397 40.4394 97.5808 41.465 97.7627C42.4907 97.9445 42.9929 99.949 42.9929 99.949Z" fill="white"></path>
<path d="M54.479 94.4093L56.4897 93.7874L57.1173 91.7784L58.3301 93.4985L60.4347 93.4746L59.1736 95.1596L59.8467 97.1538L57.8545 96.4751L56.1659 97.7315L56.1957 95.627L54.479 94.4093Z" fill="white"></path>
<path d="M122 17.5C128 19 146 32 146 32C146 32 138.5 33.5 130.5 32C122.5 30.5 109 14 109 14C109 14 116 16 122 17.5Z" fill="black"></path>
<path d="M125.243 20C130.432 21.2857 146 32.4286 146 32.4286C146 32.4286 139.514 33.7143 132.595 32.4286C125.676 31.1429 114 17 114 17C114 17 120.054 18.7143 125.243 20Z" fill="#3E3E60"></path>
<path d="M117.536 35.0754C123.253 32.7169 145.456 32.4783 145.456 32.4783C145.456 32.4783 140.314 38.141 132.988 41.6879C125.662 45.2347 105 39.9844 105 39.9844C105 39.9844 111.819 37.4339 117.536 35.0754Z" fill="black"></path>
<path d="M121.63 35.1584C126.568 33.1093 145.71 32.8222 145.71 32.8222C145.71 32.8222 141.257 37.7104 134.928 40.7873C128.599 43.8641 110.804 39.4258 110.804 39.4258C110.804 39.4258 116.692 37.2075 121.63 35.1584Z" fill="#3E3E60"></path>
<path d="M122.525 48.324C126.354 43.4674 145.594 32.3843 145.594 32.3843C145.594 32.3843 143.885 39.8395 139.235 46.5201C134.586 53.2008 114 58.7441 114 58.7441C114 58.7441 118.695 53.1806 122.525 48.324Z" fill="black"></path>
<path d="M126.135 46.391C129.436 42.1859 145.984 32.5593 145.984 32.5593C145.984 32.5593 144.496 39.0024 140.485 44.7849C136.475 50.5675 118.787 55.4141 118.787 55.4141C118.787 55.4141 122.834 50.596 126.135 46.391Z" fill="#3E3E60"></path>
<path d="M131.965 51.0646C133.7 46.2459 145.908 32.4967 145.908 32.4967C145.908 32.4967 146.52 38.8009 144.619 45.2674C142.718 51.734 128 61.4844 128 61.4844C128 61.4844 130.23 55.8833 131.965 51.0646Z" fill="black"></path>
<path d="M134.295 48.6013C135.786 44.4328 146.261 32.5333 146.261 32.5333C146.261 32.5333 146.781 37.9845 145.146 43.5782C143.511 49.1719 130.888 57.6152 130.888 57.6152C130.888 57.6152 132.804 52.7698 134.295 48.6013Z" fill="#3E3E60"></path>
</svg>