<svg height="100%" viewBox="0 0 200 200" width="100%" xmlns="http://www.w3.org/2000/svg">
<path d="M97 53.4991C76.5 69.4436 80 85.833 72 98.3515C64 110.87 46.5 129.499 34.5 115.999C46.5 144.999 81.0197 155.963 112.5 140.499C137.984 127.98 122.664 98.5758 132.5 94.9991C142.336 91.4223 148.688 88.2583 154.5 81.999C160.312 75.7397 169.353 56.772 157.281 56.772C145.21 56.772 117.5 37.5546 97 53.4991Z" fill="black"></path>
<path d="M136.251 64.5154C139.197 70.0814 137.074 76.9821 131.508 79.9284C125.942 82.8748 119.041 80.7511 116.095 75.1851C113.148 69.6191 116.474 60.857 118.912 58.9795C121.35 57.102 133.305 58.9494 136.251 64.5154Z" fill="white"></path>
<path d="M133.998 66.2221C135.53 69.1165 132.392 76.4662 129.498 77.9983C126.604 79.5304 120.444 76.3727 118.912 73.4784C117.38 70.5841 119.104 63.5304 121.998 61.9983C124.892 60.4662 132.466 63.3278 133.998 66.2221Z" fill="black"></path>
<path d="M125.801 70.0901C126.862 72.0939 130.097 72.4177 128.093 73.4784C126.09 74.5391 123.605 73.7746 122.545 71.7708C121.484 69.767 122.249 67.2828 124.252 66.2221C126.256 65.1614 124.74 68.0864 125.801 70.0901Z" fill="white"></path>
</svg>