<svg height="100%" viewBox="0 0 200 200" width="100%" xmlns="http://www.w3.org/2000/svg">
<path d="M41.9538 133.654C35.4078 128.305 14.5031 96.8238 21.0032 77.9998C27.5034 59.1758 56.0008 53.9998 50.5013 37.4997C45.0017 20.9996 25.0017 27.4998 25.0017 27.4998L46.5017 14.9997C46.5017 14.9997 70.5971 14.4998 75.0013 22.9998C79.2896 31.2761 75.2269 39.0785 75.0102 39.4833C75.1909 39.1573 78.2205 34.0575 93.0013 29.9998C108.277 25.8062 117.501 32.9998 117.501 32.9998L128.501 53.9998C105.501 39.4998 65.5975 55.505 65.5975 80.6097C65.5975 89.9997 76.9527 97.9939 85.2263 97.9939C93.4999 97.9939 106.795 74.686 117.501 67.9998C128.208 61.3135 152.195 65.8135 158.5 72.4998C164.805 79.186 187 107 187 126.5C187 146 173.5 173 155.5 183C137.5 193 111 185.5 111 185.5C111 185.5 140.5 188.846 163.5 159C186.5 129.154 158.194 80.8376 131 93.9998C114.484 101.994 89.0013 152 78.5347 155.05C68.068 158.1 48.4999 139.003 41.9538 133.654Z" fill="black"></path>
<path d="M132.761 34.5708C132.761 34.5708 131.616 31.474 128.645 30.3841C125.674 29.2942 120.18 32.8138 120.18 32.8138L132.761 34.5708Z" fill="black"></path>
<path d="M129.708 45.115C132.224 45.3042 131.983 41.7617 129.741 39.2441C127.498 36.7265 122.024 34.9989 122.024 34.9989C122.024 34.9989 127.191 44.9257 129.708 45.115Z" fill="black"></path>
<path d="M30.9613 10.4738C30.9613 10.4738 33.1817 8.03045 36.3449 8.13191C39.5082 8.23338 43.2854 13.5535 43.2854 13.5535L30.9613 10.4738Z" fill="black"></path>
<path d="M29.8463 21.3952C27.4417 20.6287 28.9911 17.4339 32.013 15.9387C35.0349 14.4434 40.7573 14.8901 40.7573 14.8901C40.7573 14.8901 32.2508 22.1617 29.8463 21.3952Z" fill="black"></path>
<path d="M113.507 36.3647C115.135 39.4404 113.961 43.2536 110.886 44.8817C107.81 46.5098 103.997 45.3363 102.369 42.2606C100.741 39.1849 102.578 34.3431 103.926 33.3056C105.273 32.2682 111.879 33.289 113.507 36.3647Z" fill="white"></path>
<path d="M112.262 37.3078C113.109 38.9072 111.375 42.9685 109.775 43.8151C108.176 44.6618 104.772 42.9169 103.926 41.3175C103.079 39.7181 104.032 35.8204 105.631 34.9738C107.23 34.1272 111.415 35.7085 112.262 37.3078Z" fill="black"></path>
<path d="M107.732 39.4452C108.318 40.5525 110.106 40.7314 108.999 41.3175C107.892 41.9036 106.519 41.4812 105.933 40.3739C105.347 39.2667 105.769 37.8939 106.877 37.3078C107.984 36.7217 107.146 38.338 107.732 39.4452Z" fill="white"></path>
<path d="M59.1171 29.459C56.7922 32.0484 52.8083 32.2628 50.2189 29.9379C47.6294 27.6129 47.4151 23.629 49.74 21.0396C52.065 18.4502 57.2435 18.5042 58.6821 19.4107C60.1208 20.3171 61.4421 26.8696 59.1171 29.459Z" fill="white"></path>
<path d="M57.8024 28.616C56.5934 29.9625 52.1832 29.7366 50.8367 28.5276C49.4902 27.3186 49.9534 23.5218 51.1624 22.1753C52.3714 20.8288 56.3584 20.3779 57.7049 21.5869C59.0514 22.7959 59.0114 27.2695 57.8024 28.616Z" fill="black"></path>
<path d="M54.2332 25.1021C53.3963 26.0343 53.8453 27.7742 52.9131 26.9372C51.9809 26.1002 51.9037 24.666 52.7407 23.7338C53.5777 22.8016 55.0119 22.7244 55.9441 23.5614C56.8763 24.3984 55.0702 24.1699 54.2332 25.1021Z" fill="white"></path>
<path d="M120.356 135.688L106.395 124.047L102.172 125.451L116.682 137.639L111.429 141.577L111.796 150.129L114.004 144.527L120.592 141.185L130.626 146.875L135.137 152.189L134.902 146.692L126.011 139.117L137.616 138.62L145.024 140.139L139.292 134.877L127.075 135.4L137.145 127.626L142.538 124.947L135.156 124.039L120.356 135.688Z" fill="#3E3E60"></path>
<path d="M115.285 131.62L111.708 119.534L97.4236 114.639L91.7339 124.673L112.335 134.194L115.285 131.62Z" fill="black"></path>
<path d="M35.2946 161.475L51.8885 147.638L56.9084 149.308L39.6622 163.794L45.905 168.475L45.4698 178.639L42.8455 171.981L35.0148 168.009L23.0878 174.772L17.7259 181.088L18.0057 174.554L28.574 165.551L14.7797 164.96L5.97433 166.765L12.7882 160.511L27.3084 161.133L15.3393 151.892L8.92948 148.708L17.7038 147.629L35.2946 161.475Z" fill="#3E3E60"></path>
<path d="M41.3226 156.64L45.5744 142.275L62.5524 136.456L69.3152 148.383L44.8283 159.7L41.3226 156.64Z" fill="black"></path>
<path d="M66.0642 158.915C68.1099 160.45 77.8083 171.969 88.673 176.236C88.673 176.236 93.1976 170.527 103.584 172.144C113.971 173.761 119.679 185.777 119.679 185.777C119.679 185.777 111.305 196.747 101.191 196.291C91.0766 195.836 86.2683 187.976 86.2683 187.976C74.9211 189.591 71.8279 193.183 68.6615 193.067C65.4951 192.951 59.9044 189.968 61.1488 188.09C62.3932 186.211 79.5929 184.454 79.5929 184.454C79.5929 184.454 56.4762 185.075 56.2211 183.284C55.9661 181.493 53.9574 175.304 56.745 174.088C59.5326 172.872 83.3698 179.569 83.3698 179.569C83.3698 179.569 59.2635 169.591 57.9238 167.262C56.5841 164.933 64.0186 157.379 66.0642 158.915Z" fill="black"></path>
<path d="M109.77 182.175C111.09 186.681 108.506 191.404 104 192.723C99.4942 194.042 94.7717 191.459 93.4525 186.953C92.1332 182.447 95.873 176.545 97.9346 175.538C99.9961 174.531 108.451 177.669 109.77 182.175Z" fill="white"></path>
<path d="M107.87 183.085C108.556 185.428 105.164 190.327 102.821 191.013C100.478 191.699 96.4515 188.471 95.7655 186.128C95.0795 183.785 97.3938 178.891 99.737 178.205C102.08 177.519 107.184 180.742 107.87 183.085Z" fill="black"></path>
<path d="M101.304 184.684C101.779 186.306 104.094 187.026 102.471 187.501C100.849 187.976 99.1492 187.046 98.6742 185.424C98.1993 183.802 99.1293 182.102 100.752 181.627C102.374 181.152 100.829 183.061 101.304 184.684Z" fill="white"></path>
<path d="M75.5777 145.161C75.5777 145.161 32.0848 114.894 35.0876 110.161C38.0905 105.428 45.815 118.808 54.6964 107.656C63.5778 96.5046 46.2431 78.5957 40.6568 78.2541C35.0706 77.9125 46.0611 95.852 30.6127 84.6185C15.1643 73.385 5.68886 96.6148 4.1473 104.166C2.60574 111.718 7.98538 118.3 7.98538 118.3L14.9588 102.645C14.9588 102.645 14.572 125.383 18.4627 134.874C22.3535 144.364 39.5676 148.243 39.5676 148.243L26.279 111.656C26.279 111.656 36.97 133.015 40.3297 137.218C43.6894 141.42 75.5777 145.161 75.5777 145.161Z" fill="#3E3E60"></path>
<path d="M25.1623 108.232C30.8088 109.146 36.1267 105.309 37.0402 99.6628C37.9538 94.0163 34.117 88.6984 28.4705 87.7848C22.8241 86.8713 16.2549 92.2843 15.3498 94.9285C14.4447 97.5727 19.5158 107.319 25.1623 108.232Z" fill="white"></path>
<path d="M25.9744 105.797C28.9106 106.272 34.3195 101.432 34.7945 98.4961C35.2695 95.56 30.759 91.1806 27.8228 90.7056C24.8867 90.2305 19.3206 93.768 18.8456 96.7042C18.3706 99.6403 23.0382 105.322 25.9744 105.797Z" fill="#3E3E60"></path>
<path d="M26.9144 97.6188C28.9472 97.9476 30.1681 100.637 30.497 98.6041C30.8259 96.5714 29.4446 94.6569 27.4119 94.3281C25.3792 93.9992 23.4647 95.3804 23.1358 97.4132C22.807 99.4459 24.8817 97.2899 26.9144 97.6188Z" fill="white"></path>
<path d="M146.195 127.619C146.195 127.619 112.418 86.7922 107.951 90.178C103.484 93.5639 117.459 100.15 107.084 109.927C96.7094 119.705 77.4217 103.919 76.6169 98.38C75.8122 92.8415 94.6032 102.303 82.1245 87.8416C69.6458 73.3804 92.0076 62.0069 99.405 59.843C106.802 57.6791 113.809 62.4931 113.809 62.4931L98.7872 70.7436C98.7872 70.7436 121.415 68.4681 131.196 71.5566C140.977 74.6451 146.273 91.4772 146.273 91.4772L108.708 81.2757C108.708 81.2757 130.882 90.1543 135.349 93.153C139.816 96.1518 146.195 127.619 146.195 127.619Z" fill="#3E3E60"></path>
<path d="M105.204 80.4468C106.584 85.9978 103.202 91.6162 97.6514 92.9959C92.1004 94.3756 86.4819 90.9941 85.1022 85.4431C83.7225 79.8921 88.5708 72.8957 91.1306 71.774C93.6904 70.6522 103.824 74.8958 105.204 80.4468Z" fill="white"></path>
<path d="M102.845 81.4584C103.562 84.345 99.1886 90.1375 96.3021 90.8549C93.4156 91.5723 88.6765 87.4414 87.959 84.5549C87.2416 81.6684 90.3042 75.8276 93.1907 75.1101C96.0772 74.3927 102.127 78.5719 102.845 81.4584Z" fill="#3E3E60"></path>
<path d="M94.7728 83.075C95.2695 85.0734 98.0509 86.0666 96.0525 86.5633C94.0542 87.06 92.0315 85.8426 91.5348 83.8443C91.0381 81.8459 92.2555 79.8233 94.2538 79.3266C96.2522 78.8299 94.2761 81.0767 94.7728 83.075Z" fill="white"></path>
<defs></defs>
</svg>