<svg height="100%" viewbox="0 0 200 200" width="100%" xmlns="http://www.w3.org/2000/svg">
<path d="M97 63.6436C76.5 77.8676 93 95.266 82.5 114C72 132.734 58 124.4 51.5 133.5C45 142.6 79.0197 159.294 110.5 145.499C135.984 134.331 117.664 93.8373 127.5 90.6466C137.336 87.4558 143.719 86.1465 148 82.1465C152.281 78.1465 154.219 63.6458 148 63.6455C141.781 63.6452 117.5 49.4196 97 63.6436Z" fill="black"></path>
<path clip-rule="evenodd" d="M124 80C127.314 80 130 77.3137 130 74C130 73.9154 129.998 73.8311 129.995 73.7474C130.634 74.8512 131 76.1332 131 77.5006C131 81.5088 127.856 81.5053 123.899 81.5009C123.767 81.5007 123.634 81.5006 123.5 81.5006C123.366 81.5006 123.233 81.5007 123.101 81.5009C119.144 81.5053 116 81.5088 116 77.5006C116 75.3712 116.887 73.4492 118.312 72.084C118.11 72.6857 118 73.33 118 74C118 77.3137 120.686 80 124 80Z" fill="white" fill-rule="evenodd"></path>
<path d="M124.2 71.1875L125.66 72.4772L127.587 72.1998L126.298 73.6594L126.575 75.5873L125.115 74.2976L123.188 74.5749L124.477 73.1154L124.2 71.1875Z" fill="white"></path>
<circle cx="122" cy="77" fill="white" r="1"></circle>
</svg>