<svg height="100%" viewBox="0 0 200 200" width="100%" xmlns="http://www.w3.org/2000/svg">
<path d="M96.6411 55.9212C74.625 71.1972 96.2765 93.3806 85 113.5C73.7235 133.619 39.9807 136.727 33 146.5C26.0193 156.273 82.7007 167.395 116.509 152.579C143.878 140.586 120.444 92.107 131.008 88.6802C141.571 85.2535 145.741 79.5516 150.339 75.2558C154.937 70.96 157.017 52.1663 150.339 52.166C143.66 52.1656 118.657 40.6453 96.6411 55.9212Z" fill="black"></path>
<path clip-rule="evenodd" d="M128.86 76.8667C132.418 76.8667 135.303 73.9817 135.303 70.423C135.303 70.3321 135.302 70.2416 135.298 70.1516C135.984 71.3371 136.377 72.7139 136.377 74.1824C136.377 78.487 133.001 78.4833 128.751 78.4785C128.609 78.4784 128.467 78.4782 128.323 78.4782C128.179 78.4782 128.036 78.4784 127.894 78.4785C123.645 78.4833 120.268 78.487 120.268 74.1824C120.268 71.8956 121.221 69.8314 122.751 68.3652C122.534 69.0114 122.416 69.7034 122.416 70.423C122.416 73.9817 125.301 76.8667 128.86 76.8667Z" fill="white" fill-rule="evenodd"></path>
<path d="M129.074 67.4024L130.642 68.7875L132.712 68.4896L131.327 70.0571L131.625 72.1276L130.058 70.7425L127.987 71.0404L129.372 69.4728L129.074 67.4024Z" fill="white"></path>
<circle cx="126.712" cy="73.6443" fill="white" r="1.07396"></circle>
<path clip-rule="evenodd" d="M63.4272 150.501C66.0015 150.072 67.7172 147.497 67.2593 144.75C67.2476 144.68 67.2346 144.61 67.2203 144.541C67.8695 145.374 68.3309 146.389 68.5198 147.522C69.0736 150.845 66.6305 151.249 63.5563 151.758C63.4536 151.775 63.3502 151.792 63.2461 151.809C63.1421 151.827 63.0387 151.844 62.9361 151.861C59.863 152.377 57.4209 152.787 56.8671 149.465C56.5729 147.7 56.9966 145.991 57.9151 144.675C57.8408 145.2 57.8445 145.749 57.9371 146.304C58.395 149.051 60.853 150.93 63.4272 150.501Z" fill="white" fill-rule="evenodd"></path>
<path d="M62.3649 143.168L63.677 144.048L65.1364 143.569L64.3361 144.946L64.8179 146.508L63.5059 145.628L62.0465 146.107L62.8467 144.73L62.3649 143.168Z" fill="white"></path>
<ellipse cx="61.459" cy="148.272" fill="white" rx="0.787567" ry="0.840395" transform="rotate(-9.46294 61.459 148.272)"></ellipse>
<path d="M137.988 120.364C137.988 120.364 133.155 120.364 129.397 117.142C125.638 113.92 126.175 123.586 126.175 123.586C126.175 123.586 126.175 133.251 129.934 130.565C133.692 127.879 138.525 126.27 138.525 126.27L136.377 123.048L137.988 120.364Z" fill="black"></path>
<path d="M129.537 153.003C129.537 153.003 126.544 149.209 126.746 144.262C126.947 139.316 119.691 145.723 119.691 145.723C119.691 145.723 112.102 151.71 116.539 152.997C120.976 154.285 125.233 157.082 125.233 157.082L126.432 153.401L129.537 153.003Z" fill="black"></path>
<path d="M125.5 43L123 49L125.5 50.5L127.5 49L125.5 43Z" fill="#3E3E60"></path>
</svg>