<svg height="100%" viewbox="0 0 200 200" width="100%" xmlns="http://www.w3.org/2000/svg">
<path d="M35.5 88.5C48 82.5 68.5 60.5 68.5 60.5L76 58.5L65 85C65 85 59 102 56 105.5C53 109 44.5 108.5 44.5 108.5C44.5 108.5 48.5 103.5 49.5 101.5C50.5 99.5 51.5 94.5 51.5 94.5C51.5 94.5 41.5 100 38.5 100C35.5 100 24 98 21.5 94C19 90 23 94.5 35.5 88.5Z" fill="#3E3E60"></path>
<path d="M137.05 88.8654C137.05 88.8654 170.902 77.2327 174.402 71.1706C177.902 65.1084 171.5 65.6734 167.62 59.3923C163.741 53.1112 148.877 37.3805 137.467 37.1436C126.057 36.9068 95.5889 40.6789 95.5889 40.6789L63.9999 59.3925L67.8796 65.6728L53.7815 84.0914L59.1204 91.4062L53.7815 108.407C53.7815 108.407 58.3132 140.976 70.4668 153.192C82.6204 165.407 103.809 172.442 103.809 172.442C103.809 172.442 97.1114 161.407 103.809 145.407C110.506 129.407 110.506 116.841 110.506 116.841L121.3 116.145L123.519 105.302L132.831 103.173L137.05 88.8654Z" fill="black"></path>
<path d="M81.1204 70.9062L64.1204 59.4062L67.6204 65.4062L53.1204 84.4062L59.1204 91.4062L54.1204 106.906L61.1204 93.9062L69.6204 95.9062L56.6204 84.4062L69.6204 67.9062L81.1204 70.9062Z" fill="#3E3E60"></path>
<path d="M108.12 95.4062L133.12 103.406L123.62 105.406L121.62 115.906L110.62 116.906L96.1204 109.906L118.62 114.406L120.62 104.406L108.12 95.4062Z" fill="#3E3E60"></path>
<path d="M177.536 41.2369L158.935 54.6923L160.595 58.8081L165.72 60.6874L177.536 41.2369Z" fill="#3E3E60"></path>
<path clip-rule="evenodd" d="M148.212 76.646C151.771 76.646 154.656 73.761 154.656 70.2023C154.656 70.1114 154.654 70.0209 154.65 69.9309C155.337 71.1164 155.73 72.4932 155.73 73.9617C155.73 78.2663 152.353 78.2626 148.104 78.2578C147.962 78.2577 147.819 78.2575 147.675 78.2575C147.531 78.2575 147.388 78.2577 147.246 78.2578C142.997 78.2626 139.62 78.2663 139.62 73.9617C139.62 71.6749 140.573 69.6107 142.104 68.1445C141.886 68.7907 141.768 69.4827 141.768 70.2023C141.768 73.761 144.653 76.646 148.212 76.646Z" fill="white" fill-rule="evenodd"></path>
<path d="M148.427 67.1817L149.994 68.5668L152.065 68.2689L150.68 69.8364L150.978 71.9069L149.41 70.5218L147.34 70.8197L148.725 69.2521L148.427 67.1817Z" fill="white"></path>
<circle cx="146.064" cy="73.4236" fill="white" r="1.07396"></circle>
<path clip-rule="evenodd" d="M82.3653 154.268C84.8727 156.059 88.3576 155.479 90.149 152.971C90.1948 152.907 90.239 152.843 90.2816 152.777C90.1686 153.958 89.7525 155.126 89.0132 156.161C86.8464 159.194 84.4691 157.491 81.4777 155.349C81.3778 155.277 81.2771 155.205 81.1758 155.133C81.0745 155.061 80.9737 154.989 80.8736 154.917C77.8774 152.782 75.4964 151.085 77.6632 148.052C78.8144 146.44 80.5249 145.466 82.3412 145.203C81.8626 145.549 81.4312 145.977 81.069 146.484C79.2776 148.992 79.858 152.476 82.3653 154.268Z" fill="white" fill-rule="evenodd"></path>
<path d="M87.2808 147.709L87.688 149.474L89.2967 150.306L87.5317 150.713L86.6993 152.322L86.2922 150.557L84.6834 149.725L86.4484 149.317L87.2808 147.709Z" fill="white"></path>
<circle cx="82.4738" cy="150.916" fill="white" r="0.929948" transform="rotate(35.5443 82.4738 150.916)"></circle>
<path clip-rule="evenodd" d="M45.865 92.4863C47.6576 91.9769 48.6979 90.1107 48.1885 88.3181C48.1755 88.2723 48.1616 88.227 48.1469 88.1822C48.6624 88.6811 49.0574 89.3184 49.2676 90.0581C49.8837 92.2265 48.1822 92.7079 46.0411 93.3137C45.9696 93.3339 45.8976 93.3543 45.8251 93.3749C45.7527 93.3955 45.6807 93.416 45.6092 93.4364C43.4695 94.047 41.7691 94.5322 41.153 92.3638C40.8257 91.2119 41.0102 90.0357 41.5713 89.0781C41.5542 89.4348 41.5938 89.8002 41.6968 90.1627C42.2062 91.9553 44.0723 92.9956 45.865 92.4863Z" fill="white" fill-rule="evenodd"></path>
<path d="M44.6185 87.6893L45.6064 88.1627L46.6067 87.7163L46.1333 88.7041L46.5797 89.7045L45.5919 89.2311L44.5915 89.6775L45.0649 88.6896L44.6185 87.6893Z" fill="white"></path>
<circle cx="44.3219" cy="91.1705" fill="white" r="0.56239" transform="rotate(-15.8622 44.3219 91.1705)"></circle>
</svg>