<svg height="100%" viewbox="0 0 200 200" width="100%" xmlns="http://www.w3.org/2000/svg">
<path d="M98.0538 164.182L104.363 157.873L108.99 159.556L102.681 164.182L95.1094 172.174L98.0538 164.182Z" fill="#3E3E60"></path>
<path d="M135.069 167.126L128.759 160.816L124.132 162.499L130.442 167.126L138.013 175.118L135.069 167.126Z" fill="#3E3E60"></path>
<path d="M145.164 157.032L138.854 150.723L134.227 152.405L140.537 157.032L148.108 165.024L145.164 157.032Z" fill="#3E3E60"></path>
<path d="M128.426 97.9684C134.38 109.733 156.612 137.568 156.612 137.568C156.612 137.568 160.399 108.656 160 97.9684C159.183 76.1147 153.791 41.8518 136.334 26.8147C130.01 21.3667 122.472 86.204 128.426 97.9684Z" fill="#3E3E60"></path>
<path clip-rule="evenodd" d="M139.643 92.2076C140.039 95.9422 143.38 98.6495 147.104 98.2546C147.199 98.2445 147.294 98.2325 147.388 98.2186C146.223 99.0707 144.826 99.6359 143.289 99.7988C138.784 100.277 138.412 96.7325 137.944 92.2728C137.929 92.1238 137.913 91.9738 137.897 91.8229C137.881 91.672 137.865 91.522 137.849 91.373C137.371 86.9145 136.991 83.3713 141.497 82.8936C143.89 82.6398 146.157 83.4108 147.861 84.8542C147.161 84.6976 146.423 84.6506 145.67 84.7304C141.946 85.1253 139.247 88.473 139.643 92.2076Z" fill="white" fill-rule="evenodd"></path>
<path d="M149.573 91.3828L148.297 93.1814L148.839 95.3212L147.045 94.0416L144.911 94.5839L146.186 92.7852L145.644 90.6455L147.439 91.9251L149.573 91.3828Z" fill="white"></path>
<ellipse cx="142.776" cy="89.5958" fill="white" rx="1.13333" ry="1.13031" transform="rotate(83.9476 142.776 89.5958)"></ellipse>
<path d="M156 77.4994C160 104.499 156 119 156 119C156 119 155.5 101.5 153.5 87.5C151.5 73.5 143.634 71.9179 142.5 68C139.795 58.6534 152.119 71.5 148 56.2467C143.881 40.9934 137.5 33.0005 137.5 33.0005C137.5 33.0005 152 50.4994 156 77.4994Z" fill="black"></path>
<path d="M100.009 103.324L57.1116 94.8984C57.1116 94.8984 51.629 95.57 52.8177 80.2242C54.0064 64.8783 58.9007 54.7324 69 41.501C69 41.501 93 51.9977 102.5 63.4995C112 75.0013 117.1 82.965 117.1 82.965L100.009 103.324Z" fill="#3E3E60"></path>
<path d="M118.133 108.876L65.3283 116.842C65.3283 116.842 60.4283 113.035 56.6046 102.786C52.7808 92.5366 51.1615 87.3967 51.1615 87.3967L82.9997 68.9991L109.5 68.9991L119.624 82.9657L118.133 108.876Z" fill="black"></path>
<path d="M88.9997 82L59.9275 117.46L90.4997 86L121.306 82.9638L88.9997 82Z" fill="#3E3E60"></path>
<path d="M130.56 95.1628L89.4462 137.513C89.4462 137.513 82.7063 136.526 73.5107 128.802C64.3151 121.079 59.9884 117.045 59.9884 117.045L89.4462 84.5L121.306 82.9658L130.56 95.1628Z" fill="black"></path>
<path d="M102 97L80.3863 136.905L106.5 100.5L125.5 93L102 97Z" fill="#3E3E60"></path>
<path d="M144.322 105.357L108.148 152.467C108.148 152.467 102.259 152.467 93.4257 146.158C84.5925 139.848 80.3863 136.483 80.3863 136.483L103 98L128.5 92L144.322 105.357Z" fill="black"></path>
<path d="M97.2613 157.565C112.055 153.257 148.053 133.633 148.053 133.633C148.053 133.633 111.748 120.749 98.9191 118.861C86.0899 116.972 58.2468 117.422 58.2468 117.422C58.2468 117.422 20.4223 126.624 13.1365 132.751C5.8506 138.877 82.4671 161.872 97.2613 157.565Z" fill="#3E3E60"></path>
<path clip-rule="evenodd" d="M91.5788 135.381C96.249 136.054 100.579 132.823 101.25 128.166C101.267 128.047 101.281 127.928 101.293 127.81C101.971 129.491 102.227 131.367 101.95 133.289C101.139 138.923 96.7082 138.28 91.1329 137.471C90.9466 137.444 90.7591 137.416 90.5703 137.389C90.3816 137.362 90.194 137.335 90.0077 137.309C84.4306 136.512 79.9984 135.878 80.8099 130.244C81.2409 127.251 82.8806 124.73 85.1654 123.1C84.7581 123.905 84.4728 124.788 84.3372 125.73C83.6664 130.388 86.9086 134.709 91.5788 135.381Z" fill="white" fill-rule="evenodd"></path>
<path d="M93.6445 123.035L95.4405 125.144L98.2138 125.146L96.1006 126.936L96.1012 129.702L94.3052 127.593L91.532 127.591L93.6451 125.801L93.6445 123.035Z" fill="white"></path>
<ellipse cx="89.3674" cy="130.759" fill="white" rx="1.4239" ry="1.42011" transform="rotate(8.19538 89.3674 130.759)"></ellipse>
<path d="M96 151.501C110.794 147.194 148.053 133.634 148.053 133.634C148.053 133.634 113.5 142.5 92.5 145C78.4954 145.118 72.8778 134.425 67.5 133.633C54.6708 131.744 75 144.5 59.5 142.5C44 140.5 22 133.633 22 133.633C22 133.633 81.2058 155.809 96 151.501Z" fill="black"></path>
<path d="M174.269 148.35C179.17 148.159 187.373 143.794 187.373 143.794C187.373 143.794 179.816 140.698 174.916 140.889C170.015 141.08 162.121 145.939 162.121 145.939C162.121 145.939 169.368 148.542 174.269 148.35Z" fill="#3E3E60"></path>
<path d="M113.196 112.447L135.069 97.3047L118.664 112.447L104.363 146.097L103.101 161.66L101.419 146.097L113.196 112.447Z" fill="#3E3E60"></path>
<path d="M103.101 161.662V146.52L116.141 111.186L135.49 96.043C135.49 96.043 162.409 110.767 164.933 121.282C167.457 131.798 171.243 141.052 171.243 146.52C171.243 151.988 174.187 153.25 174.187 157.035C174.187 160.821 159.886 163.765 154.838 161.662C149.791 159.559 140.116 155.774 140.116 155.774L125.815 167.972L119.506 159.139L103.101 161.662Z" fill="black"></path>
<path clip-rule="evenodd" d="M153.233 154.501C155.878 154.501 158.022 152.357 158.022 149.711C158.022 149.644 158.021 149.576 158.018 149.51C158.529 150.391 158.821 151.414 158.821 152.506C158.821 155.706 156.311 155.703 153.152 155.699C153.047 155.699 152.94 155.699 152.833 155.699C152.726 155.699 152.62 155.699 152.515 155.699C149.356 155.703 146.846 155.706 146.846 152.506C146.846 150.806 147.554 149.272 148.692 148.182C148.53 148.662 148.443 149.176 148.443 149.711C148.443 152.357 150.587 154.501 153.233 154.501Z" fill="white" fill-rule="evenodd"></path>
<path d="M153.392 147.466L154.557 148.496L156.096 148.274L155.067 149.439L155.288 150.979L154.123 149.949L152.584 150.17L153.614 149.005L153.392 147.466Z" fill="white"></path>
<ellipse cx="151.636" cy="152.105" fill="white" rx="0.798317" ry="0.798317"></ellipse>
<path clip-rule="evenodd" d="M76.6698 62.4645C80.146 61.0433 81.8151 57.0807 80.3977 53.6137C80.3615 53.5251 80.3236 53.4378 80.2842 53.3516C81.427 54.2324 82.3592 55.4166 82.9441 56.8473C84.6585 61.0409 81.3585 62.3857 77.206 64.078C77.0673 64.1345 76.9276 64.1915 76.7871 64.2489C76.6466 64.3063 76.507 64.3636 76.3684 64.4204C72.2197 66.1219 68.9227 67.474 67.2083 63.2804C66.2975 61.0526 66.4062 58.6611 67.3173 56.6215C67.3621 57.3379 67.5225 58.0592 67.8091 58.7602C69.2265 62.2272 73.1935 63.8857 76.6698 62.4645Z" fill="white" fill-rule="evenodd"></path>
<path d="M73.1101 53.1597L75.1929 53.8831L77.0968 52.7661L76.3681 54.8464L77.4837 56.7445L75.4009 56.0211L73.497 57.1381L74.2257 55.0579L73.1101 53.1597Z" fill="white"></path>
<ellipse cx="73.2885" cy="60.1838" fill="white" rx="1.13333" ry="1.13031" transform="rotate(-22.2357 73.2885 60.1838)"></ellipse>
<path d="M169.225 134.771C171.749 130.566 172.59 121.312 172.59 121.312C172.59 121.312 165.86 125.939 163.336 130.144C160.812 134.349 160.554 143.615 160.554 143.615C160.554 143.615 166.701 138.977 169.225 134.771Z" fill="#3E3E60"></path>
<defs></defs>
</svg>