<svg height="100%" viewBox="0 0 200 200" width="100%" xmlns="http://www.w3.org/2000/svg">
<path d="M149.879 104.41L145.333 99.998L142 101.175L146.546 104.41L152 109.998L149.879 104.41Z" fill="#3E3E60"></path>
<path d="M135.879 118.41L131.334 113.998L128 115.175L132.546 118.41L138 123.998L135.879 118.41Z" fill="#3E3E60"></path>
<path d="M146.03 90.8859L139.92 89.2127L137.568 91.8507L143.11 92.4932L150.583 94.7587L146.03 90.8859Z" fill="#3E3E60"></path>
<path d="M179.825 73.1443C186.575 74.8557 188.87 69.5867 188.87 69.5867C188.87 69.5867 184.056 70.6247 179.395 68.5561C174.734 66.4874 166.166 80.8494 166.166 80.8494C166.166 80.8494 173.074 71.4329 179.825 73.1443Z" fill="#3E3E60"></path>
<path d="M173.51 79.8097C171.024 76.2992 170.035 66.9591 160.116 63.5129C150.198 60.0666 141.636 61.8568 136.073 64.1586C130.51 66.4604 116.489 74.8213 109.822 89.4433C103.154 104.065 116.22 121.307 116.22 121.307L129 116.5L135.147 120L135.147 112.533L142.207 104.399L149 104.399L144.668 97.3148C144.668 97.3148 148.443 86.4504 152.733 84.766C157.023 83.0816 164.049 90.2846 167.847 90.0165C171.645 89.7485 175.936 88.0631 177.701 86.0297C179.466 83.9963 175.996 83.3201 173.51 79.8097Z" fill="black"></path>
<path d="M171 57.998C177.5 55.4985 176.332 49.8717 176.332 49.8717C176.332 49.8717 173 53.4984 168 54.4998C163 55.5011 164.295 72.1745 164.295 72.1745C164.295 72.1745 164.5 60.4976 171 57.998Z" fill="#3E3E60"></path>
<path clip-rule="evenodd" d="M161.529 83.6787C163.59 84.9664 166.251 84.4257 167.472 82.4709C167.503 82.421 167.533 82.3706 167.562 82.3199C167.552 83.2194 167.308 84.1178 166.804 84.9245C165.326 87.2889 163.372 86.065 160.913 84.5249C160.831 84.4734 160.748 84.4216 160.665 84.3696C160.582 84.3176 160.499 84.2659 160.417 84.2146C157.954 82.6798 155.998 81.46 157.475 79.0956C158.26 77.8395 159.52 77.0505 160.909 76.799C160.562 77.0752 160.256 77.4126 160.009 77.8078C158.788 79.7626 159.468 82.391 161.529 83.6787Z" fill="white" fill-rule="evenodd"></path>
<path d="M164.901 78.5587L165.334 79.8866L166.635 80.4722L165.295 80.832L164.757 82.077L164.324 80.7491L163.023 80.1635L164.363 79.8037L164.901 78.5587Z" fill="white"></path>
<ellipse cx="161.391" cy="81.1328" fill="white" rx="0.733333" ry="0.695577" transform="rotate(31.9985 161.391 81.1328)"></ellipse>
<path d="M102.674 65.7013L123.3 71.9014L129.014 76.0424L113.121 97.9723C113.121 97.9723 99 101.498 94.6325 107.215C86.658 117.653 102.449 145.5 80 142.492C66.2258 140.646 49.5 149 51 159.5C52.5 170 58.3326 172 58.3326 179.5C58.3326 187 46 191.002 46 191.002C46 191.002 65.8326 179.5 47.5 170.5C29.1674 161.5 1.97192 134.759 19 129C36.028 123.241 56.5463 140.994 72.2323 137.5C87.9182 134.006 83.2676 121.645 80 117C76.7323 112.355 63.0347 112.617 63.0347 112.617C63.0347 112.617 56.5 99.998 55.1224 94.5331C53.7447 89.0682 60.5 85.998 58.3326 80.9076C56.1653 75.8172 48.9215 74.0873 48.9215 74.0873L102.674 65.7013Z" fill="black"></path>
<path clip-rule="evenodd" d="M43.8088 154.37C42.3402 152.141 39.3482 151.522 37.1258 152.987C37.0691 153.024 37.0134 153.063 36.9587 153.102C37.4157 152.184 38.1132 151.372 39.0303 150.767C41.7184 148.996 43.1095 151.112 44.86 153.774C44.9185 153.863 44.9774 153.953 45.0367 154.043C45.0961 154.133 45.1552 154.222 45.2139 154.311C46.9703 156.969 48.3661 159.082 45.678 160.854C44.25 161.795 42.5677 162.048 41.0206 161.693C41.5139 161.563 41.9947 161.352 42.4441 161.056C44.6664 159.592 45.2774 156.598 43.8088 154.37Z" fill="white" fill-rule="evenodd"></path>
<path d="M37.8101 158.132L38.0282 156.58L36.9878 155.406L38.5382 155.628L39.7083 154.59L39.4902 156.141L40.5306 157.315L38.9801 157.093L37.8101 158.132Z" fill="white"></path>
<ellipse cx="42.6832" cy="157.042" fill="white" rx="0.805348" ry="0.803201" transform="rotate(-123.388 42.6832 157.042)"></ellipse>
<path d="M100.5 70.4993C110 72.4993 118.5 74.4973 118.5 74.4973L115 88.4993C115 88.4993 110.5 93.4993 100.5 95.4993C90.5001 97.4993 82 106.999 82 106.999C82 106.999 88.5 96.9993 80 96.4993C71.5 95.9993 70.5 106.999 70.5 106.999C70.5 106.999 65 98.9993 64 94.4993C63 89.9993 69 91.4993 70.5 84.4993C72 77.4993 61 75.9993 61 75.9993C61 75.9993 91.0002 68.4993 100.5 70.4993Z" fill="#3E3E60"></path>
<path d="M104.319 36.9902C108.067 40.498 132.679 70.6825 132.679 70.6825L108.067 81.5469L70.7504 79.2995L70.7504 71.998C70.7504 71.998 58.5001 68.498 57.4865 63.0889C56.4729 57.6798 65.5001 53.998 62.0401 43.3541C58.5801 32.7102 52.5001 35.498 47.9398 30.7683C43.3795 26.0386 45.1353 9.7599 45.1353 9.7599C45.1353 9.7599 65.4431 13.676 79.5001 20.998C93.5571 28.3201 100.572 33.4824 104.319 36.9902Z" fill="black"></path>
<path d="M101 39.9994L130 73.4808L112.442 75.839L80.3862 73.4808C76.9689 67.6538 70.5001 66.4994 68.7563 60.3845C64.9224 46.9399 80.508 40.3898 60.5001 31.4994C47.0001 25.5007 51.0001 14.4989 51.0001 14.4989C51.0001 14.4989 69.7724 19.4996 80.3862 24.4996C91.0001 29.4996 101 39.9994 101 39.9994Z" fill="#3E3E60"></path>
<path d="M89.4908 35.1288C107.375 49.6424 113.155 60.9428 113.155 60.9428C113.155 60.9428 102.865 50.3426 93.6382 42.7748C84.4112 35.207 78.6162 38.7083 75.6768 36.9179C68.6646 32.6466 83.6561 33.6098 72.3961 26.4708C61.1361 19.3319 52.6094 17.9987 52.6094 17.9987C52.6094 17.9987 71.6069 20.6152 89.4908 35.1288Z" fill="black"></path>
<path clip-rule="evenodd" d="M81.3549 63.5117C85.2795 65.4595 90.0358 63.8654 91.9784 59.9513C92.028 59.8513 92.0753 59.7508 92.1203 59.6498C92.2303 61.3294 91.9122 63.0587 91.1106 64.6739C88.7609 69.4084 85.0391 67.5561 80.3557 65.2253C80.1992 65.1474 80.0417 65.069 79.8831 64.9903C79.7245 64.9116 79.5668 64.8335 79.4101 64.756C74.7216 62.4356 70.9956 60.5915 73.3453 55.857C74.5936 53.3419 76.7713 51.5931 79.2594 50.8182C78.6667 51.4098 78.1589 52.1064 77.7661 52.8978C75.8236 56.8119 77.4303 61.5639 81.3549 63.5117Z" fill="white" fill-rule="evenodd"></path>
<path d="M86.7579 53.2205L87.7304 55.6018L90.1763 56.4074L87.7932 57.3734L86.9915 59.8136L86.0189 57.4323L83.573 56.6267L85.9561 55.6607L86.7579 53.2205Z" fill="white"></path>
<ellipse cx="80.7449" cy="58.7924" fill="white" rx="1.32219" ry="1.31867" transform="rotate(26.3951 80.7449 58.7924)"></ellipse>
<path d="M138.805 45.0633C139.194 48.8042 138.63 79.769 138.63 79.769L121.291 85.5401L103.167 77.5373L106.351 71.003C106.351 71.003 101.606 65.9039 103.446 60.9003C105.286 55.8968 111.513 54.0513 114.384 43.9702C117.255 33.8891 112.926 35.4079 112.654 30.4429C112.382 25.4779 120.381 11.1916 120.381 11.1916C120.381 11.1916 129.07 17.9568 133.073 26.7665C137.076 35.5762 138.416 41.3223 138.805 45.0633Z" fill="black"></path>
<path d="M135.793 47.2242L136.038 81.8439L126.021 81.1352L110.638 73.8779C111.429 68.1145 108.621 66.0427 110.395 60.2903C114.296 47.6429 125.132 44.2834 118.766 33.1146C114.47 25.5787 121.316 16.3751 121.316 16.3751C121.316 16.3751 128.746 23.8644 132 30.0432C135.253 36.222 135.793 47.2242 135.793 47.2242Z" fill="#3E3E60"></path>
<path d="M132.025 41.0168C134.851 56.8769 132.882 67.9181 132.882 67.9181C132.882 67.9181 132.237 56.7795 130.814 48.5254C129.39 40.2713 124.897 42.4742 124.173 40.4C122.445 35.4516 129.7 38.7206 127.049 30.5239C124.398 22.3272 120.614 19.765 120.614 19.765C120.614 19.765 129.199 25.1567 132.025 41.0168Z" fill="black"></path>
<path clip-rule="evenodd" d="M120.285 67.7305C122.055 69.9687 125.3 70.352 127.532 68.5866C127.589 68.5415 127.645 68.4954 127.699 68.4484C127.297 69.4684 126.629 70.3985 125.708 71.127C123.008 73.2625 121.33 71.1368 119.22 68.462C119.149 68.3726 119.078 68.2826 119.007 68.1922C118.935 68.1017 118.864 68.0119 118.793 67.9227C116.677 65.2526 114.995 63.1306 117.695 60.9952C119.129 59.8607 120.898 59.4361 122.579 59.6713C122.066 59.855 121.573 60.1241 121.122 60.4811C118.889 62.2465 118.515 65.4922 120.285 67.7305Z" fill="white" fill-rule="evenodd"></path>
<path d="M126.328 63.1716L126.239 64.8446L127.456 65.9991L125.784 65.9056L124.633 67.12L124.722 65.447L123.505 64.2926L125.178 64.3861L126.328 63.1716Z" fill="white"></path>
<ellipse cx="121.237" cy="64.7824" fill="white" rx="0.861165" ry="0.85887" transform="rotate(51.6608 121.237 64.7824)"></ellipse>
<path d="M123.823 77.1913L135.034 82.3391L138.02 86.1751L128.063 108.769C128.063 108.769 120.004 112.972 117.283 118.873C112.315 129.647 123.258 143.919 108.629 148.5C94.0006 153.081 109.742 165.5 119.621 167.5C129.5 169.5 139.87 168.541 139.5 176C139.13 183.459 119.621 193.595 119.621 193.595C119.621 193.595 155.629 173.502 117.283 173.502C78.9366 173.502 64.7077 161.243 74.5 154.675C84.2923 148.108 96.5689 149.749 105.5 145.5C114.431 141.251 110.225 133.784 108.629 129.326C107.034 124.868 99.3728 125.805 99.3728 125.805C99.3728 125.805 96.3468 113.578 95.8474 108.211C95.3479 102.844 99.2714 99.4578 98.3125 94.5025C97.3536 89.5471 93.3942 88.1843 93.3942 88.1843L123.823 77.1913Z" fill="black"></path>
<path clip-rule="evenodd" d="M94.4542 159.511C92.3919 157.817 89.3506 158.112 87.6615 160.169C87.6183 160.221 87.5765 160.274 87.5359 160.328C87.7008 159.316 88.1265 158.334 88.8235 157.485C90.8667 154.997 92.8218 156.606 95.282 158.631C95.3642 158.699 95.447 158.767 95.5303 158.835C95.6137 158.904 95.6966 158.972 95.7789 159.039C98.2436 161.059 100.202 162.664 98.1591 165.152C97.0736 166.473 95.5416 167.213 93.9588 167.332C94.3916 167.062 94.7884 166.718 95.1299 166.302C96.8191 164.245 96.5166 161.205 94.4542 159.511Z" fill="white" fill-rule="evenodd"></path>
<path d="M89.8375 164.878L89.5866 163.332L88.2453 162.519L89.792 162.272L90.6022 160.933L90.8532 162.48L92.1944 163.293L90.6477 163.54L89.8375 164.878Z" fill="white"></path>
<ellipse cx="94.1697" cy="162.396" fill="white" rx="0.805348" ry="0.803201" transform="rotate(-140.606 94.1697 162.396)"></ellipse>
<path d="M122.372 82.0691C127.577 83.5891 132.225 85.1566 132.225 85.1566L129.58 99.2541C129.58 99.2541 126.82 104.449 121.138 106.931C115.455 109.414 110.24 119.281 110.24 119.281C110.24 119.281 114.363 109.015 109.641 108.938C104.92 108.86 103.819 119.849 103.819 119.849C103.819 119.849 101.142 112.164 100.806 107.738C100.47 103.313 103.746 104.508 104.929 97.4727C106.112 90.4373 100.044 89.4885 100.044 89.4885C100.044 89.4885 117.166 80.5491 122.372 82.0691Z" fill="#3E3E60"></path>
<defs></defs>
</svg>