<svg height="100%" viewBox="0 0 200 200" width="100%" xmlns="http://www.w3.org/2000/svg">
<path d="M118.792 73.0274C116.448 72.9564 116.698 56.3847 116.698 56.3847L102.242 71.056C102.242 71.056 114.22 77.5854 115.811 80.03C117.401 82.4746 114.396 85.4427 114.396 85.4427L119.697 80.9102L121.948 84.0437C121.948 84.0437 120.628 81.0238 122.339 78.9212C124.05 76.8185 129.645 72.9835 129.645 72.9835C129.645 72.9835 130.144 75.2359 129.779 77.0892C129.415 78.9425 125.842 80.3257 125.842 80.3257C125.842 80.3257 129.664 80.0687 131.019 79.1776C132.373 78.2865 134.217 76.1051 134.217 76.1051C134.217 76.1051 135.331 77.6304 134.226 79.6477C133.122 81.665 131.893 83.1192 131.893 83.1192C131.893 83.1192 136.33 82.1351 138.049 79.3907C139.768 76.6463 139.019 73.2677 139.019 73.2677C139.019 73.2677 135.686 72.2345 133.582 69.7471C131.479 67.2596 132.209 63.553 132.209 63.553C132.209 63.553 121.135 73.0985 118.792 73.0274Z" fill="#3E3E60"></path>
<path d="M111.146 112.395C108.915 111.784 101.871 101.578 101.871 101.578L90.3777 114.904C90.3777 114.904 106.128 117.065 107.303 120.471C108.479 123.877 105.184 126.911 105.184 126.911L110.897 122.436L112.607 126.849C112.607 126.849 111.771 122.785 113.705 120.543C115.64 118.3 121.535 114.761 121.535 114.761C121.535 114.761 121.694 117.684 121.082 119.916C120.471 122.147 116.858 123.077 116.858 123.077C116.858 123.077 120.551 123.609 121.972 122.798C123.394 121.988 125.466 119.677 125.466 119.677C125.466 119.677 126.316 121.829 124.974 124.101C123.633 126.372 122.251 127.913 122.251 127.913C122.251 127.913 126.635 127.674 128.668 124.632C130.7 121.59 130.462 117.206 130.462 117.206C130.462 117.206 127.42 115.174 125.759 111.6C124.099 108.026 125.322 103.563 125.322 103.563C125.322 103.563 113.378 113.007 111.146 112.395Z" fill="#3E3E60"></path>
<path d="M25.2479 12.361L95.5396 58.7254L98.097 70.4282C98.097 70.4282 90.9196 69.6639 81.8766 71.64C72.8336 73.6161 70.7387 80.4138 70.7387 80.4138C70.7387 80.4138 68.6464 70.8388 60.2692 68.2106C51.8921 65.5825 44.7089 76.0697 44.7089 76.0697C44.7089 76.0697 48.9329 67.3438 43.7651 58.9982C39.1772 51.5891 28.6528 51.1879 26.3487 51.1912C26.0588 51.2001 25.8976 51.1985 25.8976 51.1985C25.8976 51.1985 26.0575 51.1916 26.3487 51.1912C29.2068 51.103 44.5819 49.9837 41.5426 36.0754C38.3035 21.2527 26.0395 12.8877 25.2479 12.361Z" fill="#3E3E60"></path>
<path d="M60.1802 50.4251C58.33 42.6884 49.1372 53.465 49.1372 53.465C49.1372 53.465 57.0495 42.1124 60.4924 43.6744C66.7792 46.5267 72.0651 50.8633 76.9746 55.5853C76.9746 55.5853 69.7209 50.5391 71.6953 54.2673C73.6696 57.9954 64.4733 44.787 62.1519 50.088C59.8304 55.389 65.1971 54.2649 65.1971 54.2649C65.1971 54.2649 62.0304 58.1618 60.1802 50.4251Z" fill="white"></path>
<path d="M59.4579 183.251C59.4579 183.251 84.3479 177.67 88.1388 169.843C95.0235 155.629 78.2912 150.962 79.0511 135.529C79.6414 123.541 107.923 121.852 111.469 105.137C111.469 105.137 112.482 108.682 112.482 110.709C112.482 112.735 110.963 116.282 110.963 116.282C112.729 112.644 115.015 110.709 114.508 106.656C114.002 102.604 115.015 100.578 117.041 101.591C119.067 102.604 120.08 106.656 120.08 106.656C121.297 96.3163 117.041 96.0192 112.989 88.9278C108.937 81.8363 109.949 78.9648 115.015 68.1606C120.08 57.3564 143.565 64.5936 155.642 71.6022C155.642 71.6022 165.668 86.9016 165.162 87.9147C164.655 88.9278 163.135 88.9278 163.135 88.9278L167.188 89.9419L170.227 88.4223L171.747 86.3951L168.707 85.8886L169.214 84.369L166.681 84.369C164.774 82.9388 163.979 76.5462 165.668 73.7328C167.188 71.2012 171.24 75.3153 171.24 75.3153L169.214 78.2907L172.76 76.2645L180.358 79.8103L178.838 81.8364L182.101 79.9772C182.626 78.6334 184.86 77.7556 182.682 76.3283C180.505 74.9011 177.496 72.6106 175.799 68.1606C170.993 55.5619 179.796 58.3839 182.134 59.3155C182.484 59.4668 182.682 59.5488 182.682 59.5488C182.682 59.5488 182.478 59.4526 182.134 59.3155C179.598 58.2194 169.091 53.4855 168.201 49.9254C167.188 45.8739 171.24 37.7687 171.24 37.7687C171.24 37.7687 165.668 44.1774 165.668 48.9123C165.668 53.6472 163.881 56.004 163.881 56.004C163.881 56.004 164.15 53.9776 162.63 48.9123C161.109 43.8471 161.109 36.657 161.109 36.657C161.109 36.657 159.729 41.787 159.083 44.1774C158.508 46.3044 158.577 48.9123 158.577 48.9123C158.577 48.9123 156.393 47.0405 155.537 44.1774C154.682 41.3144 154.018 35.7426 154.018 35.7426L152.498 44.1774C152.498 44.1774 149.459 40.3014 149.459 37.2622C149.459 34.223 151.485 31.183 151.485 31.183C151.485 31.183 148.446 33.2091 146.926 35.4742C145.407 37.7393 146.926 41.3144 146.926 41.3144C129.154 35.236 118.054 35.4742 118.054 35.4742C111.244 34.0054 109.04 31.0147 107.417 22.5727L105.825 34.223C105.825 34.223 100.832 34.223 97.2863 31.6903C93.7406 29.1576 87.3363 23.5858 87.3363 23.5858L98.2694 37.2622C98.2694 37.2622 93.7406 40.3006 87.3363 41.3144C80.932 42.3283 74.9988 41.3144 74.9988 41.3144L87.3363 46.38C72.6277 60.563 75.8309 70.6936 79.5575 78.7981C83.2841 86.9026 90.5171 98.5518 84.1164 103.617C71.653 113.48 66.7591 121.646 64.0705 129.817C64.0705 129.817 60.3095 132.997 58.7899 135.023C57.2703 137.049 55.7507 139.978 55.7507 139.978C55.7507 139.978 58.2834 138.062 59.2964 137.556C60.3095 137.049 62.3356 136.543 62.3356 136.543C62.3356 136.543 60.3095 140.088 59.803 142.621C59.2964 145.154 60.3095 150.219 60.3095 150.219C60.3095 150.219 60.816 146.673 61.8291 144.647C62.8422 142.621 64.8683 142.621 64.8683 142.621C65.949 144.33 63.8551 147.179 66.8943 151.738C66.8943 151.738 65.7564 145.186 68.4139 146.166C68.4139 146.166 70.1143 147.685 77.2057 160.349C84.2972 173.012 70.7248 176.303 59.4579 183.251Z" fill="black"></path>
<path d="M101.465 125.141C100.527 123.026 103.976 111.115 103.976 111.115L86.3857 110.641C86.3857 110.641 94.6742 124.207 92.7799 127.272C90.8856 130.337 86.4512 129.704 86.4512 129.704L93.5306 131.299L91.1942 135.415C91.1942 135.415 93.8128 132.197 96.7735 132.276C99.7342 132.356 106.204 134.683 106.204 134.683C106.204 134.683 104.041 136.655 101.925 137.594C99.8102 138.532 96.8046 136.321 96.8046 136.321C96.8046 136.321 98.7287 139.518 100.255 140.106C101.782 140.695 104.883 140.838 104.883 140.838C104.883 140.838 103.754 142.858 101.146 143.255C98.5376 143.653 96.4701 143.557 96.4701 143.557C96.4701 143.557 99.428 146.802 103.07 146.452C106.712 146.102 109.956 143.144 109.956 143.144C109.956 143.144 109.607 139.502 111.325 135.956C113.042 132.41 117.273 130.533 117.273 130.533C117.273 130.533 102.403 127.256 101.465 125.141Z" fill="black"></path>
<path d="M126.035 84.6899C123.699 83.8016 112.07 62.2099 112.07 62.2099L101.993 80.4794C101.993 80.4794 119.841 87.6874 120.591 90.7041C121.341 93.7208 117.28 95.6629 117.28 95.6629L124.199 92.9454L125.374 96.8862C125.374 96.8862 125.097 93.3841 127.553 91.8626C130.009 90.3411 136.981 88.4285 136.981 88.4285C136.981 88.4285 136.7 90.8713 135.686 92.6108C134.673 94.3504 130.592 94.4983 130.592 94.4983C130.592 94.4983 134.532 95.5717 136.206 95.1462C137.881 94.7206 140.498 93.1661 140.498 93.1661C140.498 93.1661 141.089 95.0908 139.274 96.7378C137.458 98.3848 135.713 99.421 135.713 99.421C135.713 99.421 140.525 99.9764 143.213 97.8112C145.901 95.6461 146.324 91.9819 146.324 91.9819C146.324 91.9819 143.327 89.7796 142.076 86.541C140.824 83.3025 142.851 79.8234 142.851 79.8234C142.851 79.8234 128.37 85.5783 126.035 84.6899Z" fill="black"></path>
<path d="M166.494 65.735C167.826 60.7765 159.294 64.0594 159.294 64.0594C159.294 64.0594 167.277 60.0555 168.75 62.0016C171.438 65.5552 173.101 69.6427 174.432 73.8329C174.432 73.8329 171.871 68.7371 171.843 71.4598C171.815 74.1826 170.665 63.8584 167.716 66.1508C164.767 68.4431 168.158 69.4578 168.158 69.4578C168.158 69.4578 165.162 70.6934 166.494 65.735Z" fill="white"></path>
<path d="M7.96637 86.0935L87.8845 59.5667L98.66 64.7995C98.66 64.7995 93.6183 69.9647 89.5748 78.2912C85.5312 86.6178 89.5748 92.4698 89.5748 92.4698C89.5748 92.4698 80.7584 88.1884 73.5101 93.1427C66.2617 98.097 70.055 110.229 70.055 110.229C70.055 110.229 65.8142 101.511 56.0605 100.407C47.4013 99.4259 40.5736 107.445 39.1504 109.257C38.978 109.49 38.877 109.616 38.877 109.616C38.877 109.616 38.9705 109.486 39.1504 109.257C40.8497 106.957 49.4846 94.1868 36.6783 87.9679C23.03 81.34 8.86994 85.7976 7.96637 86.0935Z" fill="black"></path>
<path d="M59.5805 80.8405C52.3884 77.4416 55.0403 91.356 55.0403 91.356C55.0403 91.356 51.1377 78.0798 54.5106 76.3721C60.6699 73.2538 67.3604 71.8451 74.1158 70.9712C74.1158 70.9712 65.6404 73.4706 69.7838 74.264C73.9272 75.0573 57.8699 73.9635 60.5515 79.0917C63.2331 84.2199 65.7151 79.3307 65.7151 79.3307C65.7151 79.3307 66.7727 84.2394 59.5805 80.8405Z" fill="white"></path>
<path d="M104.639 43.6414C101.55 38.5484 97.4606 48.3346 97.4606 48.3346C97.4606 48.3346 100.506 38.4306 103.318 38.7568C108.452 39.3526 113.213 41.2356 117.793 43.4795C117.793 43.4795 111.467 41.5406 113.728 43.7472C115.988 45.9538 106.41 38.6396 105.968 42.9501C105.525 47.2606 109.094 45.2317 109.094 45.2317C109.094 45.2317 107.728 48.7345 104.639 43.6414Z" fill="white"></path>
<defs></defs>
</svg>