<svg height="100%" viewBox="0 0 200 200" width="100%" xmlns="http://www.w3.org/2000/svg">
<path d="M27.0352 36.4283C26.387 24.1295 7.96629 12.4291 7.96629 12.4291C38.8447 31.9995 56 17.4995 67.4999 31.9995C67.4999 31.9995 55.7487 28.7938 56.4999 38.4995C57.2512 48.2052 76.5 63.4995 76.5 63.4995L80.9294 88.6651C80.9294 88.6651 73.1216 77.3671 62.798 77.9112C52.4744 78.4553 48.1786 84.8494 48.1786 84.8494C48.1786 84.8494 47.6025 73.9185 38.8447 69.5084C30.0868 65.0983 20.2753 75.3587 20.2753 75.3587C20.2753 75.3587 26.5072 66.5049 22.3195 56.3733C18.7379 47.7082 7.90932 45.2156 4.84959 44.6756C4.32955 44.6005 4.03645 44.5487 4.03645 44.5487C4.03645 44.5487 4.33176 44.5842 4.84959 44.6756C9.00065 45.2749 27.6112 47.3578 27.0352 36.4283Z" fill="#3E3E60"></path>
<path d="M7.97403 149.708C7.97403 149.708 9.01494 148.957 10.9062 147.911C16.7198 144.017 29.5309 133.696 34 116C39.8548 92.8158 44.1362 95.1977 44.1362 95.1977C44.1362 95.1977 39.4411 101.786 48.8833 102.09C58.3255 102.393 78.7021 78.3031 78.7021 78.3031L88.95 102.09C88.95 102.09 82.0678 106.944 81.6434 115.082C81.2189 123.22 91.8644 127.683 91.8644 127.683C91.8644 127.683 81.2551 127.13 76.1903 133.586C71.1255 140.042 80.1315 148.672 80.1315 148.672C80.1315 148.672 72.1545 142.976 61.9849 145.325C52.9563 147.411 49.6324 156.226 49.0001 158.178C48.9295 158.426 48.8833 158.562 48.8833 158.562C48.8833 158.562 48.9202 158.425 49.0001 158.178C49.6963 155.737 52.7654 142.444 37.3547 141.641C25.2973 141.012 15.5445 145.347 10.9062 147.911C9.10382 149.119 7.97403 149.708 7.97403 149.708Z" fill="black"></path>
<path d="M69.3505 115.301C60.0521 116.074 70.9169 128.644 70.9169 128.644C70.9169 128.644 59.1571 117.457 61.5787 113.742C66.0006 106.958 71.966 101.599 78.3114 96.7438C78.3114 96.7438 71.1744 104.259 75.8471 102.631C80.5199 101.003 63.5745 109.324 69.3091 112.955C75.0437 116.587 74.6921 110.165 74.6921 110.165C74.6921 110.165 78.6488 114.528 69.3505 115.301Z" fill="white"></path>
<path d="M47.9477 58.4016C48.234 49.2215 34.7234 58.4375 34.7234 58.4375C34.7234 58.4375 46.9822 48.1912 50.3437 50.9759C56.4819 56.0609 61.0547 62.4957 65.0911 69.2455C65.0911 69.2455 58.5415 61.4233 59.6098 66.1755C60.6782 70.9277 54.441 53.4232 50.2465 58.6242C46.052 63.8252 52.3716 64.2012 52.3716 64.2012C52.3716 64.2012 47.6615 67.5817 47.9477 58.4016Z" fill="white"></path>
<path d="M186.226 69.3408C186.226 69.3408 185.969 68.7105 185.743 67.6613C185.633 66.5214 185.851 64.882 187.235 62.9971C189.898 59.3708 186.007 61.4515 186.271 56.7075C186.536 51.9636 190.617 56.7853 190.617 56.7853C190.617 56.7853 189.522 52.868 185.391 53.3769C181.26 53.8857 186.081 49.8049 186.081 49.8049L182.482 48.128C182.482 48.128 185.495 50.0185 182.937 50.2865C180.378 50.5546 179.819 51.7542 179.819 51.7542C179.819 51.7542 176.209 48.995 173.918 51.8215C171.628 54.648 163.118 49.6299 160.451 45.9535C157.783 42.2771 151.97 45.6204 151.97 45.6204C151.97 45.6204 158.734 45.8233 159.988 48.3544C161.242 50.8855 160.683 52.0853 162.469 52.4307C164.255 52.7762 165.087 50.7301 168.013 53.0671C170.939 55.4041 169.853 55.3846 173.212 55.4893C176.57 55.594 170.921 58.3159 170.921 58.3159C170.921 58.3159 176.838 58.1524 174.943 53.8626C173.048 49.5728 186.855 56.9266 185.791 61.2979C185.168 63.8581 185.424 66.1782 185.743 67.6613C185.845 68.7142 186.226 69.3408 186.226 69.3408Z" fill="#3E3E60"></path>
<path d="M129.713 111.235C127.589 111.806 116.91 106.823 116.91 106.823L113.89 123.271C113.89 123.271 127.842 117.474 130.442 119.702C133.043 121.929 131.799 126 131.799 126L134.333 119.587L137.855 122.383C137.855 122.383 135.217 119.453 135.725 116.685C136.234 113.917 139.366 108.183 139.366 108.183C139.366 108.183 140.901 110.502 141.472 112.626C142.043 114.749 139.528 117.248 139.528 117.248C139.528 117.248 142.811 115.909 143.587 114.562C144.363 113.215 144.952 110.324 144.952 110.324C144.952 110.324 146.683 111.68 146.674 114.187C146.665 116.694 146.273 118.621 146.273 118.621C146.273 118.621 149.752 116.319 149.957 112.848C150.162 109.378 147.86 105.898 147.86 105.898C147.86 105.898 144.389 105.693 141.311 103.561C138.233 101.429 137.09 97.1818 137.09 97.1818C137.09 97.1818 131.836 110.664 129.713 111.235Z" fill="#3E3E60"></path>
<path d="M116.957 75.9015C115.444 77.8755 95.3261 78.4161 95.3261 78.4161L103.66 97.2142C103.66 97.2142 118.05 82.6625 121.14 82.8073C124.231 82.952 124.925 87.3791 124.925 87.3791L124.306 80.0056L128.4 80.0085C128.4 80.0085 124.981 79.2748 124.23 76.4986C123.48 73.7224 124.465 64.9615 124.465 64.9615C124.465 64.9615 126.714 65.9268 128.084 67.3893C129.454 68.8517 128.432 72.7854 128.432 72.7854C128.432 72.7854 130.579 69.3344 130.65 67.6161C130.722 65.8979 129.986 62.9585 129.986 62.9585C129.986 62.9585 131.99 62.944 133.043 65.1449C134.095 67.3458 134.586 69.3054 134.586 69.3054C134.586 69.3054 136.488 64.8746 135.19 61.6939C133.891 58.5132 130.518 57.0653 130.518 57.0653C130.518 57.0653 127.563 59.2951 124.118 59.5654C120.672 59.8357 118.343 56.1274 118.343 56.1274C118.343 56.1274 118.47 73.9274 116.957 75.9015Z" fill="#3E3E60"></path>
<path d="M132.448 20.5358C133.003 23.0186 134.473 25.6477 134.473 25.6477C134.473 25.6477 131.235 24.9068 128.824 22.4393C126.413 19.9719 122.743 14.633 122.743 14.633L125.717 24.0709C125.717 24.0709 120.53 21.7403 118.898 18.6336C117.267 15.527 117.706 11.3318 117.706 11.3318C117.706 11.3318 116.687 15.0345 116.35 18.1656C116.012 21.2968 118.485 24.1354 118.485 24.1354C97.0546 27.4632 78.2728 39.4996 78.2728 39.4996C65.5192 38.6632 69.9998 38.9996 59.9998 34.4998L74.0847 44.7364C74.0847 44.7364 68.9809 47.4168 63.9969 46.7314C59.0129 46.046 49.4753 43.7885 49.4753 43.7885L67.993 51.8991C67.993 51.8991 69.9991 60.4268 63.9969 64.9012C57.9948 69.3756 51.3857 71.5244 51.3857 71.5244L66.7163 70.0792C66.7163 70.0792 69.7163 92.3792 77.8764 98.663C101.13 116.57 96.0532 126.695 89.3716 147C89.3716 147 82.7384 153.814 82.2728 156.701C81.8071 159.588 81.8263 163.398 81.8263 163.398C81.8263 163.398 81.9824 159.5 84.5 156C87.0175 152.5 89.9776 153.194 89.9776 153.194C89.9776 153.194 87.5 160.272 87.5 164C87.5 167.728 90.8094 173.223 90.8094 173.223C90.8094 173.223 89.4237 169.326 89.3716 166.711C89.3194 164.096 93.1862 158.669 93.1862 158.669C95.2086 159.836 94.946 172.972 100.5 176C100.5 176 95 170.5 99.2597 165.728C99.2597 165.728 103.717 160.467 111.644 180.753C119.57 201.038 146.187 193.794 159.301 180.753C166.782 173.312 178.247 165.769 189.313 167.808C189.313 167.808 174.992 164.485 163.496 171.223C152 177.96 142.432 189.499 132.179 183.159C121.926 176.82 124.756 165.183 114 156.701C103.244 148.219 118.592 130.27 118.592 130.27C118.592 130.27 123.743 132.749 124.831 134.82C125.919 136.891 126.269 141.332 126.269 141.332C126.122 136.666 127.42 133.46 124.727 129.59C122.034 125.72 119.917 117.602 122.532 117.55C125.147 117.498 128.358 121.096 128.358 121.096C124.051 109.874 124.726 106.41 116.777 101.336C108.828 96.2629 103.758 86.4929 103.33 77.0199C102.901 67.5469 110.6 51.8613 126.259 48.3976C141.917 44.934 158.924 61.6695 158.95 62.977C158.976 64.2845 151.234 69.4956 151.234 69.4956L165.301 62.9651L167.592 59.7802L168.057 56.8923L164.985 59.5876L163.385 58.7857L164.838 55.1322L161.817 57.9605L160.152 56.554L161.207 53.188L158.487 55.1475C155.77 54.7093 154.83 50.9945 155.046 47.2121C155.24 43.8085 161.591 45.8384 161.591 45.8384L161.117 49.9676L163.654 45.9929L165.64 46.0846L166.207 49.585L167.854 46.4442L169.496 45.9123L169.468 50.4934L171.783 45.5677L173.324 45.5386L172.858 48.4254L175.195 44.7734C175.011 43.1176 176.823 41.0214 173.831 40.7313C170.84 40.4411 166.534 39.7151 162.41 36.0776C149.015 24.2635 166.353 25.3724 166.353 25.3724C166.353 25.3724 151.887 24.2849 145.296 17.8494C138.704 11.4139 137.358 1.30778 137.358 1.30778C137.358 1.30778 135.637 14.1192 138.179 18.9592C140.284 22.9665 142.689 27.9402 143.454 29.5331C142.979 28.6455 141.697 26.6163 138.616 23.4718C134.342 19.1104 130.482 11.7608 130.482 11.7608C130.482 11.7608 131.826 17.7455 132.448 20.5358Z" fill="black"></path>
<path d="M128.253 87.5834C125.494 88.4257 99.6056 76.9558 99.6056 76.9558L103.34 100.754C103.34 100.754 124.724 94.7007 127.543 96.9222C130.362 99.1436 128.03 103.789 128.03 103.789L132.42 96.4139L136.281 99.1775C136.281 99.1775 133.55 96.179 134.714 93.0528C135.878 89.9266 143.137 86.3723 143.137 86.3723C143.137 86.3723 144.608 88.8004 144.915 91.1046C145.221 93.4088 141.603 96.4313 141.603 96.4313C141.603 96.4313 145.957 94.6228 147.183 93.0496C148.41 91.4764 149.698 88.206 149.698 88.206C149.698 88.206 151.599 89.544 151.108 92.3312C150.617 95.1185 149.758 97.2988 149.758 97.2988C149.758 97.2988 154.542 94.4002 155.462 90.5227C156.382 86.6453 154.175 83.0032 154.175 83.0032C154.175 83.0032 149.883 83.1145 146.449 81.0456C143.015 78.9767 142.403 74.3683 142.403 74.3683C142.403 74.3683 131.013 86.7411 128.253 87.5834Z" fill="black"></path>
<path d="M124.43 142.773C122.357 141.288 116.513 116.947 116.513 116.947L101.803 132.347C101.803 132.347 117.536 144.116 117.489 147.288C117.443 150.461 112.928 151.318 112.928 151.318L120.465 150.441L120.597 154.637C120.597 154.637 121.236 151.108 124.057 150.248C126.878 149.387 133.271 152.577 133.271 152.577C133.271 152.577 132.356 154.914 130.902 156.366C129.448 157.818 125.383 156.9 125.383 156.9C125.383 156.9 128.991 158.987 130.754 159.004C132.518 159.02 135.506 158.169 135.506 158.169C135.506 158.169 135.587 160.223 133.366 161.374C131.145 162.526 129.152 163.094 129.152 163.094C129.152 163.094 133.756 164.897 136.974 163.461C140.191 162.026 141.564 158.52 141.564 158.52C141.564 158.52 139.181 155.565 138.791 152.043C138.4 148.521 141.308 145.616 141.308 145.616C141.308 145.616 126.503 144.259 124.43 142.773Z" fill="black"></path>
<path d="M153.858 37.9916C153.439 32.0783 145.369 38.8826 145.369 38.8826C145.369 38.8826 152.568 31.499 154.909 33.0663C159.184 35.9285 162.543 39.7601 165.577 43.8293C165.577 43.8293 160.858 39.2365 161.856 42.2178C162.854 45.199 157.7 34.3688 155.349 37.9836C152.997 41.5985 157.079 41.4252 157.079 41.4252C157.079 41.4252 154.277 43.9048 153.858 37.9916Z" fill="white"></path>
<path d="M78.5626 57.0156C71.9806 55.0224 76.0155 66.5845 76.0155 66.5845C76.0155 66.5845 70.9921 55.727 73.6596 53.8383C78.5307 50.3895 84.0731 48.3351 89.739 46.7299C89.739 46.7299 82.8087 49.9436 86.4527 50.0958C90.0967 50.248 76.2264 51.352 79.1708 55.3968C82.1153 59.4416 83.6169 54.9454 83.6169 54.9454C83.6169 54.9454 85.1446 59.0087 78.5626 57.0156Z" fill="white"></path>
<path d="M148.888 50.3576C149.255 47.7451 145.11 49.956 145.11 49.956C145.11 49.956 148.93 47.412 149.803 48.3118C151.398 49.955 152.503 51.9349 153.445 53.988C153.445 53.988 151.819 51.5504 151.976 52.9407C152.133 54.3309 150.897 49.1383 149.537 50.4928C148.177 51.8473 149.97 52.1515 149.97 52.1515C149.97 52.1515 148.52 52.9701 148.888 50.3576Z" fill="white"></path>
<path d="M176.857 174.974L181.751 166.93L176.192 159.935C176.192 159.935 179.597 162.634 184.573 164.554C189.549 166.474 193.884 166.761 193.884 166.761C193.884 166.761 188.851 168.283 185.155 169.629C181.46 170.976 176.857 174.974 176.857 174.974Z" fill="black"></path>
<defs></defs>
</svg>