<svg height="100%" viewBox="0 0 200 200" width="100%" xmlns="http://www.w3.org/2000/svg">
<path d="M97 63.6445C76.5 77.8685 86 92.6375 75.5 111.372C65 130.105 42.5 124.753 34.5 119.4C46.5 145.271 81.0197 155.052 112.5 141.257C137.984 130.089 122.164 100.289 132 97.098C141.836 93.9072 152.5 92.1915 154.5 89.0691C156.5 85.9468 169.353 66.5642 157.281 66.5642C145.21 66.5642 117.5 49.4205 97 63.6445Z" fill="black"></path>
<path d="M125.786 74.7839C119.676 73.1063 114.3 71 114.3 71C114.3 71 111.777 78.3268 121.362 81.2998C130.397 84.1021 144.226 77.6382 138.759 76.8871C137.474 78.8296 135.26 80.1123 132.743 80.1123C129.402 80.1123 126.592 77.8497 125.786 74.7839Z" fill="white"></path>
</svg>