<svg height="100%" viewbox="0 0 200 200" width="100%" xmlns="http://www.w3.org/2000/svg">
<path d="M99.3229 61.2437C83.2276 73.7623 83.6747 104.612 71.6032 116.683C54.8387 133.448 38.5663 126.43 25.9998 109.53C35.5682 142.175 71.4193 157.631 102.9 142.167C128.384 129.649 125.664 102.077 135.5 98.5C145.336 94.9233 161.469 88.2593 167.281 82C173.093 75.7407 179.352 64 167.281 64C155.209 64 115.418 48.7251 99.3229 61.2437Z" fill="black"></path>
<path d="M131.875 70.8432L151.346 77.1257L141.569 77.8441C141.569 77.8441 140.718 73.2781 133.265 73.5933C125.812 73.9085 124.87 82.0623 124.87 82.0623L121.956 87.7599L123.149 81.524L109.331 76.4374L131.875 70.8432Z" fill="white"></path>
</svg>