<svg height="100%" viewbox="0 0 200 200" width="100%" xmlns="http://www.w3.org/2000/svg">
<path d="M124.234 102.267L108.287 103.309L114.438 114.215L125.406 117.771L126.91 121.21L130.149 121.868L132.644 127.161L132.459 120.618L135.751 124.58L134.287 120.399L132.331 118.045L137.866 121.483L133.19 116.661L129.428 115.769L131.675 111.223L124.234 102.267Z" fill="#3E3E60"></path>
<path d="M119.707 96.1875L132.318 110.59L126.485 117.817L95.7285 124.755L109.486 111.807L119.707 96.1875Z" fill="black"></path>
<path d="M94.9054 112.056L103.76 117.919L102.642 127.669L98.3076 140.142C98.3076 140.142 96.9269 127.618 84.4626 131.524C71.9984 135.429 60.6636 135.837 49.2037 144.414C37.7439 152.99 32.1998 176.146 56.8521 180.124C60.2637 180.674 71.452 183.646 82.7876 178.475C94.1233 173.303 105.973 157.714 115.159 154.295C124.345 150.877 139.862 148.714 139.862 148.714L124.404 147.62L144.085 144.549L164.856 158.999C164.856 158.999 142.042 152.572 136.664 152.638C131.287 152.703 127.176 156.468 117.316 161.177C107.455 165.887 95.6114 190.112 89.8666 192.452C84.1217 194.792 52.4992 193.238 50.2543 191.242C48.0094 189.246 23.3021 163.755 34.8549 142.098C46.4077 120.441 83.6354 122.606 83.6354 122.606L71.3737 116.508L96.9078 118.447L94.9054 112.056Z" fill="black"></path>
<path d="M120.539 113.415L106.851 105.307L103.501 117.371L106.697 123.726L109.75 129.797L113.812 131.631L118.284 136.448L116.922 142.912L120.364 137.144L122.738 141.361L122.014 135.456L125.035 139.678L123.807 133.671L118.823 129.111L120.109 126.317L120.539 113.415Z" fill="black"></path>
<path d="M95.3417 59.3993L128.656 90.5083L128.811 92.4801L126.783 91.9239L93.7041 69.4549L88.9558 59.7638L37.8592 54.7015L99.3533 51.4953L95.3417 59.3993Z" fill="#3E3E60"></path>
<path d="M75.4336 5.72584L135.673 24.166L129.619 31.9861L121.591 58.5924L131.79 84.6043L128.3 90.3267L126.699 87.2721L116.359 59.4621L119.166 34.852L75.4336 5.72584Z" fill="#3E3E60"></path>
<path d="M148.687 97.3637L143.604 81.1418L122.62 81.0635L114.146 97.3905L132.637 113.031L148.687 97.3637Z" fill="#3E3E60"></path>
<path d="M83.2889 96.0075L120.69 95.8793L122.289 97.5375L120.477 98.6452L80.7776 104.607L63.4708 97.6139L23.3942 98.8354L71.0506 83.9021L83.2889 96.0075Z" fill="black"></path>
<path d="M81.7634 68.1287L122.987 85.982L125.203 89.6065L122.07 91.6679L75.4091 77.1378L59.6519 47.5256L12.1102 44.4314L57.7673 34.6201L75.695 34.9858L73.9075 43.0585L81.7634 68.1287Z" fill="black"></path>
<path d="M181.293 63.1685L162.15 56.1557L147.34 53.2775L125.052 54.891L142.114 65.2205L131.699 82.3429L134.013 89.9881L141.5 94.7119C141.5 94.7119 147.067 87.2518 148.408 82.864C149.749 78.4761 153.885 78.7069 155.854 77.0944C157.823 75.4818 160.471 71.2602 160.471 71.2602L180.944 66.6271L181.293 63.1685Z" fill="black"></path>
<path d="M159.704 60.9833L167.16 65.7816L163.023 65.0188C163.023 65.0188 163.133 62.9847 160.003 62.3044C156.873 61.624 155.654 64.9875 155.654 64.9875L153.865 67.0915L154.993 64.5707L149.765 60.8985L159.704 60.9833Z" fill="white"></path>
<path d="M60.4163 37.831L69.7057 42.6265L64.7173 42.1708C64.7173 42.1708 64.6704 39.7981 60.8871 39.3336C57.1038 38.869 55.9469 42.9003 55.9469 42.9003L54.0016 45.5287L55.1246 42.4851L48.5848 38.7653L60.4163 37.831Z" fill="white"></path>
<path d="M63.4289 88.407L72.7944 88.9447L68.5492 90.3938C68.5492 90.3938 67.6332 88.4654 64.3695 89.4669C61.1058 90.4684 61.6515 94.1967 61.6515 94.1967L61.034 97.0626L60.8259 94.1567L54.1053 93.4962L63.4289 88.407Z" fill="white"></path>
<path d="M86.4166 179.89L96.8616 179.453L92.3027 181.529C92.3027 181.529 91.0865 179.491 87.57 180.962C84.0534 182.432 85.0455 186.507 85.0455 186.507L84.6577 189.754L84.1255 186.554L76.6018 186.563L86.4166 179.89Z" fill="white"></path>
<defs></defs>
</svg>