<svg height="100%" viewbox="0 0 200 200" width="100%" xmlns="http://www.w3.org/2000/svg">
<path d="M126.688 123.401L110.984 120.496L114.226 132.355L123.962 138.411L124.563 142.044L127.536 143.459L128.635 149.096L130.085 142.836L127.367 140.744L128.764 140.096L130.601 140.362L135.106 144.978L131.778 139.258L128.357 137.491L131.664 133.723L126.688 123.401Z" fill="#3E3E60"></path>
<path d="M130 109.674L140.5 126.834L121.698 134.902L90.2745 132.376L107.274 124.294L123 113.106L117 106.242L130 109.674Z" fill="black"></path>
<path d="M93.286 120.252L99.9829 128.334L93.286 147.024L88.1346 147.529L91.2255 135.406L85.0438 147.024C72.258 145.596 12.5266 139.111 17 167.734C18.5 177.332 49.499 180.363 61.8624 178.847C74.2258 177.332 90.1952 165.238 99.9829 164.733C109.771 164.228 125.225 167.734 125.225 167.734L110.801 162.178L151.497 169.25L185.5 190.57C185.5 190.57 156.648 174.301 151.497 172.786C146.346 171.27 110.801 171.27 99.9829 172.786C89.1649 174.301 70.6198 193.496 64.4381 194.001C58.2564 194.506 11.3785 187.434 9.83311 184.909C8.28769 182.383 12.924 135.406 24.7722 130.86C36.6205 126.314 79.3772 126.819 79.3772 126.819L55.1656 113.181L93.286 126.819V120.252Z" fill="black"></path>
<path d="M115.605 126.411L103.063 116.814L98.2013 128.129L100.561 134.709L102.816 140.995L106.61 143.286L110.433 148.53L108.258 154.646L112.407 149.467L111.841 144.844L114.258 148.032L116.716 152.516L116.264 146.52L111.902 141.462L113.534 138.905L115.605 126.411Z" fill="black"></path>
<path d="M116.448 72.0895L138.936 110.966L138.494 112.856L136.725 111.741L111.878 81.0183L110.245 70.5582L14.2574 40.9176L122.639 65.87L125.958 77.7222L121.903 70.9487L116.448 72.0895Z" fill="#3E3E60"></path>
<path d="M163.576 56.3617L157.354 56.4895L141.737 79.0311L143.692 106.361L138.65 110.692L138.036 107.364L136.485 78.3109L146.522 56.1063L88.4378 8.59012L165.47 50.9475L166.571 64.619L163.576 56.3617Z" fill="#3E3E60"></path>
<path d="M156.001 123.254L157.001 106.584L134.801 93.4512L123.032 113.151L138.486 135.882L156.001 123.254Z" fill="#3E3E60"></path>
<path d="M89.1791 98.5L130.039 113.5L131 115.5L129.077 116L91.3898 110.5L78.6036 98.5L17 88L93.0294 87L100.24 94.5L93.0294 92L89.1791 98.5Z" fill="black"></path>
<path d="M103.229 76.335L135.036 104.975L136 108.995L132.627 110L95.0368 82.867L89.2537 50.7094L14 8L91.9444 35L113.632 55.9097L103.229 50.7094V76.335Z" fill="black"></path>
<path d="M196 88.9447L180.057 76.2171L164.705 68.1176L134 57.7041L158.21 79.6882L141.857 98.1522L138.448 106.252L149.5 114.086C149.5 114.086 156.419 103.79 160.21 102.074C164 100.358 166.638 100.535 169 99.3779C171.362 98.2208 175 93.0042 175 93.0042L193.638 97.0441L196 88.9447Z" fill="black"></path>
<path d="M175.743 83.5727L182 90.0623L178.106 88.3623C178.106 88.3623 178.666 86.3518 175.743 84.9622C172.82 83.5727 170.875 86.6623 170.875 86.6623L168.65 88.3623L170.319 86.0956L166 81.2373L175.743 83.5727Z" fill="white"></path>
<path d="M91.5696 38.6691L99 45.8798L94.3761 43.9909C94.3761 43.9909 95.0409 41.757 91.5696 40.213C88.0982 38.6691 85.7888 42.102 85.7888 42.102L83.1466 43.9909L85.1283 41.4723L80 36.0742L91.5696 38.6691Z" fill="white"></path>
<path d="M79.3213 88.8754L88.0975 92.1246L83.6132 92.2358C83.6132 92.2358 83.3157 90.1629 79.9019 90.143C76.488 90.1232 75.894 93.7717 75.894 93.7717L74.4477 96.2723L75.1181 93.4922L68.9025 90.9038L79.3213 88.8754Z" fill="white"></path>
<path d="M63.9024 182.215L74 184.869L69.0291 185.475C69.0291 185.475 68.4779 183.211 64.6825 183.556C60.887 183.901 60.6153 188.005 60.6153 188.005L59.2743 190.93L59.7233 187.779L52.5414 185.581L63.9024 182.215Z" fill="white"></path>
<path d="M164.871 83.5152L168 87.1206L166.053 86.1761C166.053 86.1761 166.333 85.0592 164.871 84.2872C163.41 83.5152 162.437 85.2316 162.437 85.2316L161.325 86.1761L162.159 84.9168L160 82.2178L164.871 83.5152Z" fill="white"></path>
<defs></defs>
</svg>