<svg height="100%" viewbox="0 0 200 200" width="100%" xmlns="http://www.w3.org/2000/svg">
<path d="M108.336 54.5003C92.7771 66.6016 79.1691 94.3309 67.5 106C51.2944 122.206 36 112.315 29.5 106C38.7495 137.557 83.8358 152.5 108.336 134C132.836 115.5 131.392 101.113 140.9 97.6554C150.408 94.1978 167.717 92.551 173.335 86.5004C178.954 80.4497 181.433 63.9466 169.764 63.9466C158.095 63.9466 123.895 42.399 108.336 54.5003Z" fill="black"></path>
<path d="M138.57 83.0159C128.953 81.3631 127.677 71.499 127.677 71.499L152.683 75.7964C152.683 75.7964 148.188 84.6688 138.57 83.0159Z" fill="white"></path>
<path d="M150.697 74.8854C150.197 77.7958 147.175 79.7054 143.948 79.1508C140.721 78.5962 138.51 75.7873 139.01 72.877L150.697 74.8854Z" fill="black"></path>
<path d="M121.348 68L155.49 73.8676L152.683 75.7964L127.677 71.499L121.348 68Z" fill="white"></path>
</svg>