<svg height="100%" viewBox="0 0 200 200" width="100%" xmlns="http://www.w3.org/2000/svg">
<path d="M182.088 108.021C183.295 108.507 185.674 102.807 185.674 102.807C185.674 102.807 187.922 101.975 188.665 103.72C189.407 105.465 188.367 106.783 188.367 106.783L182.365 111.027C180.224 108.816 175.929 104.273 175.885 103.792C175.841 103.312 180.88 107.536 182.088 108.021Z" fill="black"></path>
<path d="M184.352 94.8944C185.396 95.6923 189.12 90.8407 189.12 90.8407C189.12 90.8407 191.499 90.6506 191.778 92.5377C192.057 94.4248 190.723 95.4129 190.723 95.4129L183.867 97.871C182.354 95.1523 179.347 89.5959 179.425 89.1196C179.502 88.6434 183.309 94.0965 184.352 94.8944Z" fill="black"></path>
<path d="M183.076 102.729C184.119 103.527 187.844 98.6757 187.844 98.6757C187.844 98.6757 190.222 98.4855 190.502 100.373C190.781 102.26 189.446 103.248 189.446 103.248L182.591 105.706C181.077 102.987 178.071 97.4308 178.148 96.9546C178.226 96.4783 182.032 101.931 183.076 102.729Z" fill="black"></path>
<path d="M146.288 87.2052C135.747 76.2663 143.421 45.9778 143.421 45.9778L97.4993 40.8886C97.4993 40.8886 127.638 110.09 132.665 111.99C137.691 113.89 171.176 110.931 171.176 110.931C171.176 110.931 172.123 112.324 172.402 114.212C172.682 116.099 170.765 120.659 170.765 120.659C174.757 121.367 175.533 116.605 175.533 116.605L175.836 111.146L179.561 106.295L184.038 104.027C184.038 104.027 185.601 104.763 186.028 106.218C186.455 107.672 186.308 108.105 186.308 108.105C186.308 108.105 190.121 107.384 189.365 103.747C188.608 100.11 184.717 99.8597 184.717 99.8597C184.717 99.8597 185.955 99.4669 187.665 99.7706C189.376 100.074 189.559 102.557 189.559 102.557C189.559 102.557 191.255 101.702 190.711 99.0862C190.167 96.4708 186.354 93.4127 186.354 93.4127C186.354 93.4127 188.322 92.8146 189.449 93.9621C190.577 95.1095 190.723 95.4132 190.723 95.4132C190.723 95.4132 194.533 93.6395 190.031 90.3903L177.963 87.2867C174.208 88.7214 156.829 98.144 146.288 87.2052Z" fill="#3E3E60"></path>
<path d="M167.48 105.402C161.342 106.518 158.46 100.611 158.46 100.611L174.419 97.712C174.419 97.712 173.619 104.287 167.48 105.402Z" fill="white"></path>
<path d="M173.03 97.5854C173.353 99.5241 171.945 101.399 169.886 101.773C167.826 102.147 165.894 100.879 165.571 98.9404L173.03 97.5854Z" fill="#3E3E60"></path>
<path d="M153.903 99.832L175.693 95.8733L174.419 97.7123L158.46 100.612L153.903 99.832Z" fill="white"></path>
<path d="M163.927 43.6533C163.927 43.6533 164.927 35.825 163.427 30.6061C163.427 30.6061 167.771 30.0842 171.927 32.1718C176.082 34.2593 177.927 37.3906 177.927 37.3906C177.927 37.3906 174.927 30.6061 169.427 27.4748C163.927 24.3434 155.927 22.2559 155.927 22.2559C155.927 22.2559 162.427 19.1246 167.927 19.6464C173.427 20.1683 177.927 22.2559 177.927 22.2559C177.927 22.2559 173.927 19.1246 166.427 17.0367C158.927 14.9489 145.427 17.0367 145.427 17.0367C145.427 17.0367 147.427 13.3838 151.427 11.2962C155.427 9.20868 162.427 9.73056 162.427 9.73056C162.427 9.73056 155.927 7.64301 149.927 8.68679C143.927 9.73056 128.927 17.0367 128.927 17.0367C97.9267 13.9054 81.9266 7.5209 69.2676 17.0367C56.6085 26.5525 29.0188 85.4569 22.5 100.357L22.4008 100.584C15.8855 115.476 6.50001 136.929 6.5 144.718C6.49999 152.546 10.5 171.838 15 173.422C19.5 175.005 24 169.768 24 169.768C24 169.768 20 169.715 19 168.383C18 167.051 21.8402 140.543 26.5 156.902C31.1598 173.262 67.926 155.336 69.2676 156.902C70.6092 158.468 60.7676 168.383 60.7676 168.383C63.9321 176.64 66.4266 178.3 73.4266 180.388L77.9266 181.953L81.9266 188.738L85.9266 195V184.041L102.427 189.26C102.427 189.26 95.4266 182.475 97.9266 181.953C100.427 181.431 92.4266 179.344 92.4266 179.344L101.427 177.778L112.927 180.406L99.9266 172.559C100.586 169.313 91.2676 176.211 87.8948 173.488C84.522 170.764 80.2676 166.295 80.2676 166.295C80.2676 166.295 84.9064 157.945 91.9267 161.599C98.9469 165.253 98.9469 150.639 98.9469 150.639C97.106 139.68 82.0495 122.336 82.4266 121.936C85.4353 118.743 94.4266 106.28 94.4266 106.28C94.4266 106.28 109.927 100.017 120.927 97.9294C131.927 95.8418 145.427 82.273 145.427 82.273L157.927 85.4041L170.927 74.9665L177.927 55.1349L163.927 43.6533Z" fill="black"></path>
<path d="M132.927 115.152C123.395 100.747 135.775 75.3768 135.775 75.3768L73 84.701C73 84.701 99.411 137.176 104.5 140.021C109.589 142.867 157.927 156.903 157.927 156.903C157.927 156.903 158.283 158.036 158.274 160.356C158.264 162.675 156.659 166.05 156.659 166.05C160.832 167.339 162.447 161.645 162.447 161.645L163.667 155.055L166.427 151.684L169.895 150.168C169.895 150.168 171.454 151.229 171.675 153.04C171.895 154.851 171.665 155.359 171.665 155.359C171.665 155.359 175.881 154.896 175.664 150.402C175.448 145.908 171.308 145.186 171.308 145.186C171.308 145.186 172.702 144.842 174.491 145.395C176.279 145.947 176.068 148.979 176.068 148.979C176.068 148.979 178.031 148.124 177.875 144.892C177.72 141.661 170.927 136.027 170.927 136.027C170.927 136.027 171.927 135.505 172.927 136.027C173.927 136.549 173.927 137.593 173.927 137.593C173.927 137.593 178.645 135.095 174.341 130.669C174.341 130.669 162.667 127.501 159.5 130.669C156.333 133.836 142.458 129.556 132.927 115.152Z" fill="black"></path>
<path d="M169.185 155.212C170.554 155.473 172.319 148.058 172.319 148.058C172.319 148.058 174.626 146.475 175.671 148.359C176.716 150.243 175.78 152.086 175.78 152.086L169.906 158.719C167.287 156.649 162.02 152.367 161.904 151.806C161.789 151.244 167.815 154.952 169.185 155.212Z" fill="#3E3E60"></path>
<path d="M168.322 138.208C169.559 138.884 172.893 132.125 172.893 132.125C172.893 132.125 175.43 131.274 175.996 133.448C176.562 135.623 175.262 137.151 175.262 137.151L168.217 141.881C166.204 139.04 162.182 133.212 162.199 132.624C162.216 132.037 167.085 137.532 168.322 138.208Z" fill="#3E3E60"></path>
<path d="M169.186 150.228C170.423 150.904 173.757 144.146 173.757 144.146C173.757 144.146 176.294 143.294 176.86 145.469C177.426 147.643 176.126 149.171 176.126 149.171L169.081 153.901C167.068 151.061 163.046 145.233 163.063 144.645C163.08 144.057 167.949 149.552 169.186 150.228Z" fill="#3E3E60"></path>
<path d="M144.748 147.473C138.337 145.074 139.476 137.367 139.476 137.367L156.143 143.604C156.143 143.604 151.158 149.872 144.748 147.473Z" fill="white"></path>
<path d="M154.937 142.672C153.986 144.842 151.471 145.95 149.32 145.145C147.169 144.34 146.196 141.928 147.147 139.757L154.937 142.672Z" fill="black"></path>
<path d="M135.754 133.94L158.511 142.456L156.143 143.603L139.476 137.366L135.754 133.94Z" fill="white"></path>
<path d="M83.0589 144.293C80.0295 139.646 83.4571 135.172 83.4571 135.172L91.3335 147.253C91.3335 147.253 86.0883 148.939 83.0589 144.293Z" fill="white"></path>
<path d="M90.9341 146.065C89.587 147.022 87.6708 146.534 86.6543 144.975C85.6377 143.415 85.9057 141.376 87.2529 140.419L90.9341 146.065Z" fill="black"></path>
<path d="M82.4207 131.148L93.1751 147.644L91.3337 147.253L83.4572 135.171L82.4207 131.148Z" fill="white"></path>
<path d="M135.914 36.8685C135.914 36.8685 153.914 39.9998 156.914 42.0873C159.914 44.1749 162.914 41.5655 162.914 38.4341C162.914 35.3028 163.414 32.6934 163.414 32.6934C163.414 32.6934 171.414 38.4341 171.414 41.0436V48.8719C171.414 48.8719 177.914 53.5689 177.914 54.6126C177.914 54.6126 179.414 67.138 177.914 71.3131C176.414 75.4882 176.414 76.5319 173.914 79.6633C171.414 82.7946 158.914 87.4916 156.914 85.9259C154.914 84.3602 151.5 73.1099 151.5 70.5005C151.5 67.891 152.5 61.0005 152.5 61.0005C152.5 61.0005 140.914 60.3534 136.914 58.2659C128.816 54.0395 132.158 43.2441 135.914 36.8685Z" fill="#3E3E60"></path>
<path d="M146.221 55.4739C140.568 55.0197 139.227 48.6582 139.227 48.6582L153.926 49.8391C153.926 49.8391 151.875 55.9281 146.221 55.4739Z" fill="white"></path>
<path d="M152.724 49.3732C152.614 51.3072 150.986 52.7514 149.089 52.599C147.192 52.4466 145.744 50.7552 145.854 48.8213L152.724 49.3732Z" fill="black"></path>
<path d="M135.358 46.7842L155.428 48.3965L153.926 49.8393L139.227 48.6584L135.358 46.7842Z" fill="white"></path>
<path d="M169.115 45.8509C170.819 43.9767 169.282 41.3145 169.282 41.3145L164.852 46.1874C164.852 46.1874 167.412 47.7252 169.115 45.8509Z" fill="white"></path>
<path d="M165.1 45.6583C165.736 46.3107 166.715 46.3298 167.287 45.7009C167.859 45.0719 167.807 44.0332 167.17 43.3809L165.1 45.6583Z" fill="black"></path>
<path d="M169.963 39.4775L163.914 46.131L164.852 46.1875L169.282 41.3145L169.963 39.4775Z" fill="white"></path>
<path d="M164.104 60.3702C165.152 61.9015 165.023 65.1994 165.023 65.1994C165.023 65.1994 164.265 64.3411 163.218 62.8099C162.17 61.2787 156.479 65.1649 155.786 62.6577C155.093 60.1506 156.383 59.5449 157.672 58.9393L157.672 58.9393C158.962 58.3337 163.057 58.8389 164.104 60.3702Z" fill="black"></path>
<path d="M168.198 56.4652C167.669 58.2643 168.794 61.3491 168.794 61.3491C168.794 61.3491 169.252 60.2843 169.78 58.4853C170.308 56.6863 176.886 58.4874 176.782 55.8802C176.677 53.2731 175.27 53.1258 173.862 52.9785L173.862 52.9785C172.455 52.8312 168.726 54.6661 168.198 56.4652Z" fill="black"></path>
</svg>