<svg height="100%" viewbox="0 0 200 200" width="100%" xmlns="http://www.w3.org/2000/svg">
<path d="M96.9999 63.6448C76.4999 77.8689 86 100.667 75.5 119.401C65 138.135 37.5959 131 34.4999 119.401C42 147.5 78.0197 161.295 109.5 147.5C134.984 136.332 123.164 97.1911 133 94.0003C142.836 90.8096 149.219 93 153.5 89C157.781 85 166.5 61.4998 157.281 66.5645C148.062 71.6292 117.5 49.4208 96.9999 63.6448Z" fill="black"></path>
<path d="M118.208 68.875C118.208 68.875 118.558 75.8184 123.523 78.9546C126.795 81.0217 130.827 81.6927 134.164 80.2089C133.938 80.2355 133.709 80.2486 133.476 80.2474C130.382 80.2325 127.886 77.7124 127.901 74.6186C127.903 74.2413 127.942 73.8728 128.014 73.5168C124.705 72.3306 121.505 70.7945 118.208 68.875Z" fill="white"></path>
<path d="M132.469 72.3914C129.355 71.841 117.449 66.5254 117.449 66.5254C117.449 66.5254 131.161 70.8619 134.228 70.615C137.294 70.368 135.694 66.86 135.694 66.86C135.694 66.86 139.466 71.862 138.55 72.5029C137.634 73.1438 135.583 72.9418 132.469 72.3914Z" fill="white"></path>
<path d="M132.437 75.4367V75.4367C132.829 76.0922 133.539 76.4897 134.303 76.4803V76.4803V76.4803C133.647 76.8717 133.25 77.5824 133.259 78.3457V78.3457V78.3457C132.868 77.6903 132.157 77.2927 131.394 77.3021V77.3021V77.3021C132.049 76.9107 132.447 76.2001 132.437 75.4367V75.4367Z" fill="white"></path>
</svg>