<svg height="100%" viewbox="0 0 200 200" width="100%" xmlns="http://www.w3.org/2000/svg">
<path d="M129.841 143.433L116.52 138.406L112.432 130.176L96.1873 111.704L101.726 136.985L114.427 150.916L121.879 150.026L124.462 152.151L125.513 157.047L128.661 157.396L127.073 156.24L126.614 151.532L129.735 149.917L131.377 155.001L129.294 160.53L134.149 156.534L134.255 150.05L137.834 153.143L140.5 161.159L141.546 151.716L136.756 146.282L144.249 148.338L147.144 158.709L147.759 146.521L134.695 139.436L129.841 143.433Z" fill="#3E3E60"></path>
<path d="M152.58 59.0078C145.111 63.0579 120.522 44.9819 103.899 56.3806C85.2618 69.1603 81.6348 91.5489 71.287 110.611C65.1662 121.887 62.2559 133.988 71.0873 146.81C79.9187 159.633 120.239 159.669 127.274 141.87C130.141 134.615 122.156 114.78 122.23 101.522C122.303 88.2649 127.73 80.3798 135.689 77.8461C143.649 75.3125 146.374 76.6934 149.85 73.4813C153.326 70.2692 160.05 54.9576 152.58 59.0078Z" fill="black"></path>
<path d="M51.3711 147.976L61.9496 140.231L63.8064 133.728C63.8064 133.728 57.9938 137.536 50.2102 139.098C42.4266 140.659 26.3817 136.741 26.3817 136.741C26.3817 136.741 54.9453 119.437 64.2869 114.624C73.6286 109.812 81.0125 108.128 81.0125 108.128L77.7397 144.094L66.6944 155.643L59.2535 154.664L56.645 156.758L55.536 161.641L52.3843 161.952L53.9856 160.815L54.5004 156.113L51.3995 154.461L49.6965 159.525L51.7138 165.079L46.9069 161.024L46.8784 154.54L43.2628 157.59L40.5016 165.574L39.5677 156.119L44.4226 150.743L36.9054 152.71L33.8868 163.045L33.4169 150.851L46.5642 143.922L51.3711 147.976Z" fill="black"></path>
<path d="M121.007 60.6992C121.007 60.6992 121.259 66.3094 125.255 68.8648C127.89 70.5495 131.145 71.1094 133.847 69.9244C133.664 69.945 133.478 69.9547 133.289 69.9527C130.79 69.9269 128.785 67.8802 128.811 65.3814C128.814 65.0768 128.848 64.7796 128.908 64.4924C126.24 63.5195 123.662 62.2645 121.007 60.6992Z" fill="white"></path>
<path d="M132.511 63.6041C129.998 63.1456 120.404 58.7988 120.404 58.7988C120.404 58.7988 131.461 62.3628 133.939 62.177C136.417 61.9911 135.141 59.1505 135.141 59.1505C135.141 59.1505 138.165 63.2077 137.423 63.7213C136.68 64.2349 135.023 64.0625 132.511 63.6041Z" fill="white"></path>
<path d="M132.472 66.0633V66.0633C132.785 66.5944 133.357 66.9187 133.974 66.9145V66.9145V66.9145C133.443 67.2277 133.119 67.7999 133.123 68.4165V68.4165V68.4165C132.81 67.8854 132.237 67.5611 131.621 67.5653V67.5653V67.5653C132.152 67.2521 132.476 66.6799 132.472 66.0633V66.0633Z" fill="white"></path>
<path d="M59.0129 124.818C59.0129 124.818 59.8068 128.697 57.5153 131.132C56.0062 132.735 53.8802 133.678 51.8311 133.337C51.9574 133.32 52.084 133.294 52.2104 133.261C53.9142 132.813 54.9322 131.069 54.4842 129.365C54.4295 129.157 54.3554 128.959 54.2644 128.773C55.9212 127.648 57.4673 126.346 59.0129 124.818Z" fill="white"></path>
<path d="M51.6499 128.79C53.2888 128.043 59.0979 123.42 59.0979 123.42C59.0979 123.42 52.1534 127.76 50.4275 128.06C48.7015 128.36 49.085 126.198 49.085 126.198C49.085 126.198 47.7161 129.493 48.3123 129.716C48.9086 129.939 50.0111 129.536 51.6499 128.79Z" fill="white"></path>
<path d="M52.0993 130.463V130.463C51.9767 130.88 51.6413 131.2 51.2191 131.303V131.303V131.303C51.6361 131.426 51.9564 131.761 52.0597 132.183V132.183V132.183C52.1824 131.766 52.5177 131.446 52.9399 131.343V131.343V131.343C52.5229 131.22 52.2027 130.885 52.0993 130.463V130.463Z" fill="white"></path>
</svg>