<svg height="100%" viewbox="0 0 200 200" width="100%" xmlns="http://www.w3.org/2000/svg">
<path d="M101.703 69.7206C94.0808 85.6118 103.905 87.7242 103.905 87.7242C103.905 87.7242 99.9536 97.4501 89.0405 106.924C78.1275 116.397 66.3365 118.35 66.3365 118.35L78.3458 96.7591C78.3458 96.7591 70.2632 110.749 63.2072 118.988C56.1512 127.227 42.8873 131.967 42.8873 131.967L72.3492 96.0659C72.3492 96.0659 57.0319 112.831 42.7027 127.034C29.6435 139.978 18.5293 139.533 15.5519 141.059C15.0188 141.583 14.7866 141.779 14.9198 141.574C15.0497 141.374 15.2623 141.207 15.5519 141.059C19.7143 136.965 42.2204 112.836 52.3391 102.83C63.7536 91.5428 109.326 53.8295 101.703 69.7206Z" fill="#3E3E60"></path>
<path d="M140.988 103.564L128.725 109.751L120.988 92.6112L112.626 104.636L118.063 119.337L136.25 119.401L140.48 113.524L143.675 113.075L147.84 115.522L150.142 113.513L148.284 113.887L144.639 111.141L145.527 107.87L150.212 110.02L152.782 115.108L153.109 109.05L148.571 104.745L153.104 104.219L160.54 107.555L154.512 100.65L147.525 100.509L153.875 96.5255L163.134 101.234L154.874 92.8453L141.316 97.5064L140.988 103.564Z" fill="black"></path>
<path d="M178.674 60.3559C170.674 62.144 152.625 38.8836 134.192 45.0763C113.526 52.0193 100.504 76.9363 92.247 90.6269C83.99 104.317 78.6169 129.454 83.4298 143.682C88.2428 157.911 123.256 147.569 134.48 132.907C139.055 126.931 135.729 104.085 139.294 91.8022C142.859 79.519 147.992 71.321 156.047 71.0695C164.102 70.818 170.462 74.1457 172.322 73.0668C174.183 71.9878 186.674 58.5679 178.674 60.3559Z" fill="black"></path>
<path d="M108.023 142.085L102.24 130.836L107.286 113.426L99.3661 103.145L87.3637 110.761L86.9495 127.351L91.4927 142.084L98.3349 144.452L99.6814 147.384L98.5299 152.076L101.115 153.705L100.224 152.033L101.81 147.754L105.199 147.667L104.482 152.771L100.343 156.692L106.241 155.27L109.065 149.687L110.868 153.88L109.803 161.96L114.691 154.206L112.823 147.472L118.459 152.414L116.602 162.634L122.272 152.316L113.92 140.662L108.023 142.085Z" fill="#3E3E60"></path>
<path d="M84.8845 68.0874C88.1539 86.3274 103.602 82.9871 103.602 82.9871C103.602 82.9871 106.592 93.7709 99.7177 108.033C92.8436 122.294 78.209 130.31 78.209 130.31L76.0564 104.648C76.0564 104.648 77.0342 121.436 74.4289 132.544C71.8235 143.652 57.5737 154.939 57.5737 154.939L67.1459 107.219C67.1459 107.219 60.516 130.333 53.0252 150.634C46.1983 169.135 30.4141 174.65 27.617 177.596C27.3348 178.347 27.1833 178.645 27.1897 178.392C27.1958 178.144 27.345 177.882 27.617 177.596C29.8211 171.728 40.0015 138.216 45.3117 123.902C51.3021 107.754 81.615 49.8474 84.8845 68.0874Z" fill="black"></path>
<path d="M148.928 53.5977C148.928 53.5977 147.682 58.8705 150.717 62.2961C152.716 64.5538 155.589 65.932 158.408 65.5464C158.234 65.5173 158.059 65.4772 157.885 65.4258C155.573 64.7426 154.252 62.3143 154.935 60.002C155.019 59.7199 155.128 59.4527 155.26 59.202C153.04 57.5952 150.979 55.7505 148.928 53.5977Z" fill="white"></path>
<path d="M158.838 59.3268C156.627 58.2384 148.871 51.6738 148.871 51.6738C148.871 51.6738 158.191 57.8981 160.54 58.3793C162.889 58.8606 162.453 55.8876 162.453 55.8876C162.453 55.8876 164.19 60.4507 163.365 60.7313C162.54 61.012 161.049 60.4151 158.838 59.3268Z" fill="white"></path>
<path d="M158.153 61.6002V61.6002C158.303 62.1758 158.749 62.6277 159.322 62.7865V62.7865V62.7865C158.747 62.937 158.295 63.3826 158.136 63.9559V63.9559V63.9559C157.985 63.3803 157.54 62.9284 156.966 62.7696V62.7696V62.7696C157.542 62.6191 157.994 62.1736 158.153 61.6002V61.6002Z" fill="white"></path>
<path d="M78.3159 80.7988C78.3159 80.7988 82.7622 84.7288 82.2121 89.7106C81.85 92.9898 80.1551 96.0339 77.3956 97.4727C77.5302 97.3387 77.6583 97.1953 77.7789 97.0426C79.4159 94.9704 79.063 91.9635 76.9908 90.3265C76.7372 90.1262 76.4696 89.9557 76.1923 89.8145C77.163 86.9742 77.8414 84.0213 78.3159 80.7988Z" fill="white"></path>
<path d="M73.0724 92.189C74.3628 89.8183 77.1538 79.0449 77.1538 79.0449C77.1538 79.0449 72.7479 90.5026 70.9507 92.4171C69.1536 94.3316 67.6647 91.3968 67.6647 91.3968C67.6647 91.3968 68.9941 96.5764 69.9094 96.3063C70.8247 96.0362 71.782 94.5598 73.0724 92.189Z" fill="white"></path>
<path d="M75.1204 93.7888V93.7888C75.3493 94.3989 75.2363 95.0847 74.8237 95.589V95.589V95.589C75.4337 95.3601 76.1195 95.4731 76.6238 95.8857V95.8857V95.8857C76.3949 95.2757 76.5079 94.5898 76.9205 94.0855V94.0855V94.0855C76.3105 94.3145 75.6247 94.2015 75.1204 93.7888V93.7888Z" fill="white"></path>
<path d="M119.77 134.649C119.77 134.649 125.573 135.888 129.252 132.484C131.673 130.243 133.113 127.07 132.63 123.996C132.602 124.184 132.563 124.372 132.512 124.56C131.819 127.108 129.191 128.612 126.643 127.919C126.331 127.834 126.035 127.72 125.756 127.581C124.05 130.05 122.079 132.351 119.77 134.649Z" fill="white"></path>
<path d="M125.81 123.662C124.671 126.109 117.667 134.758 117.667 134.758C117.667 134.758 124.261 124.403 124.732 121.82C125.203 119.237 121.958 119.785 121.958 119.785C121.958 119.785 126.913 117.774 127.24 118.671C127.567 119.567 126.949 121.215 125.81 123.662Z" fill="white"></path>
<path d="M128.313 124.358V124.358C128.94 124.18 129.424 123.681 129.585 123.05V123.05V123.05C129.763 123.676 130.262 124.161 130.893 124.321V124.321V124.321C130.267 124.499 129.782 124.998 129.622 125.63V125.63V125.63C129.444 125.003 128.945 124.519 128.313 124.358V124.358Z" fill="white"></path>
<defs></defs>
</svg>