<svg height="100%" viewbox="0 0 200 200" width="100%" xmlns="http://www.w3.org/2000/svg">
<path d="M76.8782 46.2058C80.2385 66.6182 92.2344 75.0764 92.2344 75.0764C92.2344 75.0764 102.071 82.53 95.345 98.6014C88.6186 114.673 74.3255 127.167 74.3255 127.167L69.4196 97.1522C69.4196 97.1522 70.1863 106.222 70.1993 121.856C70.2124 137.491 59.1574 149.015 59.1574 149.015L61.3935 98.0553C61.3935 98.0553 58.4871 124.865 55.7811 131.93C53.0751 138.996 40.0205 158.565 40.0205 158.565L52.3392 101.539L42.1734 138.321C34.8742 161.171 21.3181 170.313 21.3181 170.313C21.3181 170.313 33.1044 127.18 38.942 109.004C44.7796 90.8289 73.5178 25.7935 76.8782 46.2058Z" fill="#3E3E60"></path>
<path d="M78.3165 101.953C80.3165 95.9531 86.3165 81.9531 86.3165 81.9531L117 110.5C105.291 116.735 97.8165 124.953 91.3165 140.453C84.8165 155.953 91.3165 191.5 91.3165 191.5C91.3165 191.5 75.3165 134.953 75.3165 122.953C75.3165 110.953 76.3165 107.953 78.3165 101.953L78.3165 101.953Z" fill="black"></path>
<path d="M164.732 92.6087L140.143 98.725L135.381 76.4834L122.419 88.5603L125.086 107.33L137.5 111C137.5 111 137 111 136.5 112C136 113 136 114 136 114L142 112.5C142 112.5 139 113.5 138.5 114.5C138 115.5 138 117 138 117L146.57 112.058L153.074 106.192L156.966 106.478L161.264 110.437L164.499 108.651L162.207 108.617L158.6 104.439L160.487 100.799L166.316 103.955L167.212 111.212L169.149 102.955L164.885 97.883L169.149 97.883L173.816 104.955L172.956 94.562L164.732 92.6087Z" fill="#3E3E60"></path>
<path d="M182.44 52.0244C175.057 52.0746 167.724 33.0115 150.317 34.952C130.8 37.1275 110.463 51.73 100.586 62.2098C90.7086 72.6897 81.1899 93.7956 82.7165 107.239C84.2432 120.682 111.326 118.008 124 107.239C129.166 102.849 133.338 79.0878 138.817 68.9531C144.295 58.8185 153.34 55.8329 160.479 57.1459C167.618 58.4589 172.973 60.0486 174.817 59.4531C176.66 58.8576 189.824 51.9742 182.44 52.0244Z" fill="black"></path>
<path d="M120.354 114.219L110.379 105.37L108.697 86.3346L96.9923 79.2512L88.1011 91.3144L96.9923 106.953L95.8158 111.953C95.8158 111.953 93.8158 110.953 92.8158 110.953C91.8158 110.953 90.8158 111.453 90.8158 111.453L96.9923 114.953C96.9923 114.953 93.0235 113.719 91.3158 113.453C89.6082 113.187 87.3158 114.219 87.3158 114.219L104.107 120.524L111.735 120.241L114.177 122.61L114.835 127.66L117.997 128.276L116.484 126.971L116.41 122.161L119.708 120.783L120.95 126.074L118.379 131.505L123.632 127.858L124.278 121.294L127.649 124.727L129.685 133.074L131.531 123.589L127.127 117.683L134.551 120.39L136.624 131.143L138.261 118.84L125.608 110.572L120.354 114.219Z" fill="#3E3E60"></path>
<path d="M99.202 37.4124C96.3565 55.5707 105.162 66.664 105.162 66.664C105.162 66.664 112.23 76.1925 101.165 87.3346C90.0995 98.4767 72.9624 104.088 72.9624 104.088L77.1796 77.3993C77.1796 77.3993 75.2314 85.2226 70.6406 98.269C66.0498 111.315 52.2475 117.207 52.2475 117.207L69.3563 75.4511C69.3563 75.4511 58.7265 96.836 54.0983 101.819C49.4702 106.802 31.4164 118.731 31.4164 118.731L59.8048 75.3095L39.4036 102.57C25.8033 119.173 10.3471 122.236 10.3471 122.236C10.3471 122.236 34.1441 90.2235 44.9919 77.0272C55.8398 63.8309 102.047 19.2542 99.202 37.4124Z" fill="black"></path>
<path d="M160.951 45.3242C160.951 45.3242 159.27 48.8483 160.885 51.7235C161.949 53.6187 163.763 55.0273 165.807 55.1853C165.689 55.1381 165.572 55.0832 165.457 55.0204C163.932 54.1867 163.372 52.275 164.206 50.7505C164.307 50.5646 164.425 50.393 164.556 50.2365C163.238 48.7666 162.067 47.1532 160.951 45.3242Z" fill="white"></path>
<path d="M167.058 50.8665C165.666 49.7629 161.204 43.957 161.204 43.957C161.204 43.957 166.82 49.7617 168.401 50.4586C169.982 51.1556 170.129 48.9952 170.129 48.9952C170.129 48.9952 170.657 52.4739 170.033 52.5459C169.409 52.6179 168.449 51.9701 167.058 50.8665Z" fill="white"></path>
<path d="M166.229 52.3651V52.3651C166.247 52.7935 166.492 53.1797 166.872 53.3789V53.3789V53.3789C166.444 53.3972 166.057 53.6422 165.858 54.0218V54.0218V54.0218C165.84 53.5935 165.595 53.2073 165.215 53.008V53.008V53.008C165.644 52.9897 166.03 52.7448 166.229 52.3651V52.3651Z" fill="white"></path>
<path d="M85.9715 53.3516C85.9715 53.3516 88.6003 58.0056 86.666 62.0848C85.3929 64.7697 83.0545 66.8624 80.2822 67.2754C80.4359 67.2011 80.5869 67.1169 80.7343 67.0225C82.7377 65.7401 83.3221 63.0764 82.0397 61.073C81.8827 60.8279 81.7051 60.6039 81.5105 60.4021C83.1727 58.2696 84.6192 55.9553 85.9715 53.3516Z" fill="white"></path>
<path d="M78.1555 61.5045C79.9516 59.866 85.4979 51.5156 85.4979 51.5156C85.4979 51.5156 78.3754 59.9733 76.2821 61.0743C74.1888 62.1754 73.7849 59.2387 73.7849 59.2387C73.7849 59.2387 73.3924 64.0395 74.2511 64.0789C75.1098 64.1183 76.3593 63.1431 78.1555 61.5045Z" fill="white"></path>
<path d="M79.4284 63.4682V63.4682C79.4438 64.0549 79.1457 64.6055 78.646 64.9134V64.9134V64.9134C79.2328 64.898 79.7834 65.196 80.0913 65.6957V65.6957V65.6957C80.0759 65.109 80.3739 64.5584 80.8736 64.2505V64.2505V64.2505C80.2868 64.2659 79.7363 63.9678 79.4284 63.4682V63.4682Z" fill="white"></path>
<path d="M135.213 103.094C135.213 103.094 136.409 107.186 139.817 108.35C142.06 109.117 144.557 108.944 146.336 107.59C146.207 107.636 146.075 107.676 145.939 107.708C144.091 108.139 142.244 106.991 141.813 105.143C141.76 104.917 141.731 104.691 141.724 104.467C139.58 104.231 137.453 103.77 135.213 103.094Z" fill="white"></path>
<path d="M144.22 103.163C142.284 103.278 134.426 101.801 134.426 101.801C134.426 101.801 143.222 102.437 145.016 101.853C146.81 101.269 145.357 99.4046 145.357 99.4046C145.357 99.4046 148.319 101.852 147.863 102.364C147.408 102.877 146.156 103.048 144.22 103.163Z" fill="white"></path>
<path d="M144.634 104.984V104.984C144.96 105.319 145.441 105.455 145.895 105.341V105.341V105.341C145.56 105.667 145.423 106.148 145.538 106.602V106.602V106.602C145.211 106.267 144.73 106.13 144.277 106.245V106.245V106.245C144.612 105.918 144.748 105.437 144.634 104.984V104.984Z" fill="white"></path>
<path d="M102.282 105.051C102.282 105.051 100.25 108.785 101.841 112.005C102.887 114.123 104.772 115.757 106.981 116.051C106.859 115.994 106.738 115.929 106.621 115.856C105.011 114.862 104.512 112.751 105.507 111.142C105.628 110.945 105.767 110.764 105.919 110.601C104.57 108.926 103.39 107.104 102.282 105.051Z" fill="white"></path>
<path d="M108.599 111.436C107.15 110.156 102.633 103.586 102.633 103.586C102.633 103.586 108.405 110.221 110.084 111.07C111.762 111.919 112.046 109.579 112.046 109.579C112.046 109.579 112.42 113.391 111.737 113.434C111.055 113.476 110.049 112.716 108.599 111.436Z" fill="white"></path>
<path d="M107.612 113.015V113.015C107.607 113.482 107.851 113.916 108.253 114.154V114.154V114.154C107.786 114.15 107.352 114.394 107.113 114.795V114.795V114.795C107.118 114.328 106.874 113.894 106.473 113.656V113.656V113.656C106.94 113.66 107.374 113.416 107.612 113.015V113.015Z" fill="white"></path>
<defs></defs>
</svg>