<svg height="100%" viewbox="0 0 200 200" width="100%" xmlns="http://www.w3.org/2000/svg">
<path d="M159.525 65.9236L139.771 81.7925L126.116 63.6013L119.418 80.002L129.714 95.9204L142.522 94.0436C142.522 94.0436 142.068 94.2534 142.034 95.3709C142 96.4884 142.419 97.3961 142.419 97.3961L147.236 93.5171C147.236 93.5171 144.933 95.6835 144.898 96.801C144.864 97.9185 145.493 99.2801 145.493 99.2801L151.199 91.1979L154.641 83.1454L158.295 81.7716L163.857 83.5623L166.044 80.5831L163.95 81.5144L158.923 79.2349L159.108 75.1391L165.723 75.5584L169.581 81.7692L167.875 73.4621L161.876 70.6472L165.747 68.858L172.95 73.3194L167.809 64.2463L159.525 65.9236Z" fill="#3E3E60"></path>
<path d="M137.128 87.8247C137.128 87.8247 139.932 91.0368 143.513 90.6641C145.871 90.4188 148.066 89.2149 149.112 87.2388C149.015 87.335 148.911 87.4264 148.801 87.5124C147.305 88.6791 145.146 88.412 143.979 86.9159C143.837 86.7328 143.715 86.5397 143.615 86.3398C141.57 87.0243 139.446 87.4984 137.128 87.8247Z" fill="white"></path>
<path d="M145.335 84.1078C143.626 85.0241 135.874 86.9805 135.874 86.9805C135.874 86.9805 144.125 83.867 145.509 82.5845C146.892 81.3021 144.791 80.2191 144.791 80.2191C144.791 80.2191 148.506 81.1976 148.308 81.854C148.11 82.5103 147.044 83.1914 145.335 84.1078Z" fill="white"></path>
<path d="M146.475 85.5881V85.5881C146.912 85.7553 147.405 85.6772 147.769 85.3831V85.3831V85.3831C147.602 85.8203 147.68 86.3135 147.974 86.6777V86.6777V86.6777C147.537 86.5104 147.044 86.5885 146.68 86.8827V86.8827V86.8827C146.847 86.4455 146.769 85.9522 146.475 85.5881V85.5881Z" fill="white"></path>
<path d="M129.999 148.002C126.999 157.504 124.999 159.002 124.999 160.002L144.5 144.5C144.5 144.5 157.5 137 160 135.5C162.5 134 164 134 165.5 131C167 128 166.5 124 166.5 124C166.5 124 163.5 128.5 161 130.5C158.5 132.5 153.5 135.5 153.5 135.5C153.5 135.5 156.5 132 157.5 129.5C158.5 127 157.5 124 157.5 124C157.5 124 154 129.5 151 133.5C148 137.5 143 141.5 143 141.5C143 141.5 146.5 136 147 133.5C147.5 131 144.5 127.5 144.5 127.5C144.5 127.5 144.5 131.5 141 138C137.5 144.5 132.5 150 132.5 150C132.5 150 136.5 143 136.5 140C136.5 137 133 134 133 134C132.166 138.334 133 138.5 129.999 148.002Z" fill="#3E3E60"></path>
<path d="M87.6003 28.1314C87.7278 50.374 98.2536 61.3732 98.2536 61.3732C98.2536 61.3732 106.804 70.9425 97.6478 86.8794C88.4914 102.816 72.4205 113.682 72.4205 113.682L72.2678 80.982C72.2678 80.982 71.6071 90.7424 69.1755 107.349C66.7438 123.955 54.023 134.334 54.023 134.334L64.1993 80.5918C64.1993 80.5918 57.1369 108.574 53.3595 115.623C49.5821 122.672 33.6284 141.259 33.6284 141.259L54.7116 82.7695L38.9199 120.122C28.1379 143.161 13.3192 150.591 13.3192 150.591C13.3192 150.591 31.7044 106.766 40.312 88.4453C48.9195 70.1245 87.4727 5.88875 87.6003 28.1314Z" fill="#3E3E60"></path>
<path d="M87.4992 87.0013L108.999 106.001C96.4593 110.328 75.4992 117.877 62.9992 132.378C50.4992 146.879 44.9992 171.501 76.9992 178.001C108.999 184.501 143.499 130.756 165.499 132.378C187.499 134 191.5 179 191.5 179C191.5 179 184.999 128.5 161.499 138.501C137.999 148.502 111.926 180.503 93.5 184.502C75.0739 188.501 47.4992 187.501 40.4992 167.001C28.7082 132.469 58.1371 99.0476 87.4992 87.0013Z" fill="black"></path>
<path d="M187.575 58.3852C180.275 57.2804 178.341 38.204 160.844 37.3989C141.228 36.4963 118.858 47.7394 107.463 56.5461C96.069 65.3527 83.3674 84.7107 82.7734 98.2273C82.1795 111.744 109.347 113.337 123.549 104.682C129.338 101.154 134.022 73.8361 141.018 64.6826C148.014 55.5292 161 55.8857 167.846 58.2987C174.692 60.7118 178.46 62.608 180.373 62.308C182.287 62.0081 194.876 59.4901 187.575 58.3852Z" fill="black"></path>
<path d="M111.024 22.547C105.374 41.3525 112.337 54.6137 112.337 54.6137C112.337 54.6137 117.828 65.9212 105.157 75.8937C92.4858 85.8663 74.6821 88.9444 74.6821 88.9444L83.0203 61.3103C83.0203 61.3103 79.8729 69.2911 73.2987 82.3745C66.7245 95.4579 52.1708 99.3941 52.1708 99.3941L75.5978 57.9262C75.5978 57.9262 61.7552 78.8498 56.4048 83.3636C51.0545 87.8774 31.3575 97.5113 31.3575 97.5113L66.1859 56.1701L41.7734 81.6903C25.7444 97.0366 9.99941 97.6912 9.99941 97.6912C9.99941 97.6912 38.5089 67.6948 51.2867 55.5041C64.0644 43.3134 116.673 3.74143 111.024 22.547Z" fill="black"></path>
<path d="M139.004 103.668L129.35 100.168L122.735 87.0222L112.344 85.2792L109.409 96.4407L120.218 105.107L120.797 109.02C120.797 109.02 119.081 108.873 118.365 109.157C117.65 109.441 117.076 110.083 117.076 110.083L122.492 110.833C122.492 110.833 119.3 111.078 118.002 111.373C116.704 111.668 115.357 113.058 115.357 113.058L129.168 112.798L134.547 110.428L136.968 111.429L138.875 114.857L141.313 114.398L139.859 113.895L138.439 110.473L140.407 108.549L142.8 111.983L142.504 116.601L145.227 112.497L143.824 107.616L147.212 109.115L151.042 114.511L149.667 107.197L144.836 104.222L150.92 104.049L155.46 111.156L153.135 101.885L141.728 99.5636L139.004 103.668Z" fill="black"></path>
<path d="M95.4858 125.851L95.5231 115.582L105.668 104.92L103.803 94.55L92.306 95.552L87.7937 108.651L84.3053 110.516C84.3053 110.516 83.8652 108.851 83.3561 108.273C82.8471 107.695 82.0491 107.372 82.0491 107.372L83.1703 112.723C83.1703 112.723 81.8631 109.801 81.1478 108.679C80.4325 107.556 78.6688 106.757 78.6688 106.757L83.5724 119.671L87.6185 123.935L87.4928 126.552L84.9089 129.503L86.1628 131.644L86.1463 130.105L88.8889 127.614L91.3635 128.818L88.9385 132.229L84.4904 133.508L89.2726 134.687L93.3948 131.72L93.1268 135.415L89.3387 140.841L95.7603 137.079L96.9315 131.528L99.1464 137.197L93.9869 143.868L101.93 138.552L100.268 127.03L95.4858 125.851Z" fill="black"></path>
<path d="M163.731 50.4082C163.731 50.4082 162.98 51.994 163.71 53.2838C164.191 54.1349 165.009 54.7659 165.93 54.8329C165.876 54.8116 165.822 54.7868 165.769 54.7582C165.083 54.3857 164.829 53.5275 165.202 52.8413C165.247 52.7579 165.299 52.6809 165.358 52.6106C164.763 51.9519 164.235 51.2285 163.731 50.4082Z" fill="white"></path>
<path d="M166.483 52.8898C165.856 52.3958 163.843 49.793 163.843 49.793C163.843 49.793 166.375 52.3937 167.086 52.7047C167.797 53.0158 167.86 52.0448 167.86 52.0448C167.86 52.0448 168.102 53.6072 167.822 53.6404C167.542 53.6736 167.11 53.3838 166.483 52.8898Z" fill="white"></path>
<path d="M166.112 53.5646V53.5646C166.121 53.7571 166.232 53.9303 166.402 54.0193V54.0193V54.0193C166.21 54.0281 166.037 54.1387 165.948 54.3096V54.3096V54.3096C165.939 54.1171 165.828 53.9439 165.658 53.8549V53.8549V53.8549C165.85 53.8461 166.023 53.7355 166.112 53.5646V53.5646Z" fill="white"></path>
<path d="M171.952 40.1064C176.289 44.303 177.109 45.4382 179.905 49.8945C182.7 54.3507 186.627 57.9825 186.627 57.9825C182.582 60.9315 175.02 60.9513 171.044 57.2846C167.068 53.6179 165.537 47.3008 160.208 48.9883C154.879 50.6758 149.235 47.7576 149.235 47.7576L160.002 43.8935C160.002 43.8935 157.359 43.9814 153.998 43.4492C150.636 42.9171 148.811 40.9586 148.811 40.9586L158.574 40.1238C158.574 40.1238 151.716 38.4082 150.972 36.7853C150.229 35.1625 150.128 32.638 150.128 32.638L160.397 37.2739C160.397 37.2739 157.292 34.7754 155.495 33.4876C153.698 32.1998 150.392 24.6543 150.392 24.6543C150.392 24.6543 167.615 35.9098 171.952 40.1064Z" fill="#3E3E60"></path>
<path d="M173.277 50.6582C173.277 50.6582 171.652 53.0236 172.494 55.2968C173.049 56.7953 174.204 58.0265 175.67 58.376C175.59 58.328 175.511 58.2746 175.434 58.2156C174.423 57.4352 174.236 55.9828 175.017 54.9718C175.112 54.8485 175.217 54.7375 175.33 54.639C174.542 53.4202 173.878 52.1144 173.277 50.6582Z" fill="white"></path>
<path d="M177.074 55.3886C176.191 54.4274 173.618 49.6992 173.618 49.6992C173.618 49.6992 177.029 54.5591 178.097 55.2468C179.164 55.9345 179.519 54.3828 179.519 54.3828C179.519 54.3828 179.502 56.9692 179.041 56.9498C178.58 56.9303 177.958 56.3497 177.074 55.3886Z" fill="white"></path>
<path d="M176.3 56.3802V56.3802C176.264 56.6933 176.398 57.0019 176.65 57.1902V57.1902V57.1902C176.337 57.1542 176.029 57.2877 175.841 57.5404V57.5404V57.5404C175.876 57.2273 175.743 56.9188 175.49 56.7305V56.7305V56.7305C175.803 56.7664 176.112 56.633 176.3 56.3802V56.3802Z" fill="white"></path>
<path d="M96.1779 37.5371C96.1779 37.5371 98.7415 44.4069 95.2457 49.5191C92.9453 52.8832 89.329 55.2168 85.485 55.1828C85.7085 55.1152 85.9304 55.0336 86.1496 54.9377C89.1391 53.6298 90.5023 50.1461 89.1943 47.1566C89.0342 46.7905 88.8414 46.4489 88.6209 46.1335C91.3306 43.6007 93.787 40.7751 96.1779 37.5371Z" fill="white"></path>
<path d="M83.8397 46.9067C86.6249 45.0719 95.9307 34.9473 95.9307 34.9473C95.9307 34.9473 84.4662 44.8792 81.3937 45.9221C78.3213 46.9649 78.4039 42.8993 78.4039 42.8993C78.4039 42.8993 76.8424 49.3198 77.9974 49.5574C79.1524 49.795 81.0545 48.7416 83.8397 46.9067Z" fill="white"></path>
<path d="M85.1432 49.8391V49.8391C85.0382 50.6374 84.5163 51.3195 83.7732 51.6295V51.6295V51.6295C84.5715 51.7345 85.2536 52.2564 85.5636 52.9995V52.9995V52.9995C85.6686 52.2012 86.1905 51.5191 86.9335 51.2091V51.2091V51.2091C86.1353 51.1041 85.4532 50.5822 85.1432 49.8391V49.8391Z" fill="white"></path>
<path d="M118.856 111.007L110.388 100.707L111.703 81.643L101.249 72.8166L90.581 83.3413L96.9177 100.178L94.9739 104.932C94.9739 104.932 93.1549 103.632 92.1672 103.476C91.1795 103.319 90.1136 103.657 90.1136 103.657L95.6668 108.079C95.6668 108.079 91.9398 106.24 90.2947 105.71C88.6497 105.18 86.2241 105.842 86.2241 105.842L101.823 114.694L109.402 115.608L111.444 118.329L111.304 123.42L114.331 124.522L113.04 122.998L113.719 118.235L117.191 117.389L117.591 122.809L114.202 127.772L119.961 124.99L121.626 118.608L124.419 122.526L125.124 131.089L128.431 122.009L125.004 115.487L131.914 119.322L132.28 130.267L135.82 118.371L124.615 108.226L118.856 111.007Z" fill="#3E3E60"></path>
<path d="M102.439 99.127C102.439 99.127 99.8492 102.498 100.917 105.926C101.619 108.182 103.226 110.091 105.361 110.727C105.249 110.651 105.14 110.568 105.035 110.478C103.601 109.244 103.439 107.082 104.672 105.647C104.824 105.472 104.989 105.315 105.165 105.178C104.094 103.313 103.213 101.329 102.439 99.127Z" fill="white"></path>
<path d="M107.682 106.421C106.451 104.93 103.016 97.7344 103.016 97.7344C103.016 97.7344 107.68 105.19 109.205 106.291C110.731 107.392 111.377 105.125 111.377 105.125C111.377 105.125 111.149 108.949 110.469 108.884C109.788 108.819 108.913 107.912 107.682 106.421Z" fill="white"></path>
<path d="M106.46 107.825V107.825C106.382 108.285 106.556 108.752 106.915 109.05V109.05V109.05C106.454 108.973 105.987 109.146 105.689 109.505V109.505V109.505C105.767 109.045 105.594 108.578 105.235 108.279V108.279V108.279C105.695 108.357 106.162 108.184 106.46 107.825V107.825Z" fill="white"></path>
<defs></defs>
</svg>