<svg height="100%" viewBox="0 0 200 200" width="100%" xmlns="http://www.w3.org/2000/svg">
<path d="M180.191 91.5285L145.089 73.6585L124.028 68.5528L94.6707 77.4878L65.313 66L53.187 109.398L20 140.033L58.9309 136.841L65.313 141.309L72.3333 144.5V133.012L101.691 125.354L107.435 131.736L117.008 134.927V125.354L114.455 119.61L136.154 109.398H161.683L180.191 91.5285Z" fill="black"></path>
<path d="M147.004 102.882C139.747 101.963 131.049 96.7197 131.049 96.7197C131.049 96.7197 145.655 104.074 150.043 100.397C154.174 96.9351 147.16 94.3937 146.324 94.1079L146.244 94.0811C146.244 94.0811 146.272 94.0901 146.324 94.1079L162.959 99.6818H156.121C156.121 99.6818 154.261 103.802 147.004 102.882Z" fill="white"></path>
<path d="M74.4774 80.8604C77.8667 82.6004 83.2902 82.7502 83.2902 82.7502C83.2902 82.7502 74.6598 81.8208 74.0012 78.7897C73.3812 75.936 77.2002 76.8453 77.6497 76.9615L77.6926 76.9729C77.6926 76.9729 77.6777 76.9688 77.6497 76.9615L68.7412 74.5933L71.6503 76.6379C71.6503 76.6379 71.0882 79.1203 74.4774 80.8604Z" fill="white"></path>
</svg>