<svg height="100%" viewBox="0 0 200 200" width="100%" xmlns="http://www.w3.org/2000/svg">
<path d="M184.175 105.489L178.408 116.921L177.127 114.999H160.466H150.854L125.222 122.688L106.323 142.662L77.3759 150.97L49.5535 153.146L101.526 171.548L142.371 162.986L176.323 164.584L141.279 177.733L90.4842 187.564L16.193 169.35L12.3804 142.662L26.2011 128.841L42.8814 120.263L38.1156 110.254L27.6309 100.246L32.8732 69.2686L37.639 63.9071L42.9665 65.2193L40.0219 61.2264L42.4048 58.5456L58.8057 64.6731L44.0589 56.4804L51.9364 47.8226L63.3742 25.9L82.1396 19.0756L91.4329 25.9L84.1171 17.7073L98.8111 12L158.211 81.0392L173.12 85.7823L192.62 93.0745L185.855 102.629L182.995 97.3868L179.183 102.629L165.311 105.489L158.211 101.267L153.295 105.489L158.211 104.544L164.219 110.254L179.183 108.348L184.175 105.489Z" fill="black"></path>
<path d="M164.31 99.5428C160.23 99.0153 155.339 96.0071 155.339 96.0071C155.339 96.0071 163.552 100.226 166.019 98.1168C168.342 96.1306 164.398 94.6725 163.928 94.5086L163.883 94.4932C163.883 94.4932 163.899 94.4984 163.928 94.5086L173.282 97.7065H169.437C169.437 97.7065 168.391 100.07 164.31 99.5428Z" fill="white"></path>
<path d="M52.7974 170.518C46.3388 169.732 38.5967 165.244 38.5967 165.244C38.5967 165.244 51.5967 171.538 55.5023 168.391C59.1791 165.429 52.9363 163.254 52.1924 163.009L52.1212 162.986C52.1212 162.986 52.1462 162.994 52.1924 163.009L66.9981 167.779H60.9121C60.9121 167.779 59.256 171.305 52.7974 170.518Z" fill="white"></path>
<path d="M75.7654 110.256H38.5923L42.8815 120.741L58.8058 118.199L75.7654 110.256Z" fill="#3E3E60"></path>
<path d="M133.086 77.7822L63.3744 25.9004L52.4131 47.823L117.247 83.7902L133.086 77.7822Z" fill="#3E3E60"></path>
<path d="M101.954 91.9823L33.3498 68.792L27.1543 100.723H87.7532L101.954 91.9823Z" fill="#3E3E60"></path>
<path d="M131.927 109.46L121.964 110.169L112.877 121.23L121.964 131.107H127.099V136.637L123.149 138.613L119.593 142.958L125.519 141.378H133.815L140.926 146.514V142.958L137.371 139.403H153.568L147.247 135.452H135.791L140.926 121.23L131.927 109.46Z" fill="#3E3E60"></path>
<path d="M131.474 110.365L121.964 110.169L112.877 121.23L121.964 131.107H127.099V136.638L123.149 138.613L119.593 142.958L125.519 141.378H133.815L140.926 146.514V142.958L137.371 139.403H153.568L147.32 135.266H135.096L138.718 121.23L131.474 110.365Z" fill="black"></path>
<path d="M79.014 128.577L78.2593 148.202L90.1737 152.015L85.8845 153.921L81.5953 158.687L90.1737 156.781H95.4161L105.901 163.453V158.687L103.518 155.827H108.76L117.815 156.781L110.667 152.015L99.2287 150.585L108.284 131.045L99.2287 116.561L79.014 128.577Z" fill="#3E3E60"></path>
<path d="M76.8296 119.607L78.2593 148.202L90.1738 152.014L85.8846 153.92L81.5954 158.686L90.1738 156.78H95.4161L105.901 163.452V158.686L103.518 155.827H108.76L117.815 156.78L109.6 153.92L95.4161 150.969L105.901 130.761L99.223 116.014L76.8296 119.607Z" fill="black"></path>
<path d="M77.6744 77.7144C71.0443 75.3025 63.9947 68.3514 63.9947 68.3514C63.9947 68.3514 76.1464 78.6018 81.0736 75.9105C85.7122 73.3768 79.662 69.4252 78.9374 68.971L78.8679 68.928C78.8679 68.928 78.8924 68.9427 78.9374 68.971L93.3845 77.8984L86.949 76.4749C86.949 76.4749 84.3045 80.1263 77.6744 77.7144Z" fill="white"></path>
<path d="M107.021 53.3893C101.8 48.6445 97.9105 39.5402 97.9105 39.5402C97.9105 39.5402 105.271 53.6314 110.85 53.0082C116.103 52.4216 112.002 46.4718 111.504 45.7769L111.456 45.7107C111.456 45.7107 111.473 45.7336 111.504 45.7769L121.489 59.5137L116.074 55.7573C116.074 55.7573 112.242 58.134 107.021 53.3893Z" fill="white"></path>
<path d="M54.9782 107.824C51.9033 108.17 47.679 106.578 47.679 106.578C47.679 106.578 54.5837 108.549 55.8929 106.287C57.1253 104.157 53.9383 103.691 53.5608 103.644L53.5246 103.639C53.5246 103.639 53.5373 103.641 53.5608 103.644L61.0603 104.53L58.2754 105.276C58.2754 105.276 58.0532 107.477 54.9782 107.824Z" fill="white"></path>
</svg>