<svg height="100%" viewbox="0 0 200 200" width="100%" xmlns="http://www.w3.org/2000/svg">
<path d="M105 56.7726C81.5 71.5458 83.6749 104.612 71.6034 116.683C54.8389 133.447 38.5665 126.429 26 109.53C35.5684 142.175 73.5197 162.464 105 147C130.484 134.481 120.567 109.852 133 100C145.433 90.1478 154 88.4995 162.5 82.4998C171 76.5 189 58.999 169 58.9994C149 58.9998 128.5 41.9994 105 56.7726Z" fill="black"></path>
<path d="M138.378 69.3286L148.209 76.2766L142.541 76.7664C142.541 76.7664 144.159 74.3054 140.813 71.9C137.467 69.4947 129.086 73.2506 129.086 73.2506L137.657 79.1622C137.657 79.1622 131.203 87.5038 124.755 78.978C118.307 70.4521 112.8 88.6726 112.8 88.6726C112.8 88.6726 113.153 70.4547 118.233 70.5215C123.313 70.5883 138.378 69.3286 138.378 69.3286Z" fill="white"></path>
</svg>