<svg height="100%" viewbox="0 0 200 200" width="100%" xmlns="http://www.w3.org/2000/svg">
<path d="M74.1882 81.8641L66.1388 88.1789L65.4408 88.3912C63.9733 85.8889 61.8425 83.0195 61.683 81.9837C61.5234 80.9478 62.5442 80.2371 62.5442 80.2371C62.5442 80.2371 63.4701 78.9099 62.1776 77.8572C60.8851 76.8046 59.8021 74.0616 59.8021 74.0616C59.8021 74.0616 60.2276 76.8238 61.0979 78.1857C61.9681 79.5475 60.7405 80.1532 60.7405 80.1532C60.7405 80.1532 60.7091 79.6072 59.3999 78.16C58.0907 76.7128 52.7579 78.3351 52.7579 78.3351C52.7579 78.3351 56.349 78.0574 57.9768 78.9544C59.6046 79.8514 58.8579 81.6927 58.8579 81.6927C58.8579 81.6927 58.3846 79.3725 57.0723 79.7717C55.7601 80.1709 54.3369 80.9653 54.3369 80.9653C54.3369 80.9653 57.427 79.8445 57.7993 82.2615C58.1717 84.6784 59.5948 83.884 59.5948 83.884L59.2209 85.868L63.9595 89.4239L65.819 90.8462L67.2998 89.3114L72.1766 85.2976L74.6352 84.025L75.3656 85.9928L73.9792 87.4983L76.188 86.5606L76.5434 85.5536L76.7519 84.4872L77.5322 84.3914L77.9706 85.0389L77.1129 87.0621L78.9423 85.0128L78.41 83.4014L78.2278 82.7283L79.044 81.9435L80.6782 84.0188L79.7992 80.1573L77.6785 81.9974L74.1882 81.8641Z" fill="black"></path>
<path d="M74.6525 81.01L66.6031 87.3248L65.9051 87.5371C64.4376 85.0348 62.3068 82.1654 62.1473 81.1295C61.9877 80.0937 63.0085 79.383 63.0085 79.383C63.0085 79.383 63.9344 78.0557 62.6419 77.0031C61.3494 75.9504 60.2664 73.2075 60.2664 73.2075C60.2664 73.2075 60.692 75.9697 61.5622 77.3315C62.4324 78.6934 61.2048 79.299 61.2048 79.299C61.2048 79.299 61.1734 78.7531 59.8642 77.3059C58.555 75.8587 53.2222 77.4809 53.2222 77.4809C53.2222 77.4809 56.8133 77.2033 58.4411 78.1003C60.0689 78.9972 59.3222 80.8386 59.3222 80.8386C59.3222 80.8386 58.8489 78.5184 57.5367 78.9176C56.2244 79.3168 54.8012 80.1112 54.8012 80.1112C54.8012 80.1112 57.8913 78.9904 58.2636 81.4073C58.636 83.8243 60.0591 83.0299 60.0591 83.0299L59.6852 85.0138L62.2222 84.9491L66.2833 89.9921L67.0315 87.5571L74.0286 82.1606L76.0698 84.2467L75.712 85.2603L76.1888 86.561L76.7508 85.912L76.9569 83.9899L75.4754 82.5798L76.632 82.6541L77.9474 82.9145L78.9431 85.0133L78.8743 82.5473L78.1118 82.0564L79.4468 80.8627L80.4717 83.0774L79.9103 80.0081L78.8781 80.2778L78.1428 81.1433L74.6525 81.01Z" fill="#3E3E60"></path>
<path d="M138.351 58.3963C139.491 61.3157 146.751 70.4255 146.751 70.4255C146.751 70.4255 137.429 60.7751 136.891 58.9664C136.353 57.1577 130.745 45.3841 127.351 44.0177C123.958 42.6514 122.815 43.6024 116.342 45.1211C109.869 46.6398 106.625 36.8489 104.627 35.6104C70.549 14.4842 72.9429 25.8938 27.7398 25.8938C64.4937 24.6265 78.1915 7.71037 105.834 33.9614C109.071 37.0358 109.363 44.4822 116.502 43.3763C123.641 42.2705 124.911 39.9236 128.209 42.3368C131.507 44.75 137.211 55.4768 138.351 58.3963Z" fill="#3E3E60"></path>
<path d="M125.763 60.3775C125.763 60.3775 110.756 49.43 107.003 46.9701C103.249 44.5103 102.425 39.6184 98.9648 38.1688C90.1441 34.4738 82.7588 27.9053 96.3002 39.0398C99.8293 41.9416 97.7155 43.3698 97.7155 43.3698C97.7155 43.3698 94.2058 37.1437 89.7799 36.0097C85.8355 34.999 71.3909 16.2158 86.7822 36.9895C89.4209 40.5509 88.9725 41.4348 88.9725 41.4348C88.9725 41.4348 81.799 36.4063 79.5958 34.1771C69.1268 23.585 74.3294 28.0644 79.5699 38.6095C79.5699 38.6095 77.1229 37.5411 74.5996 35.8101C69.3073 32.1796 68.8046 33.3124 68.9661 34.2913C68.0588 33.885 69.2153 35.0791 69.2153 35.0791C69.2153 35.0791 69.0332 34.6985 68.9661 34.2913C69.1566 34.3766 69.4382 34.5325 69.8406 34.7849C72.1592 36.2391 73.8051 39.019 73.8051 39.019L59.7414 44.4429C59.7414 44.4429 55.4179 44.75 50.537 45.608C46.0503 46.3967 33.9323 52.1412 46.2005 48.1314C51.1967 46.4984 55.5073 48.4074 55.5073 48.4074C55.5073 48.4074 50.2934 49.3743 46.9626 50.4629C40.4826 52.5809 38.2912 54.0446 45.7327 52.3395C49.5054 51.4751 51.3756 53.8131 51.3756 53.8131L46.0463 55.555C42.038 56.8651 40.895 58.7133 45.4825 57.2139C47.5083 56.5518 48.256 56.676 48.256 56.676L42.8101 78.3637C42.8101 78.3637 42.4123 89.5535 42.9566 91.2189C47.0497 103.742 47.4123 107.892 44.9486 91.6738C44.6285 89.5665 46.8641 86.2551 46.8641 86.2551C46.8641 86.2551 47.9139 96.2345 48.4582 97.8999C52.8054 111.2 55.9269 113.983 50.8921 98.579C50.2389 96.5806 51.6996 93.1539 51.6996 93.1539C51.6996 93.1539 52.5575 98.0347 53.768 99.4824C60.7795 107.868 64.2395 112.158 57.1947 100.943C55.6576 98.4961 56.119 95.396 56.119 95.396C56.119 95.396 65.9927 105.351 76.856 104.749C87.7192 104.148 98.2649 99.1804 106.694 97.8999C136.252 93.41 125.491 122.485 110.658 115.638C104.58 112.832 105.532 109.017 97.2307 107.306C88.9297 105.596 71.7056 113.806 71.7056 113.806C71.7056 113.806 52.3676 123.445 52.9949 129.875C53.6222 136.306 55.5818 142.302 64.1005 144.679C72.6193 147.055 81.3752 146.774 87.5754 147.697C108.265 150.776 89.0017 166.796 81.5903 177.557C81.5903 177.557 103.851 162.607 104.16 154.028C104.468 145.45 100.348 142.785 94.3717 141.42C88.3957 140.056 82.0737 141.016 76.6616 137.992C71.2494 134.969 77.04 130.127 81.2611 128.378C85.4823 126.63 91.2535 125.112 96.8964 126.586C102.539 128.06 105.152 136.054 116.316 140.884C119.712 142.353 150.866 122.02 154.982 117.165C170.579 98.7696 149.399 80.001 129.983 77.7999C116.583 76.281 92.0117 90.2106 81.5903 91.0362C71.169 91.8618 65.8916 85.7337 64.1005 72.9347C62.3094 60.1358 80.7063 62.4972 91.9992 64.3775C108.697 67.1576 126.331 72.7836 142.191 74.5469C146.399 75.0148 159.206 72.9347 159.206 72.9347C159.206 72.9347 160.813 69.8297 158.279 69.4073C155.744 68.9848 153.134 69.7936 149.829 66.4499C140.294 56.8021 131.664 58.6823 131.664 58.6823C131.664 58.6823 126.993 58.5009 124.898 56.6048C122.804 54.7087 116.201 46.9131 116.201 46.9131L125.763 60.3775Z" fill="black"></path>
<path d="M71.1976 69.3689L70.0185 78.5726L69.7029 79.1541C67.1618 78.4721 63.9586 77.9752 63.1961 77.4077C62.4335 76.8402 62.6404 75.7312 62.6404 75.7312C62.6404 75.7312 62.3935 74.2844 60.8884 74.4274C59.3834 74.5703 56.9375 73.488 56.9375 73.488C56.9375 73.488 58.9709 75.0013 60.4001 75.3269C61.8292 75.6526 61.4219 76.8253 61.4219 76.8253C61.4219 76.8253 61.054 76.4927 59.287 76.3914C57.5199 76.2901 55.1081 80.7332 55.1081 80.7332C55.1081 80.7332 57.2509 78.2676 58.8735 77.8106C60.496 77.3536 61.186 79.0184 61.186 79.0184C61.186 79.0184 59.4031 77.821 58.8096 78.9143C58.2161 80.0077 57.8026 81.4269 57.8026 81.4269C57.8026 81.4269 59.0851 78.7356 60.8644 80.0597C62.6436 81.3839 63.0571 79.9647 63.0571 79.9647L64.0788 81.4842L69.4035 80.7643L71.5102 80.4991L71.4895 78.5649L72.0843 72.8674L73.3029 71.2798L74.2983 72.4044L76.1364 73.0045L75.4794 71.1293L73.748 70.4598L73.9177 69.8186L74.9666 68.8723L75.6621 69.0114L76.3961 70.8644L76.2731 68.376L74.9034 67.674L74.0983 67.8423L74.3847 66.3286L76.7615 66.6287L73.7353 64.694L73.537 67.2327L71.1976 69.3689Z" fill="black"></path>
<path d="M70.9533 68.5218L69.7742 77.7256L69.4586 78.3071C66.9175 77.6251 63.7143 77.1282 62.9518 76.5607C62.1892 75.9932 62.3961 74.8842 62.3961 74.8842C62.3961 74.8842 62.1491 73.4374 60.6441 73.5803C59.139 73.7233 56.6932 72.641 56.6932 72.641C56.6932 72.641 58.7266 74.1543 60.1558 74.4799C61.5849 74.8055 61.1776 75.9783 61.1776 75.9783C61.1776 75.9783 60.8097 75.6457 59.0427 75.5444C57.2756 75.4431 54.8638 79.8862 54.8638 79.8862C54.8638 79.8862 57.0066 77.4205 58.6292 76.9636C60.2517 76.5066 60.9417 78.1714 60.9417 78.1714C60.9417 78.1714 59.1588 76.974 58.5653 78.0673C57.9718 79.1607 57.5583 80.5798 57.5583 80.5798C57.5583 80.5798 58.8408 77.8886 60.62 79.2127C62.3993 80.5368 62.8128 79.1177 62.8128 79.1177L63.8344 80.6372L65.4319 78.9802L67.7168 79.1954L70.0016 79.4106L70.1989 77.6029L71.2828 69.6623L72.6069 70.1238L74.7615 71.4695L75.4798 71.1293L75.1741 70.7588L73.7681 70.0177L72.4843 69.0119L73.2786 68.3235L74.7223 68.0253L76.2735 68.376L74.6591 66.827L73.854 66.9953L73.9564 65.3743L76.0284 66.1524L73.7116 64.5272L73.2166 65.3586L73.2927 66.3857L70.9533 68.5218Z" fill="#3E3E60"></path>
<path d="M147.531 66.5613L148.573 69.9797L147.154 69.0634C147.154 69.0634 147.981 68.7805 147.634 67.6075C147.287 66.4345 144.638 65.7907 144.638 65.7907L145.573 68.7367C145.573 68.7367 142.541 69.519 142.58 66.346C142.619 63.1731 138.012 66.445 138.012 66.445C138.012 66.445 141.409 62.2361 142.589 63.176C143.768 64.1159 147.531 66.5613 147.531 66.5613Z" fill="white"></path>
<path d="M90.4762 42.9975L93.338 47.9013L90.8095 47.0038C90.8095 47.0038 91.9849 46.2636 91.0188 44.5772C90.0526 42.8907 85.7211 42.8648 85.7211 42.8648L88.2446 47.0775C88.2446 47.0775 83.8439 49.3965 82.7427 44.4767C81.6414 39.5568 75.7165 46.3014 75.7165 46.3014C75.7165 46.3014 79.4288 38.5506 81.5962 39.5722C83.7636 40.5937 90.4762 42.9975 90.4762 42.9975Z" fill="white"></path>
<path d="M106.728 53.4572L107.614 55.2649L106.743 54.8825C106.743 54.8825 107.178 54.651 106.879 54.0298C106.581 53.4086 105.05 53.2881 105.05 53.2881L105.834 54.8427C105.834 54.8427 104.218 55.5497 103.955 53.7816C103.692 52.0135 101.424 54.2464 101.424 54.2464C101.424 54.2464 102.936 51.6009 103.676 52.0178C104.416 52.4347 106.728 53.4572 106.728 53.4572Z" fill="white"></path>
<defs></defs>
</svg>