<svg height="100%" viewbox="0 0 200 200" width="100%" xmlns="http://www.w3.org/2000/svg">
<path d="M187.597 120.762L158.753 94.54L141.727 83.7821L86.8019 32L57.6657 60.0563L53.3142 99.994L46.5891 107.355L23.3711 126.177L39.7302 162.615L43.1644 145.789L53.3142 134.041L65.626 129.206L68.6265 136.964L63.2142 143.005L71.6404 141.354L75.4994 144.906L78.2122 140.201L86.8022 139.73L82.1045 135.333L86.3374 129.456L105.51 126.143L107.547 131.56L102.543 134.929L111.458 137.542L116.54 142.466L119.47 137.118L126.997 138.129L118.997 130.698L118.457 124.881L141.807 129.495L165.764 134.041L187.597 120.762Z" fill="black"></path>
<path d="M57.666 60.0566L53.3145 99.9944L79.4981 90.4093L106.656 88.2793L57.666 60.0566Z" fill="#3E3E60"></path>
<path d="M144.928 126.948C139.78 125.171 134.242 120.022 134.242 120.022C134.242 120.022 143.763 127.611 147.522 125.601C151.06 123.709 146.337 120.787 145.772 120.451L145.718 120.419C145.718 120.419 145.737 120.43 145.772 120.451L157.043 127.052L152.06 126.008C152.06 126.008 150.075 128.726 144.928 126.948Z" fill="white"></path>
<path d="M89.8652 65.9966C93.9828 70.2363 101.88 73.1483 101.88 73.1483C101.88 73.1483 89.6564 67.4987 90.193 62.7169C90.6981 58.2151 95.8599 61.447 96.4627 61.841L96.5201 61.879C96.5201 61.879 96.5002 61.8655 96.4627 61.841L84.5451 53.9386L87.8058 58.3876C87.8058 58.3876 85.7476 61.757 89.8652 65.9966Z" fill="white"></path>
<path d="M43.9639 126.629C40.4512 130.246 33.7144 132.73 33.7144 132.73C33.7144 132.73 44.142 127.911 43.6843 123.831C43.2533 119.991 38.8498 122.748 38.3355 123.084L38.2866 123.116C38.2866 123.116 38.3035 123.105 38.3355 123.084L48.5025 116.342L45.7208 120.138C45.7208 120.138 47.4767 123.012 43.9639 126.629Z" fill="white"></path>
<defs></defs>
</svg>