<svg height="100%" viewBox="0 0 200 200" width="100%" xmlns="http://www.w3.org/2000/svg">
<path d="M186.945 119.064L166.235 90.0687L154.401 79.2693L94.5488 20.0141L65.6477 36.0509L60.2557 43.5349L62.9285 46.7423L58.652 45.6732L57.0484 48.3459L70.4122 58.5025L53.8411 53.6915L46.8915 63.3132L51.3062 90.0687L34.2005 116.391L26.7167 158.406L87.9184 171.985L166.235 168.778L146.431 161.828L115.066 161.828L65.6477 144.708L67.8517 131.019L77.3614 125.158L81.019 132.656L77.3614 134.409L75.5858 138.72L81.6379 136.013L87.9184 140.628L91.7944 134.409L99.2646 135.433L97.6745 132.271L94.5488 131.019L102.089 124.868L118.045 121.794L120.089 127.232L116.918 127.995L113.711 132.656L122.799 131.019L129.117 138.179L131.886 130.133L139.614 133.826L137.232 128.529L131.583 126.366L135.766 119.064L154.482 125.158L178.53 129.722L186.945 119.064Z" fill="black"></path>
<path d="M154.401 79.2701L94.5488 20.0148L65.6477 36.0516L139.369 79.2701L154.401 79.2701Z" fill="#3E3E60"></path>
<path d="M46.8912 63.3142L51.1674 90.0418L86.448 83.627L109.968 80.4205L46.8912 63.3142Z" fill="#3E3E60"></path>
<path d="M157.476 122.444C152.308 120.66 146.749 115.492 146.749 115.492C146.749 115.492 156.306 123.109 160.08 121.092C163.632 119.193 158.891 116.259 158.323 115.922L158.269 115.89C158.269 115.89 158.288 115.901 158.323 115.922L169.637 122.548L164.635 121.5C164.635 121.5 162.643 124.229 157.476 122.444Z" fill="white"></path>
<path d="M85.1984 64.3307C90.4768 67.0393 98.9227 67.2709 98.9227 67.2709C98.9227 67.2709 85.4826 65.8263 84.4561 61.1062C83.4897 56.6626 89.4373 58.0773 90.1372 58.2583L90.204 58.276C90.204 58.276 90.1808 58.2695 90.1372 58.2583L76.2637 54.5731L80.7945 57.7562C80.7945 57.7562 79.9199 61.622 85.1984 64.3307Z" fill="white"></path>
<path d="M69.0312 83.4471C74.9462 83.9063 82.8258 80.857 82.8258 80.857C82.8258 80.857 69.8712 84.7168 67.1009 80.7597C64.4928 77.0344 70.5252 76.0416 71.2407 75.9381L71.3092 75.9287C71.3092 75.9287 71.2852 75.9317 71.2407 75.9381L57.0206 77.8986L62.4293 79.0843C62.4293 79.0843 63.1161 82.9878 69.0312 83.4471Z" fill="white"></path>
<path d="M69.9314 161.115C74.6498 162.947 81.8366 162.396 81.8366 162.396C81.8366 162.396 70.3049 162.359 69.0164 158.445C67.8035 154.76 72.9751 155.434 73.5851 155.526L73.6433 155.535C73.6433 155.535 73.623 155.531 73.5851 155.526L61.4873 153.626L65.6133 155.926C65.6133 155.926 65.2131 159.283 69.9314 161.115Z" fill="white"></path>
<defs></defs>
</svg>