<svg height="100%" viewBox="0 0 200 200" width="100%" xmlns="http://www.w3.org/2000/svg">
<path d="M99.3231 61.2438C83.2278 73.7624 93.0715 87.4285 81 99.5C64.2356 116.264 57.5 109.53 26 109.53C46.5 130 71.4196 157.632 102.9 142.168C128.384 129.649 128.5 118 136 102C143.5 86 156.688 88.2593 162.5 82C168.312 75.7407 179.353 56.7729 167.281 56.7729C155.21 56.7729 115.418 48.7252 99.3231 61.2438Z" fill="black"></path>
<path clip-rule="evenodd" d="M148 62.5C148 62.5 144.5 64 138.378 65.3286C137.687 65.4785 136.988 65.6053 136.283 65.7143C136.735 66.3622 137 67.1502 137 68C137 70.2092 135.209 72 133 72C130.791 72 129 70.2092 129 68C129 67.428 129.12 66.884 129.336 66.3919L129.136 66.4055C124.32 66.7336 119.76 67.0441 116.5 69C116.5 69 120.5 68.5 124.755 74.978C129.01 81.4559 138.378 74 138.378 74C138.378 74 136.5 75.1623 132.5 74.978C128.5 74.7937 121.5 69.5 121.5 69.5C121.5 69.5 126 70.5 130 72.5C134 74.5 142.541 72.7664 142.541 72.7664L148 62.5ZM142.5 66.5L141 65C141 65 140.5 66.6737 140.018 66.8412C139.536 67.0087 138 67 138 67L139.5 68.4427L138.5 70C138.5 70 140.5 69.3648 141 69.4324C141.5 69.5 142.75 71 142.75 71L142.589 68.4427L144.5 66.5H142.5ZM127.799 67.3376L123.525 67.8361L126.89 70.5182L127.799 67.3376Z" fill="white" fill-rule="evenodd"></path>
</svg>