<svg height="100%" viewBox="0 0 200 200" width="100%" xmlns="http://www.w3.org/2000/svg">
<path d="M152.5 78.5C158.5 74.5 167.5 84 174.5 84C181.5 84 184.6 81.5 184 80C183.4 78.5 182 80.5 177 75.5C172 70.5 173 59 166.5 52.5C153.718 39.7182 138.682 43.2173 122 43.5L102.5 40L115.5 50.5H140L112 71.5L90.5 75.5L109.5 78.5L134.5 61C134.5 61 123.5 89.5 112 102C100.5 114.5 88 124.5 88 124.5L76 165.5L90.5 154.5L88 165.5L97 173V162L102.5 171H127.5L135.5 135L141 171L155.5 173L146.5 165.5L141 122C141 122 146.5 82.5 152.5 78.5Z" fill="black"></path>
<path clip-rule="evenodd" d="M161.01 70.692C160.167 69.7763 159.725 69.1621 159.725 69.1621C159.725 69.1621 158.743 73.4956 162.326 76.8575C165.91 80.2194 171.882 78.4476 171.882 78.4476C171.882 78.4476 171.882 78.4473 169.011 76.762C167.778 77.5964 166.202 77.9093 164.652 77.4894C161.826 76.7238 160.155 73.8121 160.921 70.986C160.948 70.8865 160.977 70.7885 161.01 70.692Z" fill="white" fill-rule="evenodd"></path>
<path d="M163.623 73.0185L164.141 74.1735L165.355 74.5319L164.2 75.0502L163.842 76.2643L163.323 75.1093L162.109 74.7509L163.264 74.2326L163.623 73.0185Z" fill="white"></path>
<path d="M161.076 65.6223L171.049 77.1078L159.205 67.2447L154.697 66.0244L161.076 65.6223Z" fill="white"></path>
<path d="M62 148L96 142L62 171L25 136L44 100L46 69L59 93.5L37 128.5L62 148Z" fill="black"></path>
<path d="M67 118.5L91 143.5L87.5 149L58 123.5L67 87L58 58L31 55.5L21.5 87L23.5 34.5L67 44L79 87L67 118.5Z" fill="black"></path>
<path d="M116.131 134.877C123.025 123.708 129.972 113.902 129.972 113.902C129.972 113.902 109.045 110.07 99.5627 124.162C90.08 138.254 62.3827 144.953 62.3827 144.953C62.3827 144.953 109.237 146.045 116.131 134.877Z" fill="#3E3E60"></path>
<path clip-rule="evenodd" d="M101.424 133.663C99.951 134.542 98.998 134.965 98.998 134.965C98.998 134.965 104.567 137.51 110.112 133.623C115.656 129.736 114.948 121.18 114.948 121.18C114.948 121.18 114.947 121.18 111.865 124.579C112.644 126.477 112.622 128.691 111.619 130.664C109.79 134.261 105.392 135.694 101.795 133.865C101.669 133.801 101.545 133.733 101.424 133.663Z" fill="white" fill-rule="evenodd"></path>
<path d="M105.296 130.793L107.001 130.419L107.826 128.882L108.2 130.586L109.737 131.411L108.033 131.785L107.207 133.322L106.833 131.618L105.296 130.793Z" fill="white"></path>
<path d="M94.6034 132.145L112.906 121.927L96.265 135.127L93.3493 140.864L94.6034 132.145Z" fill="white"></path>
<path clip-rule="evenodd" d="M35.9353 47.9041C34.3688 47.6903 33.4387 47.4473 33.4387 47.4473C33.4387 47.4473 35.9881 52.4843 42.2188 52.8719C48.4495 53.2595 52.8599 46.6868 52.8599 46.6868C52.8599 46.6868 52.8598 46.6864 48.6842 47.363C48.1532 49.179 46.8643 50.762 45.0069 51.6067C41.6205 53.1469 37.6269 51.6502 36.0867 48.2639C36.0325 48.1447 35.982 48.0247 35.9353 47.9041Z" fill="white" fill-rule="evenodd"></path>
<path d="M40.3767 48.0635L41.8197 48.7741L43.2984 48.1413L42.5877 49.5843L43.2205 51.063L41.7776 50.3523L40.2988 50.9851L41.0095 49.5422L40.3767 48.0635Z" fill="white"></path>
<path d="M31.8936 42.8884L50.9588 46.051L31.3762 45.9924L25.9754 48.4501L31.8936 42.8884Z" fill="white"></path>
</svg>