<svg height="100%" viewBox="0 0 200 200" width="100%" xmlns="http://www.w3.org/2000/svg">
<path d="M163.5 85.5002L165.943 93.5176C165.943 93.5176 154.443 88.0176 152.943 84.5176C151.443 81.0176 149.943 71.0176 149.943 65.1393C149.943 59.2609 152.943 46.5176 136.479 40.6624C120.015 34.8072 99.1732 46.0176 90.2057 51.388C81.2381 56.7584 69.2051 67.5176 67.0739 76.0176C63.6066 89.8462 77.8831 117.795 93.5669 116.819C106.443 116.018 108.247 93.3695 122.363 92.6936C137.7 91.9591 164.878 107.018 168.91 113.018C172.943 119.018 172.943 161.518 170.381 167.773C167.82 174.028 126.443 178.518 110.941 178.489C95.439 178.46 67.0739 157.018 67.0739 157.018C67.0739 157.018 41.4037 178.608 44.6487 182.563C47.8936 186.518 68.1482 184.301 68.1482 184.301L38.923 191.075C30.4202 177.165 60.1643 149.018 60.1643 149.018C60.1643 149.018 85.2478 143.012 99.1732 161.499C113.099 179.986 153.975 175.018 161.443 157.018C168.911 139.018 166.045 121.319 161.443 116.819C156.84 112.319 139.943 99.5176 122.363 106.084C104.784 112.65 108.457 138.018 97.7927 146.121C87.1284 154.225 35.9427 113.018 33.594 106.084C31.2453 99.1498 41.4427 67.5176 43.9324 62.1136C46.4222 56.7097 57.7051 48.7395 67.0739 42.3785C71.4436 39.4117 74.0052 37.8247 75.4948 36.9757L47.8936 50.4171L25.3618 41.7818C25.3618 41.7818 37.4035 43.4267 48.7839 40.9721C60.1643 38.5176 77.5 28.0692 77.5 28.0692L115.515 25.5046L99.1732 23.6466L60.1643 28.0692L28.9999 8.00048L64.5 14.5L120.5 11.5L147.943 25.5046L145.5 17.5002L152.943 5.00024L152.943 17.5002L167.5 45.0002L172.943 65.1393L163.5 85.5002Z" fill="black"></path>
<path d="M153.949 114.519C149.943 108.771 136.943 101.519 136.943 101.519L125.947 103.243C126.259 103.195 141.639 100.884 150.443 114.519C159.336 128.293 150.513 141.357 139.155 146.827C135.762 148.461 128.129 146.827 124.014 145.192C119.898 143.558 122.296 126.793 122.296 126.793C122.296 126.793 111.073 153.815 117.544 155.916C124.014 158.018 138.155 159.055 142.549 155.537C146.943 152.018 153.943 140.519 156.443 134.519C158.943 128.519 157.955 120.267 153.949 114.519Z" fill="black"></path>
<path d="M32.675 63.107L41.3298 68.1163L46.4502 73.0443L45.2348 79.7355L39.7736 80.3875L49.5619 115.978L49.6284 137.623L47.0796 116.275L35.4016 85.945L32.675 63.107Z" fill="#3E3E60"></path>
<path d="M28.9241 82.3026L38.9178 81.9478L45.8739 83.402L48.3996 89.7163L44.1194 93.1704L71.322 118.121L82.8787 136.422L69.3765 119.691L43.3685 100.201L28.9241 82.3026Z" fill="#3E3E60"></path>
<path d="M19.6001 68.3734L32.472 75.1326L40.2046 81.985L38.8392 91.7777L30.945 93.0513L47.2916 144.166L48.6822 175.605L43.7033 144.745L15.5 96L19.6001 68.3734Z" fill="#3E3E60"></path>
<path clip-rule="evenodd" d="M25.3425 85.3163C25.3905 83.9241 25.3181 83.0801 25.3181 83.0801C25.3181 83.0801 29.3119 86.045 28.7194 91.5133C28.1269 96.9815 21.7617 99.8313 21.7617 99.8313C21.7617 99.8313 21.7614 99.8311 22.9715 96.3063C24.6276 96.1159 26.1944 95.2328 27.2049 93.7458C29.0473 91.0349 28.3432 87.3438 25.6323 85.5015C25.5369 85.4366 25.4402 85.3749 25.3425 85.3163Z" fill="white" fill-rule="evenodd"></path>
<path d="M24.8178 89.1958L25.2197 90.5547L24.4497 91.7444L25.8087 91.3425L26.9984 92.1125L26.5965 90.7535L27.3664 89.5638L26.0075 89.9658L24.8178 89.1958Z" fill="white"></path>
<path d="M21.5884 81.057L21.4917 98.0841L24.3609 81.0706L27.3004 76.7472L21.5884 81.057Z" fill="white"></path>
<path d="M86.5541 73.2782C82.6656 73.0378 79.9426 53.519 79.9426 53.519L69.7545 62.801C69.7545 62.801 82.3495 76.7602 85.3961 77.1394C88.4427 77.5186 102.141 69.6653 102.141 69.6653L109.079 75.2426L103.673 65.2041C103.673 65.2041 90.4427 73.5186 86.5541 73.2782Z" fill="black"></path>
<path d="M93.1587 101.32L70.8785 100.404L74.9325 109.054L95.6542 104.486L99.1546 86.4864L107.706 84.0104L96.383 82.6696L93.1587 101.32Z" fill="black"></path>
<path clip-rule="evenodd" d="M125.12 98.0267C124.054 97.7089 123.433 97.4395 123.433 97.4395C123.433 97.4395 124.662 101.217 128.953 102.159C133.243 103.102 137.02 99.0075 137.02 99.0075C137.02 99.0075 137.02 99.0071 134.044 99.0268C133.478 100.232 132.411 101.194 131.028 101.581C128.507 102.286 125.892 100.814 125.187 98.2932C125.162 98.2045 125.14 98.1156 125.12 98.0267Z" fill="white" fill-rule="evenodd"></path>
<path d="M128.191 98.6156L129.117 99.2655L130.214 98.9852L129.564 99.9118L129.844 101.008L128.917 100.358L127.821 100.639L128.471 99.7122L128.191 98.6156Z" fill="white"></path>
<path d="M122.851 94.1008L135.766 98.3582L122.156 96.2033L118.135 97.3291L122.851 94.1008Z" fill="white"></path>
<path clip-rule="evenodd" d="M156.268 72.5565C156.229 71.4446 156.287 70.7705 156.287 70.7705C156.287 70.7705 153.097 73.1385 153.571 77.5058C154.044 81.873 159.127 84.1491 159.127 84.1491C159.127 84.1491 159.128 84.1489 158.161 81.3338C156.839 81.1818 155.587 80.4764 154.78 79.2889C153.309 77.1238 153.871 74.1758 156.036 72.7044C156.112 72.6526 156.19 72.6033 156.268 72.5565Z" fill="white" fill-rule="evenodd"></path>
<path d="M156.687 75.655L156.366 76.7403L156.981 77.6905L155.895 77.3695L154.945 77.9844L155.266 76.8991L154.651 75.9489L155.737 76.2699L156.687 75.655Z" fill="white"></path>
<path d="M159.266 69.155L159.343 82.7538L157.051 69.1658L154.704 65.7129L159.266 69.155Z" fill="white"></path>
<path clip-rule="evenodd" d="M63.8329 20.3599C64.9356 20.5082 65.6121 20.5176 65.6121 20.5176C65.6121 20.5176 62.9395 23.4568 58.6406 22.5529C54.3418 21.6489 52.5811 16.3647 52.5811 16.3647C52.5811 16.3647 52.5813 16.3645 55.2866 17.6053C55.3068 18.9366 55.8846 20.2517 56.9863 21.1725C58.9948 22.8514 61.984 22.5841 63.6628 20.5756C63.7219 20.5049 63.7786 20.4329 63.8329 20.3599Z" fill="white" fill-rule="evenodd"></path>
<path d="M60.7915 19.6355L59.6796 19.8474L58.7951 19.1412L59.0069 20.253L58.3008 21.1376L59.4126 20.9257L60.2971 21.6319L60.0853 20.5201L60.7915 19.6355Z" fill="white"></path>
<path d="M67.5147 17.7137L53.9905 16.2885L67.2843 19.916L70.4874 22.5945L67.5147 17.7137Z" fill="white"></path>
<path clip-rule="evenodd" d="M158.374 62.4849C158.403 62.0479 158.452 61.7861 158.452 61.7861C158.452 61.7861 157.109 62.5875 157.122 64.3169C157.134 66.0463 159.036 67.1389 159.036 67.1389C159.036 67.1389 159.036 67.1389 158.769 65.9979C158.257 65.8861 157.794 65.5603 157.525 65.0632C157.034 64.1569 157.371 63.0244 158.278 62.5337C158.309 62.5164 158.342 62.5001 158.374 62.4849Z" fill="white" fill-rule="evenodd"></path>
<path d="M158.416 63.7143L158.247 64.1267L158.45 64.5233L158.038 64.3546L157.641 64.5579L157.81 64.1454L157.607 63.7489L158.019 63.9176L158.416 63.7143Z" fill="white"></path>
<path d="M159.683 61.2709L159.175 66.6007L158.815 61.1876L158.032 59.7422L159.683 61.2709Z" fill="white"></path>
<defs></defs>
</svg>