<svg height="100%" viewBox="0 0 200 200" width="100%" xmlns="http://www.w3.org/2000/svg">
<path d="M91.4151 103.918C101.129 101.613 101.217 94.5868 101.217 94.5868L88.0574 85.3753C76.3698 92.388 57.0254 103.12 67.9901 120.118C72.0484 126.41 84.1298 134.835 91.4151 133.107C98.7003 131.378 118.003 109.749 124.5 106.5C136.576 100.461 140.559 114.82 143.062 122.787C139.375 104.855 130.923 84.4745 112.5 103.5C108.822 107.298 96.4846 119.907 91.9999 116C87.5152 112.093 81.7014 106.223 91.4151 103.918Z" fill="black"></path>
<path d="M103.862 77.9065C93.8169 71.9976 93.226 67.4534 93.226 67.4534C93.226 67.4534 92.0443 69.0432 96.1805 76.9076C100.317 84.7721 104.453 88.7254 111.544 95.8161C118.634 102.907 128.237 150.178 128.088 152.949C127.94 155.721 110.953 165.541 110.953 165.541C110.953 165.541 109.771 158.633 109.771 149.587C109.771 140.541 110.362 140.133 111.544 121.815C112.725 103.498 103.862 102.316 103.862 102.316C103.862 102.316 100.549 119.928 85.1854 119.928C69.8223 119.928 66.636 108.816 66.636 108.816C66.636 108.816 63.0907 123.588 66.636 134.224C70.1814 144.86 84.9536 142.131 89.0898 148.813C93.2261 155.496 93.8169 168.495 93.8169 168.495C93.8169 168.495 79.6356 165.541 73.1358 161.405C66.636 157.269 63.0907 148.813 63.0907 148.813C63.0907 148.813 56 109.997 56 95.8161C56 69.4519 67.9523 39.5066 96.7713 32.9991C115.492 28.7717 129.326 41.088 131.634 59.5889C132.768 68.6778 133.407 77.9065 133.407 77.9065C133.407 77.9065 113.907 83.8154 103.862 77.9065Z" fill="black"></path>
<path d="M107.081 63.9843C101.247 59.2911 100.87 54.551 100.87 54.551C100.87 54.551 100.88 67.9453 101.365 69.4868C101.851 71.0283 107.26 76.0279 107.26 76.0279C107.26 76.0279 104.326 72.376 102.959 70.2988C101.591 68.2215 103.773 62.69 103.773 62.69C103.773 62.69 108.615 68.4358 109.442 70.4965C110.27 72.5573 110.7 75.6239 110.7 75.6239C110.7 75.6239 112.916 68.6775 107.081 63.9843Z" fill="white"></path>
<path d="M73.8667 93.7196C67.3313 88.4624 66.9094 83.1526 66.9094 83.1526C66.9094 83.1526 66.9196 98.1567 67.4634 99.8834C68.0073 101.61 74.067 107.211 74.067 107.211C74.067 107.211 70.7807 103.12 69.2485 100.793C67.7164 98.466 70.1611 92.2697 70.1611 92.2697C70.1611 92.2697 75.5846 98.7061 76.5116 101.014C77.4386 103.323 77.9208 106.758 77.9208 106.758C77.9208 106.758 80.4021 98.9769 73.8667 93.7196Z" fill="white"></path>
</svg>