<svg height="100%" viewBox="0 0 200 200" width="100%" xmlns="http://www.w3.org/2000/svg">
<path d="M81.041 65.72L90.041 90.72L86.541 99.72L70.541 69.72C70.541 69.72 55.541 71.22 54.041 65.72C52.541 60.22 55.541 47.22 55.541 47.22L41.541 31.72L55.541 40.72C55.541 40.72 72.541 40.72 76.541 43.72C80.541 46.72 81.041 57.9095 81.041 65.72Z" fill="black"></path>
<path d="M77 120.22C91.1199 120.22 100.439 118.32 100.439 118.32L77.4937 84.72C71.1857 104.091 29.0039 108.698 35.7223 127.734C39.2523 137.735 66.9038 158.327 77.4937 158.327C88.0837 158.327 118.677 120.674 128.678 118.32C138.68 115.967 144.86 129.387 147.802 137.624C150.743 145.86 149.858 155.974 149.858 155.974L152.802 137.624C152.802 137.624 169.327 118.487 162.302 114.624C150.535 108.152 132.208 108.907 117.5 118.32C102.792 127.734 95.2666 141.22 83.5 141.22C71.7334 141.22 64.9417 138.339 62 134.22C59.0583 130.102 62.8801 120.22 77 120.22Z" fill="black"></path>
<path d="M150.905 121.031C155.644 117.218 155.95 113.367 155.95 113.367C155.95 113.367 155.943 124.249 155.549 125.501C155.154 126.753 150.759 130.815 150.759 130.815C150.759 130.815 153.143 127.848 154.254 126.161C155.365 124.473 153.592 119.979 153.592 119.979C153.592 119.979 149.659 124.647 148.987 126.321C148.314 127.995 147.965 130.487 147.965 130.487C147.965 130.487 146.165 124.844 150.905 121.031Z" fill="white"></path>
<path d="M129.436 75.7205C119.434 69.8372 119.434 58.7205 119.434 58.7205C111.998 70.2205 124.373 91.4895 129.436 96.5523C136.496 103.612 143.703 155.385 143.556 158.145C143.408 160.904 126.494 170.682 126.494 170.682L137.084 158.145L132.377 148.325L119.434 154.027C119.434 154.027 126.323 146.959 127.5 128.72C128.677 110.482 121.5 109.721 121.5 109.721C121.5 109.721 115.904 122.439 100.607 122.439C85.3109 122.439 86.5 117.969 82.5 125.969C76.3599 138.249 98.8414 148.695 108.256 154.027H93.5475V161.857L109.432 173.624C109.432 173.624 95.3125 170.682 88.8409 166.564C82.3692 162.445 78.8393 154.027 78.8393 154.027C78.8393 154.027 71.7793 115.379 71.7793 101.259C71.7793 87.139 78.8393 73.6248 78.8393 73.6248C78.8393 73.6248 102.072 31.8322 120.31 27.7139C137.01 23.9429 155.021 35.4522 155.021 54.1886V79.2204C155.021 85.0173 139.437 81.6038 129.436 75.7205Z" fill="black"></path>
<path d="M129.438 96.5523C129.438 96.5523 129.438 96.5533 129.439 96.5553C136.498 103.627 143.703 155.386 143.556 158.145C143.408 160.904 126.494 170.682 126.494 170.682L133.501 159.221L130.001 152.221C130.001 152.221 134.323 149.959 135.5 131.721C136.668 113.623 129.548 96.8127 129.439 96.5553C129.438 96.5547 129.438 96.5541 129.437 96.5535C129.398 96.6418 129.426 96.5428 129.436 96.5523C129.436 96.5527 129.437 96.5531 129.437 96.5535C129.437 96.5531 129.437 96.5527 129.438 96.5523Z" fill="#3E3E60"></path>
<path d="M76.5 152.221C74.5 146.721 72 111.221 72 111.221C72 111.221 80 144.221 82.5 148.221C85 152.221 96 155.721 96 155.721L95.5 161.221L109.432 173.624C109.432 173.624 95.3125 170.682 88.8409 166.564C82.3692 162.445 78.5 157.721 76.5 152.221Z" fill="#3E3E60"></path>
<path d="M132.596 58.8327C125.935 53.4746 125.505 48.063 125.505 48.063C125.505 48.063 125.515 63.3548 126.07 65.1147C126.624 66.8745 132.8 72.5824 132.8 72.5824C132.8 72.5824 129.451 68.4132 127.889 66.0416C126.328 63.6701 128.819 57.355 128.819 57.355C128.819 57.355 134.347 63.9148 135.291 66.2674C136.236 68.6201 136.728 72.1212 136.728 72.1212C136.728 72.1212 139.257 64.1907 132.596 58.8327Z" fill="white"></path>
<path d="M70.4467 53.6215C71.8963 59.8072 75.3845 61.8347 75.3845 61.8347C75.3845 61.8347 65.1405 56.9127 64.1393 55.9756C63.1382 55.0385 61.2983 49.0652 61.2983 49.0652C61.2983 49.0652 63.0156 52.6498 64.1029 54.4584C65.1902 56.2671 70.223 56.6273 70.223 56.6273C70.223 56.6273 67.6038 50.8147 66.3309 49.4254C65.058 48.0361 62.8698 46.5814 62.8698 46.5814C62.8698 46.5814 68.997 47.4358 70.4467 53.6215Z" fill="white"></path>
</svg>