<svg height="100%" viewBox="0 0 200 200" width="100%" xmlns="http://www.w3.org/2000/svg">
<path d="M100.5 62.4412C75.4998 73.9403 62.5 120 42 151C42 151 56.5 163.5 75.5 166.5C94.5 169.5 107.5 170.073 126 163C144.5 155.926 151 107 155 95.4999C159 83.9995 164.548 83.9998 169 75.4999C173.452 66.9999 167.5 70.4999 156.5 66.4995C145.5 62.4991 125.5 50.9421 100.5 62.4412Z" fill="black"></path>
<path d="M135 70.4996C124 72.4996 120.5 86.4998 123 89.4996C128.181 95.717 140 96.4996 145.5 93.9996C151 91.4996 157.5 85 160 78.5002C160 78.5002 146 68.4996 135 70.4996Z" fill="#3E3E60"></path>
<path d="M114 56L118.5 60.5L117 61L113 57C113 57 107 58.5 103.5 56.5C100 54.5 97 46.5 97 46.5C97 46.5 102.5 49 108 49.5C113.5 50 114 56 114 56Z" fill="black"></path>
<path d="M144.963 80.7457C148.74 79.4273 154.307 81.7205 154.307 81.7205L148.192 85.4439L150.53 83.0389C150.53 83.0389 148.313 82.754 146.424 83.4132C144.536 84.0724 139.059 88.1031 137.478 88.1254C135.897 88.1478 130 84.9104 130 84.9104C130 84.9104 133.184 86.4467 136.017 85.4579C138.849 84.4691 141.187 82.0641 144.963 80.7457Z" fill="white"></path>
<path d="M100.125 140.053C105.332 136.644 114.599 138.015 114.599 138.015L106.766 145.934L109.392 141.424C109.392 141.424 105.936 141.827 103.333 143.532C100.73 145.237 93.9731 153.38 91.5944 154.008C89.2156 154.636 79.0962 151.963 79.0962 151.963C79.0962 151.963 84.4813 153.086 88.3865 150.529C92.2916 147.972 94.9182 143.462 100.125 140.053Z" fill="white"></path>
</svg>