<svg height="100%" viewBox="0 0 200 200" width="100%" xmlns="http://www.w3.org/2000/svg">
<path d="M151 33.4998C137 28.4998 126.5 28.9484 111.5 33.4995C96.5 38.0507 65.5 56.4993 56.5 82.9993C47.5 109.499 45.5 127.499 38.5 140.999C31.5 154.499 12 167.499 12 167.499C12 167.499 32 180.499 51.5 180.499C71 180.499 109.5 182 117 177.5C124.5 173 125 157.999 126.5 146.499C128 134.999 131.5 100.499 136.5 88.4998C141.5 76.5004 166.5 59.4993 172 59.4993C177.5 59.4993 182 60.9993 182 60.9993L173 49.9993C173 49.9993 165 38.4998 151 33.4998Z" fill="black"></path>
<path d="M45.0887 154.639C49.2682 151.065 57.5439 151.224 57.5439 151.224L51.57 159.046L53.3644 154.798C53.3644 154.798 50.3813 155.54 48.2915 157.327C46.2018 159.114 41.1972 167.011 39.1832 167.829C37.1691 168.647 28 167.443 28 167.443C28 167.443 32.8458 167.821 35.9804 165.141C39.1149 162.461 40.9093 158.213 45.0887 154.639Z" fill="white"></path>
<path d="M160 40.5L158.5 38C158.5 38 165.5 42.5005 168 45.0005C170.5 47.5005 175 53 175 53H173.5L172.5 58.0005C172.5 58.0005 163.5 60.7143 158.5 60C153.5 59.2858 148.5 56.5005 145.5 54.5C142.5 52.4996 140 46.0005 141 42.0005C142 38.0005 147.5 37.5005 150.5 37.5005C153.5 37.5005 160 40.5 160 40.5Z" fill="#3E3E60"></path>
<path d="M160.725 53.129C163.341 54.2838 165.129 58.1989 165.129 58.1989L160.118 57.1589L162.513 57.0441C162.513 57.0441 161.493 55.8127 160.186 55.2353C158.878 54.6579 154.049 54.0892 153.213 53.3292C152.376 52.5691 150.877 48 150.877 48C150.877 48 151.79 50.3567 153.752 51.2229C155.714 52.089 158.109 51.9741 160.725 53.129Z" fill="white"></path>
<path d="M105.782 16.7331C111.361 17.0856 118.288 24.4688 121.08 25.6757C123.872 26.8826 126.298 27.4842 129.455 29.2967C132.611 31.1092 133.947 31.9556 133.947 31.9556L131.28 32.3248C131.28 32.3248 129.579 30.8731 126.908 29.1807C124.237 27.4883 121.69 27.3725 118.658 27.1359C110.215 26.4772 102.621 33.4638 92.9567 31.0688C89.0741 30.1067 77.7664 15.4562 77.7664 15.4562C77.7664 15.4562 85.6601 21.0184 90.2685 21.1303C94.877 21.2422 100.203 16.3807 105.782 16.7331Z" fill="black"></path>
<path d="M103.86 21.0447C107.766 20.6072 112.598 24.0211 112.598 24.0211L105.927 26.2516L108.692 24.4587C108.692 24.4587 106.63 23.7009 104.677 23.9197C102.723 24.1384 96.5947 26.8025 95.0752 26.4784C93.5557 26.1542 88.6143 21.7637 88.6143 21.7637C88.6143 21.7637 91.3291 23.9316 94.2587 23.6034C97.1884 23.2752 99.9539 21.4823 103.86 21.0447Z" fill="white"></path>
<path d="M84.7036 33.2952C88.5384 32.0099 95.194 35.0684 97.3938 35.1158C99.5937 35.1633 101.384 34.9047 103.993 35.2584C106.603 35.6121 107.729 35.815 107.729 35.815L106.042 36.7898C106.042 36.7898 104.507 36.2808 102.255 35.8752C100.003 35.4696 98.2651 36.0866 96.1687 36.7549C90.3318 38.6159 87.1483 45.3687 80.0188 46.3994C77.1546 46.8135 65.5818 40.0797 65.5818 40.0797C65.5818 40.0797 72.3884 41.6544 75.5071 40.4726C78.6258 39.2908 80.8689 34.5805 84.7036 33.2952Z" fill="black"></path>
<path d="M84.5917 36.7081C87.0899 35.3496 91.259 36.3196 91.259 36.3196L87.3964 39.6338L88.7607 37.6781C88.7607 37.6781 87.172 37.7328 85.9228 38.412C84.6737 39.0913 81.2932 42.5479 80.1866 42.7451C79.0799 42.9422 74.5713 41.3477 74.5713 41.3477C74.5713 41.3477 76.9818 42.06 78.8555 41.0412C80.7291 40.0223 82.0934 38.0666 84.5917 36.7081Z" fill="white"></path>
</svg>