<svg height="100%" viewBox="0 0 200 200" width="100%" xmlns="http://www.w3.org/2000/svg">
<path d="M140.827 53.7543C133.312 51.6062 127.943 48.9229 121.502 48.386C115.06 47.8492 107.544 48.3863 99.492 55.9025C91.4397 63.4186 83.3874 84.3538 79.0929 90.7951C74.7983 97.2364 69.4301 102.605 59.2306 109.047C49.0311 115.489 35.0737 116.562 37.221 124.614C40.4589 136.757 71.9306 154.467 84.4611 148.771C90.3661 146.087 94.1238 141.793 94.1238 141.793C94.1238 141.793 102.713 150.918 106.471 148.771C110.228 146.624 109.692 134.814 107.544 129.446L114.523 123.004C114.523 123.004 126.333 131.593 129.017 129.446C131.701 127.299 131.164 124.078 129.017 118.709C126.87 113.341 121.502 106.899 121.502 106.899C127.927 90.8358 142.596 93.7109 151.027 81.6689C154.784 76.3012 157.468 63.9544 156.932 59.6593C156.395 55.3643 148.343 55.9025 140.827 53.7543Z" fill="black"></path>
<path d="M137.029 69.8702C137.399 73.0486 132.794 71.0367 129.194 73.0337C125.594 75.0308 124.329 82.1412 122.112 78.1452C119.896 74.1492 122.264 69.0283 125.864 67.0312C129.464 65.0342 136.659 66.6918 137.029 69.8702Z" fill="white"></path>
<path d="M49.7216 124.782C50.4185 126.683 52.4466 124.234 55.0496 124.336C57.6526 124.438 60.3939 128.095 60.5075 125.205C60.621 122.316 57.8231 120.098 55.2201 119.996C52.6171 119.893 49.0247 122.88 49.7216 124.782Z" fill="white"></path>
</svg>