<svg height="100%" viewbox="0 0 200 200" width="100%" xmlns="http://www.w3.org/2000/svg">
<path d="M161 51.4999C162 57.5001 158.006 72.8241 153.506 77.824C149.006 82.8239 144.506 85.9907 139.506 89.3239C134.506 92.657 131.506 110.324 131.506 110.324C131.506 110.324 137.006 112.324 139.506 118.324C142.006 124.324 143.5 128.5 142.006 130.324C140.512 132.148 135.006 132.324 131.506 130.324C128.006 128.324 125.006 125.824 125.006 125.824L108.006 144.324C108.006 144.324 110.506 148.824 112.006 152.824C113.506 156.824 113.5 163.207 112.006 164C110.511 164.793 103.006 163.824 100.006 162.324C97.0057 160.824 93.5058 151.824 93.5058 151.824L71 147.5C71 147.5 66.5 153.824 58.5 159.824C50.5 165.824 35 151 35 151C35 151 41 150.5 47 146C53 141.5 53.7007 138.896 53.7007 138.896C53.7007 138.896 38.5058 141.324 33.0058 136.324C27.9437 131.722 25.7618 115.43 25.1345 113.489C25.0279 113.424 24.9831 113.369 25.0058 113.324C25.0376 113.26 25.0802 113.321 25.1345 113.489C26.907 114.556 45.7588 118.094 55.5058 119.824C67 106 75.5 106.5 84 93.9999C92.5 81.4999 92 75.824 92 75.824C92 75.824 90 78.324 87.5 79.324C85 80.324 81 77.824 81 77.824C81 77.824 83.5 77.6482 86 75.824C88.5 73.9998 89.5 69.824 89.5 69.824C89.5 69.824 87 72.824 83.5 73.824C80 74.824 75.5057 74.6482 75.5057 74.6482C85.5057 52.1482 100.754 48.0002 112.006 45.5001C123.258 43 134.506 45.8244 142.006 47.3241C149.506 48.8238 160 45.4998 161 51.4999Z" fill="black"></path>
<path d="M145.462 58.5109C145.807 61.4713 141.518 59.5974 138.165 61.4575C134.812 63.3175 133.634 69.9403 131.569 66.2183C129.504 62.4964 131.71 57.7267 135.063 55.8667C138.416 54.0066 145.118 55.5505 145.462 58.5109Z" fill="white"></path>
<path d="M83.6751 69.4102C84.5774 69.8629 84.478 68.2807 85.4586 67.4291C86.4392 66.5775 88.6836 66.9699 87.7383 65.8814C86.7929 64.7929 85.0192 64.9424 84.0386 65.794C83.058 66.6456 82.7728 68.9574 83.6751 69.4102Z" fill="white"></path>
<path d="M51.8682 131.511C50.4945 133.286 49.1737 130.018 46.3899 129.253C43.6062 128.488 39.4841 131.431 40.3334 128.341C41.1826 125.251 44.8818 123.847 47.6656 124.612C50.4494 125.377 53.242 129.737 51.8682 131.511Z" fill="white"></path>
</svg>