<svg height="100%" viewbox="0 0 200 200" width="100%" xmlns="http://www.w3.org/2000/svg">
<path d="M173.609 45.3636C173.609 51.5472 171.032 62.8856 164.848 67.5237C158.664 72.1617 144.43 77.8294 139.597 80.9219C134.764 84.0144 132.025 89.2492 132.025 89.2492C132.025 89.2492 139.65 96.3068 140.68 98.7042C141.711 101.102 143.523 108.394 140.68 111.109C135.692 115.874 130.053 107.126 130.053 107.126C130.053 107.126 126.02 111.644 126.536 119.313C127.051 126.981 133.661 133.742 133.661 133.742C133.661 133.742 141.391 135.299 143.968 136.921C146.544 138.542 150.417 147.213 150.417 147.213C150.417 147.213 145.008 150.395 140.68 151.547C136.353 152.699 128.239 151.547 128.239 151.547C128.239 151.547 122.567 159.845 110.071 163.426C97.5744 167.006 89.2121 157.049 81.4853 159.111C73.7584 161.172 72.3164 165.336 66.923 167.74C61.5295 170.145 46.9672 159.111 46.9672 159.111C46.9672 159.111 55.9248 158.045 62.0689 154.796C68.0343 151.642 71.6084 147.464 71.8112 147.224C71.5805 147.492 66.8533 152.639 43.7312 152.639C19.9904 152.639 20 132.683 20 132.683C20 132.683 37.259 136.921 45.8885 135.38C54.518 133.839 65.9568 128.216 68.2129 114.837C70.4691 101.457 66.1516 105.35 60.9982 112.584C55.8448 119.818 48.1147 122.75 48.1147 122.75C54.7937 117.026 57.9062 111.229 58.9368 93.7079C59.9675 76.1864 68.3241 73.8917 74.6642 72.1616C79.9622 70.7159 87.5188 65.6651 88.4771 65.0158C87.9188 65.3658 84.9167 66.8941 76.2103 65.9777C66.4188 64.947 60.7501 61.3395 60.7501 61.3395C60.7501 61.3395 67.5039 61.8549 80.8483 56.7015C94.1927 51.5481 96.2988 37.6339 118.983 32.4806C141.668 27.3272 151.45 37.1185 158.664 39.1799C165.879 41.2413 173.609 39.1799 173.609 45.3636Z" fill="black"></path>
<path d="M155.018 48.4669C155.373 51.5181 150.953 49.5867 147.497 51.5039C144.041 53.421 142.827 60.2469 140.699 56.4108C138.57 52.5747 140.844 47.6587 144.3 45.7416C147.756 43.8244 154.663 45.4157 155.018 48.4669Z" fill="white"></path>
<path d="M121.093 146.553C121.348 148.746 118.172 147.358 115.689 148.735C113.206 150.113 112.333 155.017 110.804 152.261C109.275 149.505 110.909 145.973 113.392 144.595C115.875 143.218 120.837 144.361 121.093 146.553Z" fill="white"></path>
<path d="M61.7272 140.735C61.9971 143.054 58.6369 141.586 56.0099 143.044C53.383 144.501 52.4598 149.69 50.8421 146.774C49.2243 143.858 50.953 140.121 53.5799 138.663C56.2069 137.206 61.4572 138.416 61.7272 140.735Z" fill="white"></path>
<path d="M85.214 59.8059C85.3509 60.9828 83.6459 60.2378 82.3129 60.9773C80.9799 61.7168 80.5114 64.3498 79.6905 62.8701C78.8696 61.3904 79.7468 59.4941 81.0798 58.7546C82.4128 58.0152 85.077 58.629 85.214 59.8059Z" fill="white"></path>
</svg>