<svg height="100%" viewBox="0 0 200 200" width="100%" xmlns="http://www.w3.org/2000/svg">
<path d="M141.051 116.002C138.723 115.483 132.649 116.911 132.14 117.949L128.32 125.738L132.14 131.58L148.053 125.738C148.053 125.738 143.38 116.521 141.051 116.002Z" fill="#3E3E60"></path>
<path d="M152.208 80.6902C150.65 79.1323 139.122 82.3522 138.706 82.7676L135.59 87.9605L137.668 96.7884C137.668 96.7884 147.015 93.672 149.611 91.0755C152.208 88.4791 153.766 82.2481 152.208 80.6902Z" fill="#3E3E60"></path>
<path d="M178.172 56.8036C184.404 52.13 187 40.7047 187 34.4737C187 28.2426 179.211 30.3198 171.941 28.2426C164.671 26.1654 154.814 16.299 131.955 21.4919C109.097 26.6848 102.304 38.1093 88.8578 43.3021C75.4112 48.495 60.2938 51.0913 60.2938 51.0913C60.2938 51.0913 72.1335 57.9614 82 59C91.8665 60.0386 100.798 55.2458 100.798 55.2458C100.798 55.2458 91.5 60.9534 84 63C76.5 65.0466 63.5 64.7596 63.5 64.7596C63.5 64.7596 76.3852 67.1736 73.2727 73.9243C69.9041 81.2306 56.1362 76.3275 54.5784 90.3482C53.0205 104.369 39.6351 101.792 39.6351 101.792C39.6351 101.792 46.7891 103.85 52.5012 101.792C58.2134 99.7341 60.2905 97.425 60.2905 97.425C58.6043 107.956 56.1156 114.038 49.3855 119.806C49.3855 119.806 57.1748 116.851 62.3677 109.562C67.5606 102.272 71.9112 98.3502 69.6377 111.832C67.3643 125.314 56.3538 135.172 42.638 136.255C23.8759 137.736 12 124.768 12 124.768C12 124.768 20.7924 154.43 44.7151 154.43C68.6379 154.43 81.0653 145.511 81.0653 145.511C81.0653 145.511 70.1602 158.066 56.6588 162.738C43.1573 167.41 25.0822 170.621 25.0822 170.621C25.0822 170.621 51.9852 186.013 68.0831 178.836C84.181 171.66 92 163.805 96 162.738C100 161.671 111.184 164.222 118.973 162.738C126.763 161.255 137.916 149.878 137.916 149.878C137.916 149.878 146.092 151.039 150.453 149.878C154.814 148.718 160.265 145.511 160.265 145.511C160.265 145.511 156.362 136.774 153.766 135.14C151.169 133.506 143.38 131.937 143.38 131.937C143.38 131.937 136.719 125.124 136.2 117.397C135.681 109.67 139.745 105.117 139.745 105.117C146.187 103.356 150.297 103.281 155.323 98.4793C158.188 95.743 158.439 89.5188 157.401 87.103C156.362 84.6872 141.732 87.103 141.732 87.103C141.732 87.103 147.857 73.4207 152.727 70.3045C157.597 67.1884 171.941 61.4772 178.172 56.8036Z" fill="black"></path>
<path d="M168.266 37.6014C168.624 40.676 164.17 38.7298 160.688 40.6616C157.205 42.5934 155.982 49.4716 153.837 45.6062C151.693 41.7407 153.984 36.787 157.466 34.8551C160.949 32.9233 167.909 34.5268 168.266 37.6014Z" fill="white"></path>
<path d="M134.081 136.44C134.338 138.649 131.138 137.251 128.636 138.639C126.134 140.027 125.254 144.969 123.714 142.191C122.173 139.414 123.819 135.855 126.321 134.467C128.823 133.079 133.824 134.231 134.081 136.44Z" fill="white"></path>
<path d="M73.8403 137.6C74.1588 140.337 70.194 138.605 67.0944 140.324C63.9948 142.044 62.9054 148.166 60.9967 144.725C59.0879 141.285 61.1275 136.875 64.2271 135.156C67.3267 133.436 73.5218 134.864 73.8403 137.6Z" fill="white"></path>
<path d="M91.5859 53.5191C90.8684 54.74 89.7794 52.8011 87.9755 52.5458C86.1716 52.2904 83.8278 54.4635 84.1112 52.4611C84.3946 50.4587 86.5973 49.2826 88.4012 49.5379C90.2051 49.7932 92.3033 52.2981 91.5859 53.5191Z" fill="white"></path>
<path d="M67.302 84.9625C67.9971 86.5175 65.3378 86.2307 63.8285 87.8194C62.3192 89.408 62.8116 93.2206 61.0481 91.5452C59.2846 89.8699 59.6702 86.8914 61.1795 85.3027C62.6888 83.7141 66.6069 83.4075 67.302 84.9625Z" fill="white"></path>
</svg>