<svg height="100%" viewBox="0 0 200 200" width="100%" xmlns="http://www.w3.org/2000/svg">
<path d="M100.5 57.4615C84.9412 69.5628 91.5 80.5537 85 91C78.5 101.446 52.6476 115.336 40.5 98.9999C40.5 138 74.5691 163.449 105 148.5C129.635 136.399 123.564 108.155 135 100.5C146.436 92.845 158.953 91.6044 164.572 85.5537C170.19 79.503 176.241 57.4614 164.572 57.4614C152.903 57.4614 116.059 45.3602 100.5 57.4615Z" fill="black"></path>
<path clip-rule="evenodd" d="M122.922 70.54C122.602 70.9521 122.265 71.3627 121.909 71.7692C121.717 71.989 121.519 72.2034 121.317 72.4124C121.315 72.4483 121.314 72.4844 121.314 72.5208C121.314 73.6382 122.22 74.544 123.337 74.544C124.455 74.544 125.36 73.6382 125.36 72.5208C125.36 71.4033 124.455 70.4975 123.337 70.4975C123.195 70.4975 123.056 70.5121 122.922 70.54ZM112.629 78.0503C112.045 78.2948 111.496 78.5056 111 78.6848C111.09 79.0022 111.192 79.3185 111.307 79.6333C112.796 83.6909 116.122 86.542 119.999 87.5914C116.99 86.5899 114.448 84.2769 113.27 81.0677C112.904 80.0721 112.695 79.0574 112.629 78.0503ZM125.421 66.7486C129.019 67.438 132.176 69.943 133.53 73.6325C135.547 79.1291 132.812 85.2098 127.409 87.3684C127.524 87.3301 127.638 87.29 127.752 87.2482C134.395 84.8101 137.805 77.4477 135.367 70.8039C133.945 66.9308 130.85 64.1569 127.2 63C126.764 64.0965 126.181 65.3824 125.421 66.7486ZM114.663 77.1196C115.995 76.4549 117.405 75.6355 118.75 74.6421C120.222 75.0048 121.313 76.3332 121.313 77.9163C121.313 79.7787 119.803 81.2885 117.941 81.2885C116.078 81.2885 114.568 79.7787 114.568 77.9163C114.568 77.6419 114.601 77.3751 114.663 77.1196Z" fill="white" fill-rule="evenodd"></path>
</svg>