<svg height="100%" viewBox="0 0 200 200" width="100%" xmlns="http://www.w3.org/2000/svg">
<path d="M137.955 83.7917C141.856 89.644 152.26 111.101 152.26 111.101L156.051 111.101L150.849 117.629C150.849 117.629 124.3 115.678 123.109 113.799C121.919 111.92 119.098 107.2 117.148 106.55C115.197 105.899 107.395 114.352 107.395 118.904C107.395 123.455 107.395 134.534 105.444 137.759C103.493 140.985 74.2335 140.361 70.9733 139.034C67.713 137.707 57.9781 130.608 55.3772 127.331C52.7764 124.053 46.9244 96.1462 46.9244 96.1462C46.9244 96.1462 58.6283 111.1 65.1305 109.149C78.0275 105.28 78.265 75.1612 100.892 70.1371C105.486 69.1172 134.053 77.9394 137.955 83.7917Z" fill="black"></path>
<path d="M136.704 106.968L141.813 113.414L135.981 110.69L131.037 110.411L135.314 108.857L132.593 107.078L124.538 105.854L127.816 105.355L125.483 102.743L129.038 104.911L134.426 106.412L131.65 102.578L136.704 106.968Z" fill="white"></path>
</svg>