<svg height="100%" viewBox="0 0 200 200" width="100%" xmlns="http://www.w3.org/2000/svg">
<path d="M103.5 53.0004C87.9412 65.1017 92.5 91.5 84 100C75.5 108.5 54.6476 124.797 42.5 108.46C51.7495 140.017 83.5691 158.949 114 144.001C138.635 131.899 127 108 136 102C145 96 156.953 92.605 162.572 86.5543C168.19 80.5037 173.5 66.001 162.572 58.4621C151.643 50.9231 119.059 40.8991 103.5 53.0004Z" fill="black"></path>
<path d="M136.287 64.1029C140.695 68.6189 140.607 75.853 136.091 80.2607C131.575 84.6684 124.341 84.5805 119.933 80.0645C115.525 75.5485 114.033 66.8628 123.645 65.4643C133.257 64.0658 131.879 59.5869 136.287 64.1029Z" fill="white"></path>
<circle cx="128.268" cy="76.4917" fill="black" r="8.2724" transform="rotate(-44.3043 128.268 76.4917)"></circle>
</svg>