<svg height="100%" viewBox="0 0 200 200" width="100%" xmlns="http://www.w3.org/2000/svg">
<path d="M129.5 33C101 36 76.5 60.5 76.5 60.5L58 50.5L56.5 31L22 85.5L43 73.5L65.5 80.5C65.5 80.5 55.5 114.5 67 130C85.7241 155.237 84 139 94.5 155.5C105 172 90 187 90 187C90 187 105.5 177.5 101.5 165.5C97.5 153.5 116 155.5 106.5 149.5C97 143.5 95.5 125.5 95.5 125.5C95.5 125.5 102.5 134.5 105.5 132L99.5 118.5L101 116.5L110 128C113.5 123.5 104.5 111 104.5 111L110 97L134.5 99L116.5 82C121.111 60.7873 147.5 56.5 144 71.5C140.5 86.5 155 97.5 165 100.5C175 103.5 179.5 75 178 63C176.5 51 158 30 129.5 33Z" fill="black"></path>
<path d="M58.9928 63.7837C59.4314 59.5879 56.3856 55.831 52.1898 55.3924C49.796 55.1422 49.6214 55.5927 49.1062 56.922C48.7184 57.9227 48.1376 59.4213 46.2718 61.494C41.9274 66.32 46.4058 70.1482 50.6016 70.5868C51.1347 70.6425 51.6608 70.642 52.1739 70.59C49.4586 69.9962 47.5661 67.4427 47.8618 64.6135C48.1793 61.5757 50.8993 59.3706 53.937 59.6881C56.5813 59.9645 58.5947 62.0614 58.8624 64.6036C58.92 64.3359 58.9637 64.0623 58.9928 63.7837Z" fill="white"></path>
<path d="M165.274 83.347C162.76 87.9522 156.989 89.6477 152.384 87.134C147.779 84.6203 146.083 78.8492 148.597 74.2439C151.11 69.6387 157.65 66.3333 161.107 73.6315C164.564 80.9297 167.788 78.7417 165.274 83.347Z" fill="white"></path>
<circle cx="153.468" cy="79.9972" fill="black" r="6.87781" transform="rotate(28.6275 153.468 79.9972)"></circle>
</svg>