<svg height="100%" viewBox="0 0 200 200" width="100%" xmlns="http://www.w3.org/2000/svg">
<path d="M122.634 89C122.049 89.9228 131.45 54.2905 131.45 54.2905C131.45 54.2905 124.625 37.0773 123.605 28.6503C123.605 28.6503 137.192 23.0383 147.151 28.5323C157.111 34.0262 160.83 42.645 160.83 42.645L138.081 56.1736C134.313 63.4747 123.218 88.0772 122.634 89Z" fill="#3E3E60"></path>
<path d="M142.883 42.087C146.529 41.2845 148.86 37.5547 148.09 33.7562C147.651 31.5891 147.224 31.5636 145.967 31.4884C145.021 31.4318 143.603 31.347 141.354 30.2993C136.118 27.8597 134.115 32.8641 134.886 36.6626C134.984 37.1448 135.127 37.605 135.31 38.0393C135.071 35.4935 136.704 33.1139 139.163 32.5727C141.803 31.9916 144.395 33.7499 144.953 36.5C145.439 38.8952 144.221 41.2528 142.154 42.2051C142.396 42.1798 142.639 42.1406 142.883 42.087Z" fill="white"></path>
<path d="M156.711 139.5L52.6331 78.4995L35.3542 93.9995L103.435 115.5L156.711 139.5Z" fill="#3E3E60"></path>
<path d="M108.714 31.9995C69.3568 31.9991 52.5579 77.5 52.5579 77.5L48.018 74.5378L50.4548 57.5377C50.4548 57.5377 28.8561 55.5377 20.6966 71.5377C12.5371 87.5377 25.4963 105.538 25.4963 105.538L34.3943 96.6531L44.4736 98.4993C44.4736 98.4993 50.4917 116.385 59.8327 129.5C75.0415 150.854 75.9671 137.661 75.9671 157.999C75.9671 177.747 60.7562 182.715 59.8727 182.987C61.1192 182.61 91.0369 173.442 87.8555 163.499C84.6065 153.345 105.947 157.076 98.2303 151.999C60.0265 126.864 102.071 129.359 75.9671 121.192L80.4344 109.345L66.5523 95.3839L85.7141 96.6531C92.9068 76.7389 111.3 71.9932 125.513 74.5378L129.353 69.5V76C135.609 78.6064 144.15 84.0823 143.272 87.9995C140.429 100.692 142.349 118.653 150.472 121.192C158.594 123.73 174.47 102 176.87 84.5C179.27 67 148.072 31.9999 108.714 31.9995Z" fill="black"></path>
<path d="M41.6133 80.4162C42.1194 75.3726 38.6048 70.8566 33.7632 70.3294C31.0009 70.0286 30.7995 70.5701 30.205 72.168C29.7575 73.3709 29.0873 75.1724 26.9343 77.6638C21.9214 83.465 27.0889 88.0667 31.9305 88.5939C32.5452 88.6609 33.1518 88.6603 33.7434 88.5979C30.6101 87.8842 28.4263 84.8146 28.7676 81.4137C29.134 77.7622 32.2726 75.1115 35.7778 75.4932C38.8307 75.8256 41.1548 78.3486 41.4618 81.4067C41.5287 81.0832 41.5795 80.7528 41.6133 80.4162Z" fill="white"></path>
<path d="M147.12 103.23C150.025 104.882 153.666 103.768 155.251 100.742C156.156 99.0153 155.882 98.7418 155.076 97.9347C154.469 97.3272 153.559 96.4173 152.623 94.3576C150.442 89.5619 146.317 91.7339 144.731 94.7601C144.53 95.1443 144.372 95.5409 144.254 95.9439C145.505 94.083 147.925 93.4597 149.884 94.5736C151.987 95.7694 152.762 98.515 151.614 100.706C150.614 102.614 148.486 103.472 146.563 102.872C146.741 103 146.926 103.12 147.12 103.23Z" fill="white"></path>
<path d="M100.075 89.4995L95.2753 74.9995L86.1558 77.4995L89.5156 87.4995L98.1551 94.4995L107.275 95.9995L111.114 101.5V95.9995L116.394 99.4995L112.074 89.4995H100.075Z" fill="black"></path>
<path d="M83.6494 99.9995L83.6494 87.2074L74.2219 87.4311L76.5471 101L78.947 104L90.6351 110.537L90.6351 116.149L94.3697 111.467L98.6258 117.5L97.6658 106.5L83.6494 99.9995Z" fill="black"></path>
</svg>