<svg height="100%" viewBox="0 0 200 200" width="100%" xmlns="http://www.w3.org/2000/svg">
<path d="M86.2371 87.8605C86.6215 88.7117 45.727 36.8098 39.796 31.8912C33.865 26.9725 28.536 34.0838 22.0383 31.0406C22.0383 31.0406 21.7154 26.3884 27.1823 23.1874C32.6493 19.9865 29.8292 12.8406 29.8292 12.8406C29.8292 12.8406 37.2302 17.4546 40.4728 13.1507C43.7155 8.84681 49.5287 9.66064 49.5287 9.66064C48.9299 18.8224 40.1277 22.6529 43.847 28.1921C47.5663 33.7313 85.8528 87.0094 86.2371 87.8605Z" fill="#3E3E60"></path>
<path d="M32.0972 21.1073C31.1181 23.5985 32.3439 26.4116 34.835 27.3907C36.2563 27.9493 36.4393 27.7034 36.9796 26.978C37.3862 26.4318 37.9953 25.6139 39.4873 24.6628C42.9613 22.4481 40.8717 19.3486 38.3806 18.3695C38.0644 18.2452 37.743 18.1565 37.4208 18.1013C38.9802 18.9246 39.7045 20.8064 39.0444 22.486C38.3355 24.2896 36.2988 25.177 34.4953 24.4681C32.9247 23.8509 32.0488 22.2266 32.3169 20.6262C32.2359 20.7808 32.1625 20.9412 32.0972 21.1073Z" fill="white"></path>
<path d="M76.1759 84.8337C76.687 85.3831 32.2284 56.3649 26.4502 54.1426C20.672 51.9202 18.4402 58.7024 12.7119 58.0534C12.7119 58.0534 11.2718 54.5943 14.6124 50.7539C17.953 46.9134 13.9716 42.1968 13.9716 42.1968C13.9716 42.1968 20.7908 43.8099 22.1548 39.7007C23.5188 35.5914 28.1536 34.7188 28.1536 34.7188C30.0496 41.8479 24.3313 47.0238 28.5849 50.2864C32.8385 53.5489 75.6648 84.2844 76.1759 84.8337Z" fill="#3E3E60"></path>
<path d="M17.8461 47.4387C17.4545 49.5533 18.8513 51.585 20.9659 51.9766C22.1724 52.2001 22.2792 51.9782 22.5945 51.3233C22.8318 50.8304 23.1872 50.0921 24.2188 49.1139C26.6206 46.836 24.4987 44.7105 22.3841 44.3189C22.1156 44.2692 21.8486 44.2483 21.586 44.254C22.9418 44.6651 23.8007 46.0388 23.5367 47.4645C23.2532 48.9955 21.7823 50.0068 20.2513 49.7232C18.9181 49.4763 17.979 48.329 17.9458 47.0256C17.9056 47.1599 17.8722 47.2977 17.8461 47.4387Z" fill="white"></path>
<path d="M85.2363 79.9944C85.2272 80.7447 73.069 29.0649 70.42 23.4694C67.7709 17.874 61.4759 21.2432 57.7774 16.8211C57.7774 16.8211 59.1217 13.3236 64.1896 12.8487C69.2574 12.3739 69.6299 6.21276 69.6299 6.21276C69.6299 6.21276 73.4529 12.0855 77.2755 10.0523C81.0981 8.01905 85.055 10.5854 85.055 10.5854C81.5084 17.0537 73.798 16.8547 74.6258 22.1511C75.4536 27.4476 85.2454 79.2441 85.2363 79.9944Z" fill="#3E3E60"></path>
<path d="M68.0283 13.6002C66.8169 15.3771 67.2753 17.7996 69.0522 19.0111C70.066 19.7022 70.2533 19.5423 70.8059 19.0703C71.2219 18.715 71.845 18.1829 73.1835 17.7039C76.3002 16.5887 75.2162 13.7877 73.4392 12.5763C73.2137 12.4225 72.9777 12.2956 72.7352 12.195C73.81 13.1181 74.0417 14.7215 73.2249 15.9196C72.3478 17.2061 70.5939 17.538 69.3074 16.6609C68.1871 15.8971 67.7907 14.4684 68.2863 13.2624C68.1953 13.3691 68.1091 13.4817 68.0283 13.6002Z" fill="white"></path>
<path d="M105.347 84.1597C104.937 84.5496 107.917 81.3895 109.458 79.7608L121.705 90.0692L125.017 97.6541L120.456 100.041L122.568 95.5924L118.206 89.982L112.171 91.332L115.269 87.408L112.382 82.8346C110.208 83.1139 105.757 83.7698 105.347 84.1597Z" fill="black"></path>
<path clip-rule="evenodd" d="M131.997 101.69C127.74 96.7753 129 81.3228 132.042 71.1527C138.529 49.4699 140.423 31.6613 129.212 15.9387C129.212 15.9387 141.174 38.0725 130.438 43.5361C121.303 48.1856 114.295 23.5756 112.41 16.1383L111.907 14.0603C111.907 14.0603 112.08 14.836 112.41 16.1383L117.647 37.7658C117.647 37.7658 107.451 20.9866 98.2074 17.6483C88.9641 14.31 66.664 22.2675 48.2775 34.2498C29.8909 46.2321 12.5448 68.0803 11.987 79.0859C11.4292 90.0914 50.001 113.736 50.001 113.736L19.9049 98.8177C19.9049 98.8177 -7.59159 125.166 12.05 129.988C31.6917 134.81 39.9369 192.935 39.9369 192.935C39.9369 192.935 39.2475 133.898 25.3135 112.484C11.3796 91.0705 47.5761 120.309 47.5761 120.309C47.5761 120.309 41.9308 133.956 42.7161 143.978C43.5014 154 48.6898 164.68 48.6898 164.68C48.6898 164.68 38.9027 139.48 48.8887 135.681C57.8507 132.272 53.4115 126.257 52.4069 125.06C54.0766 126.975 72.0014 143.5 61.5014 162C51.0014 180.5 57.0014 192.935 57.0014 192.935L72.5014 177C92.9068 190.611 147.679 198.569 165.001 179.5C173.309 170.355 191.402 147.209 188.684 138.94C187.671 135.86 181.137 130.229 174.102 124.166C162.247 113.949 148.969 102.505 158.286 99.976C167.275 97.5356 173.874 103.277 180.508 109.05C182.795 111.039 185.086 113.033 187.48 114.696C187.48 114.696 173.818 96.3061 183.207 95.8254C192.596 95.3446 202.001 63.0002 176.001 60.1785C153.269 57.7114 154.999 28.8434 155.793 21.627C155.918 20.585 156.001 19.9999 156.001 19.9999C156.001 19.9999 155.907 20.5899 155.793 21.627C154.835 29.6117 151.471 64.4297 165.001 68.5002C180.298 73.1019 173.449 95.8254 173.449 95.8254C173.449 95.8254 169.723 90.9896 156.514 93.6683C143.305 96.347 141.634 101.011 148.052 108.511C165.789 129.239 183.328 156.333 148.052 166C134.794 169.633 118.286 159.287 113.931 152.37C109.575 145.453 112.811 133.181 112.811 133.181L133.457 138.532L113.295 123.64C113.295 123.64 113.634 116.961 98.1901 101.829C84.0667 87.9906 65.0639 84.1397 52.8168 81.6578C51.672 81.4258 50.5862 81.2058 49.5689 80.9907C37.6693 78.4743 58.6883 55.8228 64.9956 55.1859C71.3029 54.549 81.9362 60.5161 87.4131 66.8448C88.6443 68.2674 89.823 69.5597 90.9663 70.8133C94.9094 75.1365 98.4331 78.9999 102.244 86.1636C107.161 95.4046 118.066 99.9664 118.066 99.9664C118.066 99.9664 103.162 87.7317 103.073 79.6973C102.984 71.6628 113.074 60.1785 113.074 60.1785C113.074 60.1785 105.094 74.2926 106.67 77.877C107.756 80.3483 114.291 87.9038 119.015 93.3649C121.142 95.8248 122.903 97.8597 123.632 98.8136C125.979 101.885 136.253 106.604 131.997 101.69ZM80.7976 101.385C84.6003 102.96 93.4242 106.615 101.078 115.063C110.813 125.809 107.001 150 107.001 150C107.001 150 103.828 125.134 90.4189 121.299C77.0104 117.464 78.9336 100.506 78.9336 100.506C79.1004 100.682 79.7632 100.956 80.7976 101.385Z" fill="black" fill-rule="evenodd"></path>
<path d="M128.314 107.468L110.549 116.299L93.9406 100.38L113.349 124.371L127.064 112.945C127.064 112.945 140.74 118.979 137.146 132.787C133.553 146.594 149.497 172.287 149.497 172.287C149.497 172.287 131.05 131.697 156 134C180.95 136.303 128.314 107.468 128.314 107.468Z" fill="#3E3E60"></path>
<path d="M113.734 68.2993C116.938 67.0201 120.686 68.6004 122.106 71.829C123.525 75.0575 122.079 78.7117 118.875 79.9909C115.672 81.2701 110.862 80.1838 111.995 75.0068C113.128 69.8298 110.53 69.5785 113.734 68.2993Z" fill="white"></path>
<path d="M116.769 70.7683C119.088 69.8422 121.802 70.9863 122.83 73.3238C123.857 75.6612 122.81 78.3068 120.491 79.2329C118.171 80.1591 115.458 79.0149 114.43 76.6775C113.402 74.3401 114.449 71.6945 116.769 70.7683Z" fill="black"></path>
<path d="M116.017 58.1496C117.175 56.7415 119.313 56.5189 120.792 57.6524C122.272 58.7859 122.533 60.8463 121.375 62.2544C120.217 63.6625 117.713 64.3841 116.92 61.6983C116.126 59.0125 114.859 59.5577 116.017 58.1496Z" fill="white"></path>
<path d="M118.051 58.5202C118.889 57.5008 120.437 57.3396 121.508 58.1603C122.579 58.981 122.768 60.4727 121.93 61.4921C121.092 62.5116 119.544 62.6727 118.473 61.852C117.401 61.0314 117.213 59.5397 118.051 58.5202Z" fill="black"></path>
<path d="M55.1751 70.4049L48.2022 69.2308L51.625 52.3108L66.6702 50.6853L83.9529 59.6188L82.2914 66.0794L80.454 59.5316L65.0834 54.1468L66.871 62.6941L59.5104 57.0088L51.3384 63.8073L55.1751 70.4049Z" fill="black"></path>
<path d="M156.063 15.0023C156.125 14.7787 155.666 31.1926 156.015 33.0753C156.363 34.9581 158.512 34.4495 159.268 36.0646C159.268 36.0646 158.589 37.0037 157.036 36.7442C155.483 36.4847 155.586 41.4707 155.586 41.4707C155.586 41.4707 154.206 36.2385 152.902 36.5436C151.598 36.8486 150.618 35.7679 150.618 35.7679C152.191 34.115 154.481 34.7853 154.653 33.1363C154.825 31.4872 156.001 15.2259 156.063 15.0023Z" fill="#3E3E60"></path>
<defs></defs>
</svg>