<svg height="100%" viewBox="0 0 200 200" width="100%" xmlns="http://www.w3.org/2000/svg">
<path d="M140.885 59.7095L114.208 50.0505L121.401 67.823L120.006 77.2051L147.724 89.6509L147.103 76.1484L140.885 59.7095Z" fill="black"></path>
<path d="M95.826 126.549L86.0064 126.549L89.1504 141.705L120.506 158.205L78.2176 153.205L59.5605 120.705L62.5064 95.7051L71.5063 79.7047L62.5064 72.2047L39.0063 62.932L73.659 58.5833L89.1504 62.9316L120.506 59.4404L135.006 66.2051L133.006 79.7047L115.006 79.7047L106.097 92.8216L109.801 109.672L95.826 126.549Z" fill="black"></path>
<path d="M135.812 75.3047L139.004 81.8044L135.383 80.5331L137.066 80.0759L135.242 76.3618L132.418 78.9332L133.103 75.8905L129.112 74.4192L129.368 76.6048L126.718 71.7622L135.812 75.3047Z" fill="white"></path>
<path d="M70.3143 63.4825L61.3319 65.3554L65.3155 67.8054L64.5303 65.8815L69.6631 64.8113L69.1458 69.3927L71.7315 66.4677L76.1939 69.1161L73.7806 70.514L80.6754 69.3746L70.3143 63.4825Z" fill="white"></path>
<path d="M118.496 100.705L118.496 94.9731L132.658 104.585L137.657 124.863L128.374 114.98L120.328 110.117L107.006 118.705L101.436 107.547L105.506 93.2051L112.506 106.205L118.496 100.705Z" fill="black"></path>
<path d="M95.9166 95.7162L101.313 91.7708L104.64 104.306L84.0441 116.902L89.5602 100.605L82.9484 99.6408L85.3046 90.4894L94.759 84.3059L92.3054 95.2215L95.9166 95.7162Z" fill="#3E3E60"></path>
</svg>