<svg height="100%" viewBox="0 0 200 200" width="100%" xmlns="http://www.w3.org/2000/svg">
<path d="M150.481 60.5231L127.854 33.6593L128.996 58.828L127.854 67L135.906 80.3695L147.303 99.8675L151.116 83.5506L150.481 60.5231Z" fill="black"></path>
<path d="M89.8196 115.844L72.2112 116.718L76.9641 138L103.795 174L67.6526 146.5L53.5541 110L67.6989 71.0406L57.1784 61.7899L38.7308 66.3383L53.5541 57.5337L32.8457 48.7354L67.6526 47.8782L83.144 52.2266L112.777 44.9202L129.978 50.0203L145.123 60.419L143.317 71.3075L123.705 66.3914L109 66.3914L100.091 82.1166L103.795 98.967L89.8196 115.844Z" fill="black"></path>
<path d="M146.438 81.0046L146.108 89.7245L143.42 85.526L145.195 86.4991L145.383 81.5162L141.499 81.5665L143.656 79.2974L140.727 74.6039L139.865 76.8562L139.861 70.1328L146.438 81.0046Z" fill="white"></path>
<path d="M65.3779 53.2799L55.3918 52.4703L58.8084 56.2654L58.5795 54.0081L64.2858 54.4707L62.3306 59.1097L65.9412 56.8437L69.7981 60.9944L66.8392 61.714L74.4124 62.6478L65.3779 53.2799Z" fill="white"></path>
<path d="M120 92.5L118.832 84.1817L138.004 97.1951L144.773 124.648L132.205 111.268L121.312 104.683L113.544 106.599L95.7352 101.205L98.4998 83.5004L112.5 97.1951L120 92.5Z" fill="black"></path>
<path d="M131.965 100.056L133.447 108.656L129.947 105.105L131.885 105.689L131.039 100.775L127.249 101.629L128.889 98.9622L125.053 94.9765L124.676 97.3584L123.28 90.7814L131.965 100.056Z" fill="white"></path>
<path d="M111.983 134.288L143.405 133.838L117.468 121.304L105.15 118.104L95.7396 109.877L87.7937 93L82.5 102.5L87.7937 112.5L95.7396 119.5L89 124L111.983 134.288Z" fill="#3E3E60"></path>
</svg>