<svg height="100%" viewbox="0 0 200 200" width="100%" xmlns="http://www.w3.org/2000/svg">
<path d="M7.00004 88.1822L25.902 65.4478L41.1455 53.4114L70.3904 47.6518L58.6739 38.2271L56.9987 19.9012L29.6616 11L64.8111 15.7124L92.9734 40.9647L75.2909 62.3875L56.9987 89.4938L60.6572 112.228L50.9013 94.7402L47.2429 99.5494L41.1455 117.037V101.298L47.2429 85.559L53.3403 75.0662L41.1455 79.001L25.902 94.7402L38.0968 76.3778L56.9987 65.4478L67.974 55.3923L36.2676 65.4478L7.00004 88.1822Z" fill="#3E3E60"></path>
<path d="M159.91 49.6093L143.329 16.7598L138.416 42.6936L131.047 52.4909L140.259 66.3223L143.329 98.0192L154.997 73.238L159.91 49.6093Z" fill="black"></path>
<path d="M170.963 129.716L151.926 180.431L156.225 125.106V100.901L165.436 82.459L170.963 129.716Z" fill="#3E3E60"></path>
<path d="M165.437 130.293L151.926 180.431L156.225 125.106L142.101 118.19L132.275 120.495L110.168 98.0193V88.7984L132.275 114.156L144.25 110.698L156.225 100.901L165.437 82.459V130.293Z" fill="black"></path>
<path d="M48.7584 110.698C48.7584 107.24 65.3389 66.8982 65.3389 66.8982L92.3591 38.0828L88.6746 31.1671L112.01 34.625V28.8619L127.977 35.7776L130.433 26.5566L142.715 46.1511L140.259 58.8299L119.993 51.9142L109.554 57.101C109.554 57.101 107.097 67.4745 109.554 76.1192C112.01 84.7638 123.678 96.8663 119.993 103.782C116.309 110.698 100.956 122.224 96.0437 121.071C91.1309 119.919 73.3222 110.698 73.3222 110.698C73.3222 110.698 69.6376 148.734 73.3222 154.497C77.0067 160.26 104.641 170.057 109.554 170.057C114.467 170.057 140.259 147.005 144.557 146.429C148.856 145.852 193.467 175.82 193.467 175.82C193.467 175.82 159.296 155.65 151.926 154.497C144.557 153.344 114.467 175.82 109.554 175.82C104.641 175.82 63.4967 170.057 63.4967 170.057C63.4967 170.057 48.7584 114.155 48.7584 110.698Z" fill="black"></path>
<path d="M93.5871 126.835L103.413 188.5L112.624 126.835L99.1139 81.8828L93.5871 112.427V126.835Z" fill="#3E3E60"></path>
<path d="M93.5876 126.835L103.413 188.5V126.835L99.1144 81.8828L93.5876 112.427V126.835Z" fill="black"></path>
<path d="M149.47 71.509L145.171 79.5773L144.557 74.3905L145.785 76.1195L148.242 71.509L144.557 69.7801L147.628 68.6275L147.014 62.8644L145.171 64.5933L148.242 58.2539L149.47 71.509Z" fill="white"></path>
<path d="M144.92 57.8467L144.155 62.9496L142.548 60.5558L143.72 61.0851L144.157 58.1691L141.459 58.2848L143.094 56.9109L141.351 54.2333L140.615 55.5686L141.024 51.6398L144.92 57.8467Z" fill="white"></path>
<path d="M71.7231 32.2729L62.838 28.8315L66.0011 33.1237L65.7191 31.0627L70.7963 33.0292L69.2247 36.6028L72.3476 35.5818L75.9137 40.3089L73.3147 40.1387L80.0642 43.0317L71.7231 32.2729Z" fill="white"></path>
<path d="M162.448 114.837L158.15 122.905L157.536 117.719L158.764 119.448L161.22 114.837L157.536 113.108L160.606 111.956L159.992 106.192L158.15 107.921L161.22 101.582L162.448 114.837Z" fill="white"></path>
<path d="M96.1638 128.451L100.462 136.52L101.077 131.333L99.8484 133.062L97.392 128.451L101.077 126.722L98.0061 125.57L98.6202 119.807L100.462 121.536L97.392 115.196L96.1638 128.451Z" fill="white"></path>
</svg>