<svg height="100%" viewbox="0 0 200 200" width="100%" xmlns="http://www.w3.org/2000/svg">
<path d="M122.377 155.092L117.969 150.704L125.791 140.802L125.328 145.412C130.65 134.616 128.973 116.221 135.736 109.11C142.5 101.999 149 100.499 149 100.499L158 96.0886L152.15 78.5713L135.736 59.9994C135.736 59.9994 134.98 64.1481 135.736 68.2938L130.904 68.295C127.818 64.784 122.091 62.8989 122.091 62.8989L122.377 70.2744C122.377 70.2744 116.646 73.9621 111.797 77.1889C106.948 80.4157 95.2688 93.7838 95.2688 93.7838L80.9811 96.0886L59.1976 107.152L76.3566 110.379L48.5 133.999H27.5L43 140.802V156.499L52 140.802L73.5336 145.817L80.9811 156.499L94.2041 158.319L101 156.499L94.2041 153.337L99.8933 152.898L109.247 145.817L111.797 150.704L116.646 155.092H122.377Z" fill="black"></path>
<path clip-rule="evenodd" d="M142.945 88.6475L147.392 95.5647H135.04L142.945 94.5765L138.004 93.0943L135.04 85.683L142.945 88.6475ZM139.486 91.8881L138.992 89.6338L136.028 86.6693L141.186 89.0502C140.898 89.207 140.703 89.5122 140.703 89.8631C140.703 90.3739 141.117 90.788 141.628 90.788C142.139 90.788 142.553 90.3739 142.553 89.8631C142.553 89.8544 142.553 89.8458 142.552 89.8371L144.427 93.5865L139.486 91.8881Z" fill="white" fill-rule="evenodd"></path>
<path clip-rule="evenodd" d="M76.8326 99.8733L72.1462 104.282L81.5236 106.622L75.7093 104.374L79.7411 104.185L83.3958 99.1205L76.8326 99.8733ZM78.8443 102.987L79.6465 101.369L82.4587 99.6805L77.6681 100.591C77.8232 100.715 77.9226 100.905 77.9226 101.119C77.9226 101.491 77.6211 101.792 77.2491 101.792C76.9132 101.792 76.6347 101.546 76.5838 101.224L74.7716 103.34L78.8443 102.987Z" fill="white" fill-rule="evenodd"></path>
</svg>