<svg height="100%" viewbox="0 0 200 200" width="100%" xmlns="http://www.w3.org/2000/svg">
<path d="M70.5 49.5H94.5L84 57H62H49L56.5 54H43L22 72L37 54L58 49.5L39.5 41L70.5 49.5Z" fill="#3E3E60"></path>
<path d="M142.94 106.801L149.5 109.5L161 88.5L169 44C169 44 160 56.5 158 58.5C156 60.5 155 64.5 155 64.5L152 61.5L149.5 37C149.5 37 145 46.5 143.5 49C142 51.5 142 54.5 142 54.5L136 49L107.048 41.5L79.5 44L97 49L61.5 56L37.3623 69.1988L15 115.699L37.3623 92L54.5 81L34.5 102L37.3623 153.721L107.048 174L141.293 160.481L162 169L163 158L188.5 143.78L148.461 153.721L118.994 162.469L72.8024 143.78L70 121.5L85 102L115 88.5L129.5 92L142.94 106.801Z" fill="black"></path>
<path d="M86.2093 98.5114L75.5252 99.8718L71.3813 115.843L85.5605 116.939L85.2544 124.091L93.7148 127.32L102.677 128.612L99.3263 123.61L94.4865 122.354L93.8247 114.951L93.9163 104.644L86.2093 98.5114Z" fill="black"></path>
<path d="M109.51 106.905L93.3603 95.4571L102 83.3722L114 91.3711L116.352 100.36L119.773 114.181L122.491 119.669L112.503 116.149L109.51 106.905Z" fill="black"></path>
<path d="M107.5 76L112.5 88.5L103.5 78.5L92 76L73 80.5L89.5 74H97.5L85.5 63L107.5 76Z" fill="#3E3E60"></path>
<path d="M144.309 94.4038L142.2 103.041L133 93.3599L139.662 98.8197L137.144 93.8433L140.745 86L144.309 94.4038Z" fill="white"></path>
<path d="M139.194 94.1062L140.593 92.04L140.708 87.5086L143.169 94.7506L141.543 99.2435L139.194 94.1062Z" fill="black"></path>
<path d="M143.03 95.0713C142.63 95.4518 141.997 95.4356 141.617 95.0353C141.236 94.635 141.252 94.002 141.653 93.6215C142.053 93.2411 142.686 93.2572 143.066 93.6576C143.447 94.0579 143.431 94.6909 143.03 95.0713Z" fill="white"></path>
<path d="M40.1505 72.495L35.8801 83.5699L53.3424 79.9699L41.8785 80.8769L48.4315 77.3414L50.4624 66L40.1505 72.495Z" fill="white"></path>
<path d="M45.9842 76.067L46.0257 72.7361L49.3527 67.6811L41.1363 73.7441L39.4943 79.9081L45.9842 76.067Z" fill="black"></path>
<path d="M40.9699 74.3242C41.1188 75.0464 41.8249 75.5111 42.547 75.3622C43.2692 75.2134 43.7339 74.5073 43.585 73.7851C43.4361 73.063 42.73 72.5983 42.0079 72.7471C41.2857 72.896 40.821 73.6021 40.9699 74.3242Z" fill="white"></path>
<path d="M113.094 95.4325L114.098 104.267L102.121 98.3595L110.259 101.182L106.177 97.3816L106.846 88.7773L113.094 95.4325Z" fill="white"></path>
<path d="M108.191 96.9203L108.79 94.498L107.333 90.2057L112.144 96.152L112.17 100.93L108.191 96.9203Z" fill="black"></path>
<path d="M112.212 96.5029C111.968 96.9982 111.368 97.2017 110.873 96.9574C110.377 96.7131 110.174 96.1136 110.418 95.6182C110.662 95.1229 111.262 94.9194 111.757 95.1637C112.253 95.408 112.456 96.0075 112.212 96.5029Z" fill="white"></path>
<path d="M155.343 153.313L147.543 157.581L159.272 163.969L152.277 158.942L157.734 160.09L164.382 154.586L155.343 153.313Z" fill="white"></path>
<path d="M156.951 158.178L158.586 156.293L162.934 155.011L155.302 154.504L151.381 157.235L156.951 158.178Z" fill="black"></path>
<path d="M155.012 154.71C154.748 155.195 154.927 155.802 155.412 156.066C155.897 156.33 156.504 156.151 156.768 155.666C157.032 155.181 156.853 154.574 156.368 154.31C155.883 154.046 155.276 154.225 155.012 154.71Z" fill="white"></path>
</svg>