<svg height="100%" viewbox="0 0 200 200" width="100%" xmlns="http://www.w3.org/2000/svg">
<path d="M22.6384 42.1891L60.7661 30.5122L87.2197 26.298L106.693 30.5122L124.742 37.3687L93.0274 52.3852L60.766 60.2191L41.7025 64.8482L51.7383 57.2947L31.9415 62.1018L6.92131 98.8767L23.143 64.2383L48.7474 46.8579L62.5214 46.8579L90.0695 34.2056L66.3211 34.2056L51.7383 37.3687L22.6384 42.1891Z" fill="#3E3E60"></path>
<path d="M146.779 118.279L153.414 119.581L164.144 97.5481L167.887 46.4522C167.887 46.4522 162.072 61.3551 160.623 63.8658C159.173 66.3764 159.057 70.7217 159.057 70.7217L155.664 68.3078L150.583 40.0008L145.5 53.5008L130.294 37.2539L111.57 27.3523L121.549 37.2539L94.6485 37.2539L69.592 46.0364L86.8469 47.243L55.3245 62.4524L28.7992 76.3777L13.1252 132.258L28.7992 102.212L43.5231 94.8288L28.7992 118.279L30.6617 159.851L91.0199 185.506L121.549 178.125L136.617 164.946L150.583 152.086L171.528 156.195L170.223 144.64L191 124.248L155.863 143.509L125.736 161.783L99.0943 170.745L61.5 156.195L61.5 118.279L81.0456 102.212L111.57 83.8716L125.736 84.2092L146.779 118.279Z" fill="black"></path>
<path d="M97.5572 110.615L95.4999 88.4993L69.5525 94.4338L82.5155 112.239L76.3833 116.629L74.4999 124.501L75.4999 129.001L72.9999 132.735L77.9999 130.001L78.9999 126.966L80.4999 130.001L77.9999 134.001L82.6322 132.735L84.8716 126.966L83.1358 122.493L88.9209 117.207L97.5572 110.615Z" fill="black"></path>
<path d="M149.366 106.272L147.135 113.896L140.269 104.574L145.335 109.93L143.597 105.287L146.988 98.4776L149.366 106.272Z" fill="white"></path>
<path d="M145.241 105.662L146.499 103.899L146.867 99.8326L148.422 106.509L146.833 110.439L145.241 105.662Z" fill="black"></path>
<path d="M148.331 106.87C147.984 107.186 147.472 107.129 147.188 106.743C146.904 106.358 146.956 105.79 147.303 105.474C147.65 105.159 148.162 105.216 148.446 105.602C148.73 105.987 148.679 106.555 148.331 106.87Z" fill="white"></path>
<path d="M142.885 99.2098L142.766 103.149L138.379 99.7818L141.429 101.547L140.038 99.616L140.806 95.8863L142.885 99.2098Z" fill="white"></path>
<path d="M140.861 99.5453L141.239 98.522L140.915 96.5452L142.468 99.4647L142.199 101.562L140.861 99.5453Z" fill="black"></path>
<path d="M142.407 99.6237C142.281 99.8251 142.032 99.8755 141.851 99.7362C141.67 99.597 141.624 99.3209 141.75 99.1195C141.875 98.9182 142.124 98.8678 142.305 99.007C142.487 99.1463 142.532 99.4224 142.407 99.6237Z" fill="white"></path>
<path d="M33.6472 81.1721L31.9327 93.5415L47.4066 85.8986L36.9525 89.4161L42.3157 84.2979L41.8978 72.1587L33.6472 81.1721Z" fill="white"></path>
<path d="M39.7859 83.5361L39.1481 80.096L41.2092 74.1397L34.8154 82.236L34.5431 88.9548L39.7859 83.5361Z" fill="black"></path>
<path d="M34.8384 82.7512C35.1232 83.4614 35.8728 83.781 36.5127 83.4649C37.1526 83.1488 37.4405 82.3168 37.1557 81.6066C36.871 80.8963 36.1214 80.5768 35.4815 80.8929C34.8416 81.2089 34.5537 82.0409 34.8384 82.7512Z" fill="white"></path>
<path d="M117.5 106L101.002 86.892L110.021 74.8456L120.838 84.176L122.447 93.8089L124.734 108.604L125.987 117.104L120.987 118.104L122.722 115.604L122.722 112.104L120.487 115.604L116.487 117.104L118.487 114.104L118.487 112.104L115.987 113.604L113.5 111.604L115.987 111.604L117.987 108.604L117.5 106Z" fill="black"></path>
<path d="M119.7 88.3769L120.042 97.7433L109.102 90.6144L116.617 94.2055L113.012 89.8968L114.24 80.9L119.7 88.3769Z" fill="white"></path>
<path d="M114.952 89.5669L115.687 87.0656L114.603 82.4404L118.75 89.0617L118.445 94.0881L114.952 89.5669Z" fill="black"></path>
<path d="M118.762 89.5183C118.496 90.0205 117.914 90.1886 117.461 89.8938C117.009 89.5989 116.858 88.9529 117.123 88.4507C117.389 87.9486 117.971 87.7805 118.423 88.0753C118.876 88.3701 119.027 89.0162 118.762 89.5183Z" fill="white"></path>
<path d="M162.165 141.537L155.794 147.691L167.975 151.627L160.463 148.026L165.761 147.978L170.812 140.811L162.165 141.537Z" fill="white"></path>
<path d="M164.646 146.183L165.78 143.873L169.555 141.573L162.369 142.771L159.286 146.467L164.646 146.183Z" fill="black"></path>
<path d="M161.953 143.006C161.807 143.565 162.096 144.15 162.6 144.313C163.104 144.476 163.631 144.154 163.777 143.595C163.924 143.036 163.635 142.451 163.131 142.288C162.627 142.126 162.1 142.447 161.953 143.006Z" fill="white"></path>
<path d="M114.169 68.6151L118.044 82.1426L111.465 72.6763L102.543 70.8414L96.4667 75.0459L83.9674 91.6739L97.0783 69.0441L81.1728 70.7051L97.2538 65.1335L104.833 65.7461L94.2231 53.2599L114.169 68.6151Z" fill="#3E3E60"></path>
</svg>