<svg height="100%" viewBox="0 0 200 200" width="100%" xmlns="http://www.w3.org/2000/svg">
<path d="M143 69.0123C143 55.1407 133.238 59.2506 121.934 57.1959C110.63 55.1412 98.8122 58.7372 91.6188 66.4445C84.4254 74.1517 85.453 90.5929 81.3425 102.411C77.232 114.229 50 114.229 50 123.991C50 133.754 75.6906 149.168 102.923 141.975C130.155 134.782 121.42 111.656 125.53 99.3265C129.641 86.9966 143 82.884 143 69.0123Z" fill="black"></path>
<path d="M125.574 75.089C125.95 78.3194 121.27 76.2746 117.611 78.3043C113.953 80.334 112.667 87.5606 110.414 83.4993C108.161 79.438 110.568 74.2334 114.227 72.2037C117.885 70.174 125.198 71.8587 125.574 75.089Z" fill="white"></path>
</svg>