<svg height="100%" viewBox="0 0 200 200" width="100%" xmlns="http://www.w3.org/2000/svg">
<path d="M110.879 84.959L106.348 70.3057L96.7722 72.4987L103.5 77.5L108.719 89.8921L118.166 91.697L121.987 97.3228L122.164 91.8257L127.548 95.5008L124.5 87.5L110.879 84.959Z" fill="black"></path>
<path d="M108.845 135C108.453 136.2 114.936 47.1665 113.5 36.8564C112.064 26.5464 100.269 28.7863 96.559 19.8311C96.559 19.8311 100.475 14.8956 108.845 16.6825C117.215 18.4693 120.911 8.77134 120.911 8.77134C120.911 8.77134 124.091 20.1165 131.247 18.7768C138.403 17.437 143.461 23.5446 143.461 23.5446C134.518 32.1392 122.247 27.9422 120.911 36.8564C119.576 45.7707 109.237 133.801 108.845 135Z" fill="#3E3E60"></path>
<path d="M121.613 29.2974C124.828 27.6418 126.092 23.6936 124.437 20.4787C123.492 18.6446 123.087 18.7309 121.892 18.9856C120.992 19.1773 119.645 19.4645 117.282 19.0997C111.782 18.2502 111.139 23.2592 112.795 26.4741C113.005 26.8821 113.252 27.2588 113.53 27.602C112.681 25.3761 113.623 22.8203 115.791 21.704C118.119 20.5054 120.977 21.4205 122.176 23.7481C123.219 25.7749 122.66 28.2045 120.961 29.5899C121.181 29.5051 121.399 29.4077 121.613 29.2974Z" fill="white"></path>
<path d="M58 84.9998L52 90.0001L99.5 118.5L134.5 136.5L104.5 118.5L58 84.9998Z" fill="#3E3E60"></path>
<path d="M77.5 72.5L77.5 63.9998L110.077 93.375L139.067 119.994L111.805 98.0667L77.5 72.5Z" fill="#3E3E60"></path>
<path d="M149.5 45L147 27.5C162.948 53.1303 182.873 81.0287 166.5 110.5C161.5 119.5 165.5 134 159 133.5C152.5 133 142.5 111.5 141.5 92.5C140.872 80.5773 129.576 75.8386 118 76L115 64.5L110.5 76.68C106.225 77.4906 102.336 78.9743 99.5 81L81 72.5L93.5 86.9999L82 100L63.5 92.5L77 106.5C77 106.5 63.5 137.5 78.5 151C93.5 164.5 117.5 161.5 117.5 161.5C117.5 161.5 141 147.5 160 158.5C179 169.5 189 119.5 189 119.5C184.707 141.249 177.236 194.399 140.5 174.5C116.5 161.5 117.5 182 117.5 182L116 195.5C116 195.5 115 179.5 108 178.5C101 177.5 108 168 108 168C108 168 67 168 49.5 151C28.2299 130.338 28.49 113.176 36 88.5C22.4029 99.3778 17.9927 106.899 15 124C15 124 12.5 102 15 91.5C17.5 81 29.5 69.5 29.5 69.5C29.5 69.5 24 79 29.5 78C35 77 41.5 76 41.5 76L49.5 64.5C49.5 64.5 41.5 59.5 33.5 61.5C25.5 63.5 9.5 78 9.5 78C9.5 78 25 28.5 41.5 33C58 37.5 82 31 82 31C82 31 61 37.5 58 45C55 52.5 60 52 60 52C60 52 85 29.5 114 33C143 36.5 149.5 45 149.5 45Z" fill="black"></path>
<path d="M94.8786 99.959L90.3477 85.3057L80.7722 87.4987L83.9486 97.6061L92.7188 104.892L102.166 106.697L105.987 112.323L106.164 106.826L109.5 111L107.372 100.361L94.8786 99.959Z" fill="black"></path>
<path d="M28.1705 88.8914C28.8262 86.386 27.3267 83.8234 24.8213 83.1677C23.392 82.7936 23.2442 83.0508 22.8081 83.8096C22.4799 84.3808 21.9883 85.2363 20.6637 86.3209C17.5794 88.8461 19.9415 91.5849 22.4469 92.2406C22.7649 92.3238 23.0838 92.3723 23.3997 92.3884C21.8073 91.7759 20.8962 90.0508 21.3382 88.3615C21.813 86.5476 23.6682 85.462 25.4821 85.9367C27.0617 86.3501 28.089 87.8105 28.0145 89.3787C28.0746 89.221 28.1268 89.0584 28.1705 88.8914Z" fill="white"></path>
<path d="M43.201 49.6223C44.1166 46.1241 42.0229 42.546 38.5246 41.6304C36.5288 41.1081 36.3224 41.4672 35.7136 42.5267C35.2553 43.3243 34.5689 44.5188 32.7193 46.0331C28.4127 49.559 31.7109 53.3832 35.2092 54.2988C35.6532 54.415 36.0985 54.4827 36.5395 54.5052C34.3161 53.65 33.0439 51.2412 33.6612 48.8825C34.324 46.3498 36.9145 44.834 39.4472 45.4968C41.6528 46.074 43.0872 48.1131 42.9832 50.3028C43.0671 50.0826 43.14 49.8556 43.201 49.6223Z" fill="white"></path>
<path d="M149.009 109.19C152.453 110.293 156.138 108.395 157.241 104.951C157.87 102.986 157.523 102.761 156.497 102.096C155.726 101.595 154.57 100.845 153.157 98.9168C149.868 94.4266 145.872 97.5141 144.77 100.958C144.63 101.395 144.538 101.836 144.492 102.275C145.466 100.101 147.939 98.9605 150.261 99.7039C152.755 100.502 154.129 103.17 153.331 105.664C152.635 107.835 150.522 109.158 148.341 108.936C148.557 109.032 148.779 109.117 149.009 109.19Z" fill="white"></path>
</svg>