<svg height="100%" viewBox="0 0 200 200" width="100%" xmlns="http://www.w3.org/2000/svg">
<path d="M98.8789 61.7833C83.3201 73.8846 91 85.5537 71.5 112.5C52 139.446 30 145.5 30 145.5C30 145.5 61.2579 157.5 98.8789 154.5C136.5 151.5 115.064 100.655 136.5 96.5C157.936 92.345 154.572 81.5 163.5 81.5C172.428 81.5 176.241 57.4615 164.572 57.4614C152.903 57.4614 114.438 49.6821 98.8789 61.7833Z" fill="black"></path>
<path d="M143 67.89L148 69.15H139.25C139.25 69.15 140.5 77.3399 129.875 77.9698C121.806 78.4483 119.865 73.1131 119.398 70.5186C120.018 73.3399 122.515 75.4499 125.5 75.4499C128.952 75.4499 131.75 72.6293 131.75 69.15H113.625L108 66L143 67.89Z" fill="white"></path>
</svg>