<svg height="100%" viewBox="0 0 200 200" width="100%" xmlns="http://www.w3.org/2000/svg">
<path d="M102.673 58.0386C87.4838 69.7836 86.962 112.799 75.5698 124.125C59.7488 139.853 31.5891 127.237 31.5891 95.182C24.983 146.47 75.4909 162.386 105.2 147.877C129.25 136.132 123.348 96.2096 132.631 92.8539C141.913 89.4983 161.322 83.8539 166.807 77.9814C172.292 72.1089 175.035 52.6492 166.807 55.9333C158.579 59.2175 117.863 46.2937 102.673 58.0386Z" fill="black"></path>
<path d="M129.147 69.6726C122.347 60.681 116.539 79.8968 116.539 79.8968C116.539 79.8968 120.357 60.6611 125.714 60.7316C135.497 60.8602 144.824 63.4848 153.882 66.8236C153.882 66.8236 141.597 64.3967 146.279 68.114C150.962 71.8313 131.515 59.9127 131.515 68.114C131.515 76.3152 137.842 71.8051 137.842 71.8051C137.842 71.8051 135.947 78.6641 129.147 69.6726Z" fill="white"></path>
</svg>