<svg height="100%" viewbox="0 0 200 200" width="100%" xmlns="http://www.w3.org/2000/svg">
<path d="M89.4287 153.192C84.5107 149.534 83.8287 150.283 80.0956 145.333C76.3625 140.383 83.614 138.288 88.1818 138.391C103.527 138.735 118.125 145.997 131 137L130.5 148.5C130.5 148.5 133.264 142.806 134 140.5C134.736 138.193 135 129 135 129C135 129 137.5 130.5 138.5 132.5C139.5 134.5 140.5 139 140.5 139C140.5 139 141.5 130.5 140.5 127.5C139.5 124.5 136.058 117.5 136.058 117.5C130.824 91.2251 86.2642 101.642 84.9285 76.5374C84.4263 67.0985 97.8153 66.9995 113.456 72.9995C129.098 78.9995 130.199 89.7671 144.001 97.777C147.663 99.9022 160.221 103.164 160.221 103.164C160.221 103.164 162.944 100.971 160.795 99.5618L160.736 99.5233C158.61 98.1297 156.66 96.852 155 92.4994C150.252 80.0526 156.072 82.4735 157.634 83.2938C157.867 83.4285 158 83.4995 158 83.4995C158 83.4995 157.863 83.4137 157.634 83.2938C156.118 82.4165 150.367 78.8337 149.5 74.4995C148.5 69.4995 152.5 62.4994 152.5 62.4994C152.5 62.4994 146 68.8256 147 73.4994C148 78.1733 145.236 80.4996 145.236 80.4996C145.236 80.4996 145.502 78.4993 144.001 73.4994C142.5 68.4995 142.5 61.4021 142.5 61.4021C142.5 61.4021 141.138 66.4659 140.5 68.8256C139.933 70.9251 140 73.4994 140 73.4994C140 73.4994 137.844 71.6517 137 68.8256C136.156 65.9995 135.5 60.4995 135.5 60.4995L134 68.8256C134 68.8256 132 64.4995 132 61.4995C132 58.4995 133.5 56.4995 133.5 56.4995C133.5 56.4995 131 58.0969 130.5 59.4995C130 60.9021 130 62.4991 130 62.4991C123.751 52.0698 111.859 43.4555 97 43.2346C90.2782 41.7847 88.1016 38.8326 86.5 30.4995L84.9285 41.9995C84.9285 41.9995 80 41.9995 76.5 39.4995C73 36.9995 66.6783 31.4995 66.6783 31.4995L77.4704 44.9995C77.4704 44.9995 72 48.9995 66.6783 48.9995L55.5 48.9995L66.6783 53.9997C38.3566 74.5001 63 97.8866 92 106.5C121 115.112 104.5 121.5 87.2275 115.112C72.5123 109.671 64.3664 120.295 61.7125 128.361C61.7125 128.361 58 131.499 56.5 133.499C55 135.499 53.5 138.391 53.5 138.391C53.5 138.391 56 136.499 57 135.999C58 135.499 60 134.999 60 134.999C60 134.999 58 138.499 57.5 140.999C57 143.499 58 148.499 58 148.499C58 148.499 58.5 144.999 59.5 142.999C60.5 140.999 62.5 140.999 62.5 140.999C67.0898 148.26 72.9035 148.655 80.0956 153.192C97.7863 164.354 80.6783 169.5 66.6783 167.871C77.5013 171.843 107.251 166.451 89.4287 153.192Z" fill="black"></path>
<path d="M103.225 141.265C103.079 139.691 104.562 136.853 104.562 136.853L99.8023 133.485L95.3536 141.997L104.214 148.478C104.214 148.478 102.383 149.283 100.809 149.429C99.2344 149.576 97.7699 147.489 97.7699 147.489C97.7699 147.489 98.3191 149.979 99.1794 150.693C100.04 151.407 102.017 152.175 102.017 152.175C102.017 152.175 100.845 153.237 99.0696 152.926C97.2938 152.615 95.9758 152.102 95.9758 152.102C95.9758 152.102 97.184 154.848 99.6187 155.416C102.053 155.983 104.799 154.775 104.799 154.775C104.799 154.775 105.367 152.34 107.253 150.418C109.138 148.496 112.287 148.203 112.287 148.203C112.287 148.203 103.372 142.839 103.225 141.265Z" fill="black"></path>
<path d="M145.595 90.8071C146.944 85.7838 138.3 89.1097 138.3 89.1097C138.3 89.1097 146.388 85.0534 147.88 87.0249C150.603 90.625 152.288 94.766 153.637 99.011C153.637 99.011 151.042 93.8485 151.014 96.6069C150.986 99.3653 149.82 88.906 146.833 91.2283C143.845 93.5507 147.28 94.5786 147.28 94.5786C147.28 94.5786 144.245 95.8304 145.595 90.8071Z" fill="white"></path>
<path d="M84.9407 52.2104C81.5557 45.8917 76.013 57.3897 76.013 57.3897C76.013 57.3897 80.3077 45.683 83.6661 46.2555C89.7986 47.301 95.3989 49.8694 100.759 52.8599C100.759 52.8599 93.2816 50.1239 95.8564 52.9207C98.4312 55.7175 87.3904 46.3131 86.5817 51.4648C85.773 56.6166 90.1926 54.4074 90.1926 54.4074C90.1926 54.4074 88.3256 58.5291 84.9407 52.2104Z" fill="white"></path>
<path d="M92.038 85.6113C90.5715 86.2023 87.4283 85.5938 87.4283 85.5938L85.5634 91.1185L94.993 92.9439L98.6659 82.5994C98.6659 82.5994 99.9617 84.1228 100.553 85.5893C101.144 87.0559 99.5633 89.0565 99.5633 89.0565C99.5633 89.0565 101.792 87.8176 102.229 86.7888C102.667 85.7601 102.838 83.6456 102.838 83.6456C102.838 83.6456 104.191 84.4642 104.401 86.2547C104.611 88.0452 104.497 89.4548 104.497 89.4548C104.497 89.4548 106.782 87.5111 106.629 85.0158C106.476 82.5205 104.532 80.2354 104.532 80.2354C104.532 80.2354 102.037 80.3886 99.6552 79.1322C97.2737 77.8758 96.0917 74.9427 96.0917 74.9427C96.0917 74.9427 93.5045 85.0203 92.038 85.6113Z" fill="black"></path>
</svg>