<svg height="100%" viewBox="0 0 200 200" width="100%" xmlns="http://www.w3.org/2000/svg">
<path d="M56.6718 186.025C56.6718 186.025 83.4756 180.015 87.558 171.586C94.972 156.279 74.9659 156.045 75.7843 139.425C76.4199 126.515 113.965 126.365 120.864 121.543L120.319 134.089C120.319 134.089 123.334 127.878 124.137 125.361C124.94 122.845 125.228 112.815 125.228 112.815C125.228 112.815 127.956 114.452 129.047 116.634C130.138 118.816 131.229 123.725 131.229 123.725C132.539 112.59 129.592 105.179 125.228 97.5421C120.864 89.9053 111.055 90.9957 109.409 74.8106C107.763 58.6255 140.588 58.3566 153.593 65.9042C153.593 65.9042 166.685 78.9946 166.139 80.0855C165.594 81.1765 163.957 81.1765 163.957 81.1765L168.321 82.2686L171.594 80.6321L173.231 78.4491L169.958 77.9036L170.503 76.2672L167.776 76.2672C165.722 74.7271 161.593 72.2068 163.412 69.1771C165.048 66.4508 169.412 70.8812 169.412 70.8812L169.412 72.4488L171.049 71.9034L174.321 73.5398L174.321 76.2672L177.835 74.8106C178.401 73.3634 180.806 72.4181 178.462 70.8812L178.397 70.8392C176.078 69.3188 173.951 67.9248 172.139 63.1764C166.959 49.5975 173.309 52.2385 175.013 53.1334C175.267 53.2804 175.412 53.3578 175.412 53.3578C175.412 53.3578 175.263 53.2643 175.013 53.1334C173.359 52.1763 167.085 48.2676 166.139 43.5391C165.048 38.0844 169.412 30.4476 169.412 30.4476C169.412 30.4476 162.321 37.3492 163.412 42.4481C164.503 47.5471 161.487 50.085 161.487 50.085C161.487 50.085 161.777 47.9029 160.14 42.4481C158.503 36.9934 158.502 29.2505 158.502 29.2505C158.502 29.2505 157.016 34.7749 156.321 37.3492C155.702 39.6396 155.775 42.4481 155.775 42.4481C155.775 42.4481 153.423 40.4323 152.502 37.3492C151.581 34.266 150.866 28.2658 150.866 28.2658L149.229 37.3492C149.229 37.3492 147.047 32.6296 147.047 29.3567C147.047 26.0838 148.684 23.9019 148.684 23.9019C148.684 23.9019 145.957 25.6446 145.411 27.1748C144.866 28.705 140.502 34.8115 140.502 34.8115C121.362 28.2658 113.228 32.3406 113.228 32.3406C105.895 30.7588 103.52 27.5382 101.773 18.4471L100.058 30.9932C100.058 30.9932 94.6815 30.9932 90.8631 28.2658C87.0448 25.5384 80.1481 19.5381 80.1481 19.5381L91.9218 34.266C91.9218 34.266 85.9538 38.6299 80.1481 38.6299L67.953 38.6299L80.1481 44.085C64.3085 59.3584 67.7581 70.268 71.7712 78.9956C75.7843 87.7233 90.8631 100.815 83.9703 106.27C70.5485 116.891 57.9887 119.683 55.0934 128.483C55.0934 128.483 51.0432 131.907 49.4068 134.089C47.7703 136.271 46.1339 139.425 46.1339 139.425C46.1339 139.425 48.8613 137.362 49.9522 136.816C51.0432 136.271 53.2251 135.725 53.2251 135.725C53.2251 135.725 51.0432 139.544 50.4977 142.271C49.9522 144.998 51.0432 150.453 51.0432 150.453C51.0432 150.453 51.5887 146.635 52.6796 144.453C53.7706 142.271 55.9525 142.271 55.9525 142.271C60.9599 150.192 67.938 153.898 75.7843 158.849C95.0841 171.026 68.805 178.543 56.6718 186.025Z" fill="black"></path>
<path d="M104.201 131.309C102.982 128.748 115.2 120.32 115.2 120.32L93.6287 120.32C93.6287 120.32 95.849 130.389 93.6287 134.207C91.4085 138.026 85.9537 137.396 85.9537 137.396L94.6813 139.117L91.9539 144.237C91.9539 144.237 95.0568 140.207 98.6874 140.207C102.318 140.207 110.323 142.846 110.323 142.846C110.323 142.846 107.737 145.334 105.176 146.553C102.615 147.773 98.8588 145.163 98.8588 145.163C98.8588 145.163 101.322 149.017 103.212 149.688C105.102 150.358 108.907 150.432 108.907 150.432C108.907 150.432 107.59 152.944 104.407 153.517C101.224 154.09 98.6874 154.041 98.6874 154.041C98.6874 154.041 102.419 157.919 106.87 157.371C111.322 156.822 115.2 153.091 115.2 153.091C115.2 153.091 114.652 148.64 116.64 144.237C118.628 139.835 123.75 137.396 123.75 137.396C123.75 137.396 105.421 133.87 104.201 131.309Z" fill="black"></path>
<path d="M121.424 72.5085C119.199 71.8794 123.406 56.0857 123.406 56.0857L106.063 66.6601C106.063 66.6601 115.958 75.7743 116.895 78.4938C117.831 81.2134 114.245 83.3332 114.245 83.3332L120.402 80.2665L121.806 83.8032C121.806 83.8032 121.265 80.5979 123.406 78.9961C125.546 77.3942 131.817 75.065 131.817 75.065C131.817 75.065 131.755 77.3394 130.963 79.025C130.17 80.7106 126.421 81.1785 126.421 81.1785C126.421 81.1785 130.139 81.8478 131.648 81.3195C133.157 80.7913 135.443 79.1459 135.443 79.1459C135.443 79.1459 136.144 80.8719 134.604 82.5374C133.065 84.2028 131.541 85.2997 131.541 85.2997C131.541 85.2997 136.021 85.4206 138.323 83.2067C140.624 80.9928 140.716 77.5812 140.716 77.5812C140.716 77.5812 137.775 75.7948 136.359 72.9115C134.942 70.0283 136.527 66.657 136.527 66.657C136.527 66.657 123.648 73.1375 121.424 72.5085Z" fill="black"></path>
<path d="M163.874 61.0076C165.347 55.5274 155.916 59.1558 155.916 59.1558C155.916 59.1558 164.74 54.7305 166.367 56.8814C169.338 60.809 171.177 65.3266 172.648 69.9577C172.648 69.9577 169.817 64.3257 169.787 67.3349C169.756 70.3442 168.485 58.9336 165.225 61.4672C161.966 64.0008 165.713 65.1222 165.713 65.1222C165.713 65.1222 162.402 66.4879 163.874 61.0076Z" fill="white"></path>
<path d="M19.3177 91.5716L76.2902 51.0184L86.1209 52.5439C86.1209 52.5439 74.441 57.5964 73.2622 65.1928C72.0833 72.7892 85.6583 76.7263 85.6583 76.7263C85.6583 76.7263 77.615 75.4781 73.0694 81.1792C68.5238 86.8803 74.4945 95.5863 74.4945 95.5863C74.4945 95.5863 69.0014 89.7001 60.9889 91.2024C53.8755 92.536 50.4115 100.568 49.7237 102.353C49.6437 102.58 49.5941 102.705 49.5941 102.705C49.5941 102.705 49.6367 102.579 49.7237 102.353C50.5117 100.113 54.2514 87.8687 42.568 86.0557C30.1165 84.1234 19.9628 91.1162 19.3177 91.5716Z" fill="black"></path>
<path d="M59.8323 74.7235C51.3537 73.4996 58.4847 86.9841 58.4847 86.9841C58.4847 86.9841 50.2681 74.5522 53.2 71.7274C58.5539 66.5692 64.9955 63.0029 71.673 59.9665C71.673 59.9665 63.7391 65.2202 68.2552 64.7263C72.7713 64.2323 55.8961 68.1854 60.2786 72.6161C64.6612 77.0468 65.6696 71.2289 65.6696 71.2289C65.6696 71.2289 68.3109 75.9473 59.8323 74.7235Z" fill="white"></path>
<path d="M98.7812 41.1338C95.4551 35.6492 91.051 46.1878 91.051 46.1878C91.051 46.1878 94.33 35.5223 97.3582 35.8736C102.888 36.5152 108.015 38.543 112.947 40.9594C112.947 40.9594 106.135 38.8715 108.569 41.2477C111.003 43.6239 100.689 35.7474 100.212 40.3893C99.7352 45.0313 103.579 42.8464 103.579 42.8464C103.579 42.8464 102.107 46.6184 98.7812 41.1338Z" fill="white"></path>
</svg>