<svg height="100%" viewBox="0 0 200 200" width="100%" xmlns="http://www.w3.org/2000/svg">
<path d="M98.8789 61.7833C83.3201 73.8846 84.1691 95.3309 72.5 107C56.2944 123.206 40.1476 124.796 28 108.46C37.2495 140.017 73.5691 161.949 104 147C128.635 134.899 125.492 103.457 135 100C144.508 96.5425 154.382 91.0506 160 85C165.618 78.9493 167.669 57.5 156 57.5C144.331 57.5 114.438 49.682 98.8789 61.7833Z" fill="black"></path>
<path clip-rule="evenodd" d="M123.645 66.3442C125.07 64.6166 125.964 62.7125 125 61.4276C124.049 60.1602 123.099 61.9046 121.894 64.1161C121.197 65.3944 120.416 66.8287 119.5 67.9276C117 70.9276 111 75.4276 111 75.4276C111 75.4276 114.575 73.2828 117.611 71.2965C116.957 72.5949 116.589 74.0617 116.589 75.6145C116.589 77.684 117.243 79.6009 118.355 81.1696C118.343 81.0677 118.337 80.964 118.337 80.8588C118.337 79.4107 119.511 78.2367 120.959 78.2367C122.407 78.2367 123.581 79.4107 123.581 80.8588C123.581 82.307 122.407 83.481 120.959 83.481C120.854 83.481 120.75 83.4748 120.649 83.4627C122.217 84.5751 124.134 85.229 126.204 85.229C131.513 85.229 135.818 80.9244 135.818 75.6145C135.818 70.3046 131.513 66 126.204 66C125.317 66 124.459 66.1199 123.645 66.3442ZM120.779 71.9514C122.162 68.1895 126.925 72.847 126.925 72.847C126.925 72.847 129.278 66.8697 131.814 70.0244C132.23 70.5416 132.416 71.1629 132.436 71.8403L132.044 72.0774L130.435 71.1055L131.407 72.7145L130.435 74.3236L132.044 73.3517L132.224 73.4603C131.38 76.6497 128.334 80.2079 128.334 80.2079C128.334 80.2079 119.395 75.7132 120.779 71.9514ZM125.329 83.481C125.812 83.481 126.204 83.0896 126.204 82.6069C126.204 82.1242 125.812 81.7329 125.329 81.7329C124.847 81.7329 124.455 82.1242 124.455 82.6069C124.455 83.0896 124.847 83.481 125.329 83.481ZM117.781 82.6975L115 81.0176L116.68 83.7988L115 86.58L117.781 84.9001L120.562 86.58L118.882 83.7988L120.562 81.0176L117.781 82.6975Z" fill="white" fill-rule="evenodd"></path>
</svg>