<svg height="100%" viewBox="0 0 200 200" width="100%" xmlns="http://www.w3.org/2000/svg">
<path d="M60.4993 126.5C64.4993 133 76.4993 130.5 76.4993 130.5L65.9993 138.5C57.396 133.242 47.9563 126.647 45.4993 116C43.9993 109.5 45.4993 104 52.9993 103C60.4993 102 62.9993 107.333 67.4993 110C58.6918 104.967 57.4236 121.502 60.4993 126.5Z" fill="#3E3E60"></path>
<path d="M110.976 38.0169C120.688 37.0174 134.806 42.4204 134.806 42.4204C134.806 42.4204 132.395 54.1552 123.882 55.0369C114.239 56.0357 90.6849 47.6749 90.6849 47.6749C90.6849 47.6749 102.246 38.9153 110.976 38.0169Z" fill="black"></path>
<path d="M173.582 78.5568C180.088 72.0347 189.848 46.805 180.553 46.805H180.551C171.258 46.805 166.876 46.805 159.641 45.0148C152.404 43.2244 144.769 38.4927 129.898 42.6855C115.027 46.8782 100.403 78.5056 93.9029 100C87.4029 121.494 68.9192 144.25 49.377 125.715C29.8348 107.179 43.5 83.7099 67 85.0056C67 85.0056 51.7907 58.9951 27.4828 83.7099C3.17499 108.425 43.4087 145.985 72.2659 155.431L72.2658 163.963C72.2658 163.963 84.3486 168.082 86.6722 167.151C88.9959 166.219 83.4192 162.026 83.4192 162.026L86.6722 156.436C94.1078 156.436 115.536 152.039 120.392 144.25C127 150 130.791 159.918 138.151 162.026C141.404 162.958 145.587 162.026 145.587 162.026C147.704 155.493 142.724 158.437 140.475 155.431C139.081 153.568 135.263 132.211 135.263 132.211L148.023 85.0056C148.023 85.0056 167.076 85.0788 173.582 78.5568Z" fill="black"></path>
<path clip-rule="evenodd" d="M142.33 59.3442C143.756 57.6166 144.649 55.7125 143.686 54.4276C142.735 53.1602 141.784 54.9046 140.579 57.1161C139.883 58.3944 139.101 59.8287 138.186 60.9276C135.686 63.9276 129.686 68.4276 129.686 68.4276C129.686 68.4276 133.26 66.2828 136.296 64.2965C135.643 65.5949 135.275 67.0617 135.275 68.6145C135.275 70.684 135.928 72.6009 137.041 74.1696C137.029 74.0677 137.023 73.964 137.023 73.8588C137.023 72.4107 138.197 71.2367 139.645 71.2367C141.093 71.2367 142.267 72.4107 142.267 73.8588C142.267 75.307 141.093 76.481 139.645 76.481C139.54 76.481 139.436 76.4748 139.334 76.4627C140.903 77.5751 142.82 78.229 144.889 78.229C150.199 78.229 154.504 73.9244 154.504 68.6145C154.504 63.3046 150.199 59 144.889 59C144.003 59 143.145 59.1199 142.33 59.3442ZM139.464 64.9514C140.848 61.1895 145.611 65.847 145.611 65.847C145.611 65.847 147.964 59.8697 150.5 63.0244C150.916 63.5416 151.102 64.1629 151.122 64.8403L150.729 65.0774L149.12 64.1055L150.092 65.7145L149.12 67.3236L150.729 66.3517L150.909 66.4603C150.065 69.6497 147.02 73.2079 147.02 73.2079C147.02 73.2079 138.081 68.7132 139.464 64.9514ZM144.015 76.481C144.498 76.481 144.889 76.0896 144.889 75.6069C144.889 75.1242 144.498 74.7329 144.015 74.7329C143.532 74.7329 143.141 75.1242 143.141 75.6069C143.141 76.0896 143.532 76.481 144.015 76.481ZM136.467 75.6975L133.686 74.0176L135.365 76.7988L133.686 79.58L136.467 77.9001L139.248 79.58L137.568 76.7988L139.248 74.0176L136.467 75.6975Z" fill="white" fill-rule="evenodd"></path>
<path clip-rule="evenodd" d="M53.0952 106.153C53.6693 105.457 54.0293 104.69 53.6411 104.172C53.2581 103.662 52.875 104.365 52.3895 105.256C52.1088 105.771 51.7939 106.349 51.4249 106.791C50.4176 108 48 109.813 48 109.813C48 109.813 49.4402 108.949 50.6636 108.149C50.4003 108.672 50.252 109.263 50.252 109.889C50.252 110.722 50.5155 111.495 50.9637 112.127C50.9589 112.086 50.9564 112.044 50.9564 112.002C50.9564 111.418 51.4294 110.945 52.0129 110.945C52.5964 110.945 53.0695 111.418 53.0695 112.002C53.0695 112.585 52.5964 113.058 52.0129 113.058C51.9705 113.058 51.9287 113.056 51.8877 113.051C52.5198 113.499 53.2921 113.763 54.126 113.763C56.2656 113.763 58 112.028 58 109.889C58 107.749 56.2656 106.015 54.126 106.015C53.7691 106.015 53.4234 106.063 53.0952 106.153ZM51.9402 108.413C52.4977 106.897 54.4169 108.774 54.4169 108.774C54.4169 108.774 55.3649 106.365 56.3868 107.636C56.5542 107.845 56.6292 108.095 56.6374 108.368L56.4792 108.463L55.8309 108.072L56.2225 108.72L55.8309 109.368L56.4792 108.977L56.5518 109.02C56.2119 110.306 54.9845 111.74 54.9845 111.74C54.9845 111.74 51.3826 109.929 51.9402 108.413ZM53.7738 113.058C53.9683 113.058 54.126 112.901 54.126 112.706C54.126 112.512 53.9683 112.354 53.7738 112.354C53.5793 112.354 53.4216 112.512 53.4216 112.706C53.4216 112.901 53.5793 113.058 53.7738 113.058ZM50.7324 112.743L49.6117 112.066L50.2886 113.186L49.6117 114.307L50.7324 113.63L51.853 114.307L51.1761 113.186L51.853 112.066L50.7324 112.743Z" fill="white" fill-rule="evenodd"></path>
<path clip-rule="evenodd" d="M41.1331 78.1648C41.937 77.1902 42.4411 76.1162 41.8975 75.3913C41.3613 74.6764 40.8251 75.6604 40.1453 76.908C39.7524 77.629 39.3115 78.4381 38.7949 79.058C37.3846 80.7504 34 83.2888 34 83.2888C34 83.2888 36.0164 82.079 37.7292 80.9585C37.3604 81.6909 37.1528 82.5183 37.1528 83.3942C37.1528 84.5617 37.5217 85.643 38.1492 86.5279C38.1424 86.4704 38.1389 86.4118 38.1389 86.3524C38.1389 85.5355 38.8012 84.8732 39.6181 84.8732C40.435 84.8732 41.0972 85.5355 41.0972 86.3524C41.0972 87.1693 40.435 87.8316 39.6181 87.8316C39.5587 87.8316 39.5001 87.8281 39.4425 87.8213C40.3275 88.4489 41.4089 88.8178 42.5764 88.8178C45.5718 88.8178 48 86.3896 48 83.3942C48 80.3988 45.5718 77.9706 42.5764 77.9706C42.0766 77.9706 41.5926 78.0382 41.1331 78.1648ZM39.5162 81.3278C40.2968 79.2057 42.9836 81.833 42.9836 81.833C42.9836 81.833 44.3109 78.4612 45.7415 80.2407C45.976 80.5325 46.0809 80.883 46.0923 81.2651L45.8709 81.3988L44.9632 80.8506L45.5115 81.7583L44.9632 82.6659L45.8709 82.1177L45.9724 82.179C45.4964 83.9781 43.7783 85.9853 43.7783 85.9853C43.7783 85.9853 38.7357 83.4498 39.5162 81.3278ZM42.0833 87.832C42.3557 87.832 42.5764 87.6113 42.5764 87.339C42.5764 87.0666 42.3557 86.8459 42.0833 86.8459C41.811 86.8459 41.5903 87.0666 41.5903 87.339C41.5903 87.6113 41.811 87.832 42.0833 87.832ZM37.8253 87.3899L36.2564 86.4422L37.2041 88.0111L36.2564 89.58L37.8253 88.6324L39.3942 89.58L38.4466 88.0111L39.3942 86.4422L37.8253 87.3899Z" fill="white" fill-rule="evenodd"></path>
<path d="M100.086 65.2294C107.706 59.1251 122.498 56.0125 122.498 56.0125C122.498 56.0125 126.833 67.1806 120.158 72.5359C112.596 78.6023 88.2704 84.3444 88.2704 84.3444C88.2704 84.3444 93.2374 70.7165 100.086 65.2294Z" fill="#3E3E60"></path>
</svg>