<svg height="100%" viewbox="0 0 200 200" width="100%" xmlns="http://www.w3.org/2000/svg">
<path d="M108 63.5003C87.5 77.7243 94.9999 97.0014 84.4999 108.501C74 120.001 60.9999 116.001 50.9999 129.001C40.9999 142.001 53 152.501 53 152.501C53 152.501 45.4999 143.001 58.4999 136.001C71.4999 129.001 92.751 154.84 109.5 147.5C134.984 136.332 119 104.001 126 93.501C133 83.001 141.5 89.0005 146 85.501C150.5 82.0015 160 74.0013 151 74.001C142 74.0006 128.5 49.2762 108 63.5003Z" fill="black"></path>
<path clip-rule="evenodd" d="M125.478 76.9797C124.425 76.3161 123.838 75.8389 123.838 75.8389C123.838 75.8389 124.023 80.2784 128.361 82.5864C132.698 84.8943 138 81.6224 138 81.6224C138 81.6224 138 81.6221 134.788 80.7462C133.816 81.8741 132.377 82.5882 130.771 82.5882C127.843 82.5882 125.469 80.2146 125.469 77.2866C125.469 77.1836 125.472 77.0812 125.478 76.9797Z" fill="white" fill-rule="evenodd"></path>
<path d="M128.608 78.5413L129.41 79.5206L130.676 79.5491L129.697 80.3513L129.668 81.6169L128.866 80.6376L127.6 80.6091L128.58 79.8069L128.608 78.5413Z" fill="white"></path>
<path d="M124.217 72.0687L136.845 80.547L122.835 74.124L118.164 74.1249L124.217 72.0687Z" fill="white"></path>
</svg>