<svg height="100%" viewBox="0 0 200 200" width="100%" xmlns="http://www.w3.org/2000/svg">
<path d="M177.5 83C175.5 79.0007 170 79.4991 165.5 66.4991C161 53.4991 145.5 36.0005 131.858 35.0005C118.216 34.0005 109 41.0162 104.5 42.499C100 43.9818 94.0615 41.4826 94.0615 41.4826C94.0615 41.4826 98.3334 44.4395 105.5 44.0004C108.929 43.7904 114.216 41.001 118.858 40.5C123.5 39.999 128 40.999 128 40.999C128 40.999 114.797 41.4826 103 51.999C91.2033 62.5154 85.4822 81.3825 75.5615 93.6847C63.0615 109.185 36.8582 111.5 30.5615 129.685C24.2647 147.871 37.7164 162.002 48.8582 167C60 171.999 82.8582 167 82.8582 167C82.8582 167 42.5 174.371 42.5 149.185C42.5 124 84.5615 141.185 89.5615 144.685C94.5615 148.186 94.0615 149.685 94.0615 149.685L90.0615 155.685C90.0615 155.685 91.5615 160.684 98.0615 160.685C104.561 160.685 106.562 158.185 106.562 158.185C106.562 158.185 104.062 158.685 102.062 158.185C100.061 157.684 100.561 155.185 100.561 155.185C100.561 155.185 109.5 147.999 109.5 144.685C109.5 141.372 104.562 134.685 104.562 134.685L111.358 122.501L122.358 123.5L128.358 120.5L132.858 122L128.358 117L121.858 119L116.358 113.5L117.358 112L123.358 114.5L129.358 110.5L131.858 112.5L129.358 107.5L123.858 109.5L118.858 104C118.858 104 119.358 79.4134 129.358 76.9991C139.358 74.5849 146 78 155.5 83C165 88 179.5 86.9993 177.5 83Z" fill="black"></path>
<path clip-rule="evenodd" d="M147.01 69.692C146.167 68.7763 145.725 68.1621 145.725 68.1621C145.725 68.1621 144.743 72.4956 148.326 75.8575C151.91 79.2194 157.882 77.4476 157.882 77.4476C157.882 77.4476 157.882 77.4473 155.011 75.762C153.778 76.5964 152.202 76.9093 150.652 76.4894C147.826 75.7238 146.155 72.8121 146.921 69.986C146.948 69.8865 146.977 69.7885 147.01 69.692Z" fill="white" fill-rule="evenodd"></path>
<path d="M149.623 72.0185L150.141 73.1735L151.355 73.5319L150.2 74.0502L149.842 75.2643L149.323 74.1093L148.109 73.7509L149.264 73.2326L149.623 72.0185Z" fill="white"></path>
<path d="M147.076 64.6223L157.049 76.1078L145.205 66.2447L140.697 65.0244L147.076 64.6223Z" fill="white"></path>
<path d="M68.8189 126.5C78.6153 117.765 88.0732 110.351 88.0732 110.351C88.0732 110.351 69.1122 100.703 56.0001 111.5C42.888 122.297 14.4311 120.807 14.4311 120.807C14.4311 120.807 59.0224 135.235 68.8189 126.5Z" fill="black"></path>
<path clip-rule="evenodd" d="M55.0707 121.135C53.4084 121.557 52.3743 121.69 52.3743 121.69C52.3743 121.69 56.9847 125.72 63.4081 123.578C69.8314 121.436 71.5963 113.035 71.5963 113.035C71.5963 113.035 71.5959 113.034 67.6718 115.411C67.8755 117.453 67.2225 119.569 65.6979 121.173C62.9182 124.098 58.2938 124.215 55.3691 121.436C55.2661 121.338 55.1667 121.238 55.0707 121.135Z" fill="white" fill-rule="evenodd"></path>
<path d="M59.6019 119.491L61.3417 119.619L62.5717 118.382L62.4433 120.122L63.6805 121.352L61.9407 121.224L60.7107 122.461L60.8391 120.721L59.6019 119.491Z" fill="white"></path>
<path d="M48.9681 117.733L69.4262 113.167L49.709 121.065L45.2763 125.731L48.9681 117.733Z" fill="white"></path>
</svg>