<svg height="100%" viewbox="0 0 200 200" width="100%" xmlns="http://www.w3.org/2000/svg">
<path d="M159.505 41.5101L141.218 29.366L126.842 32.5914L92.0259 37.1176L71.7803 28.6906L86.4026 42.5643L127.011 44.3261L89.6333 57.2729L70.5194 57.5485L95.7998 66.2383L122.496 56.799L108.542 77.3045L79.1915 86.6941L47.5001 86.6941L22.0001 131.749L49.5001 156L88.1172 161.469L137.352 117.754L165.493 124.349L171.649 165.638L130.304 192.32L181.115 169.718L170.97 122.77L137.186 106.256L87.8216 140.971L57.5001 143L45.0001 131L55.5001 119.5L74.0001 122.77L93.5001 106.256L103.732 106.738L126.835 83.3335C126.835 83.3335 133.954 58.9151 139.978 55.6092C146.002 52.3033 156.15 60.5765 160.075 61.0383C164 61.5 171.749 56.5104 171.749 56.5104C171.749 56.5104 169.827 56.2454 166 54C162.173 51.7546 159.505 41.5101 159.505 41.5101Z" fill="black"></path>
<path d="M155.5 124.252L141.5 116.727L133.687 116.727L152.016 124.252L152.901 145.348L144.713 160.309L129.571 158.675L127.854 140.275L123.101 169.399L148.107 169.019L159.507 146.686L155.5 124.252Z" fill="black"></path>
<path clip-rule="evenodd" d="M152.101 49.7409C151.348 48.9222 150.952 48.373 150.952 48.373C150.952 48.373 150.074 52.2474 153.278 55.2531C156.482 58.2587 161.821 56.6747 161.821 56.6747C161.821 56.6747 161.821 56.6744 159.255 55.1678C158.152 55.914 156.743 56.1938 155.357 55.8183C152.83 55.1338 151.337 52.5306 152.022 50.0039C152.046 49.915 152.072 49.8273 152.101 49.7409Z" fill="white" fill-rule="evenodd"></path>
<path d="M154.437 51.8191L154.9 52.8518L155.986 53.1722L154.953 53.6356L154.633 54.7211L154.169 53.6884L153.084 53.368L154.116 52.9046L154.437 51.8191Z" fill="white"></path>
<path d="M152.16 45.2074L161.076 55.476L150.487 46.6579L146.457 45.5669L152.16 45.2074Z" fill="white"></path>
<path d="M114.346 162.861L103.49 161.087L99.8494 127.561L104.284 100.421L120.359 88.8622L105.872 121.706L109.151 157.453L114.346 162.861Z" fill="black"></path>
<path d="M67.7384 175.257L56.8824 173.483L53.2415 139.957L57.6763 112.817L73.7508 101.258L59.2646 134.101L62.5427 169.848L67.7384 175.257Z" fill="black"></path>
<path d="M86.7382 176.257L75.8822 174.483L72.2412 140.957L76.6761 113.817L92.7506 102.258L78.2643 135.101L81.5424 170.848L86.7382 176.257Z" fill="black"></path>
<path d="M89.0002 78L83.0002 86L77.5 90.5L71 88.5L71 83L34.5 88.5L13 86L34.5 86L66 78L89.0002 78Z" fill="#3E3E60"></path>
<path d="M70.3849 72L69.5525 81.9652L67.2839 88.6999L60.7146 90.4592L57.7923 85.7998L29.793 109.853L10.2506 119.158L28.4647 107.735L50.8999 84.2206L70.3849 72Z" fill="#3E3E60"></path>
<path clip-rule="evenodd" d="M139.729 113.31C138.836 112.999 138.32 112.746 138.32 112.746C138.32 112.746 139.217 116 142.823 116.965C146.428 117.93 149.791 114.601 149.791 114.601C149.791 114.601 149.791 114.6 147.264 114.502C146.738 115.503 145.795 116.278 144.606 116.553C142.44 117.055 140.277 115.705 139.775 113.538C139.758 113.462 139.742 113.386 139.729 113.31Z" fill="white" fill-rule="evenodd"></path>
<path d="M142.312 113.928L143.074 114.516L144.015 114.32L143.428 115.081L143.624 116.023L142.862 115.436L141.921 115.631L142.508 114.87L142.312 113.928Z" fill="white"></path>
<path d="M137.954 109.891L148.752 114.002L137.284 111.648L133.828 112.449L137.954 109.891Z" fill="white"></path>
<path clip-rule="evenodd" d="M64.3141 80.017C64.9914 79.4903 65.3621 79.123 65.3621 79.123C65.3621 79.123 65.5357 82.1815 62.716 84.0588C59.8963 85.9361 56.0373 84.0505 56.0373 84.0505C56.0373 84.0505 56.0373 84.0502 58.1814 83.2319C58.9248 83.94 59.9607 84.3325 61.0626 84.2237C63.0715 84.0254 64.5392 82.2361 64.3409 80.2272C64.3339 80.1564 64.3249 80.0863 64.3141 80.017Z" fill="white" fill-rule="evenodd"></path>
<path d="M62.2728 81.2991L61.7887 82.0254L60.9223 82.1307L61.6486 82.6147L61.7538 83.4811L62.2379 82.7549L63.1043 82.6496L62.3781 82.1655L62.2728 81.2991Z" fill="white"></path>
<path d="M64.8472 76.5614L56.757 83.2338L65.9347 77.8779L69.1389 77.5622L64.8472 76.5614Z" fill="white"></path>
<path clip-rule="evenodd" d="M102.371 58.3602C103.17 58.0483 103.63 57.8018 103.63 57.8018C103.63 57.8018 102.926 60.7831 99.688 61.7796C96.4504 62.7762 93.2882 59.8696 93.2882 59.8696C93.2882 59.8696 93.2883 59.8693 95.5766 59.6955C96.0876 60.586 96.9688 61.2573 98.0561 61.4668C100.038 61.8488 101.955 60.5515 102.337 58.5694C102.35 58.4995 102.362 58.4298 102.371 58.3602Z" fill="white" fill-rule="evenodd"></path>
<path d="M100.049 59.007L99.3782 59.5653L98.5177 59.4195L99.076 60.0903L98.9302 60.9508L99.6011 60.3925L100.462 60.5383L99.9032 59.8675L100.049 59.007Z" fill="white"></path>
<path d="M103.866 55.1988L94.2107 59.2909L104.534 56.7705L107.695 57.3804L103.866 55.1988Z" fill="white"></path>
<defs></defs>
</svg>