<svg height="100%" viewbox="0 0 200 200" width="100%" xmlns="http://www.w3.org/2000/svg">
<path d="M59.2956 141.617C75.8266 163.516 123.306 158.608 134.999 148C149.945 134.442 143.673 112.921 149.166 95.3495C153.529 93.7134 158.042 93.2268 162.801 89.8957L149.166 87.7142C149.166 87.7142 147.528 81.1696 154.075 73.5342C160.621 65.8988 167.162 64.2628 167.162 64.2628C167.162 64.2628 157.89 62.6266 151.891 62.0813C151.891 62.0813 142.037 50.6283 109.349 54.9912C76.6623 59.3542 37.9931 113.396 59.2956 141.617Z" fill="black"></path>
<path d="M35.2924 139.92C36.3683 134.703 60.0641 132.102 60.0641 132.102L66.4291 140.892C66.4291 140.892 54.0551 154.662 49.3475 154.373C44.64 154.084 34.2166 145.138 35.2924 139.92Z" fill="black"></path>
<path d="M140.695 76.0487C143.431 81.2175 141.459 87.6256 136.29 90.3617C131.121 93.0978 124.713 91.1257 121.977 85.9569C119.241 80.7881 122.329 72.6514 124.593 70.9079C126.857 69.1643 137.959 70.8799 140.695 76.0487Z" fill="white"></path>
<path d="M138.603 77.6336C140.025 80.3214 137.112 87.1466 134.424 88.5693C131.736 89.9921 126.016 87.0598 124.593 84.372C123.17 81.6843 124.771 75.134 127.459 73.7112C130.147 72.2884 137.18 74.9458 138.603 77.6336Z" fill="black"></path>
<path d="M130.99 81.2256C131.975 83.0863 134.98 83.387 133.119 84.372C131.259 85.357 128.952 84.6471 127.967 82.7863C126.982 80.9255 127.692 78.6186 129.552 77.6336C131.413 76.6486 130.005 79.3648 130.99 81.2256Z" fill="white"></path>
<path d="M43.9075 92.4373C43.9075 92.4373 88.1829 112.568 90.5101 107.979C92.8373 103.391 83.4698 102.732 83.4698 102.732C83.4698 102.732 111.472 91.3197 116.505 92.5119C121.539 93.7041 111.899 99.6404 121.772 102.444C131.645 105.248 113.478 124.71 112.225 127.608C109.894 132.999 96.7943 133.182 96.7943 133.182L105.879 120.339C105.879 120.339 88.1168 131.306 78.8036 132.685C69.4904 134.064 58.3583 122.299 58.3583 122.299L93.4605 115.631C93.4605 115.631 71.5932 117.209 66.7017 116.528C61.8102 115.847 43.9075 92.4373 43.9075 92.4373Z" fill="#3E3E60"></path>
<path d="M55.1297 140.431C56.7564 143.504 55.5839 147.314 52.5108 148.941C49.4377 150.567 45.6278 149.395 44.001 146.322C42.3743 143.249 44.2104 138.411 45.5565 137.374C46.9026 136.338 53.503 137.358 55.1297 140.431Z" fill="white"></path>
<path d="M53.8859 141.373C54.7318 142.971 52.9993 147.029 51.4013 147.875C49.8033 148.721 46.4024 146.977 45.5565 145.379C44.7106 143.781 45.6624 139.887 47.2604 139.041C48.8584 138.195 53.0399 139.775 53.8859 141.373Z" fill="black"></path>
<path d="M49.36 143.509C49.9456 144.615 51.732 144.794 50.6257 145.379C49.5194 145.965 48.1478 145.543 47.5622 144.437C46.9766 143.33 47.3987 141.959 48.505 141.373C49.6113 140.787 48.7744 142.402 49.36 143.509Z" fill="white"></path>
</svg>