<svg height="100%" viewBox="0 0 200 200" width="100%" xmlns="http://www.w3.org/2000/svg">
<path d="M140.651 96.783C140.205 100.221 135.988 138.787 135.988 138.787L149.731 143.884C149.731 143.884 168.446 134.8 171.33 131.618C174.213 128.436 176.609 120.189 173.609 119.619C170.609 119.049 152.63 134.075 152.63 134.075C152.63 134.075 175.105 112.232 173.609 110.291C172.113 108.349 168.008 100.544 164.191 102.098C160.373 103.652 144.317 133.117 144.317 133.117C144.317 133.117 157.445 100.287 156.453 96.783C155.461 93.2794 141.097 93.3453 140.651 96.783Z" fill="black"></path>
<path d="M154.498 135C154.498 135 122.998 133.5 114.998 121.5C106.998 109.5 107.231 89.3173 120.496 79L130.998 89C129.736 82.0585 129 76.5 130.998 72C132.996 67.5 135.996 63 144.496 63C152.996 63 156.998 67.5 156.998 67.5C156.998 67.5 153.996 60 149.996 57C145.996 54 141.998 51.5 141.998 51.5C141.998 51.5 137.998 43.5 129.998 37C121.998 30.5 106.998 30 106.998 30C106.998 30 108.998 34.5 112.498 37C115.998 39.5 118.498 40.5 118.498 40.5C90.424 40.5 59.8657 51.5523 48.4975 77C37.9994 100.5 37.7495 129 53.4989 150C78.6491 183.535 148.01 178.794 154.498 135Z" fill="black"></path>
<path d="M138.291 50.9646C140.457 55.055 138.896 60.1263 134.806 62.2916C130.715 64.4569 125.644 62.8962 123.479 58.8057C121.313 54.7153 123.757 48.2761 125.549 46.8963C127.341 45.5165 136.126 46.8741 138.291 50.9646Z" fill="white"></path>
<path d="M136.636 52.2189C137.762 54.3459 135.456 59.7472 133.329 60.8731C131.202 61.9991 126.675 59.6785 125.549 57.5515C124.423 55.4244 125.69 50.2407 127.817 49.1148C129.944 47.9888 135.51 50.0918 136.636 52.2189Z" fill="black"></path>
<path d="M130.612 55.0614C131.391 56.534 133.769 56.772 132.296 57.5515C130.824 58.331 128.998 57.7691 128.219 56.2966C127.439 54.824 128.001 52.9983 129.474 52.2189C130.946 51.4394 129.832 53.5889 130.612 55.0614Z" fill="white"></path>
<path d="M132.549 167.237C132.549 167.237 96.8883 134.163 100.223 130.245C103.558 126.327 108.868 139.477 118.367 130.477C127.866 121.477 114.401 102.981 109.367 101.956C104.333 100.931 112.028 118.643 99.4235 106.456C86.8189 94.2688 75.2346 114.171 72.8673 120.838C70.5 127.505 74.5477 134.176 74.5477 134.176L82.889 120.838C82.889 120.838 79.6284 141.456 81.9508 150.58C84.2732 159.704 99.4235 165.432 99.4235 165.432L92.0255 130.477C92.0255 130.477 99.0105 151.258 101.527 155.508C104.043 159.758 132.549 167.237 132.549 167.237Z" fill="#3E3E60"></path>
<path d="M85.5634 121.895C87.7876 126.651 93.446 128.704 98.2019 126.479C102.958 124.255 105.01 118.597 102.786 113.841C100.562 109.085 93.061 106.898 90.5873 107.577C88.1135 108.257 83.3392 117.139 85.5634 121.895Z" fill="white"></path>
<path d="M87.8305 121.253C88.9871 123.726 95.4536 125.329 97.9267 124.173C100.4 123.016 101.392 117.332 100.235 114.858C99.0788 112.385 93.5192 109.99 91.0462 111.147C88.5731 112.303 86.6739 118.78 87.8305 121.253Z" fill="#3E3E60"></path>
<path d="M94.5211 117.741C95.3218 119.453 93.9123 121.769 95.6245 120.968C97.3366 120.167 98.0754 118.13 97.2747 116.418C96.474 114.706 94.437 113.967 92.7249 114.768C91.0127 115.569 93.7204 116.029 94.5211 117.741Z" fill="white"></path>
<path d="M144.48 139.547C146.667 143.678 145.091 148.799 140.96 150.986C136.829 153.173 131.708 151.597 129.521 147.466C127.334 143.335 129.802 136.832 131.612 135.438C133.421 134.045 142.294 135.416 144.48 139.547Z" fill="white"></path>
<path d="M142.808 140.814C143.946 142.962 141.617 148.417 139.469 149.554C137.321 150.691 132.749 148.347 131.612 146.199C130.475 144.051 131.754 138.816 133.902 137.679C136.05 136.542 141.671 138.665 142.808 140.814Z" fill="black"></path>
<path d="M136.725 143.684C137.512 145.171 139.913 145.412 138.426 146.199C136.939 146.986 135.095 146.419 134.308 144.932C133.521 143.444 134.088 141.601 135.575 140.814C137.062 140.026 135.937 142.197 136.725 143.684Z" fill="white"></path>
</svg>