<svg height="100%" viewBox="0 0 200 200" width="100%" xmlns="http://www.w3.org/2000/svg">
<path d="M48.7368 167.128L56.8048 154.642L60.4442 154.711L52.0807 167.757L57.1399 169.554L58.9348 176.32L55.8478 172.483L49.8907 171.477L43.4402 178.362L41.2112 183.609L40.0573 179.259L45.1565 171.181L35.9741 173.617L30.5594 176.606L33.755 171.102L43.4207 168.538L33.6663 164.918L28.8039 164.139L34.3469 161.634L48.7368 167.128Z" fill="#3E3E60"></path>
<path d="M51.7067 162.716L51.5589 152.41L61.5205 145.111L68.4047 151.562L54.636 164.008L51.7067 162.716Z" fill="black"></path>
<path d="M133.44 42L109 25.5C80.9258 25.5 55.3078 49.5523 43.9396 75C33.4415 98.5 28.1899 124 43.9393 145C59.6886 166 72.5 164 109 151.5C145.5 139 160.5 143 160.5 143C160.5 143 151.44 122.5 133.44 117C115.44 111.5 104.439 110 95.4393 93.5C79.5854 64.4346 111.322 45.828 133.44 42Z" fill="black"></path>
<path d="M182.256 164.287C179.992 161.662 154.073 132.795 154.073 132.795L141.109 139.634C141.109 139.634 135.393 159.637 135.84 163.907C136.287 168.178 140.834 175.464 143.259 173.609C145.684 171.754 146.483 148.337 146.483 148.337C146.483 148.337 147.764 179.65 150.209 179.831C152.653 180.012 161.206 182.16 162.595 178.279C163.983 174.399 152.741 142.782 152.741 142.782C152.741 142.782 168.444 174.462 171.716 176.059C174.988 177.657 184.52 166.912 182.256 164.287Z" fill="black"></path>
<path d="M114.293 35.4626C116.458 39.5531 114.898 44.6244 110.807 46.7896C106.717 48.9549 101.646 47.3942 99.4803 43.3037C97.315 39.2132 99.759 32.774 101.551 31.3942C103.342 30.0144 112.128 31.3721 114.293 35.4626Z" fill="white"></path>
<path d="M112.638 36.7168C113.764 38.8439 111.458 44.2452 109.331 45.3712C107.203 46.4971 102.677 44.1765 101.551 42.0495C100.425 39.9224 101.692 34.7386 103.819 33.6127C105.946 32.4868 111.512 34.5898 112.638 36.7168Z" fill="black"></path>
<path d="M106.613 39.5594C107.393 41.032 109.771 41.27 108.298 42.0495C106.826 42.829 105 42.2671 104.22 40.7946C103.441 39.322 104.003 37.4963 105.475 36.7168C106.948 35.9373 105.834 38.0869 106.613 39.5594Z" fill="white"></path>
<path d="M13.2639 157.237C13.2639 157.237 48.9243 124.163 45.5894 120.245C42.2545 116.327 36.945 129.477 27.4457 120.477C17.9465 111.477 31.4116 92.9809 36.4455 91.9557C41.4793 90.9306 33.7846 108.643 46.3891 96.4557C58.9937 84.2688 70.578 104.171 72.9453 110.838C75.3126 117.505 71.2649 124.176 71.2649 124.176L62.9236 110.838C62.9236 110.838 66.1842 131.456 63.8618 140.58C61.5394 149.704 46.3891 155.432 46.3891 155.432L53.7871 120.477C53.7871 120.477 46.8021 141.258 44.286 145.508C41.7699 149.758 13.2639 157.237 13.2639 157.237Z" fill="#3E3E60"></path>
<path d="M60.2492 111.895C58.025 116.651 52.3666 118.704 47.6107 116.479C42.8548 114.255 40.8025 108.597 43.0267 103.841C45.2508 99.0849 52.7516 96.8976 55.2253 97.5771C57.6991 98.2565 62.4734 107.139 60.2492 111.895Z" fill="white"></path>
<path d="M57.9821 111.253C56.8255 113.726 50.3589 115.329 47.8859 114.173C45.4128 113.016 44.4206 107.332 45.5772 104.858C46.7338 102.385 52.2933 99.9902 54.7664 101.147C57.2395 102.303 59.1387 108.78 57.9821 111.253Z" fill="#3E3E60"></path>
<path d="M51.2915 107.741C50.4908 109.453 51.9003 111.769 50.1881 110.968C48.476 110.167 47.7372 108.13 48.5379 106.418C49.3386 104.706 51.3756 103.967 53.0877 104.768C54.7999 105.569 52.0922 106.029 51.2915 107.741Z" fill="white"></path>
<path d="M152.803 125.319C152.803 125.319 123.231 86.7047 119.017 89.6561C114.802 92.6075 127.394 99.1308 117.54 107.741C107.686 116.351 90.5397 101.206 89.9928 96.0975C89.4458 90.9895 106.355 100.317 95.4084 86.6214C84.4617 72.926 105.366 63.2658 112.226 61.5364C119.086 59.8069 125.346 64.4644 125.346 64.4644L111.283 71.5136C111.283 71.5136 132.116 70.2076 140.981 73.3782C149.846 76.5488 154.123 92.1709 154.123 92.1709L120.019 81.5166C120.019 81.5166 140.051 90.4261 144.045 93.3309C148.039 96.2357 152.803 125.319 152.803 125.319Z" fill="#3E3E60"></path>
<path d="M138.379 125.695C141.115 130.864 139.143 137.272 133.975 140.008C128.806 142.744 122.398 140.772 119.661 135.603C116.925 130.435 120.014 122.298 122.278 120.554C124.542 118.811 135.643 120.526 138.379 125.695Z" fill="white"></path>
<path d="M136.287 127.28C137.71 129.968 134.796 136.793 132.108 138.216C129.421 139.639 123.7 136.706 122.278 134.019C120.855 131.331 122.456 124.78 125.144 123.358C127.831 121.935 134.864 124.592 136.287 127.28Z" fill="black"></path>
<path d="M128.675 130.872C129.66 132.733 132.665 133.034 130.804 134.019C128.943 135.003 126.636 134.294 125.651 132.433C124.666 130.572 125.376 128.265 127.237 127.28C129.098 126.295 127.69 129.011 128.675 130.872Z" fill="white"></path>
<path d="M116.833 80.634C117.907 85.7733 114.611 90.81 109.472 91.8839C104.333 92.9577 99.2959 89.6621 98.222 84.5228C97.1482 79.3835 101.837 73.1335 104.224 72.193C106.61 71.2524 115.759 75.4947 116.833 80.634Z" fill="white"></path>
<path d="M114.634 81.4805C115.192 84.1529 110.981 89.315 108.308 89.8735C105.636 90.4319 101.432 86.4792 100.873 83.8067C100.315 81.1343 103.326 75.8826 105.998 75.3242C108.67 74.7658 114.076 78.8081 114.634 81.4805Z" fill="#3E3E60"></path>
<path d="M107.174 82.6846C107.561 84.5347 110.078 85.5418 108.228 85.9284C106.377 86.315 104.564 85.1285 104.178 83.2784C103.791 81.4283 104.977 79.615 106.828 79.2284C108.678 78.8418 106.788 80.8344 107.174 82.6846Z" fill="white"></path>
<path d="M111.576 161.127L113.208 146.351L110.343 144.105L108.586 159.503L103.528 157.7L97.8631 161.811L102.68 160.787L107.934 163.77L108.586 173.181L106.999 178.657L110.641 176.014L111.791 166.531L117.37 174.22L119.681 179.957L120.679 173.672L114.806 165.578L124.654 168.934L128.916 171.401L126.201 165.957L111.576 161.127Z" fill="#3E3E60"></path>
<path d="M112.059 155.831L118.684 147.934L115.571 135.984L106.16 136.636L108.972 154.982L112.059 155.831Z" fill="black"></path>
<path d="M126.5 16.9998C126.5 16.9998 123 14.4998 119 15.4998C115 16.4998 111.655 24.314 111.655 24.314L126.5 16.9998Z" fill="black"></path>
<path d="M130.926 30.6C133.777 28.9621 130.924 25.3205 126.664 24.2484C122.405 23.1763 115.241 25.3204 115.241 25.3204C115.241 25.3204 128.075 32.238 130.926 30.6Z" fill="black"></path>
</svg>