<svg height="100%" viewbox="0 0 200 200" width="100%" xmlns="http://www.w3.org/2000/svg">
<path d="M102.9 72.5C82.2997 88.5224 85.5715 97.4583 73.5 109.53C56.7356 126.294 50.5 126.47 30.5 113.5C51.5 141.47 74.3999 143 98.5 141.5C122.6 140 121.231 106.929 131.067 103.352C140.903 99.7757 153.688 95.7594 159.5 89.5001C165.312 83.2408 179.719 64.7274 159.5 69.0001C139.281 73.2729 123.5 56.4776 102.9 72.5Z" fill="black"></path>
<path d="M137.051 74.7182C140.16 74.605 148.146 75.2937 148.146 75.2937L144.786 77.8649C144.786 77.8649 134.91 77.4899 132.222 79.5469C129.534 81.6038 128.065 83.8613 128.065 83.8613L125.455 79.0587L122.392 84.8025L123.689 78.1435L117.392 85.2295L123.142 77.4287L111 81.0544L123.939 75.6855C123.939 75.6855 133.941 74.8315 137.051 74.7182Z" fill="white"></path>
</svg>