<svg height="100%" viewBox="0 0 200 200" width="100%" xmlns="http://www.w3.org/2000/svg">
<path d="M126.433 104.148C106.433 112.148 117.176 106.5 76 106.5C57.2238 106.5 56.7508 118.789 51.5 124C45.236 130.216 27.5 129.032 27.5 129.032C27.5 129.032 74.442 144.279 90 136.5C99 132 126.067 116.352 141.5 124C156.933 131.648 177.433 113.648 177.433 113.648C177.433 113.648 175.433 114.314 164.433 117.648C153.433 120.982 146.433 96.1477 126.433 104.148Z" fill="black"></path>
<path d="M147.566 114.431C149.305 115.52 153.409 118.852 153.409 118.852L150.624 119.012C150.624 119.012 145.371 115.152 143.143 115.28C140.914 115.408 139.277 116.097 139.277 116.097L139.63 112.509L135.832 114.511L139.004 111.356L132.944 112.893L138.97 110.763L131 108.249L140.05 110.107C140.05 110.107 145.826 113.342 147.566 114.431Z" fill="white"></path>
<path d="M81.6025 106.868L104.448 121.17L100.681 111.892L97.9559 92.7799L80.268 74.0117L93.5512 94.3304L94.3929 108.804L75.8633 75.5621L73.4419 69.5978C73.4419 69.5978 66.6705 70.0879 64.3836 64.4549C62.0967 58.8219 59.8098 53.1889 56.6906 55.0443C53.5715 56.8997 63.4371 64.0306 66.536 69.7565C69.6348 75.4824 68.8229 75.3895 68.8229 75.3895L84.7418 97.4314L69.3358 86.1914L54.129 76.3961L51.2041 81.5914L39.3704 76.2893L31.5775 79.0325L43.6751 86.8926C43.6751 86.8926 28.1607 85.8785 23.904 87.7929C19.6473 89.7074 12.9422 85.5922 12.6631 88.7201C12.384 91.848 18.5527 88.9192 23.5601 89.8075C28.5676 90.6957 27.8102 95.5068 27.8102 95.5068L48.3288 93.586L81.6025 106.868Z" fill="black"></path>
<path d="M74.2911 96.201C75.9305 97.4356 79.7332 101.108 79.7332 101.108L76.9441 101.028C76.9441 101.028 72.0428 96.7303 69.8115 96.6663C67.5802 96.6023 65.8897 97.1476 65.8897 97.1476L66.5496 93.6037L62.5938 95.2716L66.0258 92.401L59.8557 93.4117L66.0428 91.8077L58.3184 88.6171L67.1755 91.2464C67.1755 91.2464 72.6517 94.9663 74.2911 96.201Z" fill="white"></path>
</svg>