<svg height="100%" viewbox="0 0 200 200" width="100%" xmlns="http://www.w3.org/2000/svg">
<path d="M132.676 115.568C112.676 124.763 95 106.379 84.5 70.7021C79.6536 54.2347 88.1222 51.0098 98.6469 52.3111C110.924 53.8291 115.5 23 115.5 23C115.5 23 108.09 53.2544 95 47.1386C72.8394 36.7845 50.5 31.6469 50.5 76.4492C50.5 116.002 132.309 129.596 147.743 138.387C163.176 147.177 183.676 126.487 183.676 126.487C183.676 126.487 181.676 127.253 170.676 131.085C159.676 134.917 152.676 106.372 132.676 115.568Z" fill="black"></path>
<path d="M93.0824 71.994L87.5 81.0469L83 77.5985L84.7311 72.8204L92.2593 60.8355L105.565 76.0704L104.226 94.7763L100.671 82.0377L93.0824 71.994Z" fill="#3E3E60"></path>
<path d="M45.5817 69.6952L53.5653 81.4168L55.5 76.4489L53.9329 70.5216L46.4048 58.5367L33.0988 73.7716L34.4376 92.4775L37.9932 79.7388L45.5817 69.6952Z" fill="#3E3E60"></path>
<path d="M155.392 128.604C157.26 129.507 161.76 132.498 161.76 132.498L159.005 133.205C159.005 133.205 153.296 129.833 151.092 130.399C148.888 130.965 147.342 132.053 147.342 132.053L147.25 127.93L143.714 130.911L146.484 126.744L140.638 129.627L146.377 126.081L138.127 124.744L147.372 125.135C147.372 125.135 153.525 127.701 155.392 128.604Z" fill="white"></path>
<path d="M84.7455 131.887L107.062 121.833L97.0774 120.963L78.5553 115.802L54.2653 120.776L78.1779 119.315L91.7076 124.04L53.8878 124.288L47.4691 123.728C47.4691 123.728 45.1636 128.437 39.1015 127.908C33.0394 127.38 26.9773 126.851 27.4001 129.615C27.823 132.379 38.3302 128.386 44.807 128.405C51.2837 128.425 50.8691 128.934 50.8691 128.934L77.423 126.34L60.9199 132.537L45.8142 139.13L49.3593 142.984L39.7186 148.962L39.0508 155.176L51.1296 149.957C51.1296 149.957 43.9 159.963 43.9143 163.509C43.9287 167.056 37.454 170.037 40.1906 171.366C42.9272 172.696 42.7656 167.5 45.6102 164.475C48.4548 161.451 52.5307 163.715 52.5307 163.715L59.1198 149.289L84.7455 131.887Z" fill="black"></path>
<path d="M73.4149 135.12C75.0062 133.63 78.6664 129.246 78.6664 129.246L75.8823 129.46C75.8823 129.46 71.1481 134.611 68.9208 134.782C66.6935 134.953 64.9835 134.4 64.9835 134.4L65.7778 138.442L61.7614 136.699L65.3001 139.846L59.096 138.955L65.3397 140.527L57.7422 144.53L66.4929 141.122C66.4929 141.122 71.8236 136.61 73.4149 135.12Z" fill="white"></path>
<path d="M122.423 105.285L102.664 120.883L107.637 110.893L114.309 90.373L131.515 70.0475L117.051 91.9839L112.865 107.509L134.257 71.6585L137.454 65.2364C137.454 65.2364 142.138 65.6831 145.157 59.6179C148.177 53.5526 151.196 47.4874 152.95 49.4401C154.704 51.3929 145.934 59.1521 142.316 65.3263C138.697 71.5005 139.296 71.3915 139.296 71.3915L122.534 95.2058L136.254 82.9773L149.475 72.2998L150.263 77.8353L159.975 72.0138L164.826 74.8639L154.292 83.4307C154.292 83.4307 165.554 82.1631 168.1 84.166C170.646 86.1688 176.425 81.6794 175.848 85.0293C175.27 88.3792 171.618 85.3112 167.844 86.3216C164.07 87.3321 163.415 92.4808 163.415 92.4808L149.33 90.6602L122.423 105.285Z" fill="black"></path>
<path d="M131.106 96.3158C129.141 96.9945 123.93 98.0188 123.93 98.0188L125.646 95.4894C125.646 95.4894 132.01 93.8728 133.383 91.8493C134.755 89.8257 135.317 87.8886 135.317 87.8886L137.782 90.9114L138.78 86.1117L139.062 91.2445L141.9 84.8407L139.53 91.6639L146.674 86.679L139.312 93.0952C139.312 93.0952 133.072 95.6372 131.106 96.3158Z" fill="white"></path>
</svg>