<svg height="100%" viewbox="0 0 200 200" width="100%" xmlns="http://www.w3.org/2000/svg">
<path d="M105.161 165.398L96.4436 173.519L91.7563 168.767L94.8888 164.177L106.596 153.461L119.359 172.809L113.667 192.14L112.145 177.857L105.161 165.398Z" fill="#3E3E60"></path>
<path d="M133.461 145.746L128.668 150.211L126.09 147.598L127.813 145.074L134.25 139.182L141.268 149.821L138.139 160.451L137.301 152.597L133.461 145.746Z" fill="#3E3E60"></path>
<path d="M137.94 110.589L132.021 139.572L128.99 127.592L119.617 106.02L119.744 75.5711L123.253 104.915L131.11 120.497L123.38 74.4664L121.431 66.7648C121.431 66.7648 125.924 63.0958 124.084 55.8221C122.244 48.5484 120.404 41.2748 123.417 41.2807C126.43 41.2866 124.427 54.7965 125.816 62.668C127.205 70.5394 127.656 69.9416 127.656 69.9416L130.524 102.705L133.592 81.4999L137.373 61.9209L142.2 65.5226L146.485 52.7015L152.918 50.7469L149.949 66.3932C149.949 66.3932 159.006 55.7629 162.76 55.1283C166.515 54.4937 168.3 46.073 170.285 49.156C172.27 52.239 166.739 52.9979 164.141 57.0127C161.542 61.0275 164.799 65.567 164.799 65.567L150.932 76.2311L137.94 110.589Z" fill="#3E3E60"></path>
<path d="M138.964 96.2169C137.725 98.4257 133.861 103.682 133.861 103.682L133.499 100.258C133.499 100.258 137.946 93.5544 137.657 90.8148C137.367 88.0753 136.421 86.0977 136.421 86.0977L140.864 86.3203L138.172 81.7572L142.249 85.4813L139.995 78.1016L142.977 85.4042L145.605 75.4305L143.851 86.697C143.851 86.697 140.204 94.0081 138.964 96.2169Z" fill="white"></path>
<path d="M150.164 100.938C149.803 127.519 112.701 137.453 95.9276 127.832C79.1543 118.21 91.3297 88.5459 75.5645 81.5521C36.0726 64.0327 2.13418 127.832 2.13418 127.832C2.13418 127.832 44.1592 74.3414 65.6916 93.176C82.2104 107.625 1.55347 162.983 52.1162 171.643C124.757 184.085 163.898 107.139 179.925 93.1759C195.953 79.2132 185.156 47.3234 185.156 47.3234C185.156 47.3234 184.967 49.9181 183.554 64.0327C182.141 78.1472 150.525 74.3561 150.164 100.938Z" fill="black"></path>
<path d="M50.0117 172.917L65.4153 168.652L61.407 164.399L54.7883 163.742L39.3395 167.379L48.1378 188.823L67.3167 195.008L56.3728 185.705L50.0117 172.917Z" fill="#3E3E60"></path>
<path d="M173.07 82.8371C175.242 81.5331 181.203 78.8827 181.203 78.8827L179.82 82.0364C179.82 82.0364 172.635 85.6542 171.529 88.1772C170.423 90.7002 170.264 92.8866 170.264 92.8866L166.515 90.491L166.592 95.7887L164.897 90.5335L163.197 98.06L164.226 90.2393L157 97.5991L164.108 88.6837C164.108 88.6837 170.899 84.141 173.07 82.8371Z" fill="white"></path>
<path d="M107.978 135.162C110.503 134.968 117.02 135.266 117.02 135.266L114.372 137.468C114.372 137.468 106.328 137.487 104.209 139.248C102.091 141.009 100.971 142.893 100.971 142.893L98.6904 139.073L96.388 143.845L97.2242 138.387L92.3351 144.356L96.7559 137.823L87 141.171L97.3468 136.38C97.3468 136.38 105.453 135.357 107.978 135.162Z" fill="white"></path>
<path d="M122.354 148.214L117.56 152.68L114.983 150.067L116.705 147.542L123.143 141.65L130.161 152.289L127.031 162.919L126.194 155.065L122.354 148.214Z" fill="#3E3E60"></path>
<path d="M124.221 101.714L132.838 142.599L122.178 128.777L97.909 106.089L80.9635 66.5596L102 102.615L120.939 118.392L85.0543 63.0848L78.2015 54.1993C78.2015 54.1993 81.9621 46.9199 75.49 38.5281C69.0178 30.1362 62.5456 21.7443 66.4539 20.0587C70.3621 18.3731 75.3577 37.0063 81.5814 46.4263C87.8051 55.8462 88.0536 54.8181 88.0536 54.8181L110.182 95.665L102.241 66.4607L96.1382 38.9638L104.417 40.919L102.766 21.8958L110.004 15.7481L114.949 37.6922C114.949 37.6922 120.712 18.8272 125.221 15.8949C129.73 12.9627 127.311 1.04718 131.615 3.92712C135.92 6.80707 129.179 10.8983 128.068 17.5613C126.957 24.2242 133.729 28.2768 133.729 28.2768L121.751 49.8887L124.221 101.714Z" fill="black"></path>
<path d="M117.473 82.5135C117.108 86.0724 115.055 95.0556 115.055 95.0556L112.661 90.8213C112.661 90.8213 114.657 79.6353 112.743 76.248C110.828 72.8606 108.491 70.8293 108.491 70.8293L114.374 68.6209L108.32 64.2206L115.696 66.7556L108.629 58.4588L116.597 66.2464L114.398 51.8446L118.455 67.4309C118.455 67.4309 117.838 78.9545 117.473 82.5135Z" fill="white"></path>
<defs></defs>
</svg>