<svg height="100%" viewbox="0 0 200 200" width="100%" xmlns="http://www.w3.org/2000/svg">
<path d="M112.512 88.3505L124.907 87.3496L125.861 98.8601H117.279L112.512 88.3505Z" fill="black"></path>
<path d="M115.559 140.444L131.589 144.336L124.3 134.322L108.531 129.821L106.222 154.331L120.661 169.907L115.194 155.63L115.559 140.444Z" fill="#3E3E60"></path>
<path d="M82.4768 121.38L94.8721 118.878L86.7675 114.374L74.3721 116.376L80.0931 133.892L94.8721 139.897L86.7675 131.89L82.4768 121.38Z" fill="#3E3E60"></path>
<path clip-rule="evenodd" d="M91.7519 114.541L71.6694 89.2582L39.4601 61.5362L15.6344 56.6331C15.6344 56.6331 18.3721 51.0985 13.0894 48.2656C10.9163 47.1002 8.26888 46.6446 6.01246 46.2563C2.78392 45.7006 0.355744 45.2827 1.26219 43.1205C2.06525 41.2049 4.06123 42.2792 6.5728 43.631C8.87745 44.8714 11.6162 46.3454 14.2658 45.9575C19.8028 45.1467 36.8509 51.8281 36.8509 51.8281L26.3285 38.0941L36.1667 37.5283L47.3951 48.085L52.7206 42.8496L65.9807 60.0109L78.8985 78.9843L69.6381 46.8057C69.6381 46.8057 70.5148 47.2034 69.2746 39.2089C68.775 35.988 67.1296 32.1056 65.6198 28.543C63.3821 23.2632 61.4422 18.6858 63.9708 18.0053C68.2056 16.8655 68.5691 24.4623 68.9325 32.059C69.296 39.6558 77.1025 41.4473 77.1025 41.4473L77.4873 49.491L85.2932 96.0924L90.02 78.3447L83.0481 49.1712L95.5808 78.0249L91.1533 102.029L91.7519 114.541ZM65.9204 77.0411L47.0621 59.3115L38.3812 57.1231L48.6444 56.5328L46.7842 53.5041L54.2036 56.2131L55.7643 61.9468L65.9204 77.0411Z" fill="#3E3E60" fill-rule="evenodd"></path>
<path clip-rule="evenodd" d="M70.3181 106.22L81.4926 81.6934L90.2849 46.9623L85.6833 26.8743C85.6833 26.8743 90.5522 26.9927 90.7744 21.9119C90.8659 19.8217 90.2911 17.6217 89.8012 15.7465C89.1002 13.0635 88.573 11.0457 90.4197 10.9665C92.0559 10.8963 91.9691 12.8175 91.86 15.2348C91.7598 17.4531 91.6408 20.0891 92.8167 21.9879C95.2742 25.956 96.3084 41.4691 96.3084 41.4691L102.51 28.4431L106.254 35.8077L102.553 48.2357L108.088 50.4523L100.377 66.8148L91.26 83.5648L111.018 64.8863C111.018 64.8863 111.032 65.7034 116.301 61.8787C118.424 60.3377 120.628 57.6779 122.651 55.2371C125.649 51.6199 128.248 48.484 129.591 50.1846C131.841 53.0328 126.557 56.0404 121.274 59.048C115.99 62.0556 117.366 68.7038 117.366 68.7038L111.772 71.8883L81.2553 94.6272L95.4922 91.8901L113.888 76.0509L97.6083 96.0527L79.0203 101.267L70.3181 106.22ZM88.2485 72.9491L94.4701 52.0536L93.0782 44.5821L96.988 52.273L98.5137 49.7518L99.1058 56.439L95.551 59.7021L88.2485 72.9491Z" fill="black" fill-rule="evenodd"></path>
<path d="M110.613 173.822C117.279 176.931 117.365 180.977 125.542 180.934C133.719 180.892 147.718 174.168 147.718 174.168C147.718 174.168 134.76 188.958 124.43 193.946C114.1 198.935 102.351 193.267 102.351 193.267C102.351 193.267 72.4651 177.932 65.1958 170.602C57.9266 163.272 42.4302 137.395 42.304 130.194C42.1778 122.992 45.7674 111.872 45.7674 111.872C45.7674 111.872 33.8488 114.874 31.465 116.876C29.0813 118.878 29.558 141.025 31.465 145.465C33.3721 149.906 47.1976 166.901 47.1976 166.901C47.1976 166.901 25.2674 149.906 20.9767 145.465C16.6859 141.025 16.686 105.797 20.9767 103.83C25.2674 101.863 52.9185 94.3558 52.9185 94.3558C52.9185 94.3558 55.8361 87.4733 58.4297 84.9091C61.0233 82.3449 108.06 68.4094 110.763 68.621C113.465 68.8327 122.046 98.8599 122.046 98.8599C122.046 98.8599 126.082 118.878 131.454 120.88C136.826 122.882 150.174 113.373 153.512 109.87C156.849 106.367 122.523 98.8599 122.523 98.8599L119.663 87.3494C119.663 87.3494 199.082 88.4605 197.989 96.1451C196.895 103.83 181.64 135.894 169.878 145.465C158.117 155.037 133.012 161.517 119.663 155.912C106.314 150.307 106.314 138.396 98.6861 132.891C91.0582 127.386 81.1249 127.421 81.0466 135.894C80.9682 144.366 85.6212 163.199 91.6769 166.901C97.7325 170.602 103.948 170.714 110.613 173.822Z" fill="black"></path>
<path d="M115.372 180.934C116.802 181.935 120.14 184.938 120.14 184.938H117.756C117.756 184.938 113.465 181.435 111.558 181.435C109.651 181.435 108.221 181.935 108.221 181.935L108.698 178.932L105.361 180.434L108.221 177.931L102.977 178.932L108.221 177.431L101.547 174.929L109.174 176.931C109.174 176.931 113.942 179.933 115.372 180.934Z" fill="white"></path>
<path d="M104.411 181.484C105.529 181.825 108.279 183.064 108.279 183.064L106.775 183.6C106.775 183.6 103.315 182.245 102.111 182.675C100.907 183.104 100.112 183.758 100.112 183.758L99.7684 181.661L97.9843 183.407L99.2527 181.105L96.1575 182.949L99.1453 180.773L94.3954 180.618L99.6397 180.227C99.6397 180.227 103.293 181.143 104.411 181.484Z" fill="white"></path>
<path clip-rule="evenodd" d="M92.4884 103.864L120.616 81.8442L152.081 45.8115L158.756 18.2865C158.756 18.2865 164.477 21.7896 167.814 15.7842C169.187 13.3137 169.834 10.2503 170.385 7.63928C171.174 3.90338 171.767 1.09362 174.012 2.27193C176.001 3.31584 174.736 5.58469 173.144 8.43962C171.683 11.0593 169.947 14.1725 170.198 17.2856C170.722 23.7912 162.57 43.3092 162.57 43.3092L177.826 31.7987V43.3092L165.907 55.8206L171.151 62.3265L152.081 76.8397L131.105 90.8524L165.907 81.8442C165.907 81.8442 165.43 82.8448 174.012 81.8442C177.469 81.441 181.7 79.738 185.583 78.1753C191.337 75.8593 196.326 73.8514 196.895 76.8397C197.849 81.8442 189.744 81.8442 181.64 81.8442C173.535 81.8442 171.151 90.8524 171.151 90.8524H162.57L112.512 97.3583L131.105 103.864L162.57 97.3583L131.105 110.37L105.837 103.864H92.4884ZM133.965 75.8387L153.988 54.8196L156.849 44.8106V56.8215L160.186 54.8196L156.849 63.3274L150.651 64.8287L133.965 75.8387Z" fill="#3E3E60" fill-rule="evenodd"></path>
<path d="M120.58 86.5491C118.159 88.2507 112.512 93.3553 112.512 93.3553H116.546C116.546 93.3553 123.807 87.3999 127.034 87.3999C130.261 87.3999 132.682 88.2507 132.682 88.2507L131.875 83.146L137.522 85.6983L132.682 81.4445L141.556 83.146L132.682 80.5937L143.977 76.3398L131.068 79.7429C131.068 79.7429 123 84.8476 120.58 86.5491Z" fill="white"></path>
<path d="M74.0427 139.243C74.7878 142.2 77.5481 149.467 77.5481 149.467L78.8608 145.462C78.8608 145.462 75.8592 136.317 76.9094 133.114C77.9596 129.91 79.5135 127.785 79.5135 127.785L74.6529 126.924L78.7897 122.149L73.3827 125.57L77.8034 117.315L72.6163 125.293L72.4601 112.697L71.3249 126.618C71.3249 126.618 73.2976 136.287 74.0427 139.243Z" fill="white"></path>
<path d="M64.8167 144.349C66.2006 147.04 68.9255 154.322 68.9255 154.322L65.3579 152.345C65.3579 152.345 61.5843 143.521 58.7302 141.939C55.8761 140.358 53.3573 139.925 53.3573 139.925L56.3406 135.805L50.2111 135.295L56.3836 133.905L47.7783 131.062L56.7619 133.153L48.6641 123.856L58.5673 133.191C58.5673 133.191 63.4327 141.659 64.8167 144.349Z" fill="white"></path>
<path d="M111.558 122.882L99.1628 120.38L107.268 115.875L119.663 117.877L113.942 135.393L99.1628 141.399L107.268 133.391L111.558 122.882Z" fill="#3E3E60"></path>
<path d="M145.463 142.655L125.861 138.632L138.677 131.39L158.279 134.608L149.232 162.771L125.861 172.427L138.677 159.552L145.463 142.655Z" fill="#3E3E60"></path>
<defs></defs>
</svg>