<svg height="100%" viewBox="0 0 200 200" width="100%" xmlns="http://www.w3.org/2000/svg">
<path d="M173.407 93.7131L172.046 109.443L171.55 110.454C167.182 109.472 161.702 108.851 160.365 107.94C159.029 107.028 159.304 105.129 159.304 105.129C159.304 105.129 158.782 102.686 156.234 103.034C153.685 103.383 149.451 101.714 149.451 101.714C149.451 101.714 153.014 104.144 155.466 104.598C157.919 105.052 157.308 107.074 157.308 107.074C157.308 107.074 156.66 106.534 153.648 106.485C150.637 106.437 146.847 114.159 146.847 114.159C146.847 114.159 150.318 109.818 153.045 108.927C155.771 108.037 157.061 110.819 157.061 110.819C157.061 110.819 153.946 108.908 153.013 110.808C152.081 112.709 151.477 115.15 151.477 115.15C151.477 115.15 153.469 110.485 156.587 112.612C159.704 114.739 160.308 112.297 160.308 112.297L162.151 114.809L171.154 113.213L174.717 112.614L174.547 109.327L175.159 99.5991L176.315 95.4859L179.303 96.7357L179.54 99.8854L180.81 96.4066L180.049 94.9448L179.066 93.5861L179.78 92.6053L180.973 92.7932L182.35 95.8922L181.967 91.6701L179.589 90.5724L178.638 90.0686L178.613 88.3212L182.675 88.6653L177.395 85.5876L177.235 89.9178L173.407 93.7131Z" fill="black"></path>
<path d="M172.932 92.2899L171.571 108.02L171.075 109.031C166.707 108.049 161.226 107.428 159.89 106.517C158.554 105.605 158.828 103.705 158.828 103.705C158.828 103.705 158.307 101.263 155.758 101.611C153.21 101.959 148.975 100.29 148.975 100.29C148.975 100.29 152.539 102.721 154.991 103.175C157.444 103.628 156.833 105.651 156.833 105.651C156.833 105.651 156.184 105.111 153.173 105.062C150.162 105.014 146.372 112.736 146.372 112.736C146.372 112.736 149.843 108.394 152.569 107.504C155.296 106.614 156.585 109.396 156.585 109.396C156.585 109.396 153.47 107.485 152.538 109.385C151.605 111.285 151.001 113.727 151.001 113.727C151.001 113.727 152.994 109.062 156.111 111.189C159.229 113.316 159.833 110.874 159.833 110.874L161.676 113.386L164.276 110.457L174.242 111.191L172.284 107.782L173.572 94.2058L178.075 94.1022L178.841 95.5737L180.81 96.4065L180.67 95.089L178.72 92.8313L175.569 93.0161L176.871 91.7902L178.551 90.5814L181.967 91.67L179.114 89.1492L177.757 89.4917L177.817 86.7286L181.395 87.9066L177.342 85.3055L176.559 86.7536L176.76 88.4946L172.932 92.2899Z" fill="#3E3E60"></path>
<path d="M144.413 60.4208C145.763 63.8761 154.355 74.658 154.355 74.658C154.355 74.658 143.323 63.2362 142.686 61.0956C142.049 58.9549 135.412 45.0202 131.395 43.4031C127.378 41.786 126.026 42.9116 118.365 44.709C110.704 46.5065 94.2969 43.755 91.9323 42.2891C89.5677 40.8232 82.5838 16.0903 82.322 14.4005C82.0603 12.7107 93.2436 9.50322 95.6219 11.9519C98.0002 14.4005 109.27 8.35027 109.27 8.35027C109.27 8.35027 96.8254 17.1318 94.6513 14.5591C92.4772 11.9865 86.7774 13.3594 85.4306 16.1514C84.0838 18.9434 89.5288 36.6988 93.3604 40.3375C97.192 43.9762 110.105 43.9528 118.554 42.644C127.003 41.3352 128.507 38.5575 132.41 41.4137C136.313 44.2698 143.064 56.9655 144.413 60.4208Z" fill="#3E3E60"></path>
<path d="M129.872 59.8129C129.872 59.8129 112.111 46.856 107.669 43.9447C103.227 41.0334 102.251 35.2436 98.1559 33.528C94.0604 31.8123 85.8832 24.0132 85.8832 24.0132C85.8832 24.0132 90.8254 31.1243 95.0022 34.5587C99.179 37.9932 96.6772 39.6835 96.6772 39.6835C96.6772 39.6835 92.5234 32.3146 87.2852 30.9725C82.0469 29.6303 77.4007 16.7501 77.4007 16.7501C77.4007 16.7501 80.6142 27.917 83.7373 32.1321C86.8603 36.3473 86.3295 37.3934 86.3295 37.3934C86.3295 37.3934 77.8394 31.4419 75.2318 28.8035C72.6241 26.1652 67.5531 18.6598 67.5531 18.6598L75.2011 34.0495C75.2011 34.0495 72.3051 32.7849 69.3186 30.7363C60.4492 24.652 55.946 29.8711 55.946 29.8711C55.946 29.8711 60.9419 27.8019 63.6861 29.5229C66.4302 31.244 68.3783 34.5342 68.3783 34.5342L44.7332 40.9536C44.7332 40.9536 39.6161 41.3171 33.8394 42.3325C29.1599 43.1551 24.2065 46.6442 22.4938 47.9398C22.0026 48.2568 21.8689 48.4267 21.8689 48.4267C21.8689 48.4267 22.0923 48.2435 22.4938 47.9398C23.294 47.4233 25.0429 46.5167 28.707 45.3191C34.6202 43.3863 39.722 45.6458 39.722 45.6458C39.722 45.6458 33.551 46.7901 29.6089 48.0785C26.9918 48.9339 24.6553 51.2361 23.3802 52.687C22.6421 53.3845 22.3612 53.938 22.3612 53.938C22.3612 53.938 22.7347 53.4216 23.3802 52.687C24.2465 51.8686 25.7425 50.852 28.1533 50.2996C32.6184 49.2765 34.8319 52.0437 34.8319 52.0437L28.5245 54.1052C24.1881 55.5226 25.2112 59.9878 25.2112 59.9878C25.2112 59.9878 25.4596 56.8523 27.8572 56.0686C30.2548 55.285 31.1398 55.4321 31.1398 55.4321L24.6943 81.1004C24.6943 81.1004 24.2234 94.3441 24.8676 96.3151C25.5119 98.2862 27.9216 112.334 27.9216 112.334C27.9216 112.334 27.6041 99.3477 27.2252 96.8535C26.8464 94.3594 29.4923 90.4403 29.4923 90.4403C29.4923 90.4403 30.7348 102.251 31.379 104.222C32.0233 106.193 39.0271 119.612 39.0271 119.612L34.2597 105.026C33.4866 102.661 35.2153 98.6053 35.2153 98.6053C35.2153 98.6053 36.2308 104.382 37.6634 106.095C39.0961 107.809 49.2766 116.262 49.2766 116.262C49.2766 116.262 43.5383 110.72 41.7191 107.824C39.8999 104.928 40.4459 101.259 40.4459 101.259C40.4459 101.259 59.1319 113.041 71.9891 112.329C84.8463 111.617 113.487 103.129 123.464 101.613C138.72 99.2958 156.628 126.989 144.408 130.983C132.187 134.977 124.189 134.537 116.995 131.216C109.801 127.895 105.928 117.38 96.1036 115.355C86.2789 113.331 65.8934 123.048 65.8934 123.048C65.8934 123.048 43.006 134.456 43.7484 142.067C44.4908 149.678 46.8101 156.774 56.8924 159.587C66.9747 162.4 77.3378 162.067 84.676 163.16C92.0142 164.252 100.27 165.48 96.4333 171.097C92.597 176.715 43.0029 179.835 43.0029 179.835C43.0029 179.835 101.11 178.732 107.304 173.653C113.498 168.574 99.7926 157.346 92.7198 155.731C85.6469 154.116 78.1646 155.252 71.759 151.674C65.3534 148.095 72.2069 142.364 77.2028 140.295C82.1987 138.226 89.0292 136.43 95.7078 138.174C102.386 139.918 105.479 149.379 118.692 155.096C131.905 160.813 147.802 156.053 147.802 156.053C147.802 156.053 161.713 154.56 169.901 144.903C188.36 123.131 157.848 83.0382 134.867 80.4332C119.008 78.6354 89.9265 95.1218 77.5924 96.0989C65.2583 97.076 51.9165 90.9649 46.8531 82.148C41.7896 73.3312 47.7565 62.2181 55.9138 57.8066C64.0711 53.3951 81.0022 51.5001 91.4997 64C101.997 76.4999 130.545 74.4961 149.316 76.5831C154.297 77.1368 173.454 75.675 173.454 75.675C173.454 75.675 175.356 72.0001 172.356 71.5001C169.356 71.0001 164.411 71.4575 160.5 67.5C156.588 63.5425 138.674 57.3725 136.203 53.8169C133.732 50.2613 123.392 46.6597 123.392 46.6597C123.392 46.6597 132.018 51.694 134.232 54.4611C136.445 57.2283 138.651 61.3069 138.651 61.3069C138.651 61.3069 131.328 57.5918 128.849 55.3477C126.371 53.1036 118.555 43.8772 118.555 43.8772L129.872 59.8129Z" fill="black"></path>
<path d="M173.919 151.85L159.666 158.643L158.543 158.727C157.178 154.464 154.937 149.423 155.046 147.81C155.156 146.196 156.933 145.47 156.933 145.47C156.933 145.47 158.775 143.784 157.184 141.762C155.592 139.741 154.887 135.245 154.887 135.245C154.887 135.245 154.596 139.548 155.447 141.893C156.298 144.237 154.245 144.735 154.245 144.735C154.245 144.735 154.382 143.902 152.898 141.281C151.415 138.66 142.837 139.303 142.837 139.303C142.837 139.303 148.339 140.097 150.487 141.997C152.636 143.897 150.89 146.418 150.89 146.418C150.89 146.418 150.96 142.764 148.849 142.923C146.738 143.081 144.327 143.797 144.327 143.797C144.327 143.797 149.359 143.152 149.104 146.917C148.849 150.683 151.26 149.967 151.26 149.967L150.028 152.828L155.964 159.782L158.284 162.552L161.032 160.74L169.731 156.341L173.125 156.622L172.433 159.082L173.268 162.265L175.345 159.597L174.708 156.503L175.782 156.155L178.102 156.784L178.544 157.907L176.569 160.664L180.016 158.196L179.758 155.589L178.775 154.593L181.205 153.608L182.965 157.285L182.945 151.173L179.13 153.228L173.919 151.85Z" fill="black"></path>
<path d="M174.905 150.719L160.652 157.513L159.53 157.597C158.164 153.333 155.924 148.293 156.033 146.679C156.142 145.066 157.919 144.34 157.919 144.34C157.919 144.34 159.761 142.653 158.17 140.632C156.579 138.611 155.874 134.115 155.874 134.115C155.874 134.115 155.583 138.418 156.433 140.762C157.284 143.107 155.231 143.605 155.231 143.605C155.231 143.605 155.368 142.772 153.885 140.151C152.402 137.529 143.824 138.173 143.824 138.173C143.824 138.173 149.325 138.967 151.474 140.867C153.623 142.767 151.877 145.288 151.877 145.288C151.877 145.288 151.947 141.634 149.836 141.792C147.725 141.951 145.314 142.667 145.314 142.667C145.314 142.667 150.346 142.022 150.091 145.787C149.836 149.552 152.247 148.836 152.247 148.836L151.015 151.698L154.857 152.457L156.654 155.923L158.451 159.39L161.219 158.007L173.578 152.241L174.137 154.561L174.197 158.883L175.346 159.597L175.594 158.818L175.359 156.124L175.615 153.361L177.332 153.863L179.088 155.654L180.016 158.196L180.744 154.459L179.762 153.462L182.175 152.115L182.971 155.796L183.161 150.985L181.516 151.043L180.117 152.098L174.905 150.719Z" fill="#3E3E60"></path>
<path d="M157.635 70.1321L158.868 74.1779L157.189 73.0934C157.189 73.0934 158.168 72.7586 157.757 71.3703C157.346 69.982 154.21 69.2199 154.21 69.2199L155.317 72.7067C155.317 72.7067 151.729 73.6326 151.775 69.8773C151.821 66.122 146.369 69.9944 146.369 69.9944C146.369 69.9944 150.39 65.013 151.785 66.1254C153.181 67.2378 157.635 70.1321 157.635 70.1321Z" fill="white"></path>
<path d="M88.1087 39.2429L91.4958 45.0468L88.5032 43.9846C88.5032 43.9846 89.8944 43.1086 88.7509 41.1125C87.6074 39.1165 82.4808 39.0859 82.4808 39.0859L85.4675 44.0718C85.4675 44.0718 80.2591 46.8165 78.9557 40.9936C77.6523 35.1707 70.64 43.1533 70.64 43.1533C70.64 43.1533 75.0336 33.9799 77.5988 35.1889C80.1641 36.398 88.1087 39.2429 88.1087 39.2429Z" fill="white"></path>
<path d="M58.4646 131.603L62.6828 131.913L61.0656 133.087C61.0656 133.087 61.1066 132.053 59.6635 131.935C58.2205 131.818 56.3785 134.467 56.3785 134.467L60.0296 134.693C60.0296 134.693 59.5986 138.374 56.1128 136.976C52.627 135.578 54.2715 142.06 54.2715 142.06C54.2715 142.06 51.0763 136.513 52.6174 135.612C54.1586 134.712 58.4646 131.603 58.4646 131.603Z" fill="white"></path>
<path d="M107.343 51.6227L108.392 53.7622L107.361 53.3097C107.361 53.3097 107.875 53.0356 107.522 52.3004C107.169 51.5652 105.357 51.4226 105.357 51.4226L106.285 53.2625C106.285 53.2625 104.373 54.0993 104.061 52.0067C103.75 49.914 101.065 52.5568 101.065 52.5568C101.065 52.5568 102.855 49.4256 103.731 49.9191C104.607 50.4126 107.343 51.6227 107.343 51.6227Z" fill="white"></path>
<path d="M122.548 57.426C125.156 60.0643 148.43 71.2007 148.43 71.2007C148.43 71.2007 122.662 60.4432 121.229 58.7298C119.796 57.0165 108.183 46.8498 103.854 46.9556C99.5258 47.0614 98.7297 48.6306 92.407 53.3152C86.0842 57.9997 69.9292 61.971 67.1774 61.5614C64.4255 61.1519 48.0875 40.3107 47.1779 38.8627C43.3801 32.8169 61.551 20.1189 64.3573 17.9999C64.3573 17.9999 56.0937 29.3327 53.8572 30.5C51.6208 31.6673 49.6742 34.9926 49.5432 38.0896C49.4123 41.1867 62.7564 57.3801 67.7158 59.2038C72.6751 61.0275 84.5227 55.8921 91.7627 51.3441C99.0027 46.7961 99.2834 43.6501 103.999 44.7269C108.714 45.8036 119.941 54.7877 122.548 57.426Z" fill="#3E3E60"></path>
<defs></defs>
</svg>