<svg height="100%" viewBox="0 0 200 200" width="100%" xmlns="http://www.w3.org/2000/svg">
<path d="M24.5 170C24.5 170 28 171 31 173.5C34 176 43.5 176.5 43.5 176.5H33C33 176.5 26.5 179 26 180C25.5 181 29 183 29 183C29 183 23 180.5 22.5 180C22 179.5 28 177.5 28 177.5C28 177.5 22.5 177 20 177.5C17.5 178 11.5 186 11.5 186C11.5 186 13 182 13.5 180.5C14 179 16.5 176.5 16.5 176.5L3.5 178.5L15.5 174.5C15.5 174.5 2.5 169 2 166.5C1.5 164 3 150.5 3 150.5C3 150.5 3 164.5 6 167C9 169.5 22.5 172.5 22.5 172.5C22.5 172.5 17 166.5 16 165C15 163.5 15.5 152.5 15.5 152.5C15.5 152.5 16.5 161.5 17 163.5C17.5 165.5 24.5 170 24.5 170Z" fill="#3E3E60"></path>
<path d="M171.726 75.397C172.897 79.713 181.804 93.746 181.804 93.746C181.804 93.746 170.055 78.6309 169.568 75.9828C169.081 73.3346 162.924 55.7748 158.318 53.3179C153.713 50.8609 151.946 52.0355 142.531 53.2009C133.116 54.3663 113.805 48.95 111.16 46.8876C108.515 44.8252 100.595 10.5593 100.499 8.5C100.404 6.44066 117.147 10.0167 119.499 11.0001C121.852 11.9835 135.499 31.5001 135.499 31.5001C135.499 31.5001 120.273 17.3644 117.999 14C115.726 10.6356 105.974 7.82735 103.999 11.0001C102.025 14.1728 109.001 39.8765 113.124 44.7327C117.247 49.5889 132.728 51.228 143.024 50.7501C153.321 50.2721 155.482 47.1368 159.792 51.0643C164.102 54.9918 170.554 71.081 171.726 75.397Z" fill="#3E3E60"></path>
<path d="M128.385 139.393L114.334 155.792L112.894 156.533C107.917 152.11 101.196 147.238 100.15 145.207C99.1044 143.176 100.946 141.28 100.946 141.28C100.946 141.28 102.165 138.174 98.5428 136.614C94.9207 135.054 90.6556 129.972 90.6556 129.972C90.6556 129.972 93.4448 135.386 96.3152 137.762C99.1857 140.137 96.8066 141.913 96.8066 141.913C96.8066 141.913 96.3745 140.819 92.4538 138.466C88.5331 136.113 77.5309 141.78 77.5309 141.78C77.5309 141.78 85.4781 139.617 89.7566 140.712C94.0351 141.807 93.5616 145.875 93.5616 145.875C93.5616 145.875 90.9565 141.378 88.2491 142.773C85.5417 144.168 82.8445 146.413 82.8445 146.413C82.8445 146.413 89.1002 142.763 91.5407 147.501C93.9813 152.239 96.6784 149.993 96.6784 149.993L97.1432 154.185L110.222 159.289L115.373 161.346L117.711 157.572L126.1 147.256L130.848 145.667L133.999 147L138.999 152.5L137.999 148.5L135.999 145.5L134.058 143.585L137.627 143.031L141.499 144L145.999 148.5L144.499 143.5L138.96 140.632L136.909 139.975L142.499 139L148.499 142.5L143.999 136.5L140.999 134.5L136.376 138.109L128.385 139.393Z" fill="black"></path>
<path d="M128.87 137.453L114.818 153.851L113.378 154.593C108.402 150.17 101.681 145.297 100.635 143.267C99.5889 141.236 101.43 139.339 101.43 139.339C101.43 139.339 102.649 136.234 99.0273 134.674C95.4052 133.114 91.1402 128.031 91.1402 128.031C91.1402 128.031 93.9293 133.446 96.7998 135.821C99.6702 138.197 97.2911 139.972 97.2911 139.972C97.2911 139.972 96.8591 138.879 92.9383 136.526C89.0176 134.173 78.0154 139.84 78.0154 139.84C78.0154 139.84 85.9627 137.677 90.2412 138.771C94.5197 139.866 94.0461 143.935 94.0461 143.935C94.0461 143.935 91.441 139.438 88.7336 140.833C86.0262 142.227 83.329 144.473 83.329 144.473C83.329 144.473 89.5847 140.822 92.0253 145.56C94.4658 150.298 97.1629 148.053 97.1629 148.053L97.6277 152.244L103.329 150.983L115.857 159.406L115.942 154.132L128.218 140.065L130.68 142.576L134.438 145L138.112 149L137.394 147L136.017 144L131.771 140.271L134.438 139.907L138.112 141.091L144.499 143.5L140.499 138.5L137.394 138.035L142.499 136L146.499 139.907L143.499 133.5L137.953 134.085L136.861 136.168L128.87 137.453Z" fill="#3E3E60"></path>
<path d="M85.8773 78.4856L75.6655 94.5497L74.5725 95.3544C70.4481 91.873 64.9327 88.1583 64.0112 86.4398C63.0898 84.7213 64.4407 82.8422 64.4407 82.8422C64.4407 82.8422 65.2431 79.9401 62.3236 78.8937C59.404 77.8473 55.8053 73.7056 55.8053 73.7056C55.8053 73.7056 58.2625 78.2883 60.6326 80.1387C63.0028 81.989 61.2242 83.8119 61.2242 83.8119C61.2242 83.8119 60.8309 82.8735 57.6377 81.1452C54.4446 79.4169 46.0929 85.5657 46.0929 85.5657C46.0929 85.5657 52.2214 82.8546 55.6328 83.4202C59.0443 83.9859 58.8746 87.6788 58.8746 87.6788C58.8746 87.6788 56.6073 83.9012 54.5522 85.4143C52.4971 86.9274 50.4922 89.2025 50.4922 89.2025C50.4922 89.2025 55.2196 85.3225 57.3696 89.3323C59.5197 93.3421 61.5245 91.0671 61.5245 91.0671L62.0972 94.7794L72.613 98.0836L76.7565 99.4274L78.4039 95.8175L84.4745 85.7553L87.9998 82L90.4998 85L88.9998 88.5L92.2944 85.4868L92.2944 83.5L91.9998 81.5L93.3093 80.8486L94.4796 81.7132L94.2277 85.794L96.1682 81.0657L94.2364 78.5681L93.4998 77.5L94.4458 75.6175L98.5981 78.2466L94.6646 72.016L92.0835 76.5578L85.8773 78.4856Z" fill="black"></path>
<path d="M86.1607 76.6991L75.9489 92.7632L74.8559 93.5679C70.7315 90.0865 65.2161 86.3718 64.2946 84.6533C63.3732 82.9348 64.7241 81.0557 64.7241 81.0557C64.7241 81.0557 65.5265 78.1536 62.6069 77.1072C59.6874 76.0608 56.0887 71.9191 56.0887 71.9191C56.0887 71.9191 58.5459 76.5018 60.916 78.3522C63.2862 80.2025 61.5076 82.0254 61.5076 82.0254C61.5076 82.0254 61.1143 81.087 57.9211 79.3587C54.728 77.6304 46.3763 83.7792 46.3763 83.7792C46.3763 83.7792 52.5048 81.0681 55.9162 81.6337C59.3277 82.1994 59.158 85.8923 59.158 85.8923C59.158 85.8923 56.8907 82.1147 54.8356 83.6278C52.7805 85.1409 50.7756 87.416 50.7756 87.416C50.7756 87.416 55.5029 83.536 57.653 87.5458C59.803 91.5556 61.8079 89.2806 61.8079 89.2806L62.3806 92.9929L66.7915 91.3081L77.0398 97.6409L76.8444 92.9054L85.7786 79.1041L90.6518 81.5L90.6518 83.5L92.2939 85.4867L92.8779 84L92.0492 80.5L88.5766 78.9437L90.6518 78.3576L93.1209 78L96.1677 81.0656L94.5198 76.7816L92.8779 76.3925L94.481 73.4715L97.6506 76.7224L94.7649 71.6851L93.1209 72.7975L92.3669 74.7713L86.1607 76.6991Z" fill="#3E3E60"></path>
<path d="M101 128C88.4998 116.866 54.9998 121 54.9998 121C54.9998 121 51.9998 118 42.9998 116C33.9998 114 28.9998 116 28.9998 116C28.9998 116 36.4998 115 40.9998 118C45.4998 121 42.9998 123.5 42.9998 123.5C42.9998 123.5 38.9998 123 33.9998 121C28.9998 119 17.9998 120 17.9998 120C17.9998 120 24.4998 121 28.9998 122C33.4998 123 33.9998 126.5 33.9998 126.5C33.9998 126.5 29.4998 123.5 24.4998 125C19.4998 126.5 11.4998 126.5 11.4998 126.5C11.4998 126.5 15.4998 129.5 20.4998 130C25.4998 130.5 27.9998 130 27.9998 130C27.9998 130 20.4998 152.5 30.9998 159.5C41.4998 166.5 53.4998 170 61.4998 174C69.4998 178 75.9998 183 71.9998 187.5C67.9998 192 57.9512 177.705 43.9998 175C27.257 171.754 7.49979 177.5 7.49979 177.5C7.49979 177.5 25.8613 173.358 43.4998 178C61.5546 182.752 59.9998 196 76.4998 193.5C92.9998 191 80.9998 173 73.4998 168.5C65.9998 164 56.9998 162.5 50.9998 156C39.7392 143.801 71.9998 137.5 83.4998 149.5C104.44 171.351 133 202.5 166 185C199 167.5 175.359 109.593 150 98C132.5 90 92.9998 98 78.4998 94.5C63.9998 91 50.9998 79 48.4998 67C45.9998 55 56.9998 38.5 73.4998 40.5C89.9998 42.5 87.4998 65.5 110.5 77.5C131.914 88.6726 147.271 89.5778 168 99C173.5 101.5 188 104 188 104C188 104 195 101 191 99C187 97 183 94.5 178 87.5C173 80.5 163 73 161.5 68C160 63 149.5 55 149.5 55C155.655 61.9249 161.103 67 161.5 77.5C161.5 77.5 154.5 70.5 152.5 67C150.5 63.5 145 50 145 50L152 72.5C122.5 43.5 134.992 38.7019 125.5 30.5C121.449 27 115 15 115 15C115 15 118 25 121.5 30.5C125 36 121.5 37 121.5 37C121.5 37 119.5 27 114 23.5C108.5 20 108 3.5 108 3.5C108 3.5 107.5 17.5 109.5 23.5C111.5 29.5 110.5 30.5 110.5 30.5C110.5 30.5 103 20.5 101 16.5C98.9998 12.5 95.9998 2 95.9998 2L98.9998 22.5C98.9998 22.5 96.1548 19.9662 93.4998 16.5C85.6149 6.20583 78.4998 10.5 78.4998 10.5C85.4875 9.96249 89.5338 13.903 90.9998 20.5L61.4998 19C61.4998 19 55.4998 17.5 48.4998 16.5C42.8292 15.6899 35.8462 17.8329 33.3983 18.6761C32.7168 18.8553 32.4998 19 32.4998 19C32.4998 19 32.8244 18.8738 33.3983 18.6761C34.5087 18.384 36.8524 18 41.4998 18C48.9998 18 53.9998 22.5 53.9998 22.5C53.9998 22.5 46.4998 21.5 41.4998 21.5C38.1804 21.5 34.6407 23.2629 32.6361 24.4481C31.529 24.9708 30.9998 25.5 30.9998 25.5C30.9998 25.5 31.6212 25.0481 32.6361 24.4481C33.9353 23.8346 36.0303 23.23 38.9998 23.5C44.4998 24 45.9998 28 45.9998 28H37.9998C32.4998 28 31.9998 33.5 31.9998 33.5C31.9998 33.5 33.4588 30 36.4998 30C39.5408 30 40.4998 30.5 40.4998 30.5L23.4998 57.5C23.4998 57.5 17.9998 72.5 17.9998 75C17.9998 77.5 15.4998 94.5 15.4998 94.5C15.4998 94.5 19.9998 79.5 20.4998 76.5C20.9998 73.5 25.4998 70 25.4998 70C25.4998 70 22.4998 84 22.4998 86.5C22.4998 89 25.4998 107 25.4998 107V88.5C25.4998 85.5 28.9998 81.5 28.9998 81.5C28.9998 81.5 27.9998 88.5 28.9998 91C29.9998 93.5 38.4998 107 38.4998 107C38.4998 107 33.9998 98.5 32.9998 94.5C31.9998 90.5 33.9998 86.5 33.9998 86.5C59.9999 125 92.0755 111.846 129 118C147.35 121.058 163 162 147.5 162C113.491 162 117.735 142.906 101 128Z" fill="black"></path>
<path d="M107.69 183.503L88.3765 173.842L87.3081 172.625C90.3941 166.725 93.4936 159.024 95.2103 157.517C96.927 156.01 99.2133 157.338 99.2133 157.338C99.2133 157.338 102.522 157.768 103.158 153.876C103.794 149.984 107.692 144.615 107.692 144.615C107.692 144.615 103.114 148.632 101.505 151.993C99.8955 155.353 97.5964 153.475 97.5964 153.475C97.5964 153.475 98.5528 152.791 99.8861 148.417C101.219 144.043 93.0558 134.741 93.0558 134.741C93.0558 134.741 97.0796 141.928 97.0539 146.344C97.0281 150.76 92.966 151.286 92.966 151.286C92.966 151.286 96.6977 147.67 94.6889 145.381C92.68 143.092 89.8478 141.019 89.8478 141.019C89.8478 141.019 94.905 146.204 90.8993 149.719C86.8937 153.235 89.7259 155.308 89.7259 155.308L85.7714 156.774L83.9878 170.7L83.2393 176.196L87.4671 177.55L99.5082 183.19L102.2 187.412L99.1231 189.1L96.6582 193.29L101.158 193L103.707 189.129L104.998 190.022L106.399 193.351L105.658 195L101.158 195.5L106.658 197L109.05 194.063L109.19 191.914L112.309 193.736L110.158 199.5L116.279 193.29L110.872 190.945L107.69 183.503Z" fill="black"></path>
<path d="M109.69 183.503L90.3759 173.842L89.3075 172.625C92.3935 166.725 95.493 159.024 97.2097 157.517C98.9264 156.01 101.213 157.338 101.213 157.338C101.213 157.338 104.521 157.768 105.157 153.876C105.793 149.984 109.692 144.615 109.692 144.615C109.692 144.615 105.114 148.632 103.504 151.993C101.895 155.353 99.5958 153.475 99.5958 153.475C99.5958 153.475 100.552 152.791 101.886 148.417C103.219 144.043 95.0553 134.741 95.0553 134.741C95.0553 134.741 99.0791 141.928 99.0533 146.344C99.0276 150.76 94.9655 151.286 94.9655 151.286C94.9655 151.286 98.6972 147.67 96.6883 145.381C94.6795 143.092 91.8473 141.019 91.8473 141.019C91.8473 141.019 96.9044 146.204 92.8988 149.72C88.8931 153.235 91.7253 155.308 91.7253 155.308L87.7708 156.774L90.3759 162L86.5 172.625L92.8988 178L106.997 183.503L105.158 186.5L100.869 190.945L101.158 193L102.158 192.5L104.658 189.5L107.658 187L108.658 189.5L108.399 193.351L106.658 197L111.05 194.063L111.19 191.914L114.658 193.351L111.658 198L116.658 193.351L115.158 191.5L112.871 190.945L109.69 183.503Z" fill="#3E3E60"></path>
<path d="M67.2835 64.5052L70.0671 83.3357L69.7667 84.6593C64.3698 84.7238 57.7682 85.5218 55.9471 84.8246C54.126 84.1275 53.9187 81.8225 53.9187 81.8225C53.9187 81.8225 52.6273 79.1026 49.7345 80.2208C46.8417 81.339 41.4105 80.5602 41.4105 80.5602C41.4105 80.5602 46.2667 82.4192 49.2698 82.2685C52.273 82.1178 52.12 84.66 52.12 84.66C52.12 84.66 51.2087 84.2075 47.6629 84.9889C44.1171 85.7702 41.822 95.8841 41.822 95.8841C41.822 95.8841 44.6842 89.8248 47.6346 88.0211C50.5849 86.2175 52.8722 89.1218 52.8722 89.1218C52.8722 89.1218 48.6863 87.7475 48.1215 90.2363C47.5568 92.7251 47.5284 95.7573 47.5284 95.7573C47.5284 95.7573 48.5662 89.7303 52.8154 91.3569C57.0646 92.9836 57.0929 89.9513 57.0929 89.9513L59.9544 92.3847L70.0698 88.0054L74.0829 86.3115L72.9677 82.5034L70.9776 70.9216L72.5024 67.1097L75.0928 68.7776L79.0559 68.9418L76.717 65.6034L72.926 65.2431L72.9048 63.8825L74.4507 61.4312L75.9015 61.3196L78.3802 64.5712L76.7551 59.7253L73.6603 59.0998L72.1638 59.8795L71.8887 56.731L76.7492 56.0036L69.6983 53.8638L70.7169 58.9874L67.2835 64.5052Z" fill="black"></path>
<path d="M66.3299 62.9683L69.1135 81.7988L68.8131 83.1224C63.4162 83.187 56.8145 83.9849 54.9935 83.2878C53.1724 82.5906 52.9651 80.2857 52.9651 80.2857C52.9651 80.2857 51.6737 77.5657 48.7809 78.6839C45.8881 79.8021 40.4569 79.0234 40.4569 79.0234C40.4569 79.0234 45.3131 80.8824 48.3162 80.7316C51.3194 80.5809 51.1664 83.1231 51.1664 83.1231C51.1664 83.1231 50.2551 82.6706 46.7093 83.452C43.1635 84.2334 40.8684 94.3472 40.8684 94.3472C40.8684 94.3472 43.7306 88.2879 46.681 86.4842C49.6313 84.6806 51.9186 87.5849 51.9186 87.5849C51.9186 87.5849 47.7327 86.2106 47.1679 88.6994C46.6032 91.1882 46.5748 94.2205 46.5748 94.2205C46.5748 94.2205 47.6126 88.1934 51.8618 89.82C56.111 91.4467 56.1393 88.4144 56.1393 88.4144L59.0008 90.8478L61.2351 86.6882L65.8668 85.8441L70.4984 85L69.8839 81.3207L67.614 65.0374L70.4851 65.2134L75.4876 66.6742L76.7171 65.6034L75.9076 65.0414L72.7194 64.359L69.6255 63.0858L70.8118 61.2852L73.4971 59.8943L76.7553 59.7254L72.7067 57.563L71.2102 58.3426L70.5121 55.0846L75.0361 55.4702L69.5583 53.5477L69.0425 55.4644L69.7633 57.4506L66.3299 62.9683Z" fill="#3E3E60"></path>
<path d="M175.781 92.5364L175.679 97.6344L174.161 95.7628C174.161 95.7628 175.408 95.7458 175.458 94.001C175.507 92.2562 172.199 90.2086 172.199 90.2086L172.161 94.6186C172.161 94.6186 167.703 94.3358 169.162 90.0496C170.621 85.7635 162.923 88.159 162.923 88.159C162.923 88.159 169.396 83.9566 170.579 85.7542C171.762 87.5518 175.781 92.5364 175.781 92.5364Z" fill="white"></path>
<path d="M108.846 35.2859L110.553 43.2054L107.522 40.8672C107.522 40.8672 109.444 40.3844 108.881 37.6688C108.318 34.9532 102.455 32.998 102.455 32.998L104.01 39.8302C104.01 39.8302 97.0139 41.0246 97.7012 33.8638C98.3885 26.703 87.363 33.224 87.363 33.224C87.363 33.224 95.8336 24.3576 98.3204 26.7038C100.807 29.0501 108.846 35.2859 108.846 35.2859Z" fill="white"></path>
<path d="M132.171 84.5103L129.98 81.7156L131.623 82.0564C131.623 82.0564 130.958 82.6151 131.7 83.5777C132.442 84.5404 135.128 84.1876 135.128 84.1876L133.206 81.7924C133.206 81.7924 135.735 79.9808 136.837 82.9353C137.938 85.8899 141.035 81.2065 141.035 81.2065C141.035 81.2065 139.394 86.3249 137.965 85.8765C136.535 85.4281 132.171 84.5103 132.171 84.5103Z" fill="white"></path>
<path d="M40.2808 130.021L44.9985 131.955L42.7054 132.696C42.7054 132.696 43.1396 131.526 41.53 130.851C39.9205 130.176 36.8174 132.522 36.8174 132.522L40.9166 134.148C40.9166 134.148 39.0443 138.204 35.5733 135.297C32.1024 132.39 31.559 140.434 31.559 140.434C31.559 140.434 29.9753 132.88 32.0786 132.425C34.1818 131.971 40.2808 130.021 40.2808 130.021Z" fill="white"></path>
<path d="M160.861 91.2563L161.261 94.1008L160.249 93.1961C160.249 93.1961 160.942 93.0747 160.812 92.0999C160.683 91.1252 158.66 90.2831 158.66 90.2831L159.034 92.7391C159.034 92.7391 156.529 92.9818 156.957 90.4671C157.384 87.9525 153.317 89.9753 153.317 89.9753C153.317 89.9753 156.54 87.0574 157.359 87.9511C158.179 88.8447 160.861 91.2563 160.861 91.2563Z" fill="white"></path>
<path d="M141.5 69.0212C143.5 73.0212 166 94.5 166 94.5C166 94.5 140.5 72.5212 139.5 70.0212C138.5 67.5212 129 51.5212 124 50.0212C119 48.5212 117.5 50.0212 108.5 53.0212C99.5 56.0212 79.5 54.5212 76.5 53.0212C73.5 51.5212 58 20.0212 57.5 18.0212C57 16.0212 70.5 7.52118 73 8.02118C75.5 8.52118 84 16.5212 84 16.5212C84 16.5212 76 10.0212 73 10.5212C70 11.0212 61.8101 14.5212 60.5 18.0212C59.1899 21.5212 73 46.5738 78 50.5212C83 54.4685 98.5 53.0212 108.5 50.5212C118.5 48.0212 120 44.5212 125 47.5212C130 50.5212 139.5 65.0212 141.5 69.0212Z" fill="#3E3E60"></path>
<path d="M140 72.5C142.789 75.025 153.5 83.5 153.5 83.5C153.5 83.5 141.274 75.4486 139.637 73.8033C138 72.158 124.451 62.0979 121.603 62.2935C118.754 62.4891 118.846 64.0408 116.484 68.7571C114.122 73.4734 104.911 77.7012 102.91 77.3592C100.91 77.0171 80.1825 47.3969 79 46C77.8174 44.6031 63.6969 49.7892 65 49.5C66.303 49.2108 52 53 52 53C52 53 65.2933 46.2356 66 46C66.7067 45.7645 78.5 43 81 46C83.5 49 98.2973 73.3636 102.334 75.0418C106.37 76.72 112.242 71.4452 115.271 66.843C118.299 62.2407 117.237 59.1577 120.814 60.1106C124.39 61.0634 137.211 69.975 140 72.5Z" fill="#3E3E60"></path>
<defs></defs>
</svg>