<svg height="100%" viewBox="0 0 200 200" width="100%" xmlns="http://www.w3.org/2000/svg">
<path d="M100.294 114.992L111.902 140.483L100.687 148.153L54.6697 144.929L79.3974 132.576L100.294 114.992Z" fill="black"></path>
<path d="M8.72935 110.523L68.7308 90.7629L70.4859 96.0087L87.6932 106.527L100.843 108.83L97.2064 114.752L95.2884 114.547L79.1426 110.713L72.1368 105.543L8.72935 110.523Z" fill="black"></path>
<path d="M140.407 128.838L140.113 103.968L110.742 95.0253L91.9952 114.336L111.322 144.036L140.407 128.838Z" fill="black"></path>
<path d="M101.18 93.3944L113.302 103.962L111.999 108.751L107.735 107.741L88.4305 95.2176L99.3102 74.4683L31.2629 40.5131L110.416 46.1398L124.478 61.6668L116.185 66.6199L101.18 93.3944Z" fill="black"></path>
<path d="M178.952 100.836L165.738 86.7064L150.016 78.4458L135.857 83.9365L142.344 85.7089L122.538 105.918L122.557 115.321L129.399 123.182C129.399 123.182 138.201 116.657 141.199 112.164C144.318 107.49 149.835 102.373 158.73 103.167L177.386 104.616L178.952 100.836Z" fill="black"></path>
<path d="M161.345 91.3204L168.127 99.2555L163.721 96.9944C163.721 96.9944 164.533 94.7382 161.235 92.9111C157.936 91.084 155.423 94.4633 155.423 94.4633L152.693 96.2294L154.819 93.7697L150.169 87.8589L161.345 91.3204Z" fill="white"></path>
<path d="M100.557 50.6083L113.935 58.022L106.66 57.1405C106.66 57.1405 106.693 53.6685 101.18 52.826C95.6674 51.9835 93.8017 57.8292 93.8017 57.8292L90.8434 61.5892L92.617 57.1865L83.2132 51.4645L100.557 50.6083Z" fill="white"></path>
</svg>