<svg height="100%" viewBox="0 0 200 200" width="100%" xmlns="http://www.w3.org/2000/svg">
<path d="M118.325 114.869L99.7702 114.616L105.893 127.803L118.264 132.923L122.013 133.396L122.227 137.953L124.632 144.309L125.016 136.718L128.465 141.605L127.152 136.632L125.103 133.728L131.196 138.214L127.377 132.35L123.103 130.973L126.119 125.917L118.325 114.869Z" fill="#3E3E60"></path>
<path d="M113.641 107.417L126.922 125.243L119.508 133.074L83.272 138.293L100.381 124.563L113.641 107.417Z" fill="black"></path>
<path d="M113.029 127.435L97.9257 116.798L92.9438 130.457L96.0623 138.105L99.0415 145.412L104.157 143.298L108.894 149.284L106.726 156.641L111.238 150.28L113.6 155.377L113.302 148.476L116.412 153.64L115.541 146.574L109.607 145.447L111.351 142.331L113.029 127.435Z" fill="black"></path>
<path d="M93.86 35.9092L133.545 35.9092L127.377 42.6955L118.014 66.702L125.542 91.4901L121.898 96.5247L120.641 93.5843L113.115 67.1239L114.922 52.8029L93.86 35.9092Z" fill="#3E3E60"></path>
<path d="M41.8641 119.312L85.0923 93.9183L87.3338 97.6931L102.446 102.965L113.032 102.546L111.205 107.749L109.683 107.912L96.5157 107.647L90.2139 104.812L41.8641 119.312Z" fill="black"></path>
<path d="M147.079 111.429L142.679 92.186L118.395 90.1767L107.093 108.301L127.068 128.097L147.079 111.429Z" fill="#3E3E60"></path>
<path d="M82.076 77.5147L118.875 97.0259L120.658 100.538L117.612 102.214L75.5451 85.3776L70.8962 67.3744L24.36 67.3744L62.3435 44.7914L78.8869 46.4384L76.6454 53.7693L82.076 77.5147Z" fill="black"></path>
<path d="M176.974 82.4374L159.661 74.4974L146.079 70.7272L129.252 77.634L141.346 77.6484L129.373 96.647L130.965 103.938L137.591 108.888C137.591 108.888 143.325 102.35 144.896 98.3616C146.531 94.2128 149.952 89.3183 156.986 88.4418L176.394 85.6329L176.974 82.4374Z" fill="black"></path>
<path d="M157.027 78.8142L163.619 83.8318L159.822 82.817C159.822 82.817 160.073 80.9305 157.208 80.0666C154.343 79.2027 152.96 82.2457 152.96 82.2457L151.139 84.0736L152.376 81.8089L147.777 78.004L157.027 78.8142Z" fill="white"></path>
<path d="M58.9222 52.6709L70.7426 49.908L65.9921 53.2642C65.9921 53.2642 64.1629 51.2032 60.4703 53.6435C56.7778 56.0839 58.7933 60.5172 58.7933 60.5172L59.0551 64.3051L57.7539 60.77L49.1733 62.4113L58.9222 52.6709Z" fill="white"></path>
<path d="M66.0599 127.111L89.8036 134.643L87.4245 153.494C86.3602 161.927 79.36 173.548 54.6554 173.548C29.9509 173.548 40.86 127.111 40.86 127.111C40.86 127.111 38.2209 164.007 51.9391 163.126C65.6573 162.246 74.0499 135.679 74.0499 135.679L66.0599 127.111Z" fill="black"></path>
<path d="M72.6857 148.738L82.0175 140.974L79.2729 146.102C79.2729 146.102 76.7144 145.079 74.5055 148.914C72.2967 152.75 76.084 155.811 76.084 155.811L78.0143 159.081L75.2678 156.503L68.3306 161.813L72.6857 148.738Z" fill="white"></path>
</svg>