<svg height="100%" viewBox="0 0 200 200" width="100%" xmlns="http://www.w3.org/2000/svg">
<path d="M99.3231 61.2431C83.2278 73.7616 83.6749 104.611 71.6034 116.683C54.839 133.447 38.5665 126.429 26 109.529C35.5684 142.174 86.5197 161.464 118 146C143.484 133.481 135.664 98.0765 145.5 94.4998C155.336 90.9231 157.469 91.0925 163.281 84.8331C169.093 78.5738 175 47.9998 163.281 55.7721C151.562 63.5445 115.418 48.7245 99.3231 61.2431Z" fill="black"></path>
<path d="M140.303 75.6554C140.303 80.4356 136.428 70.9343 131.648 70.9343C126.867 70.9343 122.992 80.4356 122.992 75.6554C122.992 70.8751 126.867 67 131.648 67C136.428 67 140.303 70.8751 140.303 75.6554Z" fill="white"></path>
<path d="M122.205 73.2944C122.205 74.1635 121.501 74.8681 120.632 74.8681C119.762 74.8681 116.697 71.7209 116.697 71.7209C116.697 71.7209 119.762 71.7207 120.632 71.7207C121.501 71.7207 122.205 72.4253 122.205 73.2944Z" fill="white"></path>
</svg>