<svg height="100%" viewbox="0 0 200 200" width="100%" xmlns="http://www.w3.org/2000/svg">
<path d="M58 123.5C58 123.5 80.7058 87 88.5 80.5C96.2942 74 106.959 69.241 106.959 69.241C106.959 69.241 99.8119 70.7518 97.5549 69.241C95.2978 67.7302 94.1693 62.8201 94.1693 62.8201L111.85 65.0863C111.85 65.0863 108.464 63.1978 107.712 60.1763C106.959 57.1547 106.959 53 106.959 53L122.382 64.3309C122.382 64.3309 142.238 72.241 146 72.241C149.762 72.241 156 66.1763 156 66.1763L163.5 84.3058L141.5 107L125 144.5L122.006 154.223L119.373 150.824L117.492 154.978L111.85 146.669H84.5L79.8746 156.867L77.2414 154.978L74.9843 158L73 146.669L64.0752 141.004L59.9091 128.324C59.9091 128.324 54.5 129.5 51.6332 127.191C48.7665 124.881 49 118.126 49 118.126C49 118.126 51 122.5 53.5 123.5C56 124.5 58 123.5 58 123.5Z" fill="black"></path>
<path d="M131.985 81.5362C132.902 83.6295 129.382 80.2121 127.289 81.129C125.196 82.0459 125.321 86.95 124.404 84.8567C123.487 82.7634 124.441 80.3231 126.534 79.4062C128.628 78.4892 131.068 79.4429 131.985 81.5362Z" fill="white"></path>
<path d="M123.607 83.9734C123.774 84.354 123.6 84.7977 123.22 84.9644C122.839 85.1311 120.893 84.3409 120.893 84.3409C120.893 84.3409 122.235 83.7529 122.616 83.5862C122.997 83.4194 123.44 83.5928 123.607 83.9734Z" fill="white"></path>
<path d="M64.2518 125.911C65.4555 127.853 64.6377 123.016 66.5803 121.813C68.5229 120.609 72.4903 123.494 71.2866 121.552C70.0829 119.609 67.5323 119.01 65.5896 120.214C63.647 121.417 63.048 123.968 64.2518 125.911Z" fill="white"></path>
<path d="M71.0121 120.395C71.2309 120.748 71.6947 120.857 72.0479 120.638C72.4011 120.419 72.8542 118.368 72.8542 118.368C72.8542 118.368 71.6085 119.14 71.2553 119.359C70.9021 119.578 70.7932 120.041 71.0121 120.395Z" fill="white"></path>
</svg>