<svg height="100%" viewBox="0 0 200 200" width="100%" xmlns="http://www.w3.org/2000/svg">
<path d="M41 54.5596L83.64 89.2927L74.0937 102.4C74.0937 102.4 67.4113 101.089 63.2746 99.7782C59.1379 98.4675 56.9104 95.5185 56.9104 95.5185L66.1385 94.5355C66.1385 94.5355 60.4107 92.5694 56.9104 91.2587C53.4101 89.9481 48.0006 83.3946 48.0006 83.3946L61.6836 85.6883C61.6836 85.6883 55.9558 82.4116 52.1373 80.1179C48.3188 77.8242 43.2275 68.6494 43.2275 68.6494L54.683 72.5815C54.683 72.5815 48.9552 67.6664 46.4096 64.7174C43.8639 61.7683 41 54.5596 41 54.5596Z" fill="black"></path>
<path d="M55.4655 125.5C55.4655 125.5 84.3741 75.36 92.48 68.6C100.586 61.84 111.678 56.8906 111.678 56.8906C111.678 56.8906 104.244 58.4619 101.897 56.8906C99.5497 55.3194 98.3761 50.2129 98.3761 50.2129L116.764 52.5698C116.764 52.5698 113.243 50.6058 112.46 47.4633C111.678 44.3209 111.678 40 111.678 40L127.718 51.7842C127.718 51.7842 153.568 57.68 157.48 57.68C161.392 57.68 166.32 54.04 166.32 54.04L170.48 72.558C170.48 72.558 152.28 76.4 138.24 92C124.2 107.6 123.16 155.96 123.16 155.96L120.047 166.072L117.308 162.537L115.352 166.858L109.484 158.216H81.04L76.2296 168.822L73.491 166.858L71.1437 170L69.08 158.216C58.7243 153.108 45.0018 149.502 37.5 140.5C30 131.5 31 115 31 115C31 115 34.5 129.9 41 132.5C47.5 135.1 55.4655 125.5 55.4655 125.5Z" fill="black"></path>
<path d="M147.077 65.7815C148.031 67.9585 144.371 64.4045 142.194 65.3581C140.016 66.3117 140.147 71.4119 139.193 69.2348C138.24 67.0578 139.232 64.5199 141.409 63.5663C143.586 62.6127 146.124 63.6045 147.077 65.7815Z" fill="white"></path>
<path d="M138.364 68.3171C138.538 68.713 138.357 69.1744 137.961 69.3478C137.566 69.5212 135.542 68.6993 135.542 68.6993C135.542 68.6993 136.938 68.0878 137.334 67.9144C137.729 67.741 138.191 67.9213 138.364 68.3171Z" fill="white"></path>
<path d="M69.0772 132.342C70.0308 134.519 66.3706 130.965 64.1935 131.919C62.0165 132.872 62.1471 137.972 61.1935 135.795C60.2399 133.618 61.2316 131.08 63.4087 130.127C65.5857 129.173 68.1236 130.165 69.0772 132.342Z" fill="white"></path>
<path d="M60.3642 134.878C60.5376 135.274 60.3573 135.735 59.9615 135.908C59.5656 136.082 57.5419 135.26 57.5419 135.26C57.5419 135.26 58.9378 134.648 59.3336 134.475C59.7294 134.302 60.1908 134.482 60.3642 134.878Z" fill="white"></path>
<path d="M64.9423 48.3203C64.9423 48.3203 94.1978 91.4908 95.0347 94.353C95.8715 97.2152 96.8358 99.8804 93.6929 103.699C88.7029 109.761 76.688 101.161 72.448 98.1655C68.9039 95.6616 67.6761 92.1758 67.6761 92.1758L76.7675 94.0388C76.7675 94.0388 71.9062 90.4277 68.9685 88.1168C66.0308 85.8059 62.8645 77.9202 62.8645 77.9202L75.2067 84.2571C75.2067 84.2571 70.743 79.3971 67.8004 76.053C64.8578 72.7089 62.79 62.4219 62.79 62.4219L72.5126 69.6441C72.5126 69.6441 68.546 63.2229 67.015 59.6406C65.4841 56.0582 64.9423 48.3203 64.9423 48.3203Z" fill="#3E3E60"></path>
<path d="M89.6218 98.9441C88.0154 100.696 89.7884 95.9118 88.0368 94.3054C86.2851 92.699 81.6722 94.8783 83.2786 93.1267C84.885 91.3751 87.6073 91.2573 89.3589 92.8638C91.1105 94.4702 91.2283 97.1924 89.6218 98.9441Z" fill="white"></path>
<path d="M83.7834 91.998C83.4913 92.3164 82.9964 92.3378 82.6779 92.0458C82.3594 91.7537 82.2939 89.5704 82.2939 89.5704C82.2939 89.5704 83.4171 90.6004 83.7356 90.8924C84.0541 91.1845 84.0755 91.6795 83.7834 91.998Z" fill="white"></path>
</svg>