<svg height="100%" viewbox="0 0 200 200" width="100%" xmlns="http://www.w3.org/2000/svg">
<path d="M31 44L87 94.0959L74.4627 113C74.4627 113 65.6866 111.11 60.2537 109.219C54.8209 107.329 51.8955 103.075 51.8955 103.075L64.0149 101.658C64.0149 101.658 56.4925 98.8219 51.8955 96.9315C47.2985 95.0411 40.194 85.589 40.194 85.589L58.1642 88.8973C58.1642 88.8973 50.6418 84.1712 45.6269 80.863C40.6119 77.5548 33.9254 64.3219 33.9254 64.3219L48.9701 69.9932C48.9701 69.9932 41.4478 62.9041 38.1045 58.6507C34.7612 54.3973 31 44 31 44Z" fill="black"></path>
<path d="M55.4222 135.999C55.4222 135.999 89.7515 58.4997 99.3778 47.4997C106.316 39.5717 108.563 37.6174 109.277 37.1442C107.75 37.8186 101.066 40.6815 94.7778 41.9998C87.6222 43.4998 80.9778 43.4998 80.9778 43.4998L113.689 30.1799H99.3778C95.8 30.1799 86.0889 26.2841 86.0889 26.2841L123.911 24.9999C123.911 24.9999 112.667 21.9999 109.6 18.9999C106.533 16 101.933 9 101.933 9L135.399 26.2841C135.399 26.2841 160.801 30.1799 164.8 30.1799C168.799 30.1799 170.77 26.5399 170.77 26.5399L174 36.4998C174 36.4998 169.4 40.8998 163.267 41.9998C157.133 43.0998 150.489 41.9998 150.489 41.9998C150.489 41.9998 156.622 45.9998 161.733 45.9998C166.844 45.9998 170.933 42.9998 170.933 42.9998L168.889 48.4997C132.578 58.8961 127.047 115.655 122.889 144.999C122.889 144.999 147.422 159.999 143.333 161.999C139.244 163.999 124.422 158.499 124.422 158.499L120.333 161.999C120.333 161.999 140.778 173.035 135.667 174.999C130.556 176.963 104.489 164.499 104.489 164.499L85.5778 170.499C85.5778 170.499 79.2097 190.177 73.8222 189.999C68.4347 189.82 73.8222 174.999 73.8222 174.999H67.6889C67.6889 174.999 50.3111 190.141 45.7111 187.499C41.1111 184.856 55.4222 170.499 55.4222 170.499C55.4222 170.499 40.0889 166.999 28.8444 158.499C17.6 149.999 13 140.999 13 140.999C28.8835 152.787 44.7688 155.625 55.4222 135.999Z" fill="black"></path>
<path d="M154.301 36.5564C154.817 39.1585 151.414 34.4582 148.482 35.0401C145.55 35.622 144.2 41.2658 143.683 38.6637C143.167 36.0616 145.125 33.4804 148.057 32.8985C150.989 32.3166 153.785 33.9543 154.301 36.5564Z" fill="white"></path>
<path d="M142.946 37.4752C143.04 37.9483 142.684 38.4176 142.151 38.5234C141.617 38.6292 139.397 37.2892 139.397 37.2892C139.397 37.2892 141.277 36.9159 141.811 36.8101C142.344 36.7043 142.852 37.0021 142.946 37.4752Z" fill="white"></path>
<path d="M70.118 149.409C71.4263 152.395 66.4047 147.519 63.4181 148.828C60.4314 150.136 60.6105 157.133 59.3023 154.146C57.994 151.159 59.3546 147.678 62.3413 146.369C65.328 145.061 68.8098 146.422 70.118 149.409Z" fill="white"></path>
<path d="M58.1646 152.888C58.4025 153.431 58.1551 154.064 57.612 154.302C57.069 154.54 54.2926 153.412 54.2926 153.412C54.2926 153.412 56.2076 152.573 56.7507 152.335C57.2937 152.098 57.9267 152.345 58.1646 152.888Z" fill="white"></path>
<path d="M66.2647 37.3145C66.2647 37.3145 98.5358 95.8565 99.3452 99.8149C100.155 103.773 101.132 107.446 97.0737 113.024C90.6312 121.881 76.7397 110.652 71.8348 106.744C67.7349 103.478 66.4976 98.6712 66.4976 98.6712L77.3334 100.651C77.3334 100.651 71.722 95.9223 68.3401 92.8845C64.9582 89.8466 61.6901 79.0008 61.6901 79.0008L76.1343 87.0317C76.1343 87.0317 71.0899 80.523 67.7742 76.0354C64.4585 71.5479 62.6832 57.2553 62.6832 57.2553L73.9059 66.7117C73.9059 66.7117 69.5701 57.9773 67.9738 53.0567C66.3775 48.1361 66.2647 37.3145 66.2647 37.3145Z" fill="#3E3E60"></path>
<path d="M92.8108 105.145C90.3398 107.84 93.067 100.481 90.3726 98.0101C87.6783 95.5391 80.5825 98.8914 83.0536 96.197C85.5246 93.5026 89.712 93.3215 92.4064 95.7925C95.1008 98.2636 95.2818 102.451 92.8108 105.145Z" fill="white"></path>
<path d="M83.8301 94.4598C83.3808 94.9497 82.6195 94.9826 82.1296 94.5333C81.6397 94.0841 81.5389 90.7257 81.5389 90.7257C81.5389 90.7257 83.2667 92.31 83.7566 92.7593C84.2464 93.2086 84.2794 93.9699 83.8301 94.4598Z" fill="white"></path>
<path d="M87.7572 111.035C86.8316 113.265 86.8631 108.082 84.6327 107.156C82.4023 106.231 78.7545 109.914 79.6801 107.683C80.6056 105.453 83.164 104.395 85.3944 105.32C87.6249 106.246 88.6827 108.804 87.7572 111.035Z" fill="white"></path>
<path d="M79.7699 106.43C79.6016 106.835 79.1365 107.027 78.7309 106.859C78.3254 106.691 77.5046 104.629 77.5046 104.629C77.5046 104.629 78.9348 105.222 79.3403 105.391C79.7459 105.559 79.9382 106.024 79.7699 106.43Z" fill="white"></path>
</svg>