<svg height="100%" viewbox="0 0 200 200" width="100%" xmlns="http://www.w3.org/2000/svg">
<path d="M18.2394 73.4287C18.2394 73.4287 97.8814 89.0898 101.791 91.3727C105.7 93.6557 109.571 95.5725 109.491 103.424C109.364 115.891 84.4736 115.611 80.4149 116.956C76.3562 118.3 64.6572 119.134 64.6572 119.134L78.3372 108.448C78.3372 108.448 68.3509 112.648 65.7907 112.94C63.2305 113.231 50.2462 110.748 50.2462 110.748L70.3519 103.859C70.3519 103.859 62.8674 105.348 55.1188 105.469C47.3702 105.589 38.2264 100.63 38.2264 100.63L59.68 96.3881C59.68 96.3881 52.4904 96.5 45.4802 96.0502C38.4701 95.6004 29.6992 91.7577 29.6992 91.7577L49.0251 88.929C49.0251 88.929 37.6576 86.1652 32.1635 83.8536C26.6694 81.5421 18.2394 73.4287 18.2394 73.4287Z" fill="black"></path>
<path d="M43.6646 129.701C43.6646 129.701 82.2185 102.653 84.7449 101.934C87.2712 101.214 89.6287 100.364 92.8836 103.552C98.0516 108.614 87.9343 118.921 86.8664 121.16C85.7985 123.4 81.4472 128.632 81.4472 128.632L82.4702 118.612C82.4702 118.612 80.2163 124.48 79.3096 125.669C78.403 126.858 72.1471 131.296 72.1471 131.296L77.3409 120.111C77.3409 120.111 74.9572 123.843 71.8944 127.135C68.8316 130.427 63.0821 132.263 63.0821 132.263L69.9256 121.577C69.9256 121.577 67.0839 124.632 64.0792 127.386C61.0744 130.14 55.9419 132.268 55.9419 132.268L62.5222 123.041C62.5222 123.041 56.7981 126.689 53.6231 128.061C50.448 129.432 43.6646 129.701 43.6646 129.701Z" fill="black"></path>
<path d="M148.319 86.9209C145.885 87.5127 138.622 85.2049 138.622 85.2049L140.773 94.0516C140.773 94.0516 148.036 96.3595 150.47 95.7677C152.904 95.1759 157.08 84.7905 157.08 84.7905L160.73 89.1991L160.301 83.1925L166.104 85.8557C166.104 85.8557 160.545 77.8371 158.804 77.0383C157.063 76.2394 150.752 86.3291 148.319 86.9209Z" fill="black"></path>
<path d="M144.811 155.326C145.901 153.146 126.823 136.793 126.823 136.793L114.831 148.239C114.831 148.239 112.65 168.408 114.831 170.588C117.011 172.769 128.458 173.859 128.458 173.859C128.458 173.859 134.999 177.129 137.18 177.129C139.36 177.129 140.995 176.039 142.631 173.859C144.266 171.678 132.819 170.588 132.819 170.588C132.819 170.588 143.721 157.505 144.811 155.326Z" fill="#3E3E60"></path>
<path d="M66.6383 144.842C77.1949 122.911 90.8479 67.709 98.899 53.6319C104.702 43.486 106.741 40.8302 107.428 40.1381C105.871 41.2715 99.0345 46.1406 92.2425 49.3091C84.5142 52.9143 76.9742 54.8312 76.9742 54.8312L110.616 31.711L99.0157 34.6601C94.9557 35.6923 78.2781 35.6715 78.2781 35.6715L120.863 23.4407C120.863 23.4407 107.319 23.6029 103.056 21.4058C98.7925 19.2088 91.7443 13.345 91.7443 13.345C91.7443 13.345 116.572 17.7087 132.177 12.8876C147.782 8.06646 168.739 14.4987 173.277 13.345C177.815 12.1913 179.691 7.69179 179.691 7.69179L179.691 19.0522C179.691 19.0522 175.94 25.4663 169.268 28.3657C162.595 31.2652 151.473 25.5933 151.473 25.5933C151.473 25.5933 163.468 34.1541 169.268 32.6796C175.068 31.205 178.924 28.3657 178.924 28.3657L174.367 35.6715C118.202 59.4134 207.618 209.835 53.9014 186.941C38.1219 184.591 9.74876 162.957 9.74876 162.957C30.8516 170.484 56.0817 166.773 66.6383 144.842Z" fill="black"></path>
<path d="M156.198 20.2615C157.477 22.7822 152.301 18.9574 149.052 20.4199C145.803 21.8823 145.711 28.0781 144.432 25.5574C143.153 23.0366 144.751 19.8076 148 18.3452C151.249 16.8828 154.919 17.7407 156.198 20.2615Z" fill="white"></path>
<path d="M143.266 25.6448C143.498 26.1031 143.208 26.6902 142.617 26.9561C142.026 27.222 139.101 26.5001 139.101 26.5001C139.101 26.5001 141.184 25.5623 141.775 25.2964C142.366 25.0305 143.033 25.1865 143.266 25.6448Z" fill="white"></path>
<path d="M142.273 32.7706C143.522 34.0888 139.634 32.6816 137.9 34.1777C136.167 35.6738 137.246 39.5068 135.996 38.1886C134.747 36.8704 135.139 34.5889 136.872 33.0928C138.605 31.5966 141.023 31.4524 142.273 32.7706Z" fill="white"></path>
<path d="M135.094 37.7833C135.321 38.023 135.25 38.4378 134.935 38.7098C134.62 38.9818 132.686 39.0733 132.686 39.0733C132.686 39.0733 133.797 38.1139 134.112 37.8419C134.427 37.5699 134.867 37.5436 135.094 37.7833Z" fill="white"></path>
<path d="M70.2129 166.724C72.5105 169.406 65.4121 165.878 62.2892 168.103C59.1663 170.328 61.2015 177.463 58.9039 174.781C56.6063 172.098 57.2753 168.12 60.3982 165.896C63.5211 163.671 67.9153 164.042 70.2129 166.724Z" fill="white"></path>
<path d="M57.2556 173.823C57.6733 174.31 57.5517 175.034 56.9839 175.438C56.4161 175.842 52.9009 175.503 52.9009 175.503C52.9009 175.503 54.9033 174.076 55.4711 173.672C56.0389 173.267 56.8378 173.335 57.2556 173.823Z" fill="white"></path>
<path d="M46.8897 37.3506C46.8897 37.3506 110.12 88.2436 112.519 92.0824C114.919 95.9212 117.455 99.4176 113.733 106.332C107.825 117.311 85.9184 105.491 81.7001 104.794C77.4818 104.097 66.7365 99.3961 66.7365 99.3961L83.816 96.2959C83.816 96.2959 73.0218 95.3716 70.6197 94.4393C68.2176 93.507 57.8761 85.2723 57.8761 85.2723L78.8797 88.5205C78.8797 88.5205 71.5609 86.3593 64.6448 82.8632C57.7287 79.3671 51.9386 70.7259 51.9386 70.7259L72.9048 76.9444C72.9048 76.9444 66.4874 73.7009 60.4901 70.0435C54.4928 66.386 48.514 58.9061 48.514 58.9061L66.9394 65.3867C66.9394 65.3867 58.1601 57.6548 54.3706 53.0539C50.5811 48.453 46.8897 37.3506 46.8897 37.3506Z" fill="#3E3E60"></path>
<path d="M54.9916 115.113C54.9916 115.113 102.148 101.723 104.878 101.881C107.607 102.038 110.216 102.01 112.324 106.258C115.671 113.002 102.198 119.671 100.382 121.506C98.5654 123.342 92.497 126.996 92.497 126.996L96.9325 117.497C96.9325 117.497 92.7083 122.493 91.4101 123.352C90.112 124.21 82.4433 126.431 82.4433 126.431L91.3773 117.215C91.3773 117.215 87.7569 120.067 83.6193 122.254C79.4817 124.442 73.2017 124.278 73.2017 124.278L83.5865 116.117C83.5865 116.117 79.7475 118.147 75.8512 119.826C71.9549 121.504 66.1813 121.839 66.1813 121.839L75.8081 115.022C75.8081 115.022 68.9326 116.648 65.3422 116.909C61.7517 117.171 54.9916 115.113 54.9916 115.113Z" fill="#3E3E60"></path>
<path d="M111.346 102.839C109.539 105.76 110.577 98.7733 107.426 97.3164C104.276 95.8596 98.1309 100.485 99.9378 97.5636C101.745 94.6425 105.763 93.4554 108.913 94.9122C112.064 96.3691 113.153 99.9181 111.346 102.839Z" fill="white"></path>
<path d="M100.311 95.8815C99.9827 96.4126 99.2521 96.6285 98.6793 96.3636C98.1065 96.0987 97.2761 93.2413 97.2761 93.2413C97.2761 93.2413 99.2962 94.1753 99.869 94.4402C100.442 94.7051 100.64 95.3504 100.311 95.8815Z" fill="white"></path>
<path d="M107.342 110.184C107.817 112.69 104.883 108.342 102.427 109.123C99.9706 109.903 98.9219 115.517 98.4477 113.011C97.9736 110.505 99.5803 107.841 102.037 107.06C104.493 106.279 106.868 107.678 107.342 110.184Z" fill="white"></path>
<path d="M97.8093 111.903C97.8955 112.359 97.6033 112.843 97.1567 112.985C96.7102 113.127 94.823 111.978 94.823 111.978C94.823 111.978 96.398 111.477 96.8445 111.335C97.2911 111.193 97.723 111.447 97.8093 111.903Z" fill="white"></path>
<path d="M152.018 99.7268C149.293 99.7268 142.207 94.2759 142.207 94.2759L142.207 106.813C142.207 106.813 149.293 112.264 152.018 112.264C154.744 112.264 161.83 99.7268 161.83 99.7268L164.556 106.813L165.646 98.6363L171.097 104.088C171.097 104.088 167.281 91.5501 165.646 89.9148C164.01 88.2795 154.744 99.7268 152.018 99.7268Z" fill="black"></path>
<path d="M128.034 167.863C129.124 165.683 110.046 149.33 110.046 149.33L98.0541 160.777C98.0541 160.777 95.8737 180.945 98.0541 183.125C100.234 185.306 111.681 186.396 111.681 186.396C111.681 186.396 118.223 189.667 120.403 189.667C122.583 189.667 124.219 188.576 125.854 186.396C127.489 184.216 116.042 183.125 116.042 183.125C116.042 183.125 126.944 170.043 128.034 167.863Z" fill="black"></path>
<defs></defs>
</svg>