<svg height="100%" viewBox="0 0 200 200" width="100%" xmlns="http://www.w3.org/2000/svg">
<path d="M102.9 55.5453C86.8043 68.0639 91.5715 93.9285 79.5 106C62.7356 122.764 60 108.5 25 118C55 115.456 66.2992 158.919 102.9 140.94C139.5 122.961 122.164 97.0764 132 93.4997C141.836 89.923 161.469 85.259 167.281 78.9997C173.093 72.7404 179.352 55.5452 167.281 55.5452C155.209 55.5452 118.995 43.0267 102.9 55.5453Z" fill="black"></path>
<path d="M125.128 60.9714C112.424 65.0561 105 60.9714 105 60.9714C105 60.9714 124.946 74.0846 127.716 74.8726C130.486 75.6606 143.229 72.5083 143.229 72.5083C143.229 72.5083 134.919 73.2962 130.486 73.2963C126.054 73.2964 119.959 64.6269 119.959 64.6269C119.959 64.6269 133.257 63.0513 137.135 63.8391C141.013 64.6268 146 66.9915 146 66.9915C146 66.9915 137.831 56.8868 125.128 60.9714Z" fill="white"></path>
</svg>