<svg height="100%" viewbox="0 0 200 200" width="100%" xmlns="http://www.w3.org/2000/svg">
<path d="M123.253 88.5312L95.6455 86.2754C95.6455 86.2754 111.542 102.853 116.001 106C120.46 109.148 121.763 117.563 121.763 117.563L139.991 127.202L130.458 118.273L124.597 108.738L126.262 103.14L123.253 88.5312Z" fill="black"></path>
<path d="M124.68 86.6944C118.456 84.0277 106.001 83 106.001 83C106.001 83 115.213 90.2211 119.672 93.3685C124.131 96.5159 127.462 109.452 127.462 109.452L133.848 109.23L147.274 126.131C147.274 126.131 144.79 109.626 140.451 101.882C136.112 94.1374 130.905 89.3611 124.68 86.6944Z" fill="#3E3E60"></path>
<path d="M173.486 62.7554C178.345 66.1566 191.577 84.392 188.557 85.7636C185.537 87.1352 171.64 88.0156 165.607 85.7636C159.575 83.5116 158.498 80.1275 156 78C153.502 75.8725 146.5 68.5 135 71.2074C123.5 73.9148 128.5 82 116 105C103.5 128 74.3088 113.271 54 123.5C33.6912 133.729 44.3872 165.5 78.5 165.5C87.7098 165.5 98.0981 151.957 108.577 139.705C114.302 133.011 120.276 126.026 126.565 120.429C144.367 104.585 166.548 103.314 180.789 114.206C189.292 120.71 169 152.918 169 152.918L165.729 183.804C165.729 183.804 166.8 166.782 163.24 152.918C159.68 139.055 152.2 116.468 140.095 120.429C134.633 122.216 123.282 135.286 111.291 149.092C96.7083 165.883 81.1787 183.765 74.1449 183.765C61.3277 183.765 27.9887 159.468 23.7163 142.634C20.549 130.154 35 114.206 45.4278 107.271L42.3824 84.5L55.6912 102.5C63.5 101 80.7041 101 84.5 82C81.893 67.1852 66.0536 72.9064 55.6912 67.8093C50.0107 65.0151 50.2558 50.8991 50.2558 50.8991L39.2584 48.1991H52.9166C54.7009 43.0802 60.0664 42.6555 64.6577 42.5012C69.7113 42.3314 72.7471 42.2294 74.5814 48.1991C78.4001 60.6267 85.0427 67.2355 93.8913 76.3725C93.8913 76.3725 90.8325 55.3917 86.9349 43.6528C83.1858 32.361 74.9807 27.9425 63.749 25.6605C53.6491 23.6084 45.9411 29.4084 36.4326 29.1574C29.1181 28.9643 23.7163 25.6605 23.7163 25.6605L11 30.8256L23.7163 19.5562C23.7163 19.5562 30.3259 5 36.4326 5C42.5392 5 59.9188 9.22755 63.749 10.1651C67.5793 11.1027 91.9273 35.1968 93.8913 37.8689C95.8553 40.5411 104.61 67.8093 104.61 67.8093C104.61 67.8093 112.259 57.8206 124.54 55.2425C141.163 51.7527 159.913 53.2539 173.486 62.7554Z" fill="black"></path>
<path d="M64.8155 47.6054C70.3994 48.817 73.3933 46.7669 73.3933 46.7669C73.3933 46.7669 65.4394 53.1861 64.2916 53.6374C63.1438 54.0886 57.5818 53.276 57.5818 53.276C57.5818 53.276 61.1564 53.2656 63.0453 53.081C64.9343 52.8964 67.1704 48.9479 67.1704 48.9479C67.1704 48.9479 61.438 48.8304 59.818 49.3277C58.198 49.8249 56.1714 51.0404 56.1714 51.0404C56.1714 51.0404 59.2317 46.3939 64.8155 47.6054Z" fill="white"></path>
<path d="M34.3337 15.4964C39.6875 13.5002 41.1 10.1579 41.1 10.1579C41.1 10.1579 37.8729 19.8562 37.1506 20.8559C36.4283 21.8555 31.3085 24.1757 31.3085 24.1757C31.3085 24.1757 34.3112 22.2363 35.8013 21.0608C37.2913 19.8852 37.0407 15.3544 37.0407 15.3544C37.0407 15.3544 32.1528 18.3516 31.058 19.645C29.9631 20.9385 28.914 23.0559 28.914 23.0559C28.914 23.0559 28.98 17.4926 34.3337 15.4964Z" fill="white"></path>
<path d="M168.159 74.6136C162.806 72.6174 161.393 69.2751 161.393 69.2751C161.393 69.2751 164.62 78.9734 165.343 79.9731C166.065 80.9727 171.185 83.2929 171.185 83.2929C171.185 83.2929 168.182 81.3535 166.692 80.1779C165.202 79.0024 165.452 74.4716 165.452 74.4716C165.452 74.4716 170.34 77.4687 171.435 78.7622C172.53 80.0557 173.579 82.1731 173.579 82.1731C173.579 82.1731 173.513 76.6098 168.159 74.6136Z" fill="white"></path>
<path d="M169.075 124.92C163.693 117.722 164.671 112.099 164.671 112.099C164.671 112.099 160.682 127.674 160.786 129.611C160.89 131.548 165.686 138.976 165.686 138.976C165.686 138.976 163.366 133.854 162.396 131.031C161.426 128.207 165.615 122.428 165.615 122.428C165.615 122.428 169.528 130.554 169.875 133.197C170.222 135.84 169.807 139.534 169.807 139.534C169.807 139.534 174.456 132.119 169.075 124.92Z" fill="white"></path>
<path d="M84.7093 145.038L84.7077 145.038L82.4992 104.5L96.4427 104.5C96.4427 104.5 95.8904 127.187 100.5 135C105.111 142.812 114.501 142 114.501 142L133.001 146.5L146.501 178L133.001 161L117.999 150L108.499 152L84.7093 145.038Z" fill="black"></path>
<path d="M81.4727 147.154C77.8979 136.483 74.8394 68.1162 74.8394 68.1162C74.8394 68.1162 88.5966 131.948 93.2067 139.761C97.8168 147.573 118.796 154.843 118.796 154.843L117.563 165.392L143.742 189.921C143.742 189.921 116.737 183.57 104.496 175.335C92.2547 167.099 85.0475 157.826 81.4727 147.154Z" fill="#3E3E60"></path>
</svg>