<svg height="100%" viewbox="0 0 200 200" width="100%" xmlns="http://www.w3.org/2000/svg">
<path d="M120.151 22.9669C114.561 22.451 89.8923 53.136 89.8923 53.136L91.9446 60.28C91.9446 60.28 113.036 31.2206 120.151 29.1571C127.266 27.0937 135.396 67.7674 135.396 75.5841C135.396 83.4007 127.72 86.8088 131.89 93.9739C136.06 101.139 147.204 110.529 147.204 110.529L147.254 127.855L150.393 109.38C150.393 109.38 154.197 110.37 155.54 102.795C156.883 95.2191 147.424 86.7947 145.783 81.0831C144.142 75.3715 125.741 23.4827 120.151 22.9669Z" fill="#3E3E60"></path>
<path d="M104.905 19.3554C100.374 28.0847 94.7418 45.664 94.7418 45.664L85.8823 51.4274C85.8823 51.4274 93.1852 18.0454 107.012 12.2734C120.839 6.50146 146.337 21.7556 154.312 29.9186C162.288 38.0816 171.972 44.8393 174.23 52.698C176.488 60.5568 200.127 115.894 195.369 126.281C190.61 136.668 184.892 136.364 184.892 136.364L169.862 157.548L177.238 139.123C177.238 139.123 166.096 129.737 164.454 124.021C162.812 118.306 175.989 96.1482 174.23 80.2263C172.471 64.3043 164.84 46.7172 154.312 39.4737C143.785 32.2302 109.436 10.6261 104.905 19.3554Z" fill="#3E3E60"></path>
<path d="M114.818 121.153L124.272 126.978L128.054 110.564L119.072 92.5617L109.618 80.9132L104.418 75.6184L93.337 70.0263L90.5141 77.3505L97.0312 82.8854C97.0312 82.8854 112.927 91.5027 113.873 97.327C114.818 103.151 114.818 121.153 114.818 121.153Z" fill="#3E3E60"></path>
<path d="M121.436 90.9728C118.127 87.7959 113.535 71.9163 109.281 69.7983C105.026 67.6804 94.9499 56.0425 94.9499 56.0425L87.4002 71.3821C87.4002 71.3821 101.582 75.6179 104.891 77.2064C108.2 78.7948 115.763 88.3254 117.182 94.1496C118.6 99.9739 118.127 109.505 118.127 109.505L111.982 115.329L106.309 112.152L111.509 119.565L119.072 114.27L120.018 121.153L114.345 127.507L106.309 126.977L114.345 130.684L121.436 124.859L122.854 127.507L120.491 135.978L115.291 137.037L121.436 138.626L126.163 128.566C126.163 128.566 132.781 119.565 133.727 112.152C134.672 104.739 124.745 94.1496 121.436 90.9728Z" fill="black"></path>
<path d="M159.287 74.185C158.997 68.2925 154.149 48.9314 148.808 45.0581C145.865 42.9245 126.611 35.0815 118.524 34.5385C110.437 33.9955 95.9827 39.2048 95.9827 39.2048L83.4691 45.2055C83.4691 45.2055 50.9621 31.0529 40.9877 33.7077C31.0134 36.3624 8.18456 87.897 4.40608 96.4603C0.627591 105.024 2.36947 112.441 2.60352 121.702C2.83757 130.963 3.7377 157.501 12.4115 167.618C21.0853 177.735 26.8902 174.726 26.8902 174.726L48.6134 184.774L31.1032 167.818C31.1032 167.818 34.2333 160.275 38.1798 149.899C42.1263 139.523 16.4241 116.721 13.829 107.688C11.2339 98.6544 35.4964 42.3513 47.0977 38.4489C58.699 34.5466 75.6187 50.0017 75.6187 50.0017L73.5633 53.2557C73.5633 53.2557 57.9203 55.6861 51.979 60.3406C46.0378 64.995 42.8521 84.2214 40.1103 87.6288C37.3684 91.0361 25.4309 109.158 25.4309 109.158C25.4309 109.158 28.9648 122.335 31.0605 123.854C33.1561 125.373 35.0014 125.496 35.0014 125.496L43.3176 137.294L39.6076 119.479C39.6076 119.479 40.9373 117.458 40.8926 114.152C40.848 110.845 37.7755 103.301 39.7605 98.3419C41.7455 93.3825 52.1139 70.8984 56.8101 64.9069C61.5063 58.9153 69.5666 60.3094 69.5666 60.3094L66.3229 66.698L58.2114 84.1974L52.3095 86.1791L53.3114 94.3795L48.6315 111.497L44.4778 111.452L49.9229 121.786C49.9229 121.786 50.4423 138.294 52.8687 146.741C55.2951 155.187 73.0195 174.333 73.0195 174.333C73.0195 174.333 60.8106 155.495 56.6956 145.361C52.5807 135.228 55.4461 124.248 55.4461 124.248L67.5332 127.65L55.5125 116.478L61.187 100.589L73.5958 106.856L64.9019 93.0737L73.8368 78.639L79.3381 84.9993C79.3381 84.9993 74.6071 117.014 75.6187 127.65C76.6304 138.285 75.2821 163.712 79.3381 169.931C83.394 176.15 109.695 186.395 112.697 185.988C115.7 185.581 125.204 180.805 125.204 180.805L144.592 182.436L150.853 169.931L140.604 178.355L125.267 173.444L127.342 168.944L145.28 166.232L148.304 153.709L142.877 161.768L128.684 161.365L128.728 156.619L138.883 150.975L139.931 136.814L134.74 148.145L125.47 149.725C125.47 149.725 91.9447 135.175 87.0116 116.816C82.0785 98.457 92.1161 86.6056 92.1161 86.6056C92.1161 86.6056 99.3685 83.3879 102.409 79.5558C105.45 75.7238 105.783 67.1208 105.783 67.1208C105.783 67.1208 110.766 57.1919 118.346 55.3948C125.926 53.5977 134.926 59.6623 134.926 59.6623C134.926 59.6623 137.605 64.8631 140.398 67.4916C143.191 70.1202 159.549 79.5012 159.287 74.185Z" fill="black"></path>
<path d="M144.222 60.1812C140.639 57.5309 139.838 54.6872 139.838 54.6872C139.838 54.6872 141.562 62.7547 142.008 63.6685C142.454 64.5823 145.859 67.43 145.859 67.43C145.859 67.43 143.892 65.3192 142.926 64.1094C141.961 62.8995 142.366 59.5017 142.366 59.5017C142.366 59.5017 145.577 62.8161 146.264 64.0323C146.952 65.2485 147.565 67.0826 147.565 67.0826C147.565 67.0826 147.805 62.8315 144.222 60.1812Z" fill="white"></path>
<path d="M137.646 57.9905C135.326 57.4194 134.407 56.1291 134.407 56.1291C134.407 56.1291 136.729 59.9117 137.122 60.2844C137.514 60.657 139.778 61.3696 139.778 61.3696C139.778 61.3696 138.387 60.7175 137.674 60.3076C136.961 59.8977 136.567 58.0528 136.567 58.0528C136.567 58.0528 138.814 59.0497 139.384 59.5248C139.955 59.9999 140.597 60.8105 140.597 60.8105C140.597 60.8105 139.967 58.5617 137.646 57.9905Z" fill="white"></path>
<path d="M99.2844 147.286C90.1204 143.866 86.9006 138.211 86.9006 138.211C86.9006 138.211 94.8441 154.614 96.2884 156.308C97.7327 158.002 106.614 161.966 106.614 161.966C106.614 161.966 101.24 158.665 98.5131 156.666C95.786 154.668 94.8979 147.021 94.8979 147.021C94.8979 147.021 103.599 152.126 105.725 154.32C107.851 156.514 110.139 160.098 110.139 160.098C110.139 160.098 108.448 150.705 99.2844 147.286Z" fill="white"></path>
<path d="M177.01 106.774C181.692 93.0822 179.202 84.6284 179.202 84.6284C179.202 84.6284 187.62 107.489 187.954 110.592C188.289 113.694 184.355 127.495 184.355 127.495C184.355 127.495 185.897 118.406 186.38 113.53C186.862 108.653 180.525 101.342 180.525 101.342C180.525 101.342 177.804 115.863 178.018 120.185C178.231 124.507 179.598 130.158 179.598 130.158C179.598 130.158 172.327 120.466 177.01 106.774Z" fill="white"></path>
<path d="M21.4259 145.419C14.701 137.653 14.1716 130.971 14.1716 130.971C14.1716 130.971 14.4695 149.629 15.0539 151.878C15.6383 154.127 21.8876 162.231 21.8876 162.231C21.8876 162.231 18.4782 156.526 16.8807 153.345C15.2831 150.163 17.6422 142.919 17.6422 142.919C17.6422 142.919 23.2627 151.942 24.2466 154.987C25.2305 158.031 25.7851 162.393 25.7851 162.393C25.7851 162.393 28.1509 153.185 21.4259 145.419Z" fill="white"></path>
</svg>