<svg height="100%" viewbox="0 0 200 200" width="100%" xmlns="http://www.w3.org/2000/svg">
<path d="M99.3231 60.0169C83.2278 72.5354 84.0715 96.2313 72 108.303C55.2356 125.067 38.5665 125.203 26 108.303C35.5684 140.948 77.5197 158.464 109 143C134.484 130.481 135.164 94.5767 145 91C154.836 87.4233 168.179 80.4996 170.5 78C172.821 75.5004 173.5 60.0172 167.281 60.0172C161.062 60.0172 115.418 47.4983 99.3231 60.0169Z" fill="black"></path>
<path d="M145 74.1699C145 74.1699 137.5 82.1699 129.5 81.6699C121.5 81.1699 114 74.1699 114 74.1699C114 74.1699 120 66.6699 129.5 66.6699C139 66.6699 145 74.1699 145 74.1699Z" fill="white"></path>
<circle cx="129.5" cy="74.1699" fill="black" r="7.5"></circle>
</svg>