<svg height="100%" viewbox="0 0 200 200" width="100%" xmlns="http://www.w3.org/2000/svg">
<path d="M71.6157 126.503L62.1257 125.744C62.1257 125.744 58.0296 117.122 53.3044 106.487L53.2081 125.467L51.664 102.77C49.9941 98.9595 48.2964 94.9982 46.7146 91.1606L39.2875 126.66L44.713 86.2075C43.1187 82.1723 41.7402 78.4311 40.7675 75.3464L15.3728 105.492L38.5028 70.4837C37.1297 68.1872 35.3357 65.8228 33.2754 63.4607L4.28605 70.3327L30.2245 60.1541C18.184 47.7496 0.713867 36.335 0.713867 36.335L43.2014 55.0618L30.2245 60.1541C31.2892 61.251 32.3115 62.3556 33.2754 63.4607L44.9753 60.6873L38.5028 70.4837C39.4987 72.1493 40.2733 73.7792 40.7675 75.3464L47.1926 67.7192L44.713 86.2075C45.3498 87.8194 46.021 89.4781 46.7146 91.1606L49.8535 76.1575L51.664 102.77C52.2156 104.029 52.7641 105.271 53.3044 106.487L53.4012 87.4085L63.3794 119.052L75.4856 98.7709L71.6157 126.503Z" fill="black"></path>
<path d="M67.9772 102.951L63.7527 110.03C63.7527 110.03 59.3537 110.47 54.0656 110.76L59.9185 116.819L52.2219 110.853C50.3367 110.939 48.3931 110.999 46.5367 111.009L54.4377 127.929L44.1574 110.99C42.2343 110.947 40.4932 110.831 39.1265 110.608L37.8131 139.696L36.6647 110.821C35.3745 111.156 33.8862 111.794 32.2868 112.638L22.2358 137.158L29.9777 113.947C21.0651 119.321 10.1777 129.193 10.1777 129.193L33.851 102.335L29.9777 113.947C30.7658 113.472 31.5385 113.032 32.2868 112.638L36.3434 102.741L36.6647 110.821C37.6005 110.578 38.4321 110.495 39.1265 110.608L39.4588 103.249L44.1574 110.99C44.9255 111.008 45.7227 111.013 46.5367 111.009L43.1974 103.857L52.2219 110.853C52.8446 110.824 53.4609 110.793 54.0656 110.76L48.1821 104.669L62.2017 106.953L60.9928 91.2227L67.9772 102.951Z" fill="#3E3E60"></path>
<path d="M126.72 126.523L128.099 133.563C128.099 133.563 132.464 135.105 137.812 136.759L129.197 140.258L139.68 137.328C141.594 137.903 143.579 138.472 145.495 138.976L130.173 151.001L147.964 139.595C149.972 140.073 151.822 140.44 153.33 140.619L142.4 165.267L155.787 141.454C156.98 142.078 158.25 143.008 159.548 144.139L159.586 167.305L161.383 145.85C168.333 152.717 175.425 163.869 175.425 163.869L162.282 135.116L161.383 145.85C160.769 145.243 160.155 144.669 159.548 144.139L159.533 134.79L155.787 141.454C154.921 141.001 154.096 140.71 153.33 140.619L156.095 134.382L147.964 139.595C147.162 139.405 146.335 139.197 145.495 138.976L151.971 133.893L139.68 137.328C139.048 137.138 138.423 136.948 137.812 136.759L146.471 133.241L131.004 131.407L138.9 118.59L126.72 126.523Z" fill="black"></path>
<path d="M142.564 123.707L149.9 126.675C149.9 126.675 153.19 122.874 156.997 118.068L156.787 129.73L158.319 116.385C159.664 114.654 161.034 112.841 162.313 111.062L167.513 135.496L163.932 108.752C165.223 106.857 166.343 105.063 167.14 103.525L186.288 131.178L168.961 101.366C170.055 100.455 171.475 99.6557 173.1 98.9539L195.372 113.649L175.505 98.0317C184.984 94.7874 198.639 94.1132 198.639 94.1132L165.565 90.2186L175.505 98.0317C174.667 98.3185 173.861 98.6255 173.1 98.9539L164.112 93.0233L168.961 101.366C168.167 102.026 167.545 102.744 167.14 103.525L162.295 96.5291L163.932 108.752C163.416 109.509 162.873 110.283 162.313 111.062L160.115 100.736L158.319 116.385C157.874 116.956 157.432 117.519 156.997 118.068L157.208 106.345L149.032 122.122L139.992 105.319L142.564 123.707Z" fill="#3E3E60"></path>
<path d="M110.298 49.1959C100.528 61.8181 56.6286 43.5585 52.1849 58.4337C47.7412 73.3089 65.8971 100.343 65.8971 100.343C65.8971 100.343 78.5955 119.987 94.447 117.368C110.298 114.749 127.113 100.343 127.113 110.82C127.113 121.297 72.2323 136.358 61.9377 142.906C51.6431 149.454 37.7125 163.61 37.7125 163.61C37.7125 163.61 31.7524 162.3 28.5015 164.92C25.2506 167.539 20.916 174.087 20.916 174.087C20.916 174.087 26.3342 175.397 31.2106 173.432C36.087 171.468 38.7961 164.92 38.7961 164.92L55.7108 156.72L64.6468 152.074L90.811 185.874L76.5669 156.72L120.454 173.432L92.2797 152.074C92.2797 152.074 110.16 150.109 120.454 142.906C130.749 135.703 152.964 114.094 144.295 100.343C135.625 86.5912 111.243 99.0329 100.949 98.3781C90.6542 97.7232 53.2685 73.777 70.6068 66.2916C87.9451 58.8062 104.742 85.2815 118.287 82.0074C131.833 78.7333 161.79 60.7707 161.79 60.7707V54.9089L150.165 47.7058L171.001 40.5027L146.461 43.122L165.848 26.4664L139.979 40.5027L155.084 13L131.532 39.0522V18.2694L127.113 37.8834L116.277 24.7869L123.62 39.0522C123.62 39.0522 120.069 36.5737 110.298 49.1959Z" fill="black"></path>
<path d="M134.54 64.2118C134.54 64.2118 127.201 72.738 119.374 72.2051C111.546 71.6722 104.208 64.2118 104.208 64.2118C104.208 64.2118 110.079 56.2184 119.374 56.2184C128.669 56.2184 134.54 64.2118 134.54 64.2118Z" fill="white"></path>
<path d="M128.035 64.2185C128.035 68.6368 124.453 72.2185 120.035 72.2185C115.617 72.2185 112.035 68.6368 112.035 64.2185C112.035 59.8002 115.617 56.2185 120.035 56.2185C124.453 56.2185 128.035 59.8002 128.035 64.2185Z" fill="black"></path>
<path d="M144.765 46.5228C144.765 46.5228 140.621 51.732 135.997 51.615C131.373 51.4981 126.89 47.2865 126.89 47.2865C126.89 47.2865 130.18 42.4282 135.658 42.1942C141.135 41.9602 144.765 46.5228 144.765 46.5228Z" fill="white"></path>
<path d="M140.496 46.5141C140.593 48.9974 138.659 51.0895 136.175 51.1869C133.692 51.2843 131.6 49.3501 131.503 46.8668C131.405 44.3835 133.339 42.2914 135.823 42.194C138.306 42.0965 140.398 44.0307 140.496 46.5141Z" fill="black"></path>
<path d="M80.1674 149.254C80.1674 149.254 77.068 153.93 73.7619 153.638C70.4559 153.346 67.3564 149.254 67.3564 149.254C67.3564 149.254 69.836 144.871 73.7619 144.871C77.6879 144.871 80.1674 149.254 80.1674 149.254Z" fill="white"></path>
<path d="M77.6611 148.371C77.6611 150.304 76.0941 151.871 74.1611 151.871C72.2281 151.871 70.6611 150.304 70.6611 148.371C70.6611 146.438 72.2281 144.871 74.1611 144.871C76.0941 144.871 77.6611 146.438 77.6611 148.371Z" fill="black"></path>
<path d="M91.1965 154.385C91.1965 154.385 89.0991 157.549 86.8619 157.352C84.6247 157.154 82.5273 154.385 82.5273 154.385C82.5273 154.385 84.2052 151.419 86.8619 151.419C89.5186 151.419 91.1965 154.385 91.1965 154.385Z" fill="white"></path>
<path d="M89.7637 153.919C89.7637 155.3 88.6444 156.419 87.2637 156.419C85.883 156.419 84.7637 155.3 84.7637 153.919C84.7637 152.538 85.883 151.419 87.2637 151.419C88.6444 151.419 89.7637 152.538 89.7637 153.919Z" fill="black"></path>
<path d="M35.2279 166.959C35.2279 166.959 34.0627 171.297 31.6434 172.165C29.2241 173.032 26.1056 171.128 26.1056 171.128C26.1056 171.128 26.8945 167.2 29.6901 165.922C32.4856 164.644 35.2279 166.959 35.2279 166.959Z" fill="white"></path>
<path d="M33.0385 167.494C33.5971 168.807 33.0267 170.216 31.7644 170.64C30.5021 171.065 29.026 170.344 28.4674 169.031C27.9088 167.717 28.4792 166.308 29.7415 165.884C31.0038 165.46 32.4799 166.18 33.0385 167.494Z" fill="black"></path>
</svg>