<svg height="100%" viewBox="0 0 200 200" width="100%" xmlns="http://www.w3.org/2000/svg">
<path d="M139.5 71C129.493 60.3056 112 45.5 112 45.5L111 66C111 66 55.5 80 44 120.5C32.5 161 20.5 165 20.5 165C20.5 165 31.5 167 38.5 166.5C45.5 166 53.5 160.5 53.5 160.5L60.5 165H79.5C81.75 162 74 157.5 74 157.5L93.5 150.5C93.5 152.5 107 165 107 165C109.254 165 126.438 166.126 126 163.5C125.5 160.5 120 160.5 120 160.5C112.485 152.046 114.957 112.826 123 108C131.907 102.656 147.523 96.8091 158 101V92.5L162 81.5L154.5 88.5C154.5 88.5 145.65 77.5726 139.5 71Z" fill="black"></path>
<path d="M152.5 60C148 66.5 139.5 71 139.5 71V81L150 83C150 83 160 72 162 66C164 60 162 37 162 37C162 37 157 53.5 152.5 60Z" fill="black"></path>
<path d="M134.846 88.8865C131.302 86.022 128.366 83.0864 128.366 83.0864C128.366 83.0864 124.594 87.1885 130.055 91.9071C135.203 96.3546 146.177 96.0753 142.79 94.0066C141.384 94.917 139.556 95.125 137.897 94.4006C135.695 93.4387 134.495 91.1388 134.846 88.8865Z" fill="white"></path>
<path d="M49.4545 149.886C52.9984 147.022 55.935 144.086 55.935 144.086C55.935 144.086 59.7071 148.189 54.2458 152.907C49.0982 157.355 38.1242 157.075 41.5109 155.007C42.9166 155.917 44.7452 156.125 46.4034 155.401C48.6058 154.439 49.8059 152.139 49.4545 149.886Z" fill="white"></path>
</svg>