<svg height="100%" viewbox="0 0 200 200" width="100%" xmlns="http://www.w3.org/2000/svg">
<path d="M155.25 86C159.875 89 166.5 83.5 166.5 83.5L162.125 74.5L175.25 60.5L157.5 64L152.875 57C152.875 57 160.125 48 162.125 41C164.125 34 160.375 18 160.375 18C160.375 18 157.375 31.5 155.375 35.5C153.375 39.5 142.875 48 142.875 48L114.5 24.5L122 41C122 41 113 49.5 99 53C85 56.5 69 56.5 69 56.5L63.5 37.5C63.5 37.5 38 67.5 38 99.5C38 131.5 51 132 46 152C41 172 7.5 163 7.5 163C7.5 163 37 179.5 53 173C69 166.5 74.5 155 74.5 155C74.5 155 79.5 154 82 157C84.5 160 85 166.5 85 166.5C85 166.5 94 166 97.5 166.5C101 167 111 173 111 173V166.5L108 163H118.5L111 155.5L99 159C99 159 99 148.5 97.5 144.5C96 140.5 86 135 86 135L94 114.5L112 124L131.5 117.5V126L136 123L137 118.5L144.5 124V118.5L137 108.5C137 108.5 118.5 112 114.5 110C110.5 108 108 93 108 93C108 93 114.5 81 126 78C137.5 75 150.625 83 155.25 86Z" fill="black"></path>
<path d="M148.46 68.6107C146.043 64.3024 144.266 60.1665 144.266 60.1665C144.266 60.1665 138.82 62.7809 142.422 69.7266C145.818 76.2733 156.979 80.4023 154.401 76.9584C152.619 77.3101 150.695 76.7846 149.316 75.3889C147.485 73.5353 147.201 70.7374 148.46 68.6107Z" fill="white"></path>
<path d="M52.8876 158.611C55.3046 154.302 57.0816 150.167 57.0816 150.167C57.0816 150.167 62.5282 152.781 58.9256 159.727C55.5301 166.273 44.3685 170.402 46.9471 166.958C48.7283 167.31 50.653 166.785 52.0316 165.389C53.8625 163.535 54.1466 160.737 52.8876 158.611Z" fill="white"></path>
<path d="M57.3118 87.964C58.6121 81.3777 59.1587 75.2846 59.1587 75.2846C59.1587 75.2846 67.2986 76.3587 65.5821 86.8526C63.9642 96.7438 51.2938 106.795 53.1682 101.257C55.6175 100.958 57.8813 99.466 59.0717 97.0805C60.6528 93.9123 59.8369 90.1785 57.3118 87.964Z" fill="white"></path>
</svg>