<svg height="100%" viewbox="0 0 200 200" width="100%" xmlns="http://www.w3.org/2000/svg">
<path d="M101.498 100L98.3851 58.6889L64.8848 73.189L84.4981 127.5L120.383 105.5L126.883 111.151L123.543 113.689L119.383 109.689L120.383 115.189L123.543 116.689L127.383 115.6L123.543 118.189L116.385 115.463C118.439 117.656 123.596 123.732 125.543 124.189C127.491 124.645 134.088 115.162 137.425 111.151L126.883 95.5L101.498 100Z" fill="#3E3E60"></path>
<path d="M178.836 50.0737C175.369 52.4184 161.147 56.6989 161.147 56.6989L136.7 21.0601L146.573 47.2602C146.573 47.2602 139.35 40.5 118.501 40.5C97.6508 40.5 89.5005 47 89.5005 47L85.5005 48L82.0005 13.5L73.0005 51.5L69.5005 53.5L65.0005 32L53.0005 11L52.0005 35.5L55.8367 61.5L53.0005 63L21.0005 31L41.5005 73C44.5005 88.0884 30.9195 95.1516 30.9195 123.287C30.9195 151.423 41.733 156.582 30.9195 162.209C20.1061 167.836 8.92817 145.702 8.17596 143.451C7.42374 141.201 13.3431 180.783 34.5005 177.5C55.6579 174.217 59.8916 160.5 59.8916 160.5C62.5557 161.75 67.5005 168 67.5005 171.5C67.5005 175.283 59.8916 179.619 59.8916 179.619L88.1001 184.249L97.0327 188L94.2115 181.964L88.1001 179.619H102.204L94.2115 174.401H80.8718C80.8718 174.401 93.4475 161.68 93.4475 157.928C93.4475 154.177 75.4064 138.233 75.4064 138.233C75.4064 138.233 73.5259 132.197 75.4064 126.57C77.287 120.943 84.0452 116.253 84.0452 116.253L96.2683 141.107L125.887 138.762L132.633 145.327L133.409 154.237L136.7 145.327L134.82 138.293L140.461 141.107L146.573 149.956L145.163 138.762L139.051 132.666C139.051 132.666 116.308 126.57 111.783 126.57C107.258 126.57 107.552 95.6204 107.552 95.6204C107.552 95.6204 112.181 85.2359 123.501 83.368C134.82 81.5 142.001 102.456 142.001 102.456C142.001 102.456 152.001 106.137 152.501 105L148.454 99.3719L150.804 95.6204L146.573 97.2979C144.243 94.2669 142.753 90.8788 143.282 87.1796C143.752 83.8971 144.986 79.1476 149.688 83.368C154.389 87.5883 159.561 94.4843 159.561 94.4843L160.501 97.2979L157.68 98.7047L161.441 99.6425L161.911 102.456L159.091 103.863C159.091 103.863 176.309 104.879 174.135 101.187C171.96 97.4961 170.844 93.7447 170.844 93.7447L182.303 85.7728L169.433 87.5883L166.613 66.9553C166.613 66.9553 181.991 58.7661 184.948 54.7631C187.905 50.7601 192 34.1301 192 34.1301C192 34.1301 182.303 47.7291 178.836 50.0737Z" fill="black"></path>
<path d="M158.824 81.7617C157.856 77.5623 157.382 73.6641 157.382 73.6641C157.382 73.6641 152.181 74.5184 153.496 81.2165C154.734 87.5298 163.068 93.7218 161.753 90.2065C160.175 90.0645 158.693 89.1529 157.88 87.6466C156.802 85.646 157.249 83.2338 158.824 81.7617Z" fill="white"></path>
<path d="M61.6233 41.388C61.0694 37.1142 60.9774 33.1883 60.9774 33.1883C60.9774 33.1883 55.7181 33.5315 56.373 40.3258C56.9904 46.7298 64.6803 53.7048 63.7142 50.078C62.1581 49.7829 60.7713 48.7311 60.1098 47.1528C59.2313 45.0565 59.9121 42.6995 61.6233 41.388Z" fill="white"></path>
<path d="M73.713 70.4866C77.9207 66.8307 81.383 63.1143 81.383 63.1143C81.383 63.1143 86.1727 67.965 79.7016 73.9708C73.6022 79.6317 60.1745 79.7676 64.2248 77.0913C65.9828 78.1431 68.2272 78.3178 70.2229 77.3603C72.8735 76.0885 74.2405 73.2248 73.713 70.4866Z" fill="white"></path>
<path d="M37.7496 165.946C40.2738 163.383 42.3152 160.818 42.3152 160.818C42.3152 160.818 45.6403 163.699 41.7776 167.888C38.1368 171.836 29.5037 172.597 31.9756 170.672C33.1596 171.26 34.6125 171.26 35.8486 170.544C37.4903 169.593 38.2263 167.681 37.7496 165.946Z" fill="white"></path>
</svg>