<svg height="100%" viewbox="0 0 200 200" width="100%" xmlns="http://www.w3.org/2000/svg">
<path d="M69.5972 144.147C69.5972 144.147 60.9066 109.668 55.0163 111.147C46.1035 113.385 42.0165 137.647 42.0165 137.647L50.2534 161.12L50.2534 164L46.4272 166.649L49.2799 172.952L50.7802 169.742L58.7345 168.673L67 166.649L73.9347 167.53L70.5 164L65 163.42L68.5 163L73.5 163.42L69.5972 160.106L65.5 160.106L59.8921 160.977L69.5972 144.147Z" fill="#3E3E60"></path>
<path d="M118.645 106.028L106.645 58.4475L85.1445 94.9382L106.645 138.448L146.745 105.621L151.818 108.197L157.376 104.79L151.787 103.205L153.827 94.9382L162.722 95.2882L162.577 100.408L155.7 102.307L160.864 104.658L164.829 103.518L167.017 97.8104L166.646 106.028L159.495 108.736L169.898 108.612C169.898 108.612 171.262 96.603 171.186 91.0923L151.978 85.7676L118.645 106.028Z" fill="#3E3E60"></path>
<path d="M177.5 51.5L174.5 39.5L185 30.5L189.5 9L180 23.5L168.5 29.5V20L164 9L154.5 3.5L160 11V18L157.5 17L150 8H128L144.5 12L147.5 17C147.5 17 128 11.5 109 26.5C92.6907 39.3757 78.248 69.044 65 84.5L55.5 81.5L46.5 72.5L60 61.5L43 66L45 51L83.5 33L37 40.5L16 62.5L4 96.5L18.5 73.5C23.5 76.3333 25.5 81 27.5 81C29.5 81 18.6667 101 13 111L34 93.5H47.5L51.9914 99.5696L52 99.5C52 99.5 54 100 45.5 111C37 122 43 136.3 35.5 145C28 153.7 15.5 170.5 18.5 179C21.5 187.5 44.5 194.5 52.5 196C60.5 197.5 85 187 85 187C85 187 68 189.5 61.5 189C55 188.5 39.5 184.5 39.5 173C39.5 161.5 58.6263 152.949 69 159L85 165.5L83.5 170.5L77.5 170V179L81 176L91 179H105L112 183L109.5 176L102 175L109 173.5L115 175L113 171.5L106.5 169.5L96.5 170.5L106.5 153L93 140L106.5 128L120.5 145H150L146 151.5L151 157L150.5 151L157 148L159.5 155L150.5 163L162 159L166 151.5L169 157.5L166 164L172 159L171.5 151.5L170.5 145L151 135L133 128C133 128 127.5 113 123 101L122.944 100.85C118.454 88.8793 113.042 74.4459 123 61.5C133 48.5 141 52 141 52C141 52 153.411 65.1367 156.5 73.5L164 70H159L157.5 66L160 62.5H155L153 58.5L156.5 54L150.5 54.5C150.5 54.5 149 44.5 154.5 45C160 45.5 162.5 51.5 162.5 51.5L159 56L165 54L169 57.5L166.5 62.5L172 60.5L174.5 65L171 70C171 70 186.5 64 183 61.5C178.397 58.212 183.372 54.7831 185.5 51L177.5 51.5Z" fill="black"></path>
<path d="M28.6025 57.4475C31.3169 53.4537 33.3937 49.5742 33.3937 49.5742C33.3937 49.5742 38.4796 52.5761 34.3899 59.0394C30.535 65.1315 19.3189 68.2191 22.1184 65.0806C23.8238 65.5722 25.7423 65.2215 27.2017 63.9775C29.14 62.3253 29.6507 59.624 28.6025 57.4475Z" fill="white"></path>
<path d="M47.4919 136.076L63.5367 115.103L74.9044 110.575L70.6487 130.602L79.2547 113.9L79.2554 113.842L88.7978 97.5419L88.9839 84.1357L80.5174 98.3404L72.0962 94.1955L82.4341 80.9118L68.5405 90.1956L68.8202 77.5853L88.7016 63L63.8609 72.8946L40.3313 97.6824L27 119.241L41.3612 106.438C45.8367 107.016 55.2089 108.005 56.893 107.334C58.5771 106.663 51.3273 126.216 47.4919 136.076Z" fill="#3E3E60"></path>
<path d="M54.9651 89.0166C57.6052 85.0222 59.6144 81.1494 59.6144 81.1494C59.6144 81.1494 64.6952 84.0604 60.7233 90.5208C56.9795 96.6101 45.899 99.8149 48.6343 96.6674C50.3314 97.1329 52.229 96.7606 53.66 95.5086C55.5605 93.8457 56.0323 91.1611 54.9651 89.0166Z" fill="white"></path>
<path d="M39.0574 184.934C36.4036 182.643 34.2185 180.312 34.2185 180.312C34.2185 180.312 31.2149 183.372 35.297 187.138C39.1446 190.687 47.5915 190.747 45.0386 189.071C43.9347 189.736 42.5232 189.85 41.266 189.252C39.5963 188.457 38.7308 186.658 39.0574 184.934Z" fill="white"></path>
<path d="M165.762 42.6916C165.546 39.2725 165.678 36.1535 165.678 36.1535C165.678 36.1535 161.488 36.1512 161.653 41.5749C161.808 46.6872 167.544 52.6215 166.967 49.6941C165.748 49.3788 164.703 48.4721 164.261 47.1855C163.673 45.4768 164.336 43.6426 165.762 42.6916Z" fill="white"></path>
<path d="M156.398 38.5441C155.208 36.2668 154.349 34.0891 154.349 34.0891C154.349 34.0891 151.476 35.3639 153.242 39.0307C154.906 42.4869 160.644 44.8064 159.357 42.976C158.426 43.1313 157.433 42.8283 156.738 42.0813C155.815 41.0892 155.711 39.6302 156.398 38.5441Z" fill="white"></path>
</svg>