<svg height="100%" viewBox="0 0 200 200" width="100%" xmlns="http://www.w3.org/2000/svg">
<path d="M166.743 72.7539L151.491 54.1885L146.725 48C146.725 48 143.865 50.8562 143.865 53.2364C143.865 55.6166 144.818 57.9968 144.818 57.9968L140.529 60.853C137.192 57.0447 120.987 48 120.987 48C120.987 48 121.464 57.5207 122.894 60.853C124.324 64.1852 128.137 67.5175 128.137 67.5175L106.689 72.7539H120.987L112 81L97 92L75.5 94.5L49 106.5L72.3633 105.124L79 106.5L60.4478 117.501L29 147.016C29 147.016 54.7284 170.341 60.4478 171.769C66.1672 173.198 82 168.5 82 168.5L87 174.5L95.5 170.5L111.5 171C111.5 171 95.5 165.11 93.3344 164.629C91.1689 164.148 68.2165 167.575 63.7841 166.533C59.3517 165.491 50.9154 152.728 52.8219 148.92C54.7284 145.111 66.5 142.5 66.5 142.5L80.8866 156.06H93.7553L91.8488 154.156L88.5125 153.68L86.606 147.016C86.606 147.016 94.7643 147.016 100.484 144.159C106.203 141.303 113.5 138 113.5 138L122.885 148.92L128.128 153.68H134.324L129.557 148.92L128.128 127.974C128.128 127.974 131.94 110.837 135.753 105.124C145.183 90.9972 161.5 94.5 161.5 94.5L170 90.3672L166.743 72.7539Z" fill="black"></path>
<path d="M151.424 82.6857L156.232 90.1645H142.877L151.424 89.0961L146.082 87.4935L142.877 79.4805L151.424 82.6857Z" fill="white"></path>
<path d="M147.684 86.1887L147.15 83.7514L143.945 80.5462L150.89 83.7514L153.026 88.025L147.684 86.1887Z" fill="black"></path>
<circle cx="150" cy="84" fill="white" r="1"></circle>
<path d="M126.219 133.091L122.872 142.038L114.285 130.542L120.701 137.213L118.645 131.584L123.482 123.672L126.219 133.091Z" fill="white"></path>
<path d="M120.798 132.125L122.553 130.097L123.251 125.277L124.957 133.316L122.652 137.904L120.798 132.125Z" fill="black"></path>
<circle cx="124" cy="133" fill="white" r="1"></circle>
<path clip-rule="evenodd" d="M75.6864 96.7528L71 101.162L80.3773 103.502L74.5631 101.254L78.5948 101.065L82.2495 96L75.6864 96.7528ZM77.6981 99.8667L78.5003 98.2489L81.3125 96.56L76.5218 97.4706C76.6769 97.594 76.7764 97.7844 76.7764 97.998C76.7764 98.37 76.4748 98.6716 76.1029 98.6716C75.7669 98.6716 75.4884 98.4256 75.4376 98.104L73.6254 100.22L77.6981 99.8667Z" fill="white" fill-rule="evenodd"></path>
</svg>