<svg height="100%" viewBox="0 0 200 200" width="100%" xmlns="http://www.w3.org/2000/svg">
<path d="M184 123.557C181.838 125.351 154.487 129.401 149 127.557C142.358 125.325 116 82.0571 99.5 82.0571C83 82.0571 71.5 111 71.5 111C71.5 111 88.7417 110.265 94.1357 115.163C99.5296 120.061 120.5 145.057 120.5 145.057C120.5 145.057 157.603 138.912 173.5 147.557C194.792 159.135 187.169 182.947 162.5 186.057C144.321 188.349 118.423 177.457 108.549 178.701C98.6757 179.946 97 186.057 97 186.057C97 186.057 100.088 172.209 107.611 171.26C115.134 170.312 122.51 176.941 141.155 174.591C159.204 172.316 157 155.449 126.5 161.557C106.001 165.663 87.7861 188.782 46.4222 161.557C27.6711 149.215 29.4913 126.768 30.4472 92.6725C31.4031 58.5769 39.7773 50.2946 46.4222 42.9054C53.0671 35.5163 72.5756 24.9935 72.5756 24.9935C72.5756 24.9935 56.3866 28.0424 45.6092 36.4565C34.8318 44.8705 37.0431 51.1432 30.364 54.505C23.6849 57.8667 6.22261 62.0839 6.22261 62.0839C6.22261 62.0839 27.0329 46.8618 36.7529 37.5729C46.473 28.2841 80.2779 18.4792 80.2779 18.4792C80.2779 18.4792 62.7794 18.6535 49.5141 22.3574C36.2488 26.0613 35.94 31.124 27.7375 33.6699C19.535 36.2158 10.582 32.8086 10.582 32.8086C10.582 32.8086 35.0928 20.6477 47.0868 18.1277C59.0808 15.6078 95.115 14.5771 95.115 14.5771C95.115 14.5771 79.9252 4.41284 64.299 11.9263C48.6728 19.4397 39.1228 7.54078 39.1228 7.54078C39.1228 7.54078 82.9507 1.85018 102.168 13.688C115.771 22.0679 117.246 23.415 129.54 37.5848C141.835 51.7547 163.605 112.087 172 116.057C174.54 117.258 180.5 117.903 184 115.163C187.5 112.422 186.162 121.763 184 123.557Z" fill="black"></path>
<path d="M39.5898 109.246C46.0986 110.988 48.8737 112.813 48.8737 112.813L48.6686 121.269L35.6532 124.928C35.6532 124.928 41.9587 128.205 44.3476 130.811C46.7366 133.418 47.8332 140.472 47.8332 140.472L29.5357 126.163C29.5357 126.163 38.8694 136.328 41.9109 140.214C44.9524 144.1 43.4567 151.292 43.4567 151.292L25.4525 127.987C25.4525 127.987 38.3203 148.63 40.4471 152.662C42.574 156.695 39.9697 163.638 39.9697 163.638L21.8689 129.833C21.8689 129.833 35.3314 160.64 33.774 168.126C32.2166 175.613 28.5731 184.024 28.5731 184.024L19.7621 132.244C19.7621 132.244 23.4334 169.049 21.9144 174.95C20.3955 180.852 9.74707 194.459 9.74707 194.459C9.74707 194.459 19.5043 130.69 16.5479 125.598C13.5916 120.506 31.179 104.97 33.3036 102.46C35.4281 99.9502 43.7084 98.8944 43.7084 98.8944C43.7084 98.8944 33.081 107.504 39.5898 109.246Z" fill="#3E3E60"></path>
<path d="M92.0105 104.631C88.8917 110.604 88.3595 113.882 88.3595 113.882L94.7272 119.45L106.225 112.337C106.225 112.337 104.374 119.198 104.678 122.721C104.983 126.243 109.437 131.822 109.437 131.822L111.272 108.666C111.272 108.666 112.447 122.416 113.253 127.285C114.058 132.153 120.368 135.915 120.368 135.915L115.377 106.892C115.377 106.892 121.881 130.332 123.412 134.625C124.944 138.919 131.82 141.697 131.82 141.697L119.161 105.501C119.161 105.501 132.748 136.252 139.317 140.168C145.885 144.084 154.545 147.089 154.545 147.089L122.361 105.579C122.361 105.579 146.99 133.175 152.364 136.047C157.738 138.919 174.963 140.278 174.963 140.278C174.963 140.278 121.391 104.338 119.639 98.7169C117.888 93.0955 94.549 95.5435 91.2634 95.4111C87.9777 95.2787 81.6 100.664 81.6 100.664C81.6 100.664 95.1292 98.6583 92.0105 104.631Z" fill="#3E3E60"></path>
<path d="M102.014 109.059C96.2705 111.55 93.7778 113.614 93.7778 113.614L93.6132 121.407L99.9564 117.028C99.9564 117.028 99.1499 124.544 96.3414 128.55C93.5328 132.555 95.522 138.838 95.522 138.838L105.556 121.818C105.556 121.818 99.8954 141.813 97.878 145.83C95.8607 149.847 99.4742 159.422 99.4742 159.422L108.422 127.58C108.422 127.58 103.638 156.022 104.692 162.736C105.745 169.451 108.579 176.739 108.579 176.739L112.223 129.85C112.223 129.85 113.666 162.192 114.751 167.446C115.835 172.699 124.563 183.846 124.563 183.846C124.563 183.846 114.705 127.782 117.489 122.672C120.272 117.563 109.518 103.967 107.768 101.933C106.018 99.8984 98.8447 100.041 98.8447 100.041C98.8447 100.041 107.757 106.568 102.014 109.059Z" fill="#3E3E60"></path>
<path d="M40.0657 119.073C44.8722 117.798 47.442 117.857 47.442 117.857L51.3815 122.635L45.2716 123.028C45.2716 123.028 49.4742 127.316 53.1969 128.43C56.9197 129.544 58.7729 134.44 58.7729 134.44L44.1393 128.77C44.1393 128.77 57.5111 138.448 60.7463 139.959C63.9816 141.47 66.4428 149.218 66.4428 149.218L45.1893 133.773C45.1893 133.773 62.1728 149.148 64.8219 153.852C67.4709 158.556 69.2921 164.494 69.2921 164.494L43.9368 137.059C43.9368 137.059 58.9594 157.931 60.8698 161.74C62.7801 165.548 62.827 176.793 62.827 176.793C62.827 176.793 41.3714 136.992 37.1209 135.177C32.8704 133.362 32.8812 119.593 32.9703 117.463C33.0595 115.334 37.6015 111.891 37.6015 111.891C37.6015 111.891 35.2591 120.347 40.0657 119.073Z" fill="#3E3E60"></path>
<path clip-rule="evenodd" d="M155.269 116.81C155.081 116.937 154.885 117.062 154.683 117.182C154.572 117.247 154.461 117.309 154.348 117.369C154.342 117.383 154.337 117.398 154.332 117.413C154.18 117.877 154.432 118.376 154.896 118.528C155.36 118.681 155.859 118.428 156.011 117.964C156.164 117.501 155.911 117.001 155.447 116.849C155.388 116.83 155.329 116.817 155.269 116.81ZM149.976 118.525C149.7 118.547 149.443 118.559 149.213 118.566C149.207 118.71 149.206 118.855 149.211 119.001C149.277 120.888 150.268 122.523 151.734 123.487C150.622 122.661 149.882 121.356 149.831 119.864C149.815 119.401 149.866 118.952 149.976 118.525ZM156.823 115.577C158.222 116.353 159.191 117.822 159.251 119.538C159.339 122.091 157.38 124.24 154.848 124.404C154.898 124.404 154.948 124.403 154.998 124.401C158.087 124.294 160.505 121.703 160.398 118.614C160.335 116.813 159.429 115.241 158.072 114.263C157.742 114.659 157.325 115.113 156.823 115.577ZM150.947 118.415C151.59 118.321 152.286 118.173 152.98 117.944C153.541 118.295 153.813 118.995 153.597 119.652C153.344 120.425 152.512 120.846 151.739 120.592C150.966 120.338 150.545 119.506 150.799 118.733C150.836 118.619 150.886 118.513 150.947 118.415Z" fill="white" fill-rule="evenodd"></path>
<path clip-rule="evenodd" d="M78.5097 128.237C78.1851 128.455 77.8486 128.669 77.5002 128.875C77.3108 128.988 77.1188 129.095 76.9248 129.197C76.9149 129.222 76.9057 129.248 76.8971 129.274C76.6352 130.072 77.0699 130.932 77.8679 131.193C78.6659 131.455 79.5251 131.021 79.787 130.223C80.0488 129.425 79.6142 128.565 78.8162 128.304C78.7145 128.27 78.6119 128.248 78.5097 128.237ZM69.4003 131.187C68.9252 131.224 68.4838 131.246 68.0872 131.258C68.0767 131.506 68.0757 131.756 68.0844 132.008C68.197 135.254 69.9034 138.069 72.4257 139.727C70.5121 138.306 69.2395 136.06 69.1505 133.493C69.1229 132.696 69.2112 131.922 69.4003 131.187ZM81.1838 126.114C83.5917 127.449 85.2596 129.978 85.362 132.93C85.5143 137.325 82.1417 141.024 77.7836 141.305C77.8701 141.304 77.9568 141.302 78.0437 141.299C83.3598 141.115 87.5199 136.656 87.3356 131.34C87.2281 128.241 85.6683 125.535 83.3329 123.854C82.7642 124.535 82.0469 125.316 81.1838 126.114ZM71.071 130.999C72.1779 130.836 73.3768 130.582 74.5701 130.187C75.5359 130.791 76.0039 131.996 75.6329 133.126C75.1964 134.456 73.7645 135.181 72.4344 134.744C71.1044 134.308 70.38 132.876 70.8164 131.546C70.8808 131.35 70.9668 131.167 71.071 130.999Z" fill="white" fill-rule="evenodd"></path>
<path clip-rule="evenodd" d="M144.214 112.159C144.131 112.215 144.045 112.27 143.955 112.323C143.906 112.352 143.857 112.38 143.807 112.406C143.805 112.412 143.802 112.419 143.8 112.426C143.733 112.631 143.844 112.852 144.049 112.919C144.255 112.986 144.475 112.874 144.543 112.669C144.61 112.464 144.498 112.244 144.293 112.176C144.267 112.168 144.241 112.162 144.214 112.159ZM141.874 112.917C141.752 112.927 141.638 112.932 141.536 112.935C141.534 112.999 141.533 113.063 141.536 113.128C141.564 113.962 142.003 114.685 142.651 115.111C142.159 114.746 141.832 114.169 141.809 113.509C141.802 113.305 141.825 113.106 141.874 112.917ZM144.902 111.613C145.52 111.957 145.949 112.606 145.975 113.365C146.014 114.494 145.148 115.444 144.028 115.517C144.05 115.517 144.072 115.516 144.095 115.515C145.461 115.468 146.53 114.322 146.482 112.956C146.455 112.16 146.054 111.465 145.454 111.033C145.308 111.208 145.123 111.409 144.902 111.613ZM142.303 112.869C142.587 112.827 142.896 112.762 143.202 112.66C143.45 112.815 143.571 113.125 143.475 113.415C143.363 113.757 142.995 113.943 142.653 113.831C142.312 113.719 142.125 113.351 142.238 113.009C142.254 112.959 142.276 112.912 142.303 112.869Z" fill="white" fill-rule="evenodd"></path>
<path clip-rule="evenodd" d="M36.0559 113.333C36.224 113.464 36.3988 113.592 36.5803 113.717C36.679 113.785 36.7793 113.85 36.8808 113.913C36.8852 113.927 36.8893 113.941 36.893 113.956C37.0057 114.399 36.7379 114.849 36.2949 114.962C35.8519 115.075 35.4015 114.807 35.2888 114.364C35.1762 113.921 35.4439 113.47 35.8869 113.358C35.9434 113.343 35.9999 113.335 36.0559 113.333ZM40.8928 115.271C41.1494 115.309 41.3882 115.338 41.6031 115.359C41.5996 115.494 41.5909 115.629 41.5769 115.766C41.3956 117.525 40.3645 118.99 38.9331 119.797C40.0252 119.097 40.7998 117.924 40.9431 116.533C40.9876 116.101 40.9683 115.677 40.8928 115.271ZM34.6823 112.081C33.3255 112.717 32.3264 114.029 32.1617 115.628C31.9163 118.008 33.6114 120.142 35.968 120.455C35.9206 120.452 35.8732 120.447 35.8256 120.443C32.946 120.146 30.8522 117.571 31.1489 114.691C31.3219 113.013 32.2689 111.601 33.5991 110.775C33.8827 111.165 34.2432 111.616 34.6823 112.081ZM39.9924 115.108C39.3976 114.978 38.7562 114.796 38.1229 114.538C37.576 114.83 37.2773 115.467 37.4369 116.094C37.6247 116.833 38.3754 117.279 39.1137 117.091C39.852 116.903 40.2983 116.153 40.1106 115.414C40.0828 115.305 40.0428 115.203 39.9924 115.108Z" fill="white" fill-rule="evenodd"></path>
<path clip-rule="evenodd" d="M104.27 105.981C104.172 106.13 104.068 106.279 103.957 106.427C103.897 106.507 103.835 106.586 103.771 106.663C103.772 106.675 103.772 106.688 103.773 106.7C103.803 107.082 104.136 107.367 104.518 107.338C104.899 107.308 105.185 106.975 105.155 106.593C105.126 106.212 104.792 105.927 104.411 105.956C104.362 105.96 104.315 105.968 104.27 105.981ZM100.954 108.817C100.761 108.916 100.579 109.003 100.414 109.077C100.453 109.183 100.496 109.288 100.544 109.393C101.159 110.738 102.369 111.624 103.72 111.88C102.667 111.617 101.739 110.895 101.252 109.831C101.101 109.5 101.003 109.159 100.954 108.817ZM105.024 104.621C106.27 104.761 107.415 105.533 107.974 106.757C108.807 108.579 108.036 110.725 106.253 111.606C106.289 111.591 106.324 111.575 106.36 111.559C108.564 110.551 109.534 107.947 108.526 105.743C107.939 104.458 106.809 103.592 105.532 103.293C105.412 103.679 105.247 104.134 105.024 104.621ZM101.624 108.445C102.061 108.183 102.521 107.866 102.954 107.492C103.466 107.577 103.874 108.001 103.916 108.542C103.965 109.178 103.489 109.733 102.853 109.783C102.217 109.832 101.662 109.356 101.613 108.72C101.605 108.626 101.61 108.534 101.624 108.445Z" fill="white" fill-rule="evenodd"></path>
<path d="M83.7439 188.167C90.741 189.744 100 181.557 100 181.557C100 181.557 90.0295 200.105 84.5 193.057C83.5144 191.8 83.3746 190.103 83.7439 188.167C82.633 187.917 81.5791 187.421 80.6283 186.607C75.7157 182.399 83.2293 171.709 84.6616 166.63C78.3398 168.526 83.3252 173.428 75 172.557C65.4366 171.556 70.6427 183.419 61.5 184.557C52.3572 185.694 38 178.477 38 178.477C38 178.477 58.9856 181.955 64 178.477C69.0143 174.999 72.516 166.328 82.0298 164.057C84.8083 163.394 85.2525 164.534 84.6616 166.63C85.6018 166.348 86.7921 166.132 88.3134 166.012C97.97 165.248 85.4464 179.243 83.7439 188.167Z" fill="#3E3E60"></path>
<path d="M159.139 101.986C162.485 109.021 167 112.557 167 112.557C167 112.557 163.489 108.016 164.493 101.986C165.497 95.9551 177.545 101.986 182.23 96.9602C186.915 91.9348 182.23 81.5566 182.23 81.5566L175 80.5566C175 80.5566 178.512 86.8714 175.5 90.5566C172.488 94.2419 155.792 94.95 159.139 101.986Z" fill="#3E3E60"></path>
<path d="M188.5 43.0566L161.5 106.057L162.5 112.057L167.5 113.057L188.5 43.0566Z" fill="black"></path>
<path d="M144.413 63.4577C147.76 71.1632 175 76.5566 176 82.5566C177 88.5566 183.5 85.5566 183.5 85.5566C183.5 85.5566 183.5 81.5566 180 76.5566C176.5 71.5566 151.441 72.1683 148.095 63.4577C144.748 54.747 159.138 50.0566 159.138 50.0566C159.138 50.0566 141.067 55.7521 144.413 63.4577Z" fill="#3E3E60"></path>
<defs></defs>
</svg>