<svg height="100%" viewBox="0 0 200 200" width="100%" xmlns="http://www.w3.org/2000/svg">
<path d="M119 72.8954C116 72.8954 114.802 71.4041 109.966 76.9838C105.13 82.5635 102.798 90.5001 103.5 95.0001C104.202 99.5001 111.5 102 119 104C126.5 106 125.712 105.5 131.5 102C137.288 98.5001 127.5 95.5102 135.5 93.0102C143.5 90.5102 141 105.5 136 105.5C130.654 105.5 131.5 109 123.5 112C123.5 112 127.509 119.155 131.5 119.155C135.491 119.155 137 112.5 139 116.5C141 120.5 136 127 129.712 126.5C123.425 126 125.5 122.5 123.5 119.5C121.5 116.5 111 117.5 105.5 114C100 110.5 85 106 85 106C85 106 68.7983 110.201 69.0327 119.5C69.267 128.8 84 127.965 82 140.965C80 153.965 64.7874 159.936 64.7874 159.936C64.7874 159.936 74.4421 153.5 75.5 144C76.5579 134.5 62.5 140.965 53.3936 129.805C44.2872 118.646 45.7201 100.419 49.3021 93.0102C52.884 85.6018 66.512 75.5703 74.256 70.7852C82 66.0001 106.58 48.7823 129.712 51.3982C137.009 52.2234 140 59.5001 143 63.0001C146 66.5001 158.5 63.9117 155.5 68.0001C152.5 72.0886 148.297 77.9408 141 76.9838C133.703 76.0268 122 72.8954 119 72.8954Z" fill="black"></path>
<path d="M124.142 64.396L138.072 69.9291L132.582 72.9555L124.142 64.396Z" fill="white"></path>
<circle cx="130.948" cy="66.9479" fill="black" r="2.54035" transform="rotate(10.1408 130.948 66.9479)"></circle>
<path d="M106.097 104.431L121.48 109.433L115.775 113.069L106.097 104.431Z" fill="white"></path>
<circle cx="113.698" cy="106.74" fill="black" r="2.74146" transform="rotate(6.48966 113.698 106.74)"></circle>
</svg>