<svg height="100%" viewbox="0 0 200 200" width="100%" xmlns="http://www.w3.org/2000/svg">
<path d="M112.588 111.325L113.827 98.1388C113.827 98.1388 152.06 123.139 155.595 125.718C159.13 128.297 165.032 127.083 165.456 130.098L167.61 145.389L163.843 157.25L163.722 149.959L161.501 150.272L157.516 157.371C157.516 157.371 157.516 165.5 147.577 165.31C137.639 165.121 147.488 163.383 153 159C158.512 154.616 155.546 153.034 155.546 153.034L149.179 150.944L144.033 146.578L139.131 140.73C139.131 140.73 139.979 132.25 136.083 124.621C132.188 116.991 112.588 111.325 112.588 111.325Z" fill="black"></path>
<path d="M112.474 106.749L113.827 98.1388C113.827 98.1388 152.06 123.139 155.595 125.718C159.13 128.297 165.032 127.083 165.456 130.098L167.61 145.389C167.61 145.389 171 154 163.843 157.25C156.686 160.499 165.577 154.268 165.456 149.727C165.336 145.186 159.732 137.145 159.732 137.145L156.426 136.762L158.363 144.753C158.363 144.753 158.363 149.959 152.262 149.727C146.161 149.496 154 148.31 154.587 144.144C155.173 139.979 152.823 136.091 152.823 136.091L150.54 134.151L149.1 140.994C149.1 140.994 149.1 144.144 144.12 140.427C139.14 136.709 144.707 141.004 147.264 139.288C149.82 137.573 147.306 131.766 147.306 131.766C147.306 131.766 146.202 120.958 135.406 116.358C124.61 111.758 112.474 106.749 112.474 106.749Z" fill="#3E3E60"></path>
<path d="M106.274 82.7881L91.7852 12.2012C91.7852 12.2012 88.7148 41 93 52C97.2852 63 102.188 82.7881 102.188 82.7881L76.1818 25.5755C76.1818 25.5755 78.1539 43.0838 81.5 52C84.8461 60.9162 99.2154 86.1317 99.2154 86.1317L62.4359 36.3493C62.4359 36.3493 74.3382 68.8998 80 72C85.6618 75.1002 99.2154 92.8189 99.2154 92.8189L50.1447 60.126C50.1447 60.126 57.3986 79.4445 70.9493 82.7881C84.5 86.1317 96.212 96.534 96.212 96.534L99.2154 92.8189L106.274 82.7881Z" fill="#3E3E60"></path>
<path d="M125.221 66C135 61.3215 147.171 61.3215 147.171 61.3215L158.286 78.7015C158.286 78.7015 164.931 81.3426 172.5 81.7782C180.069 82.2139 163 88.5 154.459 88.8504C145.917 89.2009 139.884 80.684 139.884 80.684C139.884 80.684 121.149 85.5496 120.221 92.5306C119.294 99.5116 114.5 130.5 104.097 130.5C93.694 130.5 54.5771 104.847 60.2068 137.5C63.9137 159 98.018 159.802 87.2699 175.034C76.5219 190.266 60.2068 192.495 60.2068 192.495C60.2068 192.495 73.1138 188.78 80.5126 175.034C87.9114 161.288 65.7483 160 51.2594 150C36.7705 140 40.0414 119.469 46.622 109C53.2027 98.5306 78 94.3049 78 94.3049H64.5C54.2068 94.3049 42.0028 80.4202 42.0028 80.4202C54.8275 83.8649 68.7066 89.1598 82 90.5C82 90.5 83.6449 87.2158 64.5 81.7782C45.3551 76.3407 29 52.8913 29 52.8913C47.8171 65.7493 67.2761 79.2808 89 86.5C89 86.5 85.5696 76.2207 64.5 68.5C43.4304 60.7793 33.6374 22.2012 33.6374 22.2012C52.2947 42.7086 71.835 65.1569 94.5 81.4202C94.5 81.4202 82.7406 65.5814 69.5 54.9248C56.2594 44.2683 48.682 7 48.682 7C66.2929 34.2148 81.0274 60.3284 104.097 83.2271C104.097 83.2271 115.442 70.6785 125.221 66Z" fill="black"></path>
<path d="M94.7573 145.573C97.3579 149.008 98.911 161.721 107 165C115.089 168.279 111.39 179.095 111.39 179.095L115.3 187.004C115.3 187.004 115.715 191.655 121.858 189.577C128 187.5 119.246 188.5 116.111 183.996C112.976 179.493 114.698 178.777 114.698 178.777L122.5 177C122.5 177 128.061 179.637 130.53 179.819C133 180 135.645 178.778 135.645 178.778C135.645 178.778 143.341 176.277 138.899 171.187C134.458 166.098 139.556 176.838 133 176.5C126.444 176.162 127.067 173.24 127.067 173.24L128.992 166.098L137.087 156.989C137.087 156.989 140.5 151 134.404 149.008C128.308 147.017 134.916 152.562 134.458 156.281C133.999 160 128.127 161.832 128.127 161.832L121.858 158.576L125.561 154.861C125.561 154.861 133.999 150.5 125.561 146.316C117.123 142.132 125.561 148.337 125.561 151C125.561 153.663 119.246 156.989 119.246 156.989C119.246 156.989 111.39 151 108 145C104.61 139 96.8099 118.182 97.5 105C98.0338 94.8028 111.351 89.5697 111.351 89.5697C111.351 89.5697 102.84 90.9998 89.9814 97.116C77.1229 103.232 78.6919 110.605 78.6919 110.605L88.8919 117.338C88.8919 117.338 85.4695 133.313 85.841 136.657C86.2126 140 92.1567 142.138 94.7573 145.573Z" fill="#3E3E60"></path>
<path clip-rule="evenodd" d="M97.0724 132.026C95.5545 132.35 93.9504 131.628 93.2198 130.177C92.3512 128.452 93.0456 126.349 94.7707 125.481C94.9248 125.403 95.0818 125.338 95.2408 125.285L93.5328 119L91.0766 135.366L98.944 138.913L97.0724 132.026Z" fill="white" fill-rule="evenodd"></path>
<path d="M147.41 75.3283L142.845 72.2861L150.353 84.0328L157.311 81.9251L152.307 78.5911C151.524 79.638 150.106 80.0687 148.838 79.5525C147.331 78.9389 146.607 77.2199 147.221 75.7129C147.275 75.5783 147.339 75.45 147.41 75.3283Z" fill="white"></path>
<path clip-rule="evenodd" d="M65.4217 38.9057C64.3417 39.5485 62.9241 39.4111 61.9872 38.4876C60.8734 37.3899 60.8604 35.5971 61.9581 34.4833C62.0562 34.3838 62.1597 34.2931 62.2679 34.2113L59.3271 29.834L61.6898 43.0233L68.6443 43.7025L65.4217 38.9057Z" fill="white" fill-rule="evenodd"></path>
<path clip-rule="evenodd" d="M97.1482 46.5195C95.9191 46.7823 94.6204 46.1979 94.0288 45.0228C93.3255 43.6261 93.8878 41.9236 95.2845 41.2204C95.4093 41.1576 95.5364 41.1049 95.6651 41.062L94.2822 35.9731L92.2935 49.224L98.6636 52.0961L97.1482 46.5195Z" fill="white" fill-rule="evenodd"></path>
<path d="M119.151 45.1532C114.416 43.4539 109 33.2583 109 33.2583C109 33.2583 136.865 46.8524 140.249 50.8174C143.632 54.7823 150.74 64.4115 150.74 64.4115C150.74 64.4115 150.384 56.5 144.5 48.5C138.616 40.5 134.249 38.0775 132 35C129.751 31.9225 127.482 17 127.482 17C127.482 17 141.185 38.1882 143.664 42.1532C146.144 46.1181 157 64.4115 157 64.4115C157 64.4115 154.623 53.5978 152.995 48.5C151.368 43.4022 150.32 36.6568 147.5 33.2583C144.68 29.8598 148.5 10.5 148.5 10.5C148.5 10.5 150.49 30.4262 152.995 38.9225C155.5 47.4188 162.5 67.5 162.5 67.5C162.5 67.5 162 49.5 161.5 45.1532C161 40.8063 158.6 37.2583 158.6 33.2583C158.6 29.2583 162.6 12 162.6 12C162.6 12 165 71.5 166.5 74C168 76.5 170 81.5 170 81.5C170 81.5 163.5 81.5 158.6 79C153.7 76.5 143.632 57.048 136.301 50.8174C128.97 44.5867 123.886 46.8524 119.151 45.1532Z" fill="#3E3E60"></path>
</svg>