<svg height="100%" viewBox="0 0 200 200" width="100%" xmlns="http://www.w3.org/2000/svg">
<path d="M118.5 84L108.836 1C108.836 1 106.123 20.9093 106.956 28.489C107.789 36.0687 109.736 37.1373 111.636 47.824C113.535 58.5106 115.415 81.3524 115.415 81.3524L96.8512 1C96.8512 1 93.9559 26.4507 99.3352 33.9313C104.715 41.412 113.535 85.1586 113.535 85.1586L87.0395 18.4357C87.0395 18.4357 84.9902 40.0929 92.1627 47.824C99.3352 55.5551 113.535 92.7709 113.535 92.7709L75 45.1523C75 45.1523 79.5333 68.3776 91.3943 72.9376C103.255 77.4975 111.636 97 111.636 97L113.535 92.7709L118.5 84Z" fill="#3E3E60"></path>
<path d="M118.187 107.813L125.829 98.272C125.829 98.272 139.011 119.631 143.092 122.894C147.173 126.157 180.577 137.185 180.809 140.452L181.984 157.022L176.239 169.072L176.788 161.305L174.039 161.31C174.039 161.31 170.77 170.684 167.494 174.078C164.218 177.471 153.709 178.818 150.426 172.449C147.143 166.079 161.6 174.289 164.597 172.264C167.593 170.239 166.486 163.366 166.486 163.366L159.997 161.241L152.048 164.809C152.048 164.809 147.856 167.864 145.302 162.504C142.747 157.143 151.258 163.024 153.712 161.951C156.166 160.879 157.823 159.443 161.035 156.35C164.247 153.257 163.675 148.732 162.134 146.36C160.593 143.989 153.107 143.003 148.499 138.354C143.891 133.705 118.187 107.813 118.187 107.813Z" fill="black"></path>
<path d="M118.188 107.813L129.565 97.5316C129.565 97.5316 131.597 115.052 149.94 124.348C168.284 133.644 180.578 137.185 180.81 140.452L181.985 157.022C181.985 157.022 181.501 175.518 173.172 178.342C164.843 181.167 177.767 166.624 178.805 161.733C179.844 156.842 173.13 147.097 173.13 147.097L169.119 146.201C169.119 146.201 172.523 155.211 171.796 158.634C171.069 162.058 162.59 171.19 156.51 169.19C150.43 167.19 158.068 161.854 165.982 160.978C173.896 160.103 164.773 144.956 164.773 144.956L162.165 142.558C162.165 142.558 158.235 152.688 156.799 154.64C155.362 156.592 154.301 159.009 147.503 155.087C140.705 151.165 155.828 151.817 157.663 147.534C159.498 143.251 158.434 139.545 158.434 139.545L118.188 107.813Z" fill="#3E3E60"></path>
<path d="M23.7995 110.515L26.3468 111.454L35.0911 107.177C35.0911 107.177 58.3631 98.6151 50.6621 105.416C42.9611 112.217 47.5373 103.17 39.7953 107.177C32.0534 111.184 34.4027 112.217 34.4027 112.217L39.7953 117.63C39.7953 117.63 44.8655 113.938 48.4133 117.63C51.9611 121.322 56.9611 138.822 50.3536 134.064C43.7462 129.305 50.6621 125.822 45.3356 120.344C40.0091 114.866 37.5936 123 37.5936 123C37.5936 123 33.9199 144.189 34 149.5C34.2207 164.126 47.6685 181.5 64.5 181.5C74 181.5 88.5 173 88.5 173C88.5 173 86.5 192.5 64.5 189.5C48.2853 187.289 21.9662 169.228 14.5587 153.979C12.4703 149.68 7.80696 130.648 9.28399 127.665L16.7734 112.539L28.3282 103.802L23.7995 110.515Z" fill="black"></path>
<path d="M17.6366 151.766C19.8327 159.29 33.5007 174.5 33.5007 174.5C33.5007 174.5 15.6214 157.836 13.533 153.537C11.4447 149.238 8.96179 134.822 9.28431 127.665C9.60683 120.507 16.7737 112.539 16.7737 112.539C16.7737 112.539 37.2907 89.8223 32.4618 99.3223C27.6329 108.822 25.8516 107.299 21.7402 109.322C17.6289 111.346 19.6884 120.849 19.6884 120.849L21.7402 125.212C21.7402 125.212 22.749 121.106 26.1379 118.214C29.5269 115.322 42.9618 111.015 38.4618 116.822C33.9618 122.629 37.0903 116.187 28.9618 118.822C20.8332 121.458 24.8179 127.665 24.8179 127.665L27.6329 132.189C27.6329 132.189 32.9899 124.062 34.3757 123.442C35.7614 122.822 54.7877 137.162 46.8747 137.162C38.9618 137.162 43.3475 128.676 35.7614 127.665C28.1753 126.653 31.0218 133.145 27.6329 139.822C24.2439 146.499 15.4405 144.243 17.6366 151.766Z" fill="#3E3E60"></path>
<path d="M140 48C150.271 44.2689 161.424 44.4607 161.424 44.4607L179 65.0857C179 65.0857 193.406 65.8306 189.5 68.5C185.594 71.1694 176.5 74.5 170.421 73.7847C164.342 73.0693 162 63.5 150 63.5C138 63.5 143.145 88.5638 142 96C140.855 103.436 132.839 114.375 125.5 116.5C118.161 118.625 118.898 115.595 104.012 118.76C89.1263 121.926 80.9499 126.301 83.7407 136.194C86.5315 146.087 108 151 92.5 176.5C77 202 48.01 180.5 48.01 180.5C48.01 180.5 78.9917 184.495 88.1264 169.853C97.261 155.211 84.5 150.5 75.9806 146.087C67.4612 141.675 61 131 65 116.5C69 102 86.5315 94.642 86.5315 94.642C86.5315 94.642 79.7821 95.9171 58 97.5C36.2179 99.0829 19.5 81.4631 19.5 81.4631C19.5 81.4631 50.9107 91.9487 60 92.5C69.0893 93.0513 89.1264 90.9796 89.1264 90.9796C89.1264 90.9796 70.3245 84.3532 51.7179 84C33.1113 83.6468 8.5 50.5 8.5 50.5C8.5 50.5 51.2592 76.7107 60.8913 81.4631C70.5234 86.2155 97.469 85.5077 97.469 85.5077C97.469 85.5077 60.8913 63.5 43.5933 58.5932C26.2953 53.6864 14 14.5 14 14.5C14 14.5 43.4506 46.193 54 56C64.5494 65.807 104.012 81.2985 104.012 81.2985C104.012 81.2985 84.1264 66.8173 73.5 58.5932C62.8736 50.3691 51.7179 42 48.01 36.7055C44.3022 31.411 43.5933 8.64429 43.5933 8.64429C43.5933 8.64429 66.7109 42.981 72 50.5C77.2891 58.019 118.244 82.8419 118.244 82.8419C118.244 82.8419 129.729 51.7311 140 48Z" fill="black"></path>
<path d="M120.184 118.579C117.915 105.428 120.959 107.158 126.421 99.8948C131.884 92.6315 126.305 83.8766 126.305 83.8766C126.305 83.8766 121.328 92.9893 113.871 98.4878C106.415 103.986 93.0784 99.4309 89.1796 111.255C85.2809 123.079 105.53 101.938 102.586 116.758C99.6422 131.579 112.383 136.116 113.006 140.947C113.629 145.778 102.924 139.222 113.614 145.661C124.303 152.101 126.424 175.51 128.453 178.276C130.483 181.041 132.075 182.279 131.022 185.222C129.969 188.166 134.735 192.618 140.085 190.391C145.434 188.163 132.711 184.48 132.716 181.329C132.722 178.179 134.003 178.538 134.003 178.538L138.545 178.45C138.545 178.45 140.249 184.593 144.411 186.188C148.573 187.784 156.263 188.772 161.176 184.027C166.089 179.282 151.298 184.183 144.994 182.883C138.69 181.584 142.553 177.592 142.553 177.592L150.167 175.415C150.167 175.415 158.708 176.862 162.081 176.194C165.454 175.525 168.202 174.287 168.202 174.287C168.202 174.287 175.555 170.264 175.397 163.228C175.24 156.192 167.168 166.268 165.797 171.522C164.427 176.776 155.465 172.854 155.465 172.854L158.329 161.941C158.329 161.941 163.533 159.136 165.005 154.913C166.478 150.69 169.872 142.986 161.888 141.199C153.904 139.412 165.063 148.623 162.793 154.878C160.523 161.134 158.127 156.304 156.039 155.749C153.951 155.194 148.568 155.121 148.568 155.121C148.568 155.121 147.322 152.613 150.034 148.273C152.745 143.933 162.378 139.375 150.118 131.379C137.858 123.383 147.872 138.007 148.339 142.946C148.805 147.885 145.154 153.857 145.154 153.857C145.154 153.857 131.822 155.897 126.648 151.288C121.473 146.678 122.453 131.731 120.184 118.579Z" fill="#3E3E60"></path>
<path d="M127.5 35C122.765 33.4443 118 25.8351 118 25.8351C118 25.8351 146.351 31.8205 155 37.9103C163.649 44 168.5 50.3556 168.5 50.3556C168.5 50.3556 159.384 38.3239 153.5 31C147.616 23.6761 144.249 26.247 142 23.4296C139.751 20.6122 137.482 6.9507 137.482 6.9507C137.482 6.9507 154.185 26.3484 156.664 29.9782C159.144 33.6081 172 50.3556 172 50.3556C172 50.3556 170.5 44.8205 168 37.9103C165.5 31 160.32 24.9464 157.5 21.8351C154.68 18.7237 158.5 1 158.5 1C158.5 1 163.491 19.2423 165.995 27.0206C168.5 34.7989 176.5 52.1831 176.5 52.1831C176.5 52.1831 173.5 36.7042 173 32.7247C172.5 28.7452 169.6 25.497 169.6 21.8351C169.6 18.1731 173.6 2.37324 173.6 2.37324C173.6 2.37324 176.5 52 180.5 59.1338C184.5 66.2676 186.5 67 186.5 67C186.5 67 177.5 69 172 63.5C166.5 58 168.24 58.1831 162.5 53.1831C156.76 48.1831 151 48.5 142.5 46.5C134 44.5 126.5 49 124.5 49C122.5 49 112 42.7887 112 42.7887C112 42.7887 131 42 139 43C147 44 161.664 48.5 161.664 48.5C161.664 48.5 159.82 42.9743 151 37.7887C142.18 32.6032 132.235 36.5557 127.5 35Z" fill="#3E3E60"></path>
<path clip-rule="evenodd" d="M171.915 64.4488C170.995 65.378 169.532 65.6095 168.347 64.9238C166.939 64.1088 166.458 62.3064 167.273 60.8982C167.346 60.7725 167.427 60.6541 167.514 60.5434L163.41 56.9021L169.231 69.57L176.413 68.4395L171.915 64.4488Z" fill="white" fill-rule="evenodd"></path>
<path clip-rule="evenodd" d="M167.095 136.473C166.397 137.578 165.018 138.12 163.713 137.705C162.162 137.213 161.305 135.556 161.797 134.006C161.841 133.867 161.894 133.734 161.956 133.607L157.164 130.936L165.577 142.052L172.347 139.401L167.095 136.473Z" fill="white" fill-rule="evenodd"></path>
<path clip-rule="evenodd" d="M115.636 128.614C113.837 128.922 111.988 127.996 111.2 126.256C110.263 124.188 111.18 121.752 113.249 120.815C113.433 120.731 113.621 120.662 113.81 120.608L112.107 113.143L108.432 132.248L117.501 136.795L115.636 128.614Z" fill="white" fill-rule="evenodd"></path>
<path clip-rule="evenodd" d="M14.8553 137.004C16.202 136.973 17.4107 136.04 17.7353 134.668C18.1212 133.037 17.1116 131.402 15.4804 131.016C15.3348 130.981 15.1892 130.958 15.0444 130.945L15.2207 125.296L20.5895 138.617L14.6621 143.196L14.8553 137.004Z" fill="white" fill-rule="evenodd"></path>
<path clip-rule="evenodd" d="M159.82 60.5622C159.433 61.408 158.511 61.9204 157.552 61.7518C156.412 61.5514 155.65 60.4646 155.851 59.3245C155.869 59.2227 155.894 59.1239 155.925 59.0285L152.293 57.5984L159.279 64.6401L163.801 62.1295L159.82 60.5622Z" fill="white" fill-rule="evenodd"></path>
</svg>