<svg height="100%" viewBox="0 0 200 200" width="100%" xmlns="http://www.w3.org/2000/svg">
<path d="M169.163 87.5568C175.669 81.0347 185.428 55.805 176.134 55.805H176.131C166.839 55.805 162.457 55.805 155.221 54.0148C147.985 52.2244 140.35 47.4927 125.479 51.6855C110.608 55.8782 92.4837 102.449 85.5129 110.311C78.5421 118.172 61.4578 141.215 47.9578 126.715C34.4578 112.215 61.4578 97.7148 61.4578 97.7148C61.4578 97.7148 39.9578 80.7148 31.4578 91.7148C22.9577 102.715 24.4577 113.179 35.4578 129.215C46.4578 145.25 63.6865 151.131 82.7245 157.363L81.3304 164.89C81.3304 164.89 93.4132 169.009 95.7368 168.078C98.0604 167.146 92.4837 162.953 92.4837 162.953L95.7368 157.363C103.172 157.363 114.117 153.039 118.973 145.25L123.155 159.226C123.155 159.226 125.479 162.095 128.732 163.026C131.985 163.958 136.168 163.026 136.168 163.026C138.285 156.493 133.305 159.437 131.056 156.431C129.662 154.568 133.844 133.211 133.844 133.211L143.603 94.0056C143.603 94.0056 162.657 94.0788 169.163 87.5568Z" fill="black"></path>
<path clip-rule="evenodd" d="M144.602 60.5591C146.027 58.8314 146.921 56.9273 145.957 55.6424C145.006 54.375 144.056 56.1195 142.851 58.3309C142.154 59.6092 141.373 61.0435 140.457 62.1424C137.957 65.1424 131.957 69.6424 131.957 69.6424C131.957 69.6424 135.532 67.4976 138.568 65.5114C137.914 66.8097 137.546 68.2765 137.546 69.8293C137.546 71.8989 138.2 73.8157 139.312 75.3845C139.3 75.2826 139.294 75.1788 139.294 75.0737C139.294 73.6255 140.468 72.4515 141.916 72.4515C143.364 72.4515 144.538 73.6255 144.538 75.0737C144.538 76.5218 143.364 77.6958 141.916 77.6958C141.811 77.6958 141.707 77.6896 141.606 77.6776C143.174 78.79 145.091 79.4438 147.161 79.4438C152.47 79.4438 156.775 75.1393 156.775 69.8293C156.775 64.5194 152.47 60.2148 147.161 60.2148C146.275 60.2148 145.416 60.3347 144.602 60.5591ZM141.736 66.1662C143.119 62.4044 147.882 67.0618 147.882 67.0618C147.882 67.0618 150.235 61.0845 152.771 64.2393C153.187 64.7564 153.373 65.3778 153.393 66.0552L153.001 66.2922L151.392 65.3203L152.364 66.9294L151.392 68.5384L153.001 67.5665L153.181 67.6752C152.337 70.8645 149.291 74.4227 149.291 74.4227C149.291 74.4227 140.352 69.928 141.736 66.1662ZM146.287 77.6958C146.769 77.6958 147.161 77.3045 147.161 76.8218C147.161 76.339 146.769 75.9477 146.287 75.9477C145.804 75.9477 145.412 76.339 145.412 76.8218C145.412 77.3045 145.804 77.6958 146.287 77.6958ZM138.738 76.9124L135.957 75.2325L137.637 78.0137L135.957 80.7949L138.738 79.115L141.519 80.7949L139.84 78.0137L141.519 75.2325L138.738 76.9124Z" fill="white" fill-rule="evenodd"></path>
<path clip-rule="evenodd" d="M39.0898 94.2298C39.8939 93.2552 40.3982 92.181 39.8545 91.456C39.3183 90.7411 38.7821 91.7251 38.1023 92.9727C37.7094 93.6937 37.2685 94.5028 36.7519 95.1227C35.3417 96.8151 31.957 99.3535 31.957 99.3535C31.957 99.3535 33.9736 98.1436 35.6864 97.0231C35.3176 97.7556 35.1098 98.5831 35.1098 99.4592C35.1098 100.627 35.4787 101.708 36.1061 102.593C36.0994 102.535 36.0959 102.477 36.0959 102.418C36.0959 101.601 36.7582 100.939 37.5751 100.939C38.392 100.939 39.0542 101.601 39.0542 102.418C39.0542 103.235 38.392 103.897 37.5751 103.897C37.516 103.897 37.4578 103.894 37.4005 103.887C38.2853 104.514 39.3663 104.883 40.5334 104.883C43.5288 104.883 45.957 102.455 45.957 99.4592C45.957 96.4638 43.5288 94.0356 40.5334 94.0356C40.0335 94.0356 39.5494 94.1032 39.0898 94.2298ZM37.4732 97.393C38.2537 95.2709 40.9406 97.8982 40.9406 97.8982C40.9406 97.8982 42.2679 94.5264 43.6985 96.306C43.933 96.5977 44.0379 96.9481 44.0493 97.3302L43.8279 97.4639L42.9203 96.9156L43.4685 97.8233L42.9203 98.731L43.8279 98.1828L43.9294 98.244C43.4534 100.043 41.7353 102.051 41.7353 102.051C41.7353 102.051 36.6927 99.515 37.4732 97.393ZM40.0403 103.897C40.3126 103.897 40.5334 103.677 40.5334 103.404C40.5334 103.132 40.3126 102.911 40.0403 102.911C39.768 102.911 39.5473 103.132 39.5473 103.404C39.5473 103.677 39.768 103.897 40.0403 103.897ZM35.7823 103.454L34.2134 102.507L35.1611 104.076L34.2134 105.645L35.7823 104.697L37.3512 105.645L36.4036 104.076L37.3512 102.507L35.7823 103.454Z" fill="white" fill-rule="evenodd"></path>
</svg>