<svg height="100%" viewbox="0 0 200 200" width="100%" xmlns="http://www.w3.org/2000/svg">
<path d="M23.8561 50.5584C13.8561 64.0584 7.49953 90 12.9995 115C22.4676 158.037 65.8979 171.422 104.856 156.058C104.856 156.058 72.8561 155.058 54.3561 150.558C32.3632 145.209 23.9363 111.756 25.8561 92.5584C29.6505 54.6142 63.9041 41.186 96.8561 42.5584C96.8561 42.5584 82.8561 27.0584 67.8561 26.0584C52.8561 25.0584 33.8561 37.0584 23.8561 50.5584Z" fill="#3E3E60"></path>
<path d="M154.5 166C153.5 164.5 152.5 132.5 152.5 132.5L143 141.5C143.397 145.336 145.365 172 149.5 172C151.57 172 161.666 172.829 161 169.5C160.5 167 155.5 167.5 154.5 166Z" fill="#3E3E60"></path>
<path d="M52.9995 140C59.4995 158.5 88.4995 141.976 88.4995 141.976L89.4995 166.5C77.5519 162.5 49.5777 167.238 45.9995 143C42.4213 118.763 52.2056 105.801 62.3645 102.752C72.5234 99.7035 82.2474 106.697 83.4995 115C70.5519 112.641 46.4995 121.5 52.9995 140Z" fill="#3E3E60"></path>
<path d="M181.212 59.614C185.828 51.6414 189.811 30.2306 180.828 32.6145L180.825 32.6152C171.843 34.9987 167.608 36.1225 160.155 36.248C152.702 36.3735 144.109 33.7584 130.811 41.6252C117.512 49.4919 111.489 83.8122 110.72 106.255C109.95 128.697 77.2047 160.708 53.5621 147.805C29.9195 134.902 46.3046 95.1138 69.3508 90.3386C69.3508 90.3386 47.9789 69.0992 30.8233 99.222C13.6677 129.345 55.2142 179.373 104.024 165.381L106.212 173.628C106.212 173.628 118.948 174.51 120.954 173.014C122.961 171.517 116.496 168.895 116.496 168.895L118.206 162.657C125.393 160.75 149.804 149.274 152.5 140.5C152.5 140.5 170.626 128 171.813 129C173 130 170.616 133.934 174 134C177.383 134.066 177.5 130 177.5 130C177.87 123.143 176.945 124.329 174 122C172.174 120.557 158.959 126.78 158.959 126.78V82.0001C196 64.5001 171 76.0001 162.5 69.0001C162.5 69.0001 176.597 67.5866 181.212 59.614Z" fill="black"></path>
<path clip-rule="evenodd" d="M153.19 46.3067C154.339 44.9145 155.059 43.3801 154.282 42.3446C153.516 41.3232 152.75 42.729 151.779 44.5112C151.218 45.5413 150.588 46.6971 149.85 47.5827C147.835 50.0003 143 53.6267 143 53.6267C143 53.6267 145.881 51.8983 148.327 50.2976C147.801 51.3439 147.504 52.526 147.504 53.7773C147.504 55.4451 148.031 56.9899 148.927 58.2541C148.918 58.1719 148.913 58.0882 148.913 58.0033C148.913 56.8363 149.859 55.8902 151.026 55.8902C152.193 55.8902 153.139 56.8363 153.139 58.0033C153.139 59.1704 152.193 60.1164 151.026 60.1164C150.941 60.1164 150.857 60.1114 150.775 60.1017C152.039 60.9983 153.584 61.5253 155.252 61.5253C159.531 61.5253 163 58.0564 163 53.7773C163 49.4982 159.531 46.0293 155.252 46.0293C154.538 46.0293 153.847 46.1259 153.19 46.3067ZM150.88 50.8252C151.995 47.7937 155.834 51.547 155.834 51.547C155.834 51.547 157.73 46.7301 159.774 49.2723C160.109 49.6891 160.258 50.1898 160.275 50.7357L159.958 50.9267L158.662 50.1435L159.445 51.4402L158.662 52.7369L159.958 51.9537L160.103 52.0412C159.423 54.6114 156.969 57.4789 156.969 57.4789C156.969 57.4789 149.765 53.8567 150.88 50.8252ZM154.548 60.1167C154.937 60.1167 155.252 59.8014 155.252 59.4124C155.252 59.0234 154.937 58.708 154.548 58.708C154.159 58.708 153.843 59.0234 153.843 59.4124C153.843 59.8014 154.159 60.1167 154.548 60.1167ZM148.465 59.4853L146.223 58.1316L147.577 60.3728L146.223 62.6141L148.465 61.2603L150.706 62.6141L149.352 60.3728L150.706 58.1316L148.465 59.4853Z" fill="white" fill-rule="evenodd"></path>
<path clip-rule="evenodd" d="M65.6235 106.014C66.3701 105.109 66.8382 104.112 66.3334 103.439C65.8355 102.775 65.3376 103.689 64.7063 104.847C64.3415 105.517 63.9321 106.268 63.4524 106.844C62.1429 108.415 59 110.772 59 110.772C59 110.772 60.8724 109.649 62.4628 108.608C62.1204 109.288 61.9276 110.057 61.9276 110.87C61.9276 111.954 62.2701 112.958 62.8528 113.78C62.8465 113.727 62.8433 113.672 62.8433 113.617C62.8433 112.859 63.4582 112.244 64.2168 112.244C64.9754 112.244 65.5903 112.859 65.5903 113.617C65.5903 114.376 64.9754 114.991 64.2168 114.991C64.1619 114.991 64.1077 114.988 64.0544 114.981C64.8761 115.564 65.8799 115.906 66.9638 115.906C69.7452 115.906 72 113.651 72 110.87C72 108.089 69.7452 105.834 66.9638 105.834C66.4997 105.834 66.0503 105.897 65.6235 106.014ZM64.1222 108.952C64.847 106.981 67.3419 109.421 67.3419 109.421C67.3419 109.421 68.5744 106.29 69.9028 107.942C70.1205 108.213 70.2179 108.538 70.2286 108.893L70.023 109.017L69.1802 108.508L69.6893 109.351L69.1802 110.194L70.023 109.685L70.1173 109.742C69.6755 111.412 68.0799 113.276 68.0799 113.276C68.0799 113.276 63.3974 110.922 64.1222 108.952ZM66.506 114.991C66.7588 114.991 66.9638 114.786 66.9638 114.533C66.9638 114.28 66.7588 114.075 66.506 114.075C66.2531 114.075 66.0481 114.28 66.0481 114.533C66.0481 114.786 66.2531 114.991 66.506 114.991ZM62.5521 114.58L61.0953 113.7L61.9752 115.157L61.0953 116.614L62.5521 115.734L64.0089 116.614L63.129 115.157L64.0089 113.7L62.5521 114.58Z" fill="white" fill-rule="evenodd"></path>
<path clip-rule="evenodd" d="M47.6235 87.7993C48.3701 86.8944 48.8382 85.897 48.3334 85.224C47.8355 84.5601 47.3376 85.4739 46.7063 86.6323C46.3415 87.3018 45.9321 88.0531 45.4524 88.6288C44.1429 90.2002 41 92.5574 41 92.5574C41 92.5574 42.8724 91.4339 44.4628 90.3935C44.1204 91.0736 43.9276 91.8419 43.9276 92.6552C43.9276 93.7393 44.2701 94.7433 44.8528 95.5651C44.8465 95.5118 44.8433 95.4575 44.8433 95.4025C44.8433 94.644 45.4582 94.029 46.2168 94.029C46.9754 94.029 47.5903 94.644 47.5903 95.4025C47.5903 96.1611 46.9754 96.776 46.2168 96.776C46.1619 96.776 46.1077 96.7728 46.0544 96.7665C46.8761 97.349 47.8799 97.6914 48.9638 97.6914C51.7452 97.6914 54 95.4367 54 92.6552C54 89.8738 51.7452 87.619 48.9638 87.619C48.4997 87.619 48.0503 87.6818 47.6235 87.7993ZM46.1222 90.7367C46.847 88.7662 49.3419 91.2058 49.3419 91.2058C49.3419 91.2058 50.5744 88.0749 51.9028 89.7273C52.1205 89.9981 52.2179 90.3234 52.2286 90.678L52.023 90.8022L51.1802 90.2931L51.6893 91.136L51.1802 91.9788L52.023 91.4697L52.1173 91.5267C51.6755 93.1974 50.0799 95.0616 50.0799 95.0616C50.0799 95.0616 45.3974 92.7072 46.1222 90.7367ZM48.506 96.776C48.7588 96.776 48.9638 96.571 48.9638 96.3181C48.9638 96.0653 48.7588 95.8603 48.506 95.8603C48.2531 95.8603 48.0481 96.0653 48.0481 96.3181C48.0481 96.571 48.2531 96.776 48.506 96.776ZM44.5521 96.3653L43.0953 95.4853L43.9752 96.9422L43.0953 98.399L44.5521 97.519L46.0089 98.399L45.129 96.9422L46.0089 95.4853L44.5521 96.3653Z" fill="white" fill-rule="evenodd"></path>
<path clip-rule="evenodd" d="M71.8474 31.9402C72.6131 31.0514 73.1024 30.0643 72.6121 29.3806C72.1285 28.7062 71.6111 29.6091 70.9553 30.7538C70.5762 31.4154 70.1509 32.1578 69.659 32.723C68.3162 34.2662 65.1237 36.5556 65.1237 36.5556C65.1237 36.5556 67.0197 35.4724 68.632 34.4662C68.2751 35.1388 68.0659 35.9029 68.0486 36.716C68.0254 37.7998 68.3464 38.811 68.9114 39.645C68.9062 39.5915 68.9042 39.5372 68.9053 39.4823C68.9215 38.7239 69.5495 38.1222 70.3079 38.1384C71.0663 38.1546 71.6679 38.7825 71.6517 39.5409C71.6355 40.2993 71.0076 40.901 70.2492 40.8848C70.1943 40.8836 70.1401 40.8792 70.087 40.8718C70.8961 41.4718 71.8924 41.8355 72.976 41.8587C75.7568 41.9181 78.0592 39.712 78.1187 36.9312C78.1781 34.1504 75.972 31.848 73.1912 31.7886C72.7272 31.7787 72.2765 31.8318 71.8474 31.9402ZM70.2836 34.8448C71.0504 32.8903 73.4926 35.3826 73.4926 35.3826C73.4926 35.3826 74.7917 32.2787 76.0845 33.9592C76.2964 34.2346 76.3868 34.5618 76.3899 34.9166L76.1817 35.0364L75.3499 34.5094L75.8409 35.3629L75.3139 36.1947L76.1674 35.7037L76.2605 35.7627C75.7831 37.4236 74.148 39.2533 74.148 39.2533C74.148 39.2533 69.5169 36.7994 70.2836 34.8448ZM72.5379 40.9336C72.7907 40.939 73 40.7385 73.0054 40.4857C73.0108 40.2329 72.8102 40.0236 72.5574 40.0182C72.3046 40.0128 72.0953 40.2133 72.0899 40.4661C72.0845 40.7189 72.2851 40.9282 72.5379 40.9336ZM68.5936 40.4386L67.1559 39.5277L68.0046 41.003L67.0937 42.4407L68.569 41.5921L70.0067 42.5029L69.158 41.0276L70.0689 39.5899L68.5936 40.4386Z" fill="white" fill-rule="evenodd"></path>
<path d="M107.114 60.2157C114.714 52.1104 129.497 48.0125 129.497 48.0125C129.497 48.0125 133.868 62.8999 127.21 70.0108C119.667 78.0658 94.499 95.5 95.3591 85.6351C96.2192 75.7702 100.283 67.5015 107.114 60.2157Z" fill="black"></path>
<path d="M139.078 73.0576C140.254 62.4658 134.02 49.8756 134.02 49.8756C134.02 49.8756 120.419 57.2082 119.382 66.4945C118.207 77.0138 121.635 104.415 127.85 98.2866C134.065 92.1583 138.021 82.5785 139.078 73.0576Z" fill="#3E3E60"></path>
</svg>