<svg height="100%" viewBox="0 0 200 200" width="100%" xmlns="http://www.w3.org/2000/svg">
<path d="M139.5 127.709C142.892 129.17 141.778 141.001 141.778 141.001C141.778 141.001 136.29 141.564 131 143.001C125.71 144.437 129.016 126.46 123.02 127.709C117.024 128.959 118.448 120.65 123.02 118.187C127.592 115.725 130.66 118.984 133 123C135.34 127.017 136.108 126.248 139.5 127.709Z" fill="black"></path>
<path d="M108.18 140.773C117.838 141.739 120.736 135.461 134.971 136.007C149.206 136.554 152.77 146 168.5 146C184.23 146 163.186 167.83 153.5 169.5C143.814 171.171 127.5 158 127.5 158C127.5 158 129.659 171.165 135.454 174.642C141.249 178.119 154.288 178.505 151.391 180.92C148.493 183.335 121.932 184.3 113.722 184.3C105.512 184.3 54.8045 171.261 49.0093 163.051C43.2142 154.842 42.2483 138.422 41.7654 128.763C41.2825 119.105 46.5947 112.826 49.0093 95.9239C51.424 79.0212 108.893 62.6016 108.893 62.6016L110.825 85.2994C110.825 85.2994 115.171 95.4409 105.512 106.065C95.8537 116.69 84.7463 117.656 86.1951 125.866C87.6439 134.075 98.5212 139.807 108.18 140.773Z" fill="black"></path>
<path clip-rule="evenodd" d="M134.613 140.862C135.829 140.134 136.764 139.188 136.462 138.219C136.164 137.262 135.228 138.1 134.041 139.163C133.356 139.778 132.586 140.467 131.808 140.928C129.683 142.187 125.154 143.599 125.154 143.599C125.154 143.599 127.739 143.077 129.969 142.536C129.304 143.172 128.774 143.968 128.446 144.893C128.007 146.127 127.991 147.408 128.322 148.578C128.337 148.515 128.355 148.451 128.377 148.389C128.684 147.526 129.632 147.074 130.495 147.381C131.358 147.688 131.81 148.636 131.503 149.499C131.196 150.362 130.248 150.813 129.385 150.507C129.322 150.484 129.261 150.458 129.203 150.43C129.903 151.425 130.907 152.221 132.141 152.659C135.305 153.783 138.782 152.129 139.906 148.964C141.03 145.799 139.376 142.323 136.211 141.198C135.683 141.011 135.146 140.901 134.613 140.862ZM131.718 143.597C133.339 141.648 135.192 145.432 135.192 145.432C135.192 145.432 137.86 142.367 138.703 144.785C138.842 145.181 138.821 145.591 138.69 145.999L138.406 146.057L137.652 145.137L137.891 146.302L136.971 147.055L138.136 146.816L138.22 146.919C137.042 148.641 134.473 150.117 134.473 150.117C134.473 150.117 130.097 145.546 131.718 143.597ZM131.99 151.432C132.277 151.534 132.593 151.384 132.696 151.096C132.798 150.808 132.647 150.492 132.36 150.39C132.072 150.288 131.756 150.438 131.654 150.726C131.552 151.014 131.702 151.33 131.99 151.432ZM127.657 149.367L126.355 147.777L126.767 149.79L125.177 151.092L127.19 150.68L128.492 152.27L128.08 150.257L129.67 148.955L127.657 149.367Z" fill="white" fill-rule="evenodd"></path>
<path d="M138.352 168.363H130.142C130.142 168.363 131.591 172.227 130.625 172.71C126.765 174.64 112.916 175.936 111.79 180.437C111.308 182.368 114.205 191.544 115.654 192.993C117.103 194.442 123.864 194.442 127.244 193.476C130.625 192.51 119.034 189.612 117.586 188.163C115.561 186.139 140.276 178.317 141.249 177.539C143.664 175.607 143.664 173.676 143.664 173.676C143.664 173.676 139.801 168.363 138.352 168.363Z" fill="#3E3E60"></path>
<path d="M49.9752 156.772L52.3899 140.352L45.1459 136.006L26.3116 156.772L21.9652 177.538C21.9652 177.538 16.17 178.987 16.17 179.47C16.17 179.953 17.1359 185.265 17.1359 185.265C17.1359 185.265 23.8969 187.197 24.8628 187.197C25.8286 187.197 31.6238 185.265 32.5897 184.782C33.5555 184.299 32.1068 179.953 32.1068 179.953L27.7604 178.021L31.1409 163.05L49.9752 156.772Z" fill="black"></path>
<path d="M32.3466 187.459L32.393 182.792L29.5452 182.288L30.0133 184.767L32.3466 187.459Z" fill="#3E3E60"></path>
<path d="M25.3714 191.626L27.1629 186.098L25.3714 184.166L24.1429 186.234L25.3714 191.626Z" fill="#3E3E60"></path>
<path d="M17.6481 187.901L20.5635 185.368L19.8621 183.672L17.6188 183.817L17.6481 187.901Z" fill="#3E3E60"></path>
<path d="M14.8794 183.245L16.7845 182.214L17.6123 180.731L15.9578 179.37L14.8794 183.245Z" fill="#3E3E60"></path>
<path d="M103.833 190.998L100.002 187.852L98.2937 189.334L100.706 190.017L103.833 190.998Z" fill="#3E3E60"></path>
<path d="M89.8076 154.777L76.6682 144.638L69.3336 148.83L67.1306 174.578C67.1306 174.578 83.9298 185.129 84.9991 186.651C86.0684 188.172 86.8273 190.451 87.4137 191.48C88.0001 192.51 91.5073 192.993 91.5073 192.993C91.5073 192.993 99.2447 193.352 99.7172 192.51C100.19 191.667 100.149 189.251 100.2 188.172C100.26 186.904 91.4997 184.14 89.8076 183.354L78.5 174.578L89.8076 154.777Z" fill="black"></path>
<path d="M103.483 194.274L99.5381 190.007L97.5553 189.549L98.1794 192.707L103.483 194.274Z" fill="#3E3E60"></path>
<path d="M97.5618 194.991L96.2571 190.531L94.4062 189.854L94.1748 192.446L97.5618 194.991Z" fill="#3E3E60"></path>
<path d="M89.3755 192.483L89.7315 190.542L91.1803 190.059L94.5026 195.192L89.3755 192.483Z" fill="#3E3E60"></path>
<path d="M55.0573 100.205L70.994 74.6103C70.994 74.6103 50.4581 74.1909 46.3645 74.6101C42.2709 75.0294 32.1067 91.157 30.6579 93.508C29.2091 95.859 27.0472 110.83 27.0472 110.83C27.0472 110.83 20.5163 115.723 20.5163 116.206C20.5163 116.689 21.4822 122.001 21.4822 122.001C21.4822 122.001 28.2433 123.933 29.2091 123.933C30.175 123.933 35.9702 122.001 36.936 121.518C37.9019 121.035 36.4531 116.689 36.4531 116.689L34.7741 112.279L44.18 105.518L55.0573 100.205Z" fill="black"></path>
<path d="M36.6929 124.196L36.7393 119.528L33.8915 119.024L34.3596 121.504L36.6929 124.196Z" fill="#3E3E60"></path>
<path d="M29.7177 128.362L31.5093 122.834L29.7178 120.902L28.4893 122.97L29.7177 128.362Z" fill="#3E3E60"></path>
<path d="M21.9944 124.637L24.9099 122.104L24.2084 120.408L21.9652 120.553L21.9944 124.637Z" fill="#3E3E60"></path>
<path d="M19.2257 119.981L21.1308 118.95L21.9587 117.468L20.3041 116.107L19.2257 119.981Z" fill="#3E3E60"></path>
<path d="M157.922 63.5026C140.1 62.5409 114.941 68.815 114.941 68.815L96.1065 94.7896H108.418C108.418 94.7896 107.878 73.1518 140.281 75.5558C154.761 76.6301 187.561 83.0798 170.523 104.887C161.882 115.946 152.162 115.946 152.162 115.946C152.162 115.946 154.322 123.159 165.123 126.525C175.923 129.891 186.724 126.525 191.585 112.581C199.216 90.6872 188.97 65.178 157.922 63.5026Z" fill="#3E3E60"></path>
<path d="M130.558 7.54215C122.559 5.91972 95.2767 7.8301 91.2772 18.1066C83.0965 39.1265 98.0382 65.4339 89.8284 88.6147L112.275 72.4466C112.275 72.4466 98.562 39.2974 101.419 26.3165C104.877 10.6007 136.44 20.9142 139.57 33.5604C139.57 24.2928 138.557 9.16458 130.558 7.54215Z" fill="#3E3E60"></path>
<path d="M174.712 48.3305C146.808 60.3433 134.124 61.3877 122.455 66.0884C110.786 70.7891 110.279 95.8595 110.279 95.8595L81.1356 106.967L62.3013 81.8544C62.3013 81.8544 84.7285 57.0725 113.492 52.8785C142.256 48.6846 159.491 48.3305 167.102 41.5406C174.712 34.7507 171.668 28.4833 164.565 24.3048C157.462 20.1263 148.746 24.3048 148.746 24.3048C148.746 24.3048 154.925 9.68048 164.565 7.5913C190.362 2.00028 199.569 37.6292 174.712 48.3305Z" fill="black"></path>
<path d="M72.6895 71.2305C69.0727 76.5428 59.4036 82.338 59.4036 82.338L84.999 84.7526C84.999 84.7526 91.7601 68.8159 91.7601 61.5719C91.7601 54.3279 85.356 34.1084 72.6895 31.6938C60.023 29.2791 52.423 33.6255 46.3431 33.6255C40.2632 33.6255 31.1433 33.6255 30.1299 29.2791C29.1166 24.9327 46.3431 21.5522 46.3431 21.5522C46.3431 21.5522 35.1965 16.7229 26.5833 17.2058C17.9701 17.6888 5.81017 23.9669 6.82351 29.2791C7.83684 34.5914 12.9035 43.2842 25.0633 45.2159C37.2232 47.1476 51.4097 36.5231 67.6229 37.006C83.836 37.489 76.3063 65.9183 72.6895 71.2305Z" fill="black"></path>
<path clip-rule="evenodd" d="M174.166 122.461C173.119 123.359 172.386 124.41 172.867 125.257C173.34 126.093 174.094 125.142 175.049 123.938C175.601 123.241 176.221 122.46 176.892 121.889C178.726 120.331 182.878 118.194 182.878 118.194C182.878 118.194 180.454 119.149 178.381 120.058C178.908 119.346 179.273 118.509 179.418 117.588C179.61 116.36 179.381 115.166 178.834 114.137C178.832 114.199 178.827 114.261 178.817 114.324C178.682 115.182 177.843 115.775 176.942 115.647C176.041 115.518 175.419 114.718 175.554 113.859C175.688 113.001 176.528 112.408 177.429 112.536C177.495 112.546 177.559 112.559 177.622 112.575C176.749 111.776 175.617 111.218 174.328 111.035C171.025 110.565 167.946 112.736 167.453 115.886C166.96 119.035 169.239 121.969 172.542 122.439C173.094 122.517 173.639 122.522 174.166 122.461ZM176.47 119.39C175.26 121.498 172.729 118.314 172.729 118.314C172.729 118.314 170.71 121.651 169.425 119.555C169.214 119.212 169.156 118.827 169.207 118.423L169.473 118.318L170.384 119.036L169.929 117.996L170.683 117.128L169.591 117.562L169.49 117.481C170.311 115.665 172.536 113.824 172.536 113.824C172.536 113.824 177.681 117.281 176.47 119.39ZM174.71 112.149C174.409 112.106 174.13 112.303 174.085 112.59C174.04 112.876 174.247 113.143 174.547 113.185C174.848 113.228 175.128 113.031 175.172 112.744C175.217 112.458 175.01 112.191 174.71 112.149ZM179.334 113.282L180.908 114.525L180.121 112.727L181.425 111.226L179.538 111.976L177.964 110.734L178.751 112.532L177.447 114.032L179.334 113.282Z" fill="white" fill-rule="evenodd"></path>
<path clip-rule="evenodd" d="M127.787 11.7429C128.597 11.3108 129.227 10.7378 129.048 10.127C128.871 9.52407 128.242 10.0304 127.444 10.6724C126.983 11.0434 126.465 11.4598 125.946 11.7334C124.53 12.4803 121.535 13.2785 121.535 13.2785C121.535 13.2785 123.238 13.0006 124.709 12.704C124.262 13.0884 123.9 13.5754 123.667 14.1467C123.356 14.909 123.321 15.7087 123.515 16.4459C123.526 16.4066 123.539 16.3675 123.555 16.3287C123.772 15.7954 124.402 15.5311 124.962 15.7385C125.521 15.9458 125.798 16.5463 125.581 17.0797C125.363 17.613 124.733 17.8773 124.174 17.6699C124.133 17.6549 124.094 17.6378 124.057 17.6188C124.496 18.253 125.138 18.7681 125.938 19.0644C127.989 19.8247 130.299 18.8557 131.097 16.9001C131.895 14.9444 130.878 12.7427 128.826 11.9824C128.484 11.8557 128.135 11.777 127.787 11.7429ZM125.836 13.399C126.936 12.2116 128.077 14.609 128.077 14.609C128.077 14.609 129.884 12.7444 130.39 14.2694C130.473 14.5192 130.451 14.7743 130.357 15.0264L130.17 15.0576L129.694 14.4692L129.828 15.201L129.211 15.6545L129.978 15.5269L130.032 15.5931C129.227 16.6471 127.515 17.5217 127.515 17.5217C127.515 17.5217 124.736 14.5863 125.836 13.399ZM125.862 18.2971C126.049 18.3662 126.259 18.2781 126.331 18.1003C126.404 17.9225 126.311 17.7224 126.125 17.6532C125.938 17.5841 125.728 17.6722 125.656 17.85C125.583 18.0278 125.676 18.2279 125.862 18.2971ZM123.064 16.9268L122.241 15.9099L122.473 17.1747L121.406 17.9585L122.733 17.738L123.555 18.755L123.324 17.4901L124.391 16.7064L123.064 16.9268Z" fill="white" fill-rule="evenodd"></path>
<path clip-rule="evenodd" d="M172.452 14.2053C171.322 13.6021 170.442 12.8023 170.692 11.9496C170.939 11.108 171.818 11.8148 172.931 12.7109C173.575 13.2288 174.297 13.8099 175.022 14.1918C176.999 15.2344 181.179 16.3485 181.179 16.3485C181.179 16.3485 178.802 15.9606 176.749 15.5465C177.373 16.0831 177.878 16.763 178.204 17.5605C178.638 18.6247 178.687 19.741 178.416 20.77C178.401 20.7152 178.382 20.6606 178.36 20.6065C178.057 19.8621 177.177 19.4932 176.396 19.7826C175.615 20.0721 175.228 20.9102 175.532 21.6547C175.835 22.3992 176.715 22.768 177.496 22.4786C177.552 22.4576 177.607 22.4338 177.659 22.4073C177.046 23.2923 176.15 24.0112 175.034 24.4247C172.17 25.486 168.946 24.1335 167.833 21.4037C166.719 18.674 168.138 15.6008 171.002 14.5395C171.479 14.3627 171.967 14.2529 172.452 14.2053ZM175.176 16.5164C173.641 14.8591 172.048 18.2053 172.048 18.2053C172.048 18.2053 169.526 15.6028 168.82 17.7314C168.704 18.08 168.734 18.4362 168.865 18.7881L169.127 18.8316L169.791 18.0103L169.604 19.0318L170.465 19.6647L169.394 19.4867L169.319 19.579C170.443 21.0502 172.832 22.271 172.832 22.271C172.832 22.271 176.711 18.1737 175.176 16.5164ZM175.139 23.3535C174.879 23.45 174.586 23.3271 174.484 23.0789C174.383 22.8307 174.512 22.5514 174.772 22.4549C175.033 22.3584 175.326 22.4814 175.427 22.7295C175.528 22.9777 175.399 23.2571 175.139 23.3535ZM179.046 21.4405L180.194 20.021L179.871 21.7865L181.36 22.8805L179.508 22.5728L178.36 23.9922L178.683 22.2267L177.194 21.1327L179.046 21.4405Z" fill="white" fill-rule="evenodd"></path>
<path clip-rule="evenodd" d="M14.2544 26.711C13.9369 25.5137 13.3551 24.4953 12.426 24.5041C11.5092 24.5128 11.9972 25.505 12.6157 26.7627C12.9733 27.4898 13.3745 28.3055 13.5732 29.0714C14.1159 31.1623 14.1592 35.2988 14.1592 35.2988C14.1592 35.2988 14.3835 33.0093 14.4973 31.011C14.8788 31.7252 15.4367 32.3676 16.1607 32.8745C17.126 33.5503 18.2441 33.8856 19.3569 33.9032C19.3052 33.8753 19.2547 33.8441 19.2056 33.8097C18.5302 33.3369 18.3849 32.4317 18.881 31.7879C19.377 31.1442 20.3267 31.0057 21.0021 31.4785C21.6775 31.9514 21.8228 32.8566 21.3267 33.5003C21.2907 33.5471 21.2523 33.5911 21.2118 33.6325C22.2678 33.2983 23.2293 32.6598 23.9382 31.7399C25.7572 29.3795 25.2243 26.0605 22.7479 24.3267C20.2715 22.5929 16.7894 23.1008 14.9704 25.4612C14.6669 25.8551 14.4289 26.2756 14.2544 26.711ZM15.8887 29.8162C14.6083 27.9728 18.412 27.3763 18.412 27.3763C18.412 27.3763 16.4304 24.3786 18.7704 24.2813C19.1537 24.2654 19.5068 24.3854 19.8294 24.5972L19.8055 24.8497L18.801 25.2476L19.8844 25.341L20.3018 26.2984L20.3998 25.2658L20.5128 25.221C21.7113 26.6375 22.3275 29.1535 22.3275 29.1535C22.3275 29.1535 17.1691 31.6596 15.8887 29.8162ZM22.8251 31.5584C22.9905 31.3438 22.9421 31.0421 22.7169 30.8845C22.4918 30.7268 22.1752 30.773 22.0099 30.9876C21.8445 31.2022 21.893 31.5039 22.1181 31.6615C22.3432 31.8192 22.6598 31.773 22.8251 31.5584ZM19.8725 34.6575L18.1363 35.3453L20.0088 35.5067L20.7304 37.1615L20.8997 35.3767L22.6359 34.6889L20.7634 34.5275L20.0418 32.8727L19.8725 34.6575Z" fill="white" fill-rule="evenodd"></path>
<path d="M117.817 127.561C121.187 127.486 130.68 138.11 130.68 138.11C130.68 138.11 125.971 138.757 122.424 142.752C118.877 146.747 107.288 133.87 103.094 138.004C98.8996 142.137 94.0317 124.628 93.7519 120.158C93.4722 115.689 102.114 123.805 105.823 126.894C109.532 129.982 114.447 127.636 117.817 127.561Z" fill="black"></path>
<path d="M141.138 190.513C142.951 190.513 142.951 187.956 142.951 187.445V182.332L138.418 181.82L133.884 183.354C133.884 184.27 132.071 186.422 134.791 186.422C137.511 186.422 136.604 184.888 136.604 184.377C136.604 183.866 138.418 183.354 138.418 183.354C138.418 183.354 140.231 183.354 140.231 184.888C140.231 186.422 139.324 186.422 139.324 187.445C139.324 188.468 139.324 190.513 141.138 190.513Z" fill="black"></path>
<path d="M135.224 190.582C135.224 190.03 134.776 189.582 134.224 189.582C133.672 189.582 133.224 190.03 133.224 190.582C133.224 191.134 133.672 191.582 134.224 191.582C134.776 191.582 135.224 191.134 135.224 190.582Z" fill="black"></path>
</svg>