<svg height="100%" viewBox="0 0 200 200" width="100%" xmlns="http://www.w3.org/2000/svg">
<path d="M102.75 108.797L124.096 114.954L147.171 144.493L154.386 147.033L144.485 145.626L123.744 117.429L104.157 116.667L100.357 111.583L95.2349 101.26L98.7395 91.6484L104.074 85.4196L102.75 108.797Z" fill="#3E3E60"></path>
<path d="M64.0411 60L85 115.28L80.4795 126.336H77.1918L69.3836 112.729L64.0411 81.5L50.4795 118.682L37.3288 148.449L25 151L36.0959 145.047L49.2466 115.28L64.0411 60Z" fill="#3E3E60"></path>
<path d="M88.8591 109.188C94.5812 100.146 93.2982 85.7025 94.9804 82.0394C99.9164 71.2911 125.825 73.2751 130.396 73.8729C134.967 74.4707 137.369 73.2534 137.369 73.2534L146.466 73.9511L139.073 81.1336C139.073 81.1336 134.325 78.5434 130.972 80.3475C127.618 82.1516 121.631 88.205 121.631 88.205L93.5 119.5C93.5 119.5 83.1369 118.23 88.8591 109.188Z" fill="black"></path>
<path d="M114 116.406L136 119.5L163 145.5L170.5 147L160.5 147L136 122L116.5 124L112.023 119.5L105.5 110L107.618 99.9916L112.023 93.0746L114 116.406Z" fill="black"></path>
<path d="M70.5 96.0001C76 95.0001 89 103 89 103H101.5C101.5 103 100 111 96.5 118C93 125 80.5 142.5 74.5 146.5C68.5 150.5 34.5 135 34.5 135C34.5 135 65 97.0001 70.5 96.0001Z" fill="black"></path>
<path d="M54.4041 76L82 121.561L76.048 130.673H71.7192L61.4384 119.458L54.4041 93.7198L36.5479 124.364L19.2329 148.897L3 151L17.6096 146.093L34.9247 121.561L54.4041 76Z" fill="black"></path>
<path d="M69.5649 111.941C69.8345 115.911 70.4163 120.645 70.4163 120.645L68.4494 113.626L68.5578 119.034C68.5578 119.034 67.9503 117.859 67.2153 113.361C66.4803 108.864 62.6606 105.905 62.6606 105.905L58.9763 103.786L63.3602 104.835L59.1502 99.8724L64.2198 103.767L63.0261 95.3469C63.0261 95.3469 64.3438 100.67 65.8797 103.983C67.4155 107.296 69.2953 107.97 69.5649 111.941Z" fill="white"></path>
<path d="M129.444 74.4592C129.444 74.4592 131.448 68.7597 139.649 65.0192C147.85 61.2787 154.601 61.0933 163.688 64.3897C177.659 69.4582 178.816 82.1203 186.032 95.5338C186.032 95.5338 179.934 89.0486 170.792 87.853C161.65 86.6574 153.815 88.8597 145.669 87.5755C137.523 86.2913 129.444 74.4592 129.444 74.4592Z" fill="black"></path>
<path d="M135 70.5001L150 76.5003L157.361 76.5003L164.643 82.1333L172 85.7701L177.012 88.2448L171.725 86.7315L157.361 85.7701L153.791 83.708L145 77.5001L135 70.5001Z" fill="#3E3E60"></path>
<path d="M158.668 80.3595C161.57 82.4828 165.182 84.8345 165.182 84.8345L159.184 82.1111L162.987 85.182C162.987 85.182 161.821 84.9185 158.284 82.8105C154.746 80.7024 150.479 81.6223 150.479 81.6223L146.87 82.9368L150.146 80.5164L144.266 80.5403L149.907 79.3005L143.392 75.228C143.392 75.228 147.838 77.4133 151.023 78.2787C154.207 79.1441 155.766 78.2363 158.668 80.3595Z" fill="white"></path>
<path d="M114.086 81.1722C117.659 80.7689 121.909 80.0528 121.909 80.0528L115.652 82.1112L120.529 81.7954C120.529 81.7954 119.493 82.3911 115.463 83.2358C111.433 84.0806 108.916 87.6476 108.916 87.6476L107.152 91.0587L107.923 87.0592L103.612 91.0594L106.923 86.3263L99.3713 87.7432C99.3713 87.7432 104.123 86.3392 107.052 84.8194C109.981 83.2995 110.513 81.5755 114.086 81.1722Z" fill="white"></path>
<path d="M149.5 51.2979C154.5 53.8018 163.5 70.4497 163.5 70.4497L154.819 64.8924C154.819 64.8924 154.5 56.0074 149.5 53.0034C144.5 49.9995 137.141 55.3775 124.794 53.0034C112.448 50.6294 104 38.2524 104 38.2524C104 38.2524 112.748 48.8342 122.085 51.2979C131.422 53.7615 144.5 48.7939 149.5 51.2979Z" fill="black"></path>
</svg>