<svg width="100%" height="100%" viewBox="0 0 150 150" fill="none" xmlns="http://www.w3.org/2000/svg"
    class="pr-1">
    <path d="M65.794 104.955l1.04 40.591-15.574-8.692L20 92.466l45.794 12.489z" fill="#fff"
        fill-opacity="0.9"></path>
    <path d="M99.099 89.344l-33.305 15.611 1.04 40.591L99.1 89.344z" fill="#F34060"
        fill-opacity="0.9"></path>
    <path d="M99.099 89.344l-32.264 56.202 57.243-34.346 6.308-37.842-31.287 15.986z" fill="#CE123F"
        fill-opacity="0.9"></path>
    <path
        d="M84.528 96.63L69.958 4l-5.999 3.907-39.075 66.428L20 92.466l31.26 44.388 15.63 8.792 17.638-49.017z"
        fill="#FF274E" fill-opacity="0.9"></path>
    <path d="M99.099 89.344l-14.57 7.285L69.956 4 99.1 89.344z" fill="#EC2B4E" fill-opacity="0.9"></path>
    <path d="M130.386 73.358L99.099 89.344 69.957 4l60.429 69.358z" fill="#D82751"
        fill-opacity="0.9"></path>
    <path
        d="M124.078 111.2l6.244-37.468-17.519-20.889.976 11.723 4.885 14.653.977 22.468 4.437 9.513z"
        fill="#B1022C" fill-opacity="0.9"></path>
</svg>