<svg width="100%" height="100%" viewBox="0 0 150 150" fill="none" xmlns="http://www.w3.org/2000/svg"
    class="pr-1">
    <g clip-path="url(#ElementWater_svg__clip0_163_248)">
        <path d="M73.342 9.824l-7.663 45.09 41.51 38.313-9.851-63.632-19.676-18.951-4.32-.82z"
            fill="#4542D2"></path>
        <path d="M97.07 28.65l10.119 64.577 17.405 7.332 3.974-25.651-31.499-46.259z" fill="#2C2AAC"></path>
        <path d="M107.189 93.227l-41.51-38.313 28.912 55.167 12.598-16.854z" fill="#3D2BB4"></path>
        <path d="M124.594 100.559l-41.15 42.314 39.62-22.465 1.53-19.849z" fill="#190A74"></path>
        <path d="M107.189 93.227l-29.39 36.939 5.913 13.653 41.828-43.528-18.351-7.064z"
            fill="#2F2185"></path>
        <path d="M94.591 110.081L77.8 130.166 60.332 90.151l5.078-36.183 29.181 56.113z"
            fill="#3423A3"></path>
        <path d="M73.342 9.824L60.332 90.15 45.325 37.177l19.093-22.781 8.924-4.572z" fill="#2A2886"></path>
        <path d="M27.524 86.161l4.791 31.343 51.129 25.37-55.92-56.713z" fill="#0C0B62"></path>
        <path d="M60.333 90.151l-32.81-3.99 56.189 57.659-23.38-53.669z" fill="#1C0A8C"></path>
        <path d="M45.325 37.177L27.523 86.161l32.81 3.99-15.008-52.974z" fill="#302E9B"></path>
    </g>
    <defs>
        <clipPath id="ElementWater_svg__clip0_163_248">
            <path fill="#fff" d="M0 0h150v150H0z"></path>
        </clipPath>
    </defs>
</svg>