<svg height="100%" viewbox="0 0 200 200" width="100%" xmlns="http://www.w3.org/2000/svg">
<path d="M139.151 72.2377C130.592 71.7354 122.619 65.0086 112.724 66.2233C102.83 67.438 89.7328 78.7971 87.3207 83.5344C84.9086 88.2717 86.7869 101.637 85.2226 104.968C83.6582 108.299 73 115 68 114C63 113 60 110 59 104.968C58 99.9363 54.7044 107.78 53.1577 116.755C51.611 125.73 52.3036 131.895 57.1822 138.847C62.0608 145.799 72.8209 153.21 87.425 154.028C102.029 154.846 115.561 147.338 118.396 136.697C121.231 126.055 121.03 115.32 125.562 109.778C130.093 104.236 132.837 104.496 140.189 98.6804C147.541 92.8646 150.648 79.4655 149.574 76.9828C148.5 74.5 147.711 72.7401 139.151 72.2377Z" fill="black"></path>
<path d="M121.969 83.9683C130.226 83.2041 128.092 94.3216 128.092 94.3216C128.092 94.3216 127.35 96.5752 122.093 97.1081C116.836 97.6409 115.35 95.177 115.35 95.177C115.35 95.177 113.713 84.7324 121.969 83.9683Z" fill="white"></path>
<ellipse cx="123.028" cy="90.8973" fill="black" rx="4.16271" ry="4.88729" transform="rotate(9.77802 123.028 90.8973)"></ellipse>
<ellipse cx="119.926" cy="87.8836" fill="white" rx="1.78402" ry="1.46619" transform="rotate(9.77802 119.926 87.8836)"></ellipse>
<path d="M114.098 89.9324C113.636 90.2586 114.71 83.4411 120.061 81.8271C125.413 80.2132 128.931 83.3568 128.931 83.3568C122.287 85.5944 114.56 89.6061 114.098 89.9324Z" fill="black"></path>
<path d="M124.751 98.8954C127.432 98.1245 127.447 97.3064 127.447 97.3064C127.447 97.3064 126.131 97.9923 123.87 98.4707C121.609 98.949 119.419 98.8011 119.419 98.8011C119.419 98.8011 122.071 99.6663 124.751 98.8954Z" fill="white"></path>
</svg>