<svg height="100%" viewBox="0 0 200 200" width="100%" xmlns="http://www.w3.org/2000/svg">
<path d="M158.393 63.7098C151.425 63.7098 149.683 61.0971 137.489 63.7085C125.295 66.3198 96.116 85.4853 77.8249 101.598C59.5337 117.711 52.1302 144.713 45.5976 151.681C39.0651 158.649 26 159.52 26 159.52C26 159.52 41.6781 162.133 48.2107 159.52C54.7432 156.907 66.9373 147.326 66.9373 147.326C66.9373 147.326 64 155.5 66.9373 159.52H81.5C76.1751 151.681 77.8249 147.326 77.8249 147.326C77.8249 147.326 87.4059 151.681 98.2935 151.681C109.181 151.681 114.843 147.326 114.843 147.326C114.843 147.326 111.794 155.6 113.101 159.52H125.73C121.375 151.681 124.951 140.903 128 133.5C131.049 126.097 126.601 117.276 137.489 105.952C148.376 94.6283 146.199 98.9858 156.215 91.5815C166.232 84.1771 174.942 69.8055 172.765 63.7093C170.587 57.6131 165.361 63.7098 158.393 63.7098Z" fill="black"></path>
<path d="M149.622 75.057C156.814 74.3914 154.955 84.0749 154.955 84.0749C154.955 84.0749 154.309 86.0378 149.73 86.5019C145.151 86.966 143.857 84.8199 143.857 84.8199C143.857 84.8199 142.43 75.7226 149.622 75.057Z" fill="white"></path>
<ellipse cx="150.544" cy="81.0911" fill="black" rx="3.62575" ry="4.25686" transform="rotate(9.77802 150.544 81.0911)"></ellipse>
<ellipse cx="147.843" cy="78.4667" fill="white" rx="1.55389" ry="1.27706" transform="rotate(9.77802 147.843 78.4667)"></ellipse>
<path d="M142.766 80.2518C142.364 80.5359 143.299 74.5978 147.96 73.192C152.622 71.7863 155.685 74.5244 155.685 74.5244C149.899 76.4733 143.169 79.9676 142.766 80.2518Z" fill="black"></path>
<path d="M152.045 88.0599C154.38 87.3884 154.393 86.6759 154.393 86.6759C154.393 86.6759 153.247 87.2733 151.277 87.6899C149.308 88.1066 147.401 87.9778 147.401 87.9778C147.401 87.9778 149.71 88.7314 152.045 88.0599Z" fill="white"></path>
<path d="M64.3243 105.519C73.0344 101.599 85.2284 96.8086 85.2284 96.8086L73.0344 111.616L64.3243 122.939C64.3243 122.939 59.5338 124.245 55.1787 127.294C50.8237 130.342 40.8071 139.488 40.8071 139.488C40.8071 139.488 43.8557 130.778 48.2107 125.552C52.5657 120.326 56.9207 115.971 56.9207 115.971L42.5491 121.632C42.5491 121.632 55.6142 109.438 64.3243 105.519Z" fill="black"></path>
<path d="M67.5425 109.065C73.0292 108.557 71.611 115.945 71.611 115.945C71.611 115.945 71.1181 117.442 67.6248 117.796C64.1315 118.15 63.1442 116.513 63.1442 116.513C63.1442 116.513 62.0559 109.572 67.5425 109.065Z" fill="white"></path>
<ellipse cx="68.2457" cy="113.669" fill="black" rx="2.76616" ry="3.24765" transform="rotate(9.77802 68.2457 113.669)"></ellipse>
<ellipse cx="66.1849" cy="111.667" fill="white" rx="1.1855" ry="0.974297" transform="rotate(9.77802 66.1849 111.667)"></ellipse>
<path d="M62.3121 113.029C62.005 113.246 62.7183 108.716 66.2746 107.643C69.831 106.571 72.1682 108.66 72.1682 108.66C67.7537 110.146 62.6192 112.812 62.3121 113.029Z" fill="black"></path>
<path d="M69.391 118.986C71.1723 118.473 71.1819 117.93 71.1819 117.93C71.1819 117.93 70.3077 118.386 68.8052 118.704C67.3027 119.021 65.8475 118.923 65.8475 118.923C65.8475 118.923 67.6096 119.498 69.391 118.986Z" fill="white"></path>
</svg>