<svg height="100%" viewbox="0 0 200 200" width="100%" xmlns="http://www.w3.org/2000/svg">
<path d="M164 51.5C160.5 49.5 154.091 41 145.494 41C136.898 41 126.54 48.6529 123 58.1064C119.46 67.5599 113.034 91.897 110 100C106.966 108.103 88.3547 104.474 72.1736 113.927C55.9925 123.381 42.3396 158.494 34.7547 165.697C27.1698 172.899 12 173.8 12 173.8C12 173.8 30.2038 176.501 37.7887 173.8C45.3736 171.099 59.5321 161.195 59.5321 161.195C59.5321 161.195 55.9925 169.748 59.5321 173.8H72.1736C74.1962 169.748 72.1736 161.195 72.1736 161.195C72.1736 161.195 83.2981 165.697 95.9396 165.697C108.581 165.697 111.155 161.195 111.155 161.195C111.155 161.195 111.615 169.748 113.132 173.8H127.796C125.774 167.947 127.796 159.394 127.796 159.394C127.796 159.394 141.449 70.2508 145.494 68C149.522 65.7591 157.058 65.7592 160.617 65.7592H160.664C164.204 65.7592 170.272 62.1579 171.789 58.1064C173.306 54.0549 167.5 53.5 164 51.5Z" fill="black"></path>
<path d="M152.879 53.1026C158.182 54.7225 154.044 61.061 154.044 61.061C154.044 61.061 153.014 62.2675 149.626 61.2647C146.238 60.262 145.943 58.3608 145.943 58.3608C145.943 58.3608 147.577 51.4828 152.879 53.1026Z" fill="white"></path>
<ellipse cx="151.779" cy="57.6582" fill="black" rx="2.78353" ry="3.26805" transform="rotate(32.0527 151.779 57.6582)"></ellipse>
<ellipse cx="150.623" cy="55.007" fill="white" rx="1.19294" ry="0.980414" transform="rotate(32.0527 150.623 55.007)"></ellipse>
<path d="M146.498 54.7985C146.129 54.8833 148.521 50.9367 152.242 51.2946C155.963 51.6524 157.342 54.489 157.342 54.489C152.664 54.1898 146.866 54.7138 146.498 54.7985Z" fill="black"></path>
<path d="M150.817 63.0449C152.671 63.2473 152.888 62.7447 152.888 62.7447C152.888 62.7447 151.9 62.8357 150.379 62.5586C148.859 62.2815 147.542 61.635 147.542 61.635C147.542 61.635 148.963 62.8424 150.817 63.0449Z" fill="white"></path>
<path d="M95.3868 153.095C100.69 154.715 96.5512 161.053 96.5512 161.053C96.5512 161.053 95.5209 162.26 92.133 161.257C88.745 160.254 88.4501 158.353 88.4501 158.353C88.4501 158.353 90.084 151.475 95.3868 153.095Z" fill="white"></path>
<ellipse cx="94.286" cy="157.65" fill="black" rx="2.78353" ry="3.26805" transform="rotate(32.0527 94.286 157.65)"></ellipse>
<ellipse cx="93.1304" cy="154.999" fill="white" rx="1.19294" ry="0.980414" transform="rotate(32.0527 93.1304 154.999)"></ellipse>
<path d="M89.0049 154.791C88.6362 154.875 91.0285 150.929 94.7491 151.287C98.4698 151.645 99.8495 154.481 99.8495 154.481C95.1716 154.182 89.3735 154.706 89.0049 154.791Z" fill="black"></path>
<path d="M93.3246 163.037C95.1788 163.239 95.3951 162.737 95.3951 162.737C95.3951 162.737 94.4072 162.828 92.8868 162.551C91.3665 162.274 90.0489 161.627 90.0489 161.627C90.0489 161.627 91.4705 162.835 93.3246 163.037Z" fill="white"></path>
<path d="M106 103.33C108.5 109.83 103.5 107.83 106.58 117.33C107.521 120.232 104.08 123.386 100.58 125.331C97.0801 127.275 92.0801 125.331 92.0801 125.331L90 123.831C90 123.831 89 129.331 86.5 132.33C84 135.33 78 138.831 78 138.831L81 121.33C81 121.33 77.5 127.831 74.5 130.831C71.5 133.83 63 136.33 63 136.33L71 121.33C71 121.33 58.5 129.331 54 130.831C49.5 132.331 46 132.33 46 132.33C46 132.33 68.5 108.329 79.5 103.33C90.5 98.3312 103.5 96.8305 106 103.33Z" fill="#3E3E60"></path>
<path d="M93.3868 108.095C98.6896 109.715 94.5512 116.053 94.5512 116.053C94.5512 116.053 93.5209 117.26 90.133 116.257C86.745 115.254 86.4501 113.353 86.4501 113.353C86.4501 113.353 88.084 106.475 93.3868 108.095Z" fill="white"></path>
<ellipse cx="92.286" cy="112.65" fill="#3E3E60" rx="2.78353" ry="3.26805" transform="rotate(32.0527 92.286 112.65)"></ellipse>
<ellipse cx="91.1304" cy="109.999" fill="white" rx="1.19294" ry="0.980414" transform="rotate(32.0527 91.1304 109.999)"></ellipse>
<path d="M87.0049 109.791C86.6362 109.875 89.0285 105.929 92.7491 106.287C96.4698 106.645 97.8495 109.481 97.8495 109.481C93.1716 109.182 87.3735 109.706 87.0049 109.791Z" fill="#3E3E60"></path>
<path d="M91.3246 118.037C93.1788 118.239 93.3951 117.737 93.3951 117.737C93.3951 117.737 92.4072 117.828 90.8868 117.551C89.3665 117.274 88.0489 116.627 88.0489 116.627C88.0489 116.627 89.4705 117.835 91.3246 118.037Z" fill="white"></path>
<path clip-rule="evenodd" d="M137.037 40.838C137.428 40.0779 140.844 39.4837 145 39.4837C149.418 39.4837 153 40.1553 153 40.9837C153 40.9892 153 40.9946 153 41C155.449 40.6332 157 40.09 157 39.4837C157 38.3792 151.851 37.4837 145.5 37.4837C139.149 37.4837 134 38.3792 134 39.4837C134 40.0061 135.152 40.4817 137.037 40.838Z" fill="#3E3E60" fill-rule="evenodd"></path>
</svg>