<svg height="100%" viewbox="0 0 200 200" width="100%" xmlns="http://www.w3.org/2000/svg">
<path d="M126 53L142.5 37L151.5 31.5L155 36L137.5 53L129 65L120.5 82.5L101 115.5L107 89L114.5 85.5L107 86L114 70.5L124 65L114 67L126 53Z" fill="#3E3E60"></path>
<path d="M154.5 33C157.5 34.9688 161.5 35.5 165 38.5C168.5 41.5 173 49 175.5 50.5C178 52 183 51.5 183.5 54.5C184 57.5 174 62 170 62C166 62 158 58.5 158 58.5C158 58.5 145.913 68.5 139 86.5C132.087 104.5 130 121.5 127.5 132.5C125 143.5 111 173.5 111 173.5L115 182L125.5 184.5H106.5L100 173.5C91.0423 177.188 78.5862 185.195 69 182C61.5 179.5 48 170.5 44 171.5C40 172.5 31 175.5 34 178.5C37 181.5 56.5 182 56.5 182C56.5 182 25.5 188.5 22 186.5C18.5 184.5 20 157.5 22 154C24 150.5 48.5 135 51 134C71.4449 125.822 90.8431 124.391 105.5 104.5C112.5 95 121.958 73.5 127.5 64C133.042 54.5 147 41 147 41L139 35.5L142.5 31L142 34.5L150 38.5L152 37C152 37 151.58 36.5 150 33C148.42 29.5 147 21 147 21L156 23.5H150C150 23.5 151.5 31.0312 154.5 33Z" fill="black"></path>
<path d="M167.218 51.029C170.516 53.7611 165.681 57.0481 165.681 57.0481C165.681 57.0481 164.588 57.6017 162.471 55.8791C160.354 54.1566 160.71 52.7136 160.71 52.7136C160.71 52.7136 163.92 48.297 167.218 51.029Z" fill="white"></path>
<ellipse cx="165.079" cy="53.9483" fill="black" rx="2.14996" ry="2.52419" transform="rotate(54.7044 165.079 53.9483)"></ellipse>
<ellipse cx="165.044" cy="51.7148" fill="white" rx="0.921411" ry="0.757257" transform="rotate(54.7044 165.044 51.7148)"></ellipse>
<path d="M162.165 50.339C161.877 50.2897 164.756 48.1882 167.302 49.5501C169.848 50.9119 169.987 53.3443 169.987 53.3443C166.742 51.7395 162.453 50.3882 162.165 50.339Z" fill="black"></path>
<path d="M162.791 57.5025C164.052 58.1984 164.356 57.9045 164.356 57.9045C164.356 57.9045 163.625 57.6754 162.623 57.0257C161.622 56.3759 160.875 55.5231 160.875 55.5231C160.875 55.5231 161.529 56.8067 162.791 57.5025Z" fill="white"></path>
<path d="M78.4127 168.451C84.1324 170.14 79.746 176.999 79.746 176.999C79.746 176.999 78.6502 178.307 74.9962 177.263C71.3423 176.219 71.0057 174.177 71.0057 174.177C71.0057 174.177 72.693 166.763 78.4127 168.451Z" fill="white"></path>
<ellipse cx="77.2759" cy="173.362" fill="black" rx="2.99386" ry="3.51499" transform="rotate(31.5104 77.2759 173.362)"></ellipse>
<ellipse cx="76.0055" cy="170.522" fill="white" rx="1.28308" ry="1.0545" transform="rotate(31.5104 76.0055 170.522)"></ellipse>
<path d="M71.5662 170.34C71.1706 170.435 73.7033 166.166 77.7086 166.513C81.7139 166.86 83.2266 169.896 83.2266 169.896C78.1925 169.622 71.9619 170.245 71.5662 170.34Z" fill="black"></path>
<path d="M76.2959 179.165C78.2922 179.364 78.5197 178.821 78.5197 178.821C78.5197 178.821 77.4581 178.929 75.8201 178.647C74.1821 178.364 72.7584 177.682 72.7584 177.682C72.7584 177.682 74.2997 178.966 76.2959 179.165Z" fill="white"></path>
<path d="M24.025 177.024C20.1214 178.785 23.914 183.235 23.914 183.235C23.914 183.235 24.8216 184.058 27.3188 182.958C29.816 181.857 29.8554 180.371 29.8554 180.371C29.8554 180.371 27.9286 175.262 24.025 177.024Z" fill="white"></path>
<path d="M23.8342 181.636C24.7182 182.714 26.1791 182.977 27.0973 182.224C28.0154 181.471 28.0432 179.987 27.1592 178.909C26.2752 177.831 24.8143 177.568 23.8961 178.321C22.978 179.074 22.9503 180.558 23.8342 181.636Z" fill="black"></path>
<path d="M25.2905 178.898C25.5557 179.222 26.0896 179.222 26.4831 178.9C26.8766 178.577 26.9806 178.053 26.7155 177.73C26.4503 177.406 25.9163 177.406 25.5228 177.728C25.1293 178.051 25.0253 178.575 25.2905 178.898Z" fill="white"></path>
<path d="M29.1936 178.094C29.4843 178.122 27.2643 175.334 24.4489 175.973C21.6335 176.612 20.8549 178.921 20.8549 178.921C24.4094 178.233 28.9029 178.065 29.1936 178.094Z" fill="black"></path>
<path d="M26.4946 183.966C25.0939 184.304 24.8789 183.94 24.8789 183.94C24.8789 183.94 25.6447 183.912 26.7823 183.551C27.9199 183.19 28.8659 182.565 28.8659 182.565C28.8659 182.565 27.8952 183.629 26.4946 183.966Z" fill="white"></path>
<path d="M67.4719 101.134C84.0138 100.201 90.575 101.183 94.9863 108.313C99.3977 115.444 88.4556 121.923 94.809 126.255C101.162 130.588 86.1019 135.651 83.9447 132.513C81.7875 129.375 82.376 124.669 82.376 124.669C82.376 124.669 81.1011 131.042 79.4339 135.455C77.7668 139.867 69.6278 145.064 69.6278 145.064L75.414 123.001C75.414 123.001 69.4317 132.723 66.6188 138.017C63.806 143.312 46.6532 144.918 46.6532 144.918L68.2559 117.804C68.2559 117.804 59.669 128.12 52.4681 130.649C45.2673 133.178 30.8952 134.963 30.8952 134.963L61.2266 111.052C61.2266 111.052 40.2532 118.096 34.3278 116.43C28.4025 114.765 23.1272 111.998 23.1272 111.998C23.1272 111.998 50.93 102.068 67.4719 101.134Z" fill="#3E3E60"></path>
<path d="M88.3869 110.095C93.6897 111.715 89.5513 118.053 89.5513 118.053C89.5513 118.053 88.521 119.26 85.1331 118.257C81.7451 117.254 81.4502 115.353 81.4502 115.353C81.4502 115.353 83.0841 108.475 88.3869 110.095Z" fill="white"></path>
<ellipse cx="87.2858" cy="114.65" fill="#3E3E60" rx="2.78353" ry="3.26805" transform="rotate(32.0527 87.2858 114.65)"></ellipse>
<ellipse cx="86.1306" cy="112" fill="white" rx="1.19294" ry="0.980414" transform="rotate(32.0527 86.1306 112)"></ellipse>
<path d="M82.0049 111.791C81.6362 111.875 84.0284 107.929 87.7491 108.287C91.4698 108.645 92.8494 111.481 92.8494 111.481C88.1716 111.182 82.3735 111.706 82.0049 111.791Z" fill="#3E3E60"></path>
<path d="M86.3248 120.037C88.179 120.239 88.3953 119.737 88.3953 119.737C88.3953 119.737 87.4074 119.828 85.887 119.551C84.3667 119.274 83.049 118.627 83.049 118.627C83.049 118.627 84.4706 119.835 86.3248 120.037Z" fill="white"></path>
</svg>