<svg height="100%" viewbox="0 0 200 200" width="100%" xmlns="http://www.w3.org/2000/svg">
<path d="M153.221 99.3248C153.221 99.3248 151.136 103.02 150.844 105.697C150.552 108.373 153.261 114.366 153.261 114.366L161.93 111.95L163.075 104.883L165.965 104.078C165.965 104.078 164.891 100.225 163.257 98.085C161.622 95.9452 157.098 94.6109 157.098 94.6109L158.44 99.4273L153.221 99.3248Z" fill="#3E3E60"></path>
<path d="M118.389 19.6759L137 27.2175L126.5 31L105 45.5L90.5001 60.5L95.7122 43.2477L103.866 41.8276L96.4956 40.3518L107.3 27.2175L118.389 24.5196L108.214 23.8389L118.389 19.6759Z" fill="#3E3E60"></path>
<path d="M83.0755 52.8803C93.6094 57.8623 97.2777 60.836 97.3048 67.6087C97.3319 74.3814 88.1542 75.4102 90.4316 80.7842C92.7091 86.1581 81.53 84.7308 81.3852 81.6763C81.2404 78.6219 83.3771 75.3514 83.3771 75.3514C83.3771 75.3514 80.1895 79.6163 77.4998 82.3C74.8102 84.9837 67.8413 86.0273 67.8413 86.0273L79.7203 71.7347C79.7203 71.7347 72.3731 76.8558 68.6458 79.7972C64.9185 82.7387 53.7549 78.0437 53.7549 78.0437L77.2737 65.4467C77.2737 65.4467 68.0991 70.1136 62.7135 69.5104C57.328 68.9073 47.8087 65.2973 47.8087 65.2973L75.4926 58.0556C75.4926 58.0556 59.9273 56.0625 56.9081 52.8023C53.8889 49.5421 51.6848 45.6928 51.6848 45.6928C51.6848 45.6928 72.5417 47.8982 83.0755 52.8803Z" fill="#3E3E60"></path>
<path d="M156.5 65C152.5 63.5 146.592 58.8901 143.5 57.571C140.408 56.252 135 55.5 128.5 56.5C122 57.5 115.5 62.5 112.5 66C109.5 69.5 108.555 74.3257 108.555 74.3257L125 72L127.107 77.8432L121.807 76.5241L108.555 81.5V87L123.574 87.1032L125.782 91.5H119.598L110.764 95C110.764 95 113.715 100.5 119.748 100.5C125.782 100.5 138.202 86.5 151.5 95C164.798 103.5 177 122.5 175.5 131.5C174 140.5 171.327 151.5 160 167C148.673 182.5 117.985 184.5 104 180.5C90.0153 176.5 83.9693 155 71.5 149C59.0307 143 51 150.5 42 160.5C33 170.5 34.5 188.5 34.5 188.5C34.5 188.5 22 155 29 149C36 143 59.0307 140 71.5 143.5C83.9693 147 91.4785 167.5 105.614 170.5C119.748 173.5 130.5 170.5 140 165.5C149.5 160.5 153.5 154.5 154.5 149C155.5 143.5 152.782 135 143.5 131.5C121.73 123.291 104.281 149.534 83.9693 122.643C69.6928 103.743 83.1605 67.1099 95.5 51.4156C103.451 41.303 121 32 121 32H113.5L105.614 30.7507L92.362 23.7158L106.497 28.1126L117 29H125.782L131 27L119.748 21.5174L98.9877 19.319L119.748 18L137.417 25.0349C145.224 29.309 158.552 32.7109 163.037 40.4236C166.571 46.5 166 55 167.5 56.5C169 58 171 57.571 171.5 59C172 60.429 160.5 66.5 156.5 65Z" fill="black"></path>
<path d="M40.0107 149.493C44.6562 150.777 41.2074 156.381 41.2074 156.381C41.2074 156.381 40.3402 157.453 37.3729 156.661C34.4056 155.868 34.1051 154.223 34.1051 154.223C34.1051 154.223 35.3652 148.208 40.0107 149.493Z" fill="white"></path>
<ellipse cx="39.1602" cy="153.475" fill="black" rx="2.41964" ry="2.84081" transform="rotate(30.5213 39.1602 153.475)"></ellipse>
<ellipse cx="38.0948" cy="151.197" fill="white" rx="1.03699" ry="0.852243" transform="rotate(30.5213 38.0948 151.197)"></ellipse>
<path d="M34.5047 151.113C34.1863 151.195 36.1734 147.71 39.4148 147.935C42.6562 148.159 43.921 150.592 43.921 150.592C39.8492 150.441 34.823 151.031 34.5047 151.113Z" fill="black"></path>
<path d="M38.4501 158.179C40.066 158.312 40.2422 157.87 40.2422 157.87C40.2422 157.87 39.3859 157.972 38.0583 157.767C36.7308 157.561 35.5708 157.03 35.5708 157.03C35.5708 157.03 36.8341 158.046 38.4501 158.179Z" fill="white"></path>
<path d="M145.118 96.1025C149.246 97.2437 146.181 102.223 146.181 102.223C146.181 102.223 145.411 103.176 142.774 102.472C140.138 101.767 139.871 100.305 139.871 100.305C139.871 100.305 140.99 94.9612 145.118 96.1025Z" fill="white"></path>
<ellipse cx="144.363" cy="99.6423" fill="black" rx="2.14996" ry="2.52419" transform="rotate(30.5213 144.363 99.6423)"></ellipse>
<ellipse cx="143.416" cy="97.6193" fill="white" rx="0.921411" ry="0.757257" transform="rotate(30.5213 143.416 97.6193)"></ellipse>
<path d="M140.226 97.5431C139.943 97.6162 141.709 94.5196 144.589 94.7191C147.469 94.9186 148.593 97.0803 148.593 97.0803C144.975 96.9459 140.509 97.4701 140.226 97.5431Z" fill="black"></path>
<path d="M143.731 103.822C145.167 103.94 145.324 103.547 145.324 103.547C145.324 103.547 144.563 103.638 143.383 103.455C142.204 103.273 141.173 102.801 141.173 102.801C141.173 102.801 142.296 103.704 143.731 103.822Z" fill="white"></path>
<path d="M157.03 53.4707C159.522 56.954 154.007 58.898 154.007 58.898C154.007 58.898 152.809 59.1542 151.202 56.9485C149.595 54.7427 150.307 53.4383 150.307 53.4383C150.307 53.4383 154.539 49.9873 157.03 53.4707Z" fill="white"></path>
<ellipse cx="154.217" cy="55.7467" fill="black" rx="2.14996" ry="2.52419" transform="rotate(69.4916 154.217 55.7467)"></ellipse>
<ellipse cx="154.753" cy="53.5785" fill="white" rx="0.921411" ry="0.757257" transform="rotate(69.4916 154.753 53.5785)"></ellipse>
<path d="M152.32 51.5133C152.054 51.3922 155.375 50.0952 157.488 52.0616C159.602 54.0281 159.116 56.4156 159.116 56.4156C156.388 54.0356 152.586 51.6345 152.32 51.5133Z" fill="black"></path>
<path d="M151.097 58.5993C152.139 59.594 152.508 59.3874 152.508 59.3874C152.508 59.3874 151.859 58.9793 151.057 58.0955C150.255 57.2117 149.75 56.1965 149.75 56.1965C149.75 56.1965 150.055 57.6045 151.097 58.5993Z" fill="white"></path>
<path d="M146.325 52.6464C147.486 53.8404 145.479 54.9088 145.479 54.9088C145.479 54.9088 145.033 55.0771 144.287 54.3227C143.541 53.5684 143.739 53.0255 143.739 53.0255C143.739 53.0255 145.165 51.4524 146.325 52.6464Z" fill="white"></path>
<ellipse cx="145.376" cy="53.6854" fill="black" rx="0.835912" ry="0.981415" transform="rotate(60.8776 145.376 53.6854)"></ellipse>
<ellipse cx="145.456" cy="52.8205" fill="white" rx="0.358248" ry="0.294425" transform="rotate(60.8776 145.456 52.8205)"></ellipse>
<path d="M144.401 52.1684C144.291 52.1373 145.492 51.4453 146.419 52.0782C147.346 52.711 147.299 53.6571 147.299 53.6571C146.111 52.9011 144.51 52.1994 144.401 52.1684Z" fill="black"></path>
<path d="M144.343 54.964C144.802 55.2857 144.931 55.1848 144.931 55.1848C144.931 55.1848 144.658 55.0657 144.298 54.7727C143.939 54.4797 143.685 54.1188 143.685 54.1188C143.685 54.1188 143.885 54.6423 144.343 54.964Z" fill="white"></path>
<path d="M51.0535 92.8204C64.4599 83.0852 70.5092 80.3612 78.0771 83.9712C85.645 87.5812 79.9485 98.9505 87.6356 99.1563C95.3226 99.3621 85.3966 111.769 81.8846 110.297C78.3727 108.825 76.321 104.549 76.321 104.549C76.321 104.549 78.6973 110.599 79.6826 115.212C80.668 119.825 76.6349 128.599 76.6349 128.599L69.5639 106.913C69.5639 106.913 69.7928 118.326 70.2917 124.3C70.7907 130.275 57.2346 140.906 57.2346 140.906L60.732 106.415C60.732 106.415 59.0922 119.737 54.4045 125.76C49.7168 131.782 38.5958 141.06 38.5958 141.06L51.1671 104.54C51.1671 104.54 37.3401 121.812 31.4557 123.617C25.5712 125.422 19.638 125.95 19.638 125.95C19.638 125.95 37.6471 102.556 51.0535 92.8204Z" fill="#3E3E60"></path>
<path d="M74.4962 88.1335C80.9583 90.1075 75.9151 97.8317 75.9151 97.8317C75.9151 97.8317 74.6597 99.302 70.531 98.08C66.4024 96.858 66.043 94.5412 66.043 94.5412C66.043 94.5412 68.0341 86.1594 74.4962 88.1335Z" fill="white"></path>
<ellipse cx="73.1545" cy="93.6834" fill="#3E3E60" rx="3.39208" ry="3.98252" transform="rotate(32.0527 73.1545 93.6834)"></ellipse>
<ellipse cx="71.7465" cy="90.4531" fill="white" rx="1.45375" ry="1.19476" transform="rotate(32.0527 71.7465 90.4531)"></ellipse>
<path d="M66.7191 90.1993C66.2698 90.3025 69.185 85.4932 73.7191 85.9293C78.2533 86.3653 79.9345 89.8221 79.9345 89.8221C74.234 89.4575 67.1683 90.096 66.7191 90.1993Z" fill="#3E3E60"></path>
<path d="M71.9833 100.25C74.2429 100.496 74.5065 99.8839 74.5065 99.8839C74.5065 99.8839 73.3025 99.9947 71.4498 99.657C69.5971 99.3194 67.9914 98.5314 67.9914 98.5314C67.9914 98.5314 69.7238 100.003 71.9833 100.25Z" fill="white"></path>
<path d="M166.653 105.863C166.653 105.863 163.41 108.599 162.203 111.005C160.995 113.412 161.443 119.973 161.443 119.973L170.411 120.733L173.949 114.509L176.938 114.763C176.938 114.763 177.276 110.777 176.49 108.202C175.705 105.626 171.93 102.797 171.93 102.797L171.508 107.779L166.653 105.863Z" fill="black"></path>
</svg>