<svg height="100%" viewBox="0 0 200 200" width="100%" xmlns="http://www.w3.org/2000/svg">
<path d="M156 131.132L130.452 144.787C120 125 90.8095 136.5 92.5714 119.68C115.5 127 133.536 121.882 133.536 121.882L127.81 120.561V107.787L124.726 119.68L117.679 118.359L118.56 106.466L114.155 117.478L109.75 116.156V110.43L106.226 114.394C99.8634 114.394 94.6904 107.051 90.8095 102.942C99.6153 108.623 105.926 97.6234 114.155 98.5372C118.119 98.9775 117.238 104.704 122.524 104.704C127.81 104.704 120.321 96.7753 115.917 95.4539C105.32 92.2748 97.5 104 88.6072 91.9301L87.2857 83.5608C98 94.5 125.048 88.8465 125.048 88.8465L127 102.942L129.131 88.8465H133.536L135.298 102.942L136.619 88.8465C136.619 88.8465 146.75 84.2656 142.786 81.3584C138.821 78.4512 136.619 84.4417 129.131 76.0727C121.643 67.7037 128.69 56.278 94.7738 54.0756C60.8571 51.8731 45 98.5372 45 98.5372L61.7381 95.4539C61.7381 107.672 60.3126 121.075 65.7023 132.454C70.0731 141.632 75.5269 147.343 83.7619 153.156L63.9405 154.478C75.9175 160.466 86.844 164.409 99.1786 157.12L131.452 154.478C135.262 159.556 137.291 163.798 144.107 161.525L135.298 150.513L148.952 147.457L151.155 141.731L141.464 143.493L151.155 139.528L156 131.132Z" fill="black"></path>
<path d="M101.62 80.4097L98.0465 82.158L102.201 73.4841L99.9309 69.494L103.677 72.2307L104.026 68.0753L106.195 71.6367L107.903 67.6131L108.712 71.0427L111.983 68.0082L110.593 71.5041L117.767 77.5052L114.155 76.5132C114.155 76.5132 113.268 71.5041 106.667 72.9894C100.066 74.4747 101.62 80.4097 101.62 80.4097Z" fill="white"></path>
<path d="M109.42 150.002L105.609 151.143L111.125 143.264L109.537 138.957L112.786 142.269L113.808 138.226L115.366 142.094L117.709 138.403L117.947 141.919L121.67 139.46L119.727 142.682L125.824 149.774L122.423 148.205C122.423 148.205 122.366 143.119 115.611 143.506C108.856 143.892 109.42 150.002 109.42 150.002Z" fill="white"></path>
</svg>