<svg height="100%" viewbox="0 0 200 200" width="100%" xmlns="http://www.w3.org/2000/svg">
<path d="M98.804 59.1583C82.3836 71.9297 95.8153 92.1847 83.5 104.5C66.397 121.603 53.8203 125.661 41 108.42C50.7617 141.724 91.8839 159.776 124 144C149.999 131.229 130.965 99.649 141 96C151.035 92.351 156.57 88.3857 162.5 82C168.43 75.6143 174.815 53.9993 162.5 53.9993C150.185 53.9993 115.224 46.3869 98.804 59.1583Z" fill="black"></path>
<path d="M134.381 70.1062C134.381 76.4039 129.276 81.5092 122.978 81.5092C116.681 81.5092 111.575 76.4039 111.575 70.1062C111.575 63.8084 116.681 58.7031 122.978 58.7031C129.276 58.7031 134.381 63.8084 134.381 70.1062Z" fill="white"></path>
<path d="M128.908 70.1062C128.908 73.381 126.253 76.0358 122.978 76.0358C119.703 76.0358 117.049 73.381 117.049 70.1062C117.049 66.8314 119.703 64.1766 122.978 64.1766C126.253 64.1766 128.908 66.8314 128.908 70.1062Z" fill="black"></path>
<path d="M127.083 70.1062C127.083 72.3734 125.245 74.2113 122.978 74.2113C120.711 74.2113 118.873 72.3734 118.873 70.1062C118.873 67.839 120.711 66.0011 122.978 66.0011C125.245 66.0011 127.083 67.839 127.083 70.1062Z" fill="white"></path>
</svg>