<svg width="100%" height="100%" viewBox="0 0 150 150" fill="none" xmlns="http://www.w3.org/2000/svg"
    class="pr-1">
    <path
        d="M87.794 15.485L69.445 5 31 115.092l38.445 6.99 26.213 14.854 22.717-23.591-30.581-97.86z"
        fill="#FFA800" fill-opacity="0.8"></path>
    <path d="M32.748 121.209L58.086 144.8l37.572-7.864-26.213-31.455L31 115.092l1.748 6.117z"
        fill="#CB7526" fill-opacity="0.9"></path>
    <path
        d="M31 115.092l2.621-59.414 17.912-25.34L69.445 5l1.748 72.521-1.748 44.561L58.086 144.8l-24.465-22.718-2.621-6.99z"
        fill="#F1A955" fill-opacity="0.9"></path>
    <path
        d="M37.116 46.066L69.446 5l18.348 10.485 2.621 25.339L71.193 77.52 33.62 55.678l3.495-9.612z"
        fill="#FFDE68" fill-opacity="0.8"></path>
    <path d="M90.415 40.824l-2.621-25.34 27.086 25.34 3.495 9.61v62.911L86.92 47.814l3.495-6.99z"
        fill="#FBBC67" fill-opacity="0.9"></path>
</svg>