<svg width="100%" height="100%" viewBox="0 0 150 150" fill="none" xmlns="http://www.w3.org/2000/svg"
    class="pr-1">
    <g clip-path="url(#ElementMetal_svg__clip0_163_262)">
        <path d="M45.02 48.814l16.296-37.606 31.338-5.015 24.781 15.368-16.759 39.253-55.656-12z"
            fill="#F3FBFC"></path>
        <path d="M137.145 44.477l-19.71-22.916-16.759 39.253 45.458 24.811-8.989-41.148z"
            fill="#fff"></path>
        <path d="M146.134 85.625l-45.458-24.811-31.267 16.449 74.326 24.089 2.399-15.727z"
            fill="#DCFDFF"></path>
        <path d="M70.58 77.96l30.096-17.146L54.508 49.75 45.08 47.87 28.198 88.928l42.381-10.969z"
            fill="#DDF7F9"></path>
        <path d="M45.535 48.887L15.662 68.871l16.822-36.353 28.832-21.31-15.781 37.679z"
            fill="#C4F0F0"></path>
        <path
            d="M81.333 140.295l-46.341-6.24 56.41-15.364 22.294-17.313 30.039-.027-7.336 27.706-55.066 11.238z"
            fill="#8EB8BB"></path>
        <path d="M102.117 87.03l41.618 14.321-15.922 18.122-35.955.235 2.462-19.418 7.797-13.26z"
            fill="#D8FDFF"></path>
        <path d="M92.573 119.387L34.99 135.309l-22.563-22.564L9.92 96.449l85.83 3.2-3.177 19.738z"
            fill="#D4F5F8"></path>
        <path d="M8.14 95.196l4.287 17.549L95.75 99.649l7.082-12.94-32.449-11.103-62.242 19.59z"
            fill="#CAECEF"></path>
        <path d="M8.141 95.195l7.521-26.324L45.02 48.814 29.451 88.928l-21.31 6.267z" fill="#C1E7EB"></path>
    </g>
    <defs>
        <clipPath id="ElementMetal_svg__clip0_163_262">
            <path fill="#fff" d="M0 0h150v150H0z"></path>
        </clipPath>
    </defs>
</svg>