<svg width="100%" height="100%" viewBox="0 0 150 150" fill="none" xmlns="http://www.w3.org/2000/svg"
    class="pr-1">
    <path
        d="M37 116.845L49.048 149l41.107-20.971L110 93.777 95.825 77H70.311l-29.767 29.359L37 116.845z"
        fill="#15D8B5"></path>
    <path
        d="M37 116.49L49.048 149l41.107-21.202L110 93.168V41.577l-7.087-26.15L90.155 3.414 85.195 2 64.64 24.615 37 116.49z"
        fill="#15D8B5"></path>
    <path
        d="M71.821 63.428L42.11 95.984l-7.914-7.422 29.823-63.74 20.91-23.06 5.256 1.42v13.867L73.669 55.005l-1.848 8.423z"
        fill="#8EFFE4" fill-opacity="0.9"></path>
    <path d="M98.687 36.204L87.768 64.957l6.061 4.647 12.43-26.708-7.572-6.692z" fill="#75FFCD"
        fill-opacity="0.9"></path>
    <path
        d="M98.687 36.204l7.743 7.057 3.651-1.705-7.774-26.166L90.01 3.344l-.19 13.876 8.867 18.984z"
        fill="#B4FFE4" fill-opacity="0.9"></path>
    <path d="M71.437 63.537l1.867-8.362 16.651-37.607 9.097 18.466-11.284 28.923-16.331-1.42z"
        fill="#54F8BD" fill-opacity="0.9"></path>
    <path d="M41.94 95.619l6.662 54.257-11.744-32.761-2.662-28.553 7.743 7.057z" fill="#A2FEE2"
        fill-opacity="0.9"></path>
    <path
        d="M41.939 95.618l6.663 54.258L89.9 128.154l3.93-58.55-6.06-4.647-16.313-1.359-29.517 32.02z"
        fill="#54FFC1" fill-opacity="0.9"></path>
    <path d="M91.319 108.982l-20.592 12.781-22.125 28.113L89.9 128.154l1.42-19.172z" fill="#3DE4BC"
        fill-opacity="0.9"></path>
    <path d="M93.83 69.604l-3.901 58.302 19.852-34.622.129-52.093-4.016 1.875-12.065 26.538z"
        fill="#1BE39B" fill-opacity="0.9"></path>
</svg>