<svg height="100%" viewbox="0 0 200 200" width="100%" xmlns="http://www.w3.org/2000/svg">
<path d="M134.5 98.0005C140.5 90 162.102 81.1056 158.5 71.5C157 67.5001 153.5 71.5004 147.5 70.5005C141.5 69.5005 126.717 66.0539 116.5 74.0005C112 77.5005 104.5 98.0004 98.5 105C92.5 112 86.5 119.692 74 124.5C61.5 129.309 53 130.5 53 135.5C53 140.5 93 140 93 140C93 140 117 140.5 122.5 132.5C128 124.5 128.5 106.001 134.5 98.0005Z" fill="black"></path>
<path d="M133.444 84.002L139.352 82.5557L141.695 80.3742L132.796 82.045L126.538 85.523L128.533 85.3733L125.304 89.1255L133.444 84.002Z" fill="white"></path>
</svg>