<svg height="100%" viewBox="0 0 200 200" width="100%" xmlns="http://www.w3.org/2000/svg">
<path d="M83.4361 95.6194C77.824 85.9258 61.2359 91.0261 59.1155 91.7257C58.9698 91.7762 58.8916 91.8014 58.8916 91.8014C58.8916 91.8014 58.969 91.774 59.1155 91.7257C61.113 91.0343 75.8 85.6052 75.8 75.4384C75.8 64.5297 58.8916 44.3487 58.8916 44.3487C58.8916 44.3487 87.2541 71.0749 89.4358 80.8927C91.6175 90.7105 94.8901 109.255 101.981 109.255C109.072 109.256 113.435 102.71 115.617 93.4379C117.798 84.1656 116.162 70.5298 120.525 62.8937C124.889 55.2577 127.616 54.7122 135.252 49.2579C142.888 43.8036 139.71 43.6847 146.161 42.1673C155.433 39.9862 143.979 59.6205 139.616 72.7109C135.252 85.8013 129.798 92.3468 131.434 107.619C133.07 122.891 128.707 134.891 120.525 142.527C112.344 150.163 85.6178 147.981 70.8911 146.89C56.1644 145.799 35.5 150 35.5 150L52.8919 135.436C52.8919 135.436 62.0913 145.254 73 142.527C91.6929 137.853 90.3657 107.589 83.4361 95.6194Z" fill="black"></path>
<path d="M136.467 64.2482L139.773 60.1646L140.244 57.4393L134.998 63.2415L132.514 68.9047L133.807 67.759L133.549 72.027L136.467 64.2482Z" fill="white"></path>
<path d="M83.3332 83.4012L80.8909 78.7489L80.9633 75.9842L84.971 82.7019L86.2973 88.742L85.2538 87.3652L84.6705 91.601L83.3332 83.4012Z" fill="white"></path>
</svg>