<svg height="100%" viewbox="0 0 200 200" width="100%" xmlns="http://www.w3.org/2000/svg">
<path d="M71.7092 88.8778C78.2913 90.8274 100.797 96.3401 100.797 96.3401L111.147 106.233C98.4222 104.722 86.1086 96.3069 68.6403 102.449C51.172 108.591 43.0181 119.175 43.0181 119.175L46.2941 106.694L14.3287 93.002C14.3287 93.002 33.0121 96.2291 47.052 95.8207C61.0919 95.4123 71.7092 88.8778 71.7092 88.8778Z" fill="#3E3E60"></path>
<path d="M178.543 46.861C185.2 39.0942 176.878 42.9799 170.776 44.0885C164.673 45.1971 159.68 41.8694 148.03 49.6351C136.38 57.4008 138.599 68.4987 128.058 79.0391C117.517 89.5795 112.524 85.1424 100.874 97.3467C89.2236 109.551 72.5803 130.633 72.5803 130.633L63.149 171.686L82.0115 141.174C82.0115 141.174 79.2376 124.292 90.3331 119.537C101.429 114.783 116.962 117.318 123.065 113.99C137.454 106.142 138.682 82.567 150.249 71.8265C158.016 64.6144 171.885 54.6279 178.543 46.861Z" fill="black"></path>
<path d="M76.4653 137.025L75.8874 141.67L74.4292 143.656L74.9117 136.704L77.0114 131.611L77.075 133.149L79.6547 130.346L76.4653 137.025Z" fill="white"></path>
<path d="M161.061 57.0189L165.045 54.5621L166.245 52.4103L160.123 55.7393L156.364 59.7664L157.789 59.185L156.313 62.6963L161.061 57.0189Z" fill="white"></path>
<path d="M61.4847 50.7459C71.4707 55.1841 92.5522 65.1701 92.5522 65.1701C92.5522 65.1701 91.4427 74.0465 98.6548 82.3682C105.867 90.6898 126.5 84 126.5 84L98.6548 102.34C98.6548 102.34 94.2166 85.142 80.9019 79.0395C67.5873 72.9369 49.8344 82.3682 49.8344 82.3682C49.8344 82.3682 64.8134 74.0465 59.2656 62.951C53.7178 51.8554 11 28 11 28C11 28 51.4987 46.3076 61.4847 50.7459Z" fill="black"></path>
<path d="M75.7189 66.0072L81.3897 68.8995L84.7378 68.7725L76.5427 64.0132L69.2066 62.4925L70.8895 63.7371L65.7664 64.504L75.7189 66.0072Z" fill="white"></path>
</svg>