<svg height="100%" viewbox="0 0 200 200" width="100%" xmlns="http://www.w3.org/2000/svg">
<path d="M79.0001 83.9731C82.0001 97.7937 126.5 93.4727 126.5 93.4727L116.647 108.206C103.922 106.695 93.1379 98.3131 74.1404 104.422C55.1428 110.531 40.5001 137.473 40.5001 137.473L52.5521 108.206C52.5521 108.206 40.5001 104.422 31.0001 99.9731C21.5001 95.5243 8.99991 81.9725 8.99991 81.9725C8.99991 81.9725 38.5122 98.2021 52.5521 97.7937C66.592 97.3854 79.0001 83.9731 79.0001 83.9731Z" fill="#3E3E60"></path>
<path d="M182 51C188.657 43.2331 180.724 46.4388 175.5 47.4999C170.276 48.5611 163 46.0613 154.5 53.0002C146 59.9391 144.099 70.4714 133.558 81.0119C123.017 91.5523 118.024 87.1152 106.374 99.3195C94.7237 111.524 78.0804 132.606 78.0804 132.606L68.6492 173.659L87.5116 143.146C87.5116 143.146 84.7377 126.265 95.8332 121.51C106.929 116.755 122.397 115.328 128.5 112C142.889 104.152 144.183 84.5398 155.749 73.7993C163.516 66.5872 175.343 58.7669 182 51Z" fill="black"></path>
<path d="M81.9653 138.998L81.3874 143.643L79.9292 145.628L80.4117 138.677L82.5114 133.584L82.575 135.121L85.1547 132.319L81.9653 138.998Z" fill="white"></path>
<path d="M167.657 58.9615L172.006 57.2321L173.561 55.3207L166.955 57.5388L162.555 60.8539L164.059 60.5281L161.997 63.7305L167.657 58.9615Z" fill="white"></path>
<path d="M70.5 28.9727C80.486 33.4109 104.155 47.9727 104.155 47.9727C104.155 47.9727 85 56.4727 97 76.4727C109 96.4727 132 85.9728 132 85.9728L104.155 104.313C104.155 104.313 99.7166 87.1148 86.4019 81.0123C73.0873 74.9097 55.3344 84.3409 55.3344 84.3409C55.3344 84.3409 79.9999 66.9725 70.5 47.9727C61.0001 28.9728 13.5 28.9728 13.5 28.9728C13.5 28.9728 60.514 24.5344 70.5 28.9727Z" fill="black"></path>
<path d="M82.9871 43.6466L88.0068 47.5614L91.3183 48.0713L84.174 41.8449L77.2591 38.9612L78.6755 40.5023L73.5 40.2842L82.9871 43.6466Z" fill="white"></path>
<path d="M90.0476 97.5465L96.1953 99.1987L99.4441 98.3794L90.4397 95.4249L82.9477 95.4602L84.8522 96.3284L80 98.142L90.0476 97.5465Z" fill="white"></path>
<path d="M76 114.5C89 106 105.5 103 105.5 103L96 114.5C96 114.5 94.5 107 85 112C75.5 117 70 130.5 70 130.5L62 149C62 149 66.8 135 58 135C49.2 135 47 158 47 158L17.5 180.5C17.5 180.5 38.5 160 47 142.5C55.5 125 63 123 76 114.5Z" fill="black"></path>
</svg>