<svg height="100%" viewBox="0 0 200 200" width="100%" xmlns="http://www.w3.org/2000/svg">
<path d="M134.746 146.204C137.699 138.451 142.896 118.637 142.896 118.637C142.896 118.637 134.171 123.988 131.185 109.454C128.199 94.9206 147.134 77.8551 147.134 77.8551L119.928 95.4153C119.928 95.4153 129.007 100.524 121.563 116.477C115.404 129.677 107.616 137.461 105.111 139.754C104.589 140.2 104.296 140.472 104.296 140.472C104.296 140.472 104.589 140.233 105.111 139.754C108.712 136.68 123.23 125.334 128.03 137.786C133.234 151.283 114.439 176.186 112.416 178.806C112.302 178.954 112.242 179.031 112.242 179.031C112.242 179.031 112.302 178.954 112.416 178.806C114.362 176.299 131.958 153.526 134.746 146.204Z" fill="#3E3E60"></path>
<path d="M104.38 105.987C113.993 98.0099 125.704 93.7304 125.704 93.7304C125.704 93.7304 116.133 97.3621 109.179 103.956C102.225 110.549 93.4568 123.898 96.0897 136.798C98.7227 149.699 86.9912 158.186 82.025 164.337C77.0589 170.488 56.5815 183.016 56.5815 183.016C56.5815 183.016 84.6918 164.807 87.7638 147.715C90.8359 130.622 94.7666 113.964 104.38 105.987Z" fill="#3E3E60"></path>
<path d="M75.5476 72.198C85.1895 94.2923 126.924 88.7528 126.924 88.7528L104.62 99.6519C94.1652 96.8395 85.6214 85.9089 68.9943 88.7027C52.3672 91.4965 36.8438 112.239 36.8438 112.239L50.4843 89.2371C50.4843 89.2371 40.8688 84.606 33.468 79.7296C26.0671 74.8532 17.2665 62.0008 17.2665 62.0008C17.2665 62.0008 39.9643 79.1638 51.7523 80.5321C63.5403 81.9005 75.5476 72.198 75.5476 72.198Z" fill="#3E3E60"></path>
<path d="M190.5 55.5005C198.207 48.7743 190.5 52 184.5 52.0005C178.5 52.001 175.411 50.3592 166 56.0005C156.589 61.6417 156.95 70.0894 145 79.0005C133.05 87.9115 120.68 74.6028 107.393 85.0004C94.1048 95.398 76.9621 117.56 76.9621 117.56L61.712 156.825L84.7755 129.35C84.7755 129.35 84.4638 112.245 96.1289 109.139C107.794 106.033 123.307 106.851 129.825 104.437C145.195 98.7451 153.506 78.4612 166.5 69.5C175.225 63.4827 182.793 62.2267 190.5 55.5005Z" fill="black"></path>
<path d="M79.8852 124.445L78.6438 128.959L76.9146 130.713L78.394 123.904L81.2059 119.167L81.0472 120.697L84.0039 118.296L79.8852 124.445Z" fill="white"></path>
<path d="M177.223 58.9251L181.904 58.9359L184.057 57.739L177.1 57.3434L171.783 58.786L173.301 59.0426L170.196 61.2493L177.223 58.9251Z" fill="white"></path>
<path d="M172.836 62.0692L175.506 61.2117L176.512 60.1322L172.474 61.1904L169.71 62.9936L170.622 62.8598L169.26 64.6904L172.836 62.0692Z" fill="white"></path>
<path d="M56.2999 23.5867C66.5803 27.2922 91.2389 40.1067 91.2389 40.1067C91.2389 40.1067 79.5456 47.0714 92.9586 66.1526C106.372 85.2338 137.551 75.6796 137.551 75.6796L100.159 96.5074C100.159 96.5074 100.964 78.3657 78.8692 72.6901C60.5877 67.994 46.9499 71.1442 42.7871 72.3713C41.9534 72.6602 41.4628 72.7996 41.4628 72.7996C41.4628 72.7996 41.9189 72.6273 42.7871 72.3713C48.5348 70.3797 70.5904 61.2808 60.64 41.7394C49.8547 20.5583 10.4316 21.9184 6.2522 22.124C6.01661 22.1366 5.89282 22.1436 5.89282 22.1436C5.89282 22.1436 6.01644 22.1356 6.2522 22.124C10.2582 21.9107 46.5905 20.087 56.2999 23.5867Z" fill="black"></path>
<path d="M72.4318 38.8955L78.9235 43.2427L83.0223 43.5733L73.725 36.5849L65.005 33.6679L66.8754 35.4287L60.5207 35.6205L72.4318 38.8955Z" fill="white"></path>
<path d="M73.5909 83.5665L79.7483 85.1821L82.9922 84.3434L73.9703 81.4426L66.4786 81.5225L68.3883 82.3793L63.547 84.2218L73.5909 83.5665Z" fill="white"></path>
<path d="M77.5133 99.3432C91.6027 92.8058 108.363 92.2154 108.363 92.2154L97.3044 102.226C97.3044 102.226 96.9011 94.5881 86.7796 98.1666C76.6581 101.745 69.2697 114.311 69.2697 114.311L58.6867 131.465C58.6867 131.465 65.4545 118.303 56.7464 117.035C48.0383 115.766 42.5461 138.209 42.5461 138.209L10.111 156.222C10.111 156.222 33.8466 138.963 44.7802 122.871C55.7139 106.779 63.4238 105.881 77.5133 99.3432Z" fill="black"></path>
<path d="M144.574 110.716L142.015 92.0643L134.613 98.2978C134.613 98.2978 141.303 102.522 138.613 109.848C135.922 117.174 127.999 126.987 120.033 131.514C112.068 136.04 78.8069 127.54 66.7433 135.125C54.6797 142.711 38.3855 159.835 38.3855 159.835C38.3855 159.835 57.5777 142.321 69.6829 140.022C81.7882 137.723 114.569 135.592 119.686 133.9C124.803 132.209 144.574 110.716 144.574 110.716Z" fill="black"></path>
<path d="M118.106 118.988L115.546 100.336L108.144 106.569C108.144 106.569 114.835 110.793 112.144 118.119C109.453 125.445 101.53 135.258 93.5648 139.785C85.5997 144.312 80.5349 146.1 68.4713 153.686C56.4077 161.271 40.1136 178.396 40.1136 178.396C40.1136 178.396 59.3057 160.881 71.411 158.582C86.6762 155.683 108.24 129.712 118.106 118.988Z" fill="black"></path>
<defs></defs>
</svg>