<svg height="100%" viewBox="0 0 200 200" width="100%" xmlns="http://www.w3.org/2000/svg">
<path d="M90.8597 56.2893C75.4983 68.2371 62.3964 89.1998 60.0104 104.948C57.6244 120.695 66.6343 129.99 66.6343 129.99L41 140.477C41 140.477 53.3865 150.381 60.0104 150.381C66.6343 150.381 81.1992 145.138 81.1992 145.138L83.5296 150.381L93.4337 148.051L78.2862 129.99C78.2862 129.99 84.151 128.356 102.173 119.504C126.495 107.556 127.807 94.6537 134.931 92.063C142.055 89.4724 150.172 85.7321 155.719 79.7582C161.266 73.7843 160.301 53.0876 148.78 53.0876C137.259 53.0876 106.221 44.3416 90.8597 56.2893Z" fill="black"></path>
<path d="M110.088 85.9786C110.088 85.9786 116.215 74.5797 123.449 73.5714C123.449 73.5714 122.972 77.389 126.312 77.389C129.653 77.389 129.653 73.5714 129.653 73.5714C134.33 75.3117 135.071 81.37 135.071 81.37C135.071 81.37 129.176 87.8874 122.972 88.8418C116.768 89.7962 111.996 87.4102 111.996 87.4102C111.996 87.4102 109.133 87.4103 110.565 91.7051C111.996 96 111.042 96.9543 110.088 96.4771C109.133 95.9999 110.088 85.9786 110.088 85.9786Z" fill="white"></path>
<path d="M61.1957 142.746C61.1957 142.746 63.6748 138.134 66.6015 137.726C66.6015 137.726 66.4085 139.271 67.7599 139.271C69.1113 139.271 69.1113 137.726 69.1113 137.726C71.0037 138.43 71.3034 140.881 71.3034 140.881C71.3034 140.881 68.9183 143.518 66.4084 143.904C63.8986 144.29 61.968 143.325 61.968 143.325C61.968 143.325 60.8096 143.325 61.3888 145.063C61.968 146.8 61.5818 147.186 61.1957 146.993C60.8096 146.8 61.1957 142.746 61.1957 142.746Z" fill="white"></path>
</svg>