<svg height="100%" viewbox="0 0 200 200" width="100%" xmlns="http://www.w3.org/2000/svg">
<path d="M52.7488 108.649C40.261 131.453 18 122.223 18 122.223L36.4603 130.367L28.859 136.34C28.859 136.34 40.8039 142.312 53.8347 141.226C66.8656 140.14 78.2675 130.367 78.2675 130.367L70.1233 146.113C70.1233 146.113 82.0682 150.999 90.2124 146.113C98.3567 141.226 101.071 130.367 101.071 130.367H133.106C133.106 130.367 135.82 136.883 144.507 141.226C153.195 145.57 159.71 143.398 159.71 143.398L152.109 128.195L165.683 126.024C165.683 126.024 179.799 111.907 181.428 103.22C183.057 94.5326 156.452 76.0722 156.452 76.0722C156.452 76.0722 137.449 34.8079 96.1849 58.1548C54.9206 81.5017 65.2367 85.8453 52.7488 108.649Z" fill="black"></path>
<path d="M122.467 105.967C122.467 105.967 130.871 94.7036 138.802 94.7773C138.802 94.7773 137.679 98.8014 141.267 99.3355C144.855 99.8696 145.465 95.7692 145.465 95.7692C150.21 98.3863 150.037 105.012 150.037 105.012C150.037 105.012 142.663 111.069 135.848 111.102C129.032 111.136 124.288 107.81 124.288 107.81C124.288 107.81 121.213 107.352 122.064 112.194C122.915 117.036 121.737 117.908 120.788 117.243C119.839 116.578 122.467 105.967 122.467 105.967Z" fill="white"></path>
<path d="M111.418 61.6162C111.418 61.6162 116.682 54.5612 121.649 54.6073C121.649 54.6073 120.946 57.1279 123.193 57.4624C125.44 57.797 125.823 55.2286 125.823 55.2286C128.795 56.8678 128.687 61.0178 128.687 61.0178C128.687 61.0178 124.068 64.812 119.799 64.8328C115.53 64.8536 112.558 62.7705 112.558 62.7705C112.558 62.7705 110.632 62.4838 111.165 65.5165C111.698 68.5492 110.96 69.0957 110.366 68.6791C109.772 68.2624 111.418 61.6162 111.418 61.6162Z" fill="white"></path>
<path d="M44.0915 128.942C44.0915 128.942 49.3555 121.887 54.3231 121.933C54.3231 121.933 53.6198 124.454 55.867 124.788C58.1143 125.123 58.4967 122.555 58.4967 122.555C61.4691 124.194 61.3607 128.344 61.3607 128.344C61.3607 128.344 56.7419 132.138 52.4728 132.159C48.2037 132.18 45.2322 130.096 45.2322 130.096C45.2322 130.096 43.306 129.81 43.839 132.842C44.372 135.875 43.6343 136.422 43.04 136.005C42.4458 135.588 44.0915 128.942 44.0915 128.942Z" fill="white"></path>
</svg>