<svg height="100%" viewbox="0 0 200 200" width="100%" xmlns="http://www.w3.org/2000/svg">
<path d="M2.25468 135.024C15.1166 140.167 34.5908 131.631 45.5001 125C56.5997 118.253 84.0001 88 84.0001 88L58.0001 92.5L41.0001 83.5L65.5001 78L93.0001 78L70.5001 64.5L58.0001 48.5L79.5001 54L113.287 78L130.363 85.6859C130.363 85.6859 127.17 46.4987 134.329 34.4917C141.489 22.4847 156.402 22.1538 165.152 27.5466C173.901 32.9393 183.399 46.5201 183.399 46.5201C183.399 46.5201 174.795 54.0148 162.282 58.2546C149.769 62.4944 153.865 107.31 150.679 117.626C147.494 127.943 130.754 134.468 130.754 134.468L158.239 166.474C158.239 166.474 136.621 168.39 128.184 165.093C119.746 161.796 113.287 138.098 113.287 138.098L83.5332 140.817C83.5332 140.817 81.9335 151.134 74.7837 156.364C67.634 161.594 37.977 177.465 37.977 177.465L62.3524 142.753C62.3524 142.753 49.1631 147.518 37.152 149.633C25.1408 151.748 13.5391 147.214 13.5391 147.214L20.0924 141.022L2.25468 135.024Z" fill="black"></path>
<path d="M87.9036 98.1006C87.9036 98.1006 94.7534 86.9254 102.126 86.3206C102.126 86.3206 101.425 90.1536 104.803 90.3451C108.18 90.5367 108.399 86.6763 108.399 86.6763C113.029 88.7043 113.431 94.8728 113.431 94.8728C113.431 94.8728 107.096 101.125 100.768 101.735C94.4403 102.344 89.7517 99.6576 89.7517 99.6576C89.7517 99.6576 86.8564 99.4935 88.0578 103.919C89.2592 108.343 88.2394 109.254 87.3017 108.717C86.3639 108.179 87.9036 98.1006 87.9036 98.1006Z" fill="white"></path>
<path d="M129.579 150.945C129.579 150.945 138.306 149.186 142.016 152.575C142.016 152.575 139.785 153.998 141.251 155.767C142.718 157.536 144.74 155.86 144.74 155.86C145.871 159.102 142.988 162.154 142.988 162.154C142.988 162.154 136.948 161.893 133.719 159.026C130.49 156.16 129.658 152.585 129.658 152.585C129.658 152.585 128.401 151.068 126.755 153.712C125.109 156.356 124.185 156.269 124.018 155.554C123.852 154.839 129.579 150.945 129.579 150.945Z" fill="white"></path>
<path d="M150.893 52.164C150.893 52.164 155.184 45.1643 159.802 44.7855C159.802 44.7855 159.362 47.1863 161.478 47.3063C163.594 47.4263 163.731 45.0083 163.731 45.0083C166.631 46.2785 166.883 50.1423 166.883 50.1423C166.883 50.1423 162.915 54.0585 158.951 54.4402C154.988 54.8219 152.051 53.1393 152.051 53.1393C152.051 53.1393 150.237 53.0365 150.99 55.8081C151.742 58.5798 151.104 59.15 150.516 58.8134C149.929 58.4769 150.893 52.164 150.893 52.164Z" fill="white"></path>
<path d="M30.4871 144.33C30.4871 144.33 34.7776 137.331 39.3956 136.952C39.3956 136.952 38.9562 139.353 41.0719 139.473C43.1877 139.593 43.3248 137.175 43.3248 137.175C46.2248 138.445 46.4764 142.309 46.4764 142.309C46.4764 142.309 42.5084 146.225 38.5449 146.606C34.5814 146.988 31.6447 145.306 31.6447 145.306C31.6447 145.306 29.8312 145.203 30.5837 147.974C31.3362 150.746 30.6974 151.316 30.1101 150.98C29.5227 150.643 30.4871 144.33 30.4871 144.33Z" fill="white"></path>
<defs></defs>
</svg>