<svg height="100%" viewBox="0 0 200 200" width="100%" xmlns="http://www.w3.org/2000/svg">
<path d="M98.5 51.4993C71 67.4986 69 94 61 102C53 110 38.5665 125.203 26 108.303C35.5684 140.949 71.4196 156.405 102.9 140.941C128.384 128.422 121.231 100.703 131.067 97.126C140.903 93.5493 161.469 90.8668 167.281 84.6074C173.093 78.3481 179.353 55.5464 167.281 55.5464C155.21 55.5464 126 35.5 98.5 51.4993Z" fill="black"></path>
<path d="M114.5 79.4999C114.5 79.4999 120.92 67.5564 128.5 66.4999C128.5 66.4999 128 70.4999 131.5 70.4999C135 70.4999 135 66.4999 135 66.4999C139.901 68.3234 140.677 74.6711 140.677 74.6711C140.677 74.6711 134.5 81.4999 128 82.4999C121.5 83.4999 116.5 80.9999 116.5 80.9999C116.5 80.9999 113.5 80.9999 115 85.5C116.5 90 115.5 90.9999 114.5 90.4999C113.5 89.9999 114.5 79.4999 114.5 79.4999Z" fill="white"></path>
</svg>