<svg height="100%" viewBox="0 0 200 200" width="100%" xmlns="http://www.w3.org/2000/svg">
<path d="M59.3172 115.904C64.697 115.514 81.605 125.272 81.605 125.272L84.2949 128.395L83.1421 133.469C83.1421 133.469 79.6837 137.762 77.3781 139.324C75.0724 140.885 70.0767 139.324 67.0026 139.324C63.9284 139.324 59.3172 145.959 59.3172 145.959C59.3172 145.959 59.3172 148.301 64.697 149.863C70.0767 151.424 84.679 148.692 90.0588 149.863C95.4386 151.034 103.893 162.353 103.893 162.353C103.893 162.353 95.0543 155.718 90.0588 155.718C85.0633 155.718 77.7622 160.792 73.5352 162.353C69.3082 163.915 44.7149 162.353 42.4093 160.792C40.1036 159.231 36.6452 141.666 37.0295 139.324C37.4137 136.982 53.9374 116.294 59.3172 115.904Z" fill="black"></path>
<path d="M69.308 135.521L79.6766 131.067L75.9084 131.644L71.93 133.527L67.8817 132.422C67.8817 132.422 66.496 131.737 64.782 130.206C63.068 128.675 65.8393 130.044 65.8393 130.044C65.8393 130.044 64.9055 128.214 65.7369 128.625C66.5683 129.036 68.1694 130.854 68.1694 130.854L69.668 131.252L70.9513 130.518L70.9676 128.928L69.9329 128.226C69.9329 128.226 69.2229 127.962 68.1656 128.124C67.1083 128.285 67.2348 127.165 67.2348 127.165C67.2348 127.165 70.4454 126.937 71.2113 127.395C71.9772 127.853 73.7424 128.935 73.7424 128.935C73.7424 128.935 71.6229 123.694 66.1227 126.809C60.6225 129.924 56.8687 124.243 56.8687 124.243C56.8687 124.243 58.0682 127.917 63.6109 130.656C69.1535 133.395 69.308 135.521 69.308 135.521Z" fill="white"></path>
<path d="M134.077 122.018C132.664 126.257 130.118 140.462 130.309 141.231C130.5 142 131.087 142.544 132.5 143.587C132.5 143.587 132.355 144.529 130 144.529C127.645 144.529 126.54 143.587 126.54 143.587C125.208 140.923 123.717 135.845 122.948 133.693C120.432 133.693 119.464 133.937 117 134.5C116.5 141.231 109.163 143.558 109.582 144.529C110 145.5 111.5 145.5 112.5 146.5C113.5 147.5 106.719 148.398 102.515 147.826C98.3122 147.255 90.2314 145 85.5207 140.39C80.81 135.779 76.08 121.809 81.281 114.952C87.7183 106.464 94.7971 101.624 100 92.001C102.485 87.4057 102.986 76.501 102.986 76.501L123.453 69.2568L135.491 80.5626C135.491 80.5626 132.055 85.2585 132.144 93.0963C132.225 100.227 136.081 116.008 134.077 122.018Z" fill="black"></path>
<path d="M140 108.5C138.686 108.929 131.796 112.887 131.796 112.887L128 120.893L133.471 121.757C133.471 121.757 139.196 113.119 140.608 112.069C142.02 111.019 145 110.131 145 109.5C145 108.87 141.314 108.071 140 108.5Z" fill="black"></path>
<path d="M145.859 103.565L146.592 101.799L145.95 100.008L145.001 98.5606L144.206 96.9413L140 94.4677L142.168 96.5401L142.336 98.6889L141.188 101.101L140.741 103.938L143.486 104.844L144.02 103.121L143.832 102.332L143.356 103.173L142.223 103.406L141.793 101.967L143.1 100.626L143.608 98.4484L145.82 101.984L144.562 104.587L145.859 103.565Z" fill="black"></path>
<path d="M131.495 50.2006C123.777 47.2842 116.973 49.0224 111.858 51.8058C106.743 54.5893 103.505 67.2692 103.745 70.2057C103.985 73.1422 104.318 83.7568 107.164 85.8892C110.01 88.0215 124.918 87.3939 127.62 87.7644C130.322 88.1348 141.062 86.5972 148.031 82.5486C155 78.5 162.222 66.608 160.92 63.7583C159.619 60.9086 155.349 62.8408 151.5 61.5C147.65 60.1592 139.214 53.117 131.495 50.2006Z" fill="black"></path>
<path d="M143.026 65.751C146 65.751 152.5 66.501 152.5 70.001C152.5 73.501 146.731 81.5023 138.915 80.5359C131.098 79.5694 123.506 63.6006 123.506 63.6006C123.506 63.6006 128.09 66.4367 131.496 66.6934C134.903 66.9501 140.052 65.751 143.026 65.751Z" fill="#3E3E60"></path>
<path d="M140.47 78.4293L150.482 72.6261L146.749 73.5777L142.923 75.9976L138.755 75.101C138.755 75.101 137.301 74.4536 135.44 72.8922C133.579 71.3309 136.487 72.6257 136.487 72.6257C136.487 72.6257 135.383 70.6683 136.256 71.0568C137.128 71.4452 138.902 73.3341 138.902 73.3341L140.444 73.654L141.666 72.7325L141.538 70.9638L140.435 70.2681C140.435 70.2681 139.697 70.033 138.65 70.2995C137.602 70.5661 137.628 69.3104 137.628 69.3104C137.628 69.3104 140.832 68.7935 141.644 69.2397C142.455 69.6859 144.326 70.7435 144.326 70.7435C144.326 70.7435 141.721 65.0911 136.478 69.0056C131.236 72.9201 126.948 66.9133 126.948 66.9133C126.948 66.9133 128.487 70.8991 134.304 73.4887C140.121 76.0784 140.47 78.4293 140.47 78.4293Z" fill="white"></path>
<path d="M104.409 47.7669C114.155 49.3352 121.582 55.2315 121.582 55.2315L118.734 59.6028C118.734 59.6028 108.359 63.407 99.4328 65.3191C90.5063 67.2313 72.5146 56.2863 72.5146 56.2863C72.5146 56.2863 94.6641 46.1986 104.409 47.7669Z" fill="black"></path>
<path d="M116.624 53.9746L122.945 54.2557L124.266 58.035C124.266 58.035 119.106 65.923 114.493 72.1442C109.881 78.3654 89.5519 88.1719 89.5519 88.1719C89.5519 88.1719 95.1832 71.9243 97.8176 66.517C100.452 61.1098 108.913 56.1871 108.913 56.1871L116.624 53.9746Z" fill="black"></path>
</svg>