<svg height="100%" viewbox="0 0 200 200" width="100%" xmlns="http://www.w3.org/2000/svg">
<path d="M99.3231 60.0171C83.2278 72.5357 83.6749 103.385 71.6034 115.457C54.839 132.221 38.5665 125.203 26 108.303C35.5684 140.948 71.4196 156.405 102.9 140.941C128.384 128.422 121.231 100.703 131.067 97.1258C140.903 93.5491 161.469 85.2592 167.281 78.9999C173.093 72.7406 177.5 50 167.281 55.5462C157.062 61.0924 115.418 47.4985 99.3231 60.0171Z" fill="black"></path>
<path d="M111.963 72.3342C111.963 72.3342 116.576 65.7846 124.155 64.7281C131.735 63.6717 139.677 67.171 139.677 67.171L125.795 73.2888L111.963 72.3342Z" fill="white"></path>
</svg>