<svg height="100%" viewBox="0 0 200 200" width="100%" xmlns="http://www.w3.org/2000/svg">
<path d="M98.8789 61.7833C83.3201 73.8846 83.7523 103.706 72.0832 115.375C55.8776 131.58 49.5 131.5 27.5 119.5C51 140.009 71.9055 154.958 102.336 140.009C126.971 127.908 120.056 101.113 129.564 97.655C139.072 94.1975 150.882 92.5507 156.5 86.5C162.118 80.4493 176.241 57.4615 164.572 57.4614C152.903 57.4614 114.438 49.6821 98.8789 61.7833Z" fill="black"></path>
<path d="M120.672 66.1845C118.384 67.9275 115.639 73.7823 115.639 73.7823C115.639 73.7823 119.327 69.931 123.349 67.2934C127.37 64.6557 133.577 64.8436 135.78 62.9897C137.983 61.1357 132.822 58.3828 132.822 58.3828C132.822 58.3828 135.377 60.9013 133.366 62.2201C131.356 63.5389 122.961 64.4416 120.672 66.1845Z" fill="white"></path>
<path d="M118.387 71.8322C117.348 68.4511 119.437 66.3471 126.262 65.1717C133.086 63.9963 142.586 63.0734 142.536 68.3057C142.509 71.1384 141.638 70.8308 139.896 70.2157C138.621 69.7654 136.88 69.1502 134.661 69.4815C134.29 69.5369 133.897 69.6169 133.485 69.7165C132.902 67.5705 130.359 65.9553 127.312 65.9553C123.833 65.9553 121.012 68.0602 121.012 70.6568C121.012 71.6109 121.393 72.4987 122.047 73.24C120.2 73.5109 118.816 73.2287 118.387 71.8322Z" fill="white"></path>
<path d="M139.757 62.8168C140.364 62.1074 139.07 61.3064 139.07 61.3064C139.07 61.3064 139.195 61.9522 138.882 62.4295C138.568 62.9068 137.814 63.2157 137.814 63.2157C137.814 63.2157 139.151 63.5263 139.757 62.8168Z" fill="white"></path>
<path d="M141.358 71.8959C141.358 71.8959 135.581 70.8074 132.778 71.48C129.976 72.1527 125.649 73.7987 123.112 76.5341C123.112 76.5341 129.256 72.8357 132.696 71.905C136.135 70.9743 141.358 71.8959 141.358 71.8959Z" fill="white"></path>
</svg>