<svg height="100%" viewbox="0 0 200 200" width="100%" xmlns="http://www.w3.org/2000/svg">
<path d="M99.4582 59.2224C82.8942 72.1055 89.923 91.5778 77.5 104.001C60.2474 121.253 45 113.5 37.5 104.001C44 142.502 89 151.5 108.5 138.5C128 125.5 129.5 100.5 135 97C140.5 93.5 157.519 89.3501 163.5 82.9085C169.481 76.467 175.923 53.0013 163.5 53.0013C151.077 53.0013 116.022 46.3393 99.4582 59.2224Z" fill="black"></path>
<path clip-rule="evenodd" d="M123.844 81.7673C130.197 81.7673 135.347 76.6173 135.347 70.2645C135.347 63.9117 130.197 58.7617 123.844 58.7617C117.491 58.7617 112.341 63.9117 112.341 70.2645C112.341 76.6173 117.491 81.7673 123.844 81.7673ZM123.844 76.2458C127.148 76.2458 129.826 73.5679 129.826 70.2644C129.826 66.9609 127.148 64.283 123.844 64.283C120.541 64.283 117.863 66.9609 117.863 70.2644C117.863 73.5679 120.541 76.2458 123.844 76.2458Z" fill="white" fill-rule="evenodd"></path>
</svg>