<svg height="100%" viewbox="0 0 200 200" width="100%" xmlns="http://www.w3.org/2000/svg">
<path d="M68.5 141.5C51 135.29 38.5 104.5 38.5 104.5C38.5 104.5 51.5 114.5 60 113C68.5 111.5 76.5 108.5 84 99.4998C91.5 90.4999 98 78.9996 103 73.4999C108 68.0003 121 60.8735 134 62.4992C147 64.125 151.5 69.6562 158 72.5C164.5 75.3438 171 75.4999 170.5 81.4999C170 87.4999 159.5 92.9999 151 95.9999C142.5 98.9999 137 98.8329 129.5 105.5C122 112.166 121.5 126.5 110 136.5C98.5 146.5 86 147.709 68.5 141.5Z" fill="black"></path>
<path d="M138.996 92.0013L152.527 86.2162L147.687 87.1477L142.483 89.5629L137.413 88.6223C137.413 88.6223 135.7 87.9558 133.633 86.3619C131.566 84.768 134.991 86.101 134.991 86.101C134.991 86.101 133.939 84.113 134.967 84.5129C135.994 84.9128 137.896 86.837 137.896 86.837L139.774 87.1731L141.462 86.2515L141.602 84.4622L140.337 83.7498C140.337 83.7498 139.453 83.506 138.095 83.7669C136.737 84.0278 136.982 82.7585 136.982 82.7585C136.982 82.7585 141.086 82.2622 142.026 82.72C142.967 83.1778 145.133 84.2624 145.133 84.2624C145.133 84.2624 142.827 78.5262 135.593 82.4409C128.36 86.3555 124.006 80.2473 124.006 80.2473C124.006 80.2473 125.258 84.2897 132.109 86.9557C138.959 89.6216 138.996 92.0013 138.996 92.0013Z" fill="white"></path>
</svg>