<svg height="100%" viewBox="0 0 200 200" width="100%" xmlns="http://www.w3.org/2000/svg">
<path d="M152 43C145.752 40.3221 140.415 39.5827 135.952 41.3682C131.489 43.1538 127.919 52.5263 127.918 54.7579C127.918 56.9895 127.472 65.0232 129.704 66.8085C131.935 68.5939 141 71 146.5 71C151.888 71 180.139 63.4627 176.121 53.4189C175.228 51.1873 171.124 52.7501 168 51.5003C164.876 50.2505 158.248 45.6779 152 43Z" fill="black"></path>
<path d="M159.846 56.2302C163.415 56.8674 171 58.779 171 58.779C164.856 62.5082 162.077 65.7881 154.938 64.8323C147.8 63.8766 142 54 142 54C142 54 146.015 55.9116 149.138 56.2302C152.262 56.5488 156.277 55.593 159.846 56.2302Z" fill="#3E3E60"></path>
<path d="M158.141 64.1475L167.341 60.2155L164.054 60.8567L160.514 62.4969L157.076 61.8796C157.076 61.8796 155.916 61.4365 154.518 60.3707C153.12 59.305 155.441 60.1911 155.441 60.1911C155.441 60.1911 154.733 58.8572 155.429 59.123C156.125 59.3889 157.41 60.6774 157.41 60.6774L158.683 60.8977L159.832 60.2727L159.932 59.0688L159.076 58.5935C159.076 58.5935 158.477 58.4322 157.555 58.6118C156.632 58.7914 156.802 57.9369 156.802 57.9369C156.802 57.9369 159.589 57.5906 160.225 57.8957C160.862 58.2008 162.329 58.9237 162.329 58.9237C162.329 58.9237 160.782 55.0725 155.861 57.7275C150.94 60.3824 148.004 56.2873 148.004 56.2873C148.004 56.2873 148.842 59.0024 153.482 60.7747C158.123 62.5471 158.141 64.1475 158.141 64.1475Z" fill="white"></path>
<path d="M146.217 127.062C146.217 127.062 155.59 113.216 155.59 109.21C155.59 107.191 154.684 103.014 153.778 98.8418C152.887 94.734 151.996 90.631 151.973 88.598C151.889 81.1721 153.464 74.5119 156.284 67.702L143.5 60L128.364 63.2372C129.578 71.124 128.443 81.6151 124.347 88.598C123.275 90.4256 120.199 93.8712 116 96.5C111.801 99.1288 105.766 100.609 102.346 105.119C97.4179 111.617 98.5639 127.79 105.886 132.705C110.312 135.676 116.951 136.525 121.377 135.677C125.803 134.828 131.556 131.008 131.556 131.008L132.733 128.501C135.335 127.799 138.351 127.062 139.523 127.062H146.217Z" fill="black"></path>
<path d="M157.376 115.011C158.715 110.994 153.5 99.5 153.5 99.5L150.235 100.729C150.235 100.729 141.308 110.994 141.308 113.672C141.308 119.407 142.849 131.349 147.5 136C148.5 137 149.768 137.5 152 137.5C152 137.5 150 136 150.235 133C150.469 130 156.037 119.028 157.376 115.011Z" fill="black"></path>
<path d="M159.462 101.176C158.231 101.804 151.5 106.5 151.5 106.5L149 115H154.538C154.538 115 158.846 105.575 160.077 104.318C161.308 103.06 165 101.804 165 101.804C165 101.804 160.692 100.548 159.462 101.176Z" fill="black"></path>
<path d="M164.778 97.587L167 93.7609L165 89.5L163 82.9783L159.222 78L161.444 84.5L159.222 90.618L157 96.6304L161.444 98.5435L162.5 94L162 91.5L161 96.6304L159.5 94L160.5 91L162.556 87.5L164.5 93L162.556 99.5L164.778 97.587Z" fill="black"></path>
<path d="M137.291 114.119C136.399 109.656 129.257 103.854 129.257 103.854L113.636 122.599C113.636 122.599 114.529 129.74 115.868 132.418C117.207 135.096 123.902 140.452 123.902 140.452C123.902 140.452 127.026 141.345 130.596 140.898C134.167 140.452 135.952 140.006 135.952 140.006C135.952 140.006 134 140.006 132.5 139C131 137.994 130.596 137.328 130.596 137.328C130.596 137.328 134.613 132.864 135.952 128.848C137.291 124.831 138.184 118.582 137.291 114.119Z" fill="black"></path>
<path d="M126.817 37.3868C136.248 39.5397 143.059 45.4602 143.059 45.4602L139.915 49.2277C139.915 49.2277 129.437 51.9188 120.53 52.9953C111.623 54.0717 94.8564 42.7691 94.8564 42.7691C94.8564 42.7691 117.386 35.234 126.817 37.3868Z" fill="black"></path>
<path d="M136.688 54.8627L142.795 55.9826L143.456 59.338C143.456 59.338 137.127 65.2336 131.608 69.8076C126.088 74.3816 104.675 79.7652 104.675 79.7652C104.675 79.7652 112.845 66.9223 116.304 62.7545C119.764 58.5867 128.815 55.6403 128.815 55.6403L136.688 54.8627Z" fill="black"></path>
<path d="M46 110L58 83L93 92C93 92 93.5597 104.619 96.5 110.5C97.719 112.938 100.5 115.5 104 116L106 119L103.5 122.5C97.2323 123.753 93.6603 130.651 86.5 130C81 129.5 63 120.5 63 120.5L46 110Z" fill="black"></path>
<path d="M62.3698 77.3409C71.8672 76.5737 79.8932 77.3409 79.8932 77.3409L86.5 83L93.9112 84.9598L96 93.5L93.9112 101.951L90.5129 94.7299H83.2915L80.7427 102.376L76.0701 96.4291L67.9991 99.4026L62.3698 109.598L60.3528 101.951L52.7066 98.1282L54.4058 110.447L62.9016 118.943L67.1495 119.792L71.8222 115.544V121.491L76.4948 124.04L79.8932 123.616L77.7692 127.014L74.3709 128.288L68.8486 125.739L62.3698 136.421C62.3698 136.421 70.5736 149.092 80.071 152.161C89.5685 155.23 115.347 149.859 124.845 152.161C134.342 154.463 149.267 176.714 149.267 176.714C149.267 176.714 133.664 163.67 124.845 163.67C116.026 163.67 103.136 173.645 95.6739 176.714C88.2117 179.783 44.7949 176.714 40.7246 173.645C36.6542 170.576 22.3449 127.981 23.0233 123.377C23.7017 118.773 52.8724 78.1082 62.3698 77.3409Z" fill="#3E3E60"></path>
<path d="M64.0852 96.7443L69.6107 89.9833L67.1002 91.6139L65.0639 94.3461L61.5337 94.7275C61.5337 94.7275 60.1776 94.6149 58.17 93.9325C56.1623 93.25 58.8746 93.4753 58.8746 93.4753C58.8746 93.4753 57.3004 92.3131 58.1141 92.3807C58.9278 92.4483 60.9899 93.3931 60.9899 93.3931L62.2916 93.2433L62.8872 92.2614L62.132 90.9942L61.0272 90.7585C61.0272 90.7585 60.3743 90.7698 59.6697 91.227C58.965 91.6842 58.5181 90.7555 58.5181 90.7555C58.5181 90.7555 60.7847 89.5761 61.5727 89.7015C62.3606 89.8268 64.1893 90.1366 64.1893 90.1366C64.1893 90.1366 60.0911 86.6349 57.523 90.8185C54.9548 95.0021 49.4348 91.6599 49.4348 91.6599C49.4348 91.6599 52.0957 94.2036 57.5203 94.654C62.9448 95.1045 64.0852 96.7443 64.0852 96.7443Z" fill="white"></path>
<path d="M83.6883 119.659L92.2982 118.205L89.3348 117.78L86.0036 118.497L83.0946 116.461C83.0946 116.461 82.1477 115.484 81.0852 113.649C80.0228 111.814 81.9167 113.768 81.9167 113.768C81.9167 113.768 81.4963 111.857 82.0644 112.444C82.6326 113.03 83.5634 115.098 83.5634 115.098L84.642 115.842L85.7367 115.495L86.0021 114.044L85.3254 113.139C85.3254 113.139 84.8264 112.718 83.9949 112.599C83.1635 112.479 83.4382 111.486 83.4382 111.486C83.4382 111.486 85.9209 112.09 86.4317 112.703C86.9425 113.315 88.1154 114.752 88.1154 114.752C88.1154 114.752 87.3344 109.419 82.6475 110.878C77.9606 112.338 76.004 106.189 76.004 106.189C76.004 106.189 76.3335 109.855 80.1212 113.764C83.909 117.674 83.6883 119.659 83.6883 119.659Z" fill="white"></path>
</svg>