<svg height="100%" viewbox="0 0 200 200" width="100%" xmlns="http://www.w3.org/2000/svg">
<path d="M50 94.9551L49 120.455C49 120.455 61 124.455 66.5 140.955C72 157.455 85 170.455 85 170.455V172.955C85 172.955 64 163.455 60 161.455C44.4452 153.678 39.5 135.955 39 125.955L27.5 120.455L18.5 94.4551L32 63.4551L42.5 86.4551L50 94.9551Z" fill="black"></path>
<path d="M54.5 39.9549C48.5 51.4549 45 68.9549 46.5 74.9549C48 80.9549 56 91.4549 56 91.4549L54.5 102.955V110.455L57.5 114.955L50 120.955L44 119.955L46.5 114.955L41.5 108.455L37 109.455L39.5 104.955L34 101.455L39 83.9549L30 92.9549L26 104.455L27 110.455L32.5 110.955L29 113.955L33 118.455L37 116.955L35 121.955L39 125.955L26 121.955C26 121.955 16 102.955 15 92.9549C14 82.9549 37.4275 18.6921 79.5 12.9549C101.5 9.9549 142 14.4549 155 20.4549C168 26.4549 177 51.5 177 51.5C177 51.5 170.5 35.5002 153 25.5C135.5 15.4998 109 11.4551 98 14.4551C87 17.4551 60.5 28.4549 54.5 39.9549Z" fill="#3E3E60"></path>
<path d="M40.0627 96.7192L42.5961 105.129L42.2872 102.218L41.213 98.9672L41.8954 96.0824C41.8954 96.0824 42.3089 95.1379 43.2225 94.0654C44.136 92.993 43.3089 94.882 43.3089 94.882C43.3089 94.882 44.3916 94.4372 44.1435 95.0039C43.8953 95.5706 42.8145 96.5181 42.8145 96.5181L42.5682 97.5876L42.9892 98.654L43.9232 98.8889L44.3442 98.2104C44.3442 98.2104 44.5051 97.7143 44.4187 96.8977C44.3322 96.0812 44.9894 96.3331 44.9894 96.3331C44.9894 96.3331 45.0973 98.7757 44.822 99.2867C44.5467 99.7976 43.8968 100.971 43.8968 100.971C43.8968 100.971 46.9936 100.114 45.2078 95.5481C43.422 90.9818 46.7902 88.959 46.7902 88.959C46.7902 88.959 44.6217 89.345 42.9675 93.123C41.3133 96.9011 40.0627 96.7192 40.0627 96.7192Z" fill="white"></path>
<path d="M48.4998 143.955L29.4998 146.455L14.4998 164.455L27 178.455C27 178.455 44.5 180.455 49.5 181.955C54.5 183.455 61.5 187.455 69 186.455C76.5 185.455 86 177.455 86 177.455V173.955C86 173.955 74 170.455 65.5 170.455C57 170.455 52.5 173.955 52.5 173.955L43.9999 158.755L41.4998 148.955L48.4998 143.955Z" fill="black"></path>
<path d="M176.5 125.455C173.9 135.019 160 157.728 147 162.455C134 167.182 71.5002 137.832 71.5002 137.832L25.8502 144.779L11.0002 165.231L25.8502 179.896H37.0001L39.0001 176.955L34.5001 178.455L32.5001 174.955L34.5001 172.455L29.0001 170.455L28.0001 165.955L32.0001 162.455L28.5001 158.455L36.0001 147.955V158.455L40.5001 162.955L39.5001 166.955L44.0001 165.955L46.5001 169.955L44.0001 174.405L49.5001 172.955L52.8002 174.405L55.5001 165.231L50.6002 159.955V152.405C50.6002 152.405 58.0001 144.779 66.0001 144.779C74.0001 144.779 102.5 153.097 113.5 158.455C124.5 163.814 144.9 181.336 153.45 179.896C162 178.455 188 143.165 190 137.832C192 132.5 179.5 75.9551 169.35 63.0994C145.944 33.4529 96.0001 75.9551 80.5001 68.4551C65.0001 60.9551 79.5001 50.2816 88.0001 47.9551C96.5001 45.6286 113.5 44.5244 113.5 44.5244C113.5 44.5244 85.5001 45.4551 78.5002 49.0249C71.5003 52.5948 64.5002 69.4551 71.5002 71.4551C97.095 78.7679 143.809 33.3021 165.5 69.4551C175.4 85.9551 179.1 115.891 176.5 125.455Z" fill="#3E3E60"></path>
<path d="M39.1712 155.524L42.6587 161.308L41.9835 159.136L40.5465 156.928L40.8031 154.477C40.8031 154.477 41.0652 153.617 41.7786 152.507C42.492 151.397 41.9678 153.117 41.9678 153.117C41.9678 153.117 42.9229 152.445 42.7656 152.96C42.6083 153.476 41.7217 154.539 41.7217 154.539L41.6328 155.446L42.1685 156.15L43.0744 156.051L43.3787 155.396C43.3787 155.396 43.4636 154.962 43.2744 154.352C43.0852 153.742 43.7341 153.741 43.7341 153.741C43.7341 153.741 44.1589 155.61 43.9688 156.09C43.7787 156.571 43.3257 157.68 43.3257 157.68C43.3257 157.68 46.1123 156.081 43.8345 153.064C41.5567 150.047 44.443 147.458 44.443 147.458C44.443 147.458 42.4633 148.411 41.4149 151.85C40.3665 155.289 39.1712 155.524 39.1712 155.524Z" fill="white"></path>
<path d="M68.2633 183.034L75.6233 178.065L72.8312 179.122L70.0267 181.153L66.8326 181.046C66.8326 181.046 65.7048 180.789 64.2326 179.979C62.7605 179.168 65.0161 179.682 65.0161 179.682C65.0161 179.682 64.1019 178.524 64.7786 178.679C65.4553 178.833 66.8741 179.869 66.8741 179.869L68.0553 179.901L68.9456 179.154L68.7788 178.007L67.9152 177.678C67.9152 177.678 67.3471 177.608 66.5636 177.905C65.7801 178.201 65.7498 177.373 65.7498 177.373C65.7498 177.373 68.1586 176.663 68.7909 176.862C69.4233 177.062 70.8836 177.54 70.8836 177.54C70.8836 177.54 68.686 174.129 64.8665 177.306C61.0469 180.483 57.5606 177.033 57.5606 177.033C57.5606 177.033 58.8841 179.473 63.3953 180.502C67.9066 181.53 68.2633 183.034 68.2633 183.034Z" fill="white"></path>
<path d="M114.153 178.423C114.153 178.423 111.442 181.455 109 182.454C106.559 183.453 100.92 183.428 100.92 183.428C100.92 183.428 104.5 185.955 107 186.455C109.5 186.955 111.442 187.454 111.442 187.454H89C89 187.454 80.9998 179.001 80.0002 175C79.0006 170.999 77.57 159.145 83.0002 151C88.4304 142.855 100 142 103.5 138C107 134 110.868 129.341 111.442 117H124L132.5 121C131.903 130.557 130 138.5 130 144C130 149.5 128.5 157 127.5 162C126.5 167 125.5 169.5 124 173C122.5 176.5 122.571 179.428 122 183.428C121.429 187.428 119.5 187.454 119.5 187.454C119.5 187.454 120 186 119.5 184.5C119 183 114.153 178.423 114.153 178.423Z" fill="black"></path>
<path d="M137.34 152.9C135.966 152.748 127.763 152.968 127.763 152.968L121 158.693L125.626 161.739C125.626 161.739 134.407 156.236 136.126 155.863C137.845 155.489 141.62 156.471 141.62 156.471C141.62 156.471 138.713 153.052 137.34 152.9Z" fill="black"></path>
<path d="M138.5 151.5L135 146.5L135.5 139.5L138 136L142.182 130L140.25 137L143.5 143.2L142.693 148.741L140.25 151.022L138.5 147.5L140.25 144.667L140 148L141.5 148.741L142.182 144.667L139.5 141L136.639 144.667L138.5 151.5Z" fill="black"></path>
<path d="M134.473 107.582C131.107 105.205 125.359 102.725 125.359 102.725L111.625 93.363C111.625 93.363 112.638 101.868 116.454 107.037L114.372 110.117C109.397 107.04 96.5214 108.688 96.5214 108.688C96.5214 108.688 104.084 115.013 108.335 118.643C112.586 122.273 115.013 128.009 115.013 128.009C115.013 128.009 126.302 126.341 128.435 126.461C130.569 126.581 137.228 124.772 142.94 122.459C144.974 121.635 146.58 120.677 146.778 118.698C146.977 116.719 145.059 117.201 142.514 115.037C139.97 112.874 137.838 109.958 134.473 107.582Z" fill="black"></path>
<path d="M131.927 119.683C134.558 119.989 140.168 121.017 140.168 121.017C135.799 123.769 133.875 126.096 128.623 125.701C123.371 125.306 118.802 118.805 118.802 118.805C118.802 118.805 121.802 119.96 124.096 120.065C126.391 120.17 129.296 119.378 131.927 119.683Z" fill="#3E3E60"></path>
<path d="M130.849 125.522L138.742 121.683L135.868 122.374L132.84 123.965L129.743 123.539C129.743 123.539 128.681 123.186 127.364 122.287C126.047 121.387 128.171 122.093 128.171 122.093C128.171 122.093 127.448 120.93 128.085 121.141C128.722 121.353 129.954 122.455 129.954 122.455L131.101 122.605L132.077 122.007L132.08 120.93L131.286 120.537C131.286 120.537 130.743 120.415 129.936 120.609C129.13 120.802 129.22 120.034 129.22 120.034C129.22 120.034 131.671 119.625 132.258 119.873C132.845 120.122 134.199 120.713 134.199 120.713C134.199 120.713 132.552 117.337 128.369 119.882C124.187 122.427 121.289 118.883 121.289 118.883C121.289 118.883 122.225 121.273 126.473 122.685C130.72 124.096 130.849 125.522 130.849 125.522Z" fill="white"></path>
</svg>