<svg height="100%" viewbox="0 0 200 200" width="100%" xmlns="http://www.w3.org/2000/svg">
<path d="M92.4997 126C92.4997 126 90.4997 130.998 94.9997 135.499C99.4997 140 110.5 139.5 110.5 158C110.5 176.5 137 180 137 180L137 174.5C131 173 120 172.501 126 154.5C132 136.499 115.5 123.999 108.06 124.999L108.06 117.896L107.217 109.438L100.505 97.5451L90.7063 89.9795L86.9997 106.499L85.9997 119.999L92.4997 126Z" fill="black"></path>
<path d="M84.7706 126.213L95.4701 127.692L92.7841 125.95L93.5808 123.861L94.9247 122.22L89.8501 121.72L89.9014 117.193L94.28 115.752L88.9576 112.765L90.1829 105.105L97.4703 97.3445L95.9264 102.021L95.8256 106.051L92.4795 107.769L97.7825 109.247L98.5099 112.818L99.8025 115.704L97.214 119.982L101.543 118.043L103.781 120.332L106.118 123.616L104.327 125.805L108.804 125.359L111.307 123.568L109.254 119.786L111.883 105.835C111.883 105.835 92.4795 84 87.7057 80.2504C82.9319 76.5008 56.7512 80.5418 54.4999 80.2504C52.2486 79.959 20.5913 71.9993 16.9999 66.4993C13.4085 60.9993 32.2524 45.0785 40.1284 41.3064C48.0044 37.5344 77.0423 66.9993 82.9999 66.4993C88.9576 65.9993 106.118 47.9993 106.118 47.9993C106.118 47.9993 92.6829 58.8471 85.4999 60.9993C78.3169 63.1515 47.1284 33.3063 39.4999 34.9998C31.8713 36.6933 4.99988 71.5 4.99988 71.5C4.99988 71.5 45.9999 92.7441 54.4999 93.8719C62.9999 94.9998 70.9999 93.8719 74.4999 97.3445C77.9999 100.817 80.324 111.847 80.324 111.847L84.7706 126.213Z" fill="#3E3E60"></path>
<path d="M98.314 105.123L100.736 112.105L100.305 109.692L99.3008 106.992L99.5836 104.607C99.5836 104.607 99.8126 103.827 100.391 102.944C100.97 102.061 100.512 103.621 100.512 103.621C100.512 103.621 101.257 103.259 101.12 103.726C100.982 104.194 100.275 104.973 100.275 104.973L100.175 105.857L100.553 106.743L101.24 106.944L101.494 106.384C101.494 106.384 101.574 105.974 101.453 105.297C101.332 104.62 101.822 104.833 101.822 104.833C101.822 104.833 102.075 106.857 101.914 107.278C101.753 107.7 101.371 108.669 101.371 108.669C101.371 108.669 103.532 107.977 101.923 104.184C100.313 100.39 102.586 98.7347 102.586 98.7347C102.586 98.7347 101.057 99.0415 100.141 102.161C99.2246 105.281 98.314 105.123 98.314 105.123Z" fill="white"></path>
<path d="M46.231 136.339L76.5365 143.273L85.6036 152.873C85.6036 152.873 104.5 147.995 112.5 162.495C120.5 176.995 138.5 180.499 138.5 180.499V184.499C138.5 184.499 106.5 186.999 96.9998 174.499C87.4998 161.999 73.3363 167.274 73.3363 167.274L46.231 162.495V136.339Z" fill="#3E3E60"></path>
<path d="M86.7662 153.428L77.6991 148.095L69.6987 150.762L66.4985 156.628L64.8984 152.095L60.6315 153.428L50.2054 141.161L52.0978 157.695L57.9647 162.495L62.2316 159.295L61.6983 164.096H69.6987L75.0323 161.301L73.9656 166.762L55.8313 175.296L27.3396 161.301C27.3396 161.301 13.6958 104.927 12.0957 92.1979C10.4956 79.4685 42.6522 28.9896 54.072 19.4065C65.4917 9.8233 138.973 8.54734 148.338 15.8213C157.703 23.0953 185.567 58.636 184.5 61.9995C183.433 65.3629 175.767 74.2039 163.5 84.7654C151.232 95.3269 141.39 99.4995 134.5 99.4995C127.609 99.4995 109.599 86.8643 107.998 84.7654C106.398 82.6665 115.818 59.7611 115.818 59.7611C115.818 59.7611 108.978 78.4961 111.199 81.1284C113.42 83.7607 119.908 90.4867 133 93.9995C148.975 98.2861 175.509 78.7219 174.5 59.7611C173.677 44.304 152.37 27.0219 139.287 23.0953C126.204 19.1687 83.0926 25.8249 75.0323 33.4998C66.972 41.1746 38.4997 73.7748 38.4997 86.5C38.4997 99.2252 46.2308 122.493 46.2308 122.493L52.0978 128.894L62.2316 132.094L68.632 139.561L81.1696 138.569L86.7662 153.428Z" fill="black"></path>
<path d="M56.027 144.576L64.8064 150.467L62.2964 147.995L58.8141 145.789L57.2461 142.584C57.2461 142.584 56.9097 141.389 56.9409 139.693C56.9721 137.998 57.6449 140.387 57.6449 140.387C57.6449 140.387 58.3128 139.146 58.5146 139.863C58.7165 140.58 58.4342 142.287 58.4342 142.287L59.0217 143.471L60.2279 144.142L61.2765 143.647L61.1501 142.694C61.1501 142.694 60.921 142.109 60.217 141.416C59.513 140.722 60.317 140.454 60.317 140.454C60.317 140.454 62.2826 142.645 62.4166 143.331C62.5506 144.016 62.8422 145.605 62.8422 145.605C62.8422 145.605 65.0696 142.443 59.9206 139.557C54.7717 136.671 56.3615 132.217 56.3615 132.217C56.3615 132.217 54.6382 134.232 55.9839 139.011C57.3296 143.79 56.027 144.576 56.027 144.576Z" fill="white"></path>
<path d="M79.1471 160.792L87.7177 159.917L84.8559 159.657L81.5251 160.089L78.8699 158.851C78.8699 158.851 78.0355 158.257 77.1695 157.143C76.3036 156.028 77.9725 157.216 77.9725 157.216C77.9725 157.216 77.7426 156.056 78.2432 156.412C78.7439 156.769 79.4587 158.025 79.4587 158.025L80.4442 158.477L81.5494 158.267L81.9474 157.387L81.3707 156.837C81.3707 156.837 80.9221 156.581 80.1192 156.508C79.3162 156.435 79.6798 155.832 79.6798 155.832C79.6798 155.832 82.0539 156.201 82.4958 156.573C82.9377 156.945 83.9498 157.818 83.9498 157.818C83.9498 157.818 83.6924 154.581 78.9632 155.463C74.234 156.345 72.903 152.612 72.903 152.612C72.903 152.612 72.8767 154.837 76.2144 157.212C79.552 159.587 79.1471 160.792 79.1471 160.792Z" fill="white"></path>
<path d="M80.0483 196.156L63.8091 188.906L67.9999 186.499L80.0483 181.187L85.2868 177.807L90.0014 180.222C94.1922 168.941 119.5 180.649 127.5 183.056C135.5 185.462 142.5 181.124 142.5 181.124L141.5 186.499C141.5 186.499 127.5 190.677 119 192.713C110.5 194.748 94.1922 184.567 94.1922 184.567L93.6684 188.906L80.0483 196.156Z" fill="black"></path>
<path d="M54.1463 182.603C59.3847 183.98 71 177.501 71 177.501H80.8561L86.6184 174.499L88.7138 177.396L90.2854 180.776L87.6661 179.81L86.6184 181.742L87.1423 184.639L84.523 183.673L82.4277 185.605V188.019L78.7607 187.053L77.713 188.502L68.2838 188.977L76.6653 193.813H80.8561L81.9038 190.916L83.9992 192.847L87.6661 191.399L88.7138 188.502L90.8092 190.433L93.4285 188.502L94.4762 185.122L95 188.977L93.4285 190.916L80.8561 198.159C80.8561 198.159 58.3376 193.161 54.1463 193.161C49.955 193.161 23.7631 185.436 19.048 181.226C14.3328 177.016 7 148.632 7 148.632L10.1426 140.369C10.1426 140.369 52.5742 126.528 59.3847 127.011C66.1953 127.495 84.5294 130.271 84.5294 130.271L107.055 148.633C107.055 148.633 91.3394 136.186 86.101 133.771C80.8625 131.357 73.0048 131.356 59.3847 130.271C45.7647 129.185 15.9054 141.496 13.81 145.419C11.7146 149.342 18.5246 162.803 23.7631 169.291C29.0016 175.779 48.9078 181.226 54.1463 182.603Z" fill="#3E3E60"></path>
<path d="M74.3074 186.536L79.4761 183.669L77.5911 184.313L75.609 185.479L73.5731 185.511C73.5731 185.511 72.8744 185.405 72.0058 185.012C71.1372 184.619 72.5347 184.831 72.5347 184.831C72.5347 184.831 72.0552 184.236 72.4745 184.3C72.8937 184.364 73.7075 184.879 73.7075 184.879L74.4611 184.863L75.0997 184.439L75.0979 183.829L74.5749 183.676C74.5749 183.676 74.2174 183.655 73.6885 183.836C73.1596 184.016 73.216 183.574 73.216 183.574C73.216 183.574 74.8237 183.126 75.2104 183.215C75.5972 183.304 76.4886 183.52 76.4886 183.52C76.4886 183.52 75.3936 181.754 72.6565 183.562C69.9193 185.371 68.0024 183.62 68.0024 183.62C68.0024 183.62 68.6266 184.89 71.4216 185.315C74.2167 185.74 74.3074 186.536 74.3074 186.536Z" fill="white"></path>
<path d="M170.391 121.848C170.391 121.848 175.654 125.247 177.852 129.42C180.049 133.594 182.505 134.278 185.46 134.998C188.415 135.718 180.566 140.15 180.566 140.15C177.076 142.314 166.586 142.999 166.586 151.499C166.586 159.999 174.971 170.472 174.086 174.499C173.201 178.526 166.291 188.078 163.364 190.663C160.437 193.248 142.887 191.751 138.831 189.866C134.775 187.982 127.715 171.497 127.586 166.999C127.457 162.501 145.885 139.341 150.125 130.216C154.366 121.09 155.573 110.854 155.573 110.854L161.343 120.192L171.167 111.377L170.391 121.848Z" fill="black"></path>
<path d="M169 192C169.5 192 171.5 178 171.5 178L166 185.5L167.5 188.5C168 189.5 168.5 192 169 192Z" fill="black"></path>
<path d="M180 138.461C180 138.461 170.899 140.582 169.461 140.091C165.932 138.885 163.141 134.616 161.317 132.101C161.317 132.101 164.955 134.324 167.1 134.824C169.246 135.324 170.577 133.472 173.455 134.536C176.333 135.6 180 138.461 180 138.461Z" fill="#3E3E60"></path>
<path d="M172.567 139.498L178.024 137.577L176.118 137.868L174.011 138.673L172.093 138.311C172.093 138.311 171.459 138.068 170.725 137.499C169.992 136.93 171.26 137.418 171.26 137.418C171.26 137.418 170.935 136.719 171.315 136.865C171.695 137.011 172.352 137.693 172.352 137.693L173.063 137.823L173.752 137.514L173.878 136.892L173.419 136.636C173.419 136.636 173.088 136.545 172.553 136.626C172.018 136.708 172.164 136.268 172.164 136.268C172.164 136.268 173.768 136.123 174.113 136.289C174.457 136.455 175.249 136.847 175.249 136.847C175.249 136.847 174.592 134.835 171.641 136.148C168.69 137.461 167.257 135.306 167.257 135.306C167.257 135.306 167.577 136.721 170.113 137.695C172.649 138.67 172.567 139.498 172.567 139.498Z" fill="white"></path>
<path d="M173.5 162.5C172 163 169.5 164.5 169.5 164.5L169 167.5L171.5 169.5C171.5 169.5 173 166.5 174 165.5C175 164.5 177.5 162 177 162C176.5 162 175 162 173.5 162.5Z" fill="black"></path>
<path d="M180.286 159.736L182.2 156.616L182.443 151.021L181.416 154.18L180.632 151.744L179.848 149.308L176.743 145.089L178.136 148.915L177.968 151.628L175.165 154.71L174.104 158.668L177.587 160.42L178.579 158.061L177.76 156.424L177.691 158.022L175.88 158.745L176.743 155.5L179.467 153L180 157L178.44 161.258L180.286 159.736Z" fill="black"></path>
</svg>