<svg height="100%" viewbox="0 0 200 200" width="100%" xmlns="http://www.w3.org/2000/svg">
<path d="M102.5 57.4614C86.9412 69.5627 93 89 86 101C79 113 67.5 132.5 42.5 105.5C51.7495 137.057 84.5691 157.448 115 142.5C139.635 130.399 127.992 99.4575 137.5 96C147.008 92.5425 158.953 91.6044 164.572 85.5537C170.19 79.5031 176.241 57.4615 164.572 57.4615C152.903 57.4615 118.059 45.3602 102.5 57.4614Z" fill="black"></path>
<path d="M137.071 74.1952C137.071 74.1952 127.538 82.1014 120 77.5C112.462 72.8987 114.5 64.5 114.5 64.5C114.5 64.5 126.483 72.7817 134.5 71.0001C139 70.0001 137.071 74.1952 137.071 74.1952Z" fill="white"></path>
</svg>