<svg height="100%" viewbox="0 0 200 200" width="100%" xmlns="http://www.w3.org/2000/svg">
<path d="M58.2455 140.386C51.4089 134.775 52.6653 125.137 54.6849 119C57.3388 110.934 70.8609 106.203 85.4398 112C95.5 116 125.522 123.822 113.94 112C102.358 100.177 68.7514 108.494 60.7515 87.6337C60.7515 87.6337 61.0201 92.6405 61.4398 95.4995C63.3635 108.603 52.9398 96.4995 56.9522 90.4249C61.2992 83.8435 54.6849 80.1811 54.6849 88.4384C54.6849 96.3773 48.9398 88.9995 50.4398 84.4995C51.9398 79.9995 55.9691 75.5367 55.9691 75.5367C55.9691 75.5367 55.0309 67.7226 50.4398 79.4995C45.8487 91.2764 35.9398 84.3928 41.4398 75.5366C46.9398 66.6805 55.442 66.6805 55.442 66.6805C62.2036 56.6409 71.8125 39.5881 99.6721 43.1775C99.6721 43.1775 90.475 39.7652 88.9398 37.4995C87.4046 35.2337 85.4398 29.4994 85.4398 29.4994C85.4398 29.4994 96.909 32.8351 101.693 40.5615C103.304 43.1631 106.44 44.9997 106.44 44.9997C94.4398 27.4995 103.632 23.5849 108.94 37.4995C110.057 40.4278 112.577 47.4995 112.577 47.4995C112.577 47.4995 113.84 46.6641 112.577 41.082C111.314 35.4998 118.804 37.6772 118.44 43.1775C118.075 48.6778 121.94 51.505 121.94 51.505C121.94 51.505 126.499 55.5836 124.44 51.505C116.539 35.855 128.857 44.5664 135.438 51.505C145.963 62.6014 154.526 77.0509 157.94 85.9996C161.353 94.9484 167.791 98.0908 169.94 99.4997C172.089 100.908 165.94 102.5 161.94 102.5C157.94 102.5 154.004 99.9025 150.342 97.7772C136.54 89.7673 127.668 71.6817 116.804 69.1811C105.94 66.6805 99.1699 70.0606 99.6721 79.4995C100.713 99.0643 127.44 84.4995 136.94 104C150.667 132.176 145.702 145 126 145C106.298 145 98.5 124.5 82 124.5C65.5 124.5 70.9398 136.5 73.9398 144.5C76.9398 152.5 71.7455 167 58.2455 164C44.7455 161 32.9398 150.195 32.9398 150.195C41.4398 156 57.3607 164.804 63.4398 156C67.0015 150.841 65.0822 145.996 58.2455 140.386Z" fill="black"></path>
<path clip-rule="evenodd" d="M158.44 95.8877C158.44 95.8877 156.818 94.674 154.577 92.2066C154.324 91.9283 154.079 91.6397 153.842 91.344C153.663 91.7246 153.371 92.0563 152.979 92.2824C151.961 92.8701 150.66 92.5213 150.072 91.5034C149.484 90.4855 149.833 89.184 150.851 88.5963C151.115 88.4441 151.397 88.3547 151.682 88.3235L151.622 88.2349C150.19 86.1029 148.833 84.0844 147.065 83.1027C147.065 83.1027 148.36 84.8127 146.507 88.4965C144.654 92.1803 150.581 94.5134 150.581 94.5134C150.581 94.5134 149.546 93.9573 148.567 92.0652C147.588 90.1731 148.165 85.5395 148.165 85.5395C148.165 85.5395 148.901 87.879 149.044 90.2541C149.186 92.6292 152.257 96.1036 152.257 96.1036L158.44 95.8877ZM155.134 94.4174L155.426 93.3272C155.426 93.3272 154.521 93.5421 154.316 93.3644C154.111 93.1868 153.706 92.4769 153.706 92.4769L153.44 93.5519L152.457 93.5054C152.457 93.5054 153.282 94.258 153.383 94.5063C153.485 94.7547 153.127 95.7297 153.127 95.7297L154.262 94.9753L155.666 95.3389L155.134 94.4174ZM150.837 87.8666L149.47 86.0299L149.129 88.2937L150.837 87.8666Z" fill="white" fill-rule="evenodd"></path>
<path clip-rule="evenodd" d="M143.44 65.7393C143.44 65.7393 140.58 65.421 136.06 64.0128C135.55 63.8539 135.043 63.6767 134.539 63.4857C134.595 64.0802 134.475 64.6972 134.158 65.256C133.335 66.7084 131.49 67.2184 130.038 66.395C128.585 65.5717 128.075 63.7268 128.899 62.2745C129.112 61.8983 129.394 61.5853 129.72 61.3423L129.582 61.2765C126.294 59.6971 123.18 58.2018 120.308 58.2727C120.308 58.2727 123.124 59.4348 123.507 65.2794C123.89 71.124 132.828 69.7137 132.828 69.7137C132.828 69.7137 131.16 69.7779 128.599 68.166C126.038 66.554 123.409 60.4649 123.409 60.4649C123.409 60.4649 125.995 62.7994 127.879 65.6051C129.763 68.4108 136.025 70.4543 136.025 70.4543L143.44 65.7393ZM138.333 66.3193L137.906 64.7741C137.906 64.7741 136.953 65.6881 136.574 65.6185C136.195 65.5489 135.188 64.9709 135.188 64.9709L135.637 66.4783L134.399 67.1295C134.399 67.1295 135.951 67.4573 136.254 67.6881C136.558 67.9189 136.82 69.3709 136.82 69.3709L137.668 67.6297L139.648 67.0647L138.333 66.3193ZM128.356 61.3916L125.361 60.1265L126.573 63.1437L128.356 61.3916Z" fill="white" fill-rule="evenodd"></path>
</svg>