<svg height="100%" viewbox="0 0 200 200" width="100%" xmlns="http://www.w3.org/2000/svg">
<path d="M41.1194 145.359C35.7121 138.36 37.726 132.383 41.0682 126.853C45.4603 119.586 54.2076 115 69.771 118.5C81.2135 121.073 87.5384 92.5627 83.1526 79.6296C78.7668 66.6964 61.9277 107.114 58.8004 84.9925C58.8004 84.9925 57.9414 89.9324 57.7105 92.8128C56.6522 106.014 49.2024 91.8847 54.4727 86.8624C60.1827 81.4211 54.556 76.371 52.7076 84.4188C50.9305 92.1562 46.9827 83.6796 49.452 79.6296C51.9213 75.5795 56.8473 72.1319 56.8473 72.1319C56.8473 72.1319 57.6821 64.3061 50.5713 74.7564C43.4604 85.2068 35.3438 76.2798 42.6867 68.8795C50.0296 61.4792 58.3161 63.3824 58.3161 63.3824C67.1534 55.1112 79.4353 21.0101 105.784 30.7447C105.784 30.7447 97.5846 25.3603 96.5955 22.8084C95.6064 20.2565 94.9751 14.2279 94.9751 14.2279C94.9751 14.2279 105.407 20.0463 108.34 28.6475C109.328 31.5437 111.972 34.0357 111.972 34.0357C104.194 14.2934 114.029 12.5357 116.088 27.2854C116.521 30.3895 117.394 37.8459 117.394 37.8459C117.394 37.8459 118.813 37.3145 118.831 31.5912C118.849 25.8679 125.662 29.6667 124.076 34.9459C122.49 40.2251 125.623 43.8456 125.623 43.8456C125.623 43.8456 129.153 48.8412 128.06 44.4052C123.862 27.3837 133.918 38.6314 138.779 46.8672C146.553 60.0381 151.664 76.0376 152.988 85.5234C154.312 95.0092 159.882 99.5129 161.661 101.367C163.44 103.221 157.091 103.396 153.193 102.5C149.294 101.605 146.039 98.1924 142.946 95.3013C131.287 84.4051 124.982 62.8192 116.661 59.9235C108.34 57.0277 97.96 59.0033 96.5955 67.2303C94.9751 77.0003 107.691 83.074 124.076 101.367C140.461 119.66 114.424 151.894 114.424 151.894L113.926 165.234L126.5 160.731L131 167L127.5 166L128 170.5L122.5 167.5L123.5 171.5L119.5 168.373L110.271 170.5L101.261 150.526L97.2711 149L88.5 160.731L99.7711 165.234L101.261 169.5L97.2711 167.5L96.5 170.5L93 167.5L92 171L89.5716 167.5L83.1526 160.731L89.5716 146.186C89.5716 146.186 72.3115 139.014 63.8409 139.014C55.3703 139.014 49.452 142 53.771 150C58.0901 158 48.3193 174.319 35.8334 168.373C23.3476 162.427 14.2599 149.255 14.2599 149.255C21.245 156.814 34.7911 168.959 42.6867 161.739C47.3127 157.509 46.5266 152.357 41.1194 145.359Z" fill="black"></path>
<path clip-rule="evenodd" d="M152.271 95.0215C152.271 95.0215 150.962 93.4755 149.33 90.5691C149.146 90.2412 148.972 89.9053 148.807 89.5638C148.548 89.8948 148.188 90.1527 147.756 90.2854C146.632 90.6303 145.442 89.999 145.097 88.8754C144.752 87.7518 145.383 86.5613 146.507 86.2164C146.798 86.127 147.093 86.1032 147.378 86.1364L147.339 86.0367C146.421 83.6382 145.551 81.3673 144.047 80.0147C144.047 80.0147 144.926 81.9711 142.295 85.1466C139.665 88.3221 144.92 91.9229 144.92 91.9229C144.92 91.9229 144.035 91.1493 143.504 89.086C142.974 87.0227 144.573 82.6358 144.573 82.6358C144.573 82.6358 144.767 85.0808 144.374 87.4275C143.982 89.7743 146.197 93.8479 146.197 93.8479L152.271 95.0215ZM149.378 92.8484L149.907 91.8513C149.907 91.8513 148.977 91.8583 148.817 91.6391C148.656 91.42 148.421 90.6376 148.421 90.6376L147.921 91.6258L146.973 91.3604C146.973 91.3604 147.609 92.2785 147.652 92.5433C147.696 92.8082 147.128 93.6782 147.128 93.6782L148.404 93.1971L149.69 93.8656L149.378 92.8484ZM146.656 85.502L145.736 83.406L144.897 85.5361L146.656 85.502Z" fill="white" fill-rule="evenodd"></path>
<path clip-rule="evenodd" d="M136.271 57.0781C136.271 57.0781 133.555 56.1277 129.465 53.7434C129.003 53.4744 128.549 53.1882 128.1 52.8892C128.022 53.4811 127.767 54.0557 127.333 54.5295C126.206 55.7607 124.293 55.8448 123.062 54.7172C121.831 53.5896 121.747 51.6775 122.875 50.4462C123.167 50.1273 123.511 49.8854 123.883 49.7215L123.764 49.6266C120.913 47.3511 118.213 45.1968 115.397 44.623C115.397 44.623 117.882 46.3859 116.947 52.168C116.012 57.95 125.039 58.5762 125.039 58.5762C125.039 58.5762 123.399 58.2655 121.264 56.1212C119.128 53.9768 117.929 47.4536 117.929 47.4536C117.929 47.4536 119.927 50.3078 121.135 53.4641C122.344 56.6204 127.989 60.0137 127.989 60.0137L136.271 57.0781ZM131.164 56.5003L131.094 54.8987C131.094 54.8987 129.961 55.5763 129.606 55.4235C129.252 55.2707 128.401 54.4821 128.401 54.4821L128.501 56.0517L127.148 56.4093C127.148 56.4093 128.587 57.0761 128.831 57.369C129.075 57.6619 129.007 59.1359 129.007 59.1359L130.222 57.6286L132.279 57.5211L131.164 56.5003ZM122.543 49.4643L119.907 47.5607L120.413 50.7728L122.543 49.4643Z" fill="white" fill-rule="evenodd"></path>
<path clip-rule="evenodd" d="M116.603 105C116.603 105 116.712 107.876 115.988 112.554C115.907 113.082 115.807 113.61 115.692 114.137C116.272 113.993 116.9 114.02 117.499 114.251C119.058 114.85 119.835 116.599 119.236 118.157C118.637 119.716 116.888 120.493 115.329 119.894C114.926 119.739 114.575 119.506 114.286 119.22L114.241 119.365C113.166 122.852 112.148 126.153 112.644 128.982C112.644 128.982 113.376 126.025 119.1 124.781C124.823 123.537 122.105 114.907 122.105 114.907C122.105 114.907 122.415 116.546 121.2 119.318C119.985 122.089 114.353 125.591 114.353 125.591C114.353 125.591 116.279 122.688 118.774 120.409C121.27 118.13 122.364 111.635 122.364 111.635L116.603 105ZM117.933 109.965L116.468 110.616C116.468 110.616 117.513 111.422 117.5 111.808C117.488 112.194 117.065 113.274 117.065 113.274L118.489 112.608L119.317 113.736C119.317 113.736 119.411 112.152 119.594 111.818C119.778 111.484 121.175 111.009 121.175 111.009L119.327 110.429L118.475 108.554L117.933 109.965ZM114.537 120.561L113.729 123.711L116.533 122.065L114.537 120.561Z" fill="white" fill-rule="evenodd"></path>
</svg>