<svg height="100%" viewbox="0 0 200 200" width="100%" xmlns="http://www.w3.org/2000/svg">
<path d="M79.2723 35.4989C79.885 34.0847 79.261 30.9124 67.0105 28.7582C54.76 26.6041 69.9663 24.5936 77.0193 25.189C84.0723 25.7844 87.4149 26.9974 97.2496 34.1018C107.084 41.2061 90.4069 45.8849 95.7812 51.7339L108.569 54.912L111.065 62.2196C111.065 62.2196 89.8436 66.1752 82.8135 46.8324C82.8135 46.8324 77.0198 41.8826 72.8914 49.5495C68.763 57.2164 66.5167 45.9039 71.0774 44.3088C76.0186 42.5806 72.263 37.312 65.1294 39.8592C57.9958 42.4064 62.0947 34.5028 68.6697 35.2521C75.2448 36.0014 78.6595 36.9132 79.2723 35.4989Z" fill="#3E3E60"></path>
<path d="M151.386 146.885L157 128.499L145.28 121L138.365 135.853L145.931 148.542L145.28 157.264L148.097 162.6L149.703 156.583L159.112 154.327L164.663 158.53L163.599 163.753L168.274 157.974L164.585 150.448L168.196 150.904L170.858 155.047L170.628 146.988L167.202 144.449L151.386 146.885Z" fill="#3E3E60"></path>
<path d="M35.231 129.933C29.231 118.933 35.231 104.433 52.7158 104.433C70.2006 104.433 84.231 114.933 97.231 113.433C109.496 112.017 105.672 93.7693 100.868 80.6953C96.0641 67.6212 74.8041 98.5005 61.731 72.8501C61.731 72.8501 53.3193 68.5005 49.731 82.5005C46.1427 96.5005 40.8626 80.4652 46.3041 75.5005C52.1994 70.1217 46.3041 64.1553 37.8041 72.0005C29.3041 79.8457 32.8041 65.5005 41.3041 63.0005C49.8041 60.5005 54.3309 60.0005 54.8041 57.5005C55.2773 55.0005 53.8041 50.5005 37.8041 54.0005C21.8041 57.5005 40.6579 46.0005 49.731 43.0005C58.8041 40.0005 63.3041 40.0005 77.3041 45.4014C91.3041 50.8022 74.731 53.9324 82.8041 59.8882C90.8772 65.8439 97.231 64.4324 97.231 64.4324C106.358 56.2587 96.0284 21.6977 123.795 31.9097C123.795 31.9097 121.446 23.7822 114.038 23.7822C106.631 23.7822 100.868 14.9324 112.202 15.129C123.536 15.3255 123.226 21.1471 126.439 29.8423C127.52 32.7702 130.332 32.3183 130.332 32.3183C121.863 12.3434 132.141 10.7346 134.535 25.5976C135.039 28.7256 136.074 38.2365 136.074 38.2365C136.074 38.2365 137.552 35.725 137.479 29.971C137.406 24.2169 144.606 28.1461 143.029 33.4284C141.452 38.7107 144.793 45.4014 144.793 45.4014C144.793 45.4014 148.573 50.481 147.355 46.0033C142.683 28.8218 153.401 40.2926 158.627 48.6514C166.985 62.019 175.191 70.3738 176.731 79.9324C178.271 89.4911 184.337 99.5395 186.231 101.432C188.125 103.325 178.238 108.896 174.138 107.932C170.039 106.969 163.019 97.3891 159.731 94.4324C147.339 83.2892 141.497 67.478 132.731 64.4324C123.965 61.3869 121.731 73.9324 126.439 80.6953C132.104 88.8347 147.355 94.4324 151.731 113.932C156.107 133.432 147.231 146.432 139.231 148.932C131.231 151.433 119 163 119 163L105.731 161.433L115.731 169.462L112.5 178.5L105.731 178.5L109 176.5L109 172.433L100.868 179.5L97.231 175.5L100.868 175.5L104.5 171L99.0001 161.433L94.0001 161.433L100.868 156.463L105.731 150.67C105.731 150.67 93.172 139.433 74.731 132.433C56.2899 125.433 54.4867 138.314 59.731 148.932C64.9753 159.551 57.9099 178.612 44.731 172.433C31.5521 166.253 12.231 139.433 12.231 139.433C19.6719 147.146 39.574 168.564 47.731 161.433C52.5101 157.254 41.231 140.933 35.231 129.933Z" fill="black"></path>
<path clip-rule="evenodd" d="M173.54 97.2842C173.54 97.2842 172.143 95.7087 170.387 92.7602C170.189 92.4275 170.001 92.087 169.822 91.7409C169.556 92.0696 169.184 92.323 168.733 92.4494C167.561 92.7781 166.304 92.1242 165.924 90.989C165.545 89.8537 166.187 88.6669 167.359 88.3382C167.662 88.2531 167.971 88.2339 168.27 88.2718L168.228 88.1711C167.227 85.7448 166.279 83.4476 164.681 82.0634C164.681 82.0634 165.633 84.0446 162.928 87.1949C160.223 90.3453 165.787 94.0503 165.787 94.0503C165.787 94.0503 164.848 93.2582 164.259 91.1752C163.669 89.0922 165.275 84.7072 165.275 84.7072C165.275 84.7072 165.517 87.1686 165.144 89.5218C164.77 91.8749 167.157 96.0064 167.157 96.0064L173.54 97.2842ZM170.474 95.0524L171.012 94.0583C171.012 94.0583 170.038 94.0504 169.866 93.8275C169.695 93.6046 169.436 92.8142 169.436 92.8142L168.928 93.7997L167.93 93.5175C167.93 93.5175 168.611 94.4508 168.661 94.7178C168.711 94.9848 168.13 95.8504 168.13 95.8504L169.459 95.3873L170.817 96.0802L170.474 95.0524ZM167.504 87.6224L166.505 85.5003L165.661 87.6284L167.504 87.6224Z" fill="white" fill-rule="evenodd"></path>
<path clip-rule="evenodd" d="M156.163 58.877C156.163 58.877 153.302 57.8776 148.978 55.4144C148.49 55.1366 148.009 54.8415 147.534 54.5336C147.461 55.1274 147.204 55.701 146.757 56.1703C145.595 57.39 143.593 57.4437 142.285 56.2901C140.977 55.1366 140.858 53.2127 142.019 51.993C142.32 51.6771 142.678 51.4394 143.064 51.2806L142.939 51.1835C139.914 48.8497 137.05 46.6401 134.091 46.0179C134.091 46.0179 136.723 47.8304 135.836 53.6287C134.949 59.4271 144.418 60.2022 144.418 60.2022C144.418 60.2022 142.695 59.8634 140.423 57.673C138.151 55.4826 136.789 48.9047 136.789 48.9047C136.789 48.9047 138.928 51.8065 140.245 54.9994C141.563 58.1923 147.532 61.695 147.532 61.695L156.163 58.877ZM150.803 58.2138L150.703 56.6024C150.703 56.6024 149.527 57.2654 149.154 57.1061C148.78 56.9468 147.875 56.1402 147.875 56.1402L148.005 57.7199L146.594 58.0576C146.594 58.0576 148.112 58.7512 148.373 59.0496C148.633 59.348 148.585 60.829 148.585 60.829L149.834 59.333L151.987 59.2581L150.803 58.2138ZM141.656 51.0007L138.863 49.0443L139.446 52.282L141.656 51.0007Z" fill="white" fill-rule="evenodd"></path>
<path clip-rule="evenodd" d="M136.327 106.742C136.327 106.742 136.487 109.635 135.805 114.328C135.728 114.857 135.631 115.386 135.52 115.914C136.125 115.779 136.783 115.816 137.415 116.058C139.058 116.685 139.901 118.456 139.298 120.013C138.695 121.571 136.875 122.324 135.232 121.696C134.807 121.534 134.435 121.295 134.128 121.002L134.084 121.147C133.013 124.635 132 127.938 132.565 130.791C132.565 130.791 133.284 127.83 139.262 126.671C145.239 125.512 142.252 116.791 142.252 116.791C142.252 116.791 142.603 118.445 141.375 121.212C140.147 123.979 134.301 127.409 134.301 127.409C134.301 127.409 136.272 124.521 138.851 122.27C141.429 120.019 142.471 113.506 142.471 113.506L136.327 106.742ZM137.8 111.755L136.276 112.386C136.276 112.386 137.384 113.214 137.377 113.602C137.37 113.989 136.944 115.069 136.944 115.069L138.426 114.422L139.311 115.569C139.311 115.569 139.385 113.979 139.571 113.646C139.758 113.312 141.214 112.857 141.214 112.857L139.269 112.244L138.346 110.346L137.8 111.755ZM134.412 122.354L133.617 125.508L136.529 123.899L134.412 122.354Z" fill="white" fill-rule="evenodd"></path>
<path clip-rule="evenodd" d="M87.4268 72.7383C87.4268 72.7383 84.161 70.9696 79.4972 67.0718C78.9711 66.6321 78.4585 66.1714 77.9571 65.6954C77.6975 66.4464 77.2148 67.1402 76.5266 67.6679C74.7381 69.0392 72.2386 68.7694 70.9438 67.0653C69.649 65.3613 70.0493 62.8682 71.8378 61.4969C72.3011 61.1416 72.8121 60.8965 73.3376 60.758L73.2089 60.6116C70.1204 57.1 67.1963 53.7753 63.7022 52.4749C63.7022 52.4749 66.4514 55.2499 63.7006 62.5531C60.9498 69.8563 72.4768 72.4545 72.4768 72.4545C72.4768 72.4545 70.4352 71.7275 68.2401 68.5276C66.0449 65.3277 66.228 56.642 66.228 56.642C66.228 56.642 68.0558 60.734 68.781 65.0609C69.5062 69.3879 75.9157 74.9003 75.9157 74.9003L87.4268 72.7383ZM80.9646 70.9788L81.2999 68.8906C81.2999 68.8906 79.6518 69.5438 79.2335 69.2758C78.8153 69.0078 77.9224 67.818 77.9224 67.818L77.6335 69.8705L75.7866 70.0659C75.7866 70.0659 77.4731 71.2143 77.7114 71.642C77.9497 72.0696 77.4679 73.965 77.4679 73.965L79.4442 72.2536L82.1368 72.5215L80.9646 70.9788ZM71.6704 60.1601L68.762 57.1728L68.5626 61.433L71.6704 60.1601Z" fill="white" fill-rule="evenodd"></path>
<defs></defs>
</svg>