<svg height="100%" viewbox="0 0 200 200" width="100%" xmlns="http://www.w3.org/2000/svg">
<path d="M99.3231 61.2438C83.2278 73.7624 85.0715 94.4287 73 106.5C56.2356 123.265 38.5665 126.43 26 109.53C35.5684 142.175 71.0197 161.464 102.5 146C127.984 133.482 130 102 136.5 96.0002C143 90.0002 154.188 87.2595 160 81.0002C165.812 74.7409 177.781 44.9997 160 51.5004C142.219 58.0011 115.418 48.7252 99.3231 61.2438Z" fill="black"></path>
<path d="M119 72.4462C116.869 67.2752 120.5 63.446 126.5 61.946C131.102 60.7956 135.394 60.9887 135.394 60.9887C135.394 60.9887 142.362 61.2044 141 67.9464C140.182 71.9947 132 70.8179 132 70.8179C132 70.8179 136.394 73.9465 134.5 73.4462C132.606 72.946 129.25 72.9465 127 74.4465C124.75 75.9465 128.5 71.4464 128.5 71.4464C128.5 71.4464 120.774 76.7527 119 72.4462Z" fill="white"></path>
<path d="M136.117 62.8989C136.48 64.5296 133.313 66.6222 129.045 67.5727C124.776 68.5233 121.021 67.9719 120.658 66.3412C120.294 64.7104 124.231 62.8966 128.5 61.946C132.769 60.9955 135.753 61.2681 136.117 62.8989Z" fill="black"></path>
<path d="M128.444 62.6525C130.217 62.2314 131.491 62.2409 131.912 64.0138C132.333 65.7868 131.237 67.5654 129.464 67.9865C127.691 68.4076 125.912 67.3118 125.491 65.5388C125.07 63.7659 126.671 63.0737 128.444 62.6525Z" fill="white"></path>
</svg>