<svg height="100%" viewbox="0 0 200 200" width="100%" xmlns="http://www.w3.org/2000/svg">
<path d="M106.527 47.7791C106.527 47.7791 93.8243 51.1415 87.0995 50.3943C80.3747 49.6471 74.7708 47.7791 65.4308 53.7567C56.0908 59.7342 53.4757 64.2174 48.9925 78.0405C44.5093 91.8637 48.9925 123.246 48.9925 123.246C48.9925 123.246 51.9813 113.906 55.3437 108.302C58.7061 102.698 65.4308 106.434 65.4308 106.434L69.5405 144.915L63.5628 147.903L77.0124 150.519V144.915L81.122 121.751L90.462 128.103C90.462 128.103 88.2203 141.179 87.0995 143.047C85.9788 144.915 87.0995 147.903 87.0995 147.903L96.8131 153.881L119.229 149.771L129.316 153.134L127.448 138.563L108.395 142.299V138.563C108.395 138.563 122.591 133.707 131.931 135.201C141.271 136.695 153.6 144.915 153.6 144.915C153.6 144.915 142.019 128.103 134.173 123.246C126.327 118.389 112.131 116.895 112.131 116.895L131.931 110.544L140.524 76.1725L99.0547 106.434L83.7371 96.7204C83.7371 96.7204 78.5068 90.7428 77.0124 85.1389C75.5179 79.535 77.0124 74.3046 77.0124 74.3046C77.0124 74.3046 91.9563 73.5574 96.4395 72.4365C100.923 71.3157 103.538 66.459 103.538 66.459C103.538 66.459 97.9339 69.4477 91.9563 69.4477C85.9788 69.4477 82.2428 68.327 82.2428 68.327L103.538 60.4814L106.527 47.7791Z" fill="black"></path>
<path d="M79.8877 61.295C78.2793 57.4381 80.9799 54.5654 85.4583 53.4255C88.893 52.5513 92.101 52.6819 92.101 52.6819C92.101 52.6819 97.3082 52.8209 96.3116 57.8628C95.7132 60.8902 89.5961 60.0369 89.5961 60.0369C89.5961 60.0369 92.8895 62.3606 91.4724 61.9929C90.0553 61.6251 87.5479 61.6362 85.8717 62.7641C84.1955 63.8921 86.9829 60.5177 86.9829 60.5177C86.9829 60.5177 81.2272 64.5071 79.8877 61.295Z" fill="white"></path>
<path d="M92.6474 54.1069C92.9239 55.3243 90.5648 56.8979 87.3782 57.6217C84.1916 58.3456 81.3841 57.9455 81.1076 56.7282C80.8311 55.5109 83.7668 54.1431 86.9535 53.4192C90.1401 52.6954 92.3709 52.8896 92.6474 54.1069Z" fill="black"></path>
<path d="M86.914 53.9476C88.2374 53.6273 89.189 53.6303 89.5093 54.9537C89.8296 56.277 89.0164 57.6095 87.6931 57.9298C86.3697 58.2501 85.0372 57.437 84.7169 56.1136C84.3966 54.7902 85.5906 54.2679 86.914 53.9476Z" fill="white"></path>
<path d="M109.802 109.153C107.243 105.849 109.101 102.371 113.126 100.103C116.214 98.3626 119.345 97.6518 119.345 97.6518C119.345 97.6518 124.408 96.4276 124.762 101.555C124.974 104.634 118.846 105.406 118.846 105.406C118.846 105.406 122.631 106.79 121.167 106.804C119.703 106.819 117.286 107.484 115.962 109.01C114.638 110.536 116.448 106.551 116.448 106.551C116.448 106.551 111.933 111.904 109.802 109.153Z" fill="white"></path>
<path d="M120.244 98.8852C120.828 99.9882 118.961 102.123 116.074 103.653C113.186 105.183 110.372 105.529 109.787 104.426C109.203 103.323 111.68 101.237 114.568 99.7067C117.455 98.1766 119.659 97.7821 120.244 98.8852Z" fill="black"></path>
<path d="M114.668 100.227C115.862 99.5727 116.781 99.3274 117.436 100.521C118.09 101.715 117.653 103.214 116.459 103.868C115.265 104.523 113.766 104.085 113.112 102.891C112.457 101.697 113.474 100.882 114.668 100.227Z" fill="white"></path>
</svg>