<svg height="100%" viewbox="0 0 200 200" width="100%" xmlns="http://www.w3.org/2000/svg">
<path d="M118.262 22C118.262 22 99.5132 26.9628 89.5875 25.86C79.6619 24.7572 74.6992 20.1121 59.1832 25.86C43.6671 31.6078 39.9596 33.5799 33.3426 53.9825C26.7255 74.3851 9 92.4349 9 92.4349C9 92.4349 19.3318 90.221 24.4977 92.7603C29.6637 95.2996 34.8185 90.221 34.8185 90.221C34.8185 90.221 32.6046 96.8629 25.9737 97.6008C19.3429 98.3388 17.1179 113.837 17.1179 113.837C17.1179 113.837 23.7598 107.835 29.6637 108.573C35.5676 109.311 39.9955 105.719 39.9955 105.719C39.9955 105.719 34.8075 115.313 33.3426 119.002C31.8776 122.692 22.2838 131.548 22.2838 131.548C22.2838 131.548 40.7335 130.072 43.6854 124.168C46.6374 118.264 51.8033 116.051 51.8033 116.051C51.8033 116.051 52.5413 126.382 45.8994 131.548C39.2575 136.714 34.0916 140.404 34.0916 140.404C34.0916 140.404 45.8994 146.894 53.2793 142.618C60.6591 138.342 61.3971 131.548 61.3971 131.548L65.825 140.556L63.6708 165.37L53.2793 161.806L45.8994 169.186L54.0172 165.37L50.3273 170.662L56.2312 168.448L74.6992 173.641L76.8949 146.308L80.5848 135.238L89.5875 138.928C89.5875 138.928 91.2418 159.855 89.5875 162.613C87.9333 165.37 89.5875 169.781 89.5875 169.781L103.925 178.604L137.41 164.02L130.03 175.828L141.1 178.604L151.898 177.501L141.838 175.828L137.41 173.641L144.052 170.662L151.898 173.641L159.067 165.37L149.956 169.781L145.528 165.37L149.141 155.996L121.019 161.51V155.996C121.019 155.996 130.945 131.548 155.121 135.238C179.297 138.928 180.213 155.48 180.213 155.48C180.213 155.48 175.785 162.418 177.261 165.37C178.737 168.322 183.313 177.501 183.313 177.501C183.313 177.501 189.807 169.087 189.807 165.37C189.807 161.652 183.313 155.48 183.313 155.48C183.313 155.48 181.461 133.551 169.881 126.382C158.301 119.214 107.152 108.573 107.152 108.573C107.152 108.573 142.982 113.739 149.141 110.885C155.3 108.03 174.309 74.7232 174.309 74.7232L149.141 80.6271C162.161 72.4094 175.199 66.7637 181.689 52.3282L149.141 71.0333C159.092 62.1114 169.923 54.7903 173.571 41.5138L141.1 67.3434C151.066 56.51 160.736 46.814 166.929 33.3959L95.3445 98.3388C89.1157 92.11 76.9627 85.63 74.6992 77.1422C72.4934 68.8709 74.6992 61.151 74.6992 61.151C74.6992 61.151 96.756 60.0481 103.373 58.3938C109.99 56.7395 113.85 49.5711 113.85 49.5711C113.85 49.5711 105.579 53.9825 96.7561 53.9825C87.9333 53.9825 82.4191 52.3282 82.4191 52.3282L113.85 40.7483L118.262 22Z" fill="black"></path>
<path d="M25.5723 44.4658L93.3491 103.061L109.366 113.837C109.366 113.837 65.8561 133.448 59.621 130.535C53.3858 127.623 36.2514 99.7009 36.2514 99.7009L61.288 98.6968L34.2706 91.1833L32.2898 82.6657L59.7643 92.1448L32.4289 73.9498L30.4481 65.4322L58.0883 84.9377L28.4673 56.9146L25.5723 44.4658Z" fill="#3E3E60"></path>
<path d="M68.9054 99.6557C71.8107 94.2149 77.6161 94.6177 83.102 98.6707C87.3095 101.779 90.1568 105.567 90.1568 105.567C90.1568 105.567 94.862 111.648 88.1693 115.219C84.1506 117.363 79.4117 109.575 79.4117 109.575C79.4117 109.575 79.8326 115.509 78.9292 113.546C78.0257 111.583 75.6709 108.728 72.8162 107.866C69.9614 107.004 76.4213 107.038 76.4213 107.038C76.4213 107.038 66.4859 104.187 68.9054 99.6557Z" fill="white"></path>
<path d="M89.0373 107.523C87.9044 108.976 83.9024 107.75 80.0986 104.784C76.2948 101.819 74.1296 98.2368 75.2624 96.7837C76.3953 95.3306 80.7006 97.4079 84.5044 100.373C88.3082 103.339 90.1701 106.07 89.0373 107.523Z" fill="#3E3E60"></path>
<path d="M83.8629 100.822C85.4651 102.035 86.3505 103.125 85.1373 104.727C83.9242 106.33 81.6419 106.645 80.0397 105.432C78.4375 104.219 78.1221 101.937 79.3353 100.334C80.5484 98.7321 82.2607 99.6087 83.8629 100.822Z" fill="white"></path>
<path d="M78.9459 41.9493C76.572 36.2566 80.558 32.0166 87.1679 30.3342C92.2375 29.0438 96.9724 29.2366 96.9724 29.2366C96.9724 29.2366 104.658 29.4417 103.187 36.8834C102.304 41.3518 93.2753 40.0925 93.2753 40.0925C93.2753 40.0925 98.1362 43.5221 96.0446 42.9794C93.953 42.4366 90.2521 42.4529 87.7781 44.1177C85.3041 45.7825 89.4183 40.8021 89.4183 40.8021C89.4183 40.8021 80.923 46.6904 78.9459 41.9493Z" fill="white"></path>
<path d="M97.7774 31.3402C98.1855 33.137 94.7035 35.4596 90.0001 36.528C85.2967 37.5963 81.153 37.0059 80.7449 35.2091C80.3368 33.4124 84.6698 31.3936 89.3732 30.3252C94.0766 29.2568 97.3693 29.5435 97.7774 31.3402Z" fill="black"></path>
<path d="M89.3146 31.1047C91.2679 30.6319 92.6724 30.6364 93.1451 32.5897C93.6179 34.5429 92.4177 36.5096 90.4644 36.9824C88.5112 37.4551 86.5445 36.2549 86.0717 34.3017C85.599 32.3484 87.3613 31.5774 89.3146 31.1047Z" fill="white"></path>
<path d="M107.728 102.658C103.951 97.7816 106.693 92.6487 112.635 89.3001C117.193 86.7319 121.814 85.6828 121.814 85.6828C121.814 85.6828 129.287 83.8759 129.808 91.4436C130.121 95.9877 121.077 97.1273 121.077 97.1273C121.077 97.1273 126.664 99.1701 124.503 99.1918C122.342 99.2134 118.774 100.195 116.82 102.447C114.866 104.7 117.538 98.8185 117.538 98.8185C117.538 98.8185 110.873 106.719 107.728 102.658Z" fill="white"></path>
<path d="M123.14 87.5032C124.002 89.1313 121.247 92.2818 116.985 94.5402C112.723 96.7986 108.569 97.3095 107.706 95.6815C106.844 94.0534 110.5 90.9741 114.762 88.7158C119.024 86.4574 122.277 85.8752 123.14 87.5032Z" fill="black"></path>
<path d="M114.909 89.4837C116.671 88.5178 118.028 88.1557 118.994 89.918C119.96 91.6803 119.315 93.892 117.552 94.8579C115.79 95.8239 113.578 95.1783 112.612 93.416C111.646 91.6537 113.147 90.4497 114.909 89.4837Z" fill="white"></path>
<path d="M181.904 160.451C184.397 159.638 186.059 161.47 186.548 164.328C186.923 166.52 186.682 168.52 186.682 168.52C186.682 168.52 186.334 171.77 183.231 170.895C181.367 170.369 182.206 166.586 182.206 166.586C182.206 166.586 180.588 168.53 180.889 167.662C181.19 166.794 181.308 165.225 180.687 164.12C180.065 163.016 182.036 164.928 182.036 164.928C182.036 164.928 179.828 161.128 181.904 160.451Z" fill="white"></path>
<path d="M185.764 168.79C184.989 168.902 184.122 167.348 183.829 165.319C183.535 163.289 183.925 161.553 184.701 161.441C185.476 161.329 186.185 163.234 186.478 165.263C186.772 167.292 186.539 168.678 185.764 168.79Z" fill="black"></path>
<path d="M186.15 165.212C186.284 166.055 186.234 166.651 185.391 166.785C184.547 166.919 183.754 166.344 183.62 165.5C183.486 164.656 184.061 163.864 184.905 163.729C185.748 163.595 186.015 164.368 186.15 165.212Z" fill="white"></path>
</svg>