<svg height="100%" viewbox="0 0 200 200" width="100%" xmlns="http://www.w3.org/2000/svg">
<path d="M98.8789 61.7833C83.3201 73.8846 83.7523 103.706 72.0832 115.375C55.8776 131.58 40.1476 124.796 28 108.46C37.2495 140.017 73.5691 161.949 104 147C128.635 134.899 123.5 105 133.5 98C143.5 91 152.953 88.1044 158.572 82.0537C164.19 76.0031 167.241 57.4615 155.572 57.4615C143.903 57.4614 114.438 49.6821 98.8789 61.7833Z" fill="black"></path>
<path d="M141 73.2689C141 73.2689 136.379 82.911 123.003 81.3837C109.627 79.8564 108.437 69.8147 108.437 69.8147C108.437 69.8147 119.913 60.5753 127.795 62.8831C135.119 65.0279 141 73.2689 141 73.2689Z" fill="white"></path>
<path d="M127.498 79.2015C127.498 79.2015 122.245 77.2134 120.746 73.5949C119.248 69.9764 123.229 64.4863 123.229 64.4863C123.229 64.4863 128.963 64.9843 130.586 70.5778C131.765 74.6413 127.498 79.2015 127.498 79.2015Z" fill="black"></path>
<path d="M126.781 75.3769C126.781 75.3769 127.396 72.618 126.497 70.4465C125.597 68.275 124.219 66.5462 124.219 66.5462C124.219 66.5462 127.66 66.8451 128.634 70.2018C129.342 72.6403 126.781 75.3769 126.781 75.3769Z" fill="white"></path>
</svg>