<svg height="100%" viewbox="0 0 200 200" width="100%" xmlns="http://www.w3.org/2000/svg">
<path d="M155.849 120.198C150.747 153.519 115.007 177.272 115.007 177.272L108.545 153.948C108.545 153.948 150.504 134.6 146.472 107.11C142.44 79.6194 113.13 72.8989 82.7181 67.1467C120.04 69.3585 160.951 86.8761 155.849 120.198Z" fill="#3E3E60"></path>
<path d="M81.4887 76.1758C98.0417 71.6978 117 74.545 124.702 77.7789C132.404 81.0127 133.363 94.0467 133.363 94.0467C129.688 82.8537 102.398 70.5192 89.6851 88.1381C76.972 105.757 61.648 99.5331 61.648 99.5331C61.648 99.5331 64.9357 80.6539 81.4887 76.1758Z" fill="#3E3E60"></path>
<path d="M107.311 70.6754C113.588 74.7921 131.544 75.9142 131.544 75.9142C131.544 75.9142 121.904 70.8302 115.012 62.5158C108.12 54.2013 89.1416 61.0343 89.1416 61.0343C89.1416 61.0343 101.034 66.5586 107.311 70.6754Z" fill="#3E3E60"></path>
<path d="M69.1546 95.8391C69.1546 95.8391 74.1603 98.191 79.1379 93.6646C84.1155 89.1381 81.3575 84.9215 81.3575 84.9215C81.3575 84.9215 73.6782 84.7429 71.2001 87.9521C68.8971 90.9345 69.1546 95.8391 69.1546 95.8391Z" fill="white"></path>
<path d="M76.5945 94.1478C76.5945 94.1478 78.1007 91.8356 77.5445 90.0011C76.9883 88.1666 73.5861 87.2248 73.5861 87.2248C73.5861 87.2248 71.4013 89.1051 72.5449 91.7366C73.3757 93.6483 76.5945 94.1478 76.5945 94.1478Z" fill="#3E3E60"></path>
<path d="M75.6518 92.4641C75.6518 92.4641 74.5087 91.583 74.1749 90.482C73.8411 89.3811 73.8464 88.3096 73.8464 88.3096C73.8464 88.3096 72.5353 89.438 73.2216 91.0172C73.7201 92.1644 75.6518 92.4641 75.6518 92.4641Z" fill="white"></path>
<path d="M103.135 61.3013C103.135 61.3013 107.087 58.8838 111.882 62.3059C116.677 65.728 114.869 69.5388 114.869 69.5388C114.869 69.5388 108.374 70.3373 105.866 67.8225C103.535 65.4854 103.135 61.3013 103.135 61.3013Z" fill="white"></path>
<path d="M109.662 62.1098C109.662 62.1098 111.232 63.9451 110.992 65.5489C110.751 67.1526 107.983 68.2384 107.983 68.2384C107.983 68.2384 105.891 66.8267 106.53 64.4971C106.994 62.8048 109.662 62.1098 109.662 62.1098Z" fill="#3E3E60"></path>
<path d="M109.075 63.6182C109.075 63.6182 108.216 64.4623 108.071 65.4247C107.927 66.3871 108.067 67.296 108.067 67.296C108.067 67.296 106.812 66.4489 107.195 65.0509C107.473 64.0353 109.075 63.6182 109.075 63.6182Z" fill="white"></path>
<path d="M60.8321 111.62C62.6182 113.475 60.0835 115.382 60.4293 117.254C60.7752 119.126 69.0631 121.573 69.1043 122.913C69.1456 124.253 63.5419 134.103 63.5419 134.103L51.9413 133.113C51.9413 133.113 61.0609 126.291 60.9403 124.485C60.8197 122.679 55.7137 118.517 55.804 116.774C55.8944 115.03 59.046 109.766 60.8321 111.62Z" fill="#3E3E60"></path>
<path d="M45.3151 84.3889C40.2816 82.4808 38.911 89.467 38.911 89.467L42.7262 91.8585C42.7262 91.8585 43.3293 90.2454 44.5821 88.4946C45.8349 86.7438 50.3486 86.297 45.3151 84.3889Z" fill="#3E3E60"></path>
<path d="M21.7011 113.022C25.5324 125.585 33.8381 128.93 41.8125 151.682C49.7869 174.433 77.4292 189.554 105.518 183.601C133.607 177.648 106.893 130.905 79.103 133.465C51.3132 136.025 50.8673 107.669 49.3545 102.132C47.8418 96.5958 47.0624 92.6284 41.1932 89.1977C35.3239 85.7671 33.212 87.9687 30.9571 91.9669C28.7023 95.965 17.8698 100.458 21.7011 113.022Z" fill="black"></path>
<path d="M41.0038 103.337C41.0038 103.337 46.1361 105.433 45.664 111.936C45.1919 118.439 39.992 119.164 39.992 119.164C39.992 119.164 34.9038 113.741 35.915 109.889C36.8548 106.308 41.0038 103.337 41.0038 103.337Z" fill="white"></path>
<path d="M44.4195 109.79C44.4195 109.79 43.5112 112.364 41.6633 113.144C39.8154 113.924 36.8605 112.076 36.8605 112.076C36.8605 112.076 36.9813 109.291 39.8546 108.421C41.942 107.79 44.4195 109.79 44.4195 109.79Z" fill="black"></path>
<path d="M42.445 110.194C42.445 110.194 40.9935 109.936 39.8846 110.404C38.7756 110.872 37.9088 111.566 37.9088 111.566C37.9088 111.566 37.9812 109.894 39.7055 109.372C40.9582 108.994 42.445 110.194 42.445 110.194Z" fill="white"></path>
<path d="M14.6651 108.901L23.4222 109.839L24.125 103.273C20.5299 104.713 17.5581 106.251 14.6651 108.901Z" fill="black"></path>
<path d="M24.1256 130.154L31.0793 125.241L26.7229 119.956C25.2003 123.358 24.2308 126.396 24.1256 130.154Z" fill="black"></path>
<path d="M38.3051 85.5732L37.7212 88.2354L36.637 88.4424L35.4011 87.7629C35.4011 87.7629 36.0002 87.1361 36.444 86.6917C36.8877 86.2472 38.3051 85.5732 38.3051 85.5732Z" fill="black"></path>
<path d="M47.2304 91.168L43.6951 91.9185L43.4499 93.1762L44.392 94.5837C44.392 94.5837 45.2111 93.8739 45.7914 93.3489C46.3717 92.8238 47.2304 91.168 47.2304 91.168Z" fill="black"></path>
<path d="M80.4435 117.045C81.5945 119.288 78.5689 120.435 78.3278 122.313C78.0866 124.19 85.3171 128.723 84.946 130.012C84.5749 131.301 76.1574 139.212 76.1574 139.212L65.2901 135.19C65.2901 135.19 76.1644 131.101 76.6021 129.346C77.0397 127.592 73.3994 122.267 74.0211 120.627C74.6428 118.988 79.2924 114.802 80.4435 117.045Z" fill="black"></path>
<path d="M174.894 114.383C169.302 170.73 104.306 183.753 104.306 183.753L109.602 159.479C109.602 159.479 163.362 147.219 163.588 104.761C163.814 62.3019 125.899 17.2261 65.404 22.4193C113.443 5.36026 180.486 58.0365 174.894 114.383Z" fill="black"></path>
<path d="M77.9062 24.8164C94.3565 20.9262 108.947 22.782 116.35 29.6398C123.752 36.4976 110.253 45.0926 110.253 45.0926C117.544 34.218 105.53 25.1286 80.7848 40.8227C56.0396 56.5169 43.9288 43.9558 43.9288 43.9558C43.9288 43.9558 61.4558 28.7067 77.9062 24.8164Z" fill="black"></path>
<path d="M54.4528 43.3821C54.4528 43.3821 59.1277 48.1335 67.522 44.7799C75.9163 41.4262 74.9344 35.3713 74.9344 35.3713C74.9344 35.3713 65.8916 32.1176 61.191 34.9119C56.8226 37.5087 54.4528 43.3821 54.4528 43.3821Z" fill="white"></path>
<path d="M64.2308 44.3406C64.2308 44.3406 67.285 42.2167 67.624 39.8376C67.9631 37.4584 64.4274 35.0018 64.4274 35.0018C64.4274 35.0018 60.8011 36.3485 60.7264 39.8983C60.6721 42.4772 64.2308 44.3406 64.2308 44.3406Z" fill="black"></path>
<path d="M64.0276 41.9852C64.0276 41.9852 63.1478 40.4953 63.3512 39.0675C63.5547 37.6398 64.1456 36.381 64.1456 36.381C64.1456 36.381 61.9694 37.1891 61.9245 39.3194C61.892 40.867 64.0276 41.9852 64.0276 41.9852Z" fill="white"></path>
<defs></defs>
</svg>