<svg height="100%" viewBox="0 0 200 200" width="100%" xmlns="http://www.w3.org/2000/svg">
<path d="M108.5 167.5C109.333 162.667 108.5 148.5 108.5 148.5C108.5 148.5 103.5 153 94 153C84.5 153 75 148.5 75 148.5L69.5 167.5H57.5L46.5 118C46.5 118 46.5 141 40 148.5C33.5 156 16 141 16 141C38.2941 136.754 35.1085 105.805 59.5 97.9999C72 93.9999 89 90.9999 94 86.4999C99 81.9999 106 63 106 63L96 58.9997C96 58.9997 121 44.4999 128 46.4999C147.289 52.0109 166.593 70.9194 177.5 86.4999C181 91.4998 172.5 103 168.5 103.5C164.5 104 144 102 144 102L123 167.5H108.5Z" fill="black"></path>
<path d="M137 84.4545L158 91L154.659 88.8182V84.4545L157.045 83H137V84.4545Z" fill="white"></path>
<path d="M40.7667 129.616L35.7725 144.919L35.8866 142.001L33.2832 140.152L31.4041 140.959L39.8989 129L40.7667 129.616Z" fill="white"></path>
</svg>