<svg height="100%" viewBox="0 0 200 200" width="100%" xmlns="http://www.w3.org/2000/svg">
<path d="M113 178.5C113.833 173.667 110.5 157.5 110.5 157.5C110.5 157.5 101.5 162.5 93 162.5C84.5 162.5 77 157.5 77 157.5L71.5 176.5L77 180H59.5L52 139.5C52 139.5 48 167 41.5 174.5C35 182 13 154.5 13 154.5C35.2941 150.254 37.1085 114.805 61.5 107C74 103 91 99.9999 96 95.4999C101 90.9999 113 53 113 53L96 62C96 62 109 24.4986 137 27.9992C165 31.4998 175.593 52.4187 186.5 67.9992C190 72.9991 181.5 84.4991 177.5 84.9992C173.5 85.4993 153 83.4992 153 83.4992L125.5 174.5L130.5 178.5H113Z" fill="black"></path>
<path d="M148 67.4545L169 74L165.659 71.8182V67.4545L168.045 66H148V67.4545Z" fill="white"></path>
<path d="M40.7667 141.616L35.7725 156.919L35.8866 154.001L33.2832 152.152L31.4041 152.959L39.8989 141L40.7667 141.616Z" fill="white"></path>
<path d="M68.5016 85.0001C73.5016 81.5001 91.5016 98.5001 91.5016 98.5001L88.5016 103C88.5016 103 84.0016 109 78.0016 106.5C70.3625 103.317 69.2992 97.7026 73.5016 93.5001C73.5016 93.5001 63.5016 88.5001 68.5016 85.0001Z" fill="#3E3E60"></path>
<path d="M114.856 43.6275L107.023 52.0145L107.98 50.1883L106.877 48.3062L105.431 48.311L114.489 43.0001L114.856 43.6275Z" fill="white"></path>
</svg>