<svg height="100%" viewbox="0 0 200 200" width="100%" xmlns="http://www.w3.org/2000/svg">
<path d="M108 176.5L102 151H117L121.5 173.5L125 176.5H108Z" fill="#3E3E60"></path>
<path d="M63 178.5L68.5 153H83.5L76.5 175.5L80 178.5H63Z" fill="#3E3E60"></path>
<path d="M66.4989 88.1627C69.6405 82.6158 93.5509 93.6258 93.5509 93.6258L92.6877 99.4658C92.6877 99.4658 91.0736 107.441 84.4515 107.085C76.0204 106.632 72.6452 101.156 74.749 95.1749C74.749 95.1749 63.3574 93.7097 66.4989 88.1627Z" fill="black"></path>
<path d="M116 186.565L106.5 160.578C106.5 160.578 100.5 164.5 95 164.5C89.5 164.5 81.5 160.578 81.5 160.578L67.5 182.045L73 186H55.5L53.5 128.5C53.5 128.5 44 171.312 37.5 179.786C31 188.26 9 157.189 9 157.189C32 163 29.1085 112.819 53.5 104C66 99.4806 87 95.6113 92 90.5269C97 85.4425 106.5 41 106.5 41L92 48.0001C92 48.0001 108 12.3055 136 16.2607C164 20.2159 179.593 52.8513 190.5 70.455C194 76.1042 185.5 89.0976 181.5 89.6626C177.5 90.2277 159 83.0001 159 83.0001L128.5 182.045L133.5 186.565H116Z" fill="black"></path>
<path d="M143 63.8394L164 71.2349L160.659 68.7697V63.8394L163.045 62.196H143V63.8394Z" fill="white"></path>
<path d="M38.7667 145.697L33.7725 162.987L33.8866 159.69L31.2832 157.6L29.4041 158.513L37.8989 145L38.7667 145.697Z" fill="white"></path>
<path d="M58.4049 100.611C59.5407 94.3386 85.7448 96.8445 85.7448 96.8445L86.8564 102.642C86.8564 102.642 87.9635 110.703 81.5948 112.552C73.4862 114.906 68.4936 110.85 68.5063 104.509C68.5063 104.509 57.2691 106.884 58.4049 100.611Z" fill="#3E3E60"></path>
<path d="M118.034 27.641L109.89 35.727L110.916 33.9381L109.884 32.0157L108.439 31.9661L117.69 27.0002L118.034 27.641Z" fill="white"></path>
<path d="M113.834 161.364L116.5 172.526L116.57 170.465L118.459 169.374L119.714 170.093L114.464 161L113.834 161.364Z" fill="white"></path>
</svg>