<svg height="100%" viewbox="0 0 200 200" width="100%" xmlns="http://www.w3.org/2000/svg">
<path d="M104 181.545L98 156.045H113L117.5 178.545C117.5 178.545 124.5 179.591 121 181.545C117.5 183.5 104 181.545 104 181.545Z" fill="#3E3E60"></path>
<path d="M59 183.545L64.5 158.045H79.5L72.5 180.545C72.5 180.545 79.5 182.091 76 183.545C72.5 185 59 183.545 59 183.545Z" fill="#3E3E60"></path>
<path d="M40.0936 101.651C48.3863 94.3235 89.9662 99.2662 89.9662 99.2662L85.9414 106.202C85.9414 106.202 79.6069 115.812 67.0014 117.515C50.9525 119.684 46.6697 114.514 53.1401 107.021C53.1401 107.021 31.8008 108.978 40.0936 101.651Z" fill="black"></path>
<path d="M112 191.61L102.5 165.623C102.5 165.623 97 168.5 90 168C83 167.5 77.5 165.623 77.5 165.623L63.5 187.091C63.5 187.091 72.5 189.09 69 191.045C65.5 193 51.5 191.045 51.5 191.045L46 165.623C46 165.623 44 176 33.5 184.831C23 193.662 5 162.234 5 162.234C28 168.045 25.1085 124.864 49.5 116.045C83.5701 103.727 79.7263 93.4284 88 61.5L57.5 58C57.5 58 110 6.35078 138 10.3059C166 14.2611 181.593 47.8965 192.5 65.5003C196 71.1494 187.5 84.1428 183.5 84.7079C179.5 85.2729 152 73.0454 152 73.0454L124.5 187.091C124.5 187.091 133 190.22 129.5 191.61C126 193 112 191.61 112 191.61Z" fill="black"></path>
<path d="M140 59.6436L161 67.0391L157.659 64.5739V59.6436L160.045 58.0002H140V59.6436Z" fill="white"></path>
<path d="M139.242 63.6728L146.327 70.1166L145.416 68.5639L146.244 66.5453L147.466 66.2607L139.518 63L139.242 63.6728Z" fill="white"></path>
<path d="M34.7667 150.742L29.7725 168.032L29.8866 164.735L27.2832 162.646L25.4041 163.558L33.8989 150.045L34.7667 150.742Z" fill="white"></path>
<path d="M56.9557 134.078C57.5382 123.459 83.9986 100 88.9986 104C93.9986 108 93.9368 118.439 86.895 127.329C77.2679 139.484 70.6308 138.709 69.8291 129.183C69.8291 129.183 56.3731 144.696 56.9557 134.078Z" fill="#3E3E60"></path>
<path d="M100.547 35.1402L86.154 50.112L87.9347 46.8325L85.9869 43.3982L83.37 43.3694L99.8977 33.9955L100.547 35.1402Z" fill="white"></path>
<path d="M109.834 166.409L112.5 177.572L112.57 175.511L114.459 174.42L115.714 175.139L110.464 166.045L109.834 166.409Z" fill="white"></path>
<path d="M189.786 23L166 35.8571L175 45.5L189.786 23Z" fill="black"></path>
<path d="M189.786 23L166 35.8571L167.929 41.6429L189.786 23Z" fill="#3E3E60"></path>
</svg>