<svg height="100%" viewbox="0 0 200 200" width="100%" xmlns="http://www.w3.org/2000/svg">
<path d="M141.5 85.5008C155.033 84.2543 163 85.5004 163 85.5004C151.455 76.6013 149.215 53.3598 123.5 56.5006C97.7851 59.6415 91.1033 83.8946 85.8554 92.2703C80.6074 100.646 75.5958 109.718 63 116C50.4042 122.282 36 112.162 36 112.162C51.8096 134.942 56.6653 138 64.5 141.5C72.3347 145 111 147.5 116 139.5C121 131.5 122 124 123.5 112.5C125 101 127.967 86.7472 141.5 85.5008Z" fill="black"></path>
<path d="M138.838 77.242C142.253 79.5542 146.492 82.0985 146.492 82.0985L139.503 79.228L143.99 82.5888C143.99 82.5888 142.643 82.3357 138.5 80.0675C134.357 77.7993 129.504 79.0326 129.504 79.0326L125.422 80.6906L129.076 77.7788L122.337 78.0526L128.751 76.3951L121.112 72C121.112 72 126.301 74.3186 129.987 75.1771C133.673 76.0357 135.422 74.9298 138.838 77.242Z" fill="white"></path>
</svg>