<svg height="100%" viewbox="0 0 200 200" width="100%" xmlns="http://www.w3.org/2000/svg">
<path d="M126.571 101.922L121.986 111.141L115 111.939L102.016 110.679L104 103.856L116.5 107.939L120.003 108.256L124.589 99.0379L137 103.856L126.571 101.922Z" fill="black"></path>
<path d="M134.5 65.9994C114.502 73.9989 131 85.6875 95 96.1807C59 106.674 60.7508 122.963 55.5 128.174C49.236 134.39 40.1758 133.706 40.1758 133.706C40.1758 133.706 86.5 143.674 98 128.174C109.5 112.674 109 106.674 113 100.174C117 93.6739 118.5 90.1738 132 90.1738C145.5 90.1738 153 80.4994 165.5 80.9997C178 81.5 181 83.9997 181 83.9997C172 71.0001 154.498 57.9999 134.5 65.9994Z" fill="black"></path>
<path d="M125 77.5L140 75.5L149 72L160.5 75.5H168.5L174 76.5H168.5L154.5 81L150.5 80L125 77.5Z" fill="#3E3E60"></path>
<path d="M61.5 88L87 120.5L81.5 127H77.5L68 119L60 102L45 122.5L29 140L14 141.5L27.5 138L43.5 120.5L61.5 88Z" fill="black"></path>
<path d="M123.5 129.5L112.5 135.5L97 117.5L102 111L114.5 131L123.5 126L131 137L123.5 129.5Z" fill="black"></path>
<path d="M149.419 75.7C153.446 76.5891 158.325 77.3902 158.325 77.3902L150.77 77.3006L156.18 78.7689C156.18 78.7689 154.834 79.0307 150.147 78.4509C145.459 77.8711 141.404 80.8078 141.404 80.8078L138.222 83.8545L140.544 79.8002L134.381 82.541L139.731 78.6339L131.009 77.3672C131.009 77.3672 136.687 77.608 140.43 77.0461C144.173 76.4842 145.391 74.8109 149.419 75.7Z" fill="white"></path>
<path d="M73.2527 110.686C73.8198 113.368 74.6738 116.541 74.6738 116.541L72.6546 111.943L73.2506 115.621C73.2506 115.621 72.7229 114.879 71.7873 111.882C70.8517 108.885 67.9609 107.236 67.9609 107.236L65.2435 106.146L68.3349 106.439L64.9843 103.461L68.818 105.627L67.1909 100C67.1909 100 68.6035 103.503 69.9709 105.615C71.3383 107.726 72.6855 108.004 73.2527 110.686Z" fill="white"></path>
</svg>