<svg height="100%" viewBox="0 0 200 200" width="100%" xmlns="http://www.w3.org/2000/svg">
<path d="M70.6412 11L93.1412 75.5L89.1412 75.5L72.8754 71.1046L64.6412 62.0001L87.2592 71.1046L74.6412 58.8345L63.925 38.1274L87.2592 68L72.8754 39.2739L70.6412 11Z" fill="black"></path>
<path d="M55.8481 141.688L57.4252 121.285L54.8851 116.061L58.729 111.479L63.8907 116.914L63.498 126.601L60 139L87 150L92.5 155L92.5 166.5L89.5 155L85.2587 151.283L55.8481 141.688Z" fill="black"></path>
<path d="M92.2812 93.8881L98.6428 79.1606L104.464 77.9902L107.419 83.864L95.9285 93.443L105.204 103.553L134.726 95.5041L130.784 86.7867L154.881 109.959L154.713 137.626L150.747 112.968L134.099 98.8L104.23 108.68L92.2812 93.8881Z" fill="black"></path>
<path d="M120.444 57.7877C125 57.5 137.827 61.005 137.827 61.005L141.767 64.9703C141.767 64.9703 135.5 69.5 129.881 73.629C124.262 77.758 100.463 76.382 100.463 76.382C100.463 76.382 115.888 58.0754 120.444 57.7877Z" fill="black"></path>
<path d="M78.515 65.019C86.711 66.535 103.329 67.1336 104.664 69.3169C106 71.5003 111 76.5002 111.099 79.4952C111.197 82.4902 95.0475 106.246 95.0475 106.246L66.2829 108.612L63.8979 144.703L56.2395 101.894L78.515 65.019Z" fill="black"></path>
<path d="M8.99988 30.4996L76.4998 84.1873L69.4998 89.0002L43.2817 96.503L54.9998 87.5002L66.0952 84.1873L38.4998 80.0002L15.3838 64.0344L66.0952 81.0002L31.0763 58.936L8.99988 30.4996Z" fill="#3E3E60"></path>
<path d="M81.5508 98.9608L87.3667 78.635L91.6403 76.2971L93.2593 83.6571L84.2041 97.8768L89.9943 109.976L111.849 95.3266L109.765 84.3432L125.071 111.688L122.595 148.27L121.85 116.225L111.119 99.7671L88.859 116.883L81.5508 98.9608Z" fill="#3E3E60"></path>
<path d="M44.3641 119.356C46.7282 114.212 59.8524 106.406 59.8524 106.406L64.2241 101.137L68.2986 113.561C68.2986 113.561 80.9146 129.842 80.7073 135.421C80.5 141 69.9557 149.632 75.8699 154.835C81.7841 160.038 88.8751 162.214 88.8751 162.214L74.693 157.862L52.1019 143.272C52.1019 143.272 42 124.5 44.3641 119.356Z" fill="black"></path>
<path d="M37.3417 136.288L50.3617 120.345L51.2017 114.622L57.0817 112.986L60.9999 120.345L52.9999 131L42.9999 136.288L58.3417 156.5L62.9999 171L59.4999 181.5L60.9999 171L57.0817 157.5L37.3417 136.288Z" fill="#3E3E60"></path>
<path d="M156.291 47.6572C162.032 52.8776 165.685 76.3642 165.685 76.3642C165.685 76.3642 160.466 53.9213 156.291 49.745C152.115 45.5687 121.319 39.8274 121.319 39.8274C107.148 36.4016 103.709 16.5267 103.143 12.3936C103.076 11.9097 103.05 11.6409 103.05 11.6409C103.05 11.6409 103.077 11.9091 103.143 12.3936C103.685 16.2789 106.93 34.0266 121.319 37.7399C137.5 41.9156 150.549 42.4367 156.291 47.6572Z" fill="#3E3E60"></path>
<path d="M139.065 80.5401C134.368 74.2411 136.005 58.7011 137.883 57.3748C137.883 57.3748 149.812 56.0236 154.095 59.4085C158.378 62.7934 172.028 80.6107 172.511 86.3169C172.993 92.0232 171.545 123.679 171.545 123.679C171.545 123.679 165.172 107.694 160.988 101.94C156.804 96.1872 143.763 86.839 139.065 80.5401Z" fill="black"></path>
<path d="M147.9 64.032L154.52 79.5436L159.946 84.986L161.148 94.521L163.881 102.64L165.746 108.17L162.968 103.145L153.092 91.818L151.985 87.6586L150.096 76.5842L147.9 64.032Z" fill="#3E3E60"></path>
<path d="M158.055 88.7963C158.624 92.5067 159.548 96.9102 159.548 96.9102L157.141 90.469L157.673 95.5433C157.673 95.5433 157.008 94.4873 155.96 90.3185C154.911 86.1497 151.086 83.6728 151.086 83.6728L147.455 81.9739L151.658 82.6118L147.307 78.2821L152.381 81.5391L150.59 73.7205C150.59 73.7205 152.252 78.6186 153.959 81.6104C155.666 84.6022 157.486 85.086 158.055 88.7963Z" fill="white"></path>
<path d="M125.499 64.6976C128.683 65.3614 132.536 65.948 132.536 65.948L126.579 65.947L130.858 67.0548C130.858 67.0548 129.8 67.2736 126.099 66.8597C122.398 66.4459 119.227 68.7986 119.227 68.7986L116.747 71.23L118.54 68.0122L113.706 70.2299L117.889 67.1001L111 66.1819C111 66.1819 115.479 66.3194 118.425 65.8418C121.371 65.3643 122.316 64.0338 125.499 64.6976Z" fill="white"></path>
<path d="M88.8085 71.8852C92.06 71.8266 95.9477 71.5442 95.9477 71.5442L90.1386 72.8641L94.5568 72.9955C94.5568 72.9955 93.5732 73.4435 89.8725 73.8606C86.1719 74.2777 83.602 77.2749 83.602 77.2749L81.7225 80.1957L82.7574 76.6604L78.5358 79.8946L81.9202 75.9154L74.9999 76.5474C74.9999 76.5474 79.3978 75.6883 82.1643 74.5695C84.9307 73.4507 85.5571 71.9439 88.8085 71.8852Z" fill="white"></path>
<path d="M51.7948 122.471C53.7273 121.395 55.9701 119.981 55.9701 119.981L52.9064 122.633L55.6 121.298C55.6 121.298 55.1531 121.881 53.0657 123.316C50.9783 124.751 50.3955 127.373 50.3955 127.373L50.2026 129.727L49.6919 127.274L48.1937 130.567L48.951 127.095L45.0001 129.69C45.0001 129.69 47.3645 127.766 48.6666 126.209C49.9687 124.652 49.8622 123.548 51.7948 122.471Z" fill="white"></path>
<path d="M141.154 54.4415C147.939 60.1841 153.681 78.9747 153.681 78.9747C153.681 78.9747 147.236 60.1841 139.066 56.0085C130.895 51.8328 118.187 49.7449 109.315 45.5692C100.442 41.3936 86.8698 10.5979 86.8698 10.5979C86.8698 10.5979 100.441 38.2618 111.402 42.9594C122.363 47.6571 134.368 48.699 141.154 54.4415Z" fill="black"></path>
<defs></defs>
</svg>