<svg height="100%" viewbox="0 0 200 200" width="100%" xmlns="http://www.w3.org/2000/svg">
<path d="M107.371 47.5724C115.047 48.3112 131 59.001 131 59.001C131 59.001 114.308 49.3603 108.517 48.6305C102.726 47.9008 73.777 55.2186 73.777 55.2186C60.0249 58.1889 46.2338 49.2583 43.4911 47.3515C43.1689 47.1287 42.9999 47.001 42.9999 47.001C42.9999 47.001 43.1696 47.128 43.4911 47.3515C46.0781 49.1405 58.5389 57.0575 72.6311 54.1607C88.4781 50.9031 99.6951 46.8337 107.371 47.5724Z" fill="#3E3E60"></path>
<path d="M64.5541 8.01489L87.0541 72.5149L83.0541 72.5149L66.7883 68.1194L58.5541 59.015L83.0541 70.0002L66.7883 36.2888L64.5541 8.01489Z" fill="black"></path>
<path d="M49.7609 138.703L51.338 118.3L48.7979 113.076L52.6418 108.494L57.8035 113.929L57.4108 123.616L53.9128 136.015L80.9128 147.015L86.4128 152.015L86.4128 163.515L83.4128 152.015L79.1716 148.298L49.7609 138.703Z" fill="black"></path>
<path d="M76.8571 103.895L84.4134 86.4013L91.3276 85.0111L94.8379 91.9881L81.1893 103.366L92.2068 115.376L115.5 103.895L118 93.5005L136.5 133.5L133 163L133 133.5L118 109.5L91.0494 121.466L76.8571 103.895Z" fill="black"></path>
<path d="M150.413 61.5152L156.913 76.5152L144.413 80.5152L136.913 74.0152L116.413 71.5152L102.413 75.5152L95.4131 68.0152L111.913 51.9997L105.913 51.0004L116.413 50.0004L126.413 51.9997L118.913 47.0004L135.913 51.0002L141.912 53.5002L135.913 48.7876L144.413 51.9995L150.413 61.5152Z" fill="black"></path>
<path d="M72.4278 62.0342C80.6238 63.5502 97.2413 64.1487 98.577 66.3321C99.9126 68.5154 104.913 73.5154 105.011 76.5104C105.11 79.5054 88.9603 103.261 88.9603 103.261L60.1957 105.627L57.8107 141.718L50.1523 98.9096L60.1957 78.5007L77.5001 69.5007L72.4278 62.0342Z" fill="black"></path>
<path d="M7.91296 23.5146L75.4128 77.2023L68.4128 82.0153L42.1948 89.518L55.9128 80.5153L72.0004 77.2023L29.9894 51.951L7.91296 23.5146Z" fill="#3E3E60"></path>
<path d="M71.7909 113.882L79.3711 87.3897L84.9413 84.3427L87.0514 93.9355L75.2491 112.469L82.7959 128.239L104 108.5L104 101L124 130.469L106 174.5L119 130.469L106 113.882L81.3162 137.241L71.7909 113.882Z" fill="#3E3E60"></path>
<path d="M42.2843 114.895C44.396 110.362 56.6523 103.728 56.6523 103.728L60.6663 99.1349L64.853 110.335L72.5469 123.873C72.917 136.733 63.9409 148.819 68.027 161.663C69.8922 167.526 80.7899 176.721 86.5494 179.119C92.309 181.518 125.478 180.607 129.608 175.824C133.738 171.04 138.503 158.23 145.075 153.042C151.647 147.854 170.773 142.596 175.712 149.422C180.65 156.248 183.326 169.718 181.113 172.323C178.9 174.928 165.786 183.508 165.786 183.508C165.786 183.508 176.418 173.968 176.277 169.069C176.136 164.169 175.981 158.787 172.582 156.03C169.184 153.273 152.353 155.904 148.115 159.817C143.877 163.73 141.582 182.853 137.471 185.406C133.359 187.96 84.3179 183.967 84.3179 183.967C84.3179 183.967 70.7492 171.131 66.458 166.095C62.1668 161.058 48.9015 148.652 46.6315 143.237C44.3616 137.822 40.1726 119.428 42.2843 114.895Z" fill="black"></path>
<path d="M27.383 131.092L44.7986 120.118L47.4157 114.96L53.5104 115.28L54.8841 123.503L43.9101 131.059L32.7473 132.892L40.8622 156.934L40.6656 172.163L34.0072 181.004L38.7695 171.526L39.3496 157.481L27.383 131.092Z" fill="#3E3E60"></path>
<path d="M149.413 83.0144C147.021 77.9993 153.9 54.9352 156 53.9996C156 53.9996 155.5 58.9993 165.5 71.4993C175.5 83.9993 179 92.9998 179 98.9998C179 105 175.856 136.141 175.856 136.141C175.856 136.141 172.716 119.221 169.731 112.764C166.747 106.306 151.804 88.0295 149.413 83.0144Z" fill="black"></path>
<path d="M164.271 73.0332L167.745 89.5364L172.008 95.9305L171.332 105.517L172.433 114.013L173.186 119.8L171.439 114.331L163.5 102.5L160.5 97L156.5 93L151.5 85.7726L150.5 71.5L155 83.5L161.5 90.5L158.5 84L163 85L164.271 73.0332Z" fill="#3E3E60"></path>
<path d="M169.412 99.3005C169.249 103.051 169.298 107.55 169.298 107.55L168.19 100.763L167.724 105.844C167.724 105.844 167.278 104.679 167.061 100.386C166.844 96.0926 163.573 92.9187 163.573 92.9187L160.342 90.5456L164.342 91.9894L160.916 86.8956L165.259 91.0779L165.023 83.0601C165.023 83.0601 165.7 88.188 166.793 91.4548C167.885 94.7216 169.576 95.5504 169.412 99.3005Z" fill="white"></path>
<path d="M162.721 95.209C163.465 97.0156 164.474 99.1291 164.474 99.1291L162.464 96.1676L163.358 98.6685C163.358 98.6685 162.892 98.2162 161.848 96.2368C160.805 94.2574 158.565 93.4755 158.565 93.4755L156.519 93.0632L158.724 92.8684L155.99 91.2142L158.958 92.2369L157.089 88.5029C157.089 88.5029 158.533 90.7757 159.764 92.0788C160.996 93.3819 161.976 93.4025 162.721 95.209Z" fill="white"></path>
<path d="M136.67 42.9336C144.032 47.9158 151.755 65.9828 151.755 65.9828C151.755 65.9828 143.333 47.9912 134.762 44.7152C126.191 41.4393 113.333 40.7254 104.064 37.5248C94.7945 34.3241 78.0001 5.1604 78.0001 5.1604C78.0001 5.1604 94.4578 31.2105 105.859 34.7063C117.261 38.2021 129.308 37.9513 136.67 42.9336Z" fill="black"></path>
<path d="M139.592 65.3652C142.251 67.2376 145.556 69.3051 145.556 69.3051L140.088 66.9405L143.576 69.6552C143.576 69.6552 142.518 69.436 139.285 67.5877C136.052 65.7393 132.208 66.6409 132.208 66.6409L128.966 67.8886L131.889 65.6463L126.572 65.7641L131.653 64.5508L125.695 60.9749C125.695 60.9749 129.752 62.8782 132.645 63.6086C135.538 64.339 136.933 63.4927 139.592 65.3652Z" fill="white"></path>
<path d="M104.781 69.2375C107.981 69.8127 111.85 70.2922 111.85 70.2922L105.895 70.4565L110.203 71.4451C110.203 71.4451 109.151 71.6932 105.44 71.3821C101.729 71.0711 98.6247 73.5109 98.6247 73.5109L96.2127 76.0101L97.9158 72.7438L93.1455 75.0947L97.2396 71.8501L90.3286 71.1233C90.3286 71.1233 94.8096 71.1365 97.7409 70.5774C100.672 70.0184 101.58 68.6622 104.781 69.2375Z" fill="white"></path>
<path d="M47.0695 122.129C49.1745 121.449 51.6495 120.499 51.6495 120.499L48.1284 122.504L51.0304 121.718C51.0304 121.718 50.4784 122.203 48.1517 123.205C45.8249 124.206 44.7431 126.664 44.7431 126.664L44.0957 128.936L44.0722 126.431L41.9619 129.369L43.3803 126.111L39 127.887C39 127.887 41.6935 126.46 43.2737 125.186C44.8539 123.913 44.9645 122.808 47.0695 122.129Z" fill="white"></path>
<defs></defs>
</svg>