<svg height="100%" viewbox="0 0 200 200" width="100%" xmlns="http://www.w3.org/2000/svg">
<path d="M162.5 82.9999C169.006 76.4779 175.5 56.4999 170 56.4999C164.5 56.4999 160.5 63.0001 152.5 59.5C144.5 56 140.871 50.8074 126 55.0001C111.129 59.1929 107.5 77.0001 102 101.5C96.5 126 42 158.5 35 122C28 85.4999 68.5 101.5 68.5 101.5C68.5 101.5 49 89 38 93C27 97 23.0699 120.922 31.5 133.211C39.9301 145.5 58.962 152.268 78 158.5L74.5 170.5C77.9273 170.333 94.3168 172.233 95 169.5C96 165.5 87.5 164.5 87.5 164.5L99.5 155C106.936 155 121.144 149.289 126 141.5C126 141.5 129.688 146.5 133.844 145.5C138 144.5 143.747 134.568 147 135.5C150.253 136.432 149 141 152.5 140C156 139 154.749 131.007 152.5 128C151.106 126.137 133.844 133.211 133.844 133.211C133.844 133.211 125.5 129.5 127.5 104C129.5 78.4999 151.614 93.9122 162.5 82.9999Z" fill="black"></path>
<path d="M57 83C57 83 54.2195 96.4886 42.1901 95.9889C30.1607 95.4892 29 83 29 83C29 83 34.9613 86.3947 42.1901 86.3947C49.4189 86.3947 57 83 57 83Z" fill="black"></path>
<path clip-rule="evenodd" d="M43.7087 89.5951C44.6118 89.1905 45.339 88.6118 45.2094 87.9141C45.0815 87.2259 44.3632 87.7302 43.4525 88.3696C42.9261 88.7391 42.3354 89.1538 41.7574 89.4093C40.1794 90.1069 36.9216 90.7122 36.9216 90.7122C36.9216 90.7122 38.7575 90.5639 40.349 90.3728C39.8356 90.7587 39.4022 91.2673 39.0977 91.8821C38.8581 92.3661 38.7192 92.8738 38.673 93.3812C40.1952 91.8855 43.3501 90.9123 43.3501 90.9123L43.3552 92.2326L42.213 92.7651L42.4835 94.4365L41.5194 95.4965C41.5194 95.4965 40.499 96.1916 39.534 96.354C39.9169 96.8537 40.4172 97.2755 41.0194 97.5737C41.9405 98.0299 42.9472 98.121 43.8753 97.9026C43.1777 97.0707 42.8132 95.6767 42.8132 95.6767L43.5599 94.75L43.4861 93.176L44.608 92.6334L44.4332 91.2633C44.4332 91.2633 46.1809 94.0261 46.4172 96.1563C46.525 95.9973 46.6233 95.8291 46.711 95.6521C47.752 93.5498 46.8917 91.0016 44.7894 89.9605C44.4385 89.7868 44.0753 89.666 43.7087 89.5951Z" fill="white" fill-rule="evenodd"></path>
<path clip-rule="evenodd" d="M140.645 63.3442C142.07 61.6166 142.964 59.7125 142 58.4276C141.049 57.1602 140.099 58.9046 138.894 61.1161C138.197 62.3944 137.416 63.8287 136.5 64.9276C134 67.9276 128 72.4276 128 72.4276C128 72.4276 131.575 70.2828 134.611 68.2965C133.957 69.5949 133.589 71.0617 133.589 72.6145C133.589 73.837 133.817 75.0062 134.233 76.0818C135.819 71.5192 141.24 66.3764 141.24 66.3764L142.577 69.0494L140.795 71.2767L143.022 74.3951L142.131 77.5136C142.131 77.5136 140.76 79.9483 138.966 81.247C140.244 81.8758 141.683 82.229 143.204 82.229C145.53 82.229 147.664 81.4026 149.327 80.0274C147.076 79.0408 144.937 76.5792 144.937 76.5792L145.52 73.9496L143.79 70.8312L145.52 68.6037L143.79 66C143.79 66 150.11 69.8487 152.728 73.9322C152.787 73.5014 152.818 73.0615 152.818 72.6145C152.818 67.3046 148.513 63 143.204 63C142.317 63 141.459 63.1199 140.645 63.3442Z" fill="white" fill-rule="evenodd"></path>
</svg>