<svg height="100%" viewBox="0 0 200 200" width="100%" xmlns="http://www.w3.org/2000/svg">
<path d="M55 121.5C63.7964 135.794 77.1363 131.794 77.1363 131.794L66.6363 139.793C58.033 134.536 48.457 124.647 46 114C43.756 104.276 55 84.4997 73.6363 100.794C55 91.4995 46.2036 107.206 55 121.5Z" fill="#3E3E60"></path>
<path d="M111.123 39.9233C122 38 135.024 43.918 135.024 43.918C135.024 43.918 131.5 49.9275 125.5 47C119.5 44.0725 120.377 43.918 113 43.918C105.623 43.918 91 49.9275 91 49.9275C91 49.9275 100.245 41.8467 111.123 39.9233Z" fill="black"></path>
<path d="M170.5 70.5C175.7 72.5 183.9 49.9059 178 50C172.1 50.0941 171 52.1031 162.5 50C154 47.8969 144.769 38.4927 129.898 42.6855C115.027 46.8782 118 97.5 100.5 111C83 124.5 53.5 135.5 39 119C24.5 102.5 27.4828 85.5 43 80C58.5172 74.5 67 85.0056 67 85.0056C67 85.0056 51.7907 58.9951 27.4828 83.7099C3.17499 108.425 45.6428 144.054 74.5 153.5C74.5 153.5 68.5317 158.926 72.2658 163.963C76 169 86.6722 169 86.6722 169C86.6722 169 82.0808 167 81 162.026C79.9192 157.052 86.6722 156.436 86.6722 156.436C94.1078 156.436 120.144 146.789 125 139C131.608 144.75 130.791 159.918 138.151 162.026C141.404 162.958 153 162.026 153 162.026C153 162.026 142.724 158.437 140.475 155.431C139.081 153.568 135.263 132.211 135.263 132.211C135.263 132.211 129.137 96.9466 145.587 85.0056C145.587 85.0056 154 85.5 160 89C166 92.5 169 89 169 89C169 89 168 84.7901 162.5 81.5C157 78.2099 157 75 157 75C157 75 165.3 68.5 170.5 70.5Z" fill="black"></path>
<path clip-rule="evenodd" d="M147.645 51.3442C149.07 49.6166 149.964 47.7125 149 46.4276C148.049 45.1602 147.099 46.9046 145.894 49.1161C145.197 50.3944 144.416 51.8287 143.5 52.9276C141 55.9276 135 60.4276 135 60.4276C135 60.4276 138.575 58.2828 141.611 56.2965C140.957 57.5949 140.589 59.0617 140.589 60.6145C140.589 61.837 140.817 63.0062 141.233 64.0818C142.819 59.5192 148.24 54.3764 148.24 54.3764L149.577 57.0494L147.795 59.2767L150.022 62.3951L149.131 65.5136C149.131 65.5136 147.76 67.9483 145.966 69.247C147.244 69.8758 148.683 70.229 150.204 70.229C152.53 70.229 154.664 69.4026 156.327 68.0274C154.076 67.0408 151.937 64.5792 151.937 64.5792L152.52 61.9496L150.79 58.8312L152.52 56.6037L150.79 54C150.79 54 157.11 57.8487 159.728 61.9322C159.787 61.5014 159.818 61.0615 159.818 60.6145C159.818 55.3046 155.513 51 150.204 51C149.317 51 148.459 51.1199 147.645 51.3442Z" fill="white" fill-rule="evenodd"></path>
<path d="M105.086 59.2167C113 51.5 127.498 49.9998 127.498 49.9998C127.498 49.9998 135.998 56.2167 127.498 59.2167C118.998 62.2167 116.5 59.2167 110 62.5C103.5 65.7833 93.2704 78.3317 93.2704 78.3317C93.2704 78.3317 97.1727 66.9334 105.086 59.2167Z" fill="#3E3E60"></path>
<path d="M63 59.7409C63 59.7409 59.2195 76.4887 47.1901 75.989C35.1607 75.4893 32 58 32 58C32 58 39.9613 66.3949 47.1901 66.3949C54.4189 66.3949 63 59.7409 63 59.7409Z" fill="black"></path>
<path d="M57.9466 80.8542C57.9466 80.8542 62.3698 94.1054 54.5 99C46.6302 103.895 37.5 93.2207 37.5 93.2207C37.5 93.2207 45.6637 94.3778 50.2828 91.2727C54.9019 88.1677 57.9466 80.8542 57.9466 80.8542Z" fill="#3E3E60"></path>
<path clip-rule="evenodd" d="M49.7087 68.5951C50.6118 68.1905 51.339 67.6118 51.2094 66.9141C51.0815 66.2259 50.3632 66.7302 49.4525 67.3696C48.9261 67.7391 48.3354 68.1538 47.7574 68.4093C46.1794 69.1069 42.9216 69.7122 42.9216 69.7122C42.9216 69.7122 44.7575 69.5639 46.349 69.3728C45.8356 69.7587 45.4022 70.2673 45.0978 70.8821C44.8581 71.3661 44.7192 71.8738 44.673 72.3812C46.1953 70.8855 49.3502 69.9123 49.3502 69.9123L49.3552 71.2326L48.213 71.7651L48.4835 73.4365L47.5194 74.4964C47.5194 74.4964 46.4991 75.1916 45.534 75.354C45.9169 75.8536 46.4172 76.2755 47.0194 76.5737C47.9405 77.0298 48.9472 77.121 49.8753 76.9025C49.1777 76.0707 48.8133 74.6767 48.8133 74.6767L49.5599 73.75L49.4861 72.176L50.608 71.6334L50.4333 70.2632C50.4333 70.2632 52.1809 73.0261 52.4172 75.1563C52.525 74.9973 52.6234 74.8291 52.711 74.6521C53.7521 72.5498 52.8917 70.0015 50.7894 68.9605C50.4386 68.7867 50.0753 68.666 49.7087 68.5951Z" fill="white" fill-rule="evenodd"></path>
<path clip-rule="evenodd" d="M53.2035 93.2735C53.847 92.9852 54.3652 92.573 54.2728 92.0759C54.1817 91.5857 53.67 91.9449 53.0213 92.4003C52.6463 92.6636 52.2255 92.9589 51.8138 93.141C50.6897 93.6379 48.369 94.0691 48.369 94.0691C48.369 94.0691 49.677 93.9635 50.8108 93.8273C50.4449 94.1022 50.1361 94.4646 49.9191 94.9027C49.7484 95.2475 49.6494 95.6092 49.6166 95.9708C50.7009 94.9053 52.9483 94.212 52.9483 94.212L52.952 95.1525L52.1383 95.5319L52.331 96.7225L51.6442 97.4776C51.6442 97.4776 50.9174 97.9727 50.23 98.0884C50.5028 98.4443 50.8591 98.7447 51.288 98.9571C51.9441 99.282 52.6612 99.347 53.3222 99.1914C52.8255 98.5988 52.5659 97.606 52.5659 97.606L53.0978 96.9459L53.0452 95.8247L53.8444 95.4381L53.7199 94.4621C53.7199 94.4621 54.9647 96.43 55.1331 97.9475C55.21 97.8342 55.28 97.7144 55.3425 97.5883C56.0841 96.0906 55.4712 94.2754 53.9736 93.5338C53.7236 93.41 53.4647 93.324 53.2035 93.2735Z" fill="white" fill-rule="evenodd"></path>
</svg>