<svg height="100%" viewbox="0 0 200 200" width="100%" xmlns="http://www.w3.org/2000/svg">
<path d="M88 181L93.5 170H102C102 170 99 173 100.5 174C102 175 107 174 106.5 175.5C106 177 88 181 88 181Z" fill="#3E3E60"></path>
<path d="M21.7009 66.1219C12.2484 80.9267 8.48054 107.495 17.8647 131.4C34.0192 172.551 84.3674 179.431 125.998 158.551C125.998 158.551 90.0451 162.241 68.7533 160.498C43.4417 158.426 21.9142 123.49 21.5855 104.235C20.9357 66.1781 65.1076 39.7877 94.7496 70.5963C80.2256 46.794 39.9235 37.5813 21.7009 66.1219Z" fill="#3E3E60"></path>
<path d="M76.7693 20.983C76.7693 20.983 73.8531 51.3907 52.1905 53.3238C30.5279 55.257 20.84 25.166 20.84 25.166C20.84 25.166 37.0333 38.1022 49.9818 36.4112C62.9303 34.7202 76.7693 20.983 76.7693 20.983Z" fill="#3E3E60"></path>
<path clip-rule="evenodd" d="M51.4299 41.3053C52.9532 40.3692 54.1208 39.1624 53.7253 37.9428C53.3353 36.7401 52.1665 37.8114 50.6848 39.1696C49.8284 39.9547 48.8674 40.8356 47.8918 41.4286C45.2284 43.0474 39.5345 44.8937 39.5345 44.8937C39.5345 44.8937 42.7886 44.1985 45.5949 43.4837C44.7652 44.2951 44.1078 45.3077 43.7061 46.4805C43.39 47.4036 43.26 48.3455 43.296 49.2653C45.6728 46.23 51.0963 43.7487 51.0963 43.7487L51.4143 46.1125L49.4929 47.3335L50.3684 50.2641L48.8893 52.3883C48.8893 52.3883 47.2244 53.8722 45.5337 54.3888C46.3365 55.1942 47.3313 55.8328 48.4797 56.2261C50.2362 56.8276 52.0607 56.7554 53.6719 56.1471C52.228 54.8202 51.2492 52.4087 51.2492 52.4087L52.3698 50.5741L51.8694 47.772L53.7521 46.5376L53.1186 44.1242C53.1186 44.1242 56.8951 48.6641 57.8168 52.4245C57.9728 52.1144 58.1096 51.7901 58.2252 51.4525C59.5982 47.4432 57.461 43.08 53.4517 41.707C52.7824 41.4778 52.1033 41.3464 51.4299 41.3053Z" fill="white" fill-rule="evenodd"></path>
<path d="M167.242 99.8363C162.639 94.4636 146.722 120.165 146.722 120.165L144.939 106.514C148.63 105.396 163.404 89.7483 167.133 91.2782C170.863 92.808 180.973 93.0007 182.288 95.3501C183.603 97.6996 171.846 105.209 167.242 99.8363Z" fill="#3E3E60"></path>
<path d="M62.0755 147.859C73.9539 165.453 104.693 149.857 104.693 149.857C104.693 149.857 101.354 162.899 87.9676 164.648C74.5813 166.396 58.0259 167.045 50.6724 149.348C43.3188 131.651 54.1157 115.163 63.7942 110.825C73.4727 106.486 85.1699 114.282 87.4867 122.353C66.0993 101.447 50.1972 130.265 62.0755 147.859Z" fill="#3E3E60"></path>
<path d="M111.415 58.0328C110.937 66.744 116.811 76.3958 116.811 76.3958C116.811 76.3958 121.189 73.0632 118.325 68.6359C115.461 64.2086 115.423 64.9112 114.725 59.1265C114.026 53.3419 117.353 41.3071 117.353 41.3071C117.353 41.3071 111.892 49.3216 111.415 58.0328Z" fill="black"></path>
<path d="M171.201 52.9288C181.659 55.7857 181.926 24.5313 173.327 28.0585L173.324 28.0595C164.727 31.586 161.779 31.3416 154.405 32.4312C147.031 33.5208 142.023 33.3002 129.856 42.8228C117.688 52.3454 101.143 94.8539 118.599 92.5742C136.055 90.2945 93.1623 169.675 52.354 150.642C11.5457 131.609 40.8751 82.0506 75.2381 94.2033C75.2381 94.2033 50.0712 71.3839 30.7909 109.084C11.5106 146.785 62.5476 190.275 111.379 170.163L102.716 184.909C102.716 184.909 130.171 182.832 131.967 181.089C133.763 179.345 121.598 178.913 121.145 175.443C120.692 171.972 128.073 165.116 128.073 165.116C134.952 162.294 148.526 158.756 144.292 144.182C140.057 129.607 165.625 105.594 168.559 113.783C171.494 121.972 180.21 112.237 182.678 109.922C186.427 106.407 176.517 107.692 170.304 103.975C168.307 102.78 155.388 109.452 155.388 109.452C155.388 109.452 152.563 103.266 153.251 93.0915C153.939 82.9167 157.778 77.877 157.778 77.877C157.778 77.877 167.127 78.6729 170.524 76.2124C173.921 73.7519 178.792 68.5776 177.687 66.2007C176.583 63.8238 173.467 70.2814 168.014 70.9936C162.56 71.7059 157.605 67.3105 157.605 67.3105C157.605 67.3105 160.743 50.0718 171.201 52.9288Z" fill="black"></path>
<path d="M78.866 74.2278C78.866 74.2278 73.7498 90.8145 61.6046 89.3817C49.4594 87.9488 47.6025 70.0786 47.6025 70.0786C47.6025 70.0786 55.0206 79.1541 62.342 79.7125C69.6635 80.2709 78.866 74.2278 78.866 74.2278Z" fill="black"></path>
<path clip-rule="evenodd" d="M64.7323 82.0106C65.6783 81.6706 66.4596 81.1406 66.3822 80.4239C66.3059 79.7171 65.5393 80.1724 64.5676 80.7495C64.0059 81.0831 63.3757 81.4575 62.7705 81.6717C61.1184 82.2563 57.7721 82.6177 57.7721 82.6177C57.7721 82.6177 59.643 82.6093 61.2697 82.5387C60.7199 82.8899 60.2416 83.3715 59.8857 83.9708C59.6056 84.4425 59.4257 84.946 59.3397 85.4565C60.997 84.0592 64.2675 83.3172 64.2675 83.3172L64.1706 84.6549L62.9726 85.1059L63.1175 86.8196L62.0591 87.8187C62.0591 87.8187 60.9721 88.4439 59.9822 88.5339C60.3314 89.0694 60.8055 89.5353 61.3923 89.8838C62.2899 90.4169 63.3024 90.587 64.2592 90.4375C63.6171 89.5411 63.3557 88.1013 63.3557 88.1013L64.1835 87.2204L64.2303 85.6206L65.4085 85.1577L65.3374 83.7565C65.3374 83.7565 66.8939 86.6895 66.9688 88.8652C67.0903 88.7125 67.2029 88.5497 67.3053 88.3772C68.5221 86.3283 67.8476 83.681 65.7987 82.4642C65.4568 82.2611 65.0982 82.1107 64.7323 82.0106Z" fill="white" fill-rule="evenodd"></path>
<path d="M85.0131 101.643C85.0131 101.643 81.1622 114.128 72.021 113.049C62.8798 111.971 61.4821 98.5205 61.4821 98.5205C61.4821 98.5205 67.0655 105.351 72.5761 105.772C78.0867 106.192 85.0131 101.643 85.0131 101.643Z" fill="#3E3E60"></path>
<path clip-rule="evenodd" d="M74.375 107.502C75.087 107.246 75.6752 106.847 75.6169 106.307C75.5595 105.775 74.9825 106.118 74.2511 106.552C73.8284 106.804 73.354 107.085 72.8985 107.247C71.6551 107.687 69.1364 107.959 69.1364 107.959C69.1364 107.959 70.5447 107.952 71.7691 107.899C71.3552 108.163 70.9952 108.526 70.7273 108.977C70.5164 109.332 70.381 109.711 70.3164 110.095C71.5637 109.043 74.0252 108.485 74.0252 108.485L73.9523 109.492L73.0507 109.831L73.1597 111.121L72.3631 111.873C72.3631 111.873 71.5449 112.344 70.7998 112.411C71.0626 112.815 71.4195 113.165 71.8612 113.428C72.5368 113.829 73.2989 113.957 74.019 113.844C73.5357 113.17 73.339 112.086 73.339 112.086L73.962 111.423L73.9973 110.219L74.8841 109.87L74.8305 108.816C74.8305 108.816 76.0021 111.023 76.0584 112.661C76.1499 112.546 76.2346 112.423 76.3117 112.294C77.2276 110.752 76.7199 108.759 75.1778 107.843C74.9204 107.69 74.6504 107.577 74.375 107.502Z" fill="white" fill-rule="evenodd"></path>
<path clip-rule="evenodd" d="M150.36 40.0892C151.027 38.2971 151.216 36.5111 150.079 35.7437C148.958 34.9867 148.679 36.6598 148.324 38.7809C148.119 40.0069 147.89 41.3825 147.458 42.525C146.279 45.6442 142.695 50.9515 142.695 50.9515C142.695 50.9515 144.98 48.2222 146.875 45.7713C146.71 47.0014 146.823 48.2877 147.257 49.5405C147.598 50.5269 148.109 51.4065 148.745 52.1581C148.75 48.0338 151.687 42.3696 151.687 42.3696L153.512 44.1529L152.697 46.4479L155.366 48.3417L155.518 51.1067C155.518 51.1067 155.092 53.4541 154.007 55.0034C155.214 55.1535 156.474 55.0365 157.701 54.6115C159.578 53.9614 161.069 52.6985 162.026 51.1242C159.935 50.957 157.521 49.5687 157.521 49.5687L157.257 47.2839L154.989 45.2513L155.763 42.9705L153.639 41.3533C153.639 41.3533 159.814 42.6927 163.068 45.2558C162.995 44.8917 162.897 44.5283 162.772 44.1676C161.288 39.8833 156.612 37.6129 152.328 39.0966C151.613 39.3441 150.954 39.6805 150.36 40.0892Z" fill="white" fill-rule="evenodd"></path>
<path d="M117.628 47.7862C114.533 55.9489 118.014 66.9218 118.014 66.9218C118.014 66.9218 125.195 71.1189 124.69 64.0177C124.184 56.9165 121.224 56.0523 121.554 50.3103C121.884 44.5683 127.749 33.206 127.749 33.206C127.749 33.206 120.723 39.6235 117.628 47.7862Z" fill="#3E3E60"></path>
<path d="M103.092 70.4601C107.02 80.6863 116.632 90.3406 116.632 90.3406C116.632 90.3406 118.576 85.3302 114.028 80.9461C109.48 76.5619 109.797 77.3867 106.354 70.8619C102.911 64.3371 99.6749 49.5112 99.6749 49.5112C99.6749 49.5112 99.1644 60.2338 103.092 70.4601Z" fill="black"></path>
<path d="M103.916 58.5455C105.63 68.8543 114.113 80.4883 114.113 80.4883C114.113 80.4883 122.088 83.2363 118.011 75.1987C113.934 67.1612 111.094 67.0264 108.395 60.3123C105.695 53.5983 104.568 38.7957 104.568 38.7957C104.568 38.7957 102.202 48.2367 103.916 58.5455Z" fill="#3E3E60"></path>
</svg>