<svg height="100%" viewbox="0 0 200 200" width="100%" xmlns="http://www.w3.org/2000/svg">
<path d="M127.5 168C125.115 167.363 120.5 164.5 120.5 164.5L124.5 176L118 179L129.513 177.039L131.927 173.176C131.927 173.176 129.885 168.637 127.5 168Z" fill="#3E3E60"></path>
<path d="M92.9126 191.044C89.2958 184.963 74.8262 183.352 71.8424 180.902C68.8585 178.453 63.0037 152.06 63.0037 152.06L74.4402 150.493C74.4402 150.493 77.3274 170.594 78.3935 172.397C79.4596 174.2 90.8557 180.448 94.2687 182.594C97.6816 184.739 107.61 186.658 108.504 189.197C109.398 191.737 96.5293 197.125 92.9126 191.044Z" fill="#3E3E60"></path>
<path d="M152.162 60.4985C134.34 59.5369 112.5 71.4986 112.5 71.4986L96.1065 94.7885H108.418C108.418 94.7885 119.759 69.0944 152.162 71.4984C166.642 72.5728 195.457 90.4177 184 111.499C172.543 132.579 152.162 115.945 152.162 115.945C162 130.499 184.588 124.525 190 108.999C197.631 87.1052 183.21 62.174 152.162 60.4985Z" fill="#3E3E60"></path>
<path d="M125 7.99938C117.001 6.37695 96.5 10.4992 89.8284 23.4995C83.1568 36.4998 98.0382 65.4338 89.8284 88.6146L112.275 72.4465C112.275 72.4465 83.9188 39.6317 102.5 20.9995C121.081 2.3673 136.44 20.9141 139.57 33.5603C139.57 24.2927 132.999 9.62181 125 7.99938Z" fill="#3E3E60"></path>
<path d="M109 26.0015C109 26.0015 109.5 22.0019 111 17.5014C112.5 13.0009 119 11.5014 119 11.5014C119 11.5014 123.5 7.5014 129 10.5014C134.5 13.5014 132.5 18.5014 132.5 18.5014C132.5 18.5014 135 22.5016 134 26.0015C133 29.5014 127 35.5014 127 35.5014C127 35.5014 135.5 26.501 124 20.5012C112.5 14.5015 109 26.0015 109 26.0015Z" fill="#3E3E60"></path>
<path clip-rule="evenodd" d="M124.569 17.3603C123.672 17.2926 122.841 17.4399 122.643 18.0532C122.447 18.6581 123.239 18.5662 124.242 18.4497C124.823 18.3824 125.474 18.3069 126.046 18.3529C127.608 18.4787 130.471 19.4049 130.471 19.4049C130.471 19.4049 128.941 18.7289 127.587 18.1929C128.164 18.107 128.73 17.8883 129.24 17.529C129.64 17.2463 129.971 16.9011 130.227 16.5159C128.365 17.0515 125.425 16.4636 125.425 16.4636L125.992 15.4071L127.134 15.4761L127.641 14.0245L128.87 13.5953C128.87 13.5953 129.985 13.4817 130.826 13.7696C130.737 13.2049 130.52 12.6516 130.168 12.1529C129.63 11.3902 128.865 10.8818 128.03 10.6547C128.227 11.6207 127.915 12.8914 127.915 12.8914L126.918 13.3083L126.296 14.597L125.165 14.5448L124.712 15.7145C124.712 15.7145 124.512 12.7523 125.245 10.9491C125.09 11.0294 124.938 11.1212 124.792 11.2246C123.051 12.4529 122.635 14.8599 123.864 16.6008C124.069 16.8914 124.306 17.1451 124.569 17.3603Z" fill="white" fill-rule="evenodd"></path>
<path d="M174.712 48.3305C146.808 60.3433 134.124 61.3877 122.455 66.0884C110.786 70.7891 110.279 95.8595 110.279 95.8595L81.1356 106.967L62.3013 81.8544C62.3013 81.8544 77.533 61 110.279 57C143.025 53 205.587 31.1636 174.712 13C163.663 6.5 148.746 24.3048 148.746 24.3048C148.746 24.3048 154.925 9.68048 164.565 7.5913C190.362 2.00028 199.569 37.6292 174.712 48.3305Z" fill="black"></path>
<path d="M13.5001 29.2788C9.8591 15.212 46.3432 21.5519 46.3432 21.5519C39.4753 18.5764 3.71835 12.9999 6.8236 29.2788C12.5214 59.149 50.7498 36.5031 67.623 37.0057C92.0401 37.733 70.6082 75.6222 59.4037 82.3377L84.9991 84.7523C84.9991 84.7523 91.7602 68.8156 91.7602 61.5716C91.7602 54.3276 85.3561 34.1082 72.6896 31.6935C63.1297 29.8711 17.1411 43.3456 13.5001 29.2788Z" fill="black"></path>
<path d="M12.5756 59.0441C12.5756 59.0441 11.5716 55.1404 11.3138 50.4035C11.056 45.6666 16.5509 41.8845 16.5509 41.8845C16.5509 41.8845 19.2672 36.5113 25.4846 37.2815C31.7021 38.0517 31.6784 43.4368 31.6784 43.4368C31.6784 43.4368 35.4729 46.2392 35.8283 49.8618C36.1836 53.4843 32.8068 61.2687 32.8068 61.2687C32.8068 61.2687 37.4069 49.7754 24.507 48.4189C11.6071 47.0623 12.5756 59.0441 12.5756 59.0441Z" fill="black"></path>
<path clip-rule="evenodd" d="M23.8824 45.2881C23.0239 45.5543 22.3048 45.9967 22.3455 46.64C22.3857 47.2744 23.0884 46.8981 23.9793 46.4211C24.4942 46.1454 25.072 45.8361 25.621 45.6688C27.1199 45.212 30.1232 45.0219 30.1232 45.0219C30.1232 45.0219 28.4516 44.9552 26.9957 44.9538C27.5009 44.6619 27.9473 44.2506 28.289 43.7294C28.5579 43.3192 28.7385 42.8767 28.8356 42.4242C27.2999 43.6066 24.3492 44.1396 24.3492 44.1396L24.4887 42.9487L25.5767 42.5933L25.5152 41.0568L26.5002 40.2064C26.5002 40.2064 27.4961 39.691 28.3839 39.6499C28.0932 39.1576 27.6882 38.7227 27.1778 38.388C26.3971 37.8763 25.4994 37.6842 24.6389 37.7798C25.1769 38.6059 25.3533 39.9025 25.3533 39.9025L24.579 40.6565L24.4738 42.0836L23.403 42.4504L23.411 43.7048C23.411 43.7048 22.1369 41.0231 22.1564 39.0767C22.0418 39.2083 21.9348 39.3493 21.8364 39.4993C20.6683 41.2811 21.1658 43.6725 22.9477 44.8406C23.2451 45.0356 23.5595 45.1842 23.8824 45.2881Z" fill="white" fill-rule="evenodd"></path>
<path d="M162.355 19.0428C162.355 19.0428 163.78 16.103 166.103 13.0392C168.427 9.97546 173.806 10.5171 173.806 10.5171C173.806 10.5171 178.302 8.6187 181.742 12.3536C185.183 16.0885 182.345 19.4055 182.345 19.4055C182.345 19.4055 183.223 23.1269 181.544 25.5528C179.865 27.9788 173.697 31.0217 173.697 31.0217C173.697 31.0217 182.565 26.3268 175.3 18.727C168.036 11.1272 162.355 19.0428 162.355 19.0428Z" fill="black"></path>
<path clip-rule="evenodd" d="M176.554 16.466C175.884 16.1808 175.208 16.0775 174.896 16.4965C174.588 16.9098 175.22 17.0455 176.021 17.2175C176.484 17.3169 177.003 17.4285 177.43 17.6128C178.596 18.116 180.553 19.5726 180.553 19.5726C180.553 19.5726 179.555 18.6558 178.656 17.892C179.121 17.9761 179.612 17.9557 180.096 17.8126C180.477 17.7 180.821 17.521 181.118 17.2921C179.549 17.2183 177.445 16.0013 177.445 16.0013L178.156 15.3381L179.015 15.6886L179.782 14.7065L180.837 14.6969C180.837 14.6969 181.722 14.9002 182.293 15.3402C182.371 14.8835 182.349 14.4022 182.209 13.9278C181.994 13.2023 181.54 12.613 180.958 12.2211C180.857 13.0138 180.287 13.9076 180.287 13.9076L179.413 13.9679L178.6 14.7951L177.746 14.4607L177.093 15.2404C177.093 15.2404 177.711 12.9152 178.743 11.7219C178.603 11.7432 178.463 11.7742 178.324 11.8154C176.668 12.3048 175.722 14.0441 176.211 15.7002C176.293 15.9763 176.409 16.2327 176.554 16.466Z" fill="white" fill-rule="evenodd"></path>
<path d="M114.843 125.241C111.345 132.173 111.919 139.526 111.919 139.526C111.919 139.526 116.173 136.658 115.792 133.294C115.411 129.93 115.129 130.49 116.746 125.938C118.363 121.386 125.049 111.671 125.049 111.671C125.049 111.671 118.341 118.308 114.843 125.241Z" fill="black"></path>
<path d="M156.867 131.553C146.35 130.024 134 136.098 134 136.098C134 136.098 137.566 141.773 143.249 138.781C148.933 135.79 148.085 135.667 155.179 135.45C162.273 135.233 176.512 140.581 176.512 140.581C176.512 140.581 167.383 133.083 156.867 131.553Z" fill="black"></path>
<path d="M127.707 126.837C117.68 135.479 113 148.568 113 148.568C113 148.568 121.049 147.564 123.025 141.467C125.002 135.37 124.194 136.068 129.832 129.772C135.47 123.475 152 113 152 113C152 113 137.734 118.195 127.707 126.837Z" fill="black"></path>
<path d="M112 130.499C118 126.261 129.5 128.274 143 132.999C156.5 137.724 157 144.999 166.5 146.999C176 148.999 156.5 173.999 155 161.999C153.5 149.999 121 157.499 122 167.499C123 177.499 137 181.947 145 176.999C153 172.05 154.288 178.503 151.391 180.918C148.493 183.333 121.932 184.298 113.722 184.298C105.512 184.298 54.8045 171.259 49.0093 163.049C43.2142 154.84 42.2483 138.42 41.7653 128.761C41.2824 119.103 46.5947 112.825 49.0093 95.9219C51.424 79.0193 108.893 62.5996 108.893 62.5996C108.893 62.5996 115.107 86.9985 112 93.9985C108.893 100.999 102.381 110.999 99 113.999C95.6195 116.999 85.5 95.9219 88.5 126.999C91.5 158.075 106 134.736 112 130.499Z" fill="black"></path>
<path d="M144.128 123.407C133.554 124.536 123.546 134.358 123.546 134.358C123.546 134.358 123.161 142.448 130.6 137.99C138.038 133.533 135.566 130.421 141.988 127.619C148.409 124.817 165.542 126.381 165.542 126.381C165.542 126.381 154.701 122.278 144.128 123.407Z" fill="#3E3E60"></path>
<path d="M129.088 113.217C120.134 121.137 112.67 136.943 112.67 136.943C112.67 136.943 113.314 146.938 119.19 137.889C125.066 128.84 124.047 125.782 129.241 118.964C134.434 112.145 147.828 102.173 147.828 102.173C147.828 102.173 138.042 105.298 129.088 113.217Z" fill="#3E3E60"></path>
<path d="M110.296 121.635C107.222 127.918 106.902 137.34 106.902 137.34C106.902 137.34 109.698 141.691 110.777 135.817C111.856 129.942 110.541 128.857 111.782 124.202C113.023 119.546 118.079 110.999 118.079 110.999C118.079 110.999 113.371 115.352 110.296 121.635Z" fill="#3E3E60"></path>
<path clip-rule="evenodd" d="M134.535 142.134C135.664 141.281 136.492 140.241 136.087 139.31C135.688 138.392 134.849 139.325 133.784 140.509C133.169 141.193 132.479 141.96 131.755 142.502C129.78 143.981 125.433 145.87 125.433 145.87C125.433 145.87 127.944 145.074 130.101 144.297C129.51 144.999 129.069 145.847 128.842 146.802C128.663 147.554 128.633 148.306 128.731 149.028C130.373 146.455 134.458 144.085 134.458 144.085L134.889 145.924L133.468 147.033L134.381 149.276L133.377 151.063C133.377 151.063 132.178 152.359 130.885 152.895C131.579 153.469 132.412 153.896 133.347 154.119C134.778 154.459 136.21 154.263 137.434 153.66C136.194 152.725 135.239 150.899 135.239 150.899L135.982 149.367L135.374 147.197L136.764 146.081L136.08 144.227C136.08 144.227 139.403 147.517 140.416 150.41C140.516 150.154 140.599 149.888 140.664 149.613C141.44 146.349 139.423 143.073 136.159 142.297C135.614 142.167 135.069 142.115 134.535 142.134Z" fill="white" fill-rule="evenodd"></path>
<path clip-rule="evenodd" d="M152.414 143.098C151.881 142.506 151.533 141.843 151.856 141.371C152.175 140.905 152.54 141.511 153.003 142.279C153.271 142.723 153.571 143.221 153.914 143.598C154.851 144.626 157.056 146.134 157.056 146.134C157.056 146.134 155.751 145.426 154.64 144.767C154.892 145.219 155.046 145.735 155.07 146.287C155.089 146.722 155.026 147.141 154.895 147.531C154.26 145.932 152.25 144.187 152.25 144.187L151.817 145.159L152.485 145.923L151.741 147.068L152.107 148.163C152.107 148.163 152.633 149.008 153.292 149.442C152.847 149.686 152.34 149.834 151.799 149.858C150.971 149.894 150.199 149.633 149.586 149.17C150.371 148.784 151.094 147.875 151.094 147.875L150.845 146.948L151.413 145.811L150.762 145.046L151.337 144.092C151.337 144.092 149.149 145.56 148.28 147.054C148.253 146.902 148.235 146.746 148.228 146.587C148.145 144.697 149.61 143.099 151.499 143.016C151.814 143.002 152.121 143.031 152.414 143.098Z" fill="white" fill-rule="evenodd"></path>
<path d="M138.352 168.363C136.903 168.363 128 169 123.5 166.999C119 164.999 131.591 172.226 130.625 172.709C126.765 174.639 112.916 175.935 111.79 180.436C111.308 182.368 114.205 191.544 115.654 192.992C117.103 194.441 123.864 194.441 127.244 193.475C130.625 192.509 120.086 196.163 117 187C113.914 177.836 140.276 178.317 141.249 177.538C143.664 175.607 143.664 173.675 143.664 173.675C143.664 173.675 139.801 168.363 138.352 168.363Z" fill="#3E3E60"></path>
<path d="M110.338 191.815C110.338 191.815 110.96 190.958 111.875 190.112C112.79 189.266 114.476 189.744 114.476 189.744C114.476 189.744 116.018 189.394 116.904 190.781C117.79 192.167 116.696 193.065 116.696 193.065C116.696 193.065 116.765 194.302 116.092 194.981C115.418 195.66 113.278 196.281 113.278 196.281C113.278 196.281 116.374 195.286 114.487 192.449C112.6 189.612 110.338 191.815 110.338 191.815Z" fill="#3E3E60"></path>
<path d="M55.0573 100.205L70.994 74.6103C70.994 74.6103 50.4581 74.1909 46.3645 74.6101C42.2709 75.0294 32.1067 91.157 30.6579 93.508C29.2091 95.859 27.0472 110.83 27.0472 110.83C24.8109 115.384 21.17 123.933 29.2091 123.933C40.4456 123.933 33.9733 117.551 34.7741 112.279C35.5 107.5 44.18 105.518 44.18 105.518L55.0573 100.205Z" fill="black"></path>
<path d="M136.061 191C137 191 137 188.353 137 187.824V182.529L134.653 182L132.307 183.588C132.307 184.536 131.368 186.765 132.776 186.765C134.184 186.765 133.715 185.176 133.715 184.647C133.715 184.118 134.653 183.588 134.653 183.588C134.653 183.588 135.592 183.588 135.592 185.176C135.592 186.765 135.123 186.765 135.123 187.824C135.123 188.882 135.123 191 136.061 191Z" fill="black"></path>
<path d="M133 190C133 189.448 132.776 189 132.5 189C132.224 189 132 189.448 132 190C132 190.552 132.224 191 132.5 191C132.776 191 133 190.552 133 190Z" fill="black"></path>
<path d="M44.6894 182.998C44.9906 175.929 33.7629 166.661 32.6062 162.978C31.4496 159.295 36.4999 129.5 42.7439 123C48.988 116.5 66.9998 127.5 61.4998 142C55.9998 156.5 42.8385 157.353 42.7439 159.445C42.6493 161.538 48.7673 173.004 50.4496 176.668C52.1319 180.331 59.3907 187.371 58.749 189.986C58.1072 192.601 44.3882 190.067 44.6894 182.998Z" fill="black"></path>
</svg>