<svg height="100%" viewBox="0 0 200 200" width="100%" xmlns="http://www.w3.org/2000/svg">
<path d="M104 53.9997C79.5 70.9996 84.5715 97.4573 72.5 109.529C55.7356 126.293 38.5665 126.429 26 109.529C35.5684 142.174 76.8999 158.312 104 145C131.1 131.688 121 108.5 133 98.5C145 88.5 155 88.5 164 81C173 73.5 179.5 53.9997 167.281 56.7719C155.062 59.5442 128.5 36.9998 104 53.9997Z" fill="black"></path>
<path d="M139 59.4999L152 73.4999L146.655 69.9337L141.77 64.3079L135 62.9998C135 62.9998 132.5 62.9998 129 63.9998C125.5 64.9998 130.5 64.9998 130.5 64.9998C130.5 64.9998 128 66.9998 129.5 66.9998C131 66.9998 134.5 65.4998 134.5 65.4998L137 65.9998L138.5 67.9998L136.5 69.4998L134 69.4998L132.5 68.4998C131 67.4998 130 67.4998 130 67.4998C130 67.4998 130 69.4999 134 71.4999C138 73.4999 141.77 72.3296 141.77 72.3296C141.77 72.3296 135.448 78.4596 129 69.9337C122.552 61.4079 113.5 66.9997 113.5 66.9997C113.5 66.9997 117.5 62.4959 127.5 62.496C137.5 62.4961 139 59.4999 139 59.4999Z" fill="white"></path>
</svg>