<svg height="100%" viewbox="0 0 200 200" width="100%" xmlns="http://www.w3.org/2000/svg">
<path d="M87.4592 124.479L88.25 128.625L81.4593 130.479L85.4593 134.979L83.9593 135.979H86.4593L91.4593 140.479L97.9593 138.979L102.459 141.979L99.4593 136.479H93.4593L90.625 127.375L87.4592 124.479Z" fill="#3E3E60"></path>
<path d="M144.645 43.788L139.459 74.3883L146.459 103.686L161.959 123.98L166.939 121.555L161.128 128.986L136.459 121.555L119.484 103.686L106.797 102.444L93.9593 113.392L97.5634 129.739L87.4593 139.98L66.4593 143.746L49.4191 132.98L40.5342 112.665L40.5342 93.9795L49.4191 68.4389L50.9593 81.4795L100.826 53.4798L68.9593 81.4795L64.4593 93.9795L70.4593 105.543L81.6567 107.753L87.4593 93.9795L95.8679 88.328L113.459 79.9796L100.826 68.4391L122.459 74.8552L132.959 83.9796L131.459 74.3883L144.645 43.788Z" fill="black"></path>
<path d="M78.4592 130.48V136.98L72.4593 136.48L76.4593 140.98L73.4593 141.48L78.4592 142.979L80.4593 148.98L87.9593 146.979L90.9593 149.98L89.9593 143.979H83.9593L82.625 138.25L78.4592 130.48Z" fill="#3E3E60"></path>
<path d="M151.86 119.586L155.789 124.542L151.304 122.448L147.502 122.233L150.792 121.038L148.699 119.67L142.505 118.729L145.026 118.345L143.232 116.337L145.966 118.004L150.109 119.158L147.974 116.21L151.86 119.586Z" fill="white"></path>
<path d="M47.0011 93.7228L46.2623 101.619L49.5432 96.3504L53.3921 93.5242L49.1172 94.5182L50.3813 91.6494L56.247 86.4231L53.3355 87.7438L53.8469 84.4063L52.1141 88.0278L48.5492 92.0754L48.7765 87.5164L47.0011 93.7228Z" fill="white"></path>
</svg>