<svg height="100%" viewbox="0 0 200 200" width="100%" xmlns="http://www.w3.org/2000/svg">
<path d="M101 137V143.5L95 143L99 147.5L96 148L105 153L111.5 151L113.5 156.5L114 151L118.5 156.5L116.5 150L114 148.5L107 149L101 137Z" fill="#3E3E60"></path>
<path d="M158.186 56.3086L153 86.9088L160 116.207L163.95 125.186L164.293 120.273L166.342 125.912L176.25 135.612L180.48 134.075L174.668 141.507L143.315 134.279L133.025 116.207L120.338 114.965L107.5 125.912L111.104 142.259L95.9783 156.267L79.4033 157.501L65.6918 153.439L54.0749 144.893L62.9598 145.92L48.5673 134.127L36.9533 113.875L45.9228 118.064L37.0001 97.8989L44.9876 100.849L40.7204 83.2477L51.9628 54.1597L68.7538 43.271L59.0965 54.7596L80.1593 43.9148L95.1974 38.4508L88.7451 45.583L101.686 56.3086L101.686 78.5L94 88.8595L85.1257 94.3402L87.3908 90.3253L78.0358 89.4685L71.502 81.7349L79.4033 87.3757L90.9373 86.9088L95.9783 79.5L95.1974 69L88.2706 63.3108L77.2912 66.7681L65.8811 83.6814L62.3739 100.383L66.5987 116.403L79.4033 125.186L95.1974 120.273L97.5303 101.973L109.409 90.7408L102.873 88.8595L116.586 87.0689L114.367 80.9597L136 87.3757L148 99.5L145.804 91.3483L138.031 84.5968L146.489 87.3757L158.186 56.3086Z" fill="black"></path>
<path d="M91.9999 143V149.5L86 149L90 153.5L87 154L94 161.5L103.5 158.5L104.5 162.5L105 157L109.5 162.5L106 154L97.5 158.5L91.9999 143Z" fill="#3E3E60"></path>
<path d="M165.401 132.106L169.33 137.063L164.845 134.968L161.043 134.754L164.333 133.558L162.24 132.191L156.046 131.249L158.566 130.866L156.773 128.857L159.506 130.524L163.65 131.679L161.515 128.731L165.401 132.106Z" fill="white"></path>
<path d="M122.248 90.842L129.952 92.7263L123.9 94.1037L119.971 96.8167L122.308 93.1019L119.183 93.3583L112.326 97.1923L114.527 94.8728L111.205 94.2645L115.194 93.8114L120.185 91.7662L115.803 90.4901L122.248 90.842Z" fill="white"></path>
<path d="M53.6995 63.9679L50.1178 71.044L55.1016 67.3443L59.7186 66.1256L55.3768 65.4836L57.6045 63.2777L64.9776 60.5652L61.7846 60.7268L63.4838 57.809L60.5441 60.5434L55.7437 63.0025L57.6263 58.8442L53.6995 63.9679Z" fill="white"></path>
</svg>