<svg height="100%" viewbox="0 0 200 200" width="100%" xmlns="http://www.w3.org/2000/svg">
<path d="M120 158.5L125.5 150.5L124.5 142.5L123 147.5L119 137V144.5L116 142H111.5L110 147.5L119 148.5L120 158.5Z" fill="#3E3E60"></path>
<path d="M150.5 23L161 51L158.5 91L162 105.5L164.5 115.5L169.5 107.5L167.5 120L178 131.5L186 129.5L180 133.5L169.5 136.5L142 117L136 100L129 95L122 102L115 113.5L122 131.5L112 147.5L89 156.5L70.5 151.5L43.5 143.5L50.5 140.5L31.5 128H41L29 110L21.5 74.5L30.5 91L37.5 92.5L34.5 74.5L41 80L35.5 62L56 38.5L75.5 34L62.5 41.5L86 38.5H102L93.5 43L102 57.5L95 80L89 89.5L73.5 92.5L77 89.5L68.5 85.5L65 76L70.5 84L81.5 87.5L89 85L93.5 68L87 59.5L75.5 59L59 72L47.5 80L45 91L59 113.5L61 102L70.5 122L82.5 125L99.5 113.5L95 100L110 69.5L123.5 63L118 59L131.5 62V55.5L144 68L148 80V71L153 82L155.5 63L151.5 50L140.5 43L150.5 46.5V36L148 26L136 15L150.5 23Z" fill="black"></path>
<path d="M87.9999 145.136L92 149.167L89.9999 152.667L84.2229 157.291L84.2229 165.667L80.8306 167.667L71.0801 154.049L77.9208 157.291L78.6656 153.371L80.8306 145.136L81.5079 152.722L87.9999 145.136Z" fill="#3E3E60"></path>
<path d="M165.5 125L167.5 131L164 127.5L160.5 126H164L162.5 124L157 121L159.5 121.5L158.5 119L160.5 121.5L164 124L163 120.5L165.5 125Z" fill="white"></path>
<path d="M158.268 51.1144L157.441 57.3846L155.826 52.706L153.335 49.8258L156.482 51.3572L156.008 48.9025L152.376 43.7984L154.405 45.3419L154.599 42.6563L155.304 45.7794L157.357 49.5588L157.989 45.9741L158.268 51.1144Z" fill="white"></path>
<path d="M131.617 69.3738L138.214 73.7757L132.055 73.0034L127.436 74.2114L130.901 71.5182L127.877 70.6922L120.123 71.9539L122.983 70.5253L120.069 68.8194L123.973 69.7558L129.362 69.5379L125.679 66.8419L131.617 69.3738Z" fill="white"></path>
<path d="M53.7829 49.8118L48 55.2394L53.9477 53.4641L58.7033 53.8954L54.8418 51.8092L57.6888 50.4967L65.5451 50.4651L62.4888 49.5267L65.0823 47.3645L61.3855 48.9306L56.0339 49.6026L59.2234 46.3372L53.7829 49.8118Z" fill="white"></path>
<path d="M132.186 148.452L126.085 151.312L126.898 146L122.424 152.989L114.695 156.667L109 171.376L115.915 182H126.898L118.763 180.366L115.915 173.828L124.864 177.914L133 172.602L123.644 175.054L117.542 167.29L127.712 161.118L132.186 148.452Z" fill="black"></path>
<path d="M82.2983 152.906L92.8557 172.239L100.777 174.827L106.557 178.718L107.262 186.149L105.113 179.977L99.6743 178.2L101.01 184.106L95.1689 177.761L91.1078 176.434L78.0613 171.138L72.7862 158.846L82.7362 162.097L82.2983 152.906Z" fill="black"></path>
</svg>