<svg height="100%" viewBox="0 0 200 200" width="100%" xmlns="http://www.w3.org/2000/svg">
<path d="M139.5 156L144.5 147L135 142L137.5 147.5L135 148.5L128 140V147.5L124 137V144.5L121 142H112V150.5L121 153.5L125 158.5L139.5 156Z" fill="#3E3E60"></path>
<path d="M101 68.5L100.5 81L94.5 89L101 86L92 94.5L88.5 97.5H95L86 101.5L80 103.5L74.5 98L74 91L79 79L84 88.5L88 75.5L88.5 82.5L90.5 79L92 66L101 68.5Z" fill="#3E3E60"></path>
<path d="M146.5 32L157 60L155 91L153.5 109L162.5 123.5L165.5 116.5V129L176.5 138.5L184.5 137L176.5 142.5L165.5 145.5L138 126L132 109L127.5 100L115.5 104L118 129L123.5 142.5L108 156.5L88 172.5L39.5 152.5L46.5 149.5L27.5 137H37L23 120L12 82L26 101.5L23 83.5L29.5 89L31.5 71L52 47.5H67L58.5 50.5L77 61L84 73.5V82L79.5 93.5L67 96L63 85.5L56 89V104L44.5 114.5L46.5 123.5L56 128.068L52 118.5L79.5 135.5L86.6455 128.068L89.5 112.5L106 78.5L119.5 72L114 68L127.5 71V64.5L144 91L141.5 77L149 91L152 73.5L149 60L136.5 55.5L118 43L136.5 52L146.5 55.5V45L138 32L109.5 14L146.5 32Z" fill="black"></path>
<path d="M72.5 149L76.5 154.5L77.5 157L72.5 162.5L76.5 165.5L78.5 174L72.5 176.5L55 161.5L64.5 164L62 158.5L61.5 150L64.5 157L72.5 149Z" fill="#3E3E60"></path>
<path d="M161.5 134L163.5 140L160 136.5L156.5 135H160L158.5 133L153 130L155.5 130.5L154.5 128L156.5 130.5L160 133L159 129.5L161.5 134Z" fill="white"></path>
<path d="M154.268 60.1144L153.441 66.3846L151.826 61.706L149.335 58.8258L152.482 60.3572L152.008 57.9025L148.376 52.7984L150.405 54.3419L150.599 51.6563L151.304 54.7794L153.357 58.5588L153.989 54.9741L154.268 60.1144Z" fill="white"></path>
<path d="M127.617 78.3738L134.214 82.7757L128.055 82.0034L123.436 83.2114L126.901 80.5182L123.877 79.6922L116.123 80.9539L118.983 79.5253L116.069 77.8194L119.973 78.7558L125.362 78.5379L121.679 75.8419L127.617 78.3738Z" fill="white"></path>
<path d="M49.7829 58.8118L44 64.2394L49.9477 62.4641L54.7033 62.8954L50.8418 60.8092L53.6888 59.4967L61.5451 59.4651L58.4888 58.5267L61.0823 56.3645L57.3855 57.9306L52.0339 58.6026L55.2234 55.3372L49.7829 58.8118Z" fill="white"></path>
<path d="M144 142.553C141.5 144.22 136.4 147.853 136 149.053C135.667 146.386 135 140.853 135 140.053C135 139.253 131.333 147.72 129.5 152.053L120 156.553L113 174.553L121.5 187.553H135L125 185.553L121.5 177.553L132.5 182.553L142.5 176.053L131 179.053L123.5 169.553L140.5 161.553L164 159.553L144 142.553Z" fill="black"></path>
<path d="M68 29L94 35L88 27L100.5 36L102.5 25.5L106.5 39V53.5L113 41L108 71L94 79L88 71V48.5L68 38L31 48.5L17.5 38L25 39L16 26L21.5 12L42.5 8L35.5 12L45.5 15.5L37.5 29L40 18.5H23.5L34 35L68 29Z" fill="black"></path>
<path d="M69.798 156.491L92.1847 177.561L103.815 177.561L113.17 180.217L117.327 189.77L111.8 182.514L103.815 182.514L108.148 189.77L97.6472 183.884L91.6844 183.884L86.021 194.215L78.2609 180.217L72.0808 182.514L62.9498 177.561L59.7541 168.494L74.3635 168.494L69.798 156.491Z" fill="black"></path>
<path d="M99.3602 41.9267L103.335 48.7898L98.1506 45.3768L93.4723 44.4203L97.771 43.5345L95.4226 41.4577L87.9082 39.165L91.1053 39.1465L89.2444 36.329L92.3335 38.8934L97.2649 41.0781L95.1509 37.0325L99.3602 41.9267Z" fill="white"></path>
<defs></defs>
</svg>