<svg height="100%" viewbox="0 0 200 200" width="100%" xmlns="http://www.w3.org/2000/svg">
<path d="M100 52.5002C75.5 71.5559 83.6749 103.355 71.6034 115.426C54.839 132.191 39.5 128.227 32.5 100.5C32.5 140.727 71.4196 156.375 102.9 140.911C128.384 128.392 122.5 104.5 135.5 95.5C148.5 86.5 160.469 89.8363 166.281 83.577C172.093 77.3177 179.353 60.5004 167.281 60.5004C155.21 60.5004 124.5 33.4445 100 52.5002Z" fill="black"></path>
<path d="M118.272 73.8927L114.215 75.8773L118.931 66.0312L116.354 61.502L120.606 64.6084L121.002 59.8916L123.464 63.9342L125.403 59.3668L126.322 63.2599L130.034 59.8154L128.457 63.7837L136.6 70.5957L132.5 69.4697C132.5 69.4697 131.493 63.7837 124 65.4697C116.507 67.1557 118.272 73.8927 118.272 73.8927Z" fill="white"></path>
</svg>