<svg height="100%" viewbox="0 0 200 200" width="100%" xmlns="http://www.w3.org/2000/svg">
<path d="M125.607 31.4209C128.665 31.6194 121.46 45.2296 121.46 45.2296L122.5 52.5002L117.651 46.252L113.307 47.3617L113.307 54.7608L109.423 49.0261L90.9373 54.7608L97.5952 66.4121C97.5952 66.4121 100.061 55.4457 104.5 56.0002C108.939 56.5548 114.171 57.5002 117.5 57.5002C120.829 57.5002 127.383 55.6837 128.665 56.7937C129.947 57.9036 114.971 62.8962 109.423 60.1223C103.875 57.3485 108.137 67.7766 108.137 72.5151L118.855 68.9998L116.636 61.7871L121.46 67.8901L125.607 66.412L124.958 60.6774L128.665 66.412L127.383 70.6802C116.055 75.9751 97.7213 83.7779 90.5589 94.5216C85.0106 102.844 84.438 114.261 95.0878 114.261C105.737 114.261 112.582 94.5216 124.958 94.5216C145.147 94.5216 174.556 146.442 154.5 151C143.115 153.588 118.855 156.662 118.855 156.662L118.855 177.745L108.137 173.493L113.861 156.662L99.2598 170.164L68.4743 166.835C112 147.5 116.394 152.656 141.426 144.088C147.908 141.869 138.274 129.475 127.383 127.443C107.881 123.803 92.1304 154.86 68.4744 146.306C60.8008 143.532 57.0932 114.261 57.0932 114.261L52.8309 126.147L42.8441 130.03L48.9471 114.261L38.4055 131.14L17.7007 134.101C17.7007 134.101 51.0932 98.2145 55 89.0002C58.9068 79.786 57.0932 56.7937 57.0932 56.7937L35.6314 60.3091C73 21.5002 79.2439 31.3849 117.651 33.1369C117.651 33.1369 122.549 31.2224 125.607 31.4209Z" fill="black"></path>
<path d="M90.1717 48.1675L86.3588 50.0327L90.7912 40.7789L88.3692 36.5222L92.3659 39.4418L92.7376 35.0086L95.0517 38.8081L96.8742 34.5155L97.7375 38.1744L101.227 34.937L99.7438 38.6666L107.398 45.0688L103.544 44.0106C103.544 44.0106 102.597 38.6666 95.5553 40.2512C88.5131 41.8358 90.1717 48.1675 90.1717 48.1675Z" fill="white"></path>
<path d="M115.644 124.353L111.679 125.866L116.929 117.051L114.901 112.592L118.618 115.861L119.389 111.48L121.35 115.473L123.553 111.362L124.082 115.084L127.849 112.175L126.036 115.756L133.08 122.823L129.337 121.421C129.337 121.421 128.878 116.014 121.721 116.955C114.564 117.897 115.644 124.353 115.644 124.353Z" fill="white"></path>
<path d="M45.6642 113.499L44.0215 114.872L45.078 109.806L43.3794 108.013L45.6882 108.962L45.3365 106.746L46.9272 108.328L47.3029 106.006L48.1662 107.694L49.4851 105.689L49.208 107.694L53.7269 109.908L51.7124 109.853C51.7124 109.853 50.6055 107.35 47.3475 108.974C44.0896 110.598 45.6642 113.499 45.6642 113.499Z" fill="white"></path>
</svg>