<svg height="100%" viewBox="0 0 200 200" width="100%" xmlns="http://www.w3.org/2000/svg">
<path d="M58.8682 163.802L79.593 153.744L78.6952 136C78.6952 136 52.9784 149.04 49.2282 153.744C45.4781 158.449 42.2392 161.699 39.9236 165.107C37.6081 168.515 35.0735 168.708 33.9109 167.918C32.7482 167.128 28.209 164.044 29.8121 161.685C31.4152 159.326 30.6962 158.837 34.8751 156.312C39.054 153.787 49.364 151.213 51.5015 148.068C53.639 144.922 54.8939 139.49 54.1952 136C53.4966 132.51 58.8682 110 58.8682 110L49.458 121.181L49.2282 126.941L47.0373 114.804L39.9236 124L47.0373 136C47.0373 136 49.531 142.33 47.0373 146C44.5436 149.67 31.6071 151.793 31.6071 151.793C31.6071 151.793 15.1568 152.493 13.0193 155.639C10.8819 158.785 14.7036 169.045 22.2285 174.924C29.7534 180.804 43.2522 182.696 46.2803 178.239C49.3084 173.783 47.1442 172.695 49.2816 169.55C51.4191 166.404 53.9395 166.967 53.9395 166.967L58.8682 167.918L58.8682 163.802Z" fill="#3E3E60"></path>
<path d="M171.904 99.9903C171.904 95.4612 174.494 81.5968 174.748 77.5207C175.002 73.4445 170.355 62.1724 170.355 62.1724C170.355 62.1724 163.536 37.6496 150.027 28C132.459 15.4507 84.1852 15.5 84.1852 15.5L102.195 28C102.195 28 81.4946 44.5718 75.2705 49.085C69.0464 53.5982 62.8799 69.1677 75.2705 82.5285C87.6611 95.8893 87.6953 114.483 87.6953 114.483C76.4663 114.483 59.1852 119.173 59.1852 119.173L62.8799 122.567L75.2705 121.479L67.3328 126.234L73.1409 136.651L70.4305 151.371L62.8799 169.713L67.3328 175.148L62.8799 185.565H59.1852L56.6852 187.5L60.1852 187H84.1852L92.1852 189.5L85.6852 184.5L82.4338 185.565L78.5707 176.828L84.1852 171.393L85.734 161.429L98.4052 163.24L111.087 161L122.606 171.393L125.122 186.565L139.685 185.5L141.185 188.5L141.966 185.5L141.185 184H145.185L149.323 186.565L147 182.5L137.319 181.81L132.195 169.713L136.932 168.808L141.966 159.749L121.107 137.706C121.107 137.706 119.079 136.14 119.606 126.234C120.132 116.328 116.489 108.837 111.087 100.418C101.677 85.7537 99.1952 78.2272 113.604 69.1677C128.013 60.1082 141.966 75.0372 141.966 77.5207C141.966 80.0041 139.314 88.6561 139.185 90.4791C139.056 92.3021 143.251 102.255 143.251 102.255L153.248 111.521V112.021C153.248 114.541 154.248 113.997 154.248 112.021C156.33 113.062 155.195 113.5 155.448 109.048L158.195 105.5L153.705 108.143L151.769 106.331L153.705 103L150.027 104.519C150.027 104.519 148.488 103.09 146.929 99.9903C145.371 96.8908 146.695 92 146.695 92C146.695 94.4527 147.695 94.8751 148.695 95.5C149.695 96.1249 150.312 96.5 151.769 96.5C153.227 96.5 158.352 102.255 158.352 102.255C158.352 102.255 156.543 95.7597 154.114 95.1941C151.686 94.6286 149.743 91.2352 149.743 88.4074C149.743 85.5795 149.833 84.2934 151.769 82.5C153.705 80.7066 154.248 82.5 154.248 82.5C154.248 82.5 157.248 95.1941 158.352 97.4992C159.456 99.8043 162.224 102.255 162.224 102.255L158.352 110.634L164.16 104.519L167.064 107.463L161.062 114.483L169.194 109.048C169.194 109.048 173.361 112.106 173.059 108.768C172.756 105.429 171.904 104.519 171.904 99.9903Z" fill="black"></path>
<path d="M159.961 86.2581L159.719 90.4958L166.532 82.8237L171.395 83.4067L167.154 80.8538L171.097 78.7932L166.698 78.1323L169.948 74.7887L166.241 75.4108L167.873 70.9398L165.01 73.752L156.142 69.1775L158.611 72.3199C158.611 72.3199 163.904 71.1214 165.172 78.2274C166.44 85.3334 159.961 86.2581 159.961 86.2581Z" fill="white"></path>
<path d="M104.331 152.885L108.55 153.352L101.251 146.141L102.092 141.316L99.3168 145.415L97.4686 141.368L96.5749 145.726L93.4088 142.302L93.833 146.038L89.455 144.17L92.1111 147.179L87.0718 155.791L90.3409 153.493C90.3409 153.493 89.4254 148.144 96.5888 147.255C103.752 146.366 104.331 152.885 104.331 152.885Z" fill="white"></path>
<path d="M46.9304 130.174L45.6045 131.726L50.4459 130.771L52.1382 132.41L51.2575 130.198L53.3668 130.557L51.8746 129.023L54.0925 128.689L52.4918 127.848L54.4179 126.611L52.503 126.855L50.4388 122.522L50.4696 124.444C50.4696 124.444 52.8452 125.526 51.2629 128.616C49.6805 131.706 46.9304 130.174 46.9304 130.174Z" fill="white"></path>
<path d="M87.6864 125.154L90.1807 125.891L86.5559 120.754L87.5833 117.935L85.4677 120.108L84.7894 117.468L83.7803 120L82.2399 117.593L82.0929 119.892L79.6537 118.293L80.9312 120.395L76.9629 125.046L79.1826 124.012C79.1826 124.012 79.2073 120.687 83.6238 120.923C88.0403 121.16 87.6864 125.154 87.6864 125.154Z" fill="white"></path>
</svg>