<svg height="100%" viewBox="0 0 200 200" width="100%" xmlns="http://www.w3.org/2000/svg">
<path d="M105 59.7728C88.9047 72.2914 105 123.5 69.5 108C34 92.5 47 146.5 15 126C51 170.5 25 112.5 76 144.5C127 176.5 121.231 101.929 131.067 98.3523C140.903 94.7756 160.469 90.093 166.281 83.8337C172.093 77.5744 179.353 59.7727 167.281 59.7727C155.21 59.7727 121.095 47.2542 105 59.7728Z" fill="black"></path>
<path d="M143.51 76.2071C145.647 74.7988 146.77 72.8459 146.77 72.8459L137.081 70.5085L150 70.8528C150 70.8528 149.643 71.7839 148.821 73.0786C148.66 73.3919 148.177 74.2293 147.151 75.3064C145.555 77.124 143.211 79.0407 139.934 80.0839C138.616 80.6564 137.114 81.2005 135.406 81.6868C124.327 84.8412 118 81.3212 118 81.3212C118 81.3212 124.609 82.0997 131.73 80.6345C122.253 79.0346 118 69.9999 118 69.9999L130.11 70.3227C130.882 72.5812 132.83 76.528 137.19 77.4371C138.91 77.7955 140.412 77.6016 141.686 77.1343C142.326 76.8234 142.936 76.512 143.51 76.2071Z" fill="white"></path>
</svg>