<svg height="100%" viewBox="0 0 200 200" width="100%" xmlns="http://www.w3.org/2000/svg">
<path d="M165.9 100.624C161.923 98.2917 157.742 92.5597 157.742 92.5597L161.516 93.1757C161.516 93.1757 164.464 97.3601 167.605 98.8828C170.746 100.405 178.218 100.615 178.218 100.615L173.18 101.813L176.9 102.757C176.9 102.757 169.877 102.957 165.9 100.624Z" fill="black"></path>
<path d="M138.773 88.3521C134.137 80.4042 132.696 76.664 126.001 76.664C119.307 76.664 113.817 80 112.001 88.3521C110.186 96.7041 117.267 116.871 117.267 116.871C117.267 116.871 125.683 118.741 132.696 127.156C139.708 135.572 138.773 137.909 138.773 137.909L148.124 129.494L144.851 137.909H153.267L142.046 147.727C142.046 147.727 114.93 160.35 101.839 159.415C88.7486 158.481 79.3981 159.415 79.3981 159.415C79.3981 159.415 69.5802 164.558 60.2298 164.558C50.8793 164.558 31.7109 155.675 31.7109 155.675C44.1782 152.403 58.8272 152.87 62.5674 142.117C66.3075 131.364 55.5545 98.17 69.1127 76.664C82.6708 55.158 98.5665 46.275 119.137 44.4049C139.708 42.5348 144.384 47.21 155.604 57.0281C166.825 66.8461 164.02 82.2743 170.565 93.0273C177.11 103.78 143.41 96.2999 138.773 88.3521Z" fill="black"></path>
<path d="M150.464 88.0462C151.913 88.5195 153.24 88.3183 153.24 88.3183L150.735 82.9374L155.366 89.084C155.366 89.084 154.8 89.2632 153.892 89.3603C153.686 89.4014 153.117 89.4873 152.235 89.4088C150.796 89.3391 149.034 88.9581 147.332 87.8182C146.576 87.4163 145.766 86.9185 144.906 86.3032C139.327 82.3114 138.62 78.0582 138.62 78.0582C138.62 78.0582 140.709 81.4261 144.032 84.2001C141.263 79.1917 143.895 73.859 143.895 73.859L148.236 79.6209C147.47 80.818 146.354 83.1894 147.548 85.5583C148.018 86.4922 148.666 87.1203 149.356 87.5405C149.738 87.7235 150.11 87.892 150.464 88.0462Z" fill="white"></path>
<path d="M56.489 160.809C55.3841 160.691 54.5622 160.161 54.5622 160.161L57.8358 157.331L52.919 160.035C52.919 160.035 53.2419 160.323 53.8169 160.659C53.9415 160.748 54.2942 160.975 54.9045 161.187C55.8823 161.57 57.1681 161.843 58.6404 161.594C59.2631 161.552 59.9508 161.463 60.7067 161.311C65.6098 160.324 67.3507 157.706 67.3507 157.706C67.3507 157.706 64.9553 159.322 61.9159 160.173C65.2543 157.67 65.0977 153.337 65.0977 153.337L60.4887 155.872C60.6405 156.897 60.6742 158.808 59.1724 160.026C58.5803 160.507 57.9619 160.731 57.3773 160.804C57.0683 160.812 56.7711 160.813 56.489 160.809Z" fill="white"></path>
<path d="M53.7463 68.6323C53.7463 68.6323 54.7356 72.9162 59.0195 76.1291C63.3033 79.342 70.2647 78.2711 70.2647 78.2711L64.3743 91.6582L57.9485 102.368L59.0195 90.5872L53.7463 100.72L41.3484 95.9421L21 112.542C21 112.542 26.4275 97.0131 35.9936 84.1614C45.5597 71.3098 53.7463 68.6323 53.7463 68.6323Z" fill="black"></path>
<path d="M52.0888 94.3106C51.3016 95.1469 50.3518 95.493 50.3518 95.493L50.0644 91.0297L49.222 96.7677C49.222 96.7677 49.6611 96.6816 50.2967 96.4178C50.4477 96.3706 50.855 96.2219 51.4102 95.8512C52.3367 95.2853 53.3644 94.3968 54.078 93.0282C54.4326 92.4894 54.7887 91.8675 55.1352 91.1499C57.3828 86.4946 56.3137 83.4266 56.3137 83.4266C56.3137 83.4266 56.149 86.4083 54.953 89.4435C54.9753 85.131 51.3086 82.5549 51.3086 82.5549L50.5189 87.9337C51.458 88.4486 53.0529 89.6136 53.1191 91.6115C53.1451 92.3992 52.9437 93.0485 52.6391 93.5757C52.4523 93.8349 52.2677 94.0804 52.0888 94.3106Z" fill="white"></path>
</svg>