<svg height="100%" viewbox="0 0 200 200" width="100%" xmlns="http://www.w3.org/2000/svg">
<path d="M99.3231 61.2438C72.6463 84.9877 83.0715 97.4583 71 109.53C54.2356 126.294 49 127.5 22.5 120.5C45.5 140.5 71.4196 157.631 102.9 142.167C128.384 129.649 123.164 97.5765 133 93.9998C142.836 90.423 161.188 82.2592 167 75.9999C172.812 69.7406 184.5 61.2437 163 61.2437C141.5 61.2437 126 37.4999 99.3231 61.2438Z" fill="black"></path>
<path d="M139 68.5C142.541 68.5 145 65.8996 145 65.8996L142.541 70.7662C135.42 73.1616 129.233 67.6338 122.5 65.8999C122.5 65.8999 126.5 70.7662 129.5 72.9778C132.5 75.1894 137.657 73.1621 137.657 73.1621C137.657 73.1621 131.203 81.5037 124.755 72.9778C118.307 64.452 103.5 68.5 103.5 68.5C103.5 68.5 116.42 63.4332 121.5 63.5C126.58 63.5668 135.459 68.5 139 68.5Z" fill="white"></path>
</svg>