<svg height="100%" viewbox="0 0 200 200" width="100%" xmlns="http://www.w3.org/2000/svg">
<path d="M152 65C152 65 163 57.5 139 53C111.952 47.9285 88.7553 57.0003 82.5 78.0001C76.2447 99 52 99.0001 49.5 113.5C47 128 52 135.5 52 135.5L4.5 159.5L29.5 157.5L52 143L21.5 178L43 166L58.5 143C58.5 143 63 146 78.5 153C94 160 116.5 150.5 124.5 143C132.5 135.5 135 107 137 96.5C139 86 152 72 152 72L185 63H170L152 65Z" fill="black"></path>
<path d="M139 68.5004C142.541 68.5004 145 65.9 145 65.9L142.541 70.7666C135.42 73.162 129.233 67.6342 122.5 65.9002C122.5 65.9002 126.5 70.7666 129.5 72.9782C132.5 75.1898 137.657 73.1625 137.657 73.1625C137.657 73.1625 131.203 81.5041 124.755 72.9782C118.307 64.4523 103.5 68.5004 103.5 68.5004C103.5 68.5004 116.42 63.4336 121.5 63.5004C126.58 63.5672 135.459 68.5004 139 68.5004Z" fill="white"></path>
<path d="M106.621 112.973C109.476 110.753 109.828 107.116 109.828 107.116L110.896 112.58C106.656 118.975 98.2033 118.396 91.6886 121.218C91.6886 121.218 97.9635 122.634 101.768 122.537C105.573 122.44 108.46 117.573 108.46 117.573C108.46 117.573 108.485 128.343 97.9426 125.511C87.4005 122.678 78 135.222 78 135.222C78 135.222 85.2409 123.04 89.3782 119.91C93.5156 116.78 103.766 115.192 106.621 112.973Z" fill="white"></path>
</svg>