<svg height="100%" viewBox="0 0 200 200" width="100%" xmlns="http://www.w3.org/2000/svg">
<path d="M97.7872 106.118C97.7872 106.118 102.894 100.484 102.894 94.1882C102.894 86.495 88.7684 77.352 98.7447 71.6549C106.296 67.3428 108 85.5484 108 90.5432C108 96.1765 105.128 104.792 102.894 108.106C100.66 111.42 98.7447 110.757 95.5532 114.402C92.1382 118.302 90.4468 121.988 87.6774 126L90.4468 119.704C90.4468 119.704 91.4043 116.721 85.9787 117.716C80.5532 118.71 78 119.704 78 119.704L85.3404 115.396C85.3404 115.396 84.0638 115.396 85.3404 110.094C86.617 104.792 97.7872 106.118 97.7872 106.118Z" fill="black"></path>
<path d="M114 60L142.5 42.742C164.509 53.1315 188 72.5 158 111.242V151.742L175 92.4999L166.5 138.242L175 179.742L181.5 98.5L184.5 151.742L194 177.742C194 177.742 188 117 188 101.5C188 13.5831 161 -26 96 59.242L114 60Z" fill="#3E3E60"></path>
<path d="M127.085 94.2058C127.085 103.734 114.308 111.257 114.308 111.257L121.974 123.292C118.611 117.793 119.225 111.313 125.041 107.746C133.49 114.655 130.677 142.933 133.73 117.776C148.551 118.277 171.854 59.0628 143.951 51.0775C131.685 47.567 90.2864 57.5968 106.13 34.0266C120.513 12.6306 26.5104 -38.1884 3 82.6715L6.06657 123.292L12.7108 74.6476V131.316L23.4438 162.91L20.8884 99.7222L32.1325 167.424L53.5984 189.991C35.199 140.845 6.93456 82.4791 64.7316 47.567V71.1371C34.577 109.752 65.7538 179.961 69.8426 182.97C73.9313 185.979 79.0423 187.484 79.0423 187.484L89.2642 182.97H81.5977C66.2502 174.004 59.452 153.164 58.5984 136.833L99.9972 182.97L96.9306 187.484L121.463 193L140.885 182.97L118.908 184.976L76.9979 152.379L131.174 175.949L142.929 167.424L149.573 149.872L135.774 167.424C110.809 162.525 62.3413 150.497 58.5984 119.28C55.1711 90.6954 74.0726 93.6006 89.7753 92.1999C108.92 90.4922 117.293 68.1282 136.796 68.1282C152.129 68.1282 127.085 84.6775 127.085 94.2058Z" fill="black"></path>
<path d="M132.129 109.976C132.157 112.068 133.713 113.501 133.713 113.501L130.818 112.086C129.346 107.898 132.563 104.198 133.534 100.206C133.534 100.206 130.691 102.608 129.408 104.398C128.125 106.188 129.364 109.219 129.364 109.219C129.364 109.219 124.384 105.472 129.37 101.594C134.357 97.7168 131.847 89 131.847 89C131.847 89 134.943 96.5939 134.944 99.596C134.945 102.598 132.101 107.884 132.129 109.976Z" fill="white"></path>
<path d="M136.842 95.7051C136.418 96.8343 136.953 97.9295 136.953 97.9295L135.695 96.5632C135.784 94.0057 138.287 92.6942 139.645 90.7549C139.645 90.7549 137.615 91.4481 136.551 92.1401C135.487 92.8321 135.516 94.719 135.516 94.719C135.516 94.719 133.628 91.6629 137.118 90.627C140.609 89.5911 141.09 84.3853 141.09 84.3853C141.09 84.3853 141.159 89.1113 140.53 90.7232C139.901 92.335 137.266 94.5759 136.842 95.7051Z" fill="white"></path>
<path d="M98.129 42.976C98.1572 45.0685 99.7132 46.5006 99.7132 46.5006L96.8181 45.0865C95.3462 40.8975 98.5633 37.1978 99.5343 33.2059C99.5343 33.2059 96.6907 35.6081 95.4078 37.3983C94.1248 39.1885 95.3637 42.2193 95.3637 42.2193C95.3637 42.2193 90.3836 38.4721 95.3701 34.5945C100.357 30.7168 97.847 22 97.847 22C97.847 22 100.944 29.5939 100.944 32.596C100.945 35.5981 98.1009 40.8836 98.129 42.976Z" fill="white"></path>
<path d="M86.5 84.7295C86.5 84.7295 91.5 78.7294 81.5 73.2294C69.6738 66.725 67 94.1759 67 101.73C67 110.23 71.5 123.23 75 128.23C78.5 133.23 80.5 132.5 85.5 138C90.8499 143.885 95.297 149.716 101.5 155.23C98.1763 150.719 88.5623 140.446 101.5 142.73C110 144.23 114 145.73 114 145.73L102.5 139.23C102.5 139.23 104.5 139.23 102.5 131.23C100.5 123.23 83 125.23 83 125.23C83 125.23 75 116.73 75 107.23C75 97.7295 86.5 84.7295 86.5 84.7295Z" fill="#3E3E60"></path>
<path d="M94.1618 139.845C94.9747 140.841 96.2704 140.936 96.2704 140.936L94.3373 141.362C92.0289 139.908 92.1635 136.9 91.1058 134.608C91.1058 134.608 90.6552 136.85 90.7218 138.201C90.7884 139.553 92.5423 140.538 92.5423 140.538C92.5423 140.538 88.7147 140.637 89.6326 136.867C90.5506 133.096 86.0133 129.861 86.0133 129.861C86.0133 129.861 90.404 132.332 91.5512 133.776C92.6985 135.22 93.349 138.849 94.1618 139.845Z" fill="white"></path>
<path d="M89.5041 114.891C88.8383 115.333 88.092 115.123 88.092 115.123L89.0859 115.782C90.6864 115.371 91.2459 113.503 92.3222 112.32C92.3222 112.32 92.1018 113.784 91.7793 114.597C91.4569 115.409 90.2659 115.649 90.2659 115.649C90.2659 115.649 92.3905 116.501 92.6714 114.005C92.9524 111.51 96.1784 110.469 96.1784 110.469C96.1784 110.469 93.1959 111.073 92.2481 111.719C91.3004 112.365 90.1699 114.45 89.5041 114.891Z" fill="white"></path>
</svg>