<svg height="100%" viewbox="0 0 200 200" width="100%" xmlns="http://www.w3.org/2000/svg">
<path d="M136.049 69.4616C134.549 67.4616 130.549 59.9617 113.049 57.4622C95.549 54.9628 75.049 75.4627 74.0489 94.4623C73.0488 113.462 70.5487 128.462 52.5489 113.962C52.5489 113.962 57.0488 134.961 70.5487 139.461C88.8541 145.563 116.5 142.5 116.5 123.5C116.5 104.5 116.049 97.4623 118.049 93.4623C120.049 89.4623 126.05 90.4435 132.05 90.4526C138.05 90.4618 147.549 81.4623 147.278 78.8369C147.006 76.2115 138.955 73.3359 136.049 69.4616Z" fill="black"></path>
<path d="M121 66.4112L127.966 79.6728C127.966 79.6728 124.483 72.4392 126.805 72.4392C129.127 72.4392 130.288 76.056 130.288 76.056C130.288 76.056 131.449 74.8504 132.609 76.056C133.77 77.2616 133.77 79.6728 133.77 79.6728H136.673C136.673 79.6728 136.092 76.056 132.609 73.6448C129.127 71.2336 126.805 64 126.805 64C126.805 64 126.805 67.6168 127.966 70.028C129.127 72.4392 130.288 73.6448 130.288 73.6448L121 66.4112Z" fill="white"></path>
<path d="M127.661 79.6525L129.638 78.8874L129.831 76.9018L130.652 78.7428L132.784 78.9223L130.807 79.6874L130.615 81.673L129.793 79.832L127.661 79.6525Z" fill="white"></path>
</svg>