<svg height="100%" viewbox="0 0 200 200" width="100%" xmlns="http://www.w3.org/2000/svg">
<path d="M141.101 50.3227C130.726 45.1764 126.54 48.141 121.477 45.5379C116.414 42.9348 106.915 36.6579 106.915 36.6579C106.915 36.6579 106.355 42.8227 107.304 44.579C108.253 46.3353 111.159 50.1995 111.159 50.1995L96.9672 47.6032C96.9672 47.6032 98.8704 52.4301 100.29 54.1884C101.709 55.9466 107.36 57.2841 107.36 57.2841C107.36 57.2841 89.5371 69.5753 80.642 79.4741C71.7468 89.3728 61.4884 110.105 62.4758 120.624C63.4632 131.143 66.7989 140.795 72.4601 144.323C78.1191 147.849 95.9854 147.924 100.698 147.944L100.704 147.944C105.408 147.963 124.2 141.907 126.045 133.591C127.89 125.275 121.771 112.106 121.746 106.411C121.72 100.517 123.029 89.7685 126.781 87.1554C130.533 84.5422 133.646 83.6788 138.21 85.0119C142.773 86.3449 142.438 87.3316 143.713 90.2769L149 85.0119C144.048 86.1675 139.112 82.1365 139.5 77.4127C139.888 72.6889 146.438 70.9619 147.5 75C148.036 77.0378 146.886 79.7466 146.886 79.7466C146.886 79.7466 149.245 76.1345 151.296 77.4127C153.347 78.6909 154.086 78.7294 154.086 78.7294L162.228 69.8743C162.228 69.8743 159.997 67.0971 156.794 65.3738L154.021 64.1265C154.021 64.1265 151.476 55.469 141.101 50.3227Z" fill="black"></path>
<path d="M129 130.5C117.5 129 90 135.684 90 135.684C90 135.684 125.087 133.331 131.293 135.684C159.173 146.253 125.44 160.189 107.5 152.5C100.5 149.5 82.3526 140.86 72.4704 135.684C62.5881 130.507 42.5001 135.501 34.8236 140.86C8.67837 159.112 40.3129 182.871 60.7057 179.919C70.5 178.501 87.0585 170.036 87.0585 170.036H72.4704L82.3526 159.684C82.3526 159.684 74 163.053 66 165.001C54.5281 167.793 35.4229 162.048 44 147.001C47.5 140.86 55.5296 139.5 64 139.5C72.4704 139.5 110.528 161.895 123.764 163.448C137 165.001 148 155.919 150 148.39C152 140.86 140.5 132 129 130.5Z" fill="black"></path>
<path d="M46.8585 174.065L58.9851 176.772C58.9851 176.772 52.5404 175.095 53.7859 173.626C55.0315 172.157 57.9424 173.363 57.9424 173.363C57.9424 173.363 57.8025 171.982 59.1879 171.894C60.5734 171.806 62.0989 173.099 62.0989 173.099L63.6558 171.263C63.6558 171.263 61.0562 169.69 57.6625 170.6C54.2687 171.51 48.4468 169.099 48.4468 169.099C48.4468 169.099 50.735 171.039 52.8832 171.598C55.0315 172.157 56.417 172.069 56.417 172.069L46.8585 174.065Z" fill="white"></path>
<path d="M58.8091 176.954L59.3854 175.293L58.2326 174.106L59.838 174.573L61.0952 173.321L60.519 174.982L61.6717 176.169L60.0663 175.701L58.8091 176.954Z" fill="white"></path>
<path d="M139 59L144.778 70C144.778 70 141.889 64 143.815 64C145.741 64 146.704 67 146.704 67C146.704 67 147.667 66 148.63 67C149.593 68 149.593 70 149.593 70H152C152 70 151.519 67 148.63 65C145.741 63 143.815 57 143.815 57C143.815 57 143.815 60 144.778 62C145.741 64 146.704 65 146.704 65L139 59Z" fill="white"></path>
<path d="M144.525 69.9832L146.165 69.3485L146.325 67.7016L147.006 69.2286L148.774 69.3775L147.135 70.0121L146.975 71.6591L146.294 70.1321L144.525 69.9832Z" fill="white"></path>
<path d="M111.5 125C98.9999 129 92 134.796 92 134.796C92 134.796 114.866 129.745 124 131C133.134 132.255 145.5 139 145.5 139C145.5 139 142.5 135.796 140.5 134C138.5 132.204 132.5 129.001 132.5 129.001L150 130C138.501 125.608 124 121 111.5 125Z" fill="#3E3E60"></path>
</svg>