<svg height="100%" viewbox="0 0 200 200" width="100%" xmlns="http://www.w3.org/2000/svg">
<path d="M31 155C37.5 158 49.4998 154 51.4999 150C53.5 146 58 136.5 58 136.5L60 138C60 138 56.142 150 51 156C45.858 162 32.9999 163.356 26.5 161.5C20 159.643 12.9999 153.501 9.49999 146.5C6.00005 139.499 7.49982 123 13.9999 115C20.5 107 34.9999 100 41.5 101.5C48 102.999 52.5 106.5 55 112.5C57.5 118.5 55.4999 122.5 55.4999 122.5C55.4999 122.5 54.5 118 51 115C47.5 112 41 110.5 41 110.5C41 110.5 45.3 113 48 117.5C50.7 122 51 124.5 51 124.5C45.5001 117.999 40.9999 117.5 33 119.5C25.0001 121.5 18 133 19.5 140.5C21 148 24.5 152 31 155Z" fill="#3E3E60"></path>
<path d="M39.3211 104.214L44.3413 109.48C44.3413 109.48 41.7509 106.565 42.8353 106.256C43.9198 105.947 44.9439 107.481 44.9439 107.481C44.9439 107.481 45.3255 106.764 46.0283 107.172C46.7312 107.58 47.0524 108.707 47.0524 108.707L48.408 108.32C48.408 108.32 47.655 106.708 45.7071 106.046C43.7592 105.384 41.711 102.315 41.711 102.315C41.711 102.315 42.1929 104.004 43.0563 104.975C43.9198 105.947 44.6226 106.355 44.6226 106.355L39.3211 104.214Z" fill="white"></path>
<path d="M44.1967 109.511L45.018 108.891L44.8435 107.938L45.4725 108.688L46.4921 108.488L45.6708 109.108L45.8453 110.061L45.2164 109.311L44.1967 109.511Z" fill="white"></path>
<path d="M151.101 50.3233C140.726 45.177 139.063 47.1828 134 44.5796C128.937 41.9765 116.915 36.6585 116.915 36.6585C116.915 36.6585 116.355 42.8233 117.304 44.5796C118.253 46.3359 125.5 49.0007 125.5 49.0007L106.967 47.6038C106.967 47.6038 108.87 52.4307 110.29 54.189C111.709 55.9472 119.5 55.5007 119.5 55.5007C119.5 55.5007 96.7839 63.949 90.642 79.4747C84.5 95.0004 75 108.001 66 116.5C57 125 55.5 140 55.5 140L77.5 166.501L90.642 170.501L109 168.001L119.5 169.501L109 163.501C109 163.501 103.5 166.001 100 163.501C96.5 161.001 96 159.501 101 158.001C106 156.501 118 165.501 121 160.001C124 154.501 110.29 135.501 110.29 135.501C110.29 135.501 119.254 128.501 125.5 127.501C131.746 126.501 139 124.501 141 128.501C143 132.501 137.5 134.501 137.5 134.501L133.5 132.001L137 137.001L141.5 135.501L138.5 140.001L133.5 140.001L139 143.501C139 143.501 148.311 132.501 148.21 125.001C148.108 117.501 132.525 107.696 132.5 102.001C132.474 96.107 133.029 89.7691 136.781 87.156C140.533 84.5428 143.646 83.6794 148.21 85.0125C152.773 86.3456 152.437 87.3322 153.713 90.2775L159 85.0125C154.048 86.1681 146.612 80.2245 147 75.5007C147.388 70.7768 156.938 68.4626 158 72.5007C158.536 74.5385 156.886 79.7472 156.886 79.7472C156.886 79.7472 159.245 76.1351 161.296 77.4133C163.347 78.6915 164.086 78.73 164.086 78.73L172.228 69.8749C172.228 69.8749 169.997 67.0977 166.794 65.3744L164.021 64.1271C164.021 64.1271 161.476 55.4696 151.101 50.3233Z" fill="black"></path>
<path d="M46.5 148.5C52 149.5 55.4999 139 56.9999 134L58.5 139C58.5 139 49.9999 159 44 157C38.0001 155 28.0001 139 26.0001 134C24.0001 129 23.2001 120 26 109.5C28.7999 99 36.0001 93.5 38 88C41.0969 79.4832 36.0254 71.8712 32.5 64.5L41 71.5C41 71.5 38 62.5 38 56.5C38 50.5 41 37.5 41 37.5C41 37.5 39.9999 45.5 42.4999 52.5C44.9999 59.5 58.5 59 58.5 72.5C58.5 86 56.9999 88 52 94.5C47.0001 101 30.4999 116 31.4999 127C32.4999 138 41 147.5 46.5 148.5Z" fill="black"></path>
<path d="M52.6393 75.3382L44.8011 68.3313C44.8011 68.3313 49.1306 71.9377 49.5271 70.3571C49.9237 68.7764 47.6598 67.3684 47.6598 67.3684C47.6598 67.3684 48.6788 66.784 48.0564 65.7877C47.4339 64.7915 45.7925 64.3797 45.7925 64.3797L46.2882 62.4039C46.2882 62.4039 48.6512 63.4168 49.6978 66.1995C50.7444 68.9823 55.2722 71.7984 55.2722 71.7984C55.2722 71.7984 52.81 71.1807 51.3668 69.9785C49.9237 68.7764 49.3012 67.7802 49.3012 67.7802L52.6393 75.3382Z" fill="white"></path>
<path d="M44.7629 68.5415L45.6213 67.3265L47.0059 67.5344L45.893 66.6607L46.1349 65.1787L45.2764 66.3937L43.8918 66.1858L45.0048 67.0595L44.7629 68.5415Z" fill="white"></path>
<path d="M151 58.6923L155.889 68C155.889 68 153.444 62.9231 155.074 62.9231C156.704 62.9231 157.519 65.4615 157.519 65.4615C157.519 65.4615 158.333 64.6154 159.148 65.4615C159.963 66.3077 159.963 68 159.963 68H162C162 68 161.593 65.4615 159.148 63.7692C156.704 62.0769 155.074 57 155.074 57C155.074 57 155.074 59.5385 155.889 61.2308C156.704 62.9231 157.519 63.7692 157.519 63.7692L151 58.6923Z" fill="white"></path>
<path d="M155.675 67.9848L157.063 67.4478L157.198 66.0543L157.774 67.3464L159.271 67.4724L157.883 68.0094L157.748 69.4029L157.171 68.1108L155.675 67.9848Z" fill="white"></path>
</svg>