<svg height="100%" viewbox="0 0 200 200" width="100%" xmlns="http://www.w3.org/2000/svg">
<path d="M62.0001 145.5C60.6584 141.234 64.0001 132.5 64.0001 132.5L70.0001 135.5C70.0001 135.5 65.5004 140.748 68.0001 149.5C70.4998 158.252 66.0709 168.817 60.1071 172C54.1433 175.182 42.0001 176 36.7521 173.017C31.5041 170.034 26.0001 167.701 21.0001 153.5C16.0001 139.299 20.9998 131.499 20.9998 131.499L11.4998 137.282C11.4998 137.282 21.5889 119.667 28 116.947C34.4111 114.228 41.5327 114.371 47.5001 116.947C53.4675 119.524 53.8566 123.804 53.8566 123.804C53.8566 123.804 51.4695 119.509 47.5001 119C43.5307 118.49 38.6139 120.5 39.5001 126C40.3863 131.5 44.1212 130.432 50.0001 131.499C38.99 134.631 37.2481 137 35.5001 144.5C33.7521 152 36.2638 158.521 41.5001 162.5C46.7364 166.479 52.0669 166.559 58.8255 164.199C65.5842 161.838 63.3418 149.766 62.0001 145.5Z" fill="#3E3E60"></path>
<path d="M29.5146 121.898L36.7839 122.196C36.7839 122.196 32.8958 121.9 33.4606 120.924C34.0254 119.948 35.8282 120.34 35.8282 120.34C35.8282 120.34 35.6038 119.558 36.393 119.364C37.1822 119.169 38.1958 119.755 38.1958 119.755L38.9018 118.535C38.9018 118.535 37.2402 117.9 35.3794 118.777C33.5186 119.655 29.9129 118.871 29.9129 118.871C29.9129 118.871 31.4334 119.751 32.7294 119.85C34.0254 119.948 34.8146 119.753 34.8146 119.753L29.5146 121.898Z" fill="white"></path>
<path d="M36.7016 122.319L36.8608 121.302L36.073 120.738L37.0467 120.84L37.6408 119.988L37.4816 121.005L38.2694 121.569L37.2956 121.466L36.7016 122.319Z" fill="white"></path>
<path d="M135.062 128.292L115.496 122.877C105.376 120.077 89.3348 124.875 89.3348 124.875L83.376 135.867C83.376 135.867 110.996 129.295 115.532 134.556C120.068 139.816 113.532 151.625 113.532 151.625C113.532 151.625 130.754 140.778 137.464 142.635C144.175 144.492 146.278 147.171 146.278 147.171C146.278 147.171 143.868 144.029 137.464 140.431C131.06 136.833 126.11 144.367 122.429 140.431C118.748 136.495 135.062 128.292 135.062 128.292Z" fill="#3E3E60"></path>
<path d="M122.382 69.8972C122.382 69.8972 133.86 82.859 137.823 84.643C141.785 86.4269 149.425 84.4743 152.169 82.3524C154.914 80.2304 160.576 73.0133 160.576 73.0133L158.186 71.1225L165.563 69.5748L176.333 64.7089L183.844 68.2527C183.844 68.2527 179.535 66.5659 175.701 67.7659C171.867 68.966 166.044 75.3334 166.044 75.3334L171.593 75.2897L175.032 81.9719C175.032 81.9719 173.356 79.1138 169.608 78.3394C165.86 77.5649 162.978 80.658 162.978 80.658L158.417 85.7557L143.757 99.268L131.015 99.8214C130.84 99.8436 130.719 99.8342 130.719 99.8342L131.015 99.8214C131.697 99.7348 133.198 99.1687 131.572 95.7032C129.529 91.3475 116.38 90.0736 116.38 90.0736L124.265 86.6228L116.332 82.5929L122.382 69.8972Z" fill="black"></path>
<path d="M130.28 102.383C127.549 97.971 127.818 82.4851 127.818 82.4851L109.552 84.1019L111.407 91.9005L105.027 86.5654C105.027 86.5654 113.51 99.2969 112.623 104.973C111.737 110.649 106.868 110.457 106.868 110.457L120.152 118.604L143.687 115.019L151.606 113.019C151.606 113.019 156.455 116.327 155.095 119.665C153.736 123.003 149.157 127.679 149.157 127.679L160.535 120.741L158.414 111.516C158.414 111.516 166.127 111.951 167.39 117.496C168.64 122.983 163.288 127.751 163.175 127.851L171.024 120.927L166.462 111.584L161.566 103.775L153.231 100.38L154.334 103.848C154.334 103.848 143.909 107.21 139.776 107.478C135.642 107.746 133.011 106.795 130.28 102.383Z" fill="black"></path>
<path d="M62.2872 108.805C61.6434 112.374 54.694 122.564 54.694 122.564C54.694 122.564 64.6811 113.87 67.6319 107.19C70.5826 100.509 68.246 91.4911 65.8273 87.4403C63.4086 83.3896 54.694 79.1006 54.694 79.1006L57.2632 83.3896C57.2632 83.3896 48.4763 81.5454 36.4376 87.4403C24.3989 93.3353 15.3656 106.059 11.8129 121.151C8.26023 136.243 16.8974 155.024 27.1349 159.426C37.3724 163.827 48.0424 161.058 54.694 154.474C61.3455 147.89 67.6319 136.318 67.6319 136.318V123.664C67.6319 123.664 61.5578 139.514 53.8776 148.422C46.1974 157.33 31.4958 155.811 25.4765 151.837C19.4571 147.863 14.5802 131.33 17.5663 119.813C20.5524 108.297 31.1795 101.4 35.8457 100.509C40.5118 99.6187 45.178 98.954 48.8072 103.62C51.6026 107.214 51.3221 112.039 51.0457 114.066C50.9342 114.664 50.8811 115.026 50.8811 115.026C50.8811 115.026 50.9632 114.67 51.0457 114.066C51.4937 111.66 52.8838 105.439 55.5472 103.62C58.873 101.349 62.9311 105.235 62.2872 108.805Z" fill="black"></path>
<path d="M55.1581 86.8965L57.845 96.436C57.845 96.436 56.5843 91.2761 58.087 91.595C59.5898 91.9138 59.8444 94.4141 59.8444 94.4141C59.8444 94.4141 60.7613 93.7932 61.3471 94.7329C61.9329 95.6726 61.6018 97.2332 61.6018 97.2332L63.4802 97.6318C63.4802 97.6318 63.6012 95.2113 61.6783 93.1724C59.7553 91.1336 59.2461 86.1331 59.2461 86.1331C59.2461 86.1331 58.7493 88.4739 59.1696 90.1939C59.5898 91.9138 60.1755 92.8535 60.1755 92.8535L55.1581 86.8965Z" fill="white"></path>
<path d="M58.1355 96.3895L59.2114 95.7913L59.1636 94.6338L59.7833 95.6271L61.0241 95.5599L59.9482 96.1581L59.996 97.3157L59.3763 96.3223L58.1355 96.3895Z" fill="white"></path>
<path d="M101.69 122.803C106.478 111.745 120.23 115.684 128.404 98.2458C136.578 80.808 123.877 77.0828 121.549 63.6964C119.221 50.3101 130.724 50.7374 130.724 50.7374L123.984 28.4436C123.984 28.4436 89.4089 23.7488 83.5887 48.1934C77.7686 72.6379 88.2154 83.5944 85.6181 93.2511C83.0208 102.908 78.8781 104.139 71.3664 114.542C63.8547 124.946 61.4722 137.823 61.4722 137.823C61.4722 137.823 88.4882 144.807 94.2023 154.701C99.9165 164.595 83.5887 169.833 83.5887 169.833L94.2023 182.426C94.2023 182.426 105.33 178.088 109.986 179.834C114.642 181.58 120.873 184.5 120.873 184.5L110.943 175.686C110.943 175.686 97.7334 180.787 95.9873 172.057C94.2413 163.327 112.903 158.193 112.903 158.193L108.228 140.151C108.228 140.151 96.9024 133.862 101.69 122.803Z" fill="black"></path>
<path d="M117.236 22.2414C126.552 24.0226 129.286 28.564 129.286 28.564L137.291 36.3927L133.558 59.8553C129.434 56.6626 121.347 62.4604 125.718 69.3084C127.63 72.3036 132.944 73.6259 132.944 73.6259C132.944 73.6259 127.481 75.5251 125.681 74.5901C123.882 73.6552 121.557 71.3981 121.557 71.3981C121.557 71.3981 123.042 74.3648 122.714 79.032C122.385 83.6993 122.498 85.7595 122.498 85.7595C122.498 85.7595 121.111 81.7025 119.17 78.1922C117.23 74.6819 111.888 72.907 111.888 72.907C111.888 72.907 112.698 78.3483 109.557 82.9637C106.415 87.5792 98.8861 91.0084 99.0079 93.2403C99.0079 93.2403 97.3342 83.6095 96.0876 82.1278C95.2063 87.3418 81.1609 97.3136 81.1609 97.3136C81.1609 97.3136 82.7357 94.1281 82.539 90.5227C82.3422 86.9173 80.571 77.6278 80.571 77.6278L67.8697 88.7402C71.9831 84.3048 72.8376 79.8568 73.3407 73.9948C73.697 69.8426 69.0842 64.4324 70.0217 60.2485C70.9592 56.0646 75.6031 46.8611 75.6031 46.8611L63.8027 56.9333C63.8027 56.9333 66.2588 48.5339 70.1302 44.7065C75.5162 39.3816 76.6974 38.5805 82.9305 34.4051L76.7583 29.8466C76.7583 29.8466 85.5217 30.0455 90.7521 29.7601C98.8946 29.3158 107.92 20.4603 117.236 22.2414Z" fill="#3E3E60"></path>
<path d="M138.897 26.4101C133.524 24.6995 131.409 26.4101 127.261 24.1332C123.113 21.8563 115.337 16.3562 115.337 16.3562C115.337 16.3562 116.457 25.4913 118.772 28.2809C121.088 31.0704 127.261 33.9836 127.261 33.9836C127.261 33.9836 122.077 33.6585 118.772 32.4286C115.468 31.1986 108.597 28.7985 108.597 28.7985C108.597 28.7985 110.864 38.5309 114.818 40.4051C118.772 42.2793 122.077 45.4434 122.077 45.4434L124.984 50.6883L119.484 59.9067L119.484 67.1652L127.261 61.4621C127.261 61.4621 132.551 60.3425 138.149 61.4621C143.747 62.5817 143.852 64.5729 144.889 67.1652L149.996 59.9067C145.926 60.9436 138.248 58.7196 137.681 55.229C136.523 48.102 143.228 45.8984 148 49.5375C149.468 50.6571 148 54.2036 148 54.2036C148 54.2036 149.949 51.0102 151.629 52.1298C153.308 53.2494 153.915 53.2806 153.915 53.2806L160.633 45.4434C160.633 45.4434 158.218 41.913 155.594 40.4051C152.971 38.8973 149.996 37.0463 149.996 37.0463C146.057 32.9126 144.269 28.1206 138.897 26.4101Z" fill="black"></path>
<path d="M137.121 34.8504L142.097 44.324C142.097 44.324 139.609 39.1566 141.267 39.1566C142.926 39.1566 143.755 41.7403 143.755 41.7403C143.755 41.7403 144.585 40.8791 145.414 41.7403C146.243 42.6015 146.243 44.324 146.243 44.324H148.317C148.317 44.324 147.902 41.7403 145.414 40.0178C142.926 38.2953 141.267 33.1279 141.267 33.1279C141.267 33.1279 141.267 35.7116 142.097 37.4341C142.926 39.1566 143.755 40.0178 143.755 40.0178L137.121 34.8504Z" fill="white"></path>
<path d="M141.879 44.3095L143.291 43.7629L143.429 42.3445L144.016 43.6596L145.539 43.7879L144.127 44.3345L143.989 45.7529L143.402 44.4377L141.879 44.3095Z" fill="white"></path>
<path d="M97.5367 140.156L99.115 151.963C99.115 151.963 98.4906 145.609 100.225 146.244C101.958 146.878 101.837 149.896 101.837 149.896C101.837 149.896 103.034 149.313 103.571 150.531C104.109 151.748 103.45 153.549 103.45 153.549L105.617 154.342C105.617 154.342 106.172 151.482 104.23 148.73C102.288 145.978 102.53 139.942 102.53 139.942C102.53 139.942 101.542 142.642 101.75 144.76C101.958 146.878 102.496 148.096 102.496 148.096L97.5367 140.156Z" fill="white"></path>
<path d="M98.3573 153.154L99.8511 152.576L99.9968 151.076L100.618 152.467L102.229 152.602L100.735 153.181L100.589 154.681L99.9684 153.29L98.3573 153.154Z" fill="white"></path>
</svg>