<svg height="100%" viewbox="0 0 200 200" width="100%" xmlns="http://www.w3.org/2000/svg">
<path d="M135.095 126.378L114.175 120.589C103.356 117.594 86.2047 122.724 86.2047 122.724L79.8337 134.476C79.8337 134.476 109.364 127.45 114.214 133.075C119.063 138.699 112.075 151.324 112.075 151.324C112.075 151.324 134.051 141.682 141.226 143.667C148.4 145.652 150.809 154.118 150.809 154.118C150.809 154.118 148.874 144.619 142.027 140.772C135.18 136.924 126.824 145.921 122.888 141.713C118.953 137.505 135.095 126.378 135.095 126.378Z" fill="#3E3E60"></path>
<path d="M112.604 59.6913C112.604 59.6913 131.454 73.7934 137.222 75.0787C142.989 76.3639 152.625 71.6618 155.695 68.0811C158.766 64.5004 164.321 53.332 164.321 53.332L160.617 51.4719L170.015 47.3812L183.017 37.9385L193.994 40.5909C193.994 40.5909 187.792 39.5302 183.017 42.1831C178.242 44.836 172.24 54.917 172.24 54.917L179.617 53.332L186.035 61.284C186.035 61.284 183.017 57.9392 177.813 57.9392C172.609 57.9392 169.621 62.851 169.621 62.851L164.951 70.894L149.148 92.9206L132.332 97.1635C132.105 97.2413 131.941 97.2621 131.941 97.2621L132.332 97.1635C133.216 96.8606 135.06 95.6938 131.941 91.5264C128.022 86.2884 110.162 88.21 110.162 88.21L119.712 81.4454L108.04 78.2619L112.604 59.6913Z" fill="black"></path>
<path d="M125.336 100.305C122.226 95.2806 122.533 77.646 122.533 77.646L101.732 79.4871L103.845 88.3678L96.5796 82.2924C96.5796 82.2924 106.239 96.7906 105.23 103.254C104.22 109.718 98.6765 109.499 98.6765 109.499L113.804 118.776L140.604 114.694L149.621 112.416C149.621 112.416 155.144 116.184 153.596 119.985C152.047 123.786 146.833 129.11 146.833 129.11L159.79 121.21L157.374 110.705C157.374 110.705 166.158 111.2 167.596 117.515C169.02 123.763 162.925 129.192 162.796 129.306L171.734 121.422L166.539 110.782L160.964 101.89L151.472 98.0243L152.728 101.973C152.728 101.973 140.857 105.802 136.15 106.107C131.443 106.412 128.446 105.329 125.336 100.305Z" fill="black"></path>
<path d="M61.5001 108.5C60.8792 111.942 54.1772 121.769 54.1772 121.769C54.1772 121.769 63.8087 113.385 66.6544 106.942C69.5001 100.5 67.2467 91.8028 64.9141 87.8963C62.5815 83.9898 54.1772 79.8535 54.1772 79.8535L56.655 83.9898C56.655 83.9898 48.181 82.2112 36.5709 87.8963C24.9609 93.5813 16.2493 105.852 12.8231 120.406C9.39693 134.961 17.7266 153.074 27.5995 157.318C37.4725 161.563 47.7625 158.893 54.1772 152.543C60.5919 146.193 66.6544 135.034 66.6544 135.034V122.831C66.6544 122.831 60.7966 138.116 53.3899 146.707C45.9832 155.297 30.3051 156.375 24.5001 152.543C18.6951 148.711 15.4918 130.223 18.3716 119.116C21.2514 108.01 31.5001 101.359 36.0001 100.5C40.5001 99.6411 45.0001 99 48.5001 103.5C51.1959 106.966 50.9255 111.619 50.6588 113.574C50.5514 114.151 50.5001 114.5 50.5001 114.5C50.5001 114.5 50.5793 114.157 50.6588 113.574C51.0909 111.254 52.4315 105.254 55.0001 103.5C58.2075 101.31 62.121 105.058 61.5001 108.5Z" fill="#3E3E60"></path>
<path d="M54.6247 87.3731L57.2159 96.5729C57.2159 96.5729 56.0002 91.5968 57.4494 91.9043C58.8986 92.2118 59.1442 94.623 59.1442 94.623C59.1442 94.623 60.0284 94.0243 60.5934 94.9306C61.1583 95.8368 60.8389 97.3417 60.8389 97.3417L62.6505 97.7262C62.6505 97.7262 62.7672 95.3919 60.9127 93.4256C59.0583 91.4594 58.5671 86.637 58.5671 86.637C58.5671 86.637 58.0881 88.8944 58.4933 90.5531C58.8986 92.2118 59.4635 93.1181 59.4635 93.1181L54.6247 87.3731Z" fill="white"></path>
<path d="M57.4963 96.5271L58.5339 95.9502L58.4877 94.8339L59.0854 95.7918L60.282 95.727L59.2444 96.3039L59.2906 97.4203L58.6928 96.4623L57.4963 96.5271Z" fill="white"></path>
<path d="M65.7269 144.584C65.7269 136.174 74.7443 126.014 74.7443 126.014L65.7269 121.769C65.7269 121.769 60.4175 127.549 58.1649 138.968C55.9123 150.386 61.3484 156.257 58.1649 166.338C54.9814 176.419 48.74 175.943 42.2475 171.644C35.755 167.345 23.925 152.953 27.9999 140C32.0748 127.047 69.9525 101.717 74.7443 92.3772C79.5362 83.0371 82.0411 64.4667 80.255 54.3034C78.469 44.14 62.8019 19.7363 46.189 19.7363C39.5188 19.7363 29.1559 28.7538 29.1559 28.7538L33.6647 19.7363C33.6647 19.7363 18.3714 28.7538 14.1268 37.2703C9.88215 45.7868 12.5351 63.9362 15.7185 69.242C18.902 74.5478 31.6359 89.9346 31.6359 89.9346C31.6359 89.9346 22.5734 76.6701 22.6161 71.8949C22.6587 67.1196 24.7384 58.0998 30.5748 62.875C36.4112 67.6502 37.4723 78.7924 37.4723 78.7924C37.4723 78.7924 37.4723 70.8337 33.6647 61.2833C29.857 51.7328 31.116 44.6248 38.9999 36C46.8838 27.3752 66.704 43.4608 70.3683 56C72.8731 64.5716 72.876 79.0654 68.4999 91.5C64.1238 103.935 26.8427 121.769 22.6161 138.968C18.3894 156.166 31.7994 177.72 39.6763 181.049C47.5533 184.378 63.2648 182.786 65.7269 171.644C68.1889 160.502 65.7269 152.995 65.7269 144.584Z" fill="black"></path>
<path d="M18.7591 42.2354L24.7953 56.3847C24.7953 56.3847 21.2974 48.9189 19.7908 50.7671C18.2843 52.6152 20.4098 55.8861 20.4098 55.8861C20.4098 55.8861 18.6969 56.0279 18.9033 57.7343C19.1096 59.4406 21.0289 61.0051 21.0289 61.0051L19.1457 63.3153C19.1457 63.3153 16.6434 60.5065 16.984 56.1697C17.3246 51.833 13.0734 45.2913 13.0734 45.2913C13.0734 45.2913 15.9523 47.6381 17.1183 50.1267C18.2843 52.6152 18.4906 54.3216 18.4906 54.3216L18.7591 42.2354Z" fill="white"></path>
<path d="M20.3679 57.9249L22.2233 57.2067L22.4042 55.3431L23.1753 57.071L25.1764 57.2395L23.321 57.9577L23.1401 59.8214L22.369 58.0934L20.3679 57.9249Z" fill="white"></path>
<path d="M94.3912 121.891C99.0088 111.227 116.843 116.278 125.262 98.3169C133.681 80.3557 120.896 77.9074 118.651 64.9978C116.406 52.0881 128.069 50.046 128.069 50.046L121.836 25.3493C121.836 25.3493 80.7564 24.445 75.1436 48.0192C69.5307 71.5933 89.5993 89.0041 87.0945 98.3169C84.5896 107.63 79.4189 106.27 70.2558 114.033C61.0926 121.796 60.7139 136.485 60.7139 136.485C60.7139 136.485 86.7679 143.22 92.2785 152.762C97.7892 162.304 82.0429 167.355 82.0429 167.355L92.2785 187.562C92.2785 187.562 103.933 181.388 108.423 183.072C112.914 184.755 121.836 187.562 121.836 187.562L108.423 178.02C108.423 178.02 96.0751 183.072 94.3912 174.652C92.7074 166.233 110.314 156.13 110.314 156.13L105.805 138.73C105.805 138.73 89.7737 132.556 94.3912 121.891Z" fill="black"></path>
<path d="M111.819 16.4057L125.668 22.9577L133.443 31.5275L129.316 48.6163C129.316 48.6163 120.125 55.3012 119.717 58.1341C119.31 60.9669 118.872 63.2393 120.737 66.5103C122.601 69.7813 125.995 70.1583 125.995 70.1583C125.995 70.1583 123.814 71.4015 122.071 70.3724C120.329 69.3432 117.404 67.2543 117.404 67.2543C117.404 67.2543 119.952 72.7365 119.667 77.8112C119.382 82.8859 119.504 85.1277 119.504 85.1277C119.504 85.1277 118.138 80.7052 116.243 76.8737C114.347 73.0423 109.181 71.0757 109.181 71.0757L110.914 82.2236C110.914 82.2236 108.396 77.3019 104.32 74.7136C100.244 72.1254 99.2863 64.8701 99.2863 64.8701C99.2863 64.8701 99.6533 71.5955 98.7158 75.0194C97.7784 78.4433 94.9455 78.0358 94.1916 84.8224C93.4376 91.609 96.7596 90.6783 96.8921 93.1069C96.8921 93.1069 91.634 89.4589 90.4213 87.8387C89.2087 86.2185 87.0074 76.7825 87.0074 76.7825C87.0074 76.7825 87.1603 79.5848 86.3452 85.2505C85.5301 90.9162 79.7015 97.4176 79.7015 97.4176C79.7015 97.4176 81.1994 93.9632 80.9853 90.04C80.7712 86.1168 76.5423 80.7263 76.5423 80.7263L66.821 88.0022C70.7595 83.2052 73.4876 80.4963 73.9335 74.1231C74.2493 69.6089 67.0651 61.569 67.9414 57.0242C68.8177 52.4794 70.662 45.0712 70.662 45.0712L62.6832 53.3763C62.6832 53.3763 64.9962 44.2561 68.7054 40.1188C73.8657 34.3628 82.5432 31.851 89.4522 28.8686L83.2872 29.205L77.4075 24.4667C77.4075 24.4667 79.15 25.4958 84.1941 25.2206C89.2382 24.9454 96.1877 18.3829 101.232 18.1076C106.276 17.8324 111.819 16.4057 111.819 16.4057Z" fill="#3E3E60"></path>
<path d="M139.586 21C134.788 19.4722 127 17 127 17L106.704 6.54807C106.704 6.54807 109.211 13.9948 111.28 16.4863C113.348 18.9779 121.612 24.1514 121.612 24.1514L111.28 25.9939L96.4265 24.1514C96.4265 24.1514 100.988 30.5303 104.551 31.5684C108.115 32.6065 115.368 34.7575 115.368 34.7575L117.194 46.7402L123.345 50.0753L114.184 54.6182L107.649 64.8304L118.201 58.2501L127.16 57.0878L119.832 66.4046C119.832 66.4046 133.5 53.6182 138.5 54.6182C143.5 55.6182 145 57.7393 145 61L147.951 55.702L145 52.871C145 52.871 145.09 51.1336 148 50.5C150.91 49.8664 152.5 53.7421 153.5 52.871C154.5 52 153 48.9463 147.5 49.871C142 50.7957 140.469 51.371 140.469 51.371C140.469 51.371 135.864 48.9804 135.5 46.7402C135.136 44.5 136.978 36 139.969 37C142.961 38 145.844 41 146.5 41.5C147.811 42.5 146.5 46.7402 146.5 46.7402C146.5 46.7402 149.5 41.5 151 42.5C152.5 43.5 154 44 154 44L159 38C159 38 156.843 34.8468 154.5 33.5C152.157 32.1532 149.5 30.5 149.5 30.5C145.982 26.8079 144.384 22.5278 139.586 21Z" fill="black"></path>
<path d="M139.5 28.2739L144.259 36.8657C144.259 36.8657 141.871 32.1747 143.393 32.1409C144.915 32.1071 145.729 34.4611 145.729 34.4611C145.729 34.4611 146.472 33.6539 147.251 34.4273C148.029 35.2007 148.065 36.7812 148.065 36.7812L149.967 36.739C149.967 36.739 149.534 34.3766 147.216 32.8467C144.898 31.3168 143.27 26.6088 143.27 26.6088C143.27 26.6088 143.323 28.9797 144.119 30.5434C144.915 32.1071 145.694 32.8805 145.694 32.8805L139.5 28.2739Z" fill="white"></path>
<path d="M144.763 35.4973L145.601 36.3695L146.689 36.0334L145.901 36.8717L146.276 38.0338L145.438 37.1616L144.35 37.4977L145.138 36.6594L144.763 35.4973Z" fill="white"></path>
<path d="M139.198 84.3409L150.617 83.0861C150.617 83.0861 144.478 83.5445 145.128 81.8872C145.779 80.2298 148.686 80.4149 148.686 80.4149C148.686 80.4149 148.151 79.2483 149.337 78.7575C150.523 78.2668 152.244 78.9426 152.244 78.9426L153.058 76.8709C153.058 76.8709 150.314 76.2714 147.616 78.0816C144.919 79.8918 139.104 79.5216 139.104 79.5216C139.104 79.5216 141.686 80.5354 143.733 80.3826C145.779 80.2298 146.965 79.739 146.965 79.739L139.198 84.3409Z" fill="white"></path>
<path d="M149.368 81.925L150.688 81.4142L150.816 80.0887L151.365 81.3177L152.788 81.4375L151.469 81.9483L151.34 83.2738L150.791 82.0448L149.368 81.925Z" fill="white"></path>
<path d="M95.4945 138.737L97.0166 150.123C97.0166 150.123 96.4144 143.996 98.0866 144.607C99.7588 145.219 99.6419 148.13 99.6419 148.13C99.6419 148.13 100.796 147.567 101.314 148.742C101.832 149.916 101.197 151.652 101.197 151.652L103.287 152.417C103.287 152.417 103.822 149.659 101.949 147.005C100.076 144.351 100.31 138.53 100.31 138.53C100.31 138.53 99.3573 141.134 99.5581 143.177C99.7588 145.219 100.277 146.393 100.277 146.393L95.4945 138.737Z" fill="white"></path>
<path d="M96.2856 151.271L97.7262 150.714L97.8667 149.267L98.4654 150.608L100.019 150.739L98.5785 151.297L98.4381 152.744L97.8393 151.402L96.2856 151.271Z" fill="white"></path>
<defs></defs>
</svg>