<svg height="100%" viewbox="0 0 200 200" width="100%" xmlns="http://www.w3.org/2000/svg">
<path d="M99.3231 60.298C83.2277 72.8166 88.0714 96.5125 75.9999 108.584C59.2355 125.348 38.5665 125.484 25.9999 108.584C35.5684 141.229 78.5196 157.464 110 142C135.484 129.481 121.231 100.983 131.067 97.4067C140.903 93.8299 149.688 87.2593 155.5 81C161.312 74.7407 175.353 55.8271 163.281 55.8271C151.21 55.8271 115.418 47.7794 99.3231 60.298Z" fill="black"></path>
<path d="M121.14 68.3007C126.07 65.7486 126.568 58.4835 136.963 64.2315C141.459 69.4675 136.888 75.7592 136.888 75.7592C136.888 75.7592 127.309 78.9629 121.669 76.8885C116.03 74.8141 113.186 71.4431 112.749 71.2016C112.749 71.2016 116.209 70.8528 121.14 68.3007Z" fill="white"></path>
<path d="M140.761 72.3639C138.644 76.1912 133.826 77.5781 129.999 75.4617C126.172 73.3454 124.785 68.5271 126.901 64.6999C129.017 60.8726 133.836 59.4857 137.663 61.602C141.49 63.7184 142.877 68.5367 140.761 72.3639Z" fill="black"></path>
<path d="M131.595 72.5744C130.714 74.1691 128.706 74.747 127.111 73.8652C125.517 72.9834 124.939 70.9758 125.821 69.3811C126.702 67.7864 128.71 67.2085 130.305 68.0903C131.899 68.9721 132.477 70.9797 131.595 72.5744Z" fill="white"></path>
</svg>