<svg height="100%" viewbox="0 0 200 200" width="100%" xmlns="http://www.w3.org/2000/svg">
<path d="M160.652 95.7784C166.764 105.819 135.297 98.8341 130.968 91.4129C125.615 82.2366 113.422 94.2868 110 102.5C110 102.5 121.952 104.642 128.5 112.5C135.048 120.358 130.968 137.686 130.968 137.686C130.968 137.686 138.698 126.328 141 131C143.302 135.672 134.023 146.853 134.023 146.853C134.023 146.853 108.704 158.64 96.481 157.767C84.2579 156.894 70.3981 152.965 70.3981 152.965C70.3981 152.965 61.2308 157.767 52.5 157.767C43.7692 157.767 31 154.275 31 154.275C42.6411 151.219 51.5077 139.869 55 129.828C58.4923 119.788 53.2635 100.58 65.9232 80.4995C78.5829 60.4186 93.4252 52.1242 112.633 50.3781C131.841 48.6319 136.206 52.9973 146.683 62.1647C157.16 71.3321 154.541 85.7379 160.652 95.7784Z" fill="black"></path>
<path d="M142.791 94.2471C144.144 94.6889 145.382 94.5011 145.382 94.5011L143.043 89.4768L147.368 95.2161C147.368 95.2161 146.839 95.3834 145.991 95.474C145.799 95.5124 145.268 95.5926 144.444 95.5193C143.1 95.4543 141.455 95.0985 139.866 94.0342C139.16 93.6589 138.404 93.1941 137.6 92.6195C132.391 88.8923 131.731 84.9209 131.731 84.9209C131.731 84.9209 133.681 88.0656 136.785 90.6558C134.199 85.9793 136.656 81 136.656 81L140.71 86.38C139.995 87.4978 138.952 89.7121 140.067 91.924C140.507 92.796 141.111 93.3825 141.756 93.7748C142.113 93.9457 142.459 94.1031 142.791 94.2471Z" fill="white"></path>
<path d="M49.4931 153.977C48.4614 153.866 47.6939 153.371 47.6939 153.371L50.7506 150.729L46.1596 153.254C46.1596 153.254 46.4612 153.523 46.998 153.836C47.1144 153.919 47.4437 154.132 48.0136 154.329C48.9266 154.687 50.1272 154.942 51.5019 154.709C52.0833 154.671 52.7255 154.588 53.4312 154.445C58.0095 153.523 59.635 151.079 59.635 151.079C59.635 151.079 57.3983 152.588 54.5604 153.383C57.6775 151.046 57.5312 147 57.5312 147L53.2277 149.367C53.3694 150.324 53.401 152.108 51.9986 153.246C51.4458 153.694 50.8683 153.904 50.3225 153.972C50.034 153.979 49.7565 153.98 49.4931 153.977Z" fill="white"></path>
</svg>