<svg height="100%" viewbox="0 0 200 200" width="100%" xmlns="http://www.w3.org/2000/svg">
<path d="M174.239 83.5524C171.8 79.123 164.445 75.6576 164.445 75.6576L164.431 79.5867C164.431 79.5867 170.808 81.5751 172.269 85.0186C173.73 88.4621 171.239 97.7847 171.239 97.7847L174.204 92.8842L174.681 96.8152C174.681 96.8152 176.678 87.9819 174.239 83.5524Z" fill="black"></path>
<path d="M140.508 121.328C140.508 121.328 123.971 146.017 114.356 142.653C104.741 139.289 107.686 125.691 110.057 122.801C112.428 119.912 117.443 116.336 124.658 116.993C131.872 117.649 132.507 116.159 132.507 116.159L132.998 108.3L136.928 114.194L142.33 108.301L140.508 121.328Z" fill="#3E3E60"></path>
<path d="M148.605 72.5954C145.519 64.4379 142.454 61.7129 137.146 58.5781C131.838 55.4432 114.933 76.1882 115.621 93.234C116.31 110.28 125.3 125.618 125.3 125.618C125.3 125.618 132.979 125.555 139.106 129.419C145.233 133.284 150.471 135.077 150.471 135.077L160.515 128.664L156.145 136.025L164 137.338L151.991 144.771C151.991 144.771 111.658 156.747 99.5844 153.83C87.5107 150.912 78.6361 150.328 78.6361 150.328C78.6361 150.328 65.8557 149.65 64.884 155.463C63.9122 161.277 75.3751 167.176 86.7598 167.586C98.1445 167.995 123.512 158.292 138.657 164.31C153.801 170.327 158.452 185.545 158.452 185.545C158.452 185.545 152.586 174.911 136.336 168.901C120.086 162.892 95.6222 177.533 78.5188 178.159C61.4154 178.786 19.727 172.031 32.1874 145.516C38.3705 132.359 55.1802 129.486 60.3529 120.012C65.5255 110.538 63.9122 80.8463 81.0796 58.5781C98.247 36.3098 117.651 26.9646 137.146 28.4254C156.641 29.8861 160.275 34.9886 169.214 45.9228C178.153 56.857 173.122 70.85 177.55 81.9292C181.979 93.0084 151.69 80.7528 148.605 72.5954Z" fill="black"></path>
<path d="M158.823 76.8655C160.223 77.6422 161.631 77.6988 161.631 77.6988L160.119 71.6497L163.672 78.9122C163.672 78.9122 163.052 78.9842 162.096 78.9036C161.876 78.905 161.272 78.8803 160.377 78.6235C158.907 78.2651 157.165 77.5212 155.637 76.0065C154.937 75.4415 154.2 74.7666 153.436 73.9606C148.476 68.7321 148.594 64.2042 148.594 64.2042C148.594 64.2042 150.078 68.0941 152.954 71.6173C151.095 65.8998 154.871 60.9232 154.871 60.9232L158.202 67.7311C157.173 68.8133 155.549 71.0371 156.309 73.7184C156.609 74.7754 157.152 75.5523 157.78 76.1231C158.138 76.388 158.487 76.6358 158.823 76.8655Z" fill="white"></path>
<path d="M73.782 145.721C72.1903 146.024 70.8188 145.632 70.8188 145.632L74.1878 140.297L68.4726 146.152C68.4726 146.152 69.0454 146.418 69.9899 146.643C70.2013 146.714 70.7898 146.882 71.7309 146.918C73.2577 147.039 75.1675 146.876 77.1161 145.904C77.9674 145.582 78.8893 145.167 79.8795 144.635C86.3025 141.18 87.623 136.79 87.623 136.79C87.623 136.79 84.965 140.059 81.0849 142.535C84.6826 137.628 82.6289 131.649 82.6289 131.649L77.2715 137.138C77.9175 138.504 78.7739 141.155 77.1945 143.492C76.5718 144.413 75.8039 144.988 75.0193 145.337C74.5913 145.479 74.177 145.606 73.782 145.721Z" fill="white"></path>
<path d="M47.5391 88.6544C47.5391 88.6544 48.5214 76.4442 45.0834 79.8137L34.4995 87.0001L21.9995 114.87C21.9995 114.87 26.4995 93 31.9995 84.5C37.4995 75.9999 49.9949 57.8969 49.9949 57.8969L75.0434 49.9699L79.9549 64.2132L67.1851 96.5128C67.1851 96.5128 72.5877 70.4819 63.2559 73.4288C53.9241 76.3757 47.5391 88.6544 47.5391 88.6544Z" fill="black"></path>
<path d="M65.6866 86.6856C64.2328 90.3658 58.207 121.728 58.207 121.728L64.6245 67.2134L78.2674 54.216L83.8418 64.7972L87.6822 61.5591C87.6822 61.5591 88.8935 73.5344 86.0671 76.7292C83.2408 79.924 82.837 79.1305 82.837 79.1305L79.2031 92.9747C79.2031 92.9747 80.5518 71.8923 75.468 76.7292C70.3843 81.5661 68.7894 93.4049 68.7894 93.4049C68.7894 93.4049 67.1405 83.0054 65.6866 86.6856Z" fill="#3E3E60"></path>
<path d="M69.6717 76.717C68.5464 77.3673 67.4664 77.2915 67.4664 77.2915L69.0546 71.3391L65.82 78.3214C65.82 78.3214 66.2882 78.4525 67.0245 78.4614C67.1928 78.4836 67.6562 78.5158 68.358 78.3415C69.5071 78.1192 70.8913 77.5341 72.1673 76.1522C72.7422 75.6488 73.3535 75.0384 73.9954 74.2985C78.1592 69.4984 78.3931 64.925 78.3931 64.925C78.3931 64.925 76.981 68.7044 74.5314 71.9829C76.3612 66.3974 73.832 61.0266 73.832 61.0266L70.7999 67.5718C71.5084 68.7593 72.5898 71.1533 71.8173 73.7831C71.5128 74.8199 71.0424 75.5514 70.5215 76.0673C70.229 76.3005 69.9444 76.5171 69.6717 76.717Z" fill="white"></path>
<path d="M55.0371 72.9112C53.553 73.5616 52.1288 73.4857 52.1288 73.4857L54.2232 67.5333L49.9576 74.5156C49.9576 74.5156 50.5751 74.6467 51.546 74.6556C51.7681 74.6779 52.3791 74.71 53.3046 74.5358C54.82 74.3134 56.6453 73.7283 58.3281 72.3464C59.0862 71.8431 59.8924 71.2326 60.7388 70.4927C66.2298 65.6926 66.5383 61.1193 66.5383 61.1193C66.5383 61.1193 64.6761 64.8986 61.4457 68.1771C63.8588 62.5917 60.5234 57.2208 60.5234 57.2208L56.5248 63.766C57.4591 64.9535 58.8852 67.3475 57.8666 69.9774C57.465 71.0141 56.8446 71.7457 56.1577 72.2615C55.772 72.4947 55.3966 72.7113 55.0371 72.9112Z" fill="white"></path>
</svg>