<svg height="100%" viewBox="0 0 200 200" width="100%" xmlns="http://www.w3.org/2000/svg">
<path d="M37.5781 91L61.5781 68L72.0781 88.5L68.0781 108.5L60.0781 103L37.5781 113L27.0781 103L28.5781 82L37.5781 91Z" fill="#3E3E60"></path>
<path d="M142.061 128.164C146.712 142.111 140.077 190.766 140.077 190.766C140.077 190.766 146.483 156.198 146.71 133.065C146.937 109.931 144.114 89.1458 144.114 89.1458L142.136 94.2575C142.136 94.2575 139.572 83.5606 135.157 82.6646C130.743 81.7687 128.866 70.6457 128.866 70.6457L127.405 83.3525L121.261 64.6657L110.878 82.4001L108.345 89.4861L99.9796 83.129L81.0179 105.811L95.5423 109.536L95.5423 119.467L106.006 112.646L110.307 128.265L112.367 111.395L116.936 132.11C116.936 132.11 114.662 95.9275 121.587 105.811C128.511 115.694 128.87 137.359 128.87 137.359C128.87 137.359 137.409 114.216 142.061 128.164Z" fill="#3E3E60"></path>
<path d="M178.501 88.2765C174.557 85.19 171.027 79 171.027 79L174.77 79.5098C174.77 79.5098 177.857 85.2709 180.973 87.2247C184.088 89.1785 191.336 88.9039 191.336 88.9039L187.531 89.8674L190.811 91.1887C190.811 91.1887 182.446 91.363 178.501 88.2765Z" fill="#3E3E60"></path>
<path d="M159.789 81.5003C152.517 78.5006 138.957 73.8611 131 66C123.043 58.1389 116 37.0058 98.5 46.4199C81 55.834 92.9934 85.5001 92.9934 85.5001C101.987 124.58 78.3504 121.271 53.0771 140C38.0771 151.116 46.3983 164 61.8983 169C77.3983 174 111.1 137.268 128.5 140C145.082 142.604 181.5 163.5 180 168C178.5 172.5 109 192 109 192C109 192 167.062 173.954 165.942 165.5C164.822 157.047 144.5 148 131 148C117.5 148 109.398 156 92.9934 171.995C76.5886 187.99 56.691 191.035 37.8983 185C20.7276 181.594 2.5771 152.43 17.5771 127C32.5771 101.57 46.8982 114.96 56.8983 95.0001C66.8984 75.0397 51.9819 60.3555 62.0771 38.7237C72.1723 17.092 82.5 12.5003 101 14.5003C119.5 16.5002 148.016 41.8917 148.016 41.8917C148.016 41.8917 158.287 45.4017 149.241 40.7237C140.194 36.0456 139.857 29.6389 139.857 29.6389C139.857 29.6389 140.195 33.271 145.977 36.7475C151.758 40.224 157.079 41.8917 157.079 41.8917L152.136 33.2132L167.062 51.284L165.942 46.4199C165.026 42.4401 159.789 37.0058 159.789 37.0058C159.789 37.0058 168.087 42.7573 170.873 50.5277C173.658 58.2981 178.825 63.3705 178.825 63.3705L167.909 54.9C167.909 54.9 174.275 60.6389 176.275 68.6389C178.275 76.6389 179.34 76.3616 183 81.5003C186.66 86.6389 167.062 84.5 159.789 81.5003Z" fill="black"></path>
<path d="M164.573 79.6027C165.864 80.064 167.077 79.9522 167.077 79.9522L165.057 75.313L168.97 80.6892C168.97 80.6892 168.448 80.8155 167.62 80.8578C167.431 80.8835 166.911 80.9311 166.114 80.8267C164.813 80.7057 163.232 80.3084 161.742 79.2748C161.076 78.9037 160.364 78.4494 159.613 77.894C154.74 74.291 154.298 70.6793 154.298 70.6793C154.298 70.6793 156.034 73.6055 158.919 76.0853C156.642 71.7483 159.277 67.3726 159.277 67.3726L162.945 72.4122C162.195 73.3869 161.071 75.3351 162.043 77.3814C162.427 78.1881 162.985 78.7451 163.591 79.1288C163.929 79.2995 164.258 79.4575 164.573 79.6027Z" fill="white"></path>
<path d="M152.474 68.6904C153.214 68.9092 153.89 68.8092 153.89 68.8092L152.592 66.2717L154.977 69.164C154.977 69.164 154.689 69.2508 154.226 69.3C154.122 69.3202 153.832 69.3629 153.382 69.3289C152.648 69.3011 151.748 69.1271 150.876 68.5937C150.49 68.4063 150.075 68.1736 149.634 67.8855C146.774 66.0164 146.398 64.0061 146.398 64.0061C146.398 64.0061 147.476 65.5925 149.18 66.8933C147.749 64.5331 149.07 62 149.07 62L151.306 64.7112C150.92 65.2805 150.36 66.4067 150.978 67.5235C151.221 67.9637 151.554 68.2587 151.907 68.455C152.103 68.5403 152.293 68.6187 152.474 68.6904Z" fill="white"></path>
<path d="M31.4193 147.022C29.7402 147.353 28.2789 146.997 28.2789 146.997L31.727 141.68L25.8056 147.557C25.8056 147.557 26.4182 147.806 27.4236 148.008C27.6492 148.074 28.2762 148.226 29.2738 148.242C30.8937 148.329 32.9128 148.129 34.9547 147.132C35.8491 146.798 36.8163 146.371 37.853 145.826C44.5782 142.295 45.878 137.951 45.878 137.951C45.878 137.951 43.1363 141.221 39.0825 143.737C42.7825 138.837 40.4727 133 40.4727 133L34.9219 138.509C35.6369 139.839 36.6037 142.428 34.9834 144.759C34.3447 145.678 33.5443 146.259 32.7211 146.619C32.271 146.767 31.8351 146.901 31.4193 147.022Z" fill="white"></path>
<path d="M131.777 116.895C132.728 118.422 134.027 119.164 134.027 119.164L135.461 111.813L135.376 121.479C135.376 121.479 134.759 121.259 133.897 120.708C133.688 120.603 133.131 120.284 132.41 119.57C131.195 118.467 129.906 116.811 129.183 114.414C128.791 113.457 128.416 112.362 128.077 111.111C125.876 102.99 128.126 98.0913 128.126 98.0913C128.126 98.0913 127.686 103.066 128.73 108.313C129.68 101.156 135.586 97.5353 135.586 97.5353L135.507 106.597C134.027 107.284 131.448 108.933 130.897 112.235C130.679 113.536 130.824 114.649 131.146 115.578C131.358 116.041 131.57 116.481 131.777 116.895Z" fill="white"></path>
<path d="M76.3463 143.556C76.3463 143.556 77.0405 121.228 81.0826 128.586C81.0826 128.586 98.1788 143.007 101.179 158.007C104.179 173.007 106.179 200.34 106.179 200.34C106.179 200.34 106.179 157.006 101.179 143.556C96.1788 130.106 78.1199 87.3206 78.1199 87.3206L48.1788 65.0059L48.1788 77.0059L37.0298 87.3655L28.0828 81.5757C28.0828 81.5757 19.8153 103.007 29.5 111.507C39.1847 120.007 42.9708 117.263 42.9708 117.263L54.3145 145.43C54.3145 145.43 45.848 101.42 57.8386 110.243C69.8293 119.065 76.3463 143.556 76.3463 143.556Z" fill="#3E3E60"></path>
<path d="M73.4808 112.768C75.6128 113.664 77.502 113.288 77.502 113.288L73.3662 103.137L80.6386 114.737C80.6386 114.737 79.8415 115.074 78.5439 115.254C78.2518 115.331 77.4412 115.491 76.1634 115.341C74.0853 115.206 71.5113 114.483 68.9496 112.33C67.8222 111.57 66.6066 110.629 65.308 109.467C56.884 101.927 55.4473 93.9069 55.4473 93.9069C55.4473 93.9069 58.7858 100.262 63.8435 105.5C59.3633 96.0509 62.625 86.0049 62.625 86.0049L69.4422 96.8786C68.4576 99.1333 67.0847 103.601 69.0369 108.07C69.8065 109.832 70.8007 111.017 71.8355 111.811C72.404 112.157 72.9549 112.476 73.4808 112.768Z" fill="white"></path>
<path d="M141.998 68.5001C146.998 74.9312 157.498 79.5001 157.498 79.5001C157.498 79.5001 139.498 72.5005 134.998 67.5001C130.498 62.4998 128.998 61.5001 125.498 55.5C121.998 49.4999 115.398 45.4 114.998 45C114.498 44.5 127.498 51.0002 131.998 55.5C136.498 59.9998 136.998 62.0691 141.998 68.5001Z" fill="#3E3E60"></path>
<defs></defs>
</svg>