<svg height="100%" viewBox="0 0 200 200" width="100%" xmlns="http://www.w3.org/2000/svg">
<path d="M70.2805 133.39C63.0156 131.155 45.1326 100.418 45.1326 100.418C56.8683 103.213 75.3101 98.3224 79.7808 95.9476C84.2516 93.5729 98.2224 73.0352 98.2224 73.0352L95.4282 64.6528L117.782 59.623C117.782 59.623 135.07 64.3671 139.577 67.4468C144.084 70.5264 155.348 82.9378 155.348 82.9378C155.348 82.9378 131.636 92.6178 124.488 98.183C117.34 103.748 109.399 127.243 104.783 131.473C100.167 135.703 77.5455 135.625 70.2805 133.39Z" fill="black"></path>
<path d="M128.773 79.6003L137.88 84.3153L132.856 85.756L134.279 83.9207L129.075 81.2264L128.255 86.3138L126.35 82.3881L120.751 83.8984L122.929 86.1284L115.848 82.8302L128.773 79.6003Z" fill="white"></path>
</svg>