<svg height="100%" viewBox="0 0 200 200" width="100%" xmlns="http://www.w3.org/2000/svg">
<path d="M37.5319 48.0691H55.749L46.3054 22.7305L37.5319 16.5L52.4897 20.5L91.0662 48.0691L66.726 57.1704L40.822 86.1571L47.8119 62.7714L37.5319 71.362L26.6362 88.5433L31.4088 68.4985L44.2948 55.1352L19.0001 57.1704L37.5319 48.0691Z" fill="#3E3E60"></path>
<path d="M149.887 50.9646L121.74 29.9551L128.58 54.2034L126.453 65.7103L140.21 73.6073L156.323 99.3819L155.745 73.2434L149.887 50.9646Z" fill="black"></path>
<path d="M37.8978 86.1567C38.4594 83.2693 61.7799 50.8635 61.7799 50.8635L95.8389 42.623L91.3608 36.0448L113.02 38.4314L130.202 46.5444L140.716 61.2232L136.355 71.3626L118.491 61.8945L107.867 64.3229L91.7984 71.5092L91.3608 88.7564L73.7519 101.797L56.4461 98.4307C56.4461 98.4307 53.3627 134.36 58.1001 139.048C62.8375 143.735 91.7984 151.146 101.089 155.359C110.379 159.572 114.929 183.518 114.929 183.518C114.929 183.518 105.42 161.006 98.7023 158.701C83.525 153.492 51.6165 154.068 46.6811 149.155C41.7457 144.242 37.3361 89.0441 37.8978 86.1567Z" fill="black"></path>
<path d="M150.288 74.1189L150.049 82.8418L147.317 78.6717L149.102 79.6261L149.238 74.6416L145.354 74.7326L147.487 72.441L144.51 67.7785L143.672 70.0397L143.597 63.3167L150.288 74.1189Z" fill="white"></path>
<path d="M64.9983 35.1998L55.4964 32.0232L57.9051 36.5259L58.2233 34.2794L63.6529 36.0946L60.644 40.1307L64.6921 38.7949L67.4432 43.7483L64.398 43.7386L71.5275 46.4582L64.9983 35.1998Z" fill="white"></path>
<path d="M127.051 108.879L134.714 157.849L117.006 107.928L102.005 107.374L94.3293 113.196L76.271 95.2252L85 86L94.3293 101L104.877 90.7513L108.5 67.1602L127.051 108.879Z" fill="black"></path>
<path d="M118.451 96.5588L117.831 105.263L115.284 100.977L117.025 102.009L117.38 97.0351L113.496 96.9562L115.727 94.7601L112.956 89.9718L112.02 92.1943L112.239 85.4744L118.451 96.5588Z" fill="white"></path>
<path d="M70.3682 121.682L102.52 148.449L81.6597 113.089L56.2449 79.0921L70.3682 121.682Z" fill="#3E3E60"></path>
<path d="M74.6061 119.67L81.8421 124.548L80.0377 119.9L79.7763 121.907L75.6415 119.12L77.9736 116.013L74.8691 116.416L72.8067 111.283L75.1338 111.916L69.7073 107.946L74.6061 119.67Z" fill="white"></path>
</svg>